<svg width="32" height="32" viewBox="0 0 32 32" fill="none" xmlns="http://www.w3.org/2000/svg">
<path fill-rule="evenodd" clip-rule="evenodd" d="M30 16C30 23.732 23.732 30 16 30C8.26801 30 2 23.732 2 16C2 8.26801 8.26801 2 16 2C23.732 2 30 8.26801 30 16ZM16.7398 19.5412H15.4936C15.2136 19.5412 14.9813 19.3248 14.9616 19.0455L14.2904 9.57102C14.2686 9.2624 14.5131 9 14.8224 9H17.4109C17.7203 9 17.9647 9.2624 17.9429 9.57102L17.2718 19.0455C17.252 19.3248 17.0197 19.5412 16.7398 19.5412ZM16.1166 23.4375C16.8898 23.4375 17.5166 22.8107 17.5166 22.0375C17.5166 21.2643 16.8898 20.6375 16.1166 20.6375C15.3434 20.6375 14.7166 21.2643 14.7166 22.0375C14.7166 22.8107 15.3434 23.4375 16.1166 23.4375Z" fill="currentColor"/>
</svg>
