<svg width="32" height="32" viewBox="0 0 32 32" fill="none" xmlns="http://www.w3.org/2000/svg">
<path fill-rule="evenodd" clip-rule="evenodd" d="M19.0247 5.40832C18.9148 4.87395 18.6589 4.39085 18.2992 4C17.7344 3.38625 16.9136 3 16 3C15.0864 3 14.2656 3.38625 13.7007 4C13.341 4.39085 13.0852 4.87395 12.9753 5.40832C7.33249 7.09362 6.84919 13.5719 6.97724 16.8138C7.02432 18.0058 6.68606 19.2036 5.89968 20.1006L4.51375 21.6816C3.38046 22.9744 4.2985 25 6.01769 25H11.887C11.887 25.7286 12.0873 26.4117 12.4373 27C13.1484 28.1956 14.4776 29 16 29C17.5223 29 18.8515 28.1956 19.5627 27C19.9126 26.4117 20.1129 25.7286 20.1129 25H25.9823C27.7015 25 28.6195 22.9744 27.4862 21.6816L26.1003 20.1006C25.3139 19.2036 24.9756 18.0058 25.0227 16.8138C25.1508 13.5719 24.6675 7.09362 19.0247 5.40832Z" fill="currentColor"/>
</svg>
