<svg width="32" height="32" viewBox="0 0 32 32" fill="none" xmlns="http://www.w3.org/2000/svg">
<path fill-rule="evenodd" clip-rule="evenodd" d="M16.6391 2.23066C16.2687 1.92311 15.7318 1.92311 15.3614 2.23066L12.2099 4.84756C12.0337 4.99386 11.8127 5.07526 11.5837 5.07814L7.50914 5.12954C7.03231 5.13556 6.62606 5.47744 6.53869 5.94624L5.77696 10.0331C5.73574 10.2543 5.62115 10.4551 5.4517 10.6031L2.34223 13.3188C1.98763 13.6285 1.89708 14.1436 2.1248 14.5557L4.13546 18.194C4.24361 18.3897 4.28306 18.616 4.24749 18.8368L3.5844 22.9521C3.50912 23.4192 3.7716 23.8752 4.21338 24.0447L8.03746 25.5123C8.24949 25.5937 8.4275 25.7448 8.54222 25.9408L10.6278 29.5042C10.8704 29.9185 11.3731 30.1021 11.8256 29.9414L15.6655 28.5774C15.882 28.5005 16.1184 28.5005 16.3349 28.5774L20.1749 29.9414C20.6273 30.1021 21.1301 29.9185 21.3726 29.5042L23.4582 25.9408C23.573 25.7448 23.751 25.5937 23.963 25.5123L27.7871 24.0447C28.2289 23.8752 28.4913 23.4192 28.4161 22.9521L27.753 18.8368C27.7174 18.616 27.7568 18.3897 27.865 18.194L29.8757 14.5557C30.1034 14.1436 30.0128 13.6285 29.6582 13.3188L26.5488 10.6031C26.3793 10.4551 26.2647 10.2543 26.2235 10.0331L25.4618 5.94624C25.3744 5.47744 24.9681 5.13556 24.4913 5.12954L20.4168 5.07814C20.1878 5.07526 19.9667 4.99386 19.7905 4.84756L16.6391 2.23066ZM20.8408 12.9144C21.2284 12.5209 21.2284 11.8831 20.8408 11.4897C20.4532 11.0963 19.8248 11.0963 19.4372 11.4897L11.1596 19.8911C10.772 20.2845 10.772 20.9223 11.1596 21.3157C11.5472 21.7091 12.1757 21.7091 12.5633 21.3157L20.8408 12.9144ZM13.4135 12.4646C13.4135 13.1896 12.8344 13.7773 12.1201 13.7773C11.4058 13.7773 10.8267 13.1896 10.8267 12.4646C10.8267 11.7396 11.4058 11.1518 12.1201 11.1518C12.8344 11.1518 13.4135 11.7396 13.4135 12.4646ZM19.8803 21.6536C20.5946 21.6536 21.1737 21.0659 21.1737 20.3409C21.1737 19.6159 20.5946 19.0282 19.8803 19.0282C19.166 19.0282 18.5869 19.6159 18.5869 20.3409C18.5869 21.0659 19.166 21.6536 19.8803 21.6536Z" fill="currentColor"/>
</svg>
