<svg width="32" height="32" viewBox="0 0 32 32" fill="none" xmlns="http://www.w3.org/2000/svg">
<path fill-rule="evenodd" clip-rule="evenodd" d="M16 30C23.732 30 30 23.732 30 16C30 8.26801 23.732 2 16 2C8.26801 2 2 8.26801 2 16C2 23.732 8.26801 30 16 30ZM21.6424 10.3575C22.0525 10.7675 22.0525 11.4324 21.6424 11.8424L17.4912 15.9936L21.6804 20.1125C22.0939 20.5191 22.0995 21.1839 21.693 21.5974C21.2864 22.0109 20.6216 22.0165 20.2081 21.61L16.0062 17.4786L11.8424 21.6424C11.4324 22.0525 10.7675 22.0525 10.3575 21.6424C9.94745 21.2324 9.94745 20.5675 10.3575 20.1575L14.5088 16.0062L10.3256 11.8932C9.91206 11.4866 9.90644 10.8218 10.313 10.4083C10.7196 9.99481 11.3844 9.98919 11.7979 10.3958L15.9937 14.5212L20.1575 10.3575C20.5675 9.94744 21.2324 9.94744 21.6424 10.3575Z" fill="currentColor"/>
</svg>
