<svg width="32" height="32" viewBox="0 0 32 32" fill="none" xmlns="http://www.w3.org/2000/svg">
<path d="M12.6801 28H8.95782C8.1244 28 7.44878 27.3038 7.44878 26.445V16.8733C7.44878 16.816 7.40374 16.7696 7.34817 16.7696H5.31047C4.11354 16.7696 3.54546 15.2501 4.43302 14.4226L15.325 4.26794C15.7082 3.91069 16.2918 3.91069 16.675 4.26794L27.567 14.4226C28.4545 15.2501 27.8865 16.7696 26.6895 16.7696H24.6518C24.5963 16.7696 24.5512 16.816 24.5512 16.8733V26.445C24.5512 27.3038 23.8756 28 23.0422 28H19.0939C18.6494 28 18.2891 27.6287 18.2891 27.1707V21.7455C18.2891 21.2875 17.9287 20.9162 17.4842 20.9162H14.2898C13.8453 20.9162 13.4849 21.2875 13.4849 21.7455V27.1707C13.4849 27.6287 13.1246 28 12.6801 28Z" fill="currentColor"/>
</svg>
