<svg width="32" height="32" viewBox="0 0 32 32" fill="none" xmlns="http://www.w3.org/2000/svg">
<path fill-rule="evenodd" clip-rule="evenodd" d="M30 16C30 23.732 23.732 30 16 30C8.26801 30 2 23.732 2 16C2 8.26801 8.26801 2 16 2C23.732 2 30 8.26801 30 16ZM16 11.8C16.7732 11.8 17.4 12.3572 17.4 13.0444V21.7556C17.4 22.4428 16.7732 23 16 23C15.2268 23 14.6 22.4428 14.6 21.7556V13.0444C14.6 12.3572 15.2268 11.8 16 11.8ZM16 10.4C16.7732 10.4 17.4 9.7732 17.4 9C17.4 8.2268 16.7732 7.6 16 7.6C15.2268 7.6 14.6 8.2268 14.6 9C14.6 9.7732 15.2268 10.4 16 10.4Z" fill="currentColor"/>
</svg>
