<svg width="32" height="32" viewBox="0 0 32 32" fill="none" xmlns="http://www.w3.org/2000/svg">
<path fill-rule="evenodd" clip-rule="evenodd" d="M4.8 4C4.35817 4 4 4.35817 4 4.8V14.2C4 14.6418 4.35817 15 4.8 15H14.2C14.6418 15 15 14.6418 15 14.2V4.8C15 4.35817 14.6418 4 14.2 4H4.8ZM17.8 17C17.3582 17 17 17.3582 17 17.8V27.2C17 27.6418 17.3582 28 17.8 28H27.2C27.6418 28 28 27.6418 28 27.2V17.8C28 17.3582 27.6418 17 27.2 17H17.8ZM28 9.5C28 12.5376 25.5376 15 22.5 15C19.4624 15 17 12.5376 17 9.5C17 6.46243 19.4624 4 22.5 4C25.5376 4 28 6.46243 28 9.5ZM9.5 28C12.5376 28 15 25.5376 15 22.5C15 19.4624 12.5376 17 9.5 17C6.46243 17 4 19.4624 4 22.5C4 25.5376 6.46243 28 9.5 28Z" fill="currentColor"/>
</svg>
