<svg width="89" height="67" viewBox="0 0 89 67" fill="none" xmlns="http://www.w3.org/2000/svg">
<g id="Group 4">
<g id="Fintech/illustrations/standards/large/no service">
<g id="Fintech/illustrations/Small/watching-a-movie">
<g id="Group 2">
<path id="Path" d="M10.5638 16.5958C10.4282 15.546 11.8064 14.4014 13.7444 14.1759C15.6825 13.9505 17.3111 14.7453 17.4467 15.795C17.5822 16.8447 16.204 17.9894 14.266 18.2148C12.328 18.4403 10.6994 17.6455 10.5638 16.5958Z" fill="white"/>
<path id="Path_2" d="M16.6244 11.5829C17.4105 11.9941 17.6954 13.2574 17.1732 14.4108L17.1461 14.4692L17.1178 14.5267L17.0858 14.5867L16.9948 14.5247C16.2568 14.0381 15.273 13.7572 14.2154 13.7304L14.0638 13.7283L14.0248 13.7285L14.0305 13.6771C14.0571 13.477 14.1056 13.276 14.1757 13.079L14.2204 12.9613L14.2702 12.8449C14.7866 11.7041 15.856 11.1809 16.6244 11.5829Z" fill="#E9F4FC"/>
<path id="Path_3" d="M12.293 11.9336C12.5061 12.1942 12.6738 12.478 12.7911 12.7677L12.8382 12.8921L12.8522 12.9334L12.7112 12.9653C11.7708 13.1885 10.95 13.6093 10.3695 14.1647L10.275 14.2585L10.2111 14.3266L10.1951 14.3124L10.0984 14.2164L10.0048 14.1154L9.91454 14.0095C9.08136 12.9906 9.00551 11.712 9.63922 11.1657C10.2659 10.6255 11.4637 10.9196 12.293 11.9336Z" fill="#E9F4FC"/>
<path id="Shape" fill-rule="evenodd" clip-rule="evenodd" d="M8.6776 14.1057C7.73678 12.4941 7.9286 10.5396 9.21255 9.74463C10.5044 8.94477 12.2854 9.69325 13.2294 11.3102C13.3057 11.441 13.3749 11.5745 13.4365 11.7098C13.4677 11.6574 13.5002 11.6056 13.534 11.5543C14.5365 10.0314 16.3513 9.47407 17.6068 10.407C18.8463 11.3281 18.9737 13.2938 17.9787 14.8052C17.8562 14.9914 17.7206 15.1647 17.5735 15.3228C17.7758 15.6967 17.8819 16.1046 17.8696 16.5339C17.8179 18.3372 15.7025 19.5937 13.2246 19.4914C10.7466 19.3891 8.70814 17.9612 8.75982 16.1578C8.77369 15.6738 8.93625 15.2291 9.21416 14.8402C9.01405 14.6195 8.8337 14.3731 8.6776 14.1057ZM13.373 14.3105C11.4236 14.23 9.88332 15.1449 9.85299 16.2029C9.82267 17.261 11.3069 18.3008 13.2564 18.3812C15.2058 18.4617 16.7461 17.5468 16.7764 16.4888C16.8067 15.4307 15.3225 14.3909 13.373 14.3105ZM16.9678 11.3012C17.6799 11.8304 17.7636 13.1227 17.0675 14.1802L17.0315 14.2336L16.9946 14.286L16.9536 14.3403L16.8734 14.2648C16.2206 13.6687 15.2928 13.2373 14.2525 13.0454L14.1031 13.0197L14.0646 13.0138L14.0782 12.9639C14.1358 12.7704 14.2152 12.5794 14.3152 12.3959L14.3777 12.2866L14.4452 12.1794C15.1337 11.1335 16.2718 10.784 16.9678 11.3012ZM12.6519 12.7705C12.5814 12.4661 12.4602 12.1596 12.2904 11.8688C11.63 10.7376 10.4929 10.2597 9.78948 10.6953C9.07812 11.1357 8.95301 12.4105 9.61655 13.5471L9.68915 13.6658L9.76577 13.7802L9.84622 13.8902L9.85984 13.9067L9.93358 13.8494L10.0416 13.7716C10.7019 13.3138 11.5784 13.0266 12.5421 12.9532L12.6864 12.9438L12.679 12.9008L12.6519 12.7705Z" fill="#39405D"/>
<path id="Path 17" d="M12.3376 21.8259C12.3376 21.8259 7.44499 35.4799 21.7689 34.3943C36.0927 33.3088 44.7192 24.7206 38.1643 34.4072" stroke="#39405D" stroke-width="1.5" stroke-linecap="round" stroke-dasharray="6.58"/>
</g>
</g>
<g id="Fintech/illustrations/succes/QR pay Copy 3">
<g id="Group">
<path id="Path_4" d="M60.0984 7.83105L73.1909 20.235L73.1298 62.7555C73.1267 64.9425 71.3436 66.718 69.1472 66.7211L31.8638 66.7743C29.6674 66.7775 27.8894 65.0071 27.8926 62.8201L27.9658 11.8368C27.969 9.64981 29.752 7.87437 31.9484 7.87123L60.0984 7.83105Z" fill="white"/>
<path id="Shape_2" fill-rule="evenodd" clip-rule="evenodd" d="M73.1909 20.235L60.0984 7.83105L31.9484 7.87123C29.752 7.87437 27.969 9.64981 27.9658 11.8368L27.8926 62.8201C27.8894 65.0071 29.6674 66.7775 31.8638 66.7743L69.1472 66.7211C71.3436 66.718 73.1267 64.9425 73.1298 62.7555L73.1909 20.235ZM31.9466 9.1087L59.5995 9.06923L71.9473 20.7678L71.887 62.7573L71.8847 62.8668C71.8249 64.3197 70.6222 65.4815 69.149 65.4836L31.8656 65.5368L31.7556 65.5348C30.2967 65.4795 29.1332 64.2852 29.1354 62.8183L29.2086 11.835L29.2109 11.7255C29.2707 10.2726 30.4734 9.1108 31.9466 9.1087ZM49.5801 18.8594C49.9232 18.8589 50.2011 19.1356 50.2006 19.4773C50.2001 19.7976 49.9552 20.0615 49.6418 20.0936L49.5783 20.0969L33.1736 20.1203C32.8304 20.1208 32.5526 19.8442 32.5531 19.5025C32.5535 19.1821 32.7984 18.9183 33.1118 18.8861L33.1754 18.8829L49.5801 18.8594ZM43.7438 15.5266C43.7443 15.1849 43.4665 14.9083 43.1233 14.9088L33.181 14.923L33.1175 14.9263C32.8041 14.9584 32.5592 15.2222 32.5588 15.5426C32.5583 15.8843 32.8361 16.1609 33.1793 16.1604L43.1215 16.1463L43.1851 16.143C43.4984 16.1108 43.7433 15.847 43.7438 15.5266Z" fill="#39405D"/>
<path id="Path_5" fill-rule="evenodd" clip-rule="evenodd" d="M73.2042 20.0823L60.2728 7.82715H59.2754V17.2253C59.2754 19.4107 61.0572 21.1824 63.2551 21.1824H73.2042V20.0823ZM60.519 9.7686L71.2577 19.9458H63.2551L63.145 19.9436C61.685 19.8862 60.519 18.6911 60.519 17.2253V9.7686Z" fill="#39405D"/>
<path id="Path_6" d="M71.2458 19.9424L60.5293 9.77344L60.5186 17.2353C60.5165 18.7022 61.6799 19.8964 63.1388 19.9518L63.2488 19.9538L71.2458 19.9424Z" fill="#D3CCFE"/>
</g>
</g>
</g>
<ellipse id="Oval" cx="73.5573" cy="47.8865" rx="14.1364" ry="13.9646" fill="#FFECAB"/>
<path id="Oval_2" fill-rule="evenodd" clip-rule="evenodd" d="M58.3604 47.5331C58.3604 39.2353 65.0846 32.5078 73.3803 32.5078C81.6759 32.5078 88.4002 39.2353 88.4002 47.5331C88.4002 55.8309 81.6759 62.5583 73.3803 62.5583C65.0846 62.5583 58.3604 55.8309 58.3604 47.5331ZM87.0719 47.5331C87.0719 39.9677 80.9419 33.8348 73.3803 33.8348C65.8186 33.8348 59.6886 39.9677 59.6886 47.5331C59.6886 55.0984 65.8186 61.2313 73.3803 61.2313C80.9419 61.2313 87.0719 55.0984 87.0719 47.5331Z" fill="#39405D"/>
<g id="Iconly/Light-outline/Close">
<path id="Combined Shape" fill-rule="evenodd" clip-rule="evenodd" d="M70.0042 51.8181V54.6509H77.1092V51.8181C77.1092 51.0608 76.7378 50.3585 76.1158 49.9393L73.5567 48.212L70.997 49.9396C70.3754 50.3586 70.0042 51.0609 70.0042 51.8181ZM70.0042 43.6008C70.0042 44.358 70.3756 45.0603 70.9976 45.4796L73.5567 47.2069L76.1163 45.4792C76.7379 45.0602 77.1091 44.358 77.1091 43.6008V40.768H70.0042V43.6008ZM77.9353 54.6509H79.505C79.7328 54.6509 79.9181 54.8385 79.9181 55.0691C79.9181 55.2996 79.7328 55.4872 79.505 55.4872H67.6084C67.3806 55.4872 67.1953 55.2996 67.1953 55.069C67.1953 54.8385 67.3806 54.6509 67.6084 54.6509H69.1781V51.8181C69.1781 50.7804 69.6868 49.818 70.539 49.2437L72.8121 47.7094L70.5395 46.1755C69.687 45.601 69.1781 44.6384 69.1781 43.6007V40.768H67.6084C67.3806 40.768 67.1953 40.5804 67.1953 40.3498C67.1953 40.1192 67.3806 39.9316 67.6084 39.9316H79.505C79.7328 39.9316 79.9181 40.1192 79.9181 40.3498C79.9181 40.5804 79.7328 40.768 79.505 40.768H77.9353V43.6008C77.9353 44.6384 77.4266 45.6009 76.5744 46.1752L74.3013 47.7094L76.5739 49.2433C77.4264 49.8179 77.9353 50.7804 77.9353 51.8181V54.6509ZM74.1956 51.0429C74.374 51.1959 75.9456 52.5434 76.3794 53.0129L76.3945 53.0293C76.6985 53.3604 76.4654 53.8988 76.0186 53.8988H71.0947C70.6479 53.8988 70.4148 53.3604 70.7189 53.0293L70.734 53.0129C71.1689 52.5422 72.7471 51.1893 72.9191 51.0418C72.9279 51.0343 72.933 51.0299 72.9341 51.0289C73.2924 50.7178 73.821 50.7178 74.1793 51.0289C74.1804 51.0299 74.186 51.0347 74.1956 51.0429Z" fill="#39405D"/>
</g>
<path id="Path_7" d="M61.8942 34.2756C61.3087 34.2756 60.834 33.7921 60.834 33.1954V31.467C60.834 30.8702 61.3087 30.3867 61.8942 30.3867C62.4797 30.3867 62.9544 30.8702 62.9544 31.467V33.1954C62.9544 33.7919 62.4797 34.2756 61.8942 34.2756Z" fill="#39405D"/>
<path id="Path_8" d="M42.1032 34.2756C41.5177 34.2756 41.043 33.7921 41.043 33.1954V31.467C41.043 30.8702 41.5177 30.3867 42.1032 30.3867C42.6887 30.3867 43.1634 30.8702 43.1634 31.467V33.1954C43.1634 33.7919 42.6887 34.2756 42.1032 34.2756Z" fill="#39405D"/>
<path id="Path 13" fill-rule="evenodd" clip-rule="evenodd" d="M51.9859 38.8711C49.7947 38.8711 46.5689 41.7194 47.6035 42.5996C48.0907 43.0141 50.181 42.1933 51.9859 42.2267C54.0134 42.2642 55.7766 43.103 56.3683 42.5996C57.4867 41.6481 54.1771 38.8711 51.9859 38.8711Z" fill="#FFD166"/>
<path id="Path 13_2" fill-rule="evenodd" clip-rule="evenodd" d="M47.85 39.85C49.0398 38.8587 50.5654 38.1641 51.8098 38.1641C53.0555 38.1641 54.6048 38.848 55.7955 39.8186L55.9501 39.9479L56.0979 40.0785C57.2771 41.15 57.7541 42.3297 56.7686 43.1379C56.3964 43.4431 55.9382 43.5071 55.3238 43.4463C55.2357 43.4376 55.1442 43.4263 55.0456 43.412L54.8378 43.3794L54.6046 43.3383L53.5084 43.1299L53.2089 43.0788C52.6784 42.9928 52.2435 42.9486 51.7963 42.9406C51.5609 42.9364 51.3065 42.9476 51.0295 42.9732C50.9966 42.9762 50.9637 42.9794 50.9307 42.9828L50.7302 43.0051L50.522 43.0321L50.3013 43.0641L49.9367 43.123L48.8015 43.3216L48.5904 43.3546C48.5239 43.3644 48.461 43.3731 48.4007 43.3808L48.2269 43.4007C47.6134 43.4627 47.1964 43.4212 46.8509 43.1379C45.8759 42.3383 46.4051 41.1415 47.6235 40.046L47.7729 39.9151L47.85 39.85ZM55.1665 40.6558C54.2089 39.8871 52.9562 39.3425 52.0945 39.3425C51.2442 39.3425 50.017 39.8928 49.0612 40.6771C48.6314 41.0298 48.3133 41.3878 48.1707 41.6645L48.1773 41.6524L48.3108 41.6416L48.4543 41.6253C48.4798 41.6221 48.506 41.6186 48.5332 41.6149L48.7075 41.5894L48.9076 41.5572L49.9745 41.3726C50.0253 41.3641 50.075 41.3561 50.1236 41.3483L50.4039 41.3052L50.666 41.269C50.7085 41.2635 50.7506 41.2582 50.7923 41.2532L51.0398 41.2257L51.1628 41.2139C51.4964 41.1836 51.8095 41.17 52.1082 41.1753C52.8323 41.188 53.5021 41.2758 54.4294 41.45L54.957 41.5505L55.4063 41.632L55.5822 41.6594C55.6095 41.6633 55.6359 41.6669 55.6614 41.6703L55.8052 41.6868C55.9092 41.697 55.9955 41.7007 56.0639 41.699L56.0831 41.6978L56.051 41.6273C55.9151 41.3558 55.5998 41.0037 55.1665 40.6558Z" fill="#39405D"/>
</g>
</svg>
