<svg width="32" height="32" viewBox="0 0 32 32" fill="none" xmlns="http://www.w3.org/2000/svg">
<path fill-rule="evenodd" clip-rule="evenodd" d="M10.3332 7.26561C10.3332 4.90978 12.3276 3 14.7878 3C17.1333 3 19.0555 4.73599 19.2295 6.93942C22.0618 7.93621 24.5113 9.97115 25.696 12.7628C26.3423 12.6425 26.8161 12.4558 27.1586 12.2468C26.9982 12.1822 26.8457 12.0996 26.702 12.0002C26.2237 11.6691 25.9053 11.1795 25.7827 10.6717C25.6613 10.1689 25.7202 9.57575 26.1131 9.12245L26.1377 9.09405L26.1654 9.06863C26.4765 8.78312 26.839 8.61063 27.2273 8.57731C27.6128 8.54423 27.9705 8.65292 28.2675 8.83861C28.8474 9.20116 29.2328 9.87182 29.3218 10.5883L29.3259 10.6228C29.5039 10.4996 29.6936 10.3478 29.8952 10.1624C30.1623 9.91667 30.5788 9.93327 30.8254 10.1995C31.072 10.4657 31.0553 10.8807 30.7882 11.1264C30.1642 11.7003 29.5499 12.0695 28.9711 12.2598C28.8547 12.4569 28.709 12.6478 28.5314 12.8281C27.9947 13.373 27.2016 13.7866 26.1264 14.0148C26.7034 16.1751 26.5604 18.7059 25.3695 21.5026C24.9923 22.285 23.9067 24.1343 22.4977 25.4754C22.3955 25.5726 22.3355 25.7066 22.3355 25.8476V27.0915C22.3355 28.1456 21.4811 29 20.4271 29H19.2683C18.8543 29 18.5186 28.6643 18.5186 28.2503C18.5186 27.8362 18.1829 27.5005 17.7689 27.5005H11.4388C11.0247 27.5005 10.6891 27.8362 10.6891 28.2503C10.6891 28.6643 10.3534 29 9.93931 29H8.67642C7.57185 29 6.67642 28.1046 6.67642 27V25.8615C6.67642 25.7124 6.61008 25.5724 6.49874 25.4733C5.82586 24.8745 4.63753 23.612 3.7639 22.0463C3.4901 21.5556 2.98716 21.2214 2.42525 21.2214C1.63811 21.2214 1 20.5833 1 19.7961V16.2867C1 15.6995 1.47602 15.2234 2.06323 15.2234C2.58009 15.2234 3.01932 14.8507 3.16412 14.3545C3.50005 13.2034 4.18317 11.6361 5.30386 10.7488C5.47388 10.6142 5.56274 10.3954 5.50796 10.1855L4.76898 7.35497C4.69137 7.05769 4.89906 6.7674 5.20473 6.79851C6.15062 6.89481 7.52539 7.34018 8.49997 8.09813C8.69611 8.25067 8.97387 8.26442 9.17629 8.12033C9.54971 7.85451 9.93715 7.61847 10.3358 7.41128C10.3341 7.36293 10.3332 7.31437 10.3332 7.26561ZM8.21211 14.7812C8.21211 15.2299 7.83223 15.5937 7.36362 15.5937C6.89502 15.5937 6.51514 15.2299 6.51514 14.7812C6.51514 14.3325 6.89502 13.9687 7.36362 13.9687C7.83223 13.9687 8.21211 14.3325 8.21211 14.7812ZM11.606 7.18474C11.606 5.54667 13.0306 4.21875 14.7879 4.21875C16.5451 4.21875 17.9697 5.54667 17.9697 7.18474C17.9697 7.73315 17.81 8.24679 17.5316 8.68749C17.5143 8.71494 17.4946 8.74146 17.4728 8.76709C17.814 8.89778 18.1399 9.05749 18.4405 9.24935C18.8304 9.49826 18.9357 10.0027 18.6758 10.3761C18.4159 10.7495 17.8891 10.8503 17.4992 10.6014C16.7375 10.1152 15.6034 9.88246 14.4903 9.90819C13.9439 9.92081 13.4364 9.99543 13.0216 10.1137C12.5932 10.2359 12.3277 10.3862 12.1994 10.5063C11.8644 10.82 11.3272 10.8143 10.9996 10.4935C10.6719 10.1727 10.6779 9.65826 11.0129 9.34452C11.3014 9.07434 11.6695 8.86911 12.0635 8.71511C12.0564 8.70597 12.0499 8.69676 12.0441 8.68749C11.7657 8.24679 11.606 7.73315 11.606 7.18474ZM28.0152 10.7495C28.0291 10.8614 28.0294 10.9788 28.0123 11.0987C27.7626 11.0888 27.5765 11.0082 27.4532 10.9228C27.2458 10.7793 27.1116 10.5668 27.0628 10.3648C27.019 10.1834 27.0525 10.0653 27.0924 10.003C27.2028 9.91155 27.2874 9.8889 27.3402 9.88437C27.4013 9.87913 27.4773 9.89336 27.5678 9.94988C27.7627 10.0718 27.9671 10.3627 28.0152 10.7495Z" fill="currentColor"/>
</svg>
