<svg width="32" height="32" viewBox="0 0 32 32" fill="none" xmlns="http://www.w3.org/2000/svg">
<path fill-rule="evenodd" clip-rule="evenodd" d="M15.9999 5.49786C13.5344 5.49786 11.5356 7.49659 11.5356 9.96215V12.4986H20.4642V9.96215C20.4642 7.49659 18.4655 5.49786 15.9999 5.49786ZM9.03564 9.96215V12.4986H7.07143C6.47969 12.4986 6 12.9783 6 13.57V27.9286C6 28.5203 6.47969 29 7.07143 29H24.9286C25.5203 29 26 28.5203 26 27.9286V13.57C26 12.9783 25.5203 12.4986 24.9286 12.4986H22.9642V9.96215C22.9642 6.11588 19.8462 2.99786 15.9999 2.99786C12.1537 2.99786 9.03564 6.11588 9.03564 9.96215ZM18.1428 18.6866C18.1428 19.4501 17.7119 20.1166 17.0714 20.4733V23.4995C17.0714 24.0913 16.5917 24.571 16 24.571C15.4083 24.571 14.9286 24.0913 14.9286 23.4995V20.4734C14.288 20.1168 13.8571 19.4501 13.8571 18.6866C13.8571 17.5474 14.8164 16.6239 15.9999 16.6239C17.1834 16.6239 18.1428 17.5474 18.1428 18.6866Z" fill="currentColor"/>
</svg>
