<svg width="32" height="32" viewBox="0 0 32 32" fill="none" xmlns="http://www.w3.org/2000/svg">
<path fill-rule="evenodd" clip-rule="evenodd" d="M6.99999 3C5.89542 3 4.99999 3.89543 4.99999 5V7.42232C4.62421 7.6963 4.33526 8.089 4.19225 8.55665L3.21402 11.7555C2.83456 12.8386 2.96357 13.8666 3.57785 14.6461C3.95096 15.1195 4.45429 15.4388 4.99999 15.6251V27C4.99999 28.1046 5.89542 29 6.99999 29H12.75V21.5C12.75 20.8096 13.3096 20.25 14 20.25H18C18.6903 20.25 19.25 20.8096 19.25 21.5V29H25C26.1046 29 27 28.1046 27 27V15.6614C27.6647 15.3592 28.2345 14.8697 28.5958 14.2614C29.0391 13.5151 29.1738 12.562 28.7145 11.6544L27.4359 8.39629C27.3332 8.13464 27.184 7.90081 27 7.70276V5C27 3.89543 26.1046 3 25 3H6.99999ZM17.75 29V21.75H14.25V29H17.75ZM6.29608 9C6.20815 9 6.13053 9.05743 6.10482 9.14151L5.11361 12.3829L5.10589 12.4045C4.9057 12.9656 5.02793 13.2549 5.14865 13.4081C5.30138 13.6019 5.62292 13.7884 6.10699 13.8236C7.05774 13.8927 8.2481 13.344 8.65974 11.8986C8.75886 11.5506 8.99897 11.3391 9.19806 11.2309C9.39139 11.1258 9.58929 11.0896 9.75463 11.0878C9.91954 11.0859 10.1209 11.1175 10.3195 11.2214C10.5258 11.3293 10.7716 11.5432 10.872 11.8964C11.254 13.2409 12.1185 13.7978 12.8243 13.8417C13.5016 13.8838 14.407 13.4721 14.934 12.0521C15.1308 11.5217 15.6278 11.3216 16.006 11.3319C16.3832 11.3423 16.863 11.567 17.0344 12.099C17.3121 12.9613 17.6918 13.4273 18.0326 13.6677C18.3653 13.9024 18.7367 13.977 19.1267 13.921C19.9604 13.8013 20.846 13.0762 21.1614 12.1008C21.3368 11.5587 21.8258 11.3468 22.1851 11.3344C22.5439 11.3221 23.0424 11.4989 23.2567 12.0219C23.6786 13.0519 24.203 13.5615 24.6494 13.7977C25.0943 14.0331 25.554 14.0473 25.9603 13.9215C26.3821 13.7907 26.71 13.5199 26.8763 13.24C27.0301 12.981 27.0346 12.7524 26.9211 12.5403L26.8934 12.4885L25.5741 9.12694C25.5441 9.05037 25.4702 9 25.388 9H6.29608Z" fill="currentColor"/>
</svg>
