<svg width="32" height="32" viewBox="0 0 32 32" fill="none" xmlns="http://www.w3.org/2000/svg">
<path d="M15.2879 4.38945C15.6109 3.87018 16.3891 3.87018 16.7121 4.38945L20.5604 10.5755C20.6765 10.7621 20.8657 10.8951 21.085 10.9442L28.3558 12.5733C28.9661 12.71 29.2065 13.426 28.7959 13.8836L23.9035 19.3359C23.756 19.5003 23.6837 19.7156 23.7031 19.9325L24.3484 27.1254C24.4026 27.7291 23.773 28.1716 23.1962 27.9352L16.3242 25.1188C16.117 25.0339 15.883 25.0339 15.6758 25.1188L8.80383 27.9352C8.227 28.1716 7.59743 27.7291 7.6516 27.1254L8.29688 19.9325C8.31634 19.7156 8.24404 19.5003 8.0965 19.3359L3.20412 13.8836C2.79345 13.426 3.03393 12.71 3.64424 12.5733L10.915 10.9442C11.1342 10.8951 11.3235 10.7621 11.4396 10.5755L15.2879 4.38945Z" fill="currentColor"/>
</svg>
