<svg width="32" height="32" viewBox="0 0 32 32" fill="none" xmlns="http://www.w3.org/2000/svg">
<path fill-rule="evenodd" clip-rule="evenodd" d="M16 30C23.732 30 30 23.732 30 16C30 8.26801 23.732 2 16 2C8.26801 2 2 8.26801 2 16C2 23.732 8.26801 30 16 30ZM23.6796 11.7571C24.0925 11.369 24.1084 10.7239 23.7152 10.3163C23.3221 9.9087 22.6687 9.89297 22.2558 10.2811L12.2049 19.7319L9.81602 16.9803C9.44501 16.553 8.79334 16.5035 8.36049 16.8698C7.92764 17.2361 7.87751 17.8795 8.24853 18.3068L10.9913 21.4661C11.5686 22.1311 12.5925 22.1822 13.2348 21.5783L23.6796 11.7571Z" fill="currentColor"/>
</svg>
