<svg width="32" height="32" viewBox="0 0 32 32" fill="none" xmlns="http://www.w3.org/2000/svg">
<path fill-rule="evenodd" clip-rule="evenodd" d="M24.0686 6.63417L16.5492 3.09111C16.0911 2.87529 15.5343 3.05641 15.3151 3.49255L14.3468 5.4189L17.8889 6.97661C19.0537 7.48887 19.5406 8.80579 18.9657 9.88925L18.4423 10.8758H22.4288C22.7898 10.8758 23.1169 10.6755 23.2635 10.3646L24.4949 7.75375C24.6932 7.33319 24.5054 6.83999 24.0686 6.63417ZM16.5992 10.6833L16.497 10.8758C16.4197 11.0216 16.2615 11.1137 16.0885 11.1137H8.45738C8.11177 11.1137 7.89138 10.766 8.05523 10.4793L10.6854 5.87614C10.8002 5.67527 11.0613 5.59368 11.2807 5.69016L17.3158 8.34422C17.5406 8.44308 17.6391 8.69176 17.5425 8.90376L16.5992 10.6833ZM4 12.7836C4 11.73 4.89543 10.8758 6 10.8758H6.75C6.33579 10.8758 6 11.1961 6 11.5912C6 11.9864 6.33579 12.3067 6.75 12.3067H25.25C25.6642 12.3067 26 11.9864 26 11.5912C26 11.1961 25.6642 10.8758 25.25 10.8758H26C27.1046 10.8758 28 11.73 28 12.7836V15.25H22.5C21.8096 15.25 21.25 15.8097 21.25 16.5V22.5C21.25 23.1904 21.8096 23.75 22.5 23.75H28V27.0922C28 28.1459 27.1046 29 26 29H6C4.89543 29 4 28.1459 4 27.0922V12.7836ZM28 22.25V16.75H22.75V22.25H28ZM26.5 19.4845C26.5 20.0282 26.0523 20.469 25.5 20.469C24.9477 20.469 24.5 20.0282 24.5 19.4845C24.5 18.9408 24.9477 18.5 25.5 18.5C26.0523 18.5 26.5 18.9408 26.5 19.4845Z" fill="currentColor"/>
</svg>
