<svg width="32" height="32" viewBox="0 0 32 32" fill="none" xmlns="http://www.w3.org/2000/svg">
<path fill-rule="evenodd" clip-rule="evenodd" d="M14.7835 5.63596L2.21973 24.908C1.62762 25.8162 2.30175 27 3.41108 27H28.5889C29.6994 27 30.3733 25.8141 29.7789 24.9059L17.1649 5.63388C16.6111 4.7878 15.3357 4.78892 14.7835 5.63596ZM17.4001 22.8748C17.4001 23.6342 16.7733 24.2498 16.0001 24.2498C15.2269 24.2498 14.6001 23.6342 14.6001 22.8748C14.6001 22.1154 15.2269 21.4998 16.0001 21.4998C16.7733 21.4998 17.4001 22.1154 17.4001 22.8748ZM17.4001 13.25C17.4001 12.4906 16.7733 11.875 16.0001 11.875C15.2269 11.875 14.6001 12.4906 14.6001 13.25V18.75C14.6001 19.5094 15.2269 20.125 16.0001 20.125C16.7733 20.125 17.4001 19.5094 17.4001 18.75V13.25Z" fill="currentColor"/>
</svg>
