<svg xmlns="http://www.w3.org/2000/svg" width="19" height="19" viewBox="0 0 19 19">
    <g fill="none" fill-rule="evenodd">
        <g fill="#073B4C">
            <g>
                <g>
                    <path d="M9 0c4.97 0 9 4.03 9 9s-4.03 9-9 9-9-4.03-9-9 4.03-9 9-9zm0 1.35C4.776 1.35 1.35 4.776 1.35 9c0 4.225 3.425 7.65 7.65 7.65 4.225 0 7.65-3.425 7.65-7.65 0-4.224-3.426-7.65-7.65-7.65zm0 3.947c.318 0 .58.237.622.543l.006.085-.001 2.439h2.443c.347 0 .628.281.628.628 0 .318-.237.58-.543.622l-.085.006-2.443-.001v2.44c0 .347-.28.628-.627.628-.318 0-.58-.236-.622-.543l-.006-.085v-2.44H5.93c-.347 0-.628-.28-.628-.627 0-.318.237-.58.543-.622l.085-.006h2.442V5.925c0-.347.281-.628.628-.628z" transform="translate(-56 -167) translate(14.965 155.71) translate(41.976 12)"/>
                </g>
            </g>
        </g>
    </g>
</svg>
