<svg width="140" height="140" viewBox="0 0 140 140" xmlns="http://www.w3.org/2000/svg">
    <g fill="none" fill-rule="evenodd">
        <path d="M70.438 124.133c-1.755 0-11.584-10.732-29.488-32.197-1.053-1.055-3.16-4.574-6.319-10.556-4.739-8.973-8.952-27.974-2.106-41.17 6.845-13.195 16.324-25.335 38.967-24.28 15.095.705 25.802 6.159 32.12 16.363 3.511 3.519 6.495 10.908 8.953 22.168 2.457 11.26-7.372 30.966-29.489 59.116-6.67 7.038-10.882 10.556-12.638 10.556z" fill="#FFF"/>
        <g transform="translate(27.067 14)">
            <path d="M9.578 67.59C5.41 59.095 3.296 50.895 3.296 43.217c0-22.02 17.99-39.936 40.104-39.936 13.135 0 25.456 6.422 32.96 17.18.52.744 1.547.928 2.294.411.748-.517.933-1.54.414-2.284C70.948 6.95 57.614 0 43.4 0 19.47 0 0 19.388 0 43.218 0 51.4 2.226 60.084 6.617 69.031a1.648 1.648 0 0 0 2.204.754 1.638 1.638 0 0 0 .757-2.196zM82.505 24.452a1.651 1.651 0 0 0-2.2-.765 1.638 1.638 0 0 0-.768 2.192c2.632 5.43 3.967 11.263 3.967 17.34 0 7.712-2.133 15.951-6.34 24.486-3.397 6.895-8.144 13.991-14.11 21.092-8.35 9.942-16.801 17.129-19.653 19.456-4.168-3.405-20.303-17.213-30.748-34.968a1.652 1.652 0 0 0-2.255-.587 1.637 1.637 0 0 0-.589 2.246c12.346 20.987 31.762 36.08 32.582 36.713a1.648 1.648 0 0 0 2.017 0c.432-.333 10.699-8.294 21.131-20.702 6.145-7.309 11.047-14.633 14.568-21.77 4.441-9.001 6.693-17.738 6.693-25.967 0-6.574-1.445-12.888-4.295-18.766z" fill="#052C50" fill-rule="nonzero"/>
            <ellipse fill="#FFD166" cx="43.929" cy="42.792" rx="16.407" ry="16.377"/>
            <path d="M30.063 33.152a1.652 1.652 0 0 0-2.266.539 18.133 18.133 0 0 0-2.698 9.527c0 10.05 8.21 18.224 18.301 18.224 10.091 0 18.3-8.175 18.3-18.224s-8.21-18.224-18.3-18.224a18.228 18.228 0 0 0-10.643 3.397 1.637 1.637 0 0 0-.38 2.29c.53.737 1.558.906 2.299.379a14.942 14.942 0 0 1 8.724-2.784c8.273 0 15.004 6.703 15.004 14.942S51.674 58.16 43.4 58.16s-15.005-6.703-15.005-14.942c0-2.766.764-5.466 2.21-7.81a1.637 1.637 0 0 0-.542-2.256z" fill="#052C50" fill-rule="nonzero"/>
        </g>
        <g transform="translate(82.166 62.936)">
            <ellipse fill="#C33" cx="24.628" cy="24.601" rx="24.628" ry="24.601"/>
            <ellipse stroke="#073B4C" stroke-width="1.4" cx="24.628" cy="24.601" rx="24.628" ry="24.601"/>
            <path d="M33.626 14.115a1.073 1.073 0 0 1 1.395.104l.076.084c.305.376.319.918.008 1.335l-.084.095-8.878 8.866 8.879 8.87a1.07 1.07 0 0 1-1.41 1.606l-.105-.091-8.88-8.87-8.904 8.893-.106.089a1.07 1.07 0 0 1-1.383-.112c-.377-.377-.418-.97-.084-1.42l.084-.094 8.876-8.87-8.876-8.867a1.07 1.07 0 0 1-.078-1.427l.078-.087c.377-.377.971-.418 1.42-.084l.096.084 5.582 5.575 3.29 3.296 8.907-8.893z" fill="#FFF"/>
        </g>
    </g>
</svg>
