<svg width="24" height="24" viewBox="0 0 24 24" xmlns="http://www.w3.org/2000/svg" xmlns:xlink="http://www.w3.org/1999/xlink">
    <defs>
        <path id="97c4520sya" d="M0 0h1.487v3.422H0z"/>
    </defs>
    <g fill="none" fill-rule="evenodd">
        <path d="M12.307 8.115A5.506 5.506 0 0 0 12 8.106a.757.757 0 0 0-.743.77c0 .424.333.768.743.768a4.817 4.817 0 0 1 .269.007.755.755 0 0 0 .741-.73.76.76 0 0 0-.703-.806M16.977 10.928a6.006 6.006 0 0 0-2.412-2.215.733.733 0 0 0-.993.358.78.78 0 0 0 .346 1.027c1.52.76 2.504 2.379 2.504 4.121 0 .425.332.77.743.77.41 0 .743-.345.743-.77a6.24 6.24 0 0 0-.931-3.291" fill="#073B4C"/>
        <g transform="translate(11.256)">
            <mask id="6awzfxdp5b" fill="#fff">
                <use xlink:href="#97c4520sya"/>
            </mask>
            <path d="M.744 3.422c.41 0 .743-.345.743-.77V.77A.757.757 0 0 0 .744 0 .757.757 0 0 0 0 .77v1.883c0 .425.333.77.744.77" fill="#073B4C" mask="url(#6awzfxdp5b)"/>
        </g>
        <path d="m4.857 2.956.91 1.63a.739.739 0 0 0 .645.385.72.72 0 0 0 .37-.103.783.783 0 0 0 .272-1.05l-.91-1.631a.73.73 0 0 0-1.015-.282.784.784 0 0 0-.272 1.051M2.318 9.205a.739.739 0 0 0 .645-.385.783.783 0 0 0-.272-1.05L1.115 6.83A.73.73 0 0 0 .1 7.11a.783.783 0 0 0 .272 1.05l1.576.942a.72.72 0 0 0 .37.103M17.218 4.868c.117.07.245.103.37.103a.739.739 0 0 0 .645-.384l.906-1.624a.784.784 0 0 0-.272-1.05.73.73 0 0 0-1.016.282l-.905 1.623a.783.783 0 0 0 .272 1.05M22.885 6.829l-1.576.941a.784.784 0 0 0-.272 1.05.738.738 0 0 0 .645.385.72.72 0 0 0 .37-.103l1.577-.942a.784.784 0 0 0 .271-1.05.73.73 0 0 0-1.015-.281M21.442 22.462H2.559V20.79H12c.41 0 .743-.344.743-.77a.756.756 0 0 0-.743-.768H2.56v-1.673h18.883v4.884zM4.606 14.22C4.606 10 7.923 6.57 12 6.57s7.394 3.431 7.394 7.65v1.82H4.606v-1.82zm17.579 1.82H20.88v-1.82c0-2.454-.923-4.762-2.6-6.497C16.601 5.986 14.371 5.03 12 5.03c-2.372 0-4.602.955-6.28 2.69-1.677 1.736-2.6 4.044-2.6 6.498v1.82H1.814a.756.756 0 0 0-.743.77v6.422c0 .425.333.769.743.769h20.37c.41 0 .743-.344.743-.769V16.81a.756.756 0 0 0-.743-.77z" fill="#073B4C"/>
    </g>
</svg>
