<svg width="8" height="8" viewBox="0 0 8 8" xmlns="http://www.w3.org/2000/svg">
    <path d="m4.134 7.975-.03.01A.371.371 0 0 1 4 8h-.01a.376.376 0 0 1-.042-.004L4 8a.376.376 0 0 1-.219-.071l-.042-.036L.774 4.96a.36.36 0 0 1 .001-.515.373.373 0 0 1 .48-.034l.042.036 2.334 2.308V.364C3.631.163 3.796 0 4 0c.187 0 .341.137.366.314l.003.05v6.391l2.334-2.308a.373.373 0 0 1 .522-.002.36.36 0 0 1 .036.474l-.035.04-2.964 2.934a.369.369 0 0 1-.118.078l-.01.004z" fill="currentColor" fill-rule="evenodd"/>
</svg>
