<svg xmlns="http://www.w3.org/2000/svg" width="19" height="19" viewBox="0 0 19 19">
    <g fill="none" fill-rule="evenodd">
        <g fill="#073B4C">
            <g>
                <g>
                    <path d="M9 0c4.97 0 9 4.03 9 9s-4.03 9-9 9-9-4.03-9-9 4.03-9 9-9zm0 1.35C4.776 1.35 1.35 4.776 1.35 9c0 4.225 3.425 7.65 7.65 7.65 4.225 0 7.65-3.425 7.65-7.65 0-4.224-3.426-7.65-7.65-7.65zm.989 3.839l.076.051.051.048L13.2 8.603l.036.044.025.037.028.05.026.06.01.029.02.092.006.07-.002.057-.004.042-.014.07-.012.037-.023.058-.023.047-.036.054-.033.04-3.088 3.321c-.209.224-.549.224-.757-.002-.16-.174-.196-.435-.094-.652l.052-.09.044-.055 2.18-2.345H5.18c-.242 0-.445-.172-.51-.406l-.017-.09-.005-.072c0-.251.155-.47.382-.543l.088-.02.062-.004h6.36L9.36 6.088c-.165-.177-.198-.44-.099-.652l.05-.088.047-.058c.167-.18.42-.218.63-.1z" transform="translate(-235 -167) translate(187.965 155.71) translate(47.976 12)"/>
                </g>
            </g>
        </g>
    </g>
</svg>
