<svg width="29" height="29" viewBox="0 0 29 29" xmlns="http://www.w3.org/2000/svg">
    <path d="M29 20.786C29 25.72 25.478 29 20.422 29H8.578C3.528 29 0 25.711 0 20.786V8.216C0 3.28 3.523 0 8.578 0h11.844C25.477 0 29 3.28 29 8.216zm-2.175 0V8.216c0-3.699-2.516-6.041-6.403-6.041H8.578c-3.887 0-6.403 2.342-6.403 6.04v12.57c0 3.69 2.521 6.04 6.403 6.04h11.844c3.888 0 6.403-2.341 6.403-6.04zM21.512 14.5c0 .55-.409 1.006-.94 1.078l-.147.01-9.215-.001 3.59 3.577c.387.385.423.99.108 1.416l-.105.122c-.385.387-.99.423-1.415.108l-.123-.105-5.457-5.434-.017-.018a1.094 1.094 0 0 1-.051-.057l.068.075a1.097 1.097 0 0 1-.308-.604 1.442 1.442 0 0 1-.012-.127v-.066l.003-.063-.003.089a1.097 1.097 0 0 1 .097-.452l.023-.045a.876.876 0 0 1 .04-.071l.018-.03a.778.778 0 0 1 .036-.05l.01-.014c.03-.037.06-.072.092-.105l.004-.004 5.457-5.434a1.087 1.087 0 0 1 1.64 1.42l-.105.121-3.592 3.576h9.217c.6 0 1.087.487 1.087 1.088z" fill="#5A50F9" fill-rule="evenodd"/>
</svg>
