<svg xmlns="http://www.w3.org/2000/svg" width="156" height="153" viewBox="0 0 156 153">
    <g fill="none" fill-rule="evenodd">
        <g>
            <g>
                <g transform="translate(-95 -44) translate(95.5 44.5) translate(.5)">
                    <ellipse cx="85.5" cy="92.5" fill="#E9F4FC" rx="59.5" ry="59"/>
                    <g fill-rule="nonzero" transform="translate(54 25.5)">
                        <g fill="#DCDCDC">
                            <path d="M54.74.146H6.842c-3.59 0-6.53 2.925-6.53 6.497v6.496h60.956V6.643c0-3.572-2.94-6.497-6.53-6.497zM.312 88.29v12.993c0 3.571 2.94 6.496 6.53 6.496h47.893c3.59 0 6.53-2.925 6.53-6.496V88.29H.313z" transform="translate(.735 1.097)"/>
                        </g>
                        <path fill="#FFF" d="M1.047 14.236H61.762V89.456H1.047z"/>
                        <ellipse cx="31.524" cy="99.133" fill="#FFF" rx="3.267" ry="3.25"/>
                        <g fill="#225C58">
                            <path d="M55.474.274H7.578C3.44.274.07 3.623.07 7.744v94.639c0 4.117 3.366 7.469 7.508 7.469H55.47c4.139 0 7.508-3.349 7.508-7.469V7.74c0-4.117-3.366-7.466-7.504-7.466zm5.553 88.144H18.228c-.537 0-.978.435-.978.972 0 .534.438.972.978.972h42.8v12.025c0 3.045-2.493 5.527-5.554 5.527H7.578c-3.065 0-5.557-2.478-5.557-5.527V90.362h5.557c.536 0 .977-.435.977-.972 0-.537-.437-.972-.977-.972H2.02v-73.21h59.006v73.21zm0-75.15H2.021V7.74c0-3.046 2.492-5.528 5.557-5.528H55.47c3.062 0 5.553 2.478 5.553 5.528v5.527h.004z"/>
                            <path d="M38.055 6.116h-6.53c-.901 0-1.633.728-1.633 1.624 0 .895.732 1.623 1.632 1.623h6.53c.901 0 1.632-.728 1.632-1.623 0-.896-.727-1.624-1.631-1.624zM31.524 104.006c2.701 0 4.899-2.186 4.899-4.873 0-2.687-2.198-4.873-4.899-4.873s-4.899 2.186-4.899 4.873c0 2.687 2.198 4.873 4.9 4.873zm0-8.123c1.8 0 3.267 1.459 3.267 3.25s-1.466 3.25-3.267 3.25c-1.8 0-3.267-1.459-3.267-3.25s1.466-3.25 3.267-3.25z"/>
                            <ellipse cx="24.991" cy="7.735" rx="1.631" ry="1.624" transform="rotate(-13.286 24.991 7.735)"/>
                        </g>
                    </g>
                    <path fill="#437471" fill-rule="nonzero" d="M20.5 32.5c4.695 0 8.5 3.805 8.5 8.5-.004 4.693-3.807 8.496-8.5 8.5-4.694 0-8.5-3.806-8.5-8.5 0-4.695 3.805-8.5 8.5-8.5zm0 1.308c-3.972 0-7.192 3.22-7.192 7.192s3.22 7.192 7.192 7.192 7.192-3.22 7.192-7.191c-.003-3.972-3.222-7.19-7.193-7.193z"/>
                    <path fill="#437471" d="M36 18.735c.644 0 1.173.522 1.23 1.188l.005.119v3.151c0 .722-.553 1.307-1.235 1.307-.644 0-1.173-.521-1.23-1.188l-.005-.119v-3.151c0-.722.553-1.307 1.235-1.307zm5.695-2.47c.72 0 1.305.552 1.305 1.235 0 .645-.522 1.173-1.187 1.23l-.118.005H38.54c-.72 0-1.306-.552-1.306-1.235 0-.645.522-1.173 1.187-1.23l.119-.005h3.154zm-8.236 0c.72 0 1.306.552 1.306 1.235 0 .645-.522 1.173-1.187 1.23l-.119.005h-3.154c-.72 0-1.305-.552-1.305-1.235 0-.645.522-1.173 1.187-1.23l.118-.005h3.154zM36 10.5c.644 0 1.173.521 1.23 1.188l.005.119v3.151c0 .722-.553 1.307-1.235 1.307-.644 0-1.173-.522-1.23-1.188l-.005-.119v-3.151c0-.722.553-1.307 1.235-1.307zM4 24.3c.417 0 .76.29.797.66l.003.065v1.75c0 .4-.359.725-.8.725-.417 0-.76-.29-.797-.66l-.003-.065v-1.75c0-.4.359-.725.8-.725zm3.275-1.6c.4 0 .725.358.725.8 0 .417-.29.76-.659.797l-.066.003h-1.75c-.4 0-.725-.358-.725-.8 0-.417.29-.76.659-.797l.066-.003h1.75zm-4.8 0c.4 0 .725.358.725.8 0 .417-.29.76-.659.797l-.066.003H.725c-.4 0-.725-.358-.725-.8 0-.417.29-.76.659-.797l.066-.003h1.75zM4 19.5c.417 0 .76.29.797.66l.003.065v1.75c0 .4-.359.725-.8.725-.417 0-.76-.29-.797-.66l-.003-.065v-1.75c0-.4.359-.725.8-.725z"/>
                    <path fill="#437471" fill-rule="nonzero" d="M132.5.5c4.695 0 8.5 3.805 8.5 8.5-.004 4.693-3.807 8.496-8.5 8.5-4.694 0-8.5-3.806-8.5-8.5 0-4.695 3.805-8.5 8.5-8.5zm0 1.308c-3.972 0-7.192 3.22-7.192 7.192s3.22 7.192 7.192 7.192 7.192-3.22 7.192-7.191c-.003-3.972-3.222-7.19-7.193-7.193z"/>
                    <path fill="#437471" d="M143.423 36.976c.662 0 1.206.531 1.264 1.21l.005.121v3.212c0 .736-.569 1.331-1.269 1.331-.661 0-1.206-.531-1.264-1.21l-.005-.121v-3.212c0-.735.569-1.331 1.27-1.331zm5.851-2.518c.74 0 1.341.563 1.341 1.259 0 .657-.536 1.196-1.219 1.254l-.122.005h-3.24c-.74 0-1.342-.563-1.342-1.26 0-.656.537-1.195 1.22-1.253l.122-.005h3.24zm-8.461 0c.74 0 1.34.563 1.34 1.259 0 .657-.535 1.196-1.218 1.254l-.122.005h-3.241c-.74 0-1.341-.563-1.341-1.26 0-.656.536-1.195 1.219-1.253l.122-.005h3.24zm2.61-5.875c.662 0 1.206.532 1.264 1.21l.005.122v3.212c0 .735-.569 1.331-1.269 1.331-.661 0-1.206-.531-1.264-1.21l-.005-.121v-3.212c0-.736.569-1.332 1.27-1.332z" transform="rotate(45 143.423 35.717)"/>
                    <path fill="#437471" d="M111.692 14.317c.441 0 .804.303.843.691l.003.07v1.835c0 .42-.379.76-.846.76-.44 0-.803-.303-.842-.691l-.004-.07v-1.835c0-.42.38-.76.846-.76zm3.465-1.679c.423 0 .766.376.766.84 0 .437-.306.797-.697.835l-.07.004h-1.851c-.423 0-.767-.376-.767-.84 0-.438.307-.797.697-.835l.07-.004h1.852zm-5.077 0c.423 0 .766.376.766.84 0 .437-.306.797-.697.835l-.07.004h-1.851c-.423 0-.766-.376-.766-.84 0-.438.306-.797.696-.835l.07-.004h1.852zm1.612-3.357c.441 0 .804.304.843.692l.003.07v1.834c0 .42-.379.761-.846.761-.44 0-.803-.304-.842-.691l-.004-.07v-1.835c0-.42.38-.76.846-.76z" transform="rotate(45 111.692 13.477)"/>
                </g>
                <g fill="#EBC712" fill-rule="nonzero" transform="translate(-95 -44) translate(95.5 44.5) translate(73.5 60.5)">
                    <ellipse cx="13" cy="14" rx="13" ry="13.563"/>
                </g>
                <path fill="#225C58" stroke="#EBC712" stroke-width=".5" d="M89.247 59.637l.208.164 1.435 1.372c.39.375.888.622 1.423.712l.203.026 1.895.011c1.214 0 2.318.458 3.137 1.206.76.695 1.275 1.64 1.402 2.7l.022.246.008 1.858c0 .538.171 1.057.484 1.49l.124.158 1.319 1.294c.853.823 1.3 1.892 1.34 2.972.037 1.007-.28 2.024-.953 2.862l-.162.19-1.375 1.348c-.39.377-.645.863-.738 1.385l-.027.197-.012 1.838c0 1.172-.472 2.236-1.241 3.026-.72.74-1.7 1.238-2.797 1.36l-.256.022-1.92.008c-.55 0-1.083.166-1.527.468l-.162.12-1.335 1.274c-.851.83-1.958 1.265-3.078 1.303-1.044.036-2.099-.272-2.968-.926l-.197-.157-1.388-1.33c-.392-.376-.89-.624-1.425-.714l-.202-.026-1.896-.012c-1.213 0-2.317-.457-3.135-1.205-.76-.694-1.275-1.64-1.402-2.699l-.022-.246-.009-1.86c0-.536-.172-1.056-.485-1.489l-.124-.158-1.316-1.293c-.855-.822-1.303-1.891-1.342-2.972-.037-1.007.281-2.025.954-2.862l.161-.19 1.373-1.346c.391-.382.648-.868.74-1.39l.028-.196.011-1.828c.072-1.233.558-2.296 1.311-3.07.715-.735 1.67-1.21 2.734-1.327l.248-.02 1.922-.009c.55 0 1.082-.165 1.526-.466l.162-.119 1.335-1.277c.85-.827 1.954-1.261 3.065-1.306 1.034-.042 2.076.253 2.924.883zm-2.69.966c-.649.002-1.33.236-1.94.732h0l-1.162 1.127-.173.157c-.765.661-1.757 1.053-3.055 1.128h0-1.639l-.205.008c-.61.045-1.163.29-1.59.667-.477.422-.802 1.009-.873 1.908h0v1.602l-.005.214c-.051.995-.463 1.953-1.328 2.903h0l-1.158 1.124-.154.163c-.388.447-.595.99-.622 1.541-.03.621.162 1.255.782 1.962h0l1.158 1.124.152.154c.689.74 1.097 1.702 1.175 2.962h0v1.587l.008.2c.047.595.3 1.134.692 1.55.434.46 1.035.773 1.959.842h1.656l.236.006c1.024.053 2.013.453 2.993 1.289h0l1.151 1.115.169.15c.46.375 1.02.577 1.585.603.639.03 1.29-.155 2.015-.753h0l1.16-1.122.161-.148c.766-.669 1.762-1.065 3.068-1.14h1.638l.206-.008c.61-.045 1.164-.29 1.59-.667.478-.422.802-1.008.873-1.907h0V80.07l.006-.213c.05-.995.463-1.956 1.326-2.902h0l1.159-1.122.154-.163c.388-.447.595-.991.622-1.542.03-.62-.161-1.254-.78-1.961h0l-1.163-1.126-.152-.156c-.687-.74-1.094-1.7-1.172-2.962h0V66.34l-.008-.2c-.047-.595-.3-1.135-.692-1.55-.434-.46-1.036-.775-1.96-.843h0-1.654l-.237-.006c-1.025-.053-2.015-.452-2.992-1.288h0l-1.159-1.12-.154-.138c-.473-.39-1.056-.594-1.667-.592zm5.01 16.863c.157 1.172.104 1.328 0 1.43-.197.191-.463.3-.743.3-.28 0-.546-.109-.742-.3-.285-.788-.283-.948-.237-1.07.303-.34.621-.528.92-.586.313-.06.6.029.802.226zm-.955-8.36c.244 0 .488.09.675.27.165.16.256.366.272.575.013.166-.02.334-.101.484l-.07.11-8.326 8.082c-.186.18-.43.27-.674.27-.244 0-.489-.09-.675-.27-.165-.16-.257-.365-.273-.575-.012-.165.022-.333.102-.483l.07-.11 8.325-8.082c.187-.18.43-.27.675-.27zm-8.143-.211l.076.001c.56.374.67.619.678.878-.121.476-.2.618-.292.728-.433.252-.587.308-.725.315-.517-.138-.664-.196-.767-.294-.074-.083-.132-.167-.181-.255.297-.674.597-1.069.887-1.257.085-.054.167-.09.246-.106l.078-.01z" transform="translate(-95 -44) translate(95.5 44.5)"/>
            </g>
        </g>
    </g>
</svg>
