<svg xmlns="http://www.w3.org/2000/svg" width="40" height="40" viewBox="0 0 40 40">
    <g fill="none" fill-rule="evenodd">
        <g fill="#C4C4C4">
            <g>
                <g>
                    <path d="M20 0c11.06 0 20 8.96 20 20 0 11.06-8.94 20-20 20C8.96 40 0 31.06 0 20 0 8.96 8.96 0 20 0zm0 24.8c-5.393 0-10 .85-10 4.252 0 3.337 4.41 4.248 9.7 4.28l.3.001c5.393 0 10-.85 10-4.251 0-3.4-4.577-4.281-10-4.281zm0-16.467c-3.673 0-6.617 2.943-6.617 6.614s2.944 6.615 6.617 6.615c3.674 0 6.617-2.944 6.617-6.615 0-3.671-2.943-6.614-6.617-6.614z" transform="translate(-16 -397) translate(0 382) translate(16 15)"/>
                </g>
            </g>
        </g>
    </g>
</svg>
