<svg width="32" height="32" viewBox="0 0 32 32" xmlns="http://www.w3.org/2000/svg">
    <g fill="none" fill-rule="evenodd">
        <path d="M15.991 8c1.963 0 3.578 1.536 3.776 3.506h.055c1.346 0 2.471 1.05 2.86 2.88l.606 4.853c.347 3.057-1.34 4.761-4.165 4.761h-6.25c-3.054 0-4.614-1.512-4.114-4.95l.587-4.696c.325-1.808 1.48-2.848 2.855-2.848A3.97 3.97 0 0 1 13.3 9.14 3.737 3.737 0 0 1 15.99 8zm3.831 4.664h-7.62c-.823 0-1.524.631-1.747 1.87l-.584 4.676c-.39 2.687.585 3.632 3.002 3.632h6.25c2.232 0 3.37-1.19 3.028-3.644l-.574-4.614c-.272-1.274-.966-1.92-1.755-1.92zm-1.61 2.15c.31 0 .561.258.561.578a.574.574 0 0 1-.485.574l-.076.005h-.035a.57.57 0 0 1-.561-.579c0-.293.211-.535.485-.574l.076-.005h.035zm-4.366 0c.31 0 .562.258.562.578a.574.574 0 0 1-.486.574l-.076.005h-.034a.57.57 0 0 1-.562-.579c0-.293.211-.535.485-.574l.077-.005h.034zm2.143-5.656a2.633 2.633 0 0 0-1.898.804c-.409.42-.672.962-.757 1.543h5.301c-.192-1.328-1.303-2.347-2.646-2.347z" fill="currentColor"/>
    </g>
</svg>
