<svg width="17" height="17" viewBox="0 0 17 17" xmlns="http://www.w3.org/2000/svg">
    <path d="m8.293.01 6.79 2.247a1.667 1.667 0 0 1 1.144 1.582v.13c0 .736-.597 1.333-1.333 1.333L14.56 5.3l.001 5.419c.575.148 1 .67 1 1.29v1.001a1.667 1.667 0 0 1-1 3H1.893a1.667 1.667 0 0 1-1.001-3v-1c0-.621.425-1.143 1-1.291V5.3l-.333.002A1.333 1.333 0 0 1 .227 3.968v-.123c0-.721.465-1.361 1.151-1.585L8.293.01zm6.267 13.667H1.894a.667.667 0 0 0-.078 1.33l.078.004H14.56a.667.667 0 0 0 .078-1.33l-.078-.004zm-2.667-8.376H4.56l.001 5.419c.575.148 1 .67 1 1.29v.667h5.332v-.666c0-.621.425-1.143 1-1.291V5.3zm-7.666 6.376h-2c-.163 0-.3.118-.328.274l-.005.06v.333H4.56v-.333c0-.164-.117-.3-.273-.328l-.06-.006zm10 0h-2c-.163 0-.3.118-.328.274l-.005.06v.333h2.666v-.333c0-.164-.117-.3-.273-.328l-.06-.006zm-5.93-5.833c.236 0 .426.187.456.424l.004.066v.273h.377c.236 0 .426.187.456.424l.004.066c0 .245-.17.452-.397.485l-.063.005H7.906c-.138 0-.258.131-.258.3 0 .15.095.271.213.296l.045.005h.642c.654 0 1.179.577 1.18 1.28 0 .612-.398 1.135-.946 1.255l-.026.004v.294c0 .245-.17.452-.397.485l-.063.005-.063-.005a.476.476 0 0 1-.392-.413l-.005-.072v-.274H7.32a.471.471 0 0 1-.456-.423l-.004-.066c0-.245.17-.452.397-.485l.063-.005h1.228c.138 0 .258-.131.258-.3 0-.15-.095-.27-.213-.296l-.045-.005h-.642c-.654 0-1.179-.577-1.179-1.28 0-.669.476-1.225 1.087-1.276h.021v-.277c0-.245.17-.452.398-.485l.063-.005zm-4.737-.5h-.666l-.001 5.333h.667V5.344zm10 0h-.666l-.001 5.333h.667V5.344zM8.29 1.063 1.688 3.21a.667.667 0 0 0-.456.556l-.005.078v.123c0 .164.118.3.274.328l.06.006h13.333c.163 0 .3-.118.328-.274l.005-.06V3.84a.667.667 0 0 0-.385-.604l-.072-.029-6.48-2.143z" fill="#073B4C" fill-rule="evenodd"/>
</svg>
