<svg width="82" height="82" viewBox="0 0 82 82" fill="none" xmlns="http://www.w3.org/2000/svg">
<path fill-rule="evenodd" clip-rule="evenodd" d="M41 76.875C60.8132 76.875 76.875 60.8132 76.875 41C76.875 21.1868 60.8132 5.125 41 5.125C21.1868 5.125 5.125 21.1868 5.125 41C5.125 60.8132 21.1868 76.875 41 76.875ZM55.4587 26.5411C56.5095 27.5918 56.5095 29.2954 55.4587 30.3462L44.8212 40.9836L55.556 51.5384C56.6156 52.5802 56.63 54.2838 55.5882 55.3434C54.5464 56.403 52.8428 56.4174 51.7832 55.3755L41.016 44.7889L30.3462 55.4587C29.2955 56.5094 27.5918 56.5094 26.5411 55.4587C25.4903 54.4079 25.4903 52.7043 26.5411 51.6536L37.1787 41.016L26.4593 30.4763C25.3997 29.4345 25.3852 27.7309 26.4271 26.6713C27.4689 25.6117 29.1725 25.5973 30.2321 26.6391L40.9839 37.2107L51.6536 26.5411C52.7043 25.4903 54.4079 25.4903 55.4587 26.5411Z" fill="#CD1616"/>
</svg>
