<svg width="85" height="85" viewBox="0 0 85 85" xmlns="http://www.w3.org/2000/svg">
    <g fill="none" fill-rule="evenodd">
        <ellipse fill="#C33" cx="42.596" cy="42.54" rx="41.344" ry="41.289"/>
        <path d="m30.89 29.41.098.085 11.608 11.593 11.61-11.593.096-.085a1.03 1.03 0 0 1 1.357.085c.401.401.401 1.051 0 1.452L44.049 42.54l11.61 11.594c.401.4.401 1.05 0 1.452a1.03 1.03 0 0 1-1.357.085l-.097-.085-11.61-11.595-11.607 11.595-.097.085a1.03 1.03 0 0 1-1.357-.085 1.026 1.026 0 0 1 0-1.452L41.143 42.54l-11.61-11.593a1.026 1.026 0 0 1 0-1.452 1.03 1.03 0 0 1 1.358-.085z" fill="#FFF" stroke="#FFF"/>
        <path d="M42.5 0C19.027 0 0 19.03 0 42.5S19.027 85 42.5 85 85 65.97 85 42.5 65.973 0 42.5 0zm0 3.754c21.396 0 38.741 17.347 38.741 38.746 0 21.4-17.345 38.746-38.741 38.746S3.759 63.9 3.759 42.5c0-21.4 17.345-38.746 38.741-38.746z" fill="none" fill-rule="nonzero"/>
    </g>
</svg>
