<svg width="133px" height="146px" viewBox="0 0 133 146" version="1.1">
    <g id="Page-1" stroke="none" stroke-width="1" fill="none" fill-rule="evenodd">
        <g id="01---Beneficios---POC" transform="translate(-108.000000, -111.000000)">
            <g id="Group-4" transform="translate(15.000000, 111.000000)">
                <g id="Group-3" transform="translate(93.000000, 0.000000)">
                    <path d="M31.6467391,8.15217391 C32.2839936,8.15217391 32.8082759,8.66837677 32.8645626,9.32781507 L32.8695652,9.44559749 L32.8695652,12.5652721 C32.8695652,13.2799769 32.3214791,13.8586957 31.6467391,13.8586957 C31.0094847,13.8586957 30.4852024,13.3424928 30.4289157,12.6830545 L30.423913,12.5652721 L30.423913,9.44559749 C30.423913,8.73089269 30.9719991,8.15217391 31.6467391,8.15217391 Z M37.2838962,5.70652174 C37.9969108,5.70652174 38.576087,6.25365296 38.576087,6.92934783 C38.576087,7.56750409 38.0594761,8.09098475 37.4014164,8.14717965 L37.2838962,8.15217391 L34.1617559,8.15217391 C33.4487414,8.15217391 32.8695652,7.60504269 32.8695652,6.92934783 C32.8695652,6.29119156 33.3861761,5.7677109 34.0442358,5.711516 L34.1617559,5.70652174 L37.2838962,5.70652174 Z M29.1317223,5.70652174 C29.8447369,5.70652174 30.423913,6.25365296 30.423913,6.92934783 C30.423913,7.56750409 29.9073022,8.09098475 29.2492425,8.14717965 L29.1317223,8.15217391 L26.009582,8.15217391 C25.2965675,8.15217391 24.7173913,7.60504269 24.7173913,6.92934783 C24.7173913,6.29119156 25.2340022,5.7677109 25.8920619,5.711516 L26.009582,5.70652174 L29.1317223,5.70652174 Z M31.6467391,0 C32.2839936,0 32.8082759,0.516202861 32.8645626,1.17564116 L32.8695652,1.29342358 L32.8695652,4.41309816 C32.8695652,5.12780296 32.3214791,5.70652174 31.6467391,5.70652174 C31.0094847,5.70652174 30.4852024,5.19031888 30.4289157,4.53088058 L30.423913,4.41309816 L30.423913,1.29342358 C30.423913,0.578718778 30.9719991,0 31.6467391,0 Z" id="Shape" fill="#073B4C"></path>
                    <path d="M6.07608696,18.8586957 C6.50092326,18.8586957 6.85044477,19.1536687 6.88796928,19.5304906 L6.89130435,19.5977948 L6.89130435,21.380466 C6.89130435,21.7888688 6.52591363,22.1195652 6.07608696,22.1195652 C5.65125065,22.1195652 5.30172914,21.8245922 5.26420464,21.4477703 L5.26086957,21.380466 L5.26086957,19.5977948 C5.26086957,19.1893921 5.62626028,18.8586957 6.07608696,18.8586957 Z M9.41377921,17.2282609 C9.8212161,17.2282609 10.1521739,17.593015 10.1521739,18.0434783 C10.1521739,18.4689158 9.85696771,18.8179029 9.48093358,18.8553661 L9.41377921,18.8586957 L7.62969905,18.8586957 C7.22226216,18.8586957 6.89130435,18.4939415 6.89130435,18.0434783 C6.89130435,17.6180408 7.18651055,17.2690536 7.56254468,17.2315904 L7.62969905,17.2282609 L9.41377921,17.2282609 Z M4.52247486,17.2282609 C4.92991175,17.2282609 5.26086957,17.593015 5.26086957,18.0434783 C5.26086957,18.4689158 4.96566336,18.8179029 4.58962924,18.8553661 L4.52247486,18.8586957 L2.7383947,18.8586957 C2.33095782,18.8586957 2,18.4939415 2,18.0434783 C2,17.6180408 2.2952062,17.2690536 2.67124033,17.2315904 L2.7383947,17.2282609 L4.52247486,17.2282609 Z M6.07608696,13.9673913 C6.50092326,13.9673913 6.85044477,14.2623644 6.88796928,14.6391863 L6.89130435,14.7064905 L6.89130435,16.4891617 C6.89130435,16.8975644 6.52591363,17.2282609 6.07608696,17.2282609 C5.65125065,17.2282609 5.30172914,16.9332878 5.26420464,16.5564659 L5.26086957,16.4891617 L5.26086957,14.7064905 C5.26086957,14.2980877 5.62626028,13.9673913 6.07608696,13.9673913 Z" id="Shape" fill="#215B58" transform="translate(6.076087, 18.043478) rotate(-315.000000) translate(-6.076087, -18.043478) "></path>
                    <path d="M18.9657621,23.2650502 C16.0397397,23.2650502 13.6672241,25.6375659 13.6672241,28.5639633 C13.6672241,31.4903606 16.0397397,33.8628763 18.966137,33.8628763 C21.8925344,33.8628763 24.2650502,31.4903606 24.2650502,28.5644132 C24.262566,25.6384238 21.8913902,23.2671201 18.9657621,23.2650502 Z" id="Path-Copy" stroke="#073B4C" stroke-width="2" fill="#FFD166" fill-rule="nonzero"></path>
                    <path d="M18.9664696,22.2650504 C15.487386,22.2650504 12.6672241,25.0853501 12.6672241,28.5639633 C12.6672241,32.0426454 15.4874549,34.8628763 18.966137,34.8628763 C22.4447364,34.8628763 25.2650502,32.042728 25.2650502,28.5644132 C25.2620972,25.0859029 22.4437795,22.2675107 18.9664696,22.2650504 Z M18.9650546,24.2650499 C21.3389357,24.2667295 23.2630346,26.1908794 23.2650505,28.5652622 C23.2650505,30.9381323 21.3401932,32.8628763 18.966137,32.8628763 C16.5920244,32.8628763 14.6672241,30.9380759 14.6672241,28.5639633 C14.6672241,26.2597231 16.4804217,24.3786651 18.7575134,24.2700079 L18.9650546,24.2650499 Z" id="Path-Copy" fill="#073B4C" fill-rule="nonzero"></path>
                    <path d="M105.809783,22.9347826 C106.447037,22.9347826 106.971319,23.4509855 107.027606,24.1104238 L107.032609,24.2282062 L107.032609,27.3478808 C107.032609,28.0625856 106.484523,28.6413043 105.809783,28.6413043 C105.172528,28.6413043 104.648246,28.1251015 104.591959,27.4656632 L104.586957,27.3478808 L104.586957,24.2282062 C104.586957,23.5135014 105.135043,22.9347826 105.809783,22.9347826 Z M111.44694,20.4891304 C112.159954,20.4891304 112.73913,21.0362617 112.73913,21.7119565 C112.73913,22.3501128 112.22252,22.8735934 111.56446,22.9297883 L111.44694,22.9347826 L108.324799,22.9347826 C107.611785,22.9347826 107.032609,22.3876514 107.032609,21.7119565 C107.032609,21.0738003 107.54922,20.5503196 108.207279,20.4941247 L108.324799,20.4891304 L111.44694,20.4891304 Z M103.294766,20.4891304 C104.00778,20.4891304 104.586957,21.0362617 104.586957,21.7119565 C104.586957,22.3501128 104.070346,22.8735934 103.412286,22.9297883 L103.294766,22.9347826 L100.172626,22.9347826 C99.459611,22.9347826 98.8804348,22.3876514 98.8804348,21.7119565 C98.8804348,21.0738003 99.3970456,20.5503196 100.055105,20.4941247 L100.172626,20.4891304 L103.294766,20.4891304 Z M105.809783,14.7826087 C106.447037,14.7826087 106.971319,15.2988116 107.027606,15.9582499 L107.032609,16.0760323 L107.032609,19.1957069 C107.032609,19.9104117 106.484523,20.4891304 105.809783,20.4891304 C105.172528,20.4891304 104.648246,19.9729276 104.591959,19.3134893 L104.586957,19.1957069 L104.586957,16.0760323 C104.586957,15.3613275 105.135043,14.7826087 105.809783,14.7826087 Z" id="Shape" fill="#073B4C" transform="translate(105.809783, 21.711957) rotate(-315.000000) translate(-105.809783, -21.711957) "></path>
                    <path d="M127.978261,32.3369565 C128.403097,32.3369565 128.752619,32.6319296 128.790143,33.0087515 L128.793478,33.0760557 L128.793478,34.8587269 C128.793478,35.2671296 128.428088,35.5978261 127.978261,35.5978261 C127.553425,35.5978261 127.203903,35.302853 127.166379,34.9260311 L127.163043,34.8587269 L127.163043,33.0760557 C127.163043,32.667653 127.528434,32.3369565 127.978261,32.3369565 Z M131.315953,30.7065217 C131.72339,30.7065217 132.054348,31.0712759 132.054348,31.5217391 C132.054348,31.9471766 131.759142,32.2961637 131.383107,32.333627 L131.315953,32.3369565 L129.531873,32.3369565 C129.124436,32.3369565 128.793478,31.9722024 128.793478,31.5217391 C128.793478,31.0963016 129.088684,30.7473145 129.464719,30.7098512 L129.531873,30.7065217 L131.315953,30.7065217 Z M126.424649,30.7065217 C126.832086,30.7065217 127.163043,31.0712759 127.163043,31.5217391 C127.163043,31.9471766 126.867837,32.2961637 126.491803,32.333627 L126.424649,32.3369565 L124.640569,32.3369565 C124.233132,32.3369565 123.902174,31.9722024 123.902174,31.5217391 C123.902174,31.0963016 124.19738,30.7473145 124.573414,30.7098512 L124.640569,30.7065217 L126.424649,30.7065217 Z M127.978261,27.4456522 C128.403097,27.4456522 128.752619,27.7406252 128.790143,28.1174471 L128.793478,28.1847514 L128.793478,29.9674226 C128.793478,30.3758253 128.428088,30.7065217 127.978261,30.7065217 C127.553425,30.7065217 127.203903,30.4115487 127.166379,30.0347268 L127.163043,29.9674226 L127.163043,28.1847514 C127.163043,27.7763486 127.528434,27.4456522 127.978261,27.4456522 Z" id="Shape" fill="#073B4C"></path>
                    <g id="discount" transform="translate(12.000000, 25.896095)" fill-rule="nonzero">
                        <path d="M74,118 L7,118 C4.23857625,118 2,115.761424 2,113 L2,110 L10,24 L66,24 L72.05325,51.44675 L74,110 L74,118 Z" id="Path" fill="#E9F4FC"></path>
                        <polygon id="Path" fill="#FFFFFF" points="50 60 50 76 54 76 54 118 114 118 114 76 118 76 118 60"></polygon>
                        <polygon id="Path" fill="#E9F4FC" points="70 60 70 76 76 76 76 118 92 118 92 76 98 76 98 60"></polygon>
                        <circle id="Oval" fill="#FFFFFE" cx="52" cy="38" r="4"></circle>
                        <circle id="Oval" fill="#FFFFFE" cx="24" cy="38" r="4"></circle>
                        <path d="M24,44 C20.6862915,44 18,41.3137085 18,38 C18,34.6862915 20.6862915,32 24,32 C27.3137085,32 30,34.6862915 30,38 C29.9962801,41.3121664 27.3121664,43.9962801 24,44 Z M24,36 C22.8954305,36 22,36.8954305 22,38 C22,39.1045695 22.8954305,40 24,40 C25.1045695,40 26,39.1045695 26,38 C25.99876,36.8959445 25.1040555,36.00124 24,36 L24,36 Z" id="Shape" fill="#000000"></path>
                        <g id="Group" transform="translate(63.250000, 14.000000)">
                            <polygon id="Path" fill="#FFD166" points="54.75 21.75975 49.82875 29.6895 52.62375 38.48775 43.895 42.11475 40.8585 50.89275 31.6625 48.826 23.94225 54.2335 17.79675 47.26875 8.3445 47.23225 7.58525 38.032 0.019 32.5685 4.94025 24.639 2.14525 15.8405 10.874 12.21375 13.9105 3.4355 23.1065 5.5025 30.82675 0.095 36.97225 7.05975 46.4245 7.09625 47.18375 16.2965"></polygon>
                            <path d="M37.8357864,15.5857864 C38.616835,14.8047379 39.883165,14.8047379 40.6642136,15.5857864 C41.4041543,16.3257272 41.4430986,17.5012114 40.7810463,18.2869988 L40.6642136,18.4142136 L18.6642136,40.4142136 C17.883165,41.1952621 16.616835,41.1952621 15.8357864,40.4142136 C15.0958457,39.6742728 15.0569014,38.4987886 15.7189537,37.7130012 L15.8357864,37.5857864 L37.8357864,15.5857864 Z" id="Line" fill="#073B4C"></path>
                            <circle id="Oval" fill="#FFFEFD" cx="19.33125" cy="19.10625" r="4"></circle>
                            <path d="M19.33125,25.10625 C16.0175415,25.10625 13.33125,22.4199585 13.33125,19.10625 C13.33125,15.7925415 16.0175415,13.10625 19.33125,13.10625 C22.6449585,13.10625 25.33125,15.7925415 25.33125,19.10625 C25.3275301,22.4184164 22.6434164,25.1025301 19.33125,25.10625 L19.33125,25.10625 Z M19.33125,17.10625 C18.2266805,17.10625 17.33125,18.0016805 17.33125,19.10625 C17.33125,20.2108195 18.2266805,21.10625 19.33125,21.10625 C20.4358195,21.10625 21.33125,20.2108195 21.33125,19.10625 C21.33001,18.0021945 20.4353055,17.10749 19.33125,17.10625 Z" id="Shape" fill="#073B4C"></path>
                            <circle id="Oval" fill="#FFFEFD" cx="37.33125" cy="35.10625" r="4"></circle>
                            <path d="M37.33125,41.10625 C34.0175415,41.10625 31.33125,38.4199585 31.33125,35.10625 C31.33125,31.7925415 34.0175415,29.10625 37.33125,29.10625 C40.6449585,29.10625 43.33125,31.7925415 43.33125,35.10625 C43.3275301,38.4184164 40.6434164,41.1025301 37.33125,41.10625 L37.33125,41.10625 Z M37.33125,33.10625 C36.2266805,33.10625 35.33125,34.0016805 35.33125,35.10625 C35.33125,36.2108195 36.2266805,37.10625 37.33125,37.10625 C38.4358195,37.10625 39.33125,36.2108195 39.33125,35.10625 C39.33001,34.0021945 38.4353055,33.10749 37.33125,33.10625 Z" id="Shape" fill="#073B4C"></path>
                        </g>
                        <path d="M108.5575,58 L108.72275,57.52225 L116.62275,54.23975 C117.581072,53.8414491 118.075528,52.7763175 117.76125,51.78725 L115.245,43.86675 L119.68075,36.7195 C120.233904,35.8273126 120.003138,34.6592905 119.15225,34.0445 L112.33275,29.1195 L111.65,20.83675 C111.564646,19.8024357 110.702322,19.0052585 109.6645,19.00125 L101.11025,18.96825 L95.5575,12.67675 C94.8839422,11.9133469 93.7444037,11.7777388 92.9105,12.36175 L85.91425,17.26175 L77.58025,15.38875 C76.5868971,15.1654541 75.5843339,15.7240481 75.2515,16.68625 L72.50875,24.6155 L68.2315,26.39275 L67.9915,23.814 C67.8954707,22.7859019 67.0325731,21.9999134 66,22 L54,22 L54,12 C53.9924227,5.37572416 48.6242758,0.00757730003 42,0 L34,0 C27.3757242,0.00757730003 22.0075773,5.37572416 22,12 L22,22 L10,22 C8.96716492,21.9999495 8.10416635,22.786355 8.0085,23.81475 L6.33425,42.73575 L10.317,43.10625 L11.82275,26 L22,26 L22,32.34275 C19.2449066,33.3168226 17.5922558,36.1340825 18.0864086,39.0142161 C18.5805615,41.8943498 21.0777822,43.9996042 24,43.9996042 C26.9222178,43.9996042 29.4194385,41.8943498 29.9135914,39.0142161 C30.4077442,36.1340825 28.7550934,33.3168226 26,32.34275 L26,26 L50,26 L50,32.34275 C47.2449066,33.3168226 45.5922558,36.1340825 46.0864086,39.0142161 C46.5805615,41.8943498 49.0777822,43.9996042 52,43.9996042 C54.9222178,43.9996042 57.4194385,41.8943498 57.9135914,39.0142161 C58.4077442,36.1340825 56.7550934,33.3168226 54,32.34275 L54,26 L64.17725,26 L64.36525,28.02 C63.5588479,28.4925007 63.187219,29.4605005 63.47025,30.35125 L65.9865,38.27175 L61.55,45.419 C60.9968456,46.3111874 61.2276119,47.4792095 62.0785,48.094 L68.898,53.019 L69.31,58 L50,58 C48.8954305,58 48,58.8954305 48,60 L48,76 C48,77.1045695 48.8954305,78 50,78 L52,78 L52,116 L7,116 C5.34388826,115.998209 4.00179121,114.656112 4,113 L4,110.09275 L10.317,42.18525 L6.334,41.81475 L0.009,109.81475 C0.003,109.87625 1.42108547e-14,109.938 1.42108547e-14,110 L1.42108547e-14,113 C0.00440863597,116.864166 3.13583434,119.995591 7,120 L114,120 C115.104569,120 116,119.104569 116,118 L116,77.319232 L112,77.319232 L112,116 L94,116 L94,78 L118,78 C119.104569,78 120,77.1045695 120,76 L120,60 C120,58.8954305 119.104569,58 118,58 L108.5575,58 Z M24,40 C22.8954305,40 22,39.1045695 22,38 C22,36.8954305 22.8954305,36 24,36 C25.1045695,36 26,36.8954305 26,38 C25.99876,39.1040555 25.1040555,39.99876 24,40 Z M52,40 C50.8954305,40 50,39.1045695 50,38 C50,36.8954305 50.8954305,36 52,36 C53.1045695,36 54,36.8954305 54,38 C53.99876,39.1040555 53.1040555,39.99876 52,40 Z M26,22 L26,12 C26.0049599,7.58377808 29.5837781,4.00495988 34,4 L42,4 C46.4162219,4.00495988 49.9950401,7.58377808 50,12 L50,22 L26,22 Z M65.93275,45.94375 L69.87075,39.59875 C70.179037,39.1021684 70.2546668,38.4955769 70.07775,37.9385 L67.838,30.8885 L74.87275,27.96575 C75.400129,27.7465188 75.8086222,27.3122787 75.99525,26.7725 L78.4475,19.684 L85.89925,21.359 C86.4484425,21.4824217 87.0242201,21.3687002 87.48525,21.04575 L93.741,16.66375 L98.70375,22.28875 C99.0816362,22.7170256 99.6245993,22.963306 100.19575,22.9655 L107.8135,22.995 L108.42175,30.367 C108.46991,30.9494321 108.770413,31.4816606 109.24425,31.82375 L115.2985,36.1955 L111.3605,42.54 C111.052297,43.0366199 110.976759,43.6432092 111.15375,44.20025 L113.3935,51.25025 L106.35875,54.17325 C105.831328,54.3923675 105.422744,54.826516 105.236,55.36625 L102.784,62.45475 L95.33225,60.77975 C94.7830575,60.6563283 94.2072799,60.7700498 93.74625,61.093 L87.49025,65.475 L82.5275,59.85 C82.1496717,59.4217894 81.6068135,59.1755153 81.03575,59.17325 L73.418,59.144 L72.80975,51.772 C72.7616608,51.189478 72.4611501,50.6571449 71.98725,50.315 L65.93275,45.94375 Z M52,62 L68,62 L68,74 L52,74 L52,62 Z M56,116 L56,78 L74,78 L74,116 L56,116 Z M90,116 L78,116 L78,78 L90,78 L90,116 Z M72,74 L72,63.139 L80.12225,63.17025 L85.675,69.462 C86.3486555,70.2254663 87.4883582,70.3609735 88.32225,69.77675 L95.3185,64.87675 L96.00125,65.03025 L96.00125,74 L72,74 Z M116,74 L100,74 L100,65.92875 L103.65,66.75 C104.643353,66.9732959 105.645916,66.4147019 105.97875,65.4525 L107.175,62 L116,62 L116,74 Z" id="Shape" fill="#073B4C"></path>
                    </g>
                    <path d="M123.912555,1.39548495 C120.103532,1.39548495 117.01505,4.483967 117.01505,8.29347835 C117.01505,12.1029897 120.103532,15.1914716 123.913043,15.1914716 C127.722555,15.1914716 130.811037,12.1029897 130.811037,8.294064 C130.807803,4.48508376 127.721065,1.39817952 123.912555,1.39548495 Z" id="Path" stroke="#073B4C" stroke-width="2" fill="#FFD166" fill-rule="nonzero"></path>
                </g>
            </g>
        </g>
    </g>
</svg>