<svg xmlns="http://www.w3.org/2000/svg" width="182" height="179" viewBox="0 0 182 179">
    <g fill="none" fill-rule="evenodd">
        <g>
            <g transform="translate(-80 -81) translate(80 81)">
                <ellipse cx="100.5" cy="109" fill="#00D576" rx="70.5" ry="70"/>
                <g>
                    <path fill="#FFF" fill-rule="nonzero" d="M96 27.146v93.331c0 3.564-2.883 6.455-6.437 6.455H8.57c-3.556 0-6.437-2.891-6.437-6.455V8.587c0-3.563 2.88-6.455 6.437-6.455h62.488L96 27.146z" transform="translate(51 28)"/>
                    <path fill="#F1FAFC" fill-rule="nonzero" d="M96 26.666H77.798c-3.498 0-6.331-2.836-6.331-6.332V2.132L96 26.666z" transform="translate(51 28)"/>
                    <path fill="#E9F4FC" fill-rule="nonzero" d="M73.6 40.532H20.267c-5.302 0-9.6 4.298-9.6 9.6V96c0 5.302 4.298 9.6 9.6 9.6H73.6c5.302 0 9.6-4.298 9.6-9.6V50.132c0-5.302-4.298-9.6-9.6-9.6z" transform="translate(51 28)"/>
                    <path fill="#073B4C" fill-rule="nonzero" d="M73.6 40.532c5.207 0 9.446 4.146 9.596 9.317l.004.283V96c0 5.207-4.146 9.446-9.317 9.596l-.283.004H20.267c-5.208 0-9.447-4.146-9.596-9.317l-.004-.283V50.132c0-5.207 4.146-9.446 9.317-9.596l.283-.004H73.6zM41.364 44.8H20.267c-2.868 0-5.208 2.264-5.329 5.102l-.005.231V96c0 2.868 2.264 5.207 5.102 5.328l.232.005 21.142.002c-.122-.544-.19-1.147-.19-1.782V46.368c0-.553.052-1.083.145-1.57zm32.236 0h-9.023c.093.486.145 1.016.145 1.57v53.183c0 .635-.068 1.238-.19 1.782l9.068-.002c2.868 0 5.207-2.263 5.328-5.102l.005-.231V50.132c0-2.868-2.263-5.207-5.102-5.328l-.231-.005zm-13.036 0H45.377c.093.486.145 1.016.145 1.57v53.183c0 .635-.068 1.238-.19 1.782H60.61c-.122-.544-.19-1.147-.19-1.782V46.368c0-.553.052-1.083.145-1.57z" transform="translate(51 28)"/>
                    <path fill="#FFD166" fill-rule="nonzero" d="M109.867 86.932c0 14.44-11.703 26.134-26.119 26.134-19.505 0-32.1-20.67-23.283-37.988 4.325-8.484 13.139-14.279 23.283-14.279 14.414 0 26.119 11.69 26.119 26.133z" transform="translate(51 28)"/>
                    <path fill="#073B4C" fill-rule="nonzero" d="M65.74 0l5.864.021.103.01.031.012.262.041.106.038.077.04.16.108.217.172.51.455.66.625 1.56 1.529 6.756 6.746 15.638 15.647c.473.357.795.903.85 1.526l.008.19v35.383C106.612 67.52 112 76.433 112 86.583c0 15.567-12.678 28.232-28.26 28.232-15.584 0-28.262-12.665-28.262-28.233 0-13.682 9.794-25.121 22.746-27.691l.401-.077 4.306-.452c3.77-.105 7.393.528 10.748 1.792l.557.216V29.31H77.785c-4.662 0-8.47-3.718-8.61-8.341l-.003-.263V4.305H8.612c-2.302 0-4.188 1.814-4.3 4.087l-.006.215V120.46c0 2.3 1.817 4.185 4.092 4.297l.215.006h81.283c2.303 0 4.19-1.815 4.302-4.088l.005-.215c0-1.187.964-2.15 2.153-2.15 1.19 0 2.153.963 2.153 2.15 0 4.657-3.722 8.461-8.35 8.6l-.263.005H8.613c-4.661 0-8.47-3.719-8.609-8.342L0 120.461V8.607C0 3.862 3.864.002 8.613.002L65.739 0zm18 62.652c-13.21 0-23.955 10.735-23.955 23.93 0 13.196 10.746 23.93 23.954 23.93 13.209 0 23.955-10.734 23.955-23.93 0-13.195-10.746-23.93-23.955-23.93z" transform="translate(51 28)"/>
                    <path fill="#E9F4FC" fill-rule="nonzero" d="M77.785 25.008c-2.375 0-4.307-1.93-4.307-4.302V7.346l17.68 17.663H77.785z" transform="translate(51 28)"/>
                    <path fill="#073B4C" fill-rule="nonzero" d="M95.647 77c.2 0 .399.026.591.076.822.21 1.466.847 1.684 1.662.218.819-.029 1.69-.631 2.266l-13.544 13.33c-.443.426-1.03.666-1.647.666-.626 0-1.22-.243-1.654-.677L72.73 86.73c-.621-.593-.87-1.464-.652-2.287.217-.814.862-1.45 1.682-1.66.194-.05.392-.077.592-.077.632 0 1.244.256 1.669.69l6.079 5.979 11.808-11.62.06-.053.113-.108c.429-.379.99-.594 1.566-.594z" transform="translate(51 28)"/>
                    <path fill="#073B4C" d="M10.31 17.267c0-1.188.965-2.151 2.154-2.151h20.994c1.189 0 2.153.963 2.153 2.15 0 1.189-.964 2.152-2.153 2.152H12.464c-1.19 0-2.153-.963-2.153-2.151zM10.31 29.133c0-1.188.965-2.151 2.154-2.151H38.84c1.189 0 2.153.963 2.153 2.151 0 1.188-.964 2.151-2.153 2.151H12.464c-1.19 0-2.153-.963-2.153-2.151z" transform="translate(51 28)"/>
                </g>
                <path fill="#00D576" fill-rule="nonzero" d="M24 38c5.523 0 10 4.477 10 10-.004 5.521-4.479 9.996-10 10-5.523 0-10-4.477-10-10s4.477-10 10-10zm0 1.538c-4.673 0-8.462 3.789-8.462 8.462s3.789 8.462 8.462 8.462 8.462-3.789 8.462-8.461c-.004-4.673-3.79-8.46-8.463-8.463z"/>
                <path fill="#00D576" d="M42.5 21c.782 0 1.425.633 1.494 1.442l.006.145v3.826C44 27.29 43.328 28 42.5 28c-.782 0-1.425-.633-1.494-1.442L41 26.413v-3.826c0-.877.672-1.587 1.5-1.587zm6.915-3c.875 0 1.585.671 1.585 1.5 0 .783-.634 1.425-1.44 1.494l-.145.006h-3.83C44.71 21 44 20.329 44 19.5c0-.783.634-1.425 1.44-1.494l.145-.006h3.83zm-10 0c.875 0 1.585.671 1.585 1.5 0 .783-.634 1.425-1.44 1.494l-.145.006h-3.83C34.71 21 34 20.329 34 19.5c0-.783.634-1.425 1.44-1.494l.145-.006h3.83zm3.085-7c.782 0 1.425.633 1.494 1.442l.006.145v3.826C44 17.29 43.328 18 42.5 18c-.782 0-1.425-.633-1.494-1.442L41 16.413v-3.826c0-.877.672-1.587 1.5-1.587zM5 28c.521 0 .95.362.996.824l.004.083v2.186c0 .501-.448.907-1 .907-.521 0-.95-.362-.996-.824L4 31.093v-2.186c0-.501.448-.907 1-.907zm4.094-2c.5 0 .906.447.906 1 0 .522-.362.95-.823.996L9.094 28H6.906c-.5 0-.906-.447-.906-1 0-.522.362-.95.823-.996L6.906 26h2.188zm-6 0c.5 0 .906.447.906 1 0 .522-.362.95-.823.996L3.094 28H.906C.406 28 0 27.553 0 27c0-.522.362-.95.823-.996L.906 26h2.188zM5 22c.521 0 .95.362.996.824l.004.083v2.186c0 .501-.448.907-1 .907-.521 0-.95-.362-.996-.824L4 25.093v-2.186c0-.501.448-.907 1-.907z"/>
                <path fill="#00D576" fill-rule="nonzero" d="M157 0c5.523 0 10 4.477 10 10-.004 5.521-4.479 9.996-10 10-5.523 0-10-4.477-10-10s4.477-10 10-10zm0 1.538c-4.673 0-8.462 3.789-8.462 8.462s3.789 8.462 8.462 8.462 8.462-3.789 8.462-8.461c-.004-4.673-3.79-8.46-8.463-8.463z"/>
                <path fill="#00D576" d="M169.5 43c.782 0 1.425.633 1.494 1.442l.006.145v3.826c0 .877-.672 1.587-1.5 1.587-.782 0-1.425-.633-1.494-1.442l-.006-.145v-3.826c0-.877.672-1.587 1.5-1.587zm6.915-3c.875 0 1.585.671 1.585 1.5 0 .783-.634 1.425-1.44 1.494l-.145.006h-3.83c-.875 0-1.585-.671-1.585-1.5 0-.783.634-1.425 1.44-1.494l.145-.006h3.83zm-10 0c.875 0 1.585.671 1.585 1.5 0 .783-.634 1.425-1.44 1.494l-.145.006h-3.83c-.875 0-1.585-.671-1.585-1.5 0-.783.634-1.425 1.44-1.494l.145-.006h3.83zm3.085-7c.782 0 1.425.633 1.494 1.442l.006.145v3.826c0 .877-.672 1.587-1.5 1.587-.782 0-1.425-.633-1.494-1.442l-.006-.145v-3.826c0-.877.672-1.587 1.5-1.587z" transform="rotate(45 169.5 41.5)"/>
                <path fill="#00D576" d="M132 16c.521 0 .95.362.996.824l.004.083v2.186c0 .501-.448.907-1 .907-.521 0-.95-.362-.996-.824l-.004-.083v-2.186c0-.501.448-.907 1-.907zm4.094-2c.5 0 .906.447.906 1 0 .522-.362.95-.823.996l-.083.004h-2.188c-.5 0-.906-.447-.906-1 0-.522.362-.95.823-.996l.083-.004h2.188zm-6 0c.5 0 .906.447.906 1 0 .522-.362.95-.823.996l-.083.004h-2.188c-.5 0-.906-.447-.906-1 0-.522.362-.95.823-.996l.083-.004h2.188zM132 10c.521 0 .95.362.996.824l.004.083v2.186c0 .501-.448.907-1 .907-.521 0-.95-.362-.996-.824l-.004-.083v-2.186c0-.501.448-.907 1-.907z" transform="rotate(45 132 15)"/>
            </g>
        </g>
    </g>
</svg>
