<svg width="130" height="130" viewBox="0 0 130 130" xmlns="http://www.w3.org/2000/svg">
    <g fill="none" fill-rule="evenodd">
        <g fill-rule="nonzero">
            <path d="m97.906 37.041 10.232 27.384-30.334 61.967c-1.56 3.188-5.418 4.511-8.617 2.957l-54.3-26.388c-3.198-1.554-4.527-5.398-2.967-8.586l36.371-74.3c1.56-3.188 5.418-4.512 8.617-2.957L97.906 37.04z" fill="#FFF"/>
            <path d="m86.4 66.722-35.476-17.24a5.245 5.245 0 0 0-6.916 2.236l-.085.166-14.831 30.298a5.208 5.208 0 0 0 2.243 6.89l.168.086 35.476 17.24a5.245 5.245 0 0 0 6.915-2.236l.086-.166 14.83-30.298a5.208 5.208 0 0 0-2.243-6.89l-.167-.086z" fill="#E9F4FC"/>
            <path d="m97.906 37.041 10.232 27.384-30.334 61.967c-1.56 3.188-5.418 4.511-8.617 2.957l-54.3-26.388c-3.198-1.554-4.527-5.398-2.967-8.586l36.371-74.3c1.56-3.188 5.418-4.512 8.617-2.957L97.906 37.04zm-1.607 1.452L56.025 18.92a4.438 4.438 0 0 0-5.842 1.875l-.082.158-36.37 74.301a4.407 4.407 0 0 0 1.88 5.822l.16.08 54.299 26.388a4.438 4.438 0 0 0 5.843-1.874l.081-.158 29.955-61.194-9.65-25.826zm-9.016 26.426c3.598 1.749 5.093 6.073 3.338 9.659L75.79 104.875c-1.755 3.586-6.096 5.075-9.694 3.326L30.62 90.961c-3.599-1.749-5.093-6.073-3.338-9.659l14.83-30.297c1.756-3.586 6.096-5.075 9.695-3.326l35.476 17.24zM64.86 56.255l-13.937-6.773a5.245 5.245 0 0 0-6.916 2.236l-.085.166-14.831 30.298a5.208 5.208 0 0 0 2.243 6.89l.168.086L45.44 95.93 64.86 56.255zm13.032 6.333-11.222-5.453L47.25 96.81l11.222 5.454 19.421-39.676zm8.507 4.134-6.697-3.254-19.421 39.675 6.697 3.255a5.245 5.245 0 0 0 6.915-2.236l.086-.166 14.83-30.298a5.208 5.208 0 0 0-2.243-6.89l-.167-.086zM74.753 45.66c.5.243.708.843.464 1.341a1.008 1.008 0 0 1-1.252.502l-.094-.04-23.892-11.61a1.002 1.002 0 0 1-.464-1.342 1.008 1.008 0 0 1 1.252-.502l.094.04 23.892 11.61zm-6.587-10.345c.5.243.708.843.464 1.341a1.008 1.008 0 0 1-1.252.503l-.095-.04-14.48-7.038a1.002 1.002 0 0 1-.463-1.341 1.008 1.008 0 0 1 1.252-.502l.094.04 14.48 7.037z" fill="#073B4C"/>
            <path d="m98.162 37.159 10.104 27.052-.783 1.604-14.48-7.062c-3.199-1.56-4.532-5.409-2.977-8.596l6.685-13.706 1.451.708zm7.368 25.471-8.39-22.465-5.304 10.875a4.422 4.422 0 0 0 1.888 5.828l.159.081 11.647 5.681z" fill="#073B4C"/>
            <path d="M105.516 62.617 97.152 40.18 91.83 51.055a4.407 4.407 0 0 0 1.881 5.821l.159.081 11.647 5.66z" fill="#E9F4FC"/>
        </g>
        <g transform="translate(78.867 67.6)">
            <ellipse stroke="#073B4C" stroke-width="1.986" fill="#72EFD3" cx="22.869" cy="22.844" rx="21.875" ry="21.851"/>
            <path d="M30.879 16.555a1.138 1.138 0 0 1 1.607 0c.4.402.438 1.035.077 1.497l-.078.087-10.993 10.997a1.143 1.143 0 0 1-1.519.079l-.087-.078-6.63-6.615a1.12 1.12 0 0 1-.003-1.584 1.143 1.143 0 0 1 1.52-.08l.087.077 5.827 5.812z" fill="#073B4C"/>
        </g>
        <ellipse fill="#073B4C" cx="13.721" cy="30.879" rx="2.734" ry="2.731"/>
        <ellipse fill="#073B4C" cx="119.454" cy="6.612" rx="2.734" ry="2.731"/>
        <path d="m27.95 8.772 2.07 2.07.08.074c.476.4 1.165.395 1.588-.028.448-.448.427-1.195-.047-1.669L29.572 7.15l-.08-.074c-.476-.4-1.165-.395-1.588.028-.447.447-.428 1.194.046 1.668zm5.406.448-.075.082c-.398.474-.394 1.163.03 1.586.448.45 1.194.427 1.667-.046L37.05 8.77l.075-.08c.399-.473.394-1.163-.03-1.587-.448-.448-1.195-.427-1.667.045L33.356 9.22zm-5.407 5.407-.074.081c-.399.475-.395 1.165.028 1.587.449.45 1.196.426 1.668-.046l2.07-2.07.077-.082c.399-.473.394-1.163-.03-1.587-.448-.448-1.195-.427-1.668.046l-2.07 2.071zm5.408-.448 2.07 2.07.082.075c.475.4 1.164.395 1.587-.028.448-.448.426-1.196-.047-1.669l-2.07-2.07-.082-.075c-.474-.4-1.164-.395-1.587.028-.447.447-.426 1.196.047 1.67z" fill="#073B4C"/>
        <ellipse fill="#073B4C" cx="73.56" cy="8.211" rx="5.469" ry="5.463"/>
        <path d="M107.102 22.88v2.926l.005.11c.052.62.544 1.104 1.142 1.104.632 0 1.146-.543 1.146-1.214V22.88l-.004-.11c-.054-.619-.546-1.103-1.142-1.103-.634 0-1.147.543-1.147 1.213zm3.506 4.14-.111.005c-.617.052-1.102.543-1.102 1.142 0 .633.543 1.147 1.213 1.147h2.928l.11-.005c.617-.053 1.102-.543 1.102-1.142 0-.634-.544-1.147-1.212-1.147h-2.928zm-7.648 0-.11.005c-.617.052-1.102.543-1.102 1.142 0 .633.544 1.147 1.212 1.147h2.93l.11-.005c.616-.053 1.102-.543 1.102-1.142 0-.634-.543-1.147-1.212-1.147h-2.93zm4.142 3.507v2.926l.005.11c.052.619.544 1.104 1.142 1.104.632 0 1.146-.542 1.146-1.214v-2.926l-.004-.11c-.054-.619-.546-1.103-1.142-1.103-.634 0-1.147.543-1.147 1.213z" fill="#073B4C"/>
    </g>
</svg>
