<svg xmlns="http://www.w3.org/2000/svg" width="75" height="86" viewBox="0 0 75 86">
    <g fill="none" fill-rule="evenodd">
        <g>
            <g>
                <path fill="#FFF" fill-rule="nonzero" d="M63.508 17.958V79.7c0 2.358-1.908 4.27-4.258 4.27H5.67c-2.353 0-4.259-1.912-4.259-4.27V5.68c0-2.357 1.906-4.27 4.258-4.27h41.339l16.5 16.548z" transform="translate(-150 -105) translate(150 105)"/>
                <path fill="#F1FAFC" fill-rule="nonzero" d="M63.508 17.64H51.466c-2.314 0-4.188-1.876-4.188-4.188V1.411l16.23 16.23z" transform="translate(-150 -105) translate(150 105)"/>
                <path fill="#E9F4FC" fill-rule="nonzero" d="M48.69 26.814H13.406c-3.507 0-6.35 2.843-6.35 6.35v30.343c0 3.507 2.843 6.35 6.35 6.35H48.69c3.508 0 6.351-2.843 6.351-6.35V33.164c0-3.507-2.843-6.35-6.35-6.35z" transform="translate(-150 -105) translate(150 105)"/>
                <path fill="#073B4C" fill-rule="nonzero" d="M48.69 26.814c3.444 0 6.248 2.742 6.347 6.163l.003.187v30.343c0 3.445-2.743 6.249-6.164 6.348l-.187.003H13.407c-3.445 0-6.249-2.743-6.348-6.164l-.003-.187V33.164c0-3.444 2.743-6.249 6.164-6.348l.187-.002H48.69zm-21.326 2.822H13.407c-1.897 0-3.445 1.498-3.525 3.375l-.003.153v30.343c0 1.897 1.498 3.445 3.375 3.525l.153.003 13.986.001c-.08-.36-.125-.759-.125-1.179V30.674c0-.366.034-.716.096-1.038zm21.325 0H42.72c.062.322.096.672.096 1.038v35.183c0 .42-.045.82-.125 1.179h5.998c1.898 0 3.445-1.498 3.525-3.376l.003-.153V33.164c0-1.897-1.497-3.444-3.375-3.525l-.153-.003zm-8.623 0H30.019c.061.322.095.672.095 1.038v35.183c0 .42-.044.82-.125 1.179h10.106c-.08-.36-.125-.759-.125-1.179V30.674c0-.366.034-.716.096-1.038z" transform="translate(-150 -105) translate(150 105)"/>
                <path fill="#FFD166" fill-rule="nonzero" d="M72.576 57.288c0 9.553-7.741 17.288-17.278 17.288-12.903 0-21.236-13.673-15.402-25.13C42.756 43.834 48.587 40 55.298 40c9.535 0 17.278 7.734 17.278 17.288z" transform="translate(-150 -105) translate(150 105)"/>
                <path fill="#073B4C" fill-rule="nonzero" d="M43.49 0l3.879.014.068.007.02.007.174.028.07.025.05.027.107.07.143.115.338.3.436.414 1.032 1.011 4.47 4.463 10.345 10.35c.313.237.526.598.562 1.01l.006.126v23.407c5.337 3.293 8.902 9.19 8.902 15.904 0 10.298-8.387 18.676-18.695 18.676-10.31 0-18.696-8.378-18.696-18.676 0-9.052 6.479-16.62 15.047-18.32l.266-.05 2.848-.3c2.494-.069 4.89.35 7.11 1.186l.369.143V19.39H51.458c-3.084 0-5.603-2.46-5.696-5.518l-.002-.174V2.848H5.698c-1.523 0-2.771 1.2-2.846 2.704l-.003.142V79.69c0 1.522 1.202 2.768 2.707 2.842l.142.004H59.47c1.523 0 2.771-1.2 2.845-2.704l.004-.142c0-.786.638-1.423 1.424-1.423.787 0 1.425.637 1.425 1.423 0 3.08-2.462 5.597-5.524 5.69l-.174.002H5.698c-3.084 0-5.603-2.46-5.695-5.518L0 79.69V5.694C0 2.555 2.556.002 5.698.002L43.489 0zm11.907 41.447c-8.738 0-15.847 7.101-15.847 15.83 0 8.73 7.109 15.831 15.847 15.831s15.846-7.101 15.846-15.83c0-8.73-7.108-15.831-15.846-15.831z" transform="translate(-150 -105) translate(150 105)"/>
                <path fill="#E9F4FC" fill-rule="nonzero" d="M51.458 16.544c-1.571 0-2.85-1.277-2.85-2.846V4.86l11.697 11.684h-8.847z" transform="translate(-150 -105) translate(150 105)"/>
                <path fill="#073B4C" d="M6.82 11.423c0-.786.639-1.423 1.425-1.423h13.888c.787 0 1.425.637 1.425 1.423 0 .785-.638 1.423-1.425 1.423H8.245c-.786 0-1.424-.638-1.424-1.423zM6.82 19.273c0-.786.639-1.423 1.425-1.423h17.45c.786 0 1.424.637 1.424 1.423 0 .785-.638 1.423-1.424 1.423H8.245c-.786 0-1.424-.638-1.424-1.423z" transform="translate(-150 -105) translate(150 105)"/>
                <path fill="#073B4C" fill-rule="nonzero" d="M55.517 63.164c1.37 0 2.483 1.063 2.483 2.392v.035C58 66.921 56.888 68 55.517 68c-1.37 0-2.483-1.079-2.483-2.409 0-1.329 1.113-2.427 2.483-2.427zM55.483 46c1.257 0 2.296.906 2.46 2.082l.023.327v9.955c0 1.33-1.112 2.408-2.483 2.408-1.257 0-2.296-.906-2.46-2.081L53 58.364v-9.955C53 47.079 54.112 46 55.483 46z" transform="translate(-150 -105) translate(150 105)"/>
            </g>
        </g>
    </g>
</svg>
