<svg xmlns="http://www.w3.org/2000/svg" width="58" height="63" viewBox="0 0 58 63">
    <g fill="none" fill-rule="evenodd">
        <g>
            <g>
                <g transform="translate(-32.000000, -514.000000) translate(15.000000, 507.000000) translate(17.008440, 7.040646)">
                    <path fill="#00B1EB" d="M54.189 28.802c.161 0 .292.133.292.297 0 1.807 1.444 3.277 3.218 3.277.162 0 .293.134.293.298 0 .165-.131.298-.293.298-1.774 0-3.218 1.47-3.218 3.277 0 .165-.13.298-.292.298-.162 0-.293-.133-.293-.298 0-1.806-1.444-3.277-3.217-3.277-.162 0-.293-.133-.293-.298 0-.164.131-.298.293-.298 1.773 0 3.217-1.47 3.217-3.277 0-.164.131-.297.293-.297zM3.803 18.474c.161 0 .292.133.292.298 0 1.806 1.444 3.277 3.218 3.277.161 0 .292.133.292.298 0 .164-.13.298-.292.298-1.774 0-3.218 1.47-3.218 3.277 0 .164-.13.298-.292.298-.162 0-.293-.134-.293-.298 0-1.807-1.444-3.277-3.217-3.277-.162 0-.293-.134-.293-.298 0-.165.131-.298.293-.298 1.773 0 3.217-1.47 3.217-3.277 0-.165.131-.298.293-.298zM29.044.02c.083-.045.188-.012.233.073.494.93 1.64 1.292 2.554.807.083-.045.187-.012.233.073.045.085.014.19-.07.234-.913.485-1.254 1.638-.76 2.569.046.084.015.189-.068.233-.084.044-.188.011-.233-.073-.494-.93-1.64-1.293-2.554-.807-.084.044-.188.011-.233-.073-.045-.085-.014-.19.07-.234.913-.486 1.254-1.638.76-2.569-.046-.084-.015-.19.068-.233z"/>
                    <g>
                        <g>
                            <path fill="#00B1EB" d="M31.866 44.697c.006.543-.207 1.057-.587 1.453-.376.386-.883.596-1.417.602l-27.655.122c-1.111.005-2.02-.914-2.027-2.04L0 2.175c.003-.165.019-.322.054-.48C.264.798 1.06.122 2.008.12L29.657 0c.164-.001.323.017.476.057.883.21 1.545 1.013 1.553 1.978l.18 42.662z" transform="translate(25.890222, 33.604137) rotate(28.000000) translate(-25.890222, -33.604137) translate(9.957181, 10.166897) translate(0.000000, 0.000000)"/>
                            <path fill="#073B4C" fill-rule="nonzero" d="M29.858-.493L29.652-.5l-27.646.12C.84-.377-.166.446-.434 1.579c-.042.196-.063.385-.066.587l.18 42.671c.01 1.401 1.142 2.543 2.529 2.537l27.655-.122c.674-.007 1.307-.275 1.773-.754.475-.494.736-1.135.73-1.806l-.181-42.659c-.01-1.182-.816-2.196-1.937-2.462-.124-.033-.255-.054-.39-.064zM2.01.62L29.66.5c.124-.001.24.013.348.041.683.163 1.173.778 1.179 1.498l.18 42.66c.004.41-.154.799-.448 1.104-.277.285-.655.445-1.061.45l-27.652.121c-.832.004-1.52-.69-1.525-1.542L.5 2.172c.002-.128.016-.25.042-.372.16-.68.77-1.178 1.467-1.18z" transform="translate(25.890222, 33.604137) rotate(28.000000) translate(-25.890222, -33.604137) translate(9.957181, 10.166897) translate(0.000000, 0.000000)"/>
                        </g>
                        <g>
                            <path fill="#073B4C" d="M2.182 3.092c-.003-.037-.005-.075-.004-.11V.664h-.646c-.503 0-.872.355-.872.77L.657 3.478c.322-.245.741-.392 1.195-.39l.33.004zm2.347.18c.102-.079.142-.174.14-.288L4.676.667 2.831.665l-.004 2.318c.001.114.045.204.144.29.101.08.266.151.506.15h.543c.24 0 .41-.065.509-.15zM2.167 9.266l.005-2.317c-.002-.037 0-.071.007-.109l-.333.001C1.392 6.84.977 6.692.654 6.45L.647 8.493c0 .416.366.77.867.77l.653.003zM6.732 3.49l.003-2.046c0-.415-.365-.77-.865-.776L5.327.67l-.005 2.317c-.002.035-.001.077-.007.109l.226.004c.452-.005.87.149 1.191.391zm-1.2 2.696c.724.001 1.199-.46 1.2-.993l-.004-.441c.001-.534-.471-.992-1.187-.995h-.566l-.035.033c-.24.19-.56.294-.922.296h-.543c-.36-.002-.678-.105-.916-.3-.01-.012-.02-.024-.034-.031l-.675-.003c-.717-.003-1.191.457-1.192.991l-.002.438c0 .534.47.996 1.193.997h.67l.036-.032c.239-.191.558-.295.921-.296h.543c.36.002.678.104.915.299.011.012.022.024.036.032l.563.005zm-.87 3.084l.006-2.317c-.002-.114-.045-.204-.144-.29-.101-.081-.267-.15-.507-.15h-.543c-.24 0-.41.065-.509.15-.101.08-.142.175-.145.286v2.32l1.843.001zm1.196.002c.502 0 .865-.352.867-.771l.003-2.047c-.322.245-.741.393-1.195.39h-.22c.002.037.004.074.003.109v2.32h.542zm1.52-.77c-.004.805-.705 1.434-1.522 1.433l-4.343-.008C.696 9.927-.004 9.3 0 8.494c.002-2.355.005-4.71.011-7.06C.011.624.71.001 1.534 0L5.87.01c.817 0 1.517.63 1.517 1.436-.007 2.352-.01 4.706-.01 7.056z" transform="translate(25.890222, 33.604137) rotate(28.000000) translate(-25.890222, -33.604137) translate(9.957181, 10.166897) translate(4.737000, 4.374706)"/>
                            <path fill="#7ADEFF" d="M6.725 8.5c-.002.42-.365.772-.867.772h-.543V6.953c.002-.035 0-.072-.003-.11l.22.002c.455.002.874-.146 1.196-.39L6.725 8.5z" transform="translate(25.890222, 33.604137) rotate(28.000000) translate(-25.890222, -33.604137) translate(9.957181, 10.166897) translate(4.737000, 4.374706)"/>
                            <path fill="#FFF" d="M4.668 6.953L4.663 9.27 2.819 9.27l.001-2.32c.003-.112.044-.206.145-.286.1-.086.27-.15.509-.15h.543c.24-.001.406.069.507.15.099.086.142.176.144.29" transform="translate(25.890222, 33.604137) rotate(28.000000) translate(-25.890222, -33.604137) translate(9.957181, 10.166897) translate(4.737000, 4.374706)"/>
                            <path fill="#7ADEFF" d="M6.732 5.192c-.001.534-.476.995-1.2.994L4.97 6.18c-.013-.008-.024-.02-.034-.032-.238-.194-.555-.297-.916-.3l-.543.001c-.363.001-.682.105-.92.296-.013.01-.025.022-.037.033l-.67-.001C1.124 6.177.654 5.715.655 5.182l.002-.439c0-.534.475-.994 1.191-.991l.676.003c.013.007.024.02.034.032.238.194.555.297.916.3h.543c.363-.003.682-.107.921-.297l.036-.033h.566c.716.003 1.188.461 1.187.994l.004.441zM6.735 1.444L6.732 3.49c-.322-.242-.74-.396-1.191-.392l-.226-.003c.006-.032.006-.074.007-.109L5.327.67h.543c.5.004.865.36.865.775M2.172 6.95l-.005 2.317-.653-.003c-.501 0-.866-.355-.866-.771L.654 6.45c.323.242.739.389 1.192.392l.334-.001c-.01.036-.01.071-.008.108" transform="translate(25.890222, 33.604137) rotate(28.000000) translate(-25.890222, -33.604137) translate(9.957181, 10.166897) translate(4.737000, 4.374706)"/>
                            <path fill="#FFF" d="M4.67 2.984c.001.114-.04.21-.14.288-.1.086-.27.15-.51.151h-.543c-.24.001-.405-.07-.506-.15-.1-.086-.143-.176-.145-.29L2.832.665l1.843.002-.005 2.317z" transform="translate(25.890222, 33.604137) rotate(28.000000) translate(-25.890222, -33.604137) translate(9.957181, 10.166897) translate(4.737000, 4.374706)"/>
                            <path fill="#7ADEFF" d="M2.178 2.983c-.001.034.001.072.004.109l-.33-.004c-.454-.002-.873.145-1.195.39L.66 1.433c0-.415.37-.77.871-.77h.648v2.32z" transform="translate(25.890222, 33.604137) rotate(28.000000) translate(-25.890222, -33.604137) translate(9.957181, 10.166897) translate(4.737000, 4.374706)"/>
                        </g>
                    </g>
                    <rect width="26" height="6" x="5.311" y="44.796" fill="#E9F4FC" rx="3" transform="translate(18.310574, 47.795864) rotate(27.000000) translate(-18.310574, -47.795864)"/>
                </g>
            </g>
        </g>
    </g>
</svg>
