<svg xmlns="http://www.w3.org/2000/svg" width="20" height="21" viewBox="0 0 20 21">
    <g fill="currentColor" fill-rule="evenodd">
        <g fill="#48464D">
            <g>
                <path d="M11.973.195l.055.012c.075.015.15.031.224.049l.086.02c.072.017.145.036.217.055l.08.021.218.062.08.025c.192.059.381.123.568.193l.061.024c.071.027.141.054.21.083l.117.048.127.055.136.06.12.057c.187.089.371.183.552.283l.08.045.12.069.16.095.099.061.133.085.104.068.15.101c.156.108.31.22.46.337l.085.068.061.049c.053.043.105.085.156.129l.113.096.128.113.076.069c.214.196.42.401.616.615l-.187-.198c.083.086.165.173.245.262l.118.133c.037.042.074.085.11.129.03.035.06.07.088.106l.09.11.057.074c.12.154.236.311.348.472l.099.147.068.103.087.137.06.1c.03.046.057.093.085.14.027.046.054.092.08.14l.031.055c.096.171.186.346.272.523l.081.174.061.135.055.127.045.107c.113.277.215.56.303.85.008.025.017.052.024.079.02.064.038.129.056.194l.023.084.059.231.017.073c.019.08.036.161.053.243l.012.055.011.06c.03.156.058.314.08.473.009.057.017.114.024.172.009.068.017.137.024.207.005.043.01.087.013.131l.017.201.004.064c.006.09.01.18.014.27l.002.055-.002-.055c.005.131.008.263.008.395 0 .107-.002.213-.005.319L20 10c0 .117-.002.233-.006.348-.003.094-.008.187-.014.28 0 .023-.002.044-.004.066-.005.079-.012.157-.019.236l-.01.105-.023.205-.015.112c-.041.305-.097.605-.165.9l-.019.082c-.018.074-.036.147-.056.22l-.021.082-.062.217-.023.075c-.088.287-.189.569-.302.845l-.045.11-.056.129c-.02.047-.042.093-.063.14l-.037.08c-.07.15-.145.3-.223.447-.036.067-.072.133-.11.199l.11-.2c-.058.11-.118.217-.18.324l-.108.182-.048.078-.098.154-.064.098-.105.156c-.102.146-.207.29-.316.431l-.089.114-.049.061c-.043.053-.085.105-.129.156l-.093.11-.124.14-.057.063c-.2.218-.41.428-.628.628l.207-.195c-.083.08-.168.16-.254.238l-.157.139-.098.084-.12.1-.112.09-.057.045c-.158.124-.32.244-.486.358-.05.035-.101.07-.153.103l-.103.068-.126.08-.098.061-.168.1-.12.07-.074.04c-.177.099-.358.192-.541.28l-.133.06-.14.064-.127.055-.116.048c-.07.029-.14.056-.21.083l-.062.024c-.187.07-.376.134-.568.193-.026.008-.053.017-.08.024-.072.022-.145.043-.217.063l-.081.021c-.072.02-.145.038-.217.055l-.087.02c-.074.018-.148.034-.223.05l-.055.01-.06.012c-.182.036-.366.066-.551.092l-.123.016-.193.022-.116.011-.201.017-.1.006c-.078.005-.156.01-.234.012l-.077.003c-.105.003-.211.005-.318.005-.107 0-.213-.002-.319-.005L10 20c-.132 0-.264-.003-.395-.008-.078-.003-.156-.007-.233-.012l-.101-.006c-.067-.005-.134-.01-.2-.017l-.117-.011-.194-.022-.121-.016c-.186-.026-.37-.056-.552-.092l-.06-.011-.054-.011c-.076-.016-.15-.032-.225-.05l-.086-.02c-.072-.017-.145-.036-.217-.055l-.08-.021-.218-.062-.08-.025c-.192-.059-.381-.123-.568-.193l-.061-.024c-.071-.027-.141-.054-.21-.083l-.117-.048-.127-.055c-.047-.02-.094-.042-.14-.063l-.133-.062c-.183-.087-.364-.18-.541-.279l-.074-.041-.12-.069-.168-.1-.098-.06-.126-.08-.104-.069-.152-.103c-.166-.114-.328-.234-.486-.358l-.057-.045-.112-.09-.12-.1-.098-.084-.157-.14-.047-.042c-.218-.2-.428-.41-.628-.628l.2.211c-.088-.09-.173-.18-.257-.274l-.123-.14-.094-.11c-.044-.051-.086-.103-.129-.156l-.049-.06-.09-.115c-.108-.14-.213-.285-.315-.431l-.105-.156-.064-.098-.098-.154-.048-.078-.108-.182-.07-.124c-.038-.066-.074-.132-.11-.2l.11.2c-.119-.21-.23-.426-.333-.646l-.037-.08-.063-.14-.055-.13-.046-.11c-.113-.275-.214-.557-.302-.844l-.022-.075c-.022-.072-.043-.145-.063-.217l-.021-.081c-.02-.074-.038-.147-.056-.221l-.02-.083c-.067-.294-.123-.594-.164-.898l-.015-.114-.023-.204-.01-.105-.02-.236c0-.022-.002-.043-.003-.065-.006-.094-.01-.187-.014-.28v-.029C.001 10.214 0 10.107 0 10c0-.114.002-.227.006-.34l.002-.055-.002.054c.003-.108.009-.216.016-.324l.004-.064c.005-.067.01-.134.017-.2l.013-.133.024-.207.023-.17c.023-.16.05-.318.08-.474l.012-.06.011-.054c.018-.083.035-.164.054-.245l.017-.072.059-.23.023-.086.055-.193.025-.08c.088-.288.19-.572.303-.849l.045-.107.055-.127.06-.136.082-.173c.086-.177.176-.352.272-.523l.031-.056.08-.14.084-.14.061-.099.087-.137.068-.104.1-.146c.11-.16.226-.318.347-.472l.057-.073.09-.111.088-.106.11-.13.118-.132.058-.064c.196-.214.402-.419.616-.615l-.207.195c.092-.09.187-.178.283-.264l.128-.113.113-.096c.051-.044.103-.086.156-.129l.06-.049.087-.068c.15-.116.303-.229.46-.337l.15-.101.103-.068.133-.085.1-.06c.052-.033.105-.065.159-.096l.12-.07.08-.044c.18-.1.365-.194.552-.283l.12-.056.136-.061.127-.055.116-.048c.07-.029.14-.056.21-.083L6.5.632c.187-.07.376-.134.568-.193.026-.008.053-.017.08-.024.072-.022.145-.043.217-.063l.081-.021c.072-.02.145-.038.217-.055l.087-.02c.074-.018.148-.034.223-.05l.055-.01.06-.012c.182-.036.366-.066.551-.092l.123-.016.193-.022.116-.011.201-.017.1-.006c.078-.005.156-.01.234-.012L9.68.005C9.786.002 9.893 0 10 0c.107 0 .214.002.32.005L10 0c.132 0 .264.003.395.008.078.003.156.007.233.012l.101.006c.067.005.134.01.2.017l.117.011.194.022.121.016c.186.026.37.056.552.092l.06.011zm4.302 5.055L5.25 16.275l.157.116c1.272.918 2.792 1.44 4.393 1.48l.2.002c4.341 0 7.873-3.532 7.873-7.873 0-1.674-.526-3.268-1.482-4.593l-.116-.157zM10 2.127c-4.341 0-7.873 3.532-7.873 7.873 0 1.683.532 3.286 1.498 4.615l.119.16 11.03-11.031c-1.308-1.002-2.896-1.572-4.572-1.615L10 2.127z" transform="translate(-19 -365) translate(19 365.5)"/>
            </g>
        </g>
    </g>
</svg>
