<svg xmlns="http://www.w3.org/2000/svg" width="16" height="16" viewBox="0 0 16 16">
    <g fill="none" fill-rule="evenodd">
        <g fill="currentColor">
            <g>
                <path d="M8 0c4.418 0 8 3.582 8 8s-3.582 8-8 8-8-3.582-8-8 3.582-8 8-8zm0 1.2C4.245 1.2 1.2 4.245 1.2 8c0 3.756 3.045 6.8 6.8 6.8s6.8-3.044 6.8-6.8c0-3.755-3.045-6.8-6.8-6.8zm2.324 4.469c.2.2.217.513.05.732l-.05.057L8.79 7.993l1.532 1.533c.218.218.218.571 0 .79-.2.199-.513.216-.732.05l-.057-.05L8 8.781l-1.535 1.535c-.218.218-.571.218-.79 0-.199-.2-.216-.513-.05-.732l.05-.057L7.21 7.992 5.678 6.46c-.218-.218-.218-.571 0-.79.2-.2.513-.216.732-.05l.057.05L8 7.204l1.535-1.534c.218-.218.571-.218.79 0z" transform="translate(-133 -92) translate(133 92)"/>
            </g>
        </g>
    </g>
</svg>
