<svg xmlns="http://www.w3.org/2000/svg" width="30" height="30" viewBox="0 0 30 30">
    <g fill="none" fill-rule="evenodd">
        <g fill="#FFF">
            <g>
                <path d="M22.983 2.79c2.531 0 4.752 2.066 4.752 4.42v14.552h-9.27c-5.895 0-10.69-4.775-10.69-10.643h1.738c0 4.913 4.016 8.911 8.952 8.911h7.53V7.21c0-1.407-1.436-2.688-3.012-2.688H3.833v6.597c0 8.032 6.563 14.566 14.632 14.566v1.731c-8.962 0-16.26-7.205-16.367-16.101h-.005V2.79zm-7.8 8.329c0 1.801 1.472 3.267 3.282 3.267v1.73c-2.769 0-5.021-2.241-5.021-4.997z" transform="translate(-287.000000, -192.000000) translate(287.000000, 192.000000)"/>
            </g>
        </g>
    </g>
</svg>
