<svg xmlns="http://www.w3.org/2000/svg" width="24" height="24" viewBox="0 0 24 24">
    <g fill="none" fill-rule="evenodd">
        <g fill="#073B4C">
            <g>
                <g>
                    <path d="M12 21.14c.388 0 .703.315.703.704v1.453c0 .388-.315.703-.703.703-.388 0-.703-.315-.703-.703v-1.453c0-.389.315-.703.703-.703zm6.463-2.677c.275-.274.72-.274.995 0l.994.995c.275.274.275.72 0 .994-.274.275-.72.275-.994 0l-.995-.994c-.274-.275-.274-.72 0-.995zm-13.92 0c.274-.274.719-.274.994 0 .274.275.274.72 0 .995l-.995.994c-.274.275-.72.275-.994 0-.275-.274-.275-.72 0-.994zM12 4.266c4.256 0 7.734 3.462 7.734 7.734 0 4.251-3.457 7.734-7.734 7.734-4.265 0-7.734-3.47-7.734-7.734 0-4.265 3.47-7.734 7.734-7.734zm3.973 12.655h-3.27v1.368c1.23-.137 2.355-.627 3.27-1.368zm-4.676-11.21C8.137 6.062 5.672 8.748 5.672 12s2.465 5.938 5.625 6.289zm6.67 8.398h-5.264v1.407h4.556c.291-.434.53-.906.707-1.407zm-15.81-2.812c.388 0 .702.315.702.703 0 .388-.314.703-.703.703H.703C.315 12.703 0 12.388 0 12c0-.388.315-.703.703-.703zm21.14 0c.388 0 .703.315.703.703 0 .388-.315.703-.703.703h-1.453c-.389 0-.703-.315-.703-.703 0-.388.314-.703.703-.703zm-5.008 0h-5.586v1.406h5.586c.025-.23.04-.465.04-.703 0-.238-.015-.472-.04-.703zm-1.03-2.813h-4.556v1.407h5.263c-.177-.5-.416-.973-.707-1.407zm-4.556-2.773v1.367h3.27c-.915-.74-2.04-1.23-3.27-1.367zM3.548 3.548c.274-.275.72-.275.994 0l.995.994c.274.275.274.72 0 .995-.275.274-.72.274-.995 0l-.994-.995c-.275-.274-.275-.72 0-.994zm15.91 0c.274-.275.72-.275.994 0 .275.274.275.72 0 .994l-.994.995c-.275.274-.72.274-.995 0-.274-.275-.274-.72 0-.995zM12 0c.388 0 .703.315.703.703v1.453c0 .389-.315.703-.703.703-.388 0-.703-.314-.703-.703V.703c0-.388.315-.703.703-.703z" transform="translate(-22 -287) translate(22 279) translate(0 8)"/>
                </g>
            </g>
        </g>
    </g>
</svg>
