<svg xmlns="http://www.w3.org/2000/svg" width="24" height="24" viewBox="0 0 24 24">
    <g fill="none" fill-rule="evenodd">
        <g fill="#073B4C">
            <g>
                <g>
                    <path d="M17.818 0c1.091 0 2.005.815 2.16 1.893l.017.156.005.155v19.592c0 1.102-.807 2.026-1.874 2.181l-.154.017-.154.006H6.182c-1.091 0-2.005-.815-2.16-1.893l-.017-.156L4 21.796V2.204C4 1.102 4.807.178 5.874.023l.154-.017L6.182 0h11.636zm.727 20.08H5.455v1.716c0 .339.23.63.535.71l.093.018.099.007h11.636c.336 0 .623-.233.704-.54l.017-.095.006-.1V20.08zm-5.09.491c.401 0 .727.33.727.735 0 .321-.205.599-.513.7l-.106.026-.108.009h-2.91c-.401 0-.727-.329-.727-.735 0-.321.205-.599.513-.699l.106-.027.108-.009h2.91zM17.818 1.47H6.182c-.336 0-.623.233-.704.54l-.017.095-.006.1v7.307l1.952-.657c.265-.089.55-.017.751.19l.071.083.058.095 1.657 3.348 2.308-.776c.18-.063.376-.05.555.04l.106.063.086.073 1.94 1.96c.284.286.284.751 0 1.038-.139.14-.323.216-.515.216-.106 0-.211-.024-.315-.075l-.105-.061-.094-.08-1.622-1.638-2.481.836c-.263.09-.551.018-.753-.188l-.07-.084-.059-.096-1.658-3.349-1.812.61v7.552h13.09V2.204c0-.37-.274-.68-.628-.728l-.099-.007zm-5.333 1.47c.402 0 .727.328.727.735 0 .32-.205.598-.512.699l-.106.026-.11.01h-.969c-.402 0-.727-.33-.727-.735 0-.322.205-.6.512-.7l.106-.026.11-.01h.969zm4.848 0c.402 0 .728.329.728.734 0 .406-.326.735-.728.735-.401 0-.727-.329-.727-.735 0-.405.326-.734.727-.734z" transform="translate(-22 -407) translate(22 399) translate(0 8)"/>
                </g>
            </g>
        </g>
    </g>
</svg>
