<svg width="28" height="28" viewBox="0 0 28 28" xmlns="http://www.w3.org/2000/svg">
    <g fill="none" fill-rule="evenodd">
        <circle fill="#E9F4FC" cx="14" cy="14" r="14"/>
        <g fill="#073B4C" fill-rule="nonzero">
            <path d="M18.2 12.4c-.09 0-.178.009-.267.014V7.6a.533.533 0 0 0 .534-.533v-.534A.533.533 0 0 0 17.933 6h-6.4a.533.533 0 0 0-.533.533v.534c0 .294.239.533.533.533v.533h-4A.533.533 0 0 0 7 8.667v8c0 .294.239.533.533.533H13.4a4.8 4.8 0 1 0 4.8-4.8zm-6.667-5.867h6.4v.534h-6.4v-.534zm-4 2.134h4v8h-4v-8zm4.534 8V7.6H17.4v4.872c-.18.03-.358.07-.533.12V12.4a.533.533 0 0 0-.534-.533h-.8A.533.533 0 0 0 15 12.4v.8c0 .119.041.234.115.327a4.796 4.796 0 0 0-1.684 3.14h-1.364zm3.486-3.467h-.02v-.8h.8v.378a4.798 4.798 0 0 0-.78.422zm2.647 8.267a4.267 4.267 0 1 1 0-8.534 4.267 4.267 0 0 1 0 8.534z"/>
            <path d="M13.933 11.867h-.8a.533.533 0 0 0-.533.533v.8c0 .295.239.533.533.533h.8a.533.533 0 0 0 .534-.533v-.8a.533.533 0 0 0-.534-.533zm-.8 1.333v-.8h.8v.8h-.8zM13.933 9.2h-.8a.533.533 0 0 0-.533.533v.8c0 .295.239.534.533.534h.8a.533.533 0 0 0 .534-.534v-.8a.533.533 0 0 0-.534-.533zm-.8 1.333v-.8h.8v.8h-.8zM15.533 11.067h.8a.533.533 0 0 0 .534-.534v-.8a.533.533 0 0 0-.534-.533h-.8a.533.533 0 0 0-.533.533v.8c0 .295.239.534.533.534zm0-1.334h.8v.8h-.8v-.8zM9.933 11.867h-.8a.533.533 0 0 0-.533.533v.8c0 .295.239.533.533.533h.8a.533.533 0 0 0 .534-.533v-.8a.533.533 0 0 0-.534-.533zm-.8 1.333v-.8h.8v.8h-.8zM9.933 14.267h-.8a.533.533 0 0 0-.533.533v.8c0 .295.239.533.533.533h.8a.533.533 0 0 0 .534-.533v-.8a.533.533 0 0 0-.534-.533zm-.8 1.333v-.8h.8v.8h-.8zM9.933 9.467h-.8A.533.533 0 0 0 8.6 10v.8c0 .295.239.533.533.533h.8a.533.533 0 0 0 .534-.533V10a.533.533 0 0 0-.534-.533zm-.8 1.333V10h.8v.8h-.8zM19 16.133a.267.267 0 1 0 .533 0c0-.633-.446-1.179-1.066-1.306v-.294a.267.267 0 0 0-.534 0v.294a1.333 1.333 0 0 0 0 2.613v1.578a.8.8 0 0 1-.533-.751.267.267 0 1 0-.533 0c0 .633.446 1.179 1.066 1.306v.294a.267.267 0 0 0 .534 0v-.294a1.333 1.333 0 0 0 0-2.613v-1.578a.8.8 0 0 1 .533.751zm-1.6 0a.8.8 0 0 1 .533-.75v1.501a.8.8 0 0 1-.533-.75zm1.6 2.134a.8.8 0 0 1-.533.75v-1.501a.8.8 0 0 1 .533.75z"/>
        </g>
    </g>
</svg>
