<svg width="41" height="14" viewBox="0 0 41 14" xmlns="http://www.w3.org/2000/svg">
    <g fill-rule="nonzero" fill="none">
        <path d="m0 14 38.28-.007c1.504 0 2.72-1.23 2.72-2.75V0H0v14z" fill="#00609C"/>
        <path d="m21.444 7.255-.861-2.651-.84 2.651h1.7zm-.05-3.526 1.947 5.61h-1.225l-.392-1.161h-2.29l-.398 1.161H17.81l1.799-5.18a.654.654 0 0 1 .609-.43h1.176zm5.552 4.189c0 .41-.224.547-.749.547H25V6.934h1.295c.462 0 .651.184.651.567v.417zM25 4.604h1.12c.427 0 .61.143.61.458v.498c0 .328-.169.52-.624.52h-1.113V4.604H25zm2.212 1.81c.47-.184.686-.444.686-.908v-.581c0-.759-.469-1.196-1.638-1.196h-2.429v5.61h2.59c1.12 0 1.687-.498 1.687-1.284v-.602c0-.546-.329-.93-.896-1.038M15.696 4.522c-.728.02-.973.273-.973.847v2.153c0 .574.245.827.973.847v.007h1.044c.315 0 .567.246.567.553v.41h-1.61v-.006c-1.499-.014-2.143-.609-2.143-1.627V5.178c0-1.019.644-1.613 2.142-1.627h1.107c.315 0 .567.246.567.554v.403h-1.674M38 8.403v.936h-3.703V4.276c0-.349.287-.63.644-.63h.518v4.757H38zm-6.013-1.148-.861-2.651-.84 2.651h1.7zm-.042-3.526 1.946 5.61h-1.225l-.392-1.161h-2.29l-.399 1.161H28.36l1.743-5.022a.889.889 0 0 1 .84-.588h1.002zM7.219 2l4.263 4.087a.568.568 0 0 1 0 .826L7.226 11V8.718L9.228 6.79a.398.398 0 0 0 0-.58L7.226 4.276V2h-.007zm-.784 2.276L4.433 6.21a.398.398 0 0 0 0 .58l2.002 1.928V11L2.179 6.913a.568.568 0 0 1 0-.826L6.442 2v2.276h-.007z" fill="#FFF"/>
    </g>
</svg>
