<svg width="16" height="16" viewBox="0 0 16 16" xmlns="http://www.w3.org/2000/svg">
    <path d="M13.333 2.667A2.667 2.667 0 0 1 16 5.333v5.334a2.667 2.667 0 0 1-2.667 2.666H2.667A2.667 2.667 0 0 1 0 10.667V5.333a2.667 2.667 0 0 1 2.667-2.666h10.666zM15 6.833H1v3.834c0 .883.688 1.606 1.557 1.663l.11.003h10.666c.884 0 1.607-.687 1.663-1.557l.004-.11V6.834zm-1.667-3.166H2.667c-.884 0-1.607.687-1.663 1.557L1 5.334v.499h14v-.5c0-.883-.688-1.606-1.557-1.663l-.11-.003z" fill="#073B4C" fill-rule="evenodd"/>
</svg>
