<svg width="131" height="127" viewBox="0 0 131 127" xmlns="http://www.w3.org/2000/svg">
    <g transform="translate(.725 .56)" fill="none" fill-rule="evenodd">
        <g fill-rule="nonzero">
            <path d="m46.649 13.838-8.104 2.171-.016 2.732c-.012 2.136-1.432 3.993-3.47 4.539l-13.847 3.71c-2.039.546-4.196-.352-5.275-2.196l-1.38-2.357-8.104 2.171c-2.1.563-3.359 2.707-2.87 4.835l.037.149 24.113 89.991c.57 2.127 2.698 3.415 4.8 2.935l.146-.036 40.195-10.77c2.1-.563 3.359-2.706 2.87-4.835l-.036-.149-24.113-89.991c-.57-2.127-2.698-3.415-4.8-2.935l-.146.036z" fill="#FFF"/>
            <path d="m5.852 22.595 40.311-10.801c3.232-.866 6.562 1.082 7.438 4.35l24.14 90.094c.876 3.269-1.034 6.62-4.265 7.487l-40.312 10.801c-3.232.866-6.562-1.082-7.438-4.35L1.586 30.082c-.876-3.269 1.034-6.62 4.266-7.487zm40.84-8.828-8.127 2.177-.017 2.735c-.014 2.14-1.438 3.999-3.482 4.546l-13.888 3.721c-2.044.548-4.207-.35-5.288-2.196l-1.383-2.36-8.127 2.178c-2.105.564-3.37 2.711-2.88 4.842l.036.15 24.141 90.093c.57 2.13 2.704 3.418 4.811 2.937l.147-.037 40.312-10.801c2.106-.564 3.37-2.711 2.88-4.842l-.036-.15-24.14-90.093c-.571-2.13-2.705-3.418-4.812-2.937l-.147.037zm11.814 94.806a1.016 1.016 0 0 1 1.24.725 1.017 1.017 0 0 1-.618 1.218l-.093.03-14.954 4.007a1.016 1.016 0 0 1-1.24-.725 1.017 1.017 0 0 1 .618-1.218l.093-.03 14.954-4.007zM36.54 16.487l-20.008 5.361 1.096 1.87a2.7 2.7 0 0 0 2.887 1.288l.135-.032 13.887-3.721a2.695 2.695 0 0 0 1.985-2.458l.005-.14.013-2.168z" fill="#073B4C"/>
            <path d="M36.903 16.45 16.2 21.996l1.13 1.922a2.79 2.79 0 0 0 2.984 1.32l.14-.034 14.37-3.85a2.788 2.788 0 0 0 2.058-2.532l.005-.144.017-2.23z" fill="#FFD166"/>
        </g>
        <path d="M121.574 75.305h-53.08c-1.22 0-2.21.984-2.21 2.197v5.901h57.5v-5.901c0-1.213-.99-2.197-2.21-2.197" fill="#E9F4FC"/>
        <path fill="#FFF" d="M70.962 79.776h24.811V54.142H70.962z"/>
        <path fill="#F4D77D" d="M75.659 78.857h5.044v-25.02H75.66z"/>
        <path d="m122.86 69.818-25.646 37.414a2.079 2.079 0 0 1-2.878.542L75.5 95.013a2.052 2.052 0 0 1-.545-2.862l25.646-37.414a2.079 2.079 0 0 1 2.878-.542l18.835 12.761c.946.64 1.19 1.922.546 2.862" fill="#E9F4FC"/>
        <path d="m99.632 61.49-18.71 27.295c-.267.39-.293.9-.059 1.31a6.008 6.008 0 0 1 .731 3.745c-.06.464.151.921.54 1.185l9.764 6.616c.389.263.895.292 1.307.065a6.105 6.105 0 0 1 3.772-.692c.471.065.938-.144 1.206-.535l18.71-27.295c.267-.39.292-.9.059-1.31a6.01 6.01 0 0 1-.732-3.745 1.24 1.24 0 0 0-.54-1.185l-9.763-6.616a1.256 1.256 0 0 0-1.307-.065 6.105 6.105 0 0 1-3.773.692 1.254 1.254 0 0 0-1.205.535" fill="#FFF"/>
        <path d="M101.773 71.794c3.7 0 6.7 2.983 6.7 6.662s-3 6.662-6.7 6.662-6.7-2.983-6.7-6.662c0-3.68 3-6.662 6.7-6.662" fill="#F4D77D"/>
        <path d="M122.34 116.548H66.93a3.177 3.177 0 0 1-3.188-3.168V82.025a3.178 3.178 0 0 1 3.187-3.168h55.41a3.177 3.177 0 0 1 3.187 3.168v31.355a3.177 3.177 0 0 1-3.187 3.168" fill="#FFF"/>
        <path d="M122.34 78.857H66.93a3.177 3.177 0 0 0-3.188 3.168v3.472h61.784v-3.472a3.177 3.177 0 0 0-3.187-3.168M66.93 116.548h55.41a3.177 3.177 0 0 0 3.186-3.168v-3.472H63.742v3.472a3.178 3.178 0 0 0 3.187 3.168" fill="#E9F4FC"/>
        <path d="M127.423 91.646h-11.619c-3.364 0-6.091 2.711-6.091 6.056s2.727 6.057 6.091 6.057h11.619c.638 0 1.154-.514 1.154-1.148v-9.817c0-.634-.516-1.148-1.154-1.148" fill="#FFD166"/>
        <path d="M116.021 94.89a2.82 2.82 0 0 1 2.829 2.813 2.82 2.82 0 0 1-2.829 2.812 2.82 2.82 0 0 1-2.828-2.812 2.82 2.82 0 0 1 2.828-2.812" fill="#E9F4FC"/>
        <path d="M76.193 102.285c-.396-.21-.849-.33-1.33-.33H58.258a2.83 2.83 0 0 0-2.837 2.821 2.83 2.83 0 0 0 2.837 2.821H71.18a11.638 11.638 0 0 1 5.014-5.312M70.19 113.773H58.835a2.83 2.83 0 0 0-2.837 2.821 2.83 2.83 0 0 0 2.837 2.821h13.65a11.433 11.433 0 0 1-2.297-5.642M70.108 112.43c0-1.632.345-3.184.962-4.592H60.899a2.83 2.83 0 0 0-2.838 2.82 2.83 2.83 0 0 0 2.838 2.822h9.26a11.52 11.52 0 0 1-.051-1.05" fill="#F4D77D"/>
        <path d="M81.71 100.515c-6.609 0-11.985 5.345-11.985 11.915 0 6.57 5.376 11.915 11.985 11.915 6.608 0 11.984-5.345 11.984-11.915 0-6.57-5.376-11.915-11.984-11.915" fill="#F4D77D"/>
        <path d="M93.213 53.12c2.075 0 3.764 1.652 3.764 3.683v1.99l3.047-4.447a2.754 2.754 0 0 1 1.774-1.154 2.756 2.756 0 0 1 2.074.43l18.835 12.761a2.733 2.733 0 0 1 1.16 1.763 2.72 2.72 0 0 1-.431 2.062l-3.019 4.404h1.157a2.902 2.902 0 0 1 2.907 2.89v1.302l.096.068a3.866 3.866 0 0 1 1.647 3.153v8.927h1.199c.494 0 .959.192 1.31.54.35.349.542.81.542 1.302v9.817c0 1.015-.83 1.841-1.852 1.841h-1.2v8.927c0 2.13-1.742 3.862-3.884 3.862H93.867l-.058.14a13.059 13.059 0 0 1-12.1 8.059 13.178 13.178 0 0 1-10.52-5.283l-.068-.092H58.678c-1.938 0-3.514-1.567-3.514-3.494a3.516 3.516 0 0 1 2.772-3.414l.354-.076-.222-.284a3.442 3.442 0 0 1-.741-2.139c0-.76.247-1.487.713-2.1l.272-.357-.45-.006c-1.912-.026-3.467-1.592-3.467-3.492 0-1.926 1.576-3.494 3.514-3.494h5.136V82.025c0-1.502.89-2.88 2.266-3.51l.132-.06v-.953a2.902 2.902 0 0 1 2.907-2.89h1.592V56.803c0-2.03 1.689-3.683 3.765-3.683h19.506zM81.71 100.669a11.82 11.82 0 0 0-6.044 1.656 11.867 11.867 0 0 0-4.331 4.46l-.072.135-.037.07-.125.243a11.38 11.38 0 0 0-.218.466l-.02.044a11.384 11.384 0 0 0-.263.646 11.63 11.63 0 0 0-.72 4.04c0 .134.005.266.01.398l.001.031c.005.128.012.255.02.382l.002.024a11.594 11.594 0 0 0 2.177 5.999l.038.051c.085.117.173.233.262.347l.047.06c.092.114.185.227.28.338l.027.031a11.902 11.902 0 0 0 8.965 4.1c4.49 0 8.667-2.6 10.64-6.623.049-.1.095-.2.14-.302l.08-.174c.053-.124.104-.25.153-.375l.037-.094c.054-.14.106-.283.154-.426l.014-.04a11.674 11.674 0 0 0 .612-3.726 11.774 11.774 0 0 0-.184-2.051l-.02-.114c-.022-.119-.047-.238-.072-.357l-.047-.199a11.247 11.247 0 0 0-.172-.639l-.015-.054-.028-.095c-1.555-4.936-6.092-8.252-11.291-8.252zm.191 5.074c.45 0 .815.364.815.81v1.103h1.508c.45 0 .815.364.815.81 0 .447-.365.81-.815.81H80.82c-.65 0-1.178.526-1.178 1.172 0 .646.529 1.172 1.178 1.172H82.6a2.804 2.804 0 0 1 2.809 2.791c0 1.421-1.07 2.614-2.49 2.775l-.202.022v1.098c0 .447-.365.81-.815.81a.814.814 0 0 1-.815-.81v-1.102h-1.89a.814.814 0 0 1-.816-.81c0-.448.366-.811.815-.811H82.6c.65 0 1.178-.526 1.178-1.172 0-.645-.528-1.17-1.178-1.17H80.82a2.803 2.803 0 0 1-2.808-2.793c0-1.54 1.26-2.792 2.808-2.792h.266v-1.102c0-.447.366-.811.815-.811zm-13.163 8.41h-10.06a2.428 2.428 0 0 0-2.432 2.418 2.428 2.428 0 0 0 2.432 2.418h11.728l-.185-.335a12.832 12.832 0 0 1-1.454-4.308l-.03-.193zm53.601-34.603H66.93a2.485 2.485 0 0 0-2.49 2.475v2.779h10.576c.384 0 .697.31.697.693a.696.696 0 0 1-.697.693H64.44v15.02h10.659l.053-.032a13.115 13.115 0 0 1 6.558-1.758c5.901 0 11.097 3.958 12.634 9.627l.046.167h7.746c.385 0 .698.311.698.694a.696.696 0 0 1-.698.693h-7.47l.03.253c.067.55.1 1.065.1 1.576 0 1.057-.131 2.115-.389 3.143l-.07.282h28.002c1.373 0 2.49-1.11 2.49-2.476v-2.778h-14.964a.696.696 0 0 1-.697-.693c0-.383.312-.694.697-.694h14.964v-4.762h-9.024c-3.744 0-6.79-3.028-6.79-6.75 0-.676.101-1.343.3-1.985l.01-.03c.086-.277.2-.566.334-.85l.027-.058.012-.022a6.842 6.842 0 0 1 6.107-3.805h9.024V86.19H82.794a.696.696 0 0 1-.697-.693c0-.382.313-.693.697-.693h42.035v-2.78a2.485 2.485 0 0 0-2.49-2.474zm-53.022 28.69h-8.475a2.428 2.428 0 0 0-2.433 2.418 2.428 2.428 0 0 0 2.433 2.419h7.8l-.011-.327c-.004-.107-.007-.213-.007-.32 0-1.327.201-2.637.6-3.895l.093-.294zm4.192-5.955h-15.6a2.428 2.428 0 0 0-2.432 2.418 2.428 2.428 0 0 0 2.432 2.418h11.857l.06-.131c.769-1.65 1.856-3.1 3.232-4.309l.45-.396zm53.914-9.946h-11.618a5.403 5.403 0 0 0-5.067 3.52 5.306 5.306 0 0 0-.328 1.843 5.296 5.296 0 0 0 .652 2.555 5.403 5.403 0 0 0 4.743 2.808h11.618a.457.457 0 0 0 .458-.454v-9.817a.457.457 0 0 0-.458-.455zm-11.401 1.858c1.944 0 3.525 1.572 3.525 3.505 0 1.933-1.581 3.506-3.525 3.506-1.945 0-3.526-1.573-3.526-3.506 0-1.933 1.581-3.505 3.526-3.505zm0 1.387c-1.176 0-2.132.95-2.132 2.118 0 1.169.956 2.119 2.132 2.119 1.175 0 2.13-.95 2.13-2.119a2.127 2.127 0 0 0-2.13-2.118zm5.552-19.586h-2.107l-1.484 2.166h4.356c.158 0 .323.01.49.031l.257.033v-.726a1.51 1.51 0 0 0-1.512-1.504zM102.315 54.53a1.367 1.367 0 0 0-1.138.597l-15.79 23.036h1.972L99.056 61.1a1.984 1.984 0 0 1 1.878-.83 5.422 5.422 0 0 0 3.338-.613 1.948 1.948 0 0 1 2.037.1l9.765 6.615c.612.415.933 1.123.838 1.848a5.34 5.34 0 0 0 .647 3.313c.366.645.331 1.427-.09 2.043l-3.146 4.588h1.972l5.989-8.736a1.363 1.363 0 0 0-.362-1.898l-18.836-12.761a1.373 1.373 0 0 0-.771-.238zm2.891 6.274a.54.54 0 0 0-.26.066 6.83 6.83 0 0 1-4.205.772.557.557 0 0 0-.533.239L89.047 78.162h5.333l.015-.211c.262-3.842 3.503-6.851 7.378-6.851s7.116 3.01 7.379 6.851l.014.211h3.47l3.68-5.37a.552.552 0 0 0 .028-.58 6.73 6.73 0 0 1-.815-4.174.552.552 0 0 0-.24-.522l-9.765-6.616a.564.564 0 0 0-.318-.097zM74.984 54.46h-1.277c-1.332 0-2.416 1.05-2.416 2.342v21.36h3.693V54.461zm5.045 0h-3.696v23.702h3.696V54.461zm13.184 0H81.378v23.702h2.321L95.63 60.76v-3.957c0-1.291-1.084-2.342-2.416-2.342zm8.56 18.027c-3.076 0-5.702 2.384-5.978 5.428l-.022.247h12l-.023-.247c-.275-3.044-2.901-5.428-5.977-5.428zm-31.831 3.51H68.35a1.51 1.51 0 0 0-1.512 1.504v.661h3.104v-2.165z" stroke="#073B4C" stroke-width=".8" fill="#073B4C"/>
        <g fill-rule="nonzero">
            <path d="m47.085 39.188-27.543 7.898a3.674 3.674 0 0 0-2.56 4.39l.041.154 7.898 27.543a3.674 3.674 0 0 0 4.39 2.56l.154-.041 27.543-7.898a3.674 3.674 0 0 0 2.56-4.39l-.041-.154-7.898-27.543a3.674 3.674 0 0 0-4.39-2.56l-.154.041z" fill="#E9F4FC"/>
            <path d="m21.55 50.835 8.669-2.486c.24-.068.495.091.571.357l2.757 9.612c.076.266-.057.537-.296.605l-8.67 2.486c-.24.069-.495-.09-.571-.356l-2.757-9.613c-.076-.265.057-.536.296-.605zm4.754 16.582 8.67-2.486c.24-.068.495.091.571.356l2.756 9.613c.076.266-.056.536-.295.605l-8.67 2.486c-.24.069-.495-.09-.571-.356l-2.757-9.613c-.076-.265.056-.536.296-.605zm13.585-20.84 8.67-2.486a.447.447 0 0 1 .555.301l2.444 8.52a.447.447 0 0 1-.312.55l-8.67 2.487a.447.447 0 0 1-.555-.302l-2.443-8.52a.447.447 0 0 1 .311-.55zm4.958 16.563 8.739-2.505c.241-.07.493.07.562.311l2.506 8.739a.455.455 0 0 1-.312.562l-8.739 2.506a.455.455 0 0 1-.562-.312l-2.506-8.738a.455.455 0 0 1 .312-.563z" fill="#FFD166"/>
            <path d="M29.234 48.591c1.34-.384 2.731.37 3.108 1.685l1.95 6.799c.377 1.314-.404 2.69-1.743 3.075l-6.93 1.987c-1.34.384-2.731-.37-3.108-1.684l-1.95-6.8c-.377-1.313.404-2.69 1.743-3.074zm.92 1.293-7.997 2.293a.412.412 0 0 0-.287.507l2.25 7.845c.061.217.29.341.512.278l7.996-2.293c.22-.063.35-.29.287-.507l-2.25-7.845a.412.412 0 0 0-.512-.278zm-2.175 3.482c.382-.11.78.106.888.482l.584 2.04a.714.714 0 0 1-.498.878l-2.079.596a.714.714 0 0 1-.888-.481l-.584-2.04a.714.714 0 0 1 .498-.878l2.079-.597zm-.303 1.559-.694.199.195.68.693-.2-.194-.679zm6.237 9.984c1.34-.384 2.731.37 3.108 1.685l1.95 6.799c.377 1.314-.404 2.69-1.743 3.075l-6.93 1.987c-1.34.384-2.731-.37-3.108-1.684l-1.95-6.8c-.377-1.313.404-2.69 1.743-3.074zm.92 1.294-7.997 2.292a.412.412 0 0 0-.287.507l2.25 7.845c.061.217.29.341.512.278l7.996-2.293c.22-.063.35-.29.287-.507l-2.25-7.845a.412.412 0 0 0-.512-.277zm-2.175 3.481c.382-.11.78.106.888.482l.585 2.04a.714.714 0 0 1-.498.878l-2.08.596a.714.714 0 0 1-.887-.481l-.585-2.04a.714.714 0 0 1 .498-.878l2.079-.597zm-.303 1.559-.693.199.195.68.693-.2-.195-.679zm14.897-27.818c1.34-.384 2.731.37 3.108 1.684l1.95 6.8c.377 1.313-.404 2.69-1.743 3.074l-6.93 1.988c-1.34.384-2.731-.37-3.108-1.685l-1.95-6.799c-.377-1.314.404-2.69 1.743-3.075zm.92 1.293-7.997 2.293a.412.412 0 0 0-.287.507l2.25 7.845c.061.217.29.34.512.277l7.996-2.292c.22-.064.35-.29.287-.507l-2.25-7.845a.412.412 0 0 0-.512-.278zM45.996 48.2c.382-.11.78.106.888.481l.585 2.04a.714.714 0 0 1-.499.878l-2.079.597a.714.714 0 0 1-.888-.482l-.584-2.04a.714.714 0 0 1 .498-.878l2.079-.596zm-.303 1.558-.693.2.195.679.693-.199-.195-.68zm6.237 9.985c1.34-.384 2.732.37 3.108 1.684l1.95 6.8c.377 1.313-.404 2.69-1.743 3.074l-6.93 1.988c-1.34.384-2.731-.37-3.108-1.685l-1.95-6.799c-.377-1.314.404-2.69 1.743-3.075zm.92 1.293-7.997 2.293a.412.412 0 0 0-.287.507l2.25 7.845c.062.217.29.34.512.277l7.996-2.292c.22-.064.35-.29.287-.507l-2.25-7.845a.412.412 0 0 0-.512-.278zm-2.175 3.482c.382-.11.78.106.888.481l.585 2.04a.714.714 0 0 1-.498.878l-2.08.597a.714.714 0 0 1-.887-.482l-.585-2.04a.714.714 0 0 1 .498-.878l2.079-.596zm-.303 1.558-.693.2.195.679.693-.199-.195-.68z" fill="#052C50"/>
            <path d="M33.822 46.092a.757.757 0 0 1 .915.475l.017.054 3.85 13.428 13.158-3.773a.758.758 0 0 1 .932.53.76.76 0 0 1-.457.925l-.053.017-13.158 3.772 3.851 13.429a.758.758 0 0 1-.51.942.757.757 0 0 1-.914-.474l-.018-.055-3.85-13.428-9.192 2.636a.758.758 0 0 1-.932-.53.76.76 0 0 1 .457-.924l.053-.018 9.191-2.636-3.85-13.427a.758.758 0 0 1 .51-.943zm-9.034 19.512a.758.758 0 0 0 .51-.943.758.758 0 0 0-.932-.529.758.758 0 0 0-.51.943.758.758 0 0 0 .932.529z" fill="#052C50"/>
            <path d="m46.812 38.231-.178.046-27.166 7.79a4.883 4.883 0 0 0-3.402 5.836l.047.178 7.79 27.166a4.883 4.883 0 0 0 5.835 3.402l.178-.046 27.166-7.79a4.883 4.883 0 0 0 3.402-5.836l-.046-.178-7.79-27.166a4.883 4.883 0 0 0-5.836-3.402zm.144 1.268.152-.04a3.62 3.62 0 0 1 4.295 2.423l.03.1 7.783 27.14.04.151a3.62 3.62 0 0 1-2.423 4.295l-.1.03-27.14 7.783-.15.04a3.62 3.62 0 0 1-4.296-2.423l-.03-.1-7.783-27.14-.04-.151a3.62 3.62 0 0 1 2.423-4.295l.1-.03 27.14-7.783z" fill="#052C50"/>
        </g>
        <path d="M96.96 43.633 93.272 48a.431.431 0 0 1-.71-.075l-2.7-5.04a.436.436 0 0 1 .427-.641l1.926.202.008-.107c.624-8.315-5.4-15.866-13.68-16.736-5.172-.544-10.015 1.565-13.196 5.236a1.261 1.261 0 0 1-2.03-.148l-.013-.02a1.28 1.28 0 0 1 .112-1.514c3.71-4.286 9.361-6.748 15.396-6.114 9.719 1.022 16.775 9.9 15.944 19.67l1.92.202c.346.037.51.449.284.717z" fill="#073B4C" fill-rule="nonzero"/>
        <path d="M115.687 36.332a.492.492 0 0 0-.984 0 5.422 5.422 0 0 1-5.416 5.416.492.492 0 0 0 0 .984 5.422 5.422 0 0 1 5.416 5.416.492.492 0 0 0 .984 0 5.422 5.422 0 0 1 5.416-5.416.492.492 0 0 0 0-.984 5.422 5.422 0 0 1-5.416-5.416zM65.078.763a.763.763 0 0 0-1.526 0c0 4.627-3.767 8.394-8.394 8.394a.763.763 0 0 0 0 1.526c4.627 0 8.394 3.767 8.394 8.394a.763.763 0 0 0 1.526 0c0-4.627 3.767-8.394 8.394-8.394a.763.763 0 0 0 0-1.526c-4.627 0-8.394-3.767-8.394-8.394z" fill="#72EFD3"/>
        <path d="M108.795 7.082c1.049 0 1.999.425 2.686 1.112a3.786 3.786 0 0 1 1.112 2.685 3.79 3.79 0 0 1-1.113 2.686 3.79 3.79 0 0 1-2.685 1.113 3.786 3.786 0 0 1-2.686-1.112 3.787 3.787 0 0 1-1.112-2.686c0-1.049.425-1.999 1.112-2.686a3.787 3.787 0 0 1 2.686-1.112z" stroke="#72EFD3" stroke-width="2.643"/>
        <circle fill="#72EFD3" cx="25.595" cy="5.76" r="1.92"/>
    </g>
</svg>
