<svg xmlns="http://www.w3.org/2000/svg" width="37" height="37" viewBox="0 0 37 37">
    <g fill="none" fill-rule="evenodd">
        <g fill="currentColor">
            <g>
                <path d="M18.5 0C28.717 0 37 8.283 37 18.5S28.717 37 18.5 37 0 28.717 0 18.5 8.283 0 18.5 0zm6.792 13.355c-.539-.528-1.406-.525-1.937.01l-6.11 6.143-2.501-2.453c-.54-.528-1.405-.522-1.938.013-.531.535-.526 1.395.013 1.923l3.475 3.41c.27.265.62.396.971.392.35-.001.7-.136.966-.404l7.072-7.112c.531-.535.526-1.395-.011-1.922z" transform="translate(-202 -175) translate(202 175)"/>
            </g>
        </g>
    </g>
</svg>
