<svg xmlns="http://www.w3.org/2000/svg" width="24" height="24" viewBox="0 0 24 24">
    <g fill="none" fill-rule="evenodd">
        <g>
            <g>
                <path d="M0 0L24 0 24 24 0 24z" opacity=".87" transform="translate(-311 -40) translate(311 40)"/>
                <path fill="currentColor" fill-rule="nonzero" d="M12 2C6.47 2 2 6.47 2 12s4.47 10 10 10 10-4.47 10-10S17.53 2 12 2zm4.3 14.3c-.39.39-1.02.39-1.41 0L12 13.41 9.11 16.3c-.39.39-1.02.39-1.41 0-.39-.39-.39-1.02 0-1.41L10.59 12 7.7 9.11c-.39-.39-.39-1.02 0-1.41.39-.39 1.02-.39 1.41 0L12 10.59l2.89-2.89c.39-.39 1.02-.39 1.41 0 .39.39.39 1.02 0 1.41L13.41 12l2.89 2.89c.38.38.38 1.02 0 1.41z" transform="translate(-311 -40) translate(311 40)"/>
            </g>
        </g>
    </g>
</svg>
