<svg xmlns="http://www.w3.org/2000/svg" width="92" height="136" viewBox="0 0 92 136">
    <g fill="none" fill-rule="evenodd">
        <g fill-rule="nonzero">
            <g>
                <g>
                    <g>
                        <path fill="#E9F4FC" d="M54.785 58.3H3.575c-1.942 0-3.516-1.573-3.516-3.515V3.575C.059 1.632 1.633.058 3.574.058h51.211c1.942 0 3.516 1.574 3.516 3.515v51.211c0 1.942-1.574 3.516-3.516 3.516z" transform="translate(-119 -278) translate(58 278) translate(61) translate(32.82 .82)"/>
                        <path fill="#FFF" d="M52.559 50.332c1.23 0 2.226.997 2.226 2.227s-.997 2.226-2.226 2.226c-1.23 0-2.227-.997-2.227-2.226 0-1.23.997-2.227 2.227-2.227zm-46.758 0c1.23 0 2.226.997 2.226 2.227s-.997 2.226-2.226 2.226c-1.23 0-2.227-.997-2.227-2.226 0-1.23.997-2.227 2.227-2.227zM36.782 9.42c6.714 0 12.157 5.443 12.157 12.157v15.205c0 6.714-5.443 12.157-12.157 12.157H21.577c-6.714 0-12.157-5.443-12.157-12.157V21.577c0-6.714 5.443-12.157 12.157-12.157h15.205zM52.56 3.574c1.23 0 2.226.997 2.226 2.227s-.997 2.226-2.226 2.226c-1.23 0-2.227-.997-2.227-2.226 0-1.23.997-2.227 2.227-2.227zm-46.758 0c1.23 0 2.226.997 2.226 2.227S7.03 8.027 5.801 8.027c-1.23 0-2.227-.997-2.227-2.226 0-1.23.997-2.227 2.227-2.227z" transform="translate(-119 -278) translate(58 278) translate(61) translate(32.82 .82)"/>
                        <g fill="#FFD166">
                            <path d="M3.617 7.676H.687c-.324 0-.586-.263-.586-.586V.645C.101.32.363.059.687.059h2.93c.323 0 .586.262.586.586V7.09c0 .323-.263.586-.586.586zM20.407 7.676h-2.93c-.323 0-.586-.263-.586-.586V.645c0-.324.263-.586.586-.586h2.93c.323 0 .586.262.586.586V7.09c0 .323-.263.586-.586.586zM14.355 14.707v2.93c0 .323-.262.586-.585.586H7.324c-.323 0-.586-.263-.586-.586v-2.93c0-.324.263-.586.586-.586h6.446c.323 0 .585.262.585.586z" transform="translate(-119 -278) translate(58 278) translate(61) translate(32.82 .82) translate(18.633 20.04)"/>
                        </g>
                    </g>
                    <path fill="#073B4C" d="M38.621 3.516c1.712 0 3.106 1.393 3.106 3.105s-1.394 3.106-3.106 3.106-3.105-1.394-3.105-3.106 1.393-3.105 3.105-3.105zm0 1.757c-.743 0-1.348.605-1.348 1.348 0 .743.605 1.348 1.348 1.348.743 0 1.348-.605 1.348-1.348 0-.743-.605-1.348-1.348-1.348zM85.379 3.516c1.712 0 3.105 1.393 3.105 3.105s-1.393 3.106-3.105 3.106-3.106-1.394-3.106-3.106 1.394-3.105 3.106-3.105zm0 1.757c-.743 0-1.348.605-1.348 1.348 0 .743.605 1.348 1.348 1.348.743 0 1.348-.605 1.348-1.348 0-.743-.605-1.348-1.348-1.348zM38.621 50.273c1.712 0 3.106 1.394 3.106 3.106s-1.394 3.105-3.106 3.105-3.105-1.393-3.105-3.105 1.393-3.106 3.105-3.106zm0 1.758c-.743 0-1.348.605-1.348 1.348 0 .743.605 1.348 1.348 1.348.743 0 1.348-.605 1.348-1.348 0-.743-.605-1.348-1.348-1.348z" transform="translate(-119 -278) translate(58 278) translate(61)"/>
                    <path fill="#073B4C" d="M91.121 50.638c.486 0 .879-.393.879-.879V4.395C92 1.97 90.029 0 87.605 0h-51.21C33.97 0 32 1.971 32 4.395v51.21C32 58.03 33.971 60 36.395 60h51.21C90.03 60 92 58.029 92 55.605v-6.503c0-.486-.393-.88-.879-.88-.485 0-.879.394-.879.88v6.503c0 1.454-1.183 2.637-2.637 2.637h-51.21c-1.454 0-2.637-1.183-2.637-2.637V4.395c0-1.454 1.183-2.637 2.637-2.637h51.21c1.454 0 2.637 1.183 2.637 2.637v45.364c0 .486.394.879.88.879z" transform="translate(-119 -278) translate(58 278) translate(61)"/>
                    <path fill="#073B4C" d="M71.86 20.04c.808 0 1.465.656 1.465 1.464v6.445c0 .808-.657 1.465-1.465 1.465h-2.93c-.807 0-1.464-.657-1.464-1.465v-6.445c0-.808.657-1.465 1.464-1.465zm-.293 1.757h-2.344v5.86h2.344v-5.86zM55.07 20.04c.807 0 1.464.656 1.464 1.464v6.445c0 .808-.657 1.465-1.464 1.465h-2.93c-.808 0-1.465-.657-1.465-1.465v-6.445c0-.808.657-1.465 1.465-1.465zm-.293 1.757h-2.344v5.86h2.344v-5.86z" transform="translate(-119 -278) translate(58 278) translate(61)"/>
                    <path fill="#073B4C" d="M54.397 50.638h15.206c7.187 0 13.035-5.848 13.035-13.035V22.397c0-7.187-5.848-13.035-13.035-13.035h-12.29c-.486 0-.88.393-.88.879 0 .485.394.879.88.879h12.29c6.218 0 11.277 5.059 11.277 11.277v15.206c0 6.218-5.059 11.277-11.277 11.277H54.397c-6.218 0-11.277-5.059-11.277-11.277V22.397c0-6.218 5.059-11.277 11.277-11.277H58.5c.486 0 .88-.394.88-.88 0-.485-.394-.878-.88-.878h-4.102c-7.187 0-13.035 5.848-13.035 13.035v15.206c0 7.187 5.848 13.035 13.035 13.035zM85.379 50.273c1.712 0 3.105 1.394 3.105 3.106s-1.393 3.105-3.105 3.105-3.106-1.393-3.106-3.105 1.394-3.106 3.106-3.106zm0 1.758c-.743 0-1.348.605-1.348 1.348 0 .743.605 1.348 1.348 1.348.743 0 1.348-.605 1.348-1.348 0-.743-.605-1.348-1.348-1.348z" transform="translate(-119 -278) translate(58 278) translate(61)"/>
                    <path fill="#073B4C" d="M65.223 34.102c.807 0 1.465.657 1.465 1.464v2.93c0 .808-.658 1.465-1.465 1.465h-6.446c-.807 0-1.465-.657-1.465-1.465v-2.93c0-.807.658-1.464 1.465-1.464zm-.293 1.757h-5.86v2.344h5.86V35.86z" transform="translate(-119 -278) translate(58 278) translate(61)"/>
                    <g>
                        <g>
                            <path fill="#FFF" d="M11.296 18.278h-4.83V2.496C6.465 1.162 7.545.08 8.88.08s2.416 1.082 2.416 2.416v15.782zM26.814 18.278h-4.83V2.496c0-1.334 1.08-2.416 2.415-2.416 1.334 0 2.415 1.082 2.415 2.416v15.782z" transform="translate(-119 -278) translate(58 278) translate(61) translate(0 52.352) matrix(-1 0 0 1 78.82 1.124)"/>
                            <path fill="#FFD166" d="M17.37 53.672h-1.462c-2.31 0-4.184-1.874-4.184-4.184V37.126h9.83v12.362c0 2.31-1.873 4.184-4.183 4.184z" transform="translate(-119 -278) translate(58 278) translate(61) translate(0 52.352) matrix(-1 0 0 1 78.82 1.124)"/>
                            <path fill="#FFD166" d="M16.64 47.017c-7.56 0-13.687-6.128-13.687-13.687V18.278h27.373V33.33c0 7.56-6.128 13.687-13.686 13.687z" transform="translate(-119 -278) translate(58 278) translate(61) translate(0 52.352) matrix(-1 0 0 1 78.82 1.124)"/>
                            <path fill="#E9F4FC" d="M29.28 22.143H4c-2.134 0-3.865-1.73-3.865-3.865 0-2.134 1.73-3.864 3.865-3.864h25.28c2.134 0 3.864 1.73 3.864 3.864 0 2.135-1.73 3.865-3.864 3.865z" transform="translate(-119 -278) translate(58 278) translate(61) translate(0 52.352) matrix(-1 0 0 1 78.82 1.124)"/>
                        </g>
                        <path fill="#073B4C" d="M58.532 28.215l.095.083 4.242 4.242 4.243-4.242.094-.083c.392-.305.96-.278 1.32.083.39.39.39 1.024 0 1.414l-4.242 4.242 4.242 4.243c.39.39.39 1.024 0 1.415-.36.36-.928.388-1.32.083l-.094-.083-4.243-4.243-4.242 4.243-.095.083c-.392.305-.96.277-1.32-.083-.39-.39-.39-1.024 0-1.415l4.243-4.243-4.243-4.242c-.39-.39-.39-1.024 0-1.414.36-.36.928-.388 1.32-.083z" transform="translate(-119 -278) translate(58 278) translate(61) translate(0 52.352)"/>
                        <path fill="#073B4C" d="M74.868 14.333c2.796 0 5.07 2.274 5.07 5.07 0 1.907-1.06 3.57-2.62 4.436l-.198.104v10.511c0 5.916-3.467 11.036-8.475 13.437l-.297.139v2.582c0 .211-.012.42-.036.625h-.047c-.195 1.68-1.166 3.127-2.545 3.972v12.23c0 8.166-6.644 14.81-14.81 14.81H38.802c-8.166 0-14.81-6.644-14.81-14.81V32.204c0-4.263-3.469-7.732-7.732-7.732H3.54c-1.952 0-3.54-1.588-3.54-3.54 0-1.951 1.588-3.54 3.54-3.54h12.72c8.167 0 14.81 6.645 14.81 14.812v35.234c0 4.263 3.47 7.732 7.732 7.732H50.91c4.263 0 7.731-3.469 7.731-7.732V55.21c-1.546-.948-2.58-2.654-2.58-4.597V48.03c-5.168-2.34-8.772-7.544-8.772-13.576V23.943c-1.668-.831-2.817-2.554-2.817-4.54 0-2.796 2.274-5.07 5.069-5.07h1.26V3.62c0-1.996 1.624-3.62 3.62-3.62h.048c1.932 0 3.515 1.52 3.615 3.428l.005.192v10.714h8.231V3.62c0-1.996 1.624-3.62 3.62-3.62h.048c1.932 0 3.515 1.52 3.615 3.428l.005.192v10.713h1.26zm-58.608 5.47H3.54c-.624 0-1.13.507-1.13 1.13 0 .623.506 1.13 1.13 1.13h12.72c5.592 0 10.141 4.549 10.141 10.14v35.235c0 6.838 5.563 12.401 12.401 12.401H50.91c6.838 0 12.4-5.563 12.4-12.4V55.985c-.328.024-1.932.024-2.26 0v11.452c0 5.592-4.549 10.141-10.14 10.141H38.802c-5.592 0-10.141-4.55-10.141-10.14V32.203c0-6.838-5.563-12.401-12.401-12.401zM65.89 48.89l.049-.012c-1.137.293-2.32.45-3.518.466l-.217.001c-.071 0-.143 0-.215-.002-1.182-.014-2.349-.168-3.47-.453v1.722c0 .214.022.423.066.625h-.049c.291 1.356 1.508 2.354 2.913 2.354 1.574 0 1.832.039 2.415-.159 1.177-.398 2.027-1.51 2.027-2.82l-.001-1.722zm8.772-24.418H49.747V34.253l.001.125v.058l.001.104.002.135v.076l.006.243.002.039.001.035.002.034.002.033.003.05.002.018.002.037.001.02c.007.109 0 .215-.021.317.137 1.55.56 3.018 1.213 4.351.063.07.117.15.162.237 2.08 4.033 6.11 6.577 10.58 6.76.167.007.333.01.499.01.165 0 .331-.003.498-.01 4.47-.183 8.501-2.727 10.58-6.76.045-.087.098-.166.16-.236.655-1.332 1.079-2.8 1.217-4.351-.022-.102-.03-.209-.023-.318l.001-.02.003-.037.002-.035.002-.033.002-.033.002-.034.002-.035.001-.039c.003-.081.006-.188.007-.361l.001-.093.001-.162v-.193l.001-.073.001-.424V28.87 24.472zm-14.827-2.4H64.574c5.582-.005 10.568-.025 10.742-.058l.06-.01c1.2-.257 2.104-1.325 2.104-2.601 0-1.467-1.193-2.66-2.66-2.66H49.59c-1.467 0-2.66 1.193-2.66 2.66 0 1.276.903 2.344 2.104 2.6l.06.011c.164.031 4.568.05 9.725.056l.676.001h.341zM69.965 2.41h.023c-.626 0-1.142.477-1.204 1.086l-.007.124v10.713h2.373V3.62c0-.66-.53-1.197-1.186-1.21zm-15.52 0h.024c-.625 0-1.142.477-1.204 1.086l-.006.124v10.714h2.373V3.62c0-.66-.53-1.197-1.186-1.21z" transform="translate(-119 -278) translate(58 278) translate(61) translate(0 52.352)"/>
                    </g>
                </g>
            </g>
        </g>
    </g>
</svg>
