<svg xmlns="http://www.w3.org/2000/svg" width="80" height="63" viewBox="0 0 80 63">
    <g fill="none" id="crown" fill-rule="evenodd">
        <g>
            <g>
                <g>
                    <path fill="#073B4C" d="M51.52 36.49l5.644-26.307-12.54 8.308c-.63.416-1.482.297-1.966-.278L30.432 3.754 18.214 18.213c-.484.575-1.335.703-1.966.278l-12.54-8.308L9.344 36.49H51.52zm8.7-30.787c.504.338.742.947.621 1.54l-6.655 31.034c-.145.687-.76 1.178-1.457 1.178H8.134c-.697 0-1.308-.491-1.453-1.178L.031 7.237C-.09 6.65.149 6.04.653 5.702c.502-.338 1.156-.338 1.668-.01l14.473 9.598L29.299.501c.562-.668 1.712-.668 2.274 0l12.507 14.79 14.473-9.597c.51-.33 1.164-.33 1.667.009z" transform="translate(-24.000000, -112.000000) translate(25.000000, 113.000000) translate(9.317320, 13.688312)"/>
                    <path fill="#E9F4FC" d="M51.52 36.49l5.644-26.307-12.54 8.308c-.63.416-1.482.297-1.966-.278L30.432 3.754 18.214 18.213c-.484.575-1.335.703-1.966.278l-12.54-8.308L9.344 36.49H51.52z" transform="translate(-24.000000, -112.000000) translate(25.000000, 113.000000) translate(9.317320, 13.688312)"/>
                    <path fill="#073B4C" d="M51.383 45.09c.82 0 1.48.727 1.48 1.612 0 .893-.66 1.61-1.48 1.61H9.49c-.82 0-1.48-.717-1.48-1.61 0-.885.66-1.611 1.48-1.611h41.894z" transform="translate(-24.000000, -112.000000) translate(25.000000, 113.000000) translate(9.317320, 13.688312)"/>
                </g>
                <path fill="#073B4C" d="M21.626 12.788c.368 0 .671.3.703.683l.003.069v1.812c0 .416-.316.752-.706.752-.369 0-.672-.3-.704-.683l-.003-.069V13.54c0-.415.317-.752.707-.752zm3.258-1.42c.412 0 .746.317.746.71 0 .37-.298.675-.678.707l-.068.003h-1.805c-.412 0-.747-.317-.747-.71 0-.37.299-.675.68-.708l.067-.003h1.805zm-4.712 0c.412 0 .747.317.747.71 0 .37-.299.675-.679.707l-.068.003h-1.804c-.412 0-.747-.317-.747-.71 0-.37.298-.675.679-.708l.068-.003h1.804zm1.454-3.316c.368 0 .671.3.703.683l.003.068v1.813c0 .415-.316.751-.706.751-.369 0-.672-.3-.704-.683l-.003-.068V8.803c0-.415.317-.751.707-.751zM76.197 45.99c.257 0 .47.21.492.479l.002.048v1.269c0 .29-.221.526-.494.526-.258 0-.47-.21-.493-.478l-.002-.048v-1.27c0-.29.222-.525.495-.525zm2.28-.994c.289 0 .523.223.523.498 0 .259-.209.472-.475.495l-.048.002h-1.263c-.288 0-.523-.223-.523-.497 0-.26.21-.473.476-.496l.047-.002h1.263zm-3.298 0c.289 0 .523.223.523.498 0 .259-.209.472-.475.495l-.048.002h-1.263c-.288 0-.523-.223-.523-.497 0-.26.21-.473.476-.496l.047-.002h1.263zm1.018-2.32c.257 0 .47.21.492.477l.002.048v1.27c0 .29-.221.525-.494.525-.258 0-.47-.21-.493-.478l-.002-.048v-1.269c0-.29.222-.526.495-.526z" transform="translate(-24.000000, -112.000000) translate(25.000000, 113.000000)"/>
                <path fill="#FFD166" fill-rule="nonzero" stroke="#073B4C" stroke-width="1.61" d="M2.803 39.455C1.255 39.455 0 40.716 0 42.273c0 1.556 1.255 2.818 2.803 2.818 1.549 0 2.804-1.262 2.804-2.818-.002-1.556-1.256-2.817-2.804-2.818zM52.061 0c-2.21 0-4.004 1.803-4.004 4.026s1.793 4.026 4.005 4.026c2.211 0 4.005-1.803 4.005-4.026C56.065 1.803 54.273.002 52.06 0z" transform="translate(-24.000000, -112.000000) translate(25.000000, 113.000000)"/>
            </g>
        </g>
    </g>
</svg>
