<svg xmlns="http://www.w3.org/2000/svg" width="40" height="40" viewBox="0 0 40 40">
    <g fill="none" fill-rule="evenodd">
        <g fill="#FFF">
            <g>
                <path d="M24.745 5.835l.182.294 14.652 24.702c.239.56.377 1.158.413 1.776.155 2.894-2.066 5.377-5.09 5.699l-.353.027H5.56l-.064-.005-.166.003c-.473-.025-.938-.106-1.39-.24l-.446-.153C.705 36.845-.691 33.858.338 30.994l.13-.33L15.025 6.147c.515-.898 1.285-1.638 2.213-2.129 2.632-1.404 5.92-.576 7.507 1.817zm-6.056.713c-.348.184-.648.442-.883.763l-.164.252-14.48 24.361c-.552 1.31.102 2.804 1.458 3.335.185.072.378.124.576.155l.301.032.062-.002 28.912.002c1.47-.074 2.598-1.278 2.523-2.684-.01-.176-.038-.348-.064-.476l-.043-.188L22.31 7.545c-.712-1.238-2.33-1.685-3.62-.997zm1.292 20.893c.829 0 1.502.637 1.502 1.435v.021c0 .798-.673 1.445-1.502 1.445s-1.501-.647-1.501-1.445c0-.797.672-1.456 1.501-1.456zm-.02-11.496c.76 0 1.388.543 1.487 1.249l.014.196v5.972c0 .798-.672 1.444-1.502 1.444-.76 0-1.388-.543-1.487-1.248l-.014-.196V17.39c0-.798.672-1.445 1.501-1.445z" transform="translate(-160 -132) translate(160 132)"/>
            </g>
        </g>
    </g>
</svg>
