<svg xmlns="http://www.w3.org/2000/svg" width="16" height="16" viewBox="0 0 16 16">
    <g fill="none" fill-rule="evenodd">
        <g fill="#EF476F">
            <g>
                <path d="M6.902.954c1.088-.614 2.472-.21 3.08.888l5.815 10.279c.128.307.184.556.2.815.032.606-.176 1.194-.584 1.647-.408.452-.96.718-1.56.75H2.143c-.248-.015-.496-.072-.728-.161-1.16-.477-1.72-1.817-1.248-2.979L6.022 1.834c.2-.364.504-.678.88-.88zm1.096 9.713c-.384 0-.704.323-.704.71 0 .388.32.711.704.711.384 0 .696-.323.696-.719 0-.387-.312-.702-.696-.702zm0-5.038c-.384 0-.704.314-.704.703v2.284c0 .387.32.711.704.711.384 0 .696-.324.696-.711V6.332c0-.389-.312-.703-.696-.703z" transform="translate(-314 -320) translate(314 320)"/>
            </g>
        </g>
    </g>
</svg>
