<?xml version="1.0" encoding="UTF-8"?>
<svg width="24px" height="24px" viewBox="0 0 24 24" version="1.1" xmlns="http://www.w3.org/2000/svg" xmlns:xlink="http://www.w3.org/1999/xlink">
    <title>Fintech/icons/Light-outline/delay</title>
    <defs>
        <polygon id="path-1" points="0 0 6.33333108 0 6.33333108 7.89298002 0 7.89298002"></polygon>
        <path d="M1.43440413,0 L1.33350104,0.00372042602 L1.2321446,0.0151382852 C0.530421249,0.120144102 0,0.742353282 0,1.484899 L0,1.484899 L0,14.6836876 L0.00362681196,14.7881803 L0.0146367768,14.8930578 C0.116057983,15.6195031 0.7171373,16.1685225 1.43440413,16.1685225 L1.43440413,16.1685225 L9.08484013,16.1685225 L9.18574322,16.164802 L9.28709966,16.1533842 C9.98882301,16.0483784 10.519309,15.4261692 10.519309,14.6836876 L10.519309,14.6836876 L10.519309,1.484899 L10.5156822,1.38040634 L10.5046075,1.27546467 C10.4031863,0.549083564 9.80210696,0 9.08484013,0 L9.08484013,0 L1.43440413,0 Z M0.956247831,7.45073041 L0.956247831,6.40734335 L0.956247831,1.484899 L0.960327995,1.41754646 L0.971985605,1.35397849 C1.0248982,1.1467251 1.21381624,0.989889903 1.43440413,0.989889903 L1.43440413,0.989889903 L9.08484013,0.989889903 L9.14960463,0.994444217 C9.38249777,1.0272866 9.56293166,1.23492486 9.56293166,1.484899 L9.56293166,1.484899 L9.56234878,12.5382206 L0.956247831,12.5382206 L0.956247831,7.45073041 Z M1.36938057,15.1744631 L1.30798383,15.1623397 C1.10773199,15.1076879 0.956247831,14.9119807 0.956247831,14.6836876 L0.956247831,14.6836876 L0.956247831,13.5281746 L9.56293166,13.5281746 L9.56293166,14.6836876 L9.55891626,14.7509119 L9.54725866,14.814544 C9.49441082,15.0217974 9.30542801,15.1786326 9.08484013,15.1786326 L9.08484013,15.1786326 L1.43440413,15.1786326 L1.36938057,15.1744631 Z M4.30334192,13.8587794 L4.23177714,13.8647449 L4.16196101,13.8827056 C3.95989578,13.9503147 3.82512085,14.1373623 3.82512085,14.3537243 L3.82512085,14.3537243 C3.82512085,14.6272398 4.03910276,14.8486693 4.30334192,14.8486693 L4.30334192,14.8486693 L6.21590234,14.8486693 L6.28746711,14.8427038 L6.35721848,14.8247431 C6.55934848,14.7570698 6.69405864,14.5700222 6.69405864,14.3537243 L6.69405864,14.3537243 C6.69405864,14.0801447 6.4801415,13.8587794 6.21590234,13.8587794 L6.21590234,13.8587794 L4.30334192,13.8587794 Z" id="path-3"></path>
    </defs>
    <g id="Fintech/icons/Light-outline/delay" stroke="none" stroke-width="1" fill="none" fill-rule="evenodd">
        <g id="Group-16" transform="translate(2.000000, 0.000000)">
            <g id="Group-12">
                <path d="M9.61570178,10.6409957 C9.85843912,10.6409957 10.0557766,10.8560748 10.0557766,11.1204175 L10.0557766,11.7725825 L10.8697368,11.7725825 C11.1124741,11.7725825 11.3098115,11.9874692 11.3098115,12.2518119 C11.3098115,12.515898 11.1124741,12.7309771 10.8697368,12.7309771 L9.03230317,12.7309771 C8.68147388,12.7309771 8.39605673,13.0416327 8.39605673,13.423682 C8.39605673,13.8056029 8.68147388,14.1165792 9.03230317,14.1165792 L9.99243687,14.1165792 C10.828158,14.1165792 11.5083795,14.8570723 11.5087681,15.7674221 C11.5087681,16.6077252 10.931004,17.3130666 10.16484,17.4081299 L10.0557766,17.4215363 L10.0557766,18.0708789 C10.0557766,18.3350933 9.85843912,18.54998 9.61570178,18.54998 C9.37296443,18.54998 9.17562701,18.3350933 9.17562701,18.0708789 L9.17562701,17.4187139 L8.15487373,17.4187139 C7.91226592,17.4187139 7.71492849,17.2036348 7.71492849,16.9394204 C7.71492849,16.675206 7.91226592,16.4603193 8.15487373,16.4603193 L9.99243687,16.4603193 C10.3431366,16.4603193 10.62823,16.149343 10.62823,15.7674221 C10.62823,15.3855011 10.3431366,15.0749738 9.99243687,15.0749738 L9.03230317,15.0749738 C8.19612872,15.0749738 7.51610148,14.3342883 7.51610148,13.423682 C7.51610148,12.5132039 8.19612872,11.7725825 9.03230317,11.7725825 L9.17562701,11.7725825 L9.17562701,11.1204175 C9.17562701,10.8560748 9.37296443,10.6409957 9.61570178,10.6409957" id="Fill-1" fill="#48464D"></path>
                <path d="M5.81416815,3.70929682 L5.73262965,3.7034596 L2.05478327,3.70288229 L3.36956737,2.30566988 L3.42785542,2.23382717 C3.58536268,2.00809994 3.58601032,1.69667463 3.42940976,1.4702418 L3.37144554,1.39807837 L3.31056691,1.34092493 C3.098787,1.16754025 2.80359041,1.16516687 2.58947897,1.33412553 L2.52199436,1.39608986 L0.177066141,3.89031478 L0.135098745,3.93989908 L0.115345573,3.96709668 L0.0719533587,4.04028644 C0.0461123235,4.09134608 0.0265534447,4.14663931 0.0143777188,4.20488322 C0.0134062513,4.21078458 0.0122404904,4.21687839 0.0111394939,4.22290804 C0.00686503692,4.24484573 0.00395063445,4.26742486 0.00213722847,4.29026058 C0.00181340598,4.29776558 0.00136005448,4.30450083 0.00103623199,4.31130023 C0.000259057997,4.32201249 0,4.33355864 0,4.34516894 L0.00110099649,4.37948666 L0.00136005448,4.38872358 L0.00136005448,4.3789735 L0.00498686644,4.42862194 C0.0182635888,4.53792549 0.0573165818,4.63856943 0.115345573,4.72336949 C0.116381805,4.72458825 0.117482802,4.72619188 0.118583798,4.72773137 L0.125319306,4.73760974 L0.14610871,4.76474319 L0.168193405,4.79059374 L0.177001376,4.79983066 L2.5219296,7.29488947 L2.58352064,7.3521712 C2.81932818,7.54313168 3.15675122,7.52324665 3.37138077,7.29302925 C3.58413215,7.06473621 3.60284909,6.70815262 3.42792018,6.45728045 L3.36963213,6.38543774 L2.0569205,4.98674999 L5.06199326,4.98687828 L5.06199326,4.98687828 L5.06199326,8.84810318 L6.33332038,7.90760514 L6.33332038,4.34516894 C6.33332038,4.02027311 6.10735704,3.75182513 5.81416815,3.70929682" id="Fill-3" fill="#48464D"></path>
                <path d="M18.998899,4.31128099 C18.9985752,4.30448159 18.9981218,4.29774634 18.997798,4.29030548 C18.9959846,4.26740562 18.9930702,4.24489063 18.9887957,4.22295294 C18.9876947,4.21685914 18.986529,4.21082949 18.9855575,4.20486398 C18.9733818,4.14662007 18.9538229,4.09132684 18.9279819,4.04033134 L18.8845897,3.96707744 L18.8648365,3.93987984 L18.8228691,3.89029554 L16.4779409,1.39607062 L16.4104563,1.33410628 C16.1963448,1.16514763 15.9011482,1.16758515 15.6893683,1.34096983 L15.6284897,1.39812327 L15.5705255,1.47022256 C15.4139249,1.69671953 15.4145726,2.0080807 15.5720798,2.23380793 L15.6304326,2.30565064 L16.945152,3.70292719 L13.2673056,3.70344035 L13.1857671,3.70927757 C12.8925782,3.75180589 12.6666149,4.02031802 12.6666149,4.3451497 L12.6666149,7.9075859 L13.937942,8.84808394 L13.937942,4.98685904 L13.937942,4.98685904 L16.9430147,4.98673075 L15.6303031,6.38548264 L15.5720151,6.45732535 C15.3970861,6.70813338 15.4158031,7.06471697 15.6286192,7.29301001 C15.843184,7.52322741 16.1806071,7.54311244 16.4164146,7.35215195 L16.4780056,7.29487022 L18.8229339,4.79981141 L18.8317418,4.79057449 L18.8538265,4.76472395 L18.8746159,4.73759049 L18.8813514,4.72771212 C18.8824524,4.72617264 18.8835534,4.72463315 18.8845897,4.72341439 C18.9426187,4.63855019 18.9816716,4.53790625 18.9949484,4.4286027 L18.9985752,4.37895426 L18.9985752,4.38870434 L18.998899,4.37946742 L19,4.3451497 C19,4.3335394 18.9996762,4.32199325 18.998899,4.31128099" id="Fill-5" fill="#48464D"></path>
                <g id="Group-9" transform="translate(6.333300, 0.000000)">
                    <mask id="mask-2" fill="white">
                        <use xlink:href="#path-1"></use>
                    </mask>
                    <g id="Clip-8"></g>
                    <path d="M6.20715401,2.56475265 L6.1445915,2.49791327 L3.62628871,0.175405258 L3.57622576,0.133839119 L3.54876561,0.11427481 L3.47480455,0.0712974745 C3.42331677,0.0457035093 3.36748977,0.0263316359 3.30868361,0.014272324 C3.30266051,0.0133101448 3.29657265,0.0121555298 3.29042002,0.0110650601 C3.26827056,0.00683147192 3.24553822,0.00394493449 3.2224173,0.00214886675 C3.21490461,0.00182814037 3.20810434,0.00137912344 3.2012393,0.00105839706 C3.19042363,0.000288653743 3.17876602,-3.20726381e-05 3.16704365,-3.20726381e-05 L3.13239464,0.00105839706 L3.12306855,0.00137912344 L3.13291276,0.00137912344 L3.08272027,0.00497125891 C2.97242633,0.0181210405 2.87081083,0.0567364968 2.7851274,0.114210664 C2.78389687,0.115301134 2.78234252,0.116391604 2.78078818,0.117417928 L2.77081444,0.124153182 L2.74341906,0.144743816 L2.71731897,0.166617355 L2.70799288,0.175341113 L0.188848151,2.49784913 L0.131013454,2.55885129 C-0.0617904606,2.79240424 -0.0417134658,3.12660113 0.190726322,3.33911443 C0.421223175,3.5498958 0.781249026,3.56843379 1.03447822,3.3951774 L1.10701446,3.33744665 L2.51926913,2.0372219 L2.51907483,5.6778512 L2.51907483,5.67804363 L2.51907483,7.89298002 L3.81948121,7.89298002 L3.81501246,5.43897419 L3.81546582,2.03516925 L5.2262309,3.33731836 L5.29876714,3.39511325 C5.52667341,3.55105042 5.84104029,3.55175602 6.06972374,3.39665274 L6.14251904,3.33924272 L6.20022421,3.27894616 C6.37528265,3.0691911 6.3777437,2.77681693 6.20715401,2.56475265" id="Fill-7" fill="#48464D" mask="url(#mask-2)"></path>
                </g>
                <path d="M13.3376139,7.83141339 C14.0548808,7.83141339 14.6559601,8.38049695 14.7573813,9.10687806 L14.768456,9.21181973 L14.7720828,9.31631238 L14.7720828,22.515101 C14.7720828,23.2575826 14.2416616,23.8798559 13.5398735,23.9847976 L13.438517,23.9962154 L13.3376139,24 L5.68724269,24 C4.9699111,24 4.36883178,23.4509164 4.26741057,22.7245353 L4.25640061,22.6195937 L4.2527738,22.515101 L4.2527738,9.31631238 C4.2527738,8.57376667 4.78319504,7.95155749 5.48491839,7.84661582 L5.5863396,7.83513381 L5.68724269,7.83141339 L13.3376139,7.83141339 Z M13.8157702,21.3595238 L5.20908639,21.3595238 L5.20908639,22.515101 C5.20908639,22.7434582 5.36057055,22.9390371 5.56075762,22.9938172 L5.62221913,23.0058765 L5.68724269,23.010046 L13.3376139,23.010046 C13.5582018,23.010046 13.7471846,22.8532108 13.8000972,22.6459574 L13.8117548,22.5823894 L13.8157702,22.515101 L13.8157702,21.3595238 Z M10.4686761,21.6901927 C10.7329153,21.6901927 10.9468972,21.9116222 10.9468972,22.1851377 C10.9468972,22.4014356 10.8121223,22.5884832 10.610057,22.6561565 L10.5402409,22.6741171 L10.4686761,22.6800827 L8.55611571,22.6800827 C8.29187655,22.6800827 8.07795941,22.4586532 8.07795941,22.1851377 C8.07795941,21.9687757 8.21266957,21.7817922 8.41479957,21.7141189 L8.48455094,21.6961583 L8.55611571,21.6901927 L10.4686761,21.6901927 Z M5.20908639,15.2821438 L5.20908639,20.3696339 L13.8151226,20.3696339 L13.8157702,9.31631238 C13.8157702,9.06633824 13.6353363,8.85876413 13.4023784,8.8258576 L13.3376139,8.82136743 L5.68724269,8.82136743 C5.4666548,8.82136743 5.277672,8.97813849 5.2247594,9.18539188 L5.21310179,9.24902399 L5.20908639,9.31631238 L5.20908639,14.2387567 L5.20908639,15.2821438 Z" id="Fill-10" fill="#48464D"></path>
            </g>
            <g id="Group-15" transform="translate(4.252800, 7.831433)">
                <mask id="mask-4" fill="white">
                    <use xlink:href="#path-3"></use>
                </mask>
                <g id="Clip-14"></g>
                <polygon id="Fill-13" fill="#48464D" mask="url(#mask-4)" points="-0.657489196 16.8422403 11.1767335 16.8422403 11.1767335 -0.673717836 -0.657489196 -0.673717836"></polygon>
            </g>
        </g>
    </g>
</svg>