<svg width="123" height="115" viewBox="0 0 123 115" xmlns="http://www.w3.org/2000/svg" xmlns:xlink="http://www.w3.org/1999/xlink">
    <defs>
        <path id="kgci55oc4a" d="M0 0h114.176v109.82H0z"/>
        <path d="M0 54.91c0 30.326 25.56 54.91 57.088 54.91 31.529 0 57.088-24.584 57.088-54.91C114.176 24.584 88.616 0 57.088 0 25.56 0 0 24.584 0 54.91" id="pqtj2eaxib"/>
        <path d="M57.088 109.82c31.529 0 57.088-24.584 57.088-54.91C114.176 24.584 88.616 0 57.088 0 25.56 0 0 24.584 0 54.91c0 30.326 25.56 54.91 57.088 54.91z" id="yslsjdwgid"/>
    </defs>
    <g fill="none" fill-rule="evenodd">
        <g transform="translate(8.644 5.18)">
            <mask id="lk1apbf71c" fill="#fff">
                <use xlink:href="#pqtj2eaxib"/>
            </mask>
            <path d="M100.022 107.518V67.076c0-8.194-11.751-16.934-11.751-16.934L68.254 84.173s-2.202 10.522 3.774 17.756c0 1.315.047 5.59.047 5.59" fill="#FFD4CB" mask="url(#lk1apbf71c)"/>
        </g>
        <g transform="translate(8.644 5.18)">
            <mask id="zjhbyvpope" fill="#fff">
                <use xlink:href="#yslsjdwgid"/>
            </mask>
            <path d="M71.918 108.505c-.602 0-1.094-.507-1.101-1.138-.002-.159-.039-3.58-.046-5.182-5.936-7.559-3.843-17.976-3.75-18.422.027-.126.073-.247.138-.357l20.017-34.03c.16-.272.42-.462.718-.526.299-.063.61.006.858.19.498.371 12.214 9.184 12.214 17.871v40.443c0 .635-.493 1.15-1.101 1.15s-1.101-.515-1.101-1.15V66.91c0-6.201-7.637-13.023-10.349-15.25L69.14 84.435c-.24 1.376-1.559 10.376 3.565 16.578.173.209.268.476.268.752 0 1.294.046 5.534.047 5.577.006.635-.48 1.156-1.089 1.164h-.012z" fill="#000" mask="url(#zjhbyvpope)"/>
        </g>
        <g>
            <path d="M99.474 92.468H16.808s11.043 0 11.359-11.206V1.17h71.622l-.315 91.297z" fill="#FFF"/>
            <path d="M4.818 56.872h22.717v24.253c0 14.639-22.717 15.555-22.717 0V56.872z" fill="#B5EDFF"/>
            <path d="m98.689 91.314-75.175-.015c1.986-1.314 3.809-3.38 4.634-6.615.28-1.039.43-2.142.452-3.301 0-.036.004-.069.005-.105l.001-.034V2.307l70.39.017-.307 88.99zm-92.8-10.206v-23.1h20.508v23.1c0 .07-.004.136-.005.205a12.62 12.62 0 0 1-.424 2.9c-1.357 4.65-5.741 7.067-10.083 7.067-2.673 0-5.133-.892-6.926-2.51-2.009-1.813-3.07-4.463-3.07-7.662zM100.887.357a1.08 1.08 0 0 0-.782-.34L27.502 0c-.293 0-.574.122-.781.338-.207.216-.324.51-.324.816V55.7H4.784c-.61 0-1.104.517-1.104 1.154v24.253c0 3.89 1.326 7.143 3.835 9.408 2.195 1.98 5.167 3.07 8.37 3.07h.074c.06.01.12.018.184.018l83.646.017c.608 0 1.102-.514 1.104-1.149l.316-91.297c0-.307-.115-.601-.322-.818z" fill="#000"/>
            <path d="M105.942 78.79S92.046 65.015 91.099 63.948c-3.155-2.888-7.888 2.385-4.89 5.846l9.939 10.382s-8.204 10.218-.316 18.128l4.115 3.228" fill="#FFD4CB"/>
            <path d="M95.97 99.535c-.274 0-.55-.106-.764-.322-7.154-7.173-2.212-16.086-.374-18.846l-9.266-9.68a1.165 1.165 0 0 1-.038-.041c-1.988-2.296-1.354-5.275.3-7.031 1.81-1.92 4.333-2.108 6.138-.458.028.027.056.055.082.084.733.827 8.447 8.685 12.423 12.725a1.19 1.19 0 0 1 .021 1.631 1.072 1.072 0 0 1-1.561.023c-.465-.472-11.243-11.424-12.458-12.76-1.095-.965-2.336-.407-3.07.373-.691.733-1.517 2.364-.254 3.845l9.918 10.36c.405.423.433 1.099.065 1.557-.018.023-1.95 2.467-2.927 5.764-1.25 4.223-.398 7.853 2.53 10.79.44.441.455 1.172.032 1.631a1.077 1.077 0 0 1-.796.355M45.362 46.984c0 1.365-1.06 2.472-2.366 2.472-1.307 0-2.366-1.107-2.366-2.472s1.059-2.472 2.366-2.472c1.307 0 2.366 1.107 2.366 2.472M45.362 58.52c0 1.365-1.06 2.472-2.366 2.472-1.307 0-2.366-1.107-2.366-2.472s1.059-2.472 2.366-2.472c1.307 0 2.366 1.107 2.366 2.472M45.362 70.055c0 1.366-1.06 2.472-2.366 2.472-1.307 0-2.366-1.106-2.366-2.472 0-1.365 1.059-2.471 2.366-2.471 1.307 0 2.366 1.106 2.366 2.471M50.884 35.448h34.391M50.884 46.984h34.391M85.275 48.138H50.884c-.61 0-1.104-.517-1.104-1.154 0-.637.494-1.154 1.104-1.154h34.391c.61 0 1.105.517 1.105 1.154 0 .637-.495 1.154-1.105 1.154M50.884 58.52h34.391M85.275 59.673H50.884c-.61 0-1.104-.516-1.104-1.153s.494-1.154 1.104-1.154h34.391c.61 0 1.105.517 1.105 1.154 0 .637-.495 1.153-1.105 1.153M50.884 70.055h19.72M70.604 71.21h-19.72c-.61 0-1.104-.517-1.104-1.155 0-.637.494-1.153 1.104-1.153h19.72c.61 0 1.104.516 1.104 1.153 0 .638-.494 1.154-1.104 1.154" fill="#000"/>
        </g>
        <g fill="#C33">
            <path d="M64.86 11.04c6.859 0 12.42 5.561 12.42 12.42 0 6.86-5.561 12.42-12.42 12.42s-12.42-5.56-12.42-12.42c0-6.859 5.561-12.42 12.42-12.42zm0 1.863c-5.83 0-10.557 4.727-10.557 10.557S59.03 34.017 64.86 34.017 75.417 29.29 75.417 23.46 70.69 12.903 64.86 12.903zm3.608 6.938c.31.31.336.797.078 1.136l-.078.09-2.382 2.382 2.38 2.38a.867.867 0 0 1-1.137 1.303l-.09-.078-2.379-2.379-2.383 2.382a.867.867 0 0 1-1.303-1.136l.078-.09 2.382-2.382-2.38-2.38a.867.867 0 0 1 1.137-1.303l.09.078 2.379 2.379 2.383-2.382a.867.867 0 0 1 1.225 0z"/>
        </g>
    </g>
</svg>
