<svg width="44" height="12" viewBox="0 0 44 12" xmlns="http://www.w3.org/2000/svg">
    <g fill-rule="nonzero" fill="none">
        <g fill="#231F20">
            <path d="M17 9.879h.044c.113 0 .233-.013.233-.153V8.318c0-.14-.12-.153-.233-.153H17v-.082c.123 0 .311.01.465.01.157 0 .346-.01.493-.01v.081h-.044c-.113 0-.232.013-.232.153v1.409c0 .14.12.153.232.153h.044v.08c-.15 0-.34-.01-.496-.01-.154 0-.339.01-.462.01v-.08zm3.117-.449.006-.005V8.417c0-.22-.18-.253-.274-.253h-.068v-.081c.147 0 .292.01.44.01.128 0 .257-.01.385-.01v.081h-.046c-.132 0-.28.021-.28.341V9.73c0 .094.003.188.019.271h-.12l-1.618-1.543v1.107c0 .235.053.315.295.315h.054v.08c-.135 0-.27-.01-.406-.01-.14 0-.285.01-.426.01v-.08h.044c.216 0 .282-.126.282-.341V8.406c0-.15-.145-.242-.285-.242h-.041v-.081c.119 0 .241.01.36.01.095 0 .187-.01.28-.01l1.399 1.347zm.96-1.212c-.236 0-.244.048-.292.244h-.094c.013-.075.028-.15.038-.229.012-.075.019-.15.019-.228h.075c.026.081.104.078.189.078h1.621c.084 0 .163-.003.17-.083l.074.01c-.011.073-.024.146-.034.218-.006.073-.006.146-.006.218l-.094.03c-.006-.1-.022-.259-.233-.259h-.515v1.431c0 .207.11.23.261.23h.06v.082c-.123 0-.343-.01-.513-.01-.188 0-.408.01-.53.01v-.081h.059c.173 0 .26-.013.26-.225V8.218h-.515zm1.901 1.66h.044c.113 0 .232-.012.232-.152V8.318c0-.14-.12-.153-.232-.153h-.044v-.082c.191 0 .52.01.782.01.264 0 .59-.01.804-.01-.006.116-.002.294.007.412l-.095.021c-.015-.174-.053-.314-.383-.314h-.435v.704h.372c.19 0 .23-.091.249-.236h.094a5.47 5.47 0 0 0 0 .62l-.094.017c-.019-.162-.028-.267-.246-.267h-.376v.627c0 .174.182.174.383.174.377 0 .543-.021.638-.327l.087.019c-.04.142-.078.284-.106.427-.201 0-.563-.01-.845-.01-.283 0-.657.01-.836.01v-.081zm2.614-.886h.153c.315 0 .484-.102.484-.42 0-.238-.179-.392-.458-.392-.095 0-.135.009-.18.01v.802zm-.402-.624c0-.196-.126-.204-.223-.204h-.057v-.081c.1 0 .295.01.487.01.188 0 .339-.01.506-.01.395 0 .747.091.747.474 0 .241-.188.389-.436.473l.537.688c.088.114.15.145.304.16v.082c-.103 0-.204-.01-.307-.01-.098 0-.198.01-.296.01a7.447 7.447 0 0 1-.653-.872h-.207v.576c0 .208.113.215.257.215h.057v.08c-.18 0-.362-.01-.54-.01-.151 0-.3.01-.456.01v-.08h.057c.115 0 .223-.045.223-.145V8.368zm3.998 1.062.006-.005V8.417c0-.22-.179-.253-.272-.253h-.07v-.081c.148 0 .292.01.44.01.13 0 .258-.01.387-.01v.081h-.047c-.132 0-.28.021-.28.341V9.73c0 .094.003.188.018.271h-.118l-1.618-1.543v1.107c0 .235.053.315.295.315h.054v.08c-.136 0-.271-.01-.406-.01-.142 0-.286.01-.427.01v-.08h.043c.218 0 .283-.126.283-.341V8.406c0-.15-.144-.242-.285-.242h-.041v-.081c.119 0 .242.01.36.01.095 0 .186-.01.28-.01l1.398 1.347zm1.455-1.046h-.006l-.292.761h.587l-.289-.76zm-.458 1.191c-.032.092-.07.162-.07.21 0 .08.132.094.236.094h.035v.08a9.36 9.36 0 0 0-.381-.01c-.113 0-.226.005-.339.01v-.08h.018a.282.282 0 0 0 .273-.175l.503-1.233c.041-.1.099-.234.117-.334.1-.03.226-.083.286-.116.01-.002.015-.004.025-.004.009 0 .015 0 .022.007l.029.068.577 1.406c.038.094.076.193.116.274.038.075.104.107.208.107h.018v.08c-.14-.005-.282-.01-.433-.01-.153 0-.31.005-.47.01v-.08h.034c.072 0 .194-.01.194-.078a.74.74 0 0 0-.063-.193l-.123-.312h-.713l-.099.28zm1.812-1.357c-.236 0-.245.048-.292.244h-.095c.013-.075.029-.15.038-.229.013-.075.02-.15.02-.228h.074c.025.081.104.078.189.078h1.621c.085 0 .163-.003.17-.083l.075.01a8.678 8.678 0 0 0-.035.218c-.007.073-.007.146-.007.218l-.094.03c-.005-.1-.021-.259-.231-.259h-.516v1.431c0 .207.11.23.261.23h.06v.082c-.123 0-.343-.01-.513-.01-.188 0-.408.01-.531.01v-.081h.06c.173 0 .262-.013.262-.225V8.218h-.516zm1.915 1.66h.044c.114 0 .233-.012.233-.152V8.318c0-.14-.119-.153-.233-.153h-.044v-.082c.123 0 .311.01.465.01.157 0 .346-.01.494-.01v.081h-.044c-.114 0-.233.013-.233.153v1.409c0 .14.12.153.233.153h.044v.08c-.151 0-.34-.01-.497-.01-.154 0-.34.01-.462.01v-.08zm2.259.004c.61 0 .716-.46.716-.852 0-.393-.247-.869-.77-.869-.549 0-.712.42-.712.78 0 .481.258.94.766.94m-.047-1.838c.67 0 1.204.355 1.204.928 0 .618-.519 1.029-1.188 1.029-.667 0-1.174-.386-1.174-.965 0-.559.505-.992 1.158-.992m3.321 1.387.006-.005V8.417c0-.22-.179-.253-.274-.253h-.068v-.081c.147 0 .292.01.44.01.13 0 .258-.01.386-.01v.081h-.047c-.133 0-.28.021-.28.341V9.73c0 .094.003.188.019.271h-.12L37.89 8.457v1.107c0 .235.053.315.295.315h.053v.08c-.135 0-.27-.01-.405-.01-.141 0-.286.01-.428.01v-.08h.045c.217 0 .282-.126.282-.341V8.406c0-.15-.144-.242-.286-.242h-.04v-.081c.119 0 .241.01.361.01.094 0 .185-.01.28-.01l1.398 1.347zm1.454-1.046h-.006l-.293.761h.589l-.29-.76zm-.46 1.191c-.03.092-.068.162-.068.21 0 .08.133.094.235.094h.036v.08a9.331 9.331 0 0 0-.38-.01c-.115 0-.227.005-.34.01v-.08h.018a.284.284 0 0 0 .274-.175l.503-1.233c.04-.1.097-.234.116-.334.1-.03.226-.083.286-.116.01-.002.016-.004.025-.004.01 0 .015 0 .022.007.01.022.019.046.03.068l.577 1.406c.036.094.075.193.116.274.037.075.104.107.207.107h.019v.08c-.141-.005-.283-.01-.433-.01-.155 0-.312.005-.472.01v-.08h.035c.071 0 .195-.01.195-.078a.777.777 0 0 0-.064-.193l-.122-.312h-.712l-.102.28zm2.468.121c0 .108.087.14.188.151.128.008.27.008.415-.005a.468.468 0 0 0 .301-.146.583.583 0 0 0 .098-.193H44c-.035.153-.08.304-.117.457-.276 0-.553-.01-.829-.01-.276 0-.553.01-.83.01v-.081h.044c.114 0 .236-.013.236-.18V8.317c0-.14-.122-.153-.236-.153h-.043v-.081c.166 0 .33.01.495.01.161 0 .318-.01.479-.01v.081h-.08c-.118 0-.212.003-.212.146v1.386zM35.22 3.268h-.14c-.106-.6-.57-.841-1.196-.841-.645 0-1.58.395-1.58 1.626 0 1.038.808 1.783 1.669 1.783.554 0 1.012-.35 1.124-.889l.128.03-.128.75c-.235.135-.868.272-1.237.272-1.308 0-2.136-.774-2.136-1.93 0-1.052 1.023-1.807 2.12-1.807.453 0 .89.134 1.32.272l.056.734zm.201 2.521h.107c.156 0 .269 0 .269-.17V2.76c0-.334-.084-.345-.297-.401v-.082a3.8 3.8 0 0 0 .576-.22c.061-.032.107-.058.123-.058.034 0 .045.031.045.073v3.546c0 .17.123.17.28.17h.095v.133c-.19 0-.386-.01-.588-.01-.2 0-.402.006-.61.01V5.79zm3.592-.149c0 .093.061.098.157.098.066 0 .15-.005.224-.005v.108c-.242.02-.7.128-.807.159l-.027-.016V5.57c-.335.251-.594.43-.991.43-.302 0-.615-.179-.615-.61V4.076c0-.134-.023-.262-.335-.288V3.69c.202-.006.648-.036.721-.036.062 0 .062.036.062.149v1.324c0 .154 0 .595.487.595.19 0 .441-.134.676-.312V4.028c0-.102-.268-.158-.47-.21v-.093c.504-.03.818-.071.873-.071.045 0 .045.036.045.092V5.64zm1.113-.298c0 .196.201.524.576.524.6 0 .85-.54.85-.996 0-.554-.458-1.016-.894-1.016-.208 0-.38.123-.532.242v1.246zm0-1.396c.224-.174.526-.369.833-.369.65 0 1.041.519 1.041 1.078C42 5.327 41.463 6 40.662 6c-.413 0-.63-.123-.777-.18l-.167.118-.117-.056c.049-.303.077-.601.077-.914V2.761c0-.334-.083-.345-.296-.401v-.082c.224-.067.459-.159.576-.221.061-.03.106-.057.124-.057.033 0 .044.031.044.073v1.873zm-23.064 1.37c0 .397.308.442.582.442 1.209 0 1.605-.836 1.605-1.601 0-.96-.67-1.653-1.75-1.653-.23 0-.335.015-.437.02v2.793zm-.548-2.407c0-.462-.263-.432-.514-.437V2.34c.218.009.442.009.66.009.235 0 .554-.01.968-.01 1.448 0 2.237.888 2.237 1.797 0 .509-.324 1.787-2.304 1.787-.285 0-.549-.01-.811-.01-.252 0-.499.005-.75.01v-.134c.335-.03.498-.04.514-.39v-2.49zm4.146-.123c-.146 0-.275-.123-.275-.257 0-.128.134-.247.275-.247.145 0 .274.108.274.247s-.123.257-.274.257zm-.599 3.003h.106c.157 0 .268 0 .268-.17v-1.39c0-.226-.083-.257-.29-.36v-.082c.263-.072.576-.169.599-.185a.215.215 0 0 1 .1-.025c.028 0 .039.03.039.071v1.97c0 .171.124.171.28.171h.095v.134c-.19 0-.386-.01-.587-.01-.202 0-.403.005-.61.01v-.134zm1.728-1.53c0-.19-.061-.24-.324-.338v-.098c.24-.072.47-.14.738-.246.017 0 .034.01.034.05v.335c.319-.211.593-.385.968-.385.475 0 .643.317.643.718V5.62c0 .17.124.17.28.17h.1v.134c-.196 0-.392-.01-.592-.01-.202 0-.403.005-.605.01v-.134h.101c.157 0 .268 0 .268-.17V4.29c0-.293-.195-.436-.514-.436-.18 0-.464.133-.65.246v1.52c0 .17.125.17.281.17h.1v.133c-.195 0-.392-.01-.593-.01-.2 0-.402.005-.604.01v-.134h.101c.157 0 .268 0 .268-.17V4.26zm3.855.082c.14 0 .156-.066.156-.128 0-.262-.173-.472-.486-.472-.341 0-.576.23-.644.6h.974zm-.99.165c-.012.046-.012.123 0 .298.033.488.374.888.822.888.307 0 .549-.154.755-.344l.078.072c-.257.313-.575.58-1.034.58-.89 0-1.068-.791-1.068-1.12 0-1.006.738-1.303 1.128-1.303.454 0 .941.261.946.805 0 .032 0 .062-.005.093l-.05.031h-1.572zM26.41 5.79h.151c.157 0 .268 0 .268-.17V4.177c0-.159-.206-.19-.29-.231V3.87c.408-.16.632-.293.682-.293.034 0 .05.015.05.066v.462h.012c.14-.2.375-.528.716-.528.14 0 .318.086.318.272a.259.259 0 0 1-.262.262c-.174 0-.174-.124-.37-.124-.095 0-.408.118-.408.427v1.205c0 .17.112.17.268.17h.314v.134c-.308-.005-.543-.01-.783-.01-.23 0-.465.005-.666.01v-.134zm2.153-.58c.074.339.297.627.705.627.33 0 .453-.185.453-.365 0-.606-1.219-.411-1.219-1.237 0-.288.252-.657.868-.657.178 0 .419.046.637.148l.04.524h-.13c-.055-.323-.252-.509-.61-.509-.223 0-.436.119-.436.34 0 .6 1.298.416 1.298 1.222 0 .338-.297.698-.962.698-.224 0-.487-.072-.683-.174l-.061-.591.1-.026z"/>
        </g>
        <path d="M7.673 0C10.98 0 14 2.473 14 6.052 14 9.324 10.98 12 7.673 12h-1.57C2.755 12.015 0 9.326 0 6.052 0 2.474 2.755 0 6.103 0h1.57zM6.499 1C3.461 1 1 3.239 1 6c0 2.762 2.461 5 5.5 5 3.037 0 5.499-2.238 5.5-5-.001-2.761-2.463-5-5.5-5zm1.274 1.875c1.336.482 2.283 1.698 2.285 3.125-.002 1.427-.95 2.642-2.285 3.125zm-2.548 0v6.248C3.891 8.641 2.945 7.426 2.941 6c.004-1.426.95-2.64 2.284-3.124z" fill="#004C97"/>
    </g>
</svg>
