<svg xmlns="http://www.w3.org/2000/svg" width="15" height="14" viewBox="0 0 15 14">
    <g fill="none" fill-rule="evenodd">
        <g fill="currentColor">
            <g>
                <g>
                    <path d="M3.782 3.833c.288 0 .521.235.521.525 0 .266-.196.486-.45.52l-.07.005h-.655c-1.082 0-1.967.853-2.028 1.927l-.004.12v3.42c0 1.094.849 1.988 1.919 2.05l.12.004h7.737c1.082 0 1.967-.852 2.028-1.927l.004-.12v-3.42c0-1.094-.848-1.988-1.918-2.05l-.12-.004h-.648c-.288 0-.521-.235-.521-.525 0-.266.196-.485.45-.52l.07-.005h.649c1.653 0 3 1.311 3.076 2.959l.004.146v3.419c0 1.662-1.299 3.018-2.93 3.094l-.144.003H3.135c-1.653 0-3.002-1.312-3.077-2.958l-.004-.146V6.93c0-1.66 1.297-3.015 2.925-3.093l.149-.004h.654zM7 .547c.264 0 .482.197.516.453l.005.072v7.133l1.135-1.15c.185-.186.474-.204.679-.052l.058.051c.185.186.203.478.052.684l-.05.059L7.45 9.763c-.09.157-.258.262-.45.262-.19 0-.357-.102-.448-.255L4.606 7.797c-.203-.206-.203-.538.001-.743.186-.186.475-.202.679-.05l.058.052 1.134 1.147.001-7.131c0-.29.233-.525.521-.525z" transform="translate(-82 -416) translate(82.5 415) translate(0 1)"/>
                </g>
            </g>
        </g>
    </g>
</svg>
