<svg xmlns="http://www.w3.org/2000/svg" width="21" height="20" viewBox="0 0 21 20">
    <defs>
        <filter id="sc4qeq4z3a">
            <feColorMatrix in="SourceGraphic" values="0 0 0 0 0.156863 0 0 0 0 0.317647 0 0 0 0 0.905882 0 0 0 1.000000 0"/>
        </filter>
    </defs>
    <g fill="none" fill-rule="evenodd">
        <g>
            <g filter="url(#sc4qeq4z3a)" transform="translate(-76 -525) translate(15 507)">
                <g fill="currentColor">
                    <path d="M14.525 1.667c1.514.016 2.955.64 3.988 1.724 1.032 1.084 1.566 2.536 1.478 3.972l-.002 6.064c.09 1.48-.444 2.931-1.476 4.015-1.033 1.085-2.474 1.708-3.996 1.725h-9.06C2.286 19.167 0 16.677 0 13.47V7.363c0-3.206 2.287-5.696 5.456-5.696zm-.017 1.486H5.456c-2.293 0-3.939 1.792-3.939 4.21v6.107c0 2.419 1.646 4.21 3.94 4.21h9.051c1.1-.011 2.145-.464 2.895-1.25.749-.788 1.136-1.841 1.07-2.96l.001-6.15c.065-1.075-.322-2.129-1.071-2.916-.75-.787-1.796-1.24-2.895-1.251zm1.516 3.995c.238.292.216.705-.036.97l-.082.075-4.107 3.219c-.998.761-2.376.8-3.416.11l-.161-.114-4.135-3.213c-.328-.255-.383-.723-.122-1.044.236-.292.652-.363.973-.182l.093.062L9.16 10.24c.463.353 1.097.38 1.58.086l.118-.08 4.1-3.213c.327-.257.804-.205 1.066.115z" transform="translate(61.5 18)"/>
                </g>
            </g>
        </g>
    </g>
</svg>
