<svg xmlns="http://www.w3.org/2000/svg" width="209" height="249" viewBox="0 0 209 249">
    <g fill="none" fill-rule="evenodd">
        <g>
            <g>
                <g>
                    <path fill="#F4D77D" d="M159.932 33.309H57.152v80.42h129.71v-55.56c0-13.71-12.06-24.86-26.93-24.86" transform="translate(-81 -113) translate(81 113) translate(2 36)"/>
                    <path stroke="#073B4C" stroke-width="3" d="M159.932 33.309H57.152v80.42h129.71v-55.56c0-13.71-12.06-24.86-26.93-24.86z" transform="translate(-81 -113) translate(81 113) translate(2 36)"/>
                    <path fill="#E9F4FC" d="M84.082 59.17v54.528h-53.86V59.17c-.017-6.488 2.419-12.743 6.82-17.51 4.899-5.346 11.819-8.387 19.07-8.38h2.3c10.664.081 20.189 6.69 24 16.65.381.977.695 1.98.94 3 .036.1.06.204.07.31.452 1.944.674 3.934.66 5.93" transform="translate(-81 -113) translate(81 113) translate(2 36)"/>
                    <path stroke="#073B4C" stroke-width="3" d="M84.082 59.17v54.528h-53.86V59.17c-.017-6.488 2.419-12.743 6.82-17.51 4.899-5.346 11.819-8.387 19.07-8.38h2.3c10.664.081 20.189 6.69 24 16.65.381.977.695 1.98.94 3 .036.1.06.204.07.31.452 1.944.674 3.934.66 5.93z" transform="translate(-81 -113) translate(81 113) translate(2 36)"/>
                    <path fill="#FFF" d="M30.232 115.615h53.85v47.72c0 13.553-10.987 24.54-24.54 24.54h-4.78c-13.553 0-24.54-10.987-24.54-24.54v-47.72h.01z" transform="translate(-81 -113) translate(81 113) translate(2 36)"/>
                    <path stroke="#073B4C" stroke-width="3" d="M30.232 115.615h53.85v47.72c0 13.553-10.987 24.54-24.54 24.54h-4.78c-13.553 0-24.54-10.987-24.54-24.54v-47.72h.01z" transform="translate(-81 -113) translate(81 113) translate(2 36)"/>
                    <path fill="#F4D77D" d="M70.462 157.46h-26.61c-.276 0-.5-.226-.5-.5 0-.277.224-.5.5-.5h26.61c.276 0 .5.223.5.5 0 .274-.224.5-.5.5" transform="translate(-81 -113) translate(81 113) translate(2 36)"/>
                    <path stroke="#215B58" d="M70.462 157.46h-26.61c-.276 0-.5-.226-.5-.5 0-.277.224-.5.5-.5h26.61c.276 0 .5.223.5.5 0 .274-.224.5-.5.5z" transform="translate(-81 -113) translate(81 113) translate(2 36)"/>
                    <path fill="#E9F4FC" d="M112.992 63.47c2.844 0 5.15 2.305 5.15 5.15 0 2.843-2.306 5.15-5.15 5.15-2.844 0-5.15-2.307-5.15-5.15 0-2.845 2.306-5.15 5.15-5.15" transform="translate(-81 -113) translate(81 113) translate(2 36)"/>
                    <path stroke="#073B4C" stroke-width="3" d="M112.992 63.47c2.844 0 5.15 2.305 5.15 5.15 0 2.843-2.306 5.15-5.15 5.15-2.844 0-5.15-2.307-5.15-5.15 0-2.845 2.306-5.15 5.15-5.15z" transform="translate(-81 -113) translate(81 113) translate(2 36)"/>
                    <path fill="#F4D77D" d="M131.922 4.899L112.992 13.42 112.992 0.109 131.922 0.109z" transform="translate(-81 -113) translate(81 113) translate(2 36)"/>
                    <path stroke="#073B4C" stroke-width="3" d="M131.922 4.899L112.992 13.42 112.992 0.109 131.922 0.109z" transform="translate(-81 -113) translate(81 113) translate(2 36)"/>
                    <path fill="#073B4C" d="M102.062 118.91L123.762 118.91 123.762 113.729 102.062 113.729z" transform="translate(-81 -113) translate(81 113) translate(2 36)"/>
                    <path stroke="#073B4C" stroke-width="3" d="M102.062 118.91L123.762 118.91 123.762 113.729 102.062 113.729z" transform="translate(-81 -113) translate(81 113) translate(2 36)"/>
                    <g>
                        <path fill="#F4D77D" d="M0.382 93.304L0.382 0.815 13.442 0.815 13.442 93.304" transform="translate(-81 -113) translate(81 113) translate(2 36) translate(106 118.095)"/>
                        <path stroke="#073B4C" stroke-width="3" d="M0.382 93.304L0.382 0.815 13.442 0.815 13.442 93.304" transform="translate(-81 -113) translate(81 113) translate(2 36) translate(106 118.095)"/>
                    </g>
                    <path fill="#FFD166" d="M166.842 39.229h-33c-.252-.005-.455-.208-.46-.46.005-.25.21-.45.46-.45h33c.25 0 .45.202.45.45 0 .25-.2.455-.45.46" transform="translate(-81 -113) translate(81 113) translate(2 36)"/>
                    <path stroke="#073B4C" d="M166.842 39.229h-33c-.252-.005-.455-.208-.46-.46.005-.25.21-.45.46-.45h33c.25 0 .45.202.45.45 0 .25-.2.455-.45.46z" transform="translate(-81 -113) translate(81 113) translate(2 36)"/>
                    <path fill="#F4D77D" d="M127.512 39.229h-3.83c-.254 0-.46-.206-.46-.46 0-.248.201-.45.45-.45h3.84c.25-.005.454.19.46.44v.01c0 .254-.206.46-.46.46" transform="translate(-81 -113) translate(81 113) translate(2 36)"/>
                    <path stroke="#073B4C" d="M127.512 39.229h-3.83c-.254 0-.46-.206-.46-.46 0-.248.201-.45.45-.45h3.84c.25-.005.454.19.46.44v.01c0 .254-.206.46-.46.46z" transform="translate(-81 -113) translate(81 113) translate(2 36)"/>
                    <g stroke="#073B4C" stroke-width="3">
                        <path d="M112.912 0.669L112.912 57.834" transform="translate(-81 -113) translate(81 113) translate(2 36) translate(0 6.095)"/>
                        <path stroke-linecap="round" stroke-linejoin="round" d="M0.515 205.49L204.415 205.49" transform="translate(-81 -113) translate(81 113) translate(2 36) translate(0 6.095)"/>
                    </g>
                </g>
                <g>
                    <path fill="#073B4C" fill-rule="nonzero" d="M35 44c5.523 0 10 4.477 10 10-.004 5.521-4.479 9.996-10 10-5.523 0-10-4.477-10-10s4.477-10 10-10zm0 1.538c-4.673 0-8.462 3.789-8.462 8.462s3.789 8.462 8.462 8.462 8.462-3.789 8.462-8.461c-.004-4.673-3.79-8.46-8.463-8.463z" transform="translate(-81 -113) translate(81 113) translate(1 1)"/>
                    <path fill="#073B4C" d="M53.5 27c.782 0 1.425.633 1.494 1.442l.006.145v3.826C55 33.29 54.328 34 53.5 34c-.782 0-1.425-.633-1.494-1.442L52 32.413v-3.826c0-.877.672-1.587 1.5-1.587zm6.915-3c.875 0 1.585.671 1.585 1.5 0 .783-.634 1.425-1.44 1.494l-.145.006h-3.83C55.71 27 55 26.329 55 25.5c0-.783.634-1.425 1.44-1.494l.145-.006h3.83zm-10 0c.875 0 1.585.671 1.585 1.5 0 .783-.634 1.425-1.44 1.494l-.145.006h-3.83C45.71 27 45 26.329 45 25.5c0-.783.634-1.425 1.44-1.494l.145-.006h3.83zm3.085-7c.782 0 1.425.633 1.494 1.442l.006.145v3.826C55 23.29 54.328 24 53.5 24c-.782 0-1.425-.633-1.494-1.442L52 22.413v-3.826c0-.877.672-1.587 1.5-1.587z" transform="translate(-81 -113) translate(81 113) translate(1 1)"/>
                    <path fill="#073B4C" d="M12.5 131c.782 0 1.425.633 1.494 1.442l.006.145v3.826c0 .877-.672 1.587-1.5 1.587-.782 0-1.425-.633-1.494-1.442l-.006-.145v-3.826c0-.877.672-1.587 1.5-1.587zm6.915-3c.875 0 1.585.671 1.585 1.5 0 .783-.634 1.425-1.44 1.494l-.145.006h-3.83c-.875 0-1.585-.671-1.585-1.5 0-.783.634-1.425 1.44-1.494l.145-.006h3.83zm-10 0c.875 0 1.585.671 1.585 1.5 0 .783-.634 1.425-1.44 1.494l-.145.006h-3.83C4.71 131 4 130.329 4 129.5c0-.783.634-1.425 1.44-1.494l.145-.006h3.83zm3.085-7c.782 0 1.425.633 1.494 1.442l.006.145v3.826c0 .877-.672 1.587-1.5 1.587-.782 0-1.425-.633-1.494-1.442l-.006-.145v-3.826c0-.877.672-1.587 1.5-1.587z" transform="translate(-81 -113) translate(81 113) translate(1 1) rotate(30 12.5 129.5)"/>
                    <path fill="#215B58" d="M16 34c.521 0 .95.362.996.824l.004.083v2.186c0 .501-.448.907-1 .907-.521 0-.95-.362-.996-.824L15 37.093v-2.186c0-.501.448-.907 1-.907zm4.094-2c.5 0 .906.447.906 1 0 .522-.362.95-.823.996l-.083.004h-2.188c-.5 0-.906-.447-.906-1 0-.522.362-.95.823-.996l.083-.004h2.188zm-6 0c.5 0 .906.447.906 1 0 .522-.362.95-.823.996l-.083.004h-2.188c-.5 0-.906-.447-.906-1 0-.522.362-.95.823-.996l.083-.004h2.188zM16 28c.521 0 .95.362.996.824l.004.083v2.186c0 .501-.448.907-1 .907-.521 0-.95-.362-.996-.824L15 31.093v-2.186c0-.501.448-.907 1-.907z" transform="translate(-81 -113) translate(81 113) translate(1 1)"/>
                    <path fill="#073B4C" d="M49 90c.521 0 .95.362.996.824l.004.083v2.186c0 .501-.448.907-1 .907-.521 0-.95-.362-.996-.824L48 93.093v-2.186c0-.501.448-.907 1-.907zm4.094-2c.5 0 .906.447.906 1 0 .522-.362.95-.823.996l-.083.004h-2.188c-.5 0-.906-.447-.906-1 0-.522.362-.95.823-.996l.083-.004h2.188zm-6 0c.5 0 .906.447.906 1 0 .522-.362.95-.823.996l-.083.004h-2.188c-.5 0-.906-.447-.906-1 0-.522.362-.95.823-.996l.083-.004h2.188zM49 84c.521 0 .95.362.996.824l.004.083v2.186c0 .501-.448.907-1 .907-.521 0-.95-.362-.996-.824L48 87.093v-2.186c0-.501.448-.907 1-.907z" transform="translate(-81 -113) translate(81 113) translate(1 1) rotate(-30 49 89)"/>
                    <path fill="#073B4C" fill-rule="nonzero" d="M163 0c5.523 0 10 4.477 10 10-.004 5.521-4.479 9.996-10 10-5.523 0-10-4.477-10-10s4.477-10 10-10zm0 1.538c-4.673 0-8.462 3.789-8.462 8.462s3.789 8.462 8.462 8.462 8.462-3.789 8.462-8.461c-.004-4.673-3.79-8.46-8.463-8.463z" transform="translate(-81 -113) translate(81 113) translate(1 1)"/>
                    <path fill="#073B4C" d="M182.5 39c.782 0 1.425.633 1.494 1.442l.006.145v3.826c0 .877-.672 1.587-1.5 1.587-.782 0-1.425-.633-1.494-1.442l-.006-.145v-3.826c0-.877.672-1.587 1.5-1.587zm6.915-3c.875 0 1.585.671 1.585 1.5 0 .783-.634 1.425-1.44 1.494l-.145.006h-3.83c-.875 0-1.585-.671-1.585-1.5 0-.783.634-1.425 1.44-1.494l.145-.006h3.83zm-10 0c.875 0 1.585.671 1.585 1.5 0 .783-.634 1.425-1.44 1.494l-.145.006h-3.83c-.875 0-1.585-.671-1.585-1.5 0-.783.634-1.425 1.44-1.494l.145-.006h3.83zm3.085-7c.782 0 1.425.633 1.494 1.442l.006.145v3.826c0 .877-.672 1.587-1.5 1.587-.782 0-1.425-.633-1.494-1.442l-.006-.145v-3.826c0-.877.672-1.587 1.5-1.587z" transform="translate(-81 -113) translate(81 113) translate(1 1) rotate(45 182.5 37.5)"/>
                    <path fill="#073B4C" d="M61.5 115c.782 0 1.425.633 1.494 1.442l.006.145v3.826c0 .877-.672 1.587-1.5 1.587-.782 0-1.425-.633-1.494-1.442l-.006-.145v-3.826c0-.877.672-1.587 1.5-1.587zm6.915-3c.875 0 1.585.671 1.585 1.5 0 .783-.634 1.425-1.44 1.494l-.145.006h-3.83c-.875 0-1.585-.671-1.585-1.5 0-.783.634-1.425 1.44-1.494l.145-.006h3.83zm-10 0c.875 0 1.585.671 1.585 1.5 0 .783-.634 1.425-1.44 1.494l-.145.006h-3.83c-.875 0-1.585-.671-1.585-1.5 0-.783.634-1.425 1.44-1.494l.145-.006h3.83zm3.085-7c.782 0 1.425.633 1.494 1.442l.006.145v3.826c0 .877-.672 1.587-1.5 1.587-.782 0-1.425-.633-1.494-1.442l-.006-.145v-3.826c0-.877.672-1.587 1.5-1.587z" transform="translate(-81 -113) translate(81 113) translate(1 1) rotate(45 61.5 113.5)"/>
                    <path fill="#073B4C" d="M141 26c.521 0 .95.362.996.824l.004.083v2.186c0 .501-.448.907-1 .907-.521 0-.95-.362-.996-.824l-.004-.083v-2.186c0-.501.448-.907 1-.907zm4.094-2c.5 0 .906.447.906 1 0 .522-.362.95-.823.996l-.083.004h-2.188c-.5 0-.906-.447-.906-1 0-.522.362-.95.823-.996l.083-.004h2.188zm-6 0c.5 0 .906.447.906 1 0 .522-.362.95-.823.996l-.083.004h-2.188c-.5 0-.906-.447-.906-1 0-.522.362-.95.823-.996l.083-.004h2.188zM141 20c.521 0 .95.362.996.824l.004.083v2.186c0 .501-.448.907-1 .907-.521 0-.95-.362-.996-.824l-.004-.083v-2.186c0-.501.448-.907 1-.907z" transform="translate(-81 -113) translate(81 113) translate(1 1) rotate(45 141 25)"/>
                </g>
            </g>
        </g>
    </g>
</svg>
