<svg width="150" height="150" viewBox="0 0 150 150" xmlns="http://www.w3.org/2000/svg">
    <g fill="none" fill-rule="evenodd">
        <path d="M24.854 69.157h38.047c8.642 0 11.776.9 14.936 2.59s5.639 4.169 7.329 7.328c1.69 3.16 2.59 6.294 2.59 14.936v24.894c0 8.642-.9 11.776-2.59 14.936a17.617 17.617 0 0 1-7.33 7.329c-3.159 1.69-6.293 2.59-14.935 2.59H24.854c-8.642 0-11.776-.9-14.936-2.59a17.617 17.617 0 0 1-7.328-7.33C.9 130.682 0 127.548 0 118.906V94.011c0-8.642.9-11.776 2.59-14.936s4.169-5.639 7.328-7.328c3.16-1.69 6.294-2.59 14.936-2.59z" fill="#E9F4FC"/>
        <path d="M73.784 69.157c7.716 0 13.971 6.287 13.971 14.043v46.516c0 7.756-6.255 14.043-13.97 14.043H13.97C6.255 143.76 0 137.472 0 129.716V83.2c0-7.756 6.255-14.043 13.971-14.043h59.813zm0 2.194H13.971c-6.445 0-11.682 5.2-11.786 11.653l-.002.196v46.516c0 6.479 5.173 11.743 11.593 11.847l.195.002h59.813c6.445 0 11.682-5.2 11.787-11.653l.001-.196V83.2c0-6.479-5.173-11.743-11.593-11.847l-.195-.002z" fill="#073B4C" fill-rule="nonzero"/>
        <path d="M10.735 69.157H77.02c5.929 0 10.735 4.806 10.735 10.735V90.66H0V79.892c0-5.929 4.806-10.735 10.735-10.735z" fill="#FF008D"/>
        <path d="M77.059 69.157c5.907 0 10.696 4.814 10.696 10.752V90.66H0V79.909c0-5.938 4.789-10.752 10.697-10.752h66.362zm0 2.194H10.697c-4.652 0-8.433 3.75-8.513 8.407l-.001.15v8.558h83.39v-8.557c0-4.676-3.732-8.476-8.365-8.556l-.15-.002z" fill="#073B4C" fill-rule="nonzero"/>
        <g transform="translate(26.53 63.025)">
            <rect fill="#E9F4FC" width="9.184" height="17.373" rx="4.592"/>
            <path d="M4.592 0c2.536 0 4.592 2.194 4.592 4.9v7.573c0 2.706-2.056 4.9-4.592 4.9-2.536 0-4.592-2.194-4.592-4.9V4.9C0 2.194 2.056 0 4.592 0zm0 2.227C3.24 2.227 2.138 3.37 2.089 4.8l-.002.1v7.573c0 1.476 1.122 2.673 2.505 2.673 1.352 0 2.453-1.143 2.503-2.573l.001-.1V4.9c0-1.476-1.12-2.673-2.504-2.673z" fill="#073B4C" fill-rule="nonzero"/>
        </g>
        <g transform="translate(52.04 63.025)">
            <rect fill="#E9F4FC" width="9.184" height="17.373" rx="4.592"/>
            <path d="M4.592 0c2.536 0 4.592 2.194 4.592 4.9v7.573c0 2.706-2.056 4.9-4.592 4.9-2.536 0-4.592-2.194-4.592-4.9V4.9C0 2.194 2.056 0 4.592 0zm0 2.227C3.24 2.227 2.138 3.37 2.089 4.8l-.002.1v7.573c0 1.476 1.122 2.673 2.505 2.673 1.352 0 2.453-1.143 2.503-2.573l.001-.1V4.9c0-1.476-1.12-2.673-2.504-2.673z" fill="#073B4C" fill-rule="nonzero"/>
        </g>
        <g transform="translate(9.184 95.728)">
            <rect fill="#FFF" width="69.388" height="39.856" rx="11.224"/>
            <path d="M63.715 0c3.133 0 5.673 2.55 5.673 5.694v28.468c0 3.145-2.54 5.694-5.673 5.694H5.673C2.54 39.856 0 37.306 0 34.162V5.694C0 2.549 2.54 0 5.673 0h58.042zm0 1.752H5.673a3.934 3.934 0 0 0-3.926 3.825l-.001.117v28.468a3.935 3.935 0 0 0 3.811 3.94l.116.002h58.042a3.934 3.934 0 0 0 3.925-3.826l.002-.116V5.694a3.935 3.935 0 0 0-3.812-3.94l-.115-.002z" fill="#073B4C" fill-rule="nonzero"/>
        </g>
        <g transform="translate(16.327 100.837)">
            <ellipse fill="#E9F4FC" cx="3.054" cy="3.023" rx="3.054" ry="3.023"/>
            <ellipse fill="#E9F4FC" cx="11.341" cy="3.023" rx="3.054" ry="3.023"/>
            <ellipse fill="#B5EDFF" cx="19.629" cy="3.023" rx="3.054" ry="3.023"/>
            <ellipse fill="#B5EDFF" cx="19.629" cy="11.227" rx="3.054" ry="3.023"/>
            <ellipse fill="#B5EDFF" cx="27.916" cy="3.023" rx="3.054" ry="3.023"/>
            <ellipse fill="#B5EDFF" cx="27.916" cy="11.227" rx="3.054" ry="3.023"/>
            <ellipse fill="#B5EDFF" cx="36.203" cy="3.023" rx="3.054" ry="3.023"/>
            <ellipse fill="#B5EDFF" cx="36.203" cy="11.227" rx="3.054" ry="3.023"/>
            <ellipse fill="#B5EDFF" cx="44.491" cy="3.023" rx="3.054" ry="3.023"/>
            <ellipse fill="#B5EDFF" cx="44.491" cy="11.227" rx="3.054" ry="3.023"/>
            <ellipse fill="#B5EDFF" cx="52.778" cy="3.023" rx="3.054" ry="3.023"/>
            <ellipse fill="#B5EDFF" cx="52.778" cy="11.227" rx="3.054" ry="3.023"/>
            <ellipse fill="#B5EDFF" cx="3.054" cy="11.227" rx="3.054" ry="3.023"/>
            <ellipse fill="#B5EDFF" cx="11.341" cy="11.227" rx="3.054" ry="3.023"/>
            <ellipse fill="#B5EDFF" cx="19.629" cy="19.431" rx="3.054" ry="3.023"/>
            <ellipse fill="#B5EDFF" cx="27.916" cy="19.431" rx="3.054" ry="3.023"/>
            <ellipse fill="#B5EDFF" cx="36.203" cy="19.431" rx="3.054" ry="3.023"/>
            <ellipse fill="#B5EDFF" cx="44.491" cy="19.431" rx="3.054" ry="3.023"/>
            <ellipse fill="#B5EDFF" cx="52.778" cy="19.431" rx="3.054" ry="3.023"/>
            <ellipse fill="#B5EDFF" cx="3.054" cy="19.431" rx="3.054" ry="3.023"/>
            <ellipse fill="#B5EDFF" cx="11.341" cy="19.431" rx="3.054" ry="3.023"/>
            <ellipse fill="#B5EDFF" cx="3.054" cy="27.635" rx="3.054" ry="3.023"/>
            <ellipse fill="#B5EDFF" cx="11.341" cy="27.635" rx="3.054" ry="3.023"/>
            <ellipse fill="#B5EDFF" cx="19.629" cy="27.635" rx="3.054" ry="3.023"/>
            <ellipse fill="#B5EDFF" cx="27.916" cy="27.635" rx="3.054" ry="3.023"/>
            <ellipse fill="#B5EDFF" cx="36.203" cy="27.635" rx="3.054" ry="3.023"/>
            <ellipse fill="#B5EDFF" cx="44.298" cy="27.635" rx="3.054" ry="3.023"/>
            <ellipse fill="#B5EDFF" cx="53.068" cy="27.635" rx="3.054" ry="3.023"/>
        </g>
        <g>
            <path d="M24.632 36.307c-.225-1.747 2.072-3.653 5.301-4.03 3.229-.378 5.94.942 6.165 2.688.225 1.747-2.073 3.653-5.301 4.03-3.229.379-5.94-.942-6.165-2.688zM35.068 26.391c1.309.683 1.782 2.785.91 4.705l-.045.097-.047.096-.053.1-.152-.104c-1.228-.808-2.867-1.274-4.629-1.318l-.252-.003h-.065l.01-.085c.044-.333.125-.668.242-.995l.075-.196.083-.194c.862-1.899 2.644-2.77 3.923-2.103zM27.519 28.547a5.4 5.4 0 0 1 .828 1.387l.079.207.023.07-.235.052c-1.567.373-2.935 1.074-3.902 2l-.158.155-.106.114-.027-.024-.161-.16-.156-.167-.15-.177c-1.387-1.694-1.511-3.821-.455-4.731 1.045-.9 3.04-.412 4.42 1.274z" fill="#FFF" fill-rule="nonzero"/>
            <path d="M21.363 26.137c-1.907 1.642-1.716 4.904.25 7.306.327.399.687.756 1.074 1.067a3.926 3.926 0 0 0-.406 2.284c.382 2.977 4.107 4.79 8.211 4.31 4.104-.48 7.26-3.098 6.877-6.075a3.951 3.951 0 0 0-.802-1.913c.201-.298.38-.618.533-.956 1.245-2.744.526-5.94-1.753-7.13-2.307-1.205-5.15.186-6.404 2.95a6.894 6.894 0 0 0-.12.281 7.364 7.364 0 0 0-.444-.602c-1.973-2.41-5.098-3.174-7.016-1.522zm2.728 10.445c-.224-1.746 2.073-3.653 5.302-4.03 3.229-.378 5.94.942 6.165 2.689.224 1.746-2.073 3.652-5.302 4.03-3.228.378-5.94-.942-6.165-2.689zm10.437-9.916c1.309.684 1.782 2.785.91 4.705l-.045.097-.047.096-.053.1-.152-.103c-1.229-.809-2.867-1.275-4.629-1.318l-.252-.004h-.065l.01-.085c.044-.333.125-.667.242-.995l.074-.196.084-.194c.861-1.899 2.643-2.77 3.923-2.103zm-7.55 2.157a5.4 5.4 0 0 1 .829 1.387l.078.207.024.068-.235.054c-1.567.372-2.935 1.073-3.903 1.998l-.157.157-.107.113-.026-.024-.161-.16-.156-.167-.15-.176c-1.387-1.694-1.512-3.822-.455-4.732 1.044-.9 3.04-.412 4.42 1.275z" fill="#073B4C" fill-rule="nonzero"/>
            <path d="M82.452 43.036c-6.364-13.38-14.948-14.202-25.753-2.462-16.207 17.608-23.91 21.187-26.914 1.938" stroke="#073B4C" stroke-width="1.837" stroke-linecap="round" stroke-dasharray="4.286"/>
        </g>
        <g fill-rule="nonzero">
            <path d="m128.16 45.72 21.818 20.631-.102 70.722c-.005 3.638-2.976 6.59-6.636 6.596l-62.132.088c-3.66.006-6.623-2.939-6.618-6.576l.122-84.798c.005-3.637 2.977-6.59 6.637-6.596l46.91-.066z" fill="#FFF"/>
            <path d="m130.907 78.236-40.592.058c-2.91.004-5.283 2.3-5.39 5.167l-.003.192-.05 34.577c-.004 2.892 2.3 5.244 5.184 5.341l.193.003 40.593-.058c2.91-.004 5.283-2.3 5.389-5.167l.004-.192.05-34.577c.004-2.892-2.3-5.244-5.185-5.34l-.193-.004z" fill="#E9F4FC"/>
            <path d="m128.16 45.72 21.818 20.631-.102 70.722c-.005 3.638-2.976 6.59-6.636 6.596l-62.132.088c-3.66.006-6.623-2.939-6.618-6.576l.122-84.798c.005-3.637 2.977-6.59 6.637-6.596l46.91-.066zm-.832 2.06-46.082.066c-2.455.003-4.46 1.936-4.56 4.352l-.003.182-.122 84.798c-.004 2.44 1.935 4.426 4.366 4.518l.184.003 62.131-.088c2.455-.004 4.46-1.936 4.56-4.353l.003-.182.1-69.838-20.577-19.458zm3.582 28.398c4.118-.006 7.451 3.307 7.445 7.399l-.05 34.577c-.005 4.093-3.348 7.415-7.466 7.42l-40.593.058c-4.117.006-7.45-3.306-7.445-7.399l.05-34.577c.006-4.092 3.349-7.414 7.467-7.42l40.592-.058zm-24.648 2.093-15.947.023c-2.91.004-5.283 2.3-5.39 5.167l-.003.192-.05 34.577c-.004 2.892 2.3 5.244 5.184 5.341l.193.003 15.948-.023.065-45.28zm14.911-.021-12.84.018-.065 45.28 12.84-.018.065-45.28zm9.734-.014-7.663.011-.065 45.28 7.663-.01c2.91-.005 5.283-2.301 5.389-5.168l.004-.192.05-34.577c.004-2.892-2.3-5.244-5.185-5.34l-.193-.004zm-20.276-14.173a1.029 1.029 0 0 1 .103 2.053l-.106.006-27.338.039a1.029 1.029 0 0 1-.102-2.053l.105-.006 27.338-.039zm-10.76-6.57a1.029 1.029 0 0 1 .103 2.052l-.106.006-16.568.023a1.029 1.029 0 0 1-.103-2.052l.106-.006 16.568-.023z" fill="#073B4C"/>
            <path d="M128.45 45.714 150 66.097v1.83h-16.58c-3.663 0-6.632-2.947-6.632-6.582V45.714h1.662zm18.306 20.156L128.86 48.943v12.402c0 2.438 1.943 4.426 4.377 4.521l.183.004h13.336z" fill="#073B4C"/>
            <path d="m146.737 65.864-17.859-16.913-.017 12.41c-.004 2.44 1.935 4.427 4.366 4.519l.183.003 13.327-.019z" fill="#E9F4FC"/>
        </g>
    </g>
</svg>