<svg width="150" height="150" viewBox="0 0 150 150" xmlns="http://www.w3.org/2000/svg">
    <g fill="none" fill-rule="evenodd">
        <g transform="translate(21.75 45.125)" fill-rule="nonzero">
            <path fill="#E9F4FC" d="M3.97 1.175h91.177l3.69 3.139v7.223H3.97L.8 8.375z"/>
            <path d="M98.034 73.726H6.428A5.263 5.263 0 0 1 1.16 68.47V16.45a5.263 5.263 0 0 1 5.27-5.256h91.605c2.91 0 5.27 2.353 5.27 5.257v52.02a5.263 5.263 0 0 1-5.27 5.256z" fill="#FFF"/>
            <path d="M98.034 11.193H6.428L1.504 9.43s-.345 5.654-.345 7.019v5.762h102.144V16.45a5.263 5.263 0 0 0-5.269-5.257zM6.428 73.726h91.606c2.91 0 5.27-2.353 5.27-5.257V62.71H1.158v5.76a5.263 5.263 0 0 0 5.27 5.256z" fill="#E9F4FC"/>
            <path d="M106.439 32.413H87.232a10.081 10.081 0 0 0-7.122 2.942 10.035 10.035 0 0 0-2.95 7.104c0 5.55 4.51 10.05 10.072 10.05h19.207a1.91 1.91 0 0 0 1.91-1.906V34.306a1.908 1.908 0 0 0-1.91-1.893z" fill="#FFD166"/>
            <ellipse fill="#E9F4FC" cx="87.591" cy="42.459" rx="4.676" ry="4.666"/>
            <path d="M87.59 48.277a5.83 5.83 0 0 1-5.388-3.59 5.807 5.807 0 0 1 1.262-6.34 5.84 5.84 0 0 1 6.354-1.262c2.18.9 3.6 3.021 3.6 5.374-.004 3.21-2.61 5.812-5.827 5.818zm0-9.332a3.518 3.518 0 0 0-3.522 3.514 3.518 3.518 0 0 0 3.523 3.515 3.518 3.518 0 0 0 3.522-3.515 3.524 3.524 0 0 0-3.522-3.514zM2.31 5.927a4.116 4.116 0 0 0 4.118 4.106h11.643v2.3H6.278s-1.44-.092-2.308-.494l-.218-.1A6.431 6.431 0 0 1 0 5.927h2.31z" fill="#073B4C"/>
            <path d="M2.31 20.114V6.406A4.116 4.116 0 0 1 6.429 2.3h87.47a4.116 4.116 0 0 1 4.11 4.106v5.13h2.305V6.409a6.42 6.42 0 0 0-2.721-5.233l-.159-.113a6.625 6.625 0 0 0-2.729-1.01A8.59 8.59 0 0 0 93.893 0H6.278S4.838.095 3.97.494l-.218.103A6.426 6.426 0 0 0 0 6.406v13.708h2.31z" fill="#073B4C"/>
            <path d="M108.604 32.158a3.047 3.047 0 0 0-2.165-.896h-1.982V16.45a6.42 6.42 0 0 0-2.724-5.231l-.158-.113a6.625 6.625 0 0 0-2.73-1.01c-.269-.031-.54-.049-.81-.052H16.291v2.3h81.742a4.113 4.113 0 0 1 4.115 4.106v4.608H32.67a1.152 1.152 0 0 0 0 2.3h69.48v7.901H87.23a11.307 11.307 0 0 0-10.095 6.309l-.019.037-.045.097c-.215.457-.4.927-.553 1.409l-.016.05a11.18 11.18 0 0 0 1.701 9.945 11.235 11.235 0 0 0 9.028 4.546h14.92v7.902H77.41a1.152 1.152 0 0 0 0 2.3h24.74v4.61a4.104 4.104 0 0 1-1.204 2.908 4.123 4.123 0 0 1-2.912 1.206H6.428a4.116 4.116 0 0 1-4.117-4.106v-4.613h62.324a1.152 1.152 0 0 0 0-2.3H2.311V23.36h17.483a1.15 1.15 0 0 0 1.045-1.741 1.155 1.155 0 0 0-1.045-.559H2.31v-3.509H0v50.918c.004 3.54 2.881 6.406 6.428 6.406h91.606c3.545-.003 6.419-2.869 6.423-6.406V53.652h1.982a3.06 3.06 0 0 0 3.061-3.054V34.3a3.03 3.03 0 0 0-.896-2.142zm-1.41 18.445a.755.755 0 0 1-.755.754H87.232a8.927 8.927 0 0 1-7.84-4.658c-.069-.126-.135-.262-.198-.383-.126-.263-.24-.526-.34-.789a8.918 8.918 0 0 1 0-6.114 10.162 10.162 0 0 1 .538-1.172 8.921 8.921 0 0 1 7.84-4.66h19.207a.758.758 0 0 1 .756.754v16.268z" fill="#073B4C"/>
        </g>
        <ellipse fill="#FFD166" cx="74.942" cy="124.476" rx="23.192" ry="23.226"/>
        <path d="M74.942 99C60.89 99 49.5 110.407 49.5 124.476c0 14.069 11.39 25.476 25.442 25.476s25.443-11.407 25.443-25.476c0-14.07-11.39-25.476-25.443-25.476zm0 2.25c12.81 0 23.193 10.399 23.193 23.226s-10.384 23.226-23.193 23.226c-12.808 0-23.192-10.399-23.192-23.226s10.384-23.226 23.192-23.226z" fill="#073B4C" fill-rule="nonzero"/>
        <path d="M78.937 123.676c1.418.93 2.37 2.634 2.371 4.578 0 2.71-1.842 4.984-4.285 5.29l-.348.043v2.094c0 .852-.63 1.545-1.403 1.545-.774 0-1.404-.693-1.404-1.545v-2.103h-3.255c-.415 0-.789-.2-1.046-.517l2.569-2.573h4.337c1.118 0 2.027-1.002 2.027-2.234 0-1.187-.846-2.161-1.91-2.229l2.347-2.349zm-3.665-11.95c.774 0 1.403.693 1.403 1.545v2.103h2.595c.774 0 1.404.693 1.404 1.545 0 .344-.103.661-.275.918l5.87-5.878.088-.077a.794.794 0 0 1 1.035.077c.31.31.31.815 0 1.125l-23.826 23.86-.098.084a.791.791 0 0 1-1.024-.084.797.797 0 0 1 0-1.125l7.618-7.63 1.139-1.143 1.152-1.153c-2.159-.533-3.776-2.66-3.776-5.195 0-2.936 2.168-5.324 4.834-5.324h.457v-2.103c0-.852.63-1.545 1.404-1.545zm4.095 7.143.627-.626a1.3 1.3 0 0 1-.724.221h-5.859c-1.118 0-2.028 1.002-2.028 2.234 0 1.231.91 2.234 2.028 2.234l1.898-.001 2.913-2.916 1.145-1.146z" fill="#073B4C"/>
        <path d="M115.445 13.313c-.733-2.015-4.335-2.812-8.106-1.44-3.77 1.373-6.018 4.299-5.284 6.314.733 2.015 4.335 2.812 8.106 1.44 3.77-1.373 6.018-4.299 5.284-6.314zM98.375 8.334c-1.059 1.462-.4 3.999 1.639 5.597l.104.08.106.078.115.079.109-.196c.9-1.553 2.444-2.962 4.361-3.98l.277-.144.072-.035-.059-.087a5.992 5.992 0 0 0-.826-.944l-.193-.171-.2-.164c-2.016-1.58-4.47-1.542-5.505-.113zM107.906 6.504a6.45 6.45 0 0 0-.134 1.96l.03.267.013.087.289-.072c1.936-.461 3.837-.457 5.423.011l.261.082.181.064.016-.04.088-.262.077-.267.067-.274c.577-2.6-.48-4.972-2.155-5.374-1.657-.398-3.582 1.23-4.156 3.818z" fill="#FFF" fill-rule="nonzero"/>
        <path d="M113.337.498c3.023.726 4.645 4.364 3.827 8.05a8.744 8.744 0 0 1-.584 1.746c.792.575 1.394 1.328 1.73 2.25 1.25 3.434-1.837 7.452-6.63 9.197-4.792 1.744-9.74.65-10.99-2.785a4.722 4.722 0 0 1-.19-2.513 8.135 8.135 0 0 1-1.125-.741c-2.913-2.284-3.915-6.143-2.072-8.687 1.867-2.578 5.78-2.64 8.715-.339.099.078.196.157.29.238.035-.298.085-.598.152-.897.82-3.698 3.835-6.25 6.877-5.519zm2.858 12.815c-.733-2.015-4.335-2.812-8.106-1.44-3.77 1.373-6.018 4.299-5.284 6.314.733 2.015 4.335 2.812 8.106 1.44 3.77-1.373 6.018-4.299 5.284-6.314zm-17.07-4.979c-1.059 1.462-.4 3.999 1.639 5.597l.104.08.106.078.115.079.109-.196c.9-1.553 2.444-2.962 4.361-3.98l.277-.144.072-.035-.059-.087a5.992 5.992 0 0 0-.826-.944l-.193-.171-.2-.164c-2.016-1.58-4.47-1.542-5.505-.113zm9.531-1.83a6.45 6.45 0 0 0-.134 1.96l.03.267.013.087.289-.072c1.936-.461 3.837-.457 5.423.011l.261.082.181.064.016-.04.088-.262.077-.267.067-.274c.577-2.6-.48-4.972-2.155-5.374-1.657-.398-3.582 1.23-4.156 3.818z" fill="#073B4C" fill-rule="nonzero"/>
        <path d="M55.5 52.5c-.5-18 8.5-23.625 27-16.875 27.75 10.125 38.25 9.75 30.75-12.75" stroke="#073B4C" stroke-width="2.25" stroke-linecap="round" stroke-dasharray="5.25"/>
    </g>
</svg>
