<svg width="131" height="120" viewBox="0 0 131 120" xmlns="http://www.w3.org/2000/svg" xmlns:xlink="http://www.w3.org/1999/xlink">
    <defs>
        <path id="o7paq2bm9a" d="M0 0h30v30H0z"/>
    </defs>
    <g fill="none" fill-rule="evenodd">
        <path d="M45.189 59.038c2.768 1.724 6.479 1.954 9.447.607a.793.793 0 0 1 1.053.39.803.803 0 0 1-.391 1.062 11.67 11.67 0 0 1-4.803 1.03c-2.155 0-4.301-.583-6.144-1.733a.79.79 0 0 1-.255-1.092.792.792 0 0 1 1.093-.264" fill="#073B4C"/>
        <path d="M55.298 61.097a.803.803 0 0 0 .39-1.061.793.793 0 0 0-1.052-.391c-2.969 1.347-6.679 1.117-9.447-.607a.792.792 0 0 0-1.093.264.79.79 0 0 0 .255 1.092c1.843 1.15 3.99 1.732 6.144 1.732a11.67 11.67 0 0 0 4.803-1.03m-32.642 6.232c-.638-8.13 1.142-15.135 4.437-20.649 2.577-4.316 6.08-7.723 10.077-10.053 3.566-2.09 7.532-3.311 11.577-3.56l.152-.071.423.056c.957-6.598 3-11.146 5.37-11.146 6.757 0 12.678 3.933 15.997 9.853h19.468c12.87 0 24.639 10.557 28.78 23.1 1.875 5.672 2.178 11.751.32 17.441l7.316 10.93c2.37 5.25-2.441 11.267-5.944 12.495-.615.224-1.197.288-1.683.176l-10.381-1.835c-21.823 0-31.692 2.705-39.48 5.417l-10.38 1.835c-2.681.616-7.978-4.157-8.242-9.302-.375-.128-1.42-.064-2.937-.231-3.287-.36-8.808-1.764-14.569-8.387v-.15h5.235c4.62 0 8.369-3.75 8.369-8.37a8.37 8.37 0 0 0-2.45-5.92 8.35 8.35 0 0 0-5.919-2.451H26.279c-1.3 0-2.53.295-3.623.822m2.274-6.934a6.23 6.23 0 0 0 3.28.926c.885 0 1.763-.183 2.57-.55.399-.185.573-.654.399-1.053a.8.8 0 0 0-1.062-.4c-1.365.623-3.072.51-4.34-.279a.802.802 0 0 0-1.102.264.79.79 0 0 0 .255 1.092m69.703-26.162H76.011c-.63 0-1.148.51-1.148 1.141 0 .638.518 1.148 1.148 1.148h18.622c.63 0 1.15-.51 1.15-1.148 0-.63-.52-1.14-1.15-1.14" fill="#E9F4FC"/>
        <path d="m16.537 6.88 1.348-4.707-4.867 1.444a.802.802 0 0 1-.997-.543.802.802 0 0 1 .543-.989l6.263-1.85a.785.785 0 0 1 .79.199c.207.2.279.502.199.78l-1.317 4.613a12.91 12.91 0 0 1 4.34-.487.797.797 0 0 1 .75.846.803.803 0 0 1-.837.75 11.45 11.45 0 0 0-5.137.893.8.8 0 0 1-.839-.135.784.784 0 0 1-.24-.813" fill="#F4D77D"/>
        <path d="M94.633 34.232c.63 0 1.15.51 1.15 1.141a1.15 1.15 0 0 1-1.15 1.148H76.011c-.63 0-1.148-.51-1.148-1.148 0-.63.517-1.14 1.148-1.14h18.622z" fill="#073B4C"/>
        <path d="m.77 22.543 9.575-2.825a.786.786 0 0 1 .79.2c.208.2.287.503.208.781L9.1 28.495a19.427 19.427 0 0 1 7.244-.95.79.79 0 0 1 .742.846.788.788 0 0 1-.837.742 17.86 17.86 0 0 0-8.035 1.405.876.876 0 0 1-.32.064.817.817 0 0 1-.526-.2.815.815 0 0 1-.24-.822l2.275-7.923-8.179 2.418a.788.788 0 0 1-.989-.535.8.8 0 0 1 .535-.997" fill="#F4D77D"/>
        <path d="M25.776 59.038c1.269.79 2.976.902 4.34.28a.8.8 0 0 1 1.063.398.805.805 0 0 1-.4 1.054 6.203 6.203 0 0 1-2.57.55 6.23 6.23 0 0 1-3.279-.926.79.79 0 0 1-.255-1.092.802.802 0 0 1 1.101-.264" fill="#073B4C"/>
        <path d="M32.247 21.905c2.377 0 4.365 6.255 4.923 14.72-3.997 2.33-7.5 5.738-10.077 10.054l-.208-.128c-2.17-13.213 2.083-24.646 5.362-24.646M97.004 111.467c7.076.431 14.266.846 21.191-.67 2.418-.527 4.852-1.324 6.766-2.888 1.437-1.174 2.545-2.849 2.865-4.652l.254.048c1.007 2.457 1.118 3.558 1.325 6.2.207 2.648-.527 5.504-2.53 7.244-2.225 1.931-5.432 2.09-8.377 2.139a648.273 648.273 0 0 1-89.794-4.836l-.837-8.002.63-.264c.894 1.309 3.016 1.747 4.763 1.851l63.744 3.83M44.112 68.956a8.371 8.371 0 0 1 2.449 5.92c0 4.62-3.75 8.37-8.37 8.37H26.279a8.342 8.342 0 0 1-5.92-2.45 8.342 8.342 0 0 1-2.45-5.92 8.368 8.368 0 0 1 8.37-8.37h11.914c2.305 0 4.404.934 5.92 2.45" fill="#FFF"/>
        <path d="M50.463 92.015c.263 5.145 5.561 9.918 8.242 9.302l10.38-1.835c7.788-2.712 17.658-5.417 39.48-5.417l10.38 1.835c.486.112 1.07.048 1.683-.176l.089.232c2.45-.36 6.814 3.016 7.149 5.466a5.897 5.897 0 0 1-.04 1.835c-.32 1.803-1.428 3.478-2.865 4.652-1.915 1.564-4.348 2.361-6.766 2.888-6.925 1.515-14.115 1.101-21.191.67l-63.744-3.83c-1.747-.104-3.87-.543-4.763-1.85a2.41 2.41 0 0 1-.391-1.047c-.183-1.428.933-2.672 2.019-3.622.862-.75 1.82-1.5 2.864-2.226 4.332-3.047 9.966-5.76 14.537-7.108 1.517.167 2.561.103 2.937.23" fill="#F4D77D"/>
        <path d="M48.747 33.067c-4.045.248-8.01 1.468-11.577 3.559-.559-8.466-2.545-14.721-4.923-14.721 7.22 0 13.492 4.492 16.652 11.09l-.152.072zM47.526 91.784c-4.57 1.347-10.205 4.06-14.537 7.108l-.032-.04c-3.263.75-8.792-5.201-6.008-11.377l2.969-3.854 3.039-.375v.15c5.76 6.624 11.282 8.028 14.57 8.388" fill="#E9F4FC"/>
        <g opacity=".566">
            <g transform="translate(77.202 51.199)">
                <mask id="1hr6hk3isb" fill="#fff">
                    <use xlink:href="#o7paq2bm9a"/>
                </mask>
                <path d="M22.023 20.348c-1.602.533-3.324-.366-3.846-2.006-.519-1.641.358-3.403 1.96-3.936 1.602-.534 3.324.364 3.845 2.004.518 1.642-.357 3.403-1.959 3.938zm-9.136 2.661a1.006 1.006 0 0 1-1.368.455 1.053 1.053 0 0 1-.481-1.32l.036-.081 7.183-14.435a1.005 1.005 0 0 1 1.367-.454c.475.246.679.823.482 1.318l-.036.081-7.183 14.436zM6.96 13.317c-.52-1.641.356-3.403 1.959-3.936 1.603-.533 3.324.364 3.845 2.005.518 1.641-.358 3.402-1.96 3.937-1.602.533-3.323-.366-3.844-2.006zM29.81 15.94l-2.462-3.518L28.37 8.17a1.044 1.044 0 0 0-.676-1.239l-4.07-1.342-1.633-3.992a1.01 1.01 0 0 0-1.249-.59L16.6 2.366 12.926.145a1.001 1.001 0 0 0-1.329.271L8.985 3.968l-4.326.413c-.514.05-.911.488-.922 1.018l-.08 4.368-1.79 1.568c-.136.146 0 0-.445.398-.037.043-.079.079-.116.12a14.45 14.45 0 0 1-1.088.967 1.053 1.053 0 0 0-.031 1.24l2.461 3.518-1.022 4.254c-.128.53.167 1.072.676 1.24l1.718.566a4.4 4.4 0 0 1 .838.277l1.516.498.849 2.077c.104.186.19.383.268.583.325.693.6 1.406.844 2.133a21.69 21.69 0 0 0 2.239-.691c.207-.078 2.614-.848 2.822-.88l3.675 2.22a.999.999 0 0 0 1.328-.268l2.613-3.553.356-.034 2.074-.198 1.895-.18a1.03 1.03 0 0 0 .922-1.017l.037-1.903.045-2.467 3.304-2.896c.4-.352.471-.959.165-1.398z" fill="#63ACE0" mask="url(#1hr6hk3isb)"/>
            </g>
            <path d="M97.968 67.585a1.048 1.048 0 0 0-.653 1.313c.173.546.747.845 1.28.668.535-.179.828-.765.655-1.313a1.014 1.014 0 0 0-1.282-.668M86.749 62.558a1.048 1.048 0 0 0-.653 1.313c.174.545.747.845 1.28.668.535-.18.828-.765.655-1.312a1.014 1.014 0 0 0-1.282-.67" fill="#63ACE0"/>
        </g>
        <path d="M22.656 67.336v-.008c-.638-8.13 1.142-15.135 4.437-20.65 2.577-4.316 6.08-7.722 10.077-10.052 3.566-2.09 7.532-3.312 11.577-3.56" stroke="#073B4C" stroke-width="1.841" stroke-linecap="round" stroke-linejoin="round"/>
        <path d="M22.656 67.328a8.367 8.367 0 0 0-4.747 7.548c0 2.314.934 4.404 2.45 5.92a8.342 8.342 0 0 0 5.92 2.45h11.913a8.375 8.375 0 0 0 5.92-14.29 8.356 8.356 0 0 0-5.92-2.45H26.279c-1.3 0-2.53.295-3.623.822zM70.697 31.758h19.46M119.256 72.3c1.86-5.69 1.556-11.77-.319-17.443-4.14-12.542-15.91-23.1-28.78-23.1M73.53 42.777c0-4.045-1.038-7.828-2.841-11.02-3.32-5.919-9.24-9.852-15.997-9.852" stroke="#073B4C" stroke-width="1.841" stroke-linecap="round" stroke-linejoin="round"/>
        <path d="M59.766 41.468c0-10.81-2.274-19.564-5.074-19.564M48.747 41.468c0-3.016.208-5.871.575-8.417.957-6.598 3-11.147 5.37-11.147M48.9 32.995c-3.16-6.599-9.432-11.09-16.653-11.09" stroke="#073B4C" stroke-width="1.841" stroke-linecap="round" stroke-linejoin="round"/>
        <path d="M37.17 36.641v-.016c-.558-8.465-2.545-14.72-4.923-14.72" stroke="#073B4C" stroke-width="1.841" stroke-linecap="round" stroke-linejoin="round"/>
        <path d="M26.885 46.551c-2.17-13.213 2.082-24.647 5.363-24.647M24.524 72.299v4.675M33.612 72.299v4.675M32.957 83.397c5.76 6.623 11.282 8.028 14.57 8.387 1.515.167 2.56.103 2.936.231M122.591 51.698c.208 0 .416-.024.615-.056 2.05-.367 3.861-1.9 4.556-3.87.686-1.97.239-4.293-1.141-5.865M122.591 51.698c.064-.232.12-.471.16-.719.112-.646.08-1.332-.247-1.898-.328-.559-1.006-.942-1.636-.791-1.02.248-1.269 1.772-.583 2.57.55.654 1.437.877 2.306.838z" stroke="#073B4C" stroke-width="1.841" stroke-linecap="round" stroke-linejoin="round"/>
        <path d="M118.937 54.857c2.035.064 3.168-1.276 3.654-3.16M58.394 77.717l-7.317 10.93M58.705 101.318c-2.68.615-7.979-4.157-8.242-9.303a7.156 7.156 0 0 1 .614-3.368M58.706 101.318l10.38-1.836M29.782 83.246l-2.833 4.229M32.957 98.852c-3.263.75-8.793-5.202-6.008-11.378M119.257 72.299l7.316 10.93M118.945 95.9c.486.112 1.07.049 1.683-.176 3.504-1.228 8.314-7.244 5.945-12.495M118.946 95.9l-10.381-1.835M69.085 99.483c7.788-2.712 17.658-5.418 39.479-5.418" stroke="#073B4C" stroke-width="1.841" stroke-linecap="round" stroke-linejoin="round"/>
        <path d="M47.526 91.784c-4.57 1.347-10.205 4.06-14.537 7.108a33.77 33.77 0 0 0-2.865 2.226c-1.085.95-2.2 2.194-2.018 3.622.048.4.191.743.39 1.046.895 1.308 3.018 1.747 4.764 1.851l63.744 3.83c7.076.431 14.266.845 21.19-.67 2.42-.527 4.852-1.324 6.768-2.888 1.436-1.174 2.544-2.849 2.864-4.652.104-.606.128-1.22.04-1.835-.335-2.45-4.7-5.825-7.15-5.466" stroke="#073B4C" stroke-width="1.841" stroke-linecap="round" stroke-linejoin="round"/>
        <path d="m27.867 106.05.838 8.001a648.26 648.26 0 0 0 89.793 4.836c2.945-.048 6.152-.207 8.378-2.138 2.003-1.74 2.737-4.596 2.53-7.245-.208-2.64-.32-3.742-1.325-6.2" stroke="#073B4C" stroke-width="1.841" stroke-linecap="round" stroke-linejoin="round"/>
    </g>
</svg>
