<svg width="80" height="102" viewBox="0 0 80 102" xmlns="http://www.w3.org/2000/svg">
    <g fill="none" fill-rule="evenodd">
        <path d="M52.554 95.182c0 3.242-2.899 5.87-6.476 5.87H8.031c-3.577 0-6.477-2.628-6.477-5.87V7.14c.001-3.242 2.9-5.87 6.477-5.87h38.047c3.577 0 6.476 2.628 6.476 5.87v88.042z" fill="#FFF" fill-rule="nonzero"/>
        <rect fill="currentColor" fill-rule="nonzero" x="14.77" y=".845" width="23.672" height="5.775" rx=".665"/>
        <path d="M44.492 0c4.819 0 8.725 3.658 8.725 8.17v85.66c0 4.512-3.906 8.17-8.725 8.17H8.72C3.903 101.997 0 98.34 0 93.83V8.17C0 3.66 3.903.004 8.72 0zm.313 2.129H8.412c-3.421 0-6.194 2.57-6.195 5.74v86.085c0 3.17 2.774 5.74 6.195 5.74h36.393c3.422 0 6.195-2.57 6.195-5.74V7.869c0-3.17-2.774-5.74-6.195-5.74z" fill="currentColor" fill-rule="nonzero"/>
        <circle stroke="currentColor" stroke-width="2" fill="#E9F4FC" cx="53.217" cy="53.217" r="25.609"/>
        <path d="M52.222 50.229c.72.72.72 1.887 0 2.606-.47.47-.73 1.097-.73 1.762 0 .666.26 1.29.73 1.761l7.966 7.968a2.493 2.493 0 0 0 3.523 0l.613-.613c.47-.471.73-1.097.73-1.762 0-.666-.26-1.291-.73-1.762l-3.983-3.984a1.843 1.843 0 0 1 2.606-2.606l3.983 3.984a6.137 6.137 0 0 1 1.81 4.368c0 1.65-.643 3.202-1.81 4.368l-.612.614a6.16 6.16 0 0 1-4.368 1.806 6.154 6.154 0 0 1-4.366-1.806l-7.967-7.967a6.136 6.136 0 0 1-1.809-4.368c0-1.651.642-3.202 1.809-4.37.719-.719 1.886-.718 2.605 0zM48.851 39.5l7.966 7.968a6.136 6.136 0 0 1 1.81 4.369c0 1.65-.643 3.201-1.81 4.368a1.827 1.827 0 0 1-1.125.532l-.176.008a1.843 1.843 0 0 1-1.303-3.146c.47-.47.73-1.096.73-1.762 0-.665-.26-1.29-.73-1.761l-7.967-7.969a2.493 2.493 0 0 0-3.523.001l-.612.613a2.477 2.477 0 0 0-.73 1.762c0 .666.259 1.29.729 1.761l3.983 3.985a1.843 1.843 0 0 1-2.605 2.606l-3.983-3.984a6.136 6.136 0 0 1-1.81-4.368 6.14 6.14 0 0 1 1.809-4.369l.613-.612a6.182 6.182 0 0 1 8.734-.002z" fill="currentColor" fill-rule="nonzero"/>
    </g>
</svg>
