<svg width="121" height="121" viewBox="0 0 121 121" xmlns="http://www.w3.org/2000/svg">
    <g fill="none" fill-rule="evenodd">
        <path d="M33.926 46.206c0-.651-.537-1.188-1.196-1.188-.65 0-1.187.537-1.187 1.188 0 .658.537 1.195 1.187 1.195.66 0 1.196-.537 1.196-1.195zm34.997 4.888c0-4.644-3.774-8.418-8.426-8.418-4.644 0-8.418 3.774-8.418 8.418 0 4.644 3.774 8.426 8.418 8.426 4.652 0 8.426-3.782 8.426-8.426zm47.766 2.92c2.123 1.594 2.562 4.62.968 6.742a4.822 4.822 0 0 1-6.742.96L67.052 28.792c-1.976-1.48-4.245-2.27-6.555-2.27-2.302 0-4.57.79-6.547 2.27l-13.257 9.955a1.199 1.199 0 0 0-.236 1.668c.195.252.472.414.789.463.317.05.626-.04.878-.227l13.257-9.948c3.124-2.35 7.109-2.35 10.24 0l38.568 28.939v26.206l-1.546-.415c-2.879-.79-6.01.106-8.06 2.22l-.366.39-.528-.016c-2.253-.016-4.4.838-5.962 2.408a8.246 8.246 0 0 0-2.407 5.962l.008.528-.382.366a8.291 8.291 0 0 0-2.514 5.921c0 .984.18 1.969.537 2.904l.626 1.651h-9.849V82.44c0-7.304-5.945-13.25-13.249-13.25-7.303 0-13.24 5.946-13.24 13.25v25.327h-9.858l.634-1.651c.35-.935.537-1.92.537-2.904 0-2.22-.919-4.375-2.521-5.92l-.383-.367.009-.528a8.252 8.252 0 0 0-2.4-5.962 8.292 8.292 0 0 0-5.961-2.408l-.529.008-.366-.382c-2.05-2.114-5.189-3.001-8.068-2.22l-1.537.415V59.642l7.954-5.97c.529-.39.634-1.139.236-1.667a1.184 1.184 0 0 0-1.667-.236l-13.25 9.947a4.806 4.806 0 0 1-6.742-.96 4.806 4.806 0 0 1 .96-6.742l43.87-32.924c3.693-2.774 7.963-4.246 12.322-4.246 4.368 0 8.63 1.472 12.33 4.246l43.862 32.924z" fill="#E9F4FC"/>
        <path d="M114.38 110.15a4.245 4.245 0 0 1 4.237 4.238 4.231 4.231 0 0 1-4.23 4.229H6.616a4.231 4.231 0 0 1-4.23-4.23 4.242 4.242 0 0 1 4.222-4.237H114.38z" fill="#F4D77D"/>
        <path d="M116.185 103.212a5.847 5.847 0 0 1-1.814 4.222l-.35.333H86.98l-.35-.333a5.86 5.86 0 0 1-1.814-4.222c0-1.903.928-3.684 2.481-4.782.382-.26.57-.724.496-1.18a5.824 5.824 0 0 1 1.619-5.132 5.816 5.816 0 0 1 5.132-1.618c.455.081.919-.114 1.179-.488a5.84 5.84 0 0 1 4.774-2.489c1.903 0 3.685.927 4.783 2.489.26.374.723.57 1.179.488a5.83 5.83 0 0 1 6.75 6.75c-.073.456.114.92.497 1.18a5.858 5.858 0 0 1 2.48 4.782" fill="#FFF"/>
        <path d="M89.72 6.01v24.783L74.259 19.187c-.301-.228-.61-.44-.911-.651l-.537-.366V6.01c0-2 1.635-3.627 3.635-3.627h9.646c2.001 0 3.628 1.627 3.628 3.628" fill="#F4D77D"/>
        <path d="M71.363 82.44v25.327H49.64V95.11h3.628a1.19 1.19 0 1 0 0-2.383h-3.628V82.44c0-5.986 4.872-10.867 10.858-10.867 5.994 0 10.866 4.88 10.866 10.867M60.497 45.05a6.052 6.052 0 0 1 6.043 6.044 6.047 6.047 0 0 1-6.043 6.043c-3.326 0-6.035-2.709-6.035-6.043 0-3.327 2.709-6.043 6.035-6.043" fill="#FFF"/>
        <path d="M68.923 51.094c0 4.644-3.774 8.426-8.426 8.426-4.644 0-8.418-3.782-8.418-8.426s3.774-8.418 8.418-8.418c4.652 0 8.426 3.774 8.426 8.418m-8.426-6.043c-3.326 0-6.035 2.716-6.035 6.043 0 3.334 2.709 6.043 6.035 6.043a6.047 6.047 0 0 0 6.043-6.043 6.052 6.052 0 0 0-6.043-6.043" fill="#073B4C"/>
        <path d="M36.187 103.212a5.847 5.847 0 0 1-1.814 4.222l-.358.333H6.981l-.35-.333a5.847 5.847 0 0 1-1.814-4.222c0-1.903.927-3.684 2.48-4.782.375-.26.57-.724.489-1.18a5.852 5.852 0 0 1 1.627-5.132 5.823 5.823 0 0 1 5.132-1.618c.447.081.919-.114 1.179-.488a5.829 5.829 0 0 1 4.774-2.489c1.903 0 3.684.927 4.774 2.489.269.374.732.57 1.188.488a5.823 5.823 0 0 1 5.132 1.618 5.847 5.847 0 0 1 1.618 5.133c-.081.455.114.919.488 1.179a5.844 5.844 0 0 1 2.489 4.782" fill="#FFF"/>
        <path d="M32.73 45.018c.66 0 1.196.537 1.196 1.188 0 .658-.537 1.195-1.196 1.195-.65 0-1.187-.537-1.187-1.195 0-.651.537-1.188 1.187-1.188" fill="#073B4C"/>
        <path d="M119.56 62.18c-2.383 3.18-6.905 3.822-10.077 1.447l-2.92-2.196v26.564l1.18.04c2.09.074 4.058.92 5.53 2.4a8.246 8.246 0 0 1 2.408 5.962l-.008.528.382.366a8.291 8.291 0 0 1 2.513 5.921 8.156 8.156 0 0 1-1.04 3.978l-.554 1 .968.618a6.619 6.619 0 0 1 3.058 5.58c0 3.643-2.969 6.612-6.612 6.612H6.615c-3.644 0-6.613-2.969-6.613-6.612a6.6 6.6 0 0 1 3.058-5.58l.968-.618-.56-1a8.237 8.237 0 0 1-1.034-3.978c0-2.22.92-4.375 2.513-5.92l.383-.367-.008-.528c-.041-2.22.837-4.4 2.399-5.962a8.166 8.166 0 0 1 5.53-2.4l1.18-.04V61.43l-2.912 2.188a7.165 7.165 0 0 1-5.335 1.367 7.135 7.135 0 0 1-4.742-2.798 7.15 7.15 0 0 1-1.366-5.344 7.146 7.146 0 0 1 2.806-4.742l43.862-32.915c4.115-3.091 8.873-4.726 13.753-4.726 2.814 0 5.596.545 8.263 1.619l1.676.667V6.01A6.012 6.012 0 0 1 76.446 0h9.646c3.31 0 6.01 2.692 6.01 6.01v26.572l26.019 19.528a7.141 7.141 0 0 1 2.806 4.734 7.138 7.138 0 0 1-1.367 5.336zm-8.645-.464a4.822 4.822 0 0 0 6.742-.96c1.594-2.123 1.155-5.148-.968-6.742L72.827 21.09c-3.7-2.774-7.962-4.246-12.33-4.246-4.36 0-8.63 1.472-12.322 4.246L4.305 54.014a4.806 4.806 0 0 0-.96 6.743 4.806 4.806 0 0 0 6.742.96l13.25-9.948a1.184 1.184 0 0 1 1.667.236 1.184 1.184 0 0 1-.236 1.667l-7.954 5.97v26.206l1.537-.415c2.88-.781 6.018.106 8.068 2.22l.366.382.529-.008a8.292 8.292 0 0 1 5.961 2.408 8.252 8.252 0 0 1 2.4 5.962l-.009.528.383.366a8.266 8.266 0 0 1 2.521 5.921c0 .984-.187 1.969-.537 2.904l-.634 1.651h9.857V82.44c0-7.304 5.938-13.25 13.241-13.25 7.304 0 13.25 5.946 13.25 13.25v25.327h9.848l-.626-1.651a8.124 8.124 0 0 1-.537-2.904c0-2.22.92-4.375 2.514-5.92l.382-.367-.008-.528c-.041-2.22.837-4.4 2.407-5.962 1.562-1.57 3.709-2.424 5.962-2.408l.528.017.366-.39c2.05-2.115 5.181-3.01 8.06-2.221l1.546.415V59.642L65.62 30.703c-3.131-2.35-7.116-2.35-10.24 0l-13.257 9.948a1.168 1.168 0 0 1-.878.227 1.222 1.222 0 0 1-.79-.463 1.199 1.199 0 0 1 .237-1.668l13.257-9.955c1.976-1.48 4.245-2.27 6.547-2.27 2.31 0 4.58.79 6.555 2.27l43.863 32.924zM89.72 6.01c0-2.001-1.627-3.628-3.628-3.628h-9.646c-2 0-3.635 1.627-3.635 3.628V18.17l.537.366c.3.211.61.423.91.65L89.72 30.794V6.01zm23.488 91.24a5.83 5.83 0 0 0-6.75-6.75 1.189 1.189 0 0 1-1.18-.49 5.844 5.844 0 0 0-4.782-2.488 5.84 5.84 0 0 0-4.774 2.489c-.26.374-.724.57-1.18.488a5.816 5.816 0 0 0-5.131 1.618 5.824 5.824 0 0 0-1.619 5.133c.073.455-.114.919-.496 1.179a5.858 5.858 0 0 0-2.48 4.782 5.86 5.86 0 0 0 1.813 4.222l.35.333h27.043l.35-.333a5.847 5.847 0 0 0 1.813-4.222 5.858 5.858 0 0 0-2.48-4.782 1.194 1.194 0 0 1-.497-1.18zm1.18 21.366a4.231 4.231 0 0 0 4.229-4.23 4.245 4.245 0 0 0-4.237-4.237H6.607a4.242 4.242 0 0 0-4.222 4.238 4.231 4.231 0 0 0 4.23 4.229h107.773zm-43.025-10.85V82.44c0-5.986-4.872-10.866-10.866-10.866-5.986 0-10.858 4.88-10.858 10.866v10.288h3.628a1.19 1.19 0 1 1 0 2.383h-3.628v12.656h21.724zM33.21 97.251a5.847 5.847 0 0 0-1.618-5.133A5.823 5.823 0 0 0 26.46 90.5a1.208 1.208 0 0 1-1.188-.488 5.818 5.818 0 0 0-4.774-2.489 5.829 5.829 0 0 0-4.774 2.489c-.26.374-.732.57-1.18.488a5.823 5.823 0 0 0-5.131 1.618 5.852 5.852 0 0 0-1.627 5.133c.081.455-.114.919-.488 1.179a5.858 5.858 0 0 0-2.48 4.782c0 1.586.658 3.124 1.813 4.222l.35.333h27.034l.358-.333a5.847 5.847 0 0 0 1.814-4.222 5.844 5.844 0 0 0-2.489-4.782 1.189 1.189 0 0 1-.488-1.18z" fill="#073B4C"/>
    </g>
</svg>
