<svg xmlns="http://www.w3.org/2000/svg" width="24" height="24" viewBox="0 0 24 24">
    <g fill="none" fill-rule="evenodd">
        <g fill="#073B4C">
            <g>
                <g>
                    <path d="M12 0c6.627 0 12 5.373 12 12s-5.373 12-12 12S0 18.627 0 12 5.373 0 12 0zm0 1.8C6.367 1.8 1.8 6.367 1.8 12c0 5.633 4.567 10.2 10.2 10.2 5.633 0 10.2-4.567 10.2-10.2 0-5.633-4.567-10.2-10.2-10.2zm3.486 6.703c.3.3.325.77.075 1.098l-.075.086-2.302 2.302 2.3 2.3c.326.327.326.857 0 1.184-.3.3-.77.325-1.099.075l-.086-.075-2.299-2.3-2.302 2.303c-.327.327-.857.327-1.184 0-.3-.3-.325-.77-.075-1.099l.075-.085 2.302-2.303-2.3-2.3c-.326-.326-.326-.856 0-1.183.3-.3.77-.325 1.099-.075l.086.075L12 10.805l2.302-2.302c.327-.327.857-.327 1.184 0z" transform="translate(-21 -657) translate(0 633) translate(21 24)"/>
                </g>
            </g>
        </g>
    </g>
</svg>
