<svg width="60" height="60" viewBox="0 0 83 82" fill="none" xmlns="http://www.w3.org/2000/svg">
<ellipse cx="41.0432" cy="41" rx="30" ry="30" fill="#CC3333"/>
<ellipse cx="41.0432" cy="41" rx="30" ry="30" stroke="#073B4C" stroke-width="2"/>
<path fill-rule="evenodd" clip-rule="evenodd" d="M42.5222 40.9978L57.4493 26.0875C57.5354 26.0015 57.6033 25.9043 57.653 25.8005C57.6532 25.8007 57.6534 25.8009 57.6536 25.8011C57.7756 25.923 57.789 26.1159 57.6878 26.2521L57.6189 26.329L42.7262 41.2015L42.5222 40.9978ZM25.8268 57.5915C25.8812 57.5653 25.9339 57.5342 25.984 57.4982L26.1131 57.3884L41.0431 42.4753L41.247 42.6789L26.3174 57.5926L26.2295 57.6644C26.2151 57.672 26.1447 57.6944 26.0728 57.6944C25.9804 57.6944 25.8945 57.6596 25.8297 57.5945C25.8288 57.5935 25.8278 57.5925 25.8268 57.5915ZM24.3803 56.9687C24.2493 57.5433 24.4105 58.1481 24.8412 58.5782C25.1695 58.9086 25.6131 59.0883 26.0728 59.0883C26.4357 59.0883 26.7917 58.9749 27.0894 58.7607L27.263 58.6162L41.7395 44.157L56.1774 58.5782L56.3477 58.7259C56.6898 58.9749 57.0458 59.0883 57.4087 59.0883C57.8685 59.0883 58.312 58.9086 58.6422 58.5764C59.3208 57.8985 59.3208 56.7966 58.6405 56.1166L44.2053 41.694L58.6403 27.2773L58.7763 27.1228C59.2815 26.4457 59.2596 25.5647 58.7633 24.952L58.6404 24.8155C58.2023 24.378 57.5834 24.2189 57.0141 24.3505C56.7041 24.2568 56.3591 24.31 56.0889 24.5103L55.9717 24.6113L46.8953 33.6763L45.3884 35.18L41.528 39.0359L36.3819 33.8804L27.3054 24.8155L27.1508 24.6797C26.7054 24.3481 26.1718 24.2439 25.6842 24.352C25.3261 24.2418 24.9203 24.3282 24.6368 24.6113C24.3547 24.8934 24.2676 25.2963 24.3757 25.6529C24.2449 26.2185 24.4 26.8366 24.8412 27.2773L39.0704 41.4908L36.1546 44.4034L34.6561 45.903L24.6368 55.9123C24.3507 56.1982 24.2652 56.6085 24.3803 56.9687ZM57.2076 57.6297L57.1645 57.5914C57.2675 57.5418 57.3641 57.4742 57.4493 57.3884C57.5354 57.3025 57.6033 57.2052 57.653 57.1015L57.6536 57.102C57.7892 57.2376 57.7892 57.4572 57.6536 57.5926C57.587 57.6596 57.5012 57.6944 57.4087 57.6944C57.3369 57.6944 57.2664 57.672 57.2076 57.6297Z" fill="white"/>
</svg>
