<svg width="21" height="20" viewBox="0 0 21 20" xmlns="http://www.w3.org/2000/svg">
    <g fill="none" fill-rule="evenodd">
        <path d="m19.445 1.71-.011 5.312a.75.75 0 0 1-1.492.107l-.008-.11.008-3.497-4.495 4.495a.75.75 0 0 1-1.128-.984l.067-.076 4.494-4.495-3.495.008a.75.75 0 0 1-.743-.638l-.008-.11a.75.75 0 0 1 .637-.744l.111-.008 5.312-.012.032.001.04.003-.072-.004a.754.754 0 0 1 .512.201l.02.02.019.019a.754.754 0 0 1 .037.043l-.057-.063a.755.755 0 0 1 .212.42l.004.033.004.059v.02z" fill="#FFF"/>
        <path d="M10.731 1.667H8h0-3.333a2.5 2.5 0 0 0-2.5 2.5v11.666a2.5 2.5 0 0 0 2.5 2.5h11.666a2.5 2.5 0 0 0 2.5-2.5v-5.63" stroke="#FFF" stroke-width="1.5" stroke-linecap="round" stroke-linejoin="round"/>
    </g>
</svg>
