<svg width="112" height="86" viewBox="0 0 112 86" xmlns="http://www.w3.org/2000/svg" xmlns:xlink="http://www.w3.org/1999/xlink">
    <defs>
        <path d="M.21.211c-.292.292-.277.78.03 1.088L1.587 2.65l.053.049c.308.26.757.257 1.032-.02.292-.291.278-.78-.03-1.087L1.295.24 1.242.192A.8.8 0 0 0 .725 0 .72.72 0 0 0 .21.211zm4.894.03-1.346 1.35-.049.053c-.26.31-.256.76.019 1.036.29.292.777.279 1.085-.03L6.16 1.3l.048-.054c.26-.31.257-.76-.018-1.035a.722.722 0 0 0-.515-.21c-.203 0-.411.08-.57.24zM3.728 3.738c-.292.293-.278.78.03 1.088l1.346 1.352.054.048c.307.26.757.257 1.032-.018.291-.293.278-.78-.03-1.089L4.813 3.77l-.053-.05a.806.806 0 0 0-.518-.192c-.189 0-.374.07-.514.21zm-2.141.03L.24 5.12l-.048.053c-.26.31-.257.76.018 1.036.291.292.778.278 1.086-.031l1.346-1.35.049-.053c.26-.31.256-.76-.019-1.036a.723.723 0 0 0-.515-.21c-.203 0-.41.08-.57.24z" id="m9kpf8unra"/>
        <path d="M.314.316C-.123.755-.1 1.486.36 1.95L2.38 3.975l.079.073c.463.39 1.135.386 1.548-.028.438-.439.417-1.17-.044-1.633L1.944.361 1.862.288A1.2 1.2 0 0 0 1.087 0C.804 0 .525.105.314.316zm7.342.046-2.02 2.025-.072.08c-.391.463-.385 1.14.027 1.553.437.438 1.166.418 1.629-.046L9.24 1.95l.071-.08c.392-.465.386-1.14-.026-1.554a1.082 1.082 0 0 0-.773-.315c-.305 0-.616.12-.856.36zM5.591 5.607c-.438.439-.416 1.17.045 1.632l2.02 2.027.08.073c.462.39 1.136.386 1.549-.027.437-.44.417-1.17-.045-1.633L7.22 5.652l-.08-.072a1.209 1.209 0 0 0-.776-.29c-.284 0-.562.106-.773.317zm-3.21.046L.36 7.678l-.073.08c-.39.464-.386 1.14.026 1.554.438.437 1.168.417 1.63-.047L3.963 7.24l.073-.079c.39-.465.385-1.14-.028-1.554a1.085 1.085 0 0 0-.772-.316 1.21 1.21 0 0 0-.856.362z" id="i8ilbzgsoc"/>
        <path d="M.335.338c-.466.467-.443 1.247.049 1.74L2.54 4.24l.084.078c.493.417 1.21.411 1.651-.03.467-.468.445-1.248-.047-1.742L2.073.386 1.987.307A1.28 1.28 0 0 0 1.16 0C.857 0 .56.112.335.338zm7.832.048-2.155 2.16-.077.085c-.417.495-.41 1.216.03 1.657.465.467 1.243.446 1.736-.049l2.155-2.16.076-.085c.417-.495.412-1.215-.028-1.656A1.155 1.155 0 0 0 9.079 0c-.325 0-.657.129-.912.385zM5.964 5.98c-.467.468-.444 1.247.048 1.74l2.155 2.163.085.078c.492.416 1.211.411 1.652-.03.466-.468.445-1.248-.048-1.74L7.7 6.028l-.084-.078a1.29 1.29 0 0 0-.828-.308c-.303 0-.6.113-.824.338zM2.54 6.03.385 8.19l-.078.085c-.415.495-.411 1.216.028 1.657.467.467 1.246.446 1.738-.05l2.154-2.16.078-.083c.417-.496.41-1.217-.03-1.658a1.158 1.158 0 0 0-.823-.337c-.325 0-.657.13-.913.386z" id="0om8gbo1ae"/>
        <path d="M.252.253c-.35.35-.333.935.036 1.306L1.905 3.18l.063.058c.37.313.908.31 1.238-.022.35-.35.334-.936-.035-1.306L1.554.289 1.49.23A.96.96 0 0 0 .87 0a.865.865 0 0 0-.618.253zM6.125.29 4.51 1.91l-.058.064c-.313.371-.308.912.022 1.243.35.35.933.334 1.303-.036l1.616-1.62.057-.065c.313-.371.309-.911-.021-1.242A.866.866 0 0 0 6.81.001a.97.97 0 0 0-.685.288zM4.473 4.485c-.35.352-.333.936.036 1.306l1.616 1.622.064.058c.37.312.909.309 1.239-.022.35-.351.333-.936-.036-1.306L5.775 4.522l-.063-.058a.967.967 0 0 0-.621-.232.866.866 0 0 0-.618.253zm-2.569.037L.288 6.142l-.058.064c-.311.372-.308.912.022 1.243.35.35.933.334 1.303-.037l1.615-1.62.059-.063c.312-.372.308-.912-.023-1.244a.868.868 0 0 0-.617-.252.969.969 0 0 0-.685.29z" id="8bdcwoou5g"/>
    </defs>
    <g fill="none" fill-rule="evenodd">
        <path d="m81.3 48.513-5.025-1.508c.467-1.804.717-3.69.717-5.642 0-1.931-.243-3.805-.704-5.596l.352-.077 4.66-1.393L94.45 30.37a41.541 41.541 0 0 1 1.472 10.993c0 3.845-.525 7.56-1.497 11.09l-13.127-3.94z" fill="#8183FF"/>
        <path d="M94.451 30.37 81.3 34.297l-.025-.096c-2.522-9.39-9.863-16.802-19.2-19.408l3.398-13.355V1.43C79.52 5.237 90.598 16.308 94.452 30.37M81.3 48.513l13.126 3.94C90.547 66.452 79.52 77.459 65.53 81.277l-.058-.211-3.322-13.08.282-.07c9.197-2.703 16.403-10.083 18.867-19.402" fill="#E9F4FC"/>
        <path d="m65.472 81.065.058.211a41.127 41.127 0 0 1-10.848 1.444c-3.712 0-7.31-.494-10.733-1.418l3.68-13.195 1.42-5.09c1.799.469 3.687.72 5.633.72 2.137 0 4.21-.302 6.163-.867l1.305 5.115 3.322 13.08zM65.472 1.431v.007l-3.398 13.355-1.287 5.038a22.272 22.272 0 0 0-6.105-.847 22.19 22.19 0 0 0-5.575.706l-.057-.167L43.834 1.45A40.865 40.865 0 0 1 54.682 0c3.737 0 7.353.494 10.79 1.431" fill="#8183FF"/>
        <path d="m49.05 19.523.057.167c-7.891 2.035-14.086 8.286-16.07 16.218l-17.613-5.237-.55-.147C18.682 16.41 29.76 5.282 43.834 1.45l5.216 18.073zM47.629 68.107l-3.68 13.195c-13.895-3.742-24.883-14.575-28.883-28.4l12.94-4.543.07.192c2.503 9.416 9.85 16.848 19.2 19.46l.353.096z" fill="#E9F4FC"/>
        <path d="m15.424 30.671 17.613 5.237a22.537 22.537 0 0 0-.666 5.455c0 1.804.211 3.562.621 5.244l-4.986 1.752-12.94 4.544a41.575 41.575 0 0 1-1.626-11.54c0-3.748.5-7.387 1.434-10.84l.55.148z" fill="#8183FF"/>
        <path d="M94.451 30.37a41.541 41.541 0 0 1 1.472 10.993c0 3.845-.525 7.56-1.497 11.09C90.547 66.452 79.52 77.459 65.53 81.277a41.127 41.127 0 0 1-10.848 1.444c-3.712 0-7.31-.494-10.733-1.418-13.895-3.742-24.883-14.575-28.883-28.4a41.575 41.575 0 0 1-1.626-11.539c0-3.748.5-7.387 1.434-10.84C18.682 16.412 29.76 5.283 43.834 1.45A40.865 40.865 0 0 1 54.682 0c3.737 0 7.353.494 10.79 1.431C79.52 5.237 90.598 16.308 94.452 30.37z" stroke="#073B4C" stroke-width="1.925" stroke-linecap="round" stroke-linejoin="round"/>
        <path d="M76.288 35.767c.46 1.79.704 3.665.704 5.596 0 1.951-.25 3.838-.717 5.642-1.977 7.644-7.885 13.696-15.43 15.865a22.174 22.174 0 0 1-6.163.866c-1.946 0-3.834-.25-5.632-.719-7.93-2.066-14.144-8.4-16.058-16.41-.41-1.682-.62-3.44-.62-5.244 0-1.88.23-3.71.665-5.455 1.984-7.932 8.179-14.183 16.07-16.218a22.19 22.19 0 0 1 5.575-.706c2.118 0 4.166.295 6.105.847 7.59 2.163 13.53 8.254 15.501 15.936zM28.09 34.207a27.67 27.67 0 0 1 5.76-10.865M47.277 68.01c-9.35-2.611-16.698-10.043-19.2-19.459M81.306 48.487c0 .007-.007.02-.007.026-2.464 9.319-9.67 16.7-18.867 19.401M62.074 14.793c9.337 2.606 16.678 10.019 19.2 19.408M36.717 20.473a27.528 27.528 0 0 1 10.534-5.667M15.424 30.671l17.613 5.237M49.05 19.523 43.834 1.45M60.787 19.831l1.287-5.038 3.398-13.355M43.834 81.706l.115-.404 3.68-13.195 1.42-5.09" stroke="#073B4C" stroke-width="1.925" stroke-linecap="round" stroke-linejoin="round"/>
        <path stroke="#073B4C" stroke-width="1.925" stroke-linecap="round" stroke-linejoin="round" d="m65.472 81.065-3.322-13.08-1.305-5.115v-.007M94.426 52.454l-13.127-3.941-5.024-1.508M94.451 30.37 81.3 34.297 76.64 35.69M15.066 52.903l12.94-4.544 4.986-1.752"/>
        <g>
            <path d="M61.574 41.53c.5-.045.87-.507.826-1.033-.14-1.81-1.3-3.357-2.931-3.908-.48-.16-.986.121-1.14.622-.153.5.11 1.033.59 1.194.934.32 1.6 1.206 1.683 2.252.038.527.48.918.972.873m-.633-7.907c3.52 1.194 5.12 5.314 3.885 9.358a14.455 14.455 0 0 1-3.232 5.423l-.653.655a41.91 41.91 0 0 1-5.677 4.665l-.576.385h-.006a41.025 41.025 0 0 1-6.912-5.712 14.473 14.473 0 0 1-3.232-5.436c-1.23-4.03.364-8.144 3.878-9.338 1.856-.635 3.885-.32 5.491.841l.243.186a.863.863 0 0 0 1.07-.013c1.644-1.296 3.775-1.675 5.72-1.014" fill="#72EFD3"/>
            <path d="M62.4 40.497c.045.526-.326.988-.826 1.033-.492.045-.934-.346-.972-.873-.084-1.046-.75-1.931-1.684-2.252-.48-.16-.742-.693-.588-1.194.153-.5.659-.783 1.139-.622 1.632.551 2.79 2.098 2.931 3.908" fill="#073B4C"/>
            <path d="M42.822 43.565c-1.523-4.987.506-10.218 5.044-11.758a7.725 7.725 0 0 1 6.49.706l.32.206.332-.206a7.742 7.742 0 0 1 6.157-.809l.333.103c4.537 1.54 6.566 6.771 5.043 11.777a16.372 16.372 0 0 1-3.68 6.18 43.312 43.312 0 0 1-7.411 6.091l-.282.18a.863.863 0 0 1-.94.013l-.308-.193a43.34 43.34 0 0 1-7.418-6.097c-1.65-1.733-2.905-3.844-3.68-6.193m22.004-.584c1.235-4.044-.365-8.164-3.885-9.358-1.946-.66-4.077-.282-5.722 1.014a.863.863 0 0 1-1.069.013l-.243-.186c-1.606-1.161-3.635-1.476-5.491-.84-3.514 1.193-5.107 5.307-3.878 9.337a14.473 14.473 0 0 0 3.232 5.436 41.025 41.025 0 0 0 6.912 5.712h.006l.576-.385a41.91 41.91 0 0 0 5.677-4.665l.653-.655a14.455 14.455 0 0 0 3.232-5.423" fill="#073B4C"/>
        </g>
        <g transform="translate(0 17.97)">
            <mask id="gcnwoeiyjb" fill="#fff">
                <use xlink:href="#m9kpf8unra"/>
            </mask>
            <path fill="#052C50" mask="url(#gcnwoeiyjb)" d="m3.84-11.552 14.08 14.12L3.84 16.686l-14.08-14.12z"/>
        </g>
        <g transform="translate(102.4 59.687)">
            <mask id="v7on5i76hd" fill="#fff">
                <use xlink:href="#i8ilbzgsoc"/>
            </mask>
            <path fill="#052C50" mask="url(#v7on5i76hd)" d="M4.8-17.328 26.88 4.813 4.8 26.955-17.28 4.813z"/>
        </g>
        <g transform="translate(7.68 1.925)">
            <mask id="pfcn2wh34f" fill="#fff">
                <use xlink:href="#0om8gbo1ae"/>
            </mask>
            <path fill="#052C50" mask="url(#pfcn2wh34f)" d="M5.12-18.612 28.8 5.134 5.12 28.881-18.56 5.134z"/>
        </g>
        <g transform="translate(92.16 75.09)">
            <mask id="s63plkpwhh" fill="#fff">
                <use xlink:href="#8bdcwoou5g"/>
            </mask>
            <path fill="#052C50" mask="url(#s63plkpwhh)" d="M3.84-14.12 21.76 3.85 3.84 21.82-14.08 3.85z"/>
        </g>
        <g>
            <path d="M100.217 11.548c0-1.204.976-2.188 2.183-2.188h.104a2.195 2.195 0 0 1 2.08 2.188 2.183 2.183 0 1 1-4.367 0m2.183-3.205a3.202 3.202 0 0 0-3.2 3.205 3.203 3.203 0 0 0 3.2 3.213c1.766 0 3.2-1.437 3.2-3.213a3.205 3.205 0 0 0-3.2-3.205" fill="#073B4C"/>
            <path d="M102.4 9.357c-1.211 0-2.19.987-2.19 2.195a2.19 2.19 0 1 0 4.38 0 2.202 2.202 0 0 0-2.086-2.195h-.104z" fill="#F4D77D"/>
        </g>
        <g>
            <path d="M10.892 79.896a4.155 4.155 0 0 1 4.149-4.157h.198a4.17 4.17 0 0 1 3.95 4.157 4.149 4.149 0 1 1-8.297 0m4.149-6.09a6.083 6.083 0 0 0-6.081 6.09C8.96 83.27 11.676 86 15.04 86c3.355 0 6.08-2.73 6.08-6.104 0-3.36-2.725-6.09-6.08-6.09" fill="#073B4C"/>
            <path d="M15.04 75.731c-2.302 0-4.16 1.875-4.16 4.172a4.16 4.16 0 1 0 8.32 0c0-2.23-1.76-4.06-3.963-4.172h-.198z" fill="#F4D77D"/>
        </g>
    </g>
</svg>
