<svg width="14" height="14" viewBox="0 0 14 14" xmlns="http://www.w3.org/2000/svg">
    <path d="M11.092 1.7c.032 0 .065.015.08.015h.017l.048.015c0 .015.016.015.016.015l.049.029c0 .015.016.015.016.015l.048.044 2.15 3.114v.014c.017.016.033.03.033.045v.015c.017.03.017.044.017.074v.09c0 .029 0 .044-.017.058v.015a.183.183 0 0 1-.032.044L7.05 11.811l-.065.06h-.016c-.017 0-.017.014-.032.014 0 .01-.008.013-.013.014l-.262.001c0-.01-.008-.013-.012-.014-.02 0-.02-.016-.037-.016h-.032l-.049-.044L.065 5.332l-.049-.059v-.015c0-.03-.016-.044-.016-.06V5.11c0-.03 0-.045.016-.075v-.014l.033-.044V4.96l2.15-3.113.049-.044.004-.01.012-.005.032-.023a.08.08 0 0 0 .016-.021c0-.01.007-.014.012-.015l.053-.015h.016a.137.137 0 0 1 .053-.014l8.646-.001zM8.209 5.421H5.373a.216.216 0 0 0-.201.285l1.417 4.28a.212.212 0 0 0 .404 0l1.417-4.28a.216.216 0 0 0-.201-.285zm-3.964 0H1.57c-.19 0-.285.234-.15.37l4.008 4.018c.16.16.423-.007.351-.223L4.447 5.568a.213.213 0 0 0-.202-.147zm7.768 0H9.337a.213.213 0 0 0-.202.147L7.804 9.586c-.072.216.192.383.35.223l4.008-4.018c.135-.136.04-.37-.15-.37zM2.3 2.811 1.14 4.489a.216.216 0 0 0 .175.34h2.318a.216.216 0 0 0 .174-.34L2.648 2.812a.211.211 0 0 0-.348 0zm8.634.013L9.776 4.487c-.099.144.002.341.174.341h2.315a.216.216 0 0 0 .174-.34l-1.157-1.664a.211.211 0 0 0-.348 0zm-4.317-.013L5.232 4.813H7.95a.216.216 0 0 0 .173-.34L6.965 2.81a.211.211 0 0 0-.348.001zm-.82-.503H3.484a.216.216 0 0 0-.174.34l1.158 1.664a.211.211 0 0 0 .347 0l1.158-1.664a.216.216 0 0 0-.174-.34zm4.302 0H7.784a.216.216 0 0 0-.174.34l1.158 1.664a.211.211 0 0 0 .347 0l1.158-1.664a.216.216 0 0 0-.174-.34z" fill="#073B4C" fill-rule="evenodd"/>
</svg>
