<svg xmlns="http://www.w3.org/2000/svg" width="40" height="40" viewBox="0 0 40 40">
    <g fill="none" fill-rule="evenodd">
        <g fill="#FFF">
            <g>
                <g>
                    <path d="M8.32 6.882l.098.085L20 18.55 31.582 6.967l.097-.085c.402-.313.984-.285 1.354.085.4.4.4 1.05 0 1.45L21.45 20l11.583 11.582c.4.401.4 1.05 0 1.45-.37.37-.952.4-1.354.086l-.097-.085L20 21.45 8.418 33.033l-.097.085c-.402.313-.984.285-1.354-.085-.4-.4-.4-1.05 0-1.45L18.55 20 6.967 8.418c-.4-.401-.4-1.05 0-1.45.37-.37.952-.4 1.354-.086z" transform="translate(-160 -136) translate(135 111) translate(25 25)"/>
                </g>
            </g>
        </g>
    </g>
</svg>
