<svg width="96" height="96" viewBox="0 0 96 96" fill="none" xmlns="http://www.w3.org/2000/svg">
<path fill-rule="evenodd" clip-rule="evenodd" d="M40.7769 22.0866V45.6846H75.5622L63.6992 33.8154L75.7024 21.8059L40.7769 22.0866Z" fill="#FFE5AA"/>
<path fill-rule="evenodd" clip-rule="evenodd" d="M35.3016 74.0697H41.4478V16.8517H35.3016V74.0697Z" fill="#E7E3FF"/>
<path d="M66.1682 42.2212C66.3626 42.4121 66.6154 42.5075 66.8682 42.5075C67.1277 42.5075 67.388 42.4072 67.5854 42.205C67.9727 41.8099 67.966 41.1752 67.5702 40.7888L59.6099 32.9942L67.0828 26.0356C67.4873 25.6594 67.5102 25.025 67.1333 24.6203C66.7566 24.2138 66.1223 24.1909 65.7179 24.5687L57.4762 32.2422C57.2768 32.4284 57.1606 32.6897 57.1575 32.9627C57.1539 33.2365 57.2625 33.5008 57.4581 33.6917L66.1682 42.2212Z" fill="#1E243D"/>
<path fill-rule="evenodd" clip-rule="evenodd" d="M31.7219 17.5147H33.2986V73.0677H22.7754C22.2221 73.0677 21.7739 73.5161 21.7739 74.0697V77.7924H19.4839C18.9306 77.7924 18.4824 78.2408 18.4824 78.7944V82.5085H14.3687C13.8154 82.5085 13.3672 82.9569 13.3672 83.5105C13.3672 84.064 13.8154 84.5125 14.3687 84.5125H19.4784L19.4839 84.5125H55.2644L55.2699 84.5125H81.3421C81.8953 84.5125 82.3445 84.064 82.3445 83.5105C82.3445 82.9569 81.8963 82.5085 81.343 82.5085H56.2658V78.7944C56.2658 78.2408 55.8176 77.7924 55.2644 77.7924H52.9725V74.0697C52.9725 73.5161 52.5241 73.0677 51.971 73.0677H41.4478V46.297H76.2269C76.6341 46.297 77.0004 46.0499 77.1539 45.673C77.3076 45.296 77.2178 44.8637 76.927 44.5793L65.2248 33.1221L76.9087 22.2471C77.2101 21.9664 77.3094 21.5304 77.1587 21.1478C77.008 20.764 76.639 20.5122 76.2269 20.5122H41.4478V17.5147H43.0253C43.5785 17.5147 44.0258 17.0662 44.0267 16.5127V11.9388C44.0267 11.3852 43.5785 10.9368 43.0253 10.9368H31.7219C31.1688 10.9368 30.7204 11.3852 30.7204 11.9388V16.5127C30.7204 17.0662 31.1688 17.5147 31.7219 17.5147ZM32.7234 15.5106H34.2956L34.3001 15.5106H40.4463L40.4508 15.5106H42.0238V12.9408H32.7234V15.5106ZM34.2946 75.0717L34.3001 75.0717H40.4463L40.4518 75.0717H50.9704V77.7924H23.7769V75.0717H34.2946ZM39.4457 73.0677V45.339C39.4451 45.3244 39.4448 45.3098 39.4448 45.295V21.5142C39.4448 21.4995 39.4451 21.4849 39.4457 21.4703V17.5147H35.3016V73.0677H39.4457ZM73.7718 44.293H41.4478L41.4478 22.5162H73.6802L63.0921 32.3702C62.8928 32.5562 62.7764 32.8177 62.7736 33.0906C62.7699 33.3646 62.8785 33.6288 63.0741 33.8197L73.7718 44.293ZM54.2631 79.7955V82.5085L20.4854 82.5085V79.7955H54.2631Z" fill="#1E243D"/>
<path d="M62.8009 58.646C64.0708 58.646 65.1001 59.6753 65.1001 60.9453C65.0991 62.2147 64.0703 63.2435 62.8009 63.2445C61.531 63.2445 60.5016 62.215 60.5016 60.9453C60.5016 59.6753 61.531 58.646 62.8009 58.646ZM62.8009 59.4821C61.9927 59.4821 61.3377 60.1371 61.3377 60.9453C61.3377 61.7533 61.9928 62.4084 62.7998 62.4084C63.6082 62.4078 64.2634 61.7526 64.264 60.9453C64.264 60.1371 63.6091 59.4821 62.8009 59.4821Z" fill="#1E243D"/>
<path fill-rule="evenodd" clip-rule="evenodd" d="M74.4859 62.4121L72.9306 63.9674L72.8749 64.0281C72.573 64.3858 72.5774 64.9042 72.8951 65.2219C73.2312 65.558 73.7933 65.5428 74.1497 65.1864L75.7049 63.6311L75.7613 63.5698C76.0613 63.2127 76.0575 62.6937 75.7404 62.3766C75.4037 62.0399 74.8423 62.0558 74.4859 62.4121ZM74.149 66.4757L74.0876 66.4194C73.7319 66.1194 73.2135 66.1226 72.8951 66.441C72.5583 66.7777 72.5741 67.3392 72.9298 67.6949L74.4862 69.2512L74.547 69.3069C74.9033 69.6076 75.4217 69.6044 75.7401 69.286C76.0769 68.9492 76.0604 68.3872 75.7053 68.0321L74.149 66.4757ZM70.0843 62.4111L70.0235 62.3554C69.6672 62.0547 69.1488 62.0579 68.8304 62.3763C68.4937 62.7131 68.5101 63.2751 68.8652 63.6302L70.4222 65.1872L70.4836 65.2435C70.8386 65.5429 71.3577 65.5403 71.6761 65.222C72.0128 64.8852 71.997 64.3238 71.6413 63.9681L70.0843 62.4111ZM70.4215 66.4765L68.8662 68.0318L68.8099 68.0932C68.5092 68.4496 68.513 68.9686 68.8307 69.2863C69.1668 69.6224 69.7282 69.6078 70.0853 69.2508L71.6405 67.6956L71.6962 67.6348C71.9969 67.2772 71.9931 66.7581 71.676 66.441C71.3393 66.1043 70.7779 66.1202 70.4215 66.4765Z" fill="#1E243D"/>
<path fill-rule="evenodd" clip-rule="evenodd" d="M22.5642 17.8345C22.8637 17.8345 23.1102 18.0944 23.1366 18.4266L23.139 18.4859V20.0571C23.139 20.417 22.8813 20.7085 22.5642 20.7085C22.2646 20.7085 22.0182 20.4485 21.9917 20.1164L21.9893 20.0571V18.4859C21.9893 18.1259 22.247 17.8345 22.5642 17.8345ZM25.3622 16.6848C25.7213 16.6848 26.013 16.942 26.013 17.2597C26.013 17.5596 25.7528 17.8057 25.4214 17.8321L25.3622 17.8345H23.7898C23.4307 17.8345 23.139 17.5773 23.139 17.2597C23.139 16.9597 23.3992 16.7136 23.7306 16.6872L23.7898 16.6848H25.3622ZM21.3385 16.6848C21.6976 16.6848 21.9893 16.942 21.9893 17.2597C21.9893 17.5596 21.7292 17.8057 21.3977 17.8321L21.3385 17.8345H19.7661C19.407 17.8345 19.1153 17.5773 19.1153 17.2597C19.1153 16.9597 19.3755 16.7136 19.7069 16.6872L19.7661 16.6848H21.3385ZM22.5642 13.8108C22.8637 13.8108 23.1102 14.0708 23.1366 14.4029L23.139 14.4622V16.0334C23.139 16.3934 22.8813 16.6848 22.5642 16.6848C22.2646 16.6848 22.0182 16.4249 21.9917 16.0927L21.9893 16.0334V14.4622C21.9893 14.1023 22.247 13.8108 22.5642 13.8108Z" fill="#FFE5AA"/>
<path d="M16.5288 24.1574C14.7825 24.1574 13.3672 25.573 13.3672 27.3188C13.3672 29.0647 14.7825 30.4803 16.5286 30.4803C18.2747 30.4803 19.6901 29.0647 19.6901 27.3191C19.6886 25.5733 18.2742 24.1586 16.5288 24.1574ZM16.4634 25.3081L16.5281 25.307C17.639 25.3078 18.5395 26.2082 18.5405 27.3195C18.5405 28.43 17.6395 29.3307 16.5286 29.3307C15.4177 29.3307 14.5168 28.43 14.5168 27.3189C14.5168 26.2295 15.3827 25.3424 16.4634 25.3081Z" fill="#FFE5AA"/>
</svg>
