<svg width="30" height="32" viewBox="0 0 30 32" xmlns="http://www.w3.org/2000/svg">
    <g fill="none" fill-rule="evenodd">
        <g fill="#052C50" fill-rule="nonzero">
            <path d="M12.795 11.427a.655.655 0 0 0 .659-.652v-.476a.655.655 0 0 0-.659-.652.655.655 0 0 0-.658.652v.476c0 .36.295.652.658.652z"/>
            <path d="M7.024 12.38c.267 0 .507-.159.609-.403a.648.648 0 0 0-.144-.71L5.555 9.36l-.016-.012a.656.656 0 0 0-.902 0l-.013.009-1.938 1.91a.648.648 0 0 0 .006.914.663.663 0 0 0 .923.01l.818-.802v3.68c0 .36.294.652.658.652a.655.655 0 0 0 .659-.652v-3.68l.813.802c.123.12.289.189.461.19zM22.58 25.465a.657.657 0 0 0-.388.318c-1.654 3.096-5.28 4.61-8.672 3.623-3.393-.988-5.614-4.204-5.314-7.694.3-3.49 3.04-6.288 6.552-6.692 3.512-.405 6.827 1.696 7.928 5.024a.662.662 0 0 0 1.126.245.647.647 0 0 0 .125-.65 8.751 8.751 0 0 0-4.82-5.231V7.913h2.2c.266 0 .507-.16.608-.404a.648.648 0 0 0-.145-.711L16.092 1.19a.663.663 0 0 0-.93 0L9.474 6.8a.648.648 0 0 0-.144.71.659.659 0 0 0 .608.403h2.199v.814c0 .36.295.652.658.652a.655.655 0 0 0 .659-.652V7.261a.655.655 0 0 0-.659-.652h-1.263l4.095-4.036 4.094 4.036H18.46a.655.655 0 0 0-.659.652v6.713a8.787 8.787 0 0 0-4.346 0v-1.53a.655.655 0 0 0-.659-.652.655.655 0 0 0-.658.652v1.969c-3.513 1.518-5.617 5.127-5.189 8.9.43 3.772 3.29 6.828 7.056 7.535 3.766.707 7.558-1.1 9.351-4.455a.65.65 0 0 0-.273-.881.664.664 0 0 0-.501-.047z" stroke="#052C50" stroke-width=".5"/>
            <path d="M23.713 21.687a.655.655 0 0 0-.658.652c0 .42-.036.839-.107 1.253a.649.649 0 0 0 .219.627.663.663 0 0 0 .66.112.653.653 0 0 0 .418-.518c.087-.486.13-.98.132-1.474a.65.65 0 0 0-.195-.463.662.662 0 0 0-.469-.189z"/>
            <path d="M28.564 11.267 26.629 9.36l-.013-.01a.664.664 0 0 0-.903 0l-.014.01-1.937 1.907a.648.648 0 0 0 .288 1.1c.23.06.475-.007.64-.176l.814-.802v3.68c0 .36.295.652.659.652a.655.655 0 0 0 .658-.652v-3.68l.814.802c.26.247.67.242.923-.01a.648.648 0 0 0 .006-.914z" stroke="#052C50" stroke-width=".5"/>
            <path d="M15.627 20.489h1.317a.655.655 0 0 0 .658-.653.655.655 0 0 0-.658-.652h-.659v-.913a.655.655 0 0 0-.658-.652.655.655 0 0 0-.659.652v1.034a1.945 1.945 0 0 0-1.317 1.862 1.946 1.946 0 0 0 1.366 1.826c.016.008.032.01.049.016.182.056.37.087.561.09h.232a.651.651 0 0 1-.232 1.257H14.31a.655.655 0 0 0-.659.652c0 .36.295.652.659.652h.658v.74c0 .36.295.652.659.652a.655.655 0 0 0 .658-.652v-.86a1.954 1.954 0 0 0 1.267-2.168 1.97 1.97 0 0 0-1.925-1.625h-.232a.651.651 0 0 1 .232-1.258z"/>
        </g>
        <path d="M0 1h30v30H0z"/>
    </g>
</svg>
