<svg width="100" height="101" viewBox="0 0 100 101" xmlns="http://www.w3.org/2000/svg">
    <g fill="none" fill-rule="evenodd">
        <g fill-rule="nonzero">
            <path d="M69.649 2h-8.024l-.69 2.509a4.5 4.5 0 0 1-4.33 3.32h-13.71a4.5 4.5 0 0 1-4.33-3.32L37.876 2H29.85c-2.078 0-3.772 1.662-3.848 3.74L26 5.886v88.728c0 2.097 1.647 3.807 3.707 3.883l.144.003H69.65c2.078 0 3.772-1.662 3.848-3.74l.003-.146V5.886c0-2.097-1.647-3.807-3.707-3.883L69.649 2z" fill="#FFF"/>
            <path d="M29.794 0h39.912c3.2 0 5.794 2.613 5.794 5.835v88.83c0 3.222-2.594 5.835-5.794 5.835H29.794c-3.2 0-5.794-2.613-5.794-5.835V5.835C24 2.613 26.594 0 29.794 0zm39.912 1.945H61.66l-.692 2.512a4.511 4.511 0 0 1-4.342 3.324h-13.75c-2.024 0-3.8-1.36-4.342-3.324l-.693-2.512h-8.046c-2.085 0-3.784 1.664-3.86 3.745l-.003.145v88.83c0 2.1 1.652 3.81 3.718 3.887l.145.003h39.912c2.085 0 3.784-1.664 3.86-3.745l.003-.145V5.835c0-2.1-1.652-3.81-3.718-3.887l-.145-.003zM57.153 92.071a.97.97 0 0 1 .966.973.97.97 0 0 1-.873.968l-.093.004H42.347a.97.97 0 0 1-.966-.972.97.97 0 0 1 .873-.969l.093-.004h14.806zm2.502-90.126h-19.81l.55 1.991a2.58 2.58 0 0 0 2.347 1.896l.133.003h13.75a2.577 2.577 0 0 0 2.442-1.771l.039-.128.549-1.99z" fill="#052C50"/>
            <path d="M60 2H39.5l.569 2.047a2.665 2.665 0 0 0 2.43 1.95l.137.003h14.229a2.665 2.665 0 0 0 2.527-1.821l.04-.132L60 2z" fill="#FFD166"/>
        </g>
        <g transform="translate(60.077 50.177)">
            <ellipse fill="#C33" cx="15.462" cy="15.484" rx="15.462" ry="15.484"/>
            <path d="M21.802 8.147a.75.75 0 0 1 .978.073l.053.059a.758.758 0 0 1 .006.936l-.059.067-6.218 6.217 6.218 6.22a.75.75 0 0 1-.988 1.125l-.073-.064-6.22-6.22-6.236 6.236-.075.063a.75.75 0 0 1-1.027-1.074l.059-.067 6.217-6.22L8.22 9.283a.75.75 0 0 1-.055-1.001l.055-.061a.755.755 0 0 1 .995-.059l.066.059 3.91 3.91 2.305 2.31 6.239-6.235z" fill="#FFF"/>
        </g>
        <path d="M50.014 30.5c4.267 0 7.746 3.385 7.918 7.624l.006.328v2.364a6.814 6.814 0 0 1 4.562 6.437v6.434c0 3.763-3.04 6.813-6.79 6.813H44.29c-3.75 0-6.79-3.05-6.79-6.813v-6.434a6.814 6.814 0 0 1 4.562-6.438v-2.398c.02-4.392 3.582-7.936 7.952-7.917zm5.697 12.19H44.289a4.555 4.555 0 0 0-4.547 4.563v6.434a4.555 4.555 0 0 0 4.547 4.563h11.422a4.555 4.555 0 0 0 4.547-4.563v-6.434a4.555 4.555 0 0 0-4.547-4.563zM50 47.68c.567 0 1.036.423 1.11.972l.01.153v3.331c0 .621-.502 1.125-1.12 1.125a1.123 1.123 0 0 1-1.112-.972l-.01-.153v-3.331c0-.622.502-1.125 1.121-1.125zm.009-14.93c-3.04-.013-5.532 2.37-5.697 5.379l-.009.293v2.018h11.392v-1.988c0-3.148-2.544-5.702-5.686-5.702z" fill="#052C50"/>
    </g>
</svg>
