<svg width="140" height="140" viewBox="0 0 140 140" xmlns="http://www.w3.org/2000/svg" xmlns:xlink="http://www.w3.org/1999/xlink">
    <defs>
        <path id="ps1rdyulta" d="M0 0h9.774v9.8H0z"/>
        <path id="913vgsgwmc" d="M0 0h13.683v13.72H0z"/>
        <path id="hvwgo07m4e" d="M0 0h9.774v9.8H0z"/>
    </defs>
    <g fill="none" fill-rule="evenodd">
        <g stroke="#073B4C" stroke-linecap="round" stroke-linejoin="round" stroke-width="2.45">
            <path d="M74.63 91.53c-11.422 2.633-22.813-4.518-25.44-15.973-2.626-11.455 4.506-22.876 15.93-25.509 11.424-2.633 22.814 4.518 25.44 15.972 2.627 11.455-4.505 22.876-15.93 25.51zm23.628-27.415a5.887 5.887 0 0 0-4.31-4.397c.947-1.9.838-4.25-.487-6.092a5.874 5.874 0 0 0-5.415-2.408 5.892 5.892 0 0 0-2.751-5.192 5.865 5.865 0 0 0-6.149-.053 5.882 5.882 0 0 0-4.64-3.962 5.866 5.866 0 0 0-5.526 2.136 5.866 5.866 0 0 0-5.607-1.72 5.885 5.885 0 0 0-4.386 4.321 5.862 5.862 0 0 0-6.075.488 5.901 5.901 0 0 0-2.401 5.429 5.871 5.871 0 0 0-5.178 2.76 5.908 5.908 0 0 0-.053 6.165 5.887 5.887 0 0 0-3.952 4.652 5.896 5.896 0 0 0 2.13 5.54 5.904 5.904 0 0 0-1.715 5.624 5.884 5.884 0 0 0 4.31 4.396 5.904 5.904 0 0 0 .487 6.092 5.868 5.868 0 0 0 5.413 2.408 5.896 5.896 0 0 0 2.753 5.193 5.865 5.865 0 0 0 6.148.053 5.882 5.882 0 0 0 4.64 3.962 5.868 5.868 0 0 0 5.526-2.137 5.867 5.867 0 0 0 5.608 1.721 5.885 5.885 0 0 0 4.384-4.322c1.895.95 4.239.841 6.076-.488a5.9 5.9 0 0 0 2.4-5.429 5.869 5.869 0 0 0 5.18-2.759 5.908 5.908 0 0 0 .053-6.165 5.9 5.9 0 0 0 1.82-10.194 5.9 5.9 0 0 0 1.717-5.622z" fill="#E9F4FC"/>
            <path d="m102.06 55.784 4.235.427M94.24 44.716l1.732-4.113M100.654 48.8l5.326-4.363M37.939 55.784l-4.234.427M45.759 44.716l-1.731-4.113M39.346 48.8l-5.326-4.363M71.736 98.012l10.265 20.99 6.322-10.365 12.045 1.335L90.03 88.835M90.402 102.95l-4.025-8.231M78.427 98.34l4.14 8.465M67.548 99.472l-9.551 19.531-6.322-10.367-12.044 1.337 9.765-19.968M57.432 106.803l4.538-9.28M53.656 94.648l-4.06 8.304"/>
            <path d="m71.24 59.16 2.754 5.595c.201.41.591.693 1.041.759l6.16.897c1.133.165 1.586 1.563.766 2.365l-4.457 4.355a1.389 1.389 0 0 0-.398 1.227l1.053 6.15c.193 1.134-.992 1.997-2.007 1.463l-5.508-2.904a1.378 1.378 0 0 0-1.287 0l-5.509 2.904c-1.014.534-2.2-.33-2.006-1.462l1.052-6.15a1.391 1.391 0 0 0-.398-1.228l-4.456-4.355c-.82-.802-.368-2.2.766-2.365l6.16-.897c.449-.066.839-.35 1.04-.759l2.754-5.596c.508-1.03 1.973-1.03 2.48 0z" fill="#FFD166"/>
        </g>
        <g transform="translate(18.2 74.9)">
            <mask id="c96vsb6mob" fill="#fff">
                <use xlink:href="#ps1rdyulta"/>
            </mask>
            <path d="M5.263.377a.377.377 0 1 0-.752 0A4.146 4.146 0 0 1 .376 4.523a.377.377 0 0 0 0 .754c2.28 0 4.135 1.86 4.135 4.146a.377.377 0 1 0 .752 0 4.146 4.146 0 0 1 4.135-4.146.377.377 0 0 0 0-.754A4.146 4.146 0 0 1 5.263.377zM-10.375-34.903a.377.377 0 1 0-.752 0 4.146 4.146 0 0 1-4.135 4.146.377.377 0 0 0 0 .754c2.28 0 4.135 1.86 4.135 4.146a.377.377 0 1 0 .752 0 4.146 4.146 0 0 1 4.135-4.146.377.377 0 0 0 0-.754 4.146 4.146 0 0 1-4.135-4.146z" fill="#073B4C" mask="url(#c96vsb6mob)"/>
        </g>
        <g transform="translate(63.158 16.1)">
            <mask id="gnc6zrvard" fill="#fff">
                <use xlink:href="#913vgsgwmc"/>
            </mask>
            <path d="M7.368.528a.527.527 0 1 0-1.053 0c0 3.2-2.597 5.804-5.789 5.804a.527.527 0 0 0 0 1.056c3.192 0 5.79 2.604 5.79 5.804a.527.527 0 1 0 1.052 0c0-3.2 2.597-5.804 5.789-5.804a.527.527 0 0 0 0-1.056c-3.192 0-5.79-2.604-5.79-5.804z" fill="#073B4C" mask="url(#gnc6zrvard)"/>
        </g>
        <g transform="translate(112.026 114.1)">
            <mask id="m67sw4ne2f" fill="#fff">
                <use xlink:href="#hvwgo07m4e"/>
            </mask>
            <path d="M5.263.377a.377.377 0 1 0-.752 0A4.146 4.146 0 0 1 .376 4.523a.377.377 0 0 0 0 .754c2.28 0 4.135 1.86 4.135 4.146a.377.377 0 1 0 .752 0 4.146 4.146 0 0 1 4.135-4.146.377.377 0 0 0 0-.754A4.146 4.146 0 0 1 5.263.377zM-10.375-35.883a.377.377 0 1 0-.752 0 4.146 4.146 0 0 1-4.135 4.146.377.377 0 0 0 0 .754c2.28 0 4.135 1.86 4.135 4.146a.377.377 0 1 0 .752 0 4.146 4.146 0 0 1 4.135-4.146.377.377 0 0 0 0-.754 4.146 4.146 0 0 1-4.135-4.146z" fill="#073B4C" mask="url(#m67sw4ne2f)"/>
        </g>
    </g>
</svg>
