<svg width="24" height="24" viewBox="0 0 24 24" xmlns="http://www.w3.org/2000/svg">
    <defs>
        <clipPath id="rh2majui8a">
            <path d="M360 0v640H0V0h360z"/>
        </clipPath>
        <clipPath id="24fw261m7b">
            <path d="M12.055 0C18.66.006 24.013 5.28 24 11.772c0 6.511-5.39 11.804-12.015 11.804a11.737 11.737 0 0 1-3.565-.538l-.37-.123-6.222 1.074a.944.944 0 0 1-.255.005l-.124-.024-.117-.041a.868.868 0 0 1-.465-1.15l1.653-3.771-.131-.168a11.595 11.595 0 0 1-2.383-6.668L0 11.81C0 5.398 5.228.167 11.716.01l.275-.003-.03.01a.266.266 0 0 0-.038.021l-.04.032.172-.07zm-.032 1.75c-5.648 0-10.244 4.51-10.244 10.054a9.835 9.835 0 0 0 2.441 6.484.87.87 0 0 1 .143.92l-1.217 2.778 4.84-.83a.905.905 0 0 1 .356.008l.109.035a10.22 10.22 0 0 0 3.54.634c5.555 0 10.092-4.365 10.239-9.789l.004-.31c-.007-5.525-4.578-9.997-10.211-9.984zm.158 2.75c.426 0 .772.38.772.849v1.154h1.427c.425 0 .771.38.771.848 0 .468-.346.849-.771.849h-3.222c-.615 0-1.115.55-1.115 1.226 0 .676.5 1.226 1.115 1.226h1.684c1.465 0 2.657 1.311 2.658 2.922 0 1.488-1.013 2.736-2.356 2.905l-.191.023v1.15c0 .468-.346.848-.772.848-.425 0-.771-.38-.771-.848v-1.155H9.62c-.425 0-.771-.38-.771-.848 0-.468.346-.848.77-.848h3.223c.614 0 1.114-.55 1.114-1.227 0-.676-.5-1.225-1.114-1.225h-1.684c-1.466 0-2.658-1.311-2.658-2.923s1.192-2.923 2.658-2.923h.252V5.349c0-.468.346-.849.771-.849z"/>
        </clipPath>
    </defs>
    <g clip-path="url(#rh2majui8a)" transform="translate(-15 -231)">
        <g clip-path="url(#24fw261m7b)" transform="translate(15 231)">
            <path fill="#063B4C" d="M0 0h24v24H0V0z"/>
        </g>
    </g>
</svg>
