<svg width="130" height="130" viewBox="0 0 130 130" xmlns="http://www.w3.org/2000/svg" xmlns:xlink="http://www.w3.org/1999/xlink">
    <defs>
        <path id="1twjr78vwa" d="M0 0h14.151v6.118H0z"/>
        <path id="vtefkdbgkc" d="M0 0h14.151v5.098H0z"/>
        <path d="M.82.065a.283.283 0 0 0-.088.19L.728.312a.786.786 0 0 0-.646.731.801.801 0 0 0 .52.818l.418.143a.258.258 0 0 1 .165.26.254.254 0 0 1-.081.173.225.225 0 0 1-.173.057l-.207-.016a.21.21 0 0 1-.15-.077.226.226 0 0 1-.05-.16.267.267 0 0 0-.24-.294.249.249 0 0 0-.191.064.28.28 0 0 0-.091.19.773.773 0 0 0 .542.8l-.004.055a.268.268 0 0 0 .245.29c.008.002.015.002.022.002.06 0 .118-.022.164-.062a.285.285 0 0 0 .092-.193l.004-.057a.782.782 0 0 0 .646-.732.799.799 0 0 0-.52-.817l-.42-.144a.252.252 0 0 1-.163-.26.255.255 0 0 1 .081-.172.224.224 0 0 1 .173-.06l.207.016a.22.22 0 0 1 .2.24.281.281 0 0 0 .06.2.258.258 0 0 0 .182.094c.152.01.268-.103.28-.255v-.001a.775.775 0 0 0-.545-.797l.004-.053a.283.283 0 0 0-.06-.2.258.258 0 0 0-.18-.095H.999a.261.261 0 0 0-.18.065z" id="yoo4il8l5g"/>
        <path d="M.82.065a.28.28 0 0 0-.088.19L.728.312a.788.788 0 0 0-.646.732.803.803 0 0 0 .521.817l.418.143a.257.257 0 0 1 .164.26.256.256 0 0 1-.081.173.228.228 0 0 1-.173.057l-.207-.016a.21.21 0 0 1-.15-.076.226.226 0 0 1-.049-.16.267.267 0 0 0-.24-.295.25.25 0 0 0-.192.064.277.277 0 0 0-.091.19A.773.773 0 0 0 .545 3l-.005.056c-.007.155.099.28.245.291l.023.001c.06 0 .117-.022.163-.063a.283.283 0 0 0 .092-.192l.004-.057a.782.782 0 0 0 .647-.732.798.798 0 0 0-.521-.817l-.42-.144a.252.252 0 0 1-.162-.259.254.254 0 0 1 .08-.172.225.225 0 0 1 .173-.06l.207.015a.22.22 0 0 1 .2.24.282.282 0 0 0 .06.2.26.26 0 0 0 .182.094c.152.008.269-.102.28-.255l.002-.033v-.038a.773.773 0 0 0-.547-.727l.004-.053a.28.28 0 0 0-.06-.2.257.257 0 0 0-.18-.094L.995 0A.255.255 0 0 0 .82.065z" id="te1ah1f17i"/>
        <path d="M0 5.408c0 2.988 2.41 5.409 5.385 5.409 2.973 0 5.383-2.421 5.383-5.409C10.766 2.424 8.357.004 5.385 0 2.41 0 0 2.421 0 5.408zm7.413-1.357a.258.258 0 0 0 .186-.079.267.267 0 0 0 .073-.192.275.275 0 0 0-.21-.26l-.51-.116a.931.931 0 0 1-.03-1.809l-.001-.051a.335.335 0 0 1 .089-.24.328.328 0 0 1 .234-.1.34.34 0 0 1 .236.093c.063.06.097.143.099.233v.046a.907.907 0 0 1 .733.86v.002a.332.332 0 0 1-.322.34h-.004a.329.329 0 0 1-.335-.325.235.235 0 0 0-.073-.168.228.228 0 0 0-.17-.065l-.25.006A.264.264 0 0 0 6.9 2.5a.27.27 0 0 0 .208.26l.513.116a.929.929 0 0 1 .72.889.93.93 0 0 1-.69.92v.05a.337.337 0 0 1-.093.243.32.32 0 0 1-.227.097h-.007a.328.328 0 0 1-.333-.321l-.001-.05a.903.903 0 0 1-.73-.864.33.33 0 0 1 .327-.339h.006c.181 0 .326.142.329.326a.23.23 0 0 0 .07.164c.046.044.111.066.173.066l.248-.006zm-3.855-.053a.275.275 0 0 0-.094-.463l-.498-.163a.932.932 0 0 1 .139-1.804l.004-.05a.32.32 0 0 1 .353-.308v-.001a.329.329 0 0 1 .303.355l-.003.047a.907.907 0 0 1 .649.925v.001a.325.325 0 0 1-.353.309.328.328 0 0 1-.306-.356.237.237 0 0 0-.222-.254l-.248-.018A.262.262 0 0 0 3 2.466c-.011.124.065.24.182.278l.5.164a.931.931 0 0 1 .634.953.927.927 0 0 1-.773.852l-.004.05a.337.337 0 0 1-.116.233.316.316 0 0 1-.207.075h-.028a.33.33 0 0 1-.308-.352l.003-.05a.902.902 0 0 1-.646-.929.327.327 0 0 1 .358-.306c.089.007.17.047.225.114a.332.332 0 0 1 .077.242.233.233 0 0 0 .055.17c.042.048.1.076.166.08l.247.019.025.001c.063 0 .121-.022.168-.062zm-.224 4.87v-.002c-1.093-.55-2.11-1.619-2.11-3.212 0-.136.11-.246.244-.246.068 0 .178.012.422.039 1.16.135 2.327.204 3.495.207 1.297 0 2.594-.082 3.882-.243a.244.244 0 0 1 .279.243c0 1.76-.931 2.777-2.147 3.265-.103.98-.924 1.652-2.01 1.652h-.004c-.887-.002-1.69-.463-2.051-1.704z" id="nbq8ifw9lk"/>
        <path d="M.407 0A.397.397 0 0 0 0 .387v1.828c0 .768.654 1.39 1.46 1.39.893 0 1.617-.689 1.617-1.538V.422A.433.433 0 0 0 2.634 0H.407z" id="qtvx3dehcm"/>
        <path d="M.82.065a.28.28 0 0 0-.088.19L.728.312a.788.788 0 0 0-.646.732.803.803 0 0 0 .521.817l.418.143a.257.257 0 0 1 .164.26.256.256 0 0 1-.081.173.228.228 0 0 1-.173.057l-.207-.016a.21.21 0 0 1-.15-.076.226.226 0 0 1-.049-.16.267.267 0 0 0-.24-.295.25.25 0 0 0-.192.064.277.277 0 0 0-.091.19A.773.773 0 0 0 .545 3l-.005.056c-.007.155.099.28.245.291l.023.001c.06 0 .117-.022.163-.063a.283.283 0 0 0 .092-.192l.004-.057a.782.782 0 0 0 .647-.732.798.798 0 0 0-.521-.817l-.42-.144a.252.252 0 0 1-.162-.259.254.254 0 0 1 .08-.172.225.225 0 0 1 .173-.06l.207.015a.22.22 0 0 1 .2.24.282.282 0 0 0 .06.2.26.26 0 0 0 .182.094c.152.008.269-.102.28-.255l.002-.033v-.038a.773.773 0 0 0-.547-.727l.004-.053a.28.28 0 0 0-.06-.2.257.257 0 0 0-.18-.094L.995 0A.255.255 0 0 0 .82.065z" id="of4oe3hn6o"/>
        <path id="yvbdlq5vpq" d="M0 0h14.968v7.136H0z"/>
        <path id="m6gh1333is" d="M1.294 1.292h8.07v8.08h-8.07z"/>
        <path id="0nm3ibem4u" d="M1.916 1.916h11.963v11.963H1.916z"/>
        <path id="ow46tliw0w" d="M1.294 1.292h8.07v8.08h-8.07z"/>
        <rect id="kljoftiyfe" x="0" y="0" width="16.42" height="8.157" rx="2.669"/>
    </defs>
    <g fill="none" fill-rule="evenodd">
        <path d="M117.68 59.707c5.535 2.002 10.026 6.565 11.657 12.651 2.626 9.802-3.356 19.948-13.136 22.778l.518 1.935a.453.453 0 0 1-.588.543l-5.607-1.95a.448.448 0 0 1-.192-.717l3.88-4.492a.453.453 0 0 1 .782.175l.519 1.942.1-.029c8.298-2.486 13.38-11.139 11.142-19.493-1.397-5.216-5.244-9.127-9.987-10.845a1.31 1.31 0 0 1-.612-2.023l.015-.02a1.33 1.33 0 0 1 1.509-.455z" fill="#073B4C" fill-rule="nonzero"/>
        <g transform="translate(8.45 39.65)">
            <rect stroke="#073B4C" stroke-width="1.869" fill="#5A50F9" x=".934" y="24.334" width="5.931" height="16.981" rx="2.669"/>
            <rect stroke="#073B4C" stroke-width="1.869" fill="#5A50F9" x="92.584" y="24.334" width="5.931" height="16.981" rx="2.669"/>
            <rect stroke="#073B4C" stroke-width="2.362" fill="#E9F4FC" x="94.781" y="4.431" width="2.838" height="27.538" rx="1.419"/>
            <circle stroke="#073B4C" stroke-width="2.362" fill="#FFD166" cx="95.225" cy="5.525" r="4.344"/>
            <g transform="translate(4.55 13)">
                <rect fill="#7ADEFF" y=".537" width="90.35" height="38.426" rx="19.213"/>
                <g fill="#FFF">
                    <path d="M19.108 14.637v-.824c.056-.062.12-.12.185-.171.286-.224.695-.008.695.366v.83a.105.105 0 0 1-.14.1 6.659 6.659 0 0 0-.677-.217.086.086 0 0 1-.063-.084zm.08 3.278a.34.34 0 0 1-.331-.347c0-.77.595-1.395 1.33-1.395.736 0 1.33.625 1.33 1.395a.34.34 0 0 1-.332.347.34.34 0 0 1-.332-.347c0-.386-.3-.697-.665-.697-.368 0-.667.311-.667.697a.34.34 0 0 1-.332.347zm-6.036-.356a.284.284 0 0 1-.044-.387c1.114-1.458 3.51-1.751 3.613-1.764a.268.268 0 0 1 .294.245.278.278 0 0 1-.236.309c-.023 0-2.28.275-3.257 1.556a.261.261 0 0 1-.206.103.259.259 0 0 1-.164-.062zm-1.218.29a3.226 3.226 0 0 0-.094.776c0 1.319.835 2.56 2.226 3.338l.152 1.237a.626.626 0 0 0 .661.497h.516a.626.626 0 0 0 .66-.496l.065-.53a7.256 7.256 0 0 0 2.442 0l.066.537a.618.618 0 0 0 .66.489h.515a.618.618 0 0 0 .661-.489l.157-1.248a4.47 4.47 0 0 0 1.883-1.887l.742-.21a.686.686 0 0 0 .486-.67v-1.721c0-.382-.295-.692-.66-.692h-.795a4.781 4.781 0 0 0-1.848-1.593v-2.095a.225.225 0 0 0-.22-.23c-.392 0-.775.122-1.101.35v-.12c0-.128-.1-.23-.22-.23-.93-.002-1.736.676-1.936 1.627-2.266.117-4.132 1.252-4.823 2.8l-.02-.02c-.05.191-.106.38-.182.562l.007.019z"/>
                    <path d="M11.128 16.87a1.813 1.813 0 0 1-.298-.37.505.505 0 0 1-.009-.544c.072-.128.277-.393.442-.321.19.084.126.396.086.55a7.508 7.508 0 0 1-.19.606c-.009.027-.02.052-.03.079m-.71 1.854c.309-.375.637-.747.871-1.18a3.299 3.299 0 0 0 .538.28c.091.038.194-.025.24-.11a.206.206 0 0 0 .01-.028l.008-.017c.032-.124-.042-.23-.147-.274l-.11-.049a2.706 2.706 0 0 1-.356-.198c.025-.061.049-.123.071-.185a5.02 5.02 0 0 0 .24-.793c.054-.295.024-.616-.194-.83-.214-.212-.52-.194-.752-.029-.469.334-.678.956-.334 1.471.124.185.272.35.436.495-.224.41-.516.767-.816 1.133-.177.215.118.53.296.314"/>
                </g>
                <path d="m46.257 13.574.14.213.167.247.19.276.14.197.146.204.154.21.16.213.166.214.084.107.172.213.175.209c.616.723 1.269 1.34 1.778 1.458.3.07.8-.076 1.315-.289l.206-.088.102-.046.203-.096.198-.097.19-.096.264-.14.08-.045a.28.28 0 0 1 .415.278l-.006.037-1.54 6.123a.679.679 0 0 1-.6.51l-.058.002h-8.927a.707.707 0 0 1-.669-.477l-.017-.058-1.513-6.102a.28.28 0 0 1 .374-.33l.034.016.254.137.185.096.194.097.2.096.205.094c.584.26 1.183.458 1.523.378.453-.107 1.026-.622 1.584-1.255l.176-.203.174-.209.085-.106.17-.214.164-.214.16-.213.153-.21.217-.303.197-.284.278-.412.09-.138c.11-.169.358-.169.468 0zm2.91 6.953h-1.598a.17.17 0 0 0-.17.162c-.053 1.149 1.44 1.675 1.93.054a.168.168 0 0 0-.13-.212l-.032-.004zm-2.833-1.695a.462.462 0 1 0-.001.923.462.462 0 0 0 .001-.923zm3.338 0a.462.462 0 1 0-.002.923.462.462 0 0 0 .002-.923z" fill="#FFF"/>
                <g fill="#FFF">
                    <path d="M76.35 14.637v-.824c.057-.062.12-.12.185-.171.286-.224.695-.008.695.366v.83a.105.105 0 0 1-.14.1 6.659 6.659 0 0 0-.677-.217.086.086 0 0 1-.063-.084zm.08 3.278a.34.34 0 0 1-.331-.347c0-.77.595-1.395 1.33-1.395.736 0 1.33.625 1.33 1.395a.34.34 0 0 1-.332.347.34.34 0 0 1-.332-.347c0-.386-.3-.697-.665-.697-.368 0-.667.311-.667.697a.34.34 0 0 1-.332.347zm-6.036-.356a.284.284 0 0 1-.043-.387c1.113-1.458 3.51-1.751 3.612-1.764a.268.268 0 0 1 .294.245.278.278 0 0 1-.236.309c-.023 0-2.28.275-3.257 1.556a.261.261 0 0 1-.206.103.259.259 0 0 1-.164-.062zm-1.217.29a3.226 3.226 0 0 0-.095.776c0 1.319.835 2.56 2.226 3.338l.153 1.237a.626.626 0 0 0 .66.497h.516a.626.626 0 0 0 .66-.496l.065-.53a7.256 7.256 0 0 0 2.442 0l.066.537a.618.618 0 0 0 .661.489h.515a.618.618 0 0 0 .66-.489l.157-1.248a4.47 4.47 0 0 0 1.883-1.887l.742-.21a.686.686 0 0 0 .486-.67v-1.721c0-.382-.295-.692-.66-.692h-.795a4.781 4.781 0 0 0-1.848-1.593v-2.095a.225.225 0 0 0-.22-.23c-.392 0-.775.122-1.101.35v-.12c0-.128-.1-.23-.22-.23-.93-.002-1.736.676-1.936 1.627-2.266.117-4.132 1.252-4.823 2.8l-.02-.02c-.05.191-.105.38-.182.562l.008.019z"/>
                    <path d="M68.37 16.87a1.813 1.813 0 0 1-.298-.37.505.505 0 0 1-.009-.544c.073-.128.277-.393.442-.321.19.084.126.396.086.55a7.508 7.508 0 0 1-.19.606c-.009.027-.02.052-.03.079m-.709 1.854c.308-.375.636-.747.87-1.18a3.299 3.299 0 0 0 .538.28c.091.038.194-.025.24-.11a.206.206 0 0 0 .011-.028l.007-.017c.032-.124-.042-.23-.147-.274l-.11-.049a2.706 2.706 0 0 1-.356-.198c.025-.061.049-.123.071-.185a5.02 5.02 0 0 0 .24-.793c.054-.295.024-.616-.194-.83-.214-.212-.52-.194-.752-.029-.469.334-.678.956-.334 1.471.124.185.272.35.436.495-.224.41-.515.767-.816 1.133-.177.215.118.53.296.314"/>
                </g>
                <g transform="translate(12.256 2.805)">
                    <mask id="fifgrv4vub" fill="#fff">
                        <use xlink:href="#1twjr78vwa"/>
                    </mask>
                    <path d="M13.589-1.897c-.032.193-.155.424-.333.62-.14.152-.301.28-.468.371l-.092.05a.223.223 0 0 0 .006.393l.094.047c.013.007.031.022.054.043.066.063.097.15.097.267 0 .321-.512.512-.778.52-.022.003-.043.003-.066.003-.016.002-.031.002-.047.002-.14 0-.26-.009-.367-.028l-.107-.017c-.154-.026-.28.122-.236.275l.027.095V.75c.002.117-.052.227-.163.333a.387.387 0 0 1-.278.102c-.254 0-.551-.163-.681-.278C10.02.7 9.892.389 9.855.289l.349-1.154c.164-.096.367-.139.583-.185l.017-.004a2.85 2.85 0 0 0 .476-.126 4.006 4.006 0 0 0 1.11-.605c.095-.074.188-.172.277-.263.39-.393.559-.471.72-.335a.528.528 0 0 1 .202.486zm-1.253-.607-.07.07c-.08.083-.157.161-.22.21l-.005.004c-.253.204-.559.37-.959.52a2.514 2.514 0 0 1-.392.102l-.02.005c-.188.04-.392.082-.588.17l.223-.737c.034-.116.047-.231.048-.344H7.414l.288.087c.85.257 1.335 1.174 1.085 2.048l-.942 3.294c-.25.873-1.142 1.373-1.99 1.116l-1.081-.328c-.85-.257-1.335-1.174-1.085-2.048l.943-3.293a1.63 1.63 0 0 1 .617-.876H3.22c.134.098.248.201.324.329.019.034.037.07.053.114L3.25-.913l-.016.016c-.161.144-.32.246-.47.301-.17.062-.516.104-.758.011a.398.398 0 0 1-.229-.206c-.064-.143-.074-.27-.029-.378l.002-.002c.002-.005.002-.009.005-.013l.005-.007c.125-.15.05-.384-.14-.426l-.026-.006a2.132 2.132 0 0 1-.36-.115l-.008-.002c-.03-.012-.06-.023-.084-.036l-.014-.007C.894-1.88.522-2.21.568-2.504H.002c-.036.576.524 1.067.898 1.229.044.021.085.036.122.053l.151.057c-.025.161-.01.365.095.603a.963.963 0 0 0 .532.493c.17.065.36.093.549.093.227 0 .445-.04.606-.097.11-.041.219-.096.328-.166L2.136 3.55c-.171.566.091 1.148.582 1.299l4.117 1.233c.495.15 1.036-.193 1.206-.764L9.434.714c.09.182.235.418.446.607.175.155.594.42 1.052.42.26 0 .49-.091.664-.259.183-.174.272-.355.309-.511.07.004.147.004.22.002.017-.002.034-.002.048-.002h.008c.462-.015 1.325-.344 1.325-1.077 0-.195-.05-.369-.143-.515.108-.083.21-.179.306-.282.252-.277.422-.608.47-.907a1.047 1.047 0 0 0-.137-.694h-1.666z" fill="#FFF" mask="url(#fifgrv4vub)"/>
                </g>
                <path d="m19.26 1.44.057-.214a.313.313 0 0 0-.207-.39c-.168-.048-.322.046-.366.222l-.056.215c-.561-.085-1.11.275-1.264.87a1.237 1.237 0 0 0 .53 1.372l.644.385a.603.603 0 0 1 .25.658c-.079.306-.372.485-.66.396l-.336-.1a.526.526 0 0 1-.35-.648.314.314 0 0 0-.204-.39c-.163-.049-.326.046-.373.22-.149.58.15 1.185.67 1.397l-.055.212c-.042.173.047.342.214.39.159.051.317-.048.364-.222l.056-.212c.554.09 1.11-.278 1.264-.87a1.236 1.236 0 0 0-.531-1.374l-.645-.385a.592.592 0 0 1-.251-.659c.079-.306.372-.482.66-.398l.339.097a.53.53 0 0 1 .349.653c-.047.174.042.342.204.39a.3.3 0 0 0 .373-.221c.15-.58-.149-1.187-.675-1.393" fill="#FFF"/>
                <g transform="translate(40.286 3.001)">
                    <mask id="27enz3fi9d" fill="#fff">
                        <use xlink:href="#vtefkdbgkc"/>
                    </mask>
                    <path d="M13.589-2.917c-.032.193-.155.425-.333.62-.14.153-.301.28-.468.372l-.092.05a.223.223 0 0 0 .006.393l.094.046c.013.008.031.022.054.044.066.063.097.15.097.267 0 .32-.512.512-.778.52-.022.002-.043.002-.066.002-.016.002-.031.002-.047.002-.14 0-.26-.008-.367-.028l-.107-.017c-.154-.026-.28.122-.236.275l.027.095v.006c.002.117-.052.227-.163.333a.387.387 0 0 1-.278.103c-.254 0-.551-.164-.681-.279-.23-.205-.359-.517-.396-.618l.349-1.154c.164-.096.367-.138.583-.185l.017-.004a2.85 2.85 0 0 0 .476-.125 4.006 4.006 0 0 0 1.11-.605c.095-.074.188-.172.277-.264.39-.392.559-.47.72-.335a.528.528 0 0 1 .202.486zm-1.253-.607-.07.07c-.08.083-.157.161-.22.21l-.005.004c-.253.204-.559.37-.959.521a2.514 2.514 0 0 1-.392.102l-.02.004c-.188.04-.392.083-.588.17l.223-.737c.034-.116.047-.231.048-.344H7.414l.288.087c.85.258 1.335 1.175 1.085 2.048l-.942 3.294c-.25.873-1.142 1.373-1.99 1.116l-1.081-.328C3.924 2.436 3.439 1.52 3.689.645l.943-3.293a1.63 1.63 0 0 1 .617-.876H3.22c.134.098.248.202.324.33.019.033.037.07.053.114L3.25-1.932l-.016.015c-.161.144-.32.246-.47.302-.17.061-.516.103-.758.01a.398.398 0 0 1-.229-.206c-.064-.142-.074-.27-.029-.377l.002-.002c.002-.005.002-.01.005-.013l.005-.007c.125-.15.05-.384-.14-.427l-.026-.006a2.132 2.132 0 0 1-.36-.114l-.008-.003c-.03-.012-.06-.023-.084-.036l-.014-.006c-.234-.099-.606-.429-.56-.722H.002c-.036.576.524 1.067.898 1.23.044.02.085.035.122.052l.151.057c-.025.162-.01.366.095.603a.963.963 0 0 0 .532.493c.17.066.36.093.549.093.227 0 .445-.04.606-.097.11-.04.219-.096.328-.166L2.136 2.53c-.171.567.091 1.149.582 1.299l4.117 1.234c.495.15 1.036-.194 1.206-.765L9.434-.306c.09.182.235.419.446.607.175.155.594.42 1.052.42.26 0 .49-.09.664-.258.183-.174.272-.355.309-.512.07.004.147.004.22.002.017-.002.034-.002.048-.002h.008c.462-.015 1.325-.343 1.325-1.076 0-.195-.05-.37-.143-.516.108-.083.21-.178.306-.282.252-.276.422-.607.47-.907a1.047 1.047 0 0 0-.137-.694h-1.666z" fill="#FFF" mask="url(#27enz3fi9d)"/>
                </g>
                <g transform="translate(64.555 1.045)">
                    <mask id="3urx5o37jf" fill="#fff">
                        <use xlink:href="#kljoftiyfe"/>
                    </mask>
                    <g mask="url(#3urx5o37jf)" fill="#FFF">
                        <path d="M15.097 4.072c.08.006.15.041.2.099a.28.28 0 0 1 .067.152l.001.058-.004.057a.822.822 0 0 1 .61.756v.082a.29.29 0 0 1-.314.27.294.294 0 0 1-.203-.1.281.281 0 0 1-.067-.152l-.001-.058a.234.234 0 0 0-.174-.244l-.05-.008-.23-.017a.262.262 0 0 0-.284.245.264.264 0 0 0 .135.252l.047.02.469.152a.84.84 0 0 1-.058 1.615l-.083.016-.004.06a.292.292 0 0 1-.103.202.283.283 0 0 1-.133.061l-.05.005-.025-.001a.288.288 0 0 1-.272-.253l-.002-.053.005-.06a.816.816 0 0 1-.607-.841.287.287 0 0 1 .102-.2.293.293 0 0 1 .215-.067c.145.012.254.12.268.257v.053a.227.227 0 0 0 .056.169c.031.035.072.06.119.072l.047.008.232.017a.26.26 0 0 0 .284-.242.27.27 0 0 0-.136-.252l-.048-.022-.467-.15a.844.844 0 0 1-.582-.86.845.845 0 0 1 .64-.753l.083-.017.004-.06c.006-.08.04-.15.098-.2a.3.3 0 0 1 .215-.068zm-7.138-7.86c3.14.004 5.687 2.516 5.69 5.616 0 3.102-2.547 5.616-5.69 5.616-3.143 0-5.69-2.514-5.69-5.616s2.547-5.616 5.69-5.616zM3.821 1.828a.257.257 0 0 0-.26.255c0 1.595 1 2.684 2.108 3.273l.123.063c.365 1.238 1.162 1.729 2.055 1.768l.112.002c1.153 0 2.02-.697 2.129-1.715 1.284-.507 2.268-1.563 2.268-3.391a.254.254 0 0 0-.295-.252 33.92 33.92 0 0 1-4.102.252 33.05 33.05 0 0 1-3.08-.15l-.954-.1-.104-.005zm5.333.977c.234 0 .427.162.46.373l.005.065v1.708c0 .882-.759 1.597-1.695 1.597-.81 0-1.474-.594-1.528-1.345l-.004-.099V3.207a.41.41 0 0 1 .363-.398l.063-.004h2.336zm.77-5.343a.337.337 0 0 0-.338.296l-.003.057v.053a.97.97 0 0 0-.728.954.97.97 0 0 0 .675.9l.086.025.54.12c.126.03.217.141.22.27a.272.272 0 0 1-.218.275l-.055.006-.263.006a.267.267 0 0 1-.182-.068.238.238 0 0 1-.07-.123L9.584.185a.34.34 0 0 0-.285-.332L9.23-.152a.351.351 0 0 0-.249.104.34.34 0 0 0-.097.247.94.94 0 0 0 .686.877l.086.02v.052c.008.17.128.301.29.328l.07.005a.339.339 0 0 0 .336-.295l.003-.057-.001-.052a.965.965 0 0 0 .055-1.855l-.087-.024-.542-.121a.28.28 0 0 1-.219-.27.276.276 0 0 1 .222-.279l.05-.005.264-.006a.247.247 0 0 1 .251.192l.006.05c.003.169.124.305.29.333l.064.005a.35.35 0 0 0 .34-.291l.005-.062a.945.945 0 0 0-.69-.876l-.084-.02-.001-.047a.34.34 0 0 0-.104-.243.365.365 0 0 0-.25-.096zm-4.252.085a.338.338 0 0 0-.11.184l-.008.056-.004.053a.974.974 0 0 0-.816.883.969.969 0 0 0 .586.958l.084.032.526.17a.285.285 0 0 1 .194.288.272.272 0 0 1-.243.255h-.056L5.563.408A.253.253 0 0 1 5.39.324.238.238 0 0 1 5.33.195L5.33.147a.34.34 0 0 0-.32-.37.344.344 0 0 0-.378.319.937.937 0 0 0 .6.936l.084.028-.004.052c-.01.193.13.35.326.365h.03A.338.338 0 0 0 6 1.215l.009-.056.004-.052a.965.965 0 0 0 .23-1.842l-.084-.032-.528-.17a.28.28 0 0 1-.192-.29.276.276 0 0 1 .247-.257h.051L6-1.468a.248.248 0 0 1 .233.214l.001.05a.338.338 0 0 0 .324.37.34.34 0 0 0 .363-.259l.01-.062a.942.942 0 0 0-.603-.935l-.083-.027.003-.048a.338.338 0 0 0-.32-.37.342.342 0 0 0-.255.081zM1.186-4.258c.08.006.15.039.2.092.036.04.059.09.065.143l.001.054-.004.053c.344.086.593.376.605.707l-.001.077c-.013.15-.142.261-.31.251a.299.299 0 0 1-.202-.092.254.254 0 0 1-.066-.143v-.054a.22.22 0 0 0-.174-.228l-.048-.008-.23-.015a.267.267 0 0 0-.19.06.24.24 0 0 0-.09.168c-.01.098.045.19.134.236l.046.02.465.14c.368.115.605.445.576.805-.025.34-.284.62-.628.703l-.088.017-.004.055a.268.268 0 0 1-.102.19.29.29 0 0 1-.18.061H.934c-.144-.01-.253-.108-.27-.237v-.05l.003-.055c-.373-.095-.627-.42-.6-.786a.264.264 0 0 1 .1-.187.298.298 0 0 1 .213-.063c.144.011.252.113.265.24v.05a.205.205 0 0 0 .056.157.236.236 0 0 0 .118.068l.047.008.23.015a.267.267 0 0 0 .19-.056.238.238 0 0 0 .09-.17.25.25 0 0 0-.134-.236l-.047-.02-.463-.14c-.37-.117-.606-.448-.577-.804.025-.338.284-.617.629-.702l.087-.017.005-.056a.265.265 0 0 1 .096-.187.317.317 0 0 1 .213-.064z"/>
                    </g>
                </g>
                <path d="m47.291.617.056-.214a.313.313 0 0 0-.207-.39c-.168-.049-.321.046-.366.222l-.056.214c-.56-.084-1.11.275-1.264.87a1.237 1.237 0 0 0 .531 1.372l.643.386a.603.603 0 0 1 .251.658c-.08.306-.373.484-.661.395l-.335-.1a.526.526 0 0 1-.35-.647.314.314 0 0 0-.205-.39c-.163-.049-.326.045-.372.22-.15.58.148 1.185.67 1.397l-.056.212c-.042.173.047.342.214.39.159.051.317-.048.364-.223l.056-.211c.554.09 1.11-.278 1.264-.87a1.236 1.236 0 0 0-.53-1.375l-.646-.385a.592.592 0 0 1-.251-.658c.079-.306.372-.482.66-.398l.339.097a.53.53 0 0 1 .349.653c-.047.174.042.342.205.39a.3.3 0 0 0 .372-.222c.15-.579-.149-1.186-.675-1.393" fill="#FFF"/>
                <g>
                    <g transform="translate(10.163 28.968)">
                        <mask id="nw5rz2lxeh" fill="#fff">
                            <use xlink:href="#yoo4il8l5g"/>
                        </mask>
                        <path fill="#FFF" mask="url(#nw5rz2lxeh)" d="M-.162 3.496h2.12V-.15h-2.12z"/>
                    </g>
                    <g transform="translate(23.495 36.952)">
                        <mask id="8pcrhr2g6j" fill="#fff">
                            <use xlink:href="#te1ah1f17i"/>
                        </mask>
                        <path fill="#FFF" mask="url(#8pcrhr2g6j)" d="M-.163.597h2.121v-.749h-2.12z"/>
                    </g>
                    <g transform="translate(12.214 29.483)">
                        <mask id="8kx737t3zl" fill="#fff">
                            <use xlink:href="#nbq8ifw9lk"/>
                        </mask>
                        <path fill="#FFF" mask="url(#8kx737t3zl)" d="M-.149 8.174h11.067V-.15H-.15z"/>
                    </g>
                    <g transform="translate(16.06 35.664)">
                        <mask id="n8508l8xcn" fill="#fff">
                            <use xlink:href="#qtvx3dehcm"/>
                        </mask>
                        <path fill="#FFF" mask="url(#n8508l8xcn)" d="M-.15 1.825h3.377V-.15H-.15z"/>
                    </g>
                </g>
                <g transform="translate(59.225 31.854)">
                    <mask id="0zd03l9elp" fill="#fff">
                        <use xlink:href="#of4oe3hn6o"/>
                    </mask>
                    <path fill="#FFF" mask="url(#0zd03l9elp)" d="M-.163.597h2.121v-.749h-2.12z"/>
                </g>
                <g transform="translate(38.756 30.693)">
                    <mask id="wqp5cv6hdr" fill="#fff">
                        <use xlink:href="#yvbdlq5vpq"/>
                    </mask>
                    <path d="m1.258 3.113 1.28-1.872a.231.231 0 0 1 .384 0L4.2 3.113c.11.16-.002.38-.192.38H1.451c-.19 0-.302-.22-.193-.38zM3.843.68h2.554c.19 0 .302.22.192.38L5.312 2.916a.231.231 0 0 1-.384 0L3.651 1.06c-.11-.16.001-.38.192-.38zm3.842.56 1.277 1.857c.11.16-.002.38-.192.38H5.773l-.01.017v-.016h.01L7.3 1.24a.231.231 0 0 1 .384 0zm.903-.56h2.554c.19 0 .302.22.192.38l-1.277 1.857a.231.231 0 0 1-.383 0L8.397 1.06c-.11-.16 0-.38.191-.38zm3.86.576 1.277 1.858c.11.16-.002.38-.192.38h-2.554c-.19 0-.302-.22-.192-.38l1.277-1.858a.231.231 0 0 1 .384 0zM.018 3.99c.018.016.036.05.053.066l3.031 3.08h.995l-2.53-2.568c-.15-.151-.045-.412.165-.412h2.952c.1 0 .19.066.222.164l.922 2.816h.75l-.872-2.662a.24.24 0 0 1 .223-.318h3.128a.24.24 0 0 1 .223.318l-.872 2.662h.749l.922-2.816a.235.235 0 0 1 .223-.164h2.952c.21 0 .314.26.165.412l-2.53 2.568h.967l3.04-3.096c.018-.017.036-.034.054-.067v-.016c.018-.017.018-.033.018-.066v-.1c0-.033 0-.05-.018-.083v-.016c0-.017-.018-.033-.036-.05v-.016L12.54.149l-.053-.05s-.018 0-.018-.016c-.018-.017-.036-.017-.054-.034 0 0-.017 0-.017-.016-.018 0-.036-.017-.054-.017h-.018c-.018 0-.053-.016-.089-.016H2.729c-.035 0-.053 0-.089.016h-.017c-.018 0-.036.017-.054.017 0 0-.018 0-.018.016-.018.034-.036.034-.053.05 0 0-.018 0-.018.017l-.053.05L.054 3.641v.017c-.018.016-.018.033-.036.05v.016C0 3.758 0 3.775 0 3.808v.099c0 .017.018.033.018.066v.017z" fill="#FFF" mask="url(#wqp5cv6hdr)"/>
                </g>
                <rect stroke="#073B4C" stroke-width="3.337" x="1.668" y="2.205" width="87.013" height="35.089" rx="17.545"/>
                <path fill="#073B4C" d="M28.735.537h2.052v37.215h-2.052zM59.563.537h2.052v37.215h-2.052z"/>
            </g>
        </g>
        <path d="M40.3 25.879v2.842l.005.107c.06.602.617 1.072 1.295 1.072.717 0 1.3-.528 1.3-1.179V25.88l-.005-.108c-.061-.6-.619-1.071-1.295-1.071-.718 0-1.3.528-1.3 1.179zm3.778 4.021-.108.005c-.6.06-1.07.616-1.07 1.295 0 .718.528 1.3 1.178 1.3h2.844l.107-.005c.6-.06 1.071-.616 1.071-1.295 0-.718-.529-1.3-1.178-1.3h-2.844zm-7.8 0-.107.005c-.6.06-1.071.616-1.071 1.295 0 .718.529 1.3 1.177 1.3h2.846l.107-.005c.598-.06 1.07-.616 1.07-1.295 0-.718-.527-1.3-1.177-1.3h-2.846zm4.022 3.779v2.842l.005.108c.06.6.617 1.071 1.295 1.071.717 0 1.3-.526 1.3-1.179V33.68l-.005-.107c-.061-.601-.619-1.072-1.295-1.072-.718 0-1.3.528-1.3 1.179zM17.55 95.428v2.843l.005.108c.061.6.617 1.071 1.295 1.071.718 0 1.3-.528 1.3-1.18v-2.842l-.005-.107c-.06-.601-.617-1.071-1.295-1.071-.717 0-1.3.526-1.3 1.178zm3.778 4.022-.108.005c-.6.061-1.07.617-1.07 1.295 0 .72.528 1.3 1.178 1.3h2.845l.107-.004c.6-.06 1.07-.617 1.07-1.296 0-.718-.528-1.3-1.177-1.3h-2.845zm-7.8 0-.107.005c-.6.061-1.071.617-1.071 1.295 0 .72.529 1.3 1.178 1.3h2.844l.108-.004c.6-.06 1.07-.617 1.07-1.296 0-.718-.528-1.3-1.178-1.3h-2.844zm4.022 3.779v2.842l.005.108c.061.6.617 1.071 1.295 1.071.718 0 1.3-.529 1.3-1.179v-2.842l-.005-.108c-.06-.6-.617-1.071-1.295-1.071-.717 0-1.3.529-1.3 1.179z" fill="#FFD166"/>
        <g transform="translate(63.602 35.123)">
            <mask id="f9qe6iesut" fill="#fff">
                <use xlink:href="#m6gh1333is" transform="rotate(-24 5.33 5.332)"/>
            </mask>
            <path d="M5.64 1.603a.31.31 0 1 0-.621 0A3.42 3.42 0 0 1 1.605 5.02a.31.31 0 0 0 0 .622A3.42 3.42 0 0 1 5.019 9.06a.31.31 0 1 0 .62 0 3.42 3.42 0 0 1 3.415-3.418.31.31 0 0 0 0-.622A3.42 3.42 0 0 1 5.64 1.603z" fill="#72EFD3" mask="url(#f9qe6iesut)" transform="rotate(-24 5.33 5.332)"/>
            <path d="M-19.354-20.336a.31.31 0 1 0-.62 0 3.42 3.42 0 0 1-3.415 3.418.31.31 0 0 0 0 .622 3.42 3.42 0 0 1 3.414 3.418.31.31 0 1 0 .621 0 3.42 3.42 0 0 1 3.414-3.418.31.31 0 0 0 0-.622 3.42 3.42 0 0 1-3.414-3.418z" fill="#72EFD3" mask="url(#f9qe6iesut)" transform="rotate(-24 -19.664 -16.607)"/>
        </g>
        <g transform="translate(85.622 94.155)">
            <mask id="0b94byhbgv" fill="#fff">
                <use xlink:href="#0nm3ibem4u" transform="rotate(-24 7.897 7.897)"/>
            </mask>
            <path d="M8.357 2.376a.46.46 0 0 0-.92 0 5.068 5.068 0 0 1-5.061 5.061.46.46 0 0 0 0 .92 5.068 5.068 0 0 1 5.061 5.061.46.46 0 0 0 .92 0 5.068 5.068 0 0 1 5.061-5.06.46.46 0 0 0 0-.921 5.068 5.068 0 0 1-5.06-5.061z" fill="#72EFD3" mask="url(#0b94byhbgv)" transform="rotate(-24 7.897 7.897)"/>
            <path d="M-28.86-29.525a.46.46 0 0 0-.92 0 5.068 5.068 0 0 1-5.062 5.061.46.46 0 0 0 0 .92 5.068 5.068 0 0 1 5.061 5.062.46.46 0 0 0 .92 0 5.068 5.068 0 0 1 5.062-5.062.46.46 0 0 0 0-.92 5.068 5.068 0 0 1-5.061-5.06z" fill="#72EFD3" mask="url(#0b94byhbgv)" transform="rotate(-24 -29.32 -24.004)"/>
        </g>
        <g transform="translate(14.431 38.63)">
            <mask id="gm5xiav4fx" fill="#fff">
                <use xlink:href="#ow46tliw0w" transform="rotate(-24 5.33 5.332)"/>
            </mask>
            <path d="M5.64 1.603a.31.31 0 1 0-.621 0A3.42 3.42 0 0 1 1.605 5.02a.31.31 0 0 0 0 .622A3.42 3.42 0 0 1 5.019 9.06a.31.31 0 1 0 .62 0 3.42 3.42 0 0 1 3.415-3.418.31.31 0 0 0 0-.622A3.42 3.42 0 0 1 5.64 1.603z" fill="#72EFD3" mask="url(#gm5xiav4fx)" transform="rotate(-24 5.33 5.332)"/>
            <path d="M-19.354-20.336a.31.31 0 1 0-.62 0 3.42 3.42 0 0 1-3.415 3.418.31.31 0 0 0 0 .622 3.42 3.42 0 0 1 3.414 3.418.31.31 0 1 0 .621 0 3.42 3.42 0 0 1 3.414-3.418.31.31 0 0 0 0-.622 3.42 3.42 0 0 1-3.414-3.418z" fill="#72EFD3" mask="url(#gm5xiav4fx)" transform="rotate(-24 -19.664 -16.607)"/>
        </g>
        <path d="M50.7 105.795c.402 0 .765.163 1.029.426a1.45 1.45 0 0 1-.001 2.057 1.452 1.452 0 0 1-2.057 0 1.45 1.45 0 0 1-.426-1.028c0-.402.163-.765.426-1.029a1.45 1.45 0 0 1 1.029-.426z" stroke="#72EFD3" stroke-width="2.291"/>
        <g fill="#073B4C" fill-rule="nonzero">
            <path d="M104.65 13.715v17.42c0 .395-.291.715-.65.715-.359 0-.65-.32-.65-.715v-17.42c0-.395.291-.715.65-.715.359 0 .65.32.65.715zM87.012 22.958l2.04 2.04 2.54 2.54 1.03 1.03 1.654 1.654.386.385 2.54 2.542 2.04 2.04a.71.71 0 1 1-1.005 1.003l-2.037-2.04-2.54-2.541-.387-.385-1.653-1.655-1.03-1.03-2.54-2.54-2.042-2.038a.71.71 0 0 1 1.004-1.005zM121.64 22.958 119.6 25l-2.545 2.544-1.031 1.031-1.66 1.657-.387.385-2.543 2.545-2.043 2.042a.71.71 0 0 0 1.005 1.005l2.042-2.043 2.545-2.544.386-.386 1.656-1.656 1.031-1.031 2.545-2.544 2.04-2.04a.71.71 0 1 0-1.004-1.007h.003z"/>
        </g>
    </g>
</svg>
