<svg width="130" height="130" viewBox="0 0 130 130" xmlns="http://www.w3.org/2000/svg">
    <g fill="none" fill-rule="evenodd">
        <g fill-rule="nonzero">
            <path d="m80.96 17.34 21.285 20.06-.099 68.767c-.005 3.537-2.904 6.409-6.475 6.414l-60.615.086c-3.57.005-6.461-2.858-6.456-6.395l.12-82.454c.004-3.537 2.903-6.408 6.474-6.413l45.766-.065z" fill="#FFF"/>
            <path d="m83.64 48.957-39.602.056c-2.838.004-5.154 2.237-5.257 5.024l-.003.187-.049 33.621c-.004 2.812 2.244 5.099 5.057 5.193l.189.003 39.602-.056c2.838-.004 5.154-2.237 5.257-5.024l.003-.187.049-33.622c.004-2.81-2.244-5.098-5.057-5.192l-.189-.003z" fill="#E9F4FC"/>
            <path d="m80.96 17.34 21.285 20.06-.099 68.767c-.005 3.537-2.904 6.409-6.475 6.414l-60.615.086c-3.57.005-6.461-2.858-6.456-6.395l.12-82.454c.004-3.537 2.903-6.408 6.474-6.413l45.766-.065zm-.811 2.002-44.958.064c-2.395.004-4.35 1.883-4.448 4.232l-.003.177-.12 82.454c-.003 2.372 1.889 4.304 4.26 4.393l.18.003 60.614-.086c2.395-.003 4.35-1.882 4.448-4.232l.004-.177.098-67.908-20.075-18.92zm3.494 27.613c4.017-.005 7.27 3.216 7.263 7.195l-.048 33.621c-.006 3.98-3.267 7.21-7.284 7.215l-39.602.057c-4.017.005-7.27-3.216-7.263-7.195l.048-33.621c.006-3.98 3.267-7.21 7.284-7.215l39.602-.057zm-24.047 2.036-15.558.022c-2.838.004-5.154 2.237-5.257 5.024l-.003.187-.049 33.621c-.004 2.812 2.244 5.099 5.057 5.193l.189.003 15.558-.022.063-44.028zm14.548-.02-12.527.017-.064 44.028L74.08 93l.064-44.029zm9.496-.014-7.476.01-.063 44.029 7.476-.01c2.838-.005 5.154-2.238 5.257-5.025l.003-.187.049-33.622c.004-2.81-2.244-5.098-5.057-5.192l-.189-.003zM63.86 35.176c.557-.001 1.009.446 1.008.999 0 .518-.399.945-.908.997l-.104.005-26.67.038c-.558 0-1.01-.447-1.009-1 0-.517.399-.944.908-.996l.104-.005 26.67-.038zm-10.498-6.39c.558 0 1.01.447 1.009 1-.001.518-.4.945-.909.997l-.103.005-16.164.023c-.558 0-1.01-.447-1.009-1 .001-.518.4-.944.909-.996l.103-.006 16.164-.022z" fill="#073B4C"/>
            <path d="m81.243 17.333 21.024 19.82v1.78H86.09c-3.573 0-6.47-2.866-6.47-6.4v-15.2h1.622zm17.859 19.6-17.459-16.46v12.06c0 2.37 1.896 4.303 4.27 4.396l.178.003h13.011z" fill="#073B4C"/>
            <path d="M99.084 36.927 81.66 20.48l-.018 12.068c-.003 2.372 1.888 4.304 4.26 4.393l.18.003 13-.018z" fill="#E9F4FC"/>
        </g>
        <path d="M78 79.733c0 12.92 10.483 23.4 23.4 23.4 12.94 0 23.4-10.48 23.4-23.4 0-12.914-10.46-23.4-23.4-23.4-12.917 0-23.4 10.486-23.4 23.4z" fill="#FFD166"/>
        <path d="M78 79.733c0 12.92 10.483 23.4 23.4 23.4 12.94 0 23.4-10.48 23.4-23.4 0-12.914-10.46-23.4-23.4-23.4-12.917 0-23.4 10.486-23.4 23.4z" fill="#FFD166"/>
        <path d="M101.4 56.333c12.94 0 23.4 10.486 23.4 23.4 0 12.92-10.46 23.4-23.4 23.4-12.917 0-23.4-10.48-23.4-23.4 0-12.914 10.483-23.4 23.4-23.4zm0 2.34c-11.624 0-21.06 9.437-21.06 21.06 0 11.626 9.435 21.06 21.06 21.06 11.64 0 21.06-9.425 21.06-21.06 0-11.631-9.421-21.06-21.06-21.06z" fill="#073B4C" fill-rule="nonzero"/>
        <path d="M101.423 89.517a2.062 2.062 0 0 1-2.059-2.06c0-1.123.913-2.035 2.036-2.035 1.147 0 2.06.912 2.06 2.036 0 1.123-.913 2.059-2.037 2.059zM99.34 70.865c0-1.121.937-2.06 2.06-2.06s2.036.939 2.036 2.06v10.343a2.036 2.036 0 0 1-2.036 2.035c-1.123 0-2.06-.91-2.06-2.035V70.865z" fill="#073B4C"/>
    </g>
</svg>
