<svg width="24" height="24" viewBox="0 0 24 24" xmlns="http://www.w3.org/2000/svg">
    <path d="M12 0c4.903 0 8.909 3.796 9.05 8.515l.004.258-.001.059h.062c1.532 0 2.789 1.164 2.88 2.626l.005.17v4.075c0 1.38-1.037 2.53-2.395 2.755-.39 1.758-1.965 3.096-3.872 3.188l-.208.005h-1.668a3.059 3.059 0 0 1-.783 1.352 3.422 3.422 0 0 1-2.43.997c-1.86 0-3.375-1.454-3.375-3.242 0-1.787 1.5-3.241 3.345-3.241 1.525 0 2.815.994 3.216 2.349h1.695a2.34 2.34 0 0 0 2.142-1.367h-.823a.911.911 0 0 1-.914-.789l-.006-.104V9.725c0-.458.355-.835.813-.886l.107-.006.368-.001v-.059c0-3.775-3.104-6.86-6.97-6.985L12 1.784c-3.896 0-7.08 3.009-7.208 6.754l-.004.235-.001.059h.37c.471 0 .86.345.914.789l.006.104v7.88a.903.903 0 0 1-.814.887l-.107.006H2.885c-1.532 0-2.789-1.163-2.88-2.625L0 15.703v-4.075c0-1.484 1.2-2.702 2.71-2.79l.175-.005.061-.001v-.059c0-4.751 3.918-8.632 8.788-8.77L12 0zm.614 19.301c-.83 0-1.504.654-1.504 1.457 0 .79.703 1.457 1.535 1.457.419 0 .819-.162 1.098-.445a1.286 1.286 0 0 0 .375-1.012c0-.803-.675-1.457-1.504-1.457zm-8.379-8.684h-1.35c-.546 0-.982.387-1.038.9l-.006.111v4.075c0 .529.4.951.929 1.005l.115.006h1.35v-6.097zm16.88 0h-1.35v6.097h1.35c.546 0 .982-.387 1.038-.9l.006-.111v-4.075c0-.567-.459-1.01-1.044-1.01z" fill="#48464D" fill-rule="evenodd"/>
</svg>
