<svg width="24" height="24" viewBox="0 0 24 24" xmlns="http://www.w3.org/2000/svg">
    <defs>
        <clipPath id="tx5ahqxjga">
            <path d="M360 0v640H0V0h360z"/>
        </clipPath>
        <clipPath id="p1epst0y7b">
            <path d="M20.343 0C21.257 0 22 .71 22 1.581v9.066c0 .871-.743 1.58-1.657 1.58h-3.649v1.538c.01 1.374-.034 4.238-.505 5.87l.37-.001a1.547 1.547 0 0 1 1.555 1.534v1.297c0 .847-.696 1.534-1.555 1.535H6.876a1.547 1.547 0 0 1-1.555-1.535v-1.297a1.545 1.545 0 0 1 1.404-1.527 4.306 4.306 0 0 1-.655-1.668c-.179-1.049-.126-2.017.156-2.895l-.456-.014-.053-.01a2.052 2.052 0 0 1-1.633-1.656c-.068-.4-.013-.807.153-1.171H1.658c-.915 0-1.658-.709-1.658-1.58V1.58C0 .71.743 0 1.658 0h18.685zm-3.784 20.95-1.547.002H6.876a.22.22 0 0 0-.22.218v1.295c0 .12.099.217.22.217h9.683a.22.22 0 0 0 .22-.217v-1.297a.22.22 0 0 0-.22-.217zM8.956 7.748a.72.72 0 0 0-.58.522l-.024.735v4.99l-.146.179c-.783.97-1.063 2.175-.824 3.58.123.74.516 1.408 1.105 1.88h6.309l.031-.067c.275-.659.53-2.811.533-5.476v-1.803h-1.443v1.477c-.022.45-.215.876-.542 1.192-.26.247-.743.54-1.546.52-.897-.02-1.385-.377-1.632-.672-.438-.518-.421-1.136-.4-1.345V8.993l-.017-.7a.72.72 0 0 0-.824-.546zm3.623 4.48h-1.446v1.324l-.008.05s-.02.226.103.365c.133.152.418.19.634.194.19.004.449-.019.59-.153a.473.473 0 0 0 .128-.253l-.001-1.527zm-5.558.123h-.358l-.71.017a.714.714 0 0 0-.553.813.72.72 0 0 0 .53.573l.743.023h.183c.053-.08.108-.158.166-.235L7.02 12.35zM20.343 1.318H1.658c-.175 0-.323.119-.323.263v9.066c0 .142.148.263.323.263h5.363V8.972l.029-.86.01-.052c.105-.52.407-.967.827-1.263a3.127 3.127 0 0 1 1.174-3.181 3.222 3.222 0 0 1 3.769-.079 3.125 3.125 0 0 1 1.21 3.524 3.182 3.182 0 0 1-2.906 2.197l-.001 1.652h9.21c.174 0 .323-.119.323-.263V1.58c0-.143-.149-.263-.323-.263zM9.873 4.667a1.815 1.815 0 0 0-.7 1.756c.392.017.773.145 1.097.373.396.277.677.683.798 1.143L11 7.943a1.848 1.848 0 0 0 1.762-1.278 1.813 1.813 0 0 0-.703-2.044 1.87 1.87 0 0 0-2.186.046z"/>
        </clipPath>
    </defs>
    <g clip-path="url(#tx5ahqxjga)" transform="translate(-20 -345)">
        <g clip-path="url(#p1epst0y7b)" transform="translate(21 345)">
            <path fill="currentColor" d="M0 0h22v24H0V0z"/>
        </g>
    </g>
</svg>
