<svg width="24" height="24" viewBox="0 0 24 24" xmlns="http://www.w3.org/2000/svg">
    <path d="M22.084.236a1.201 1.201 0 0 1 1.564.116l.085.094c.342.423.357 1.03.009 1.498l-.094.106-9.95 9.948 9.95 9.952A1.2 1.2 0 0 1 22.8 24a1.22 1.22 0 0 1-.731-.25l-.118-.102-9.95-9.95-9.979 9.976-.12.1a1.199 1.199 0 0 1-1.55-.126c-.422-.422-.468-1.089-.093-1.592l.094-.107 9.948-9.951L.352 2.05A1.201 1.201 0 0 1 .264.45L.352.351C.774-.071 1.44-.117 1.944.258l.106.094 6.256 6.255 3.687 3.697L21.975.328z" fill="#073B4C" fill-rule="evenodd"/>
</svg>
