<svg width="30" height="30" viewBox="0 0 30 30" xmlns="http://www.w3.org/2000/svg">
    <path d="M18.75 0A6.25 6.25 0 0 1 25 6.25v17.5A6.25 6.25 0 0 1 18.75 30h-7.5A6.25 6.25 0 0 1 5 23.75V6.25A6.25 6.25 0 0 1 11.25 0h7.5zm0 2.5h-7.5a3.75 3.75 0 0 0-3.744 3.53l-.006.22v17.5a3.75 3.75 0 0 0 3.53 3.744l.22.006h7.5a3.75 3.75 0 0 0 3.744-3.53l.006-.22V6.25a3.75 3.75 0 0 0-3.53-3.744l-.22-.006zm-3.748 21.067c.365.001.714.141.978.393.256.252.4.592.4.947 0 .356-.144.697-.402.952a1.411 1.411 0 0 1-1.847.087l-.017-.014h-.011l-.077-.075a1.345 1.345 0 0 1-.404-.952 1.35 1.35 0 0 1 .406-.947 1.4 1.4 0 0 1 .836-.385l.138-.006zm-4.147-7.964.123.004 2.457.265.09.016a.84.84 0 0 1 .637.79l-.005.126-.02.104-.04.119a.834.834 0 0 1-.732.515l-.12-.004-.722-.077.034.042a3.62 3.62 0 0 0 2.221 1.19l.262.026.243.008a3.617 3.617 0 0 0 3.139-1.799.734.734 0 0 1 .994-.269c.35.197.474.64.273.987a5.08 5.08 0 0 1-4.406 2.525 5.102 5.102 0 0 1-3.474-1.357l-.208-.205-.092-.102-.052.512-.015.09a.837.837 0 0 1-.894.648.833.833 0 0 1-.744-.795l.004-.124.257-2.493.016-.09a.842.842 0 0 1 .774-.652zm8.95-5.41.071.134.05.147.014.086.263 2.444a.823.823 0 0 1-.403.794l-.111.059-.149.048-.087.014-2.48.256a.834.834 0 0 1-.92-.74.822.822 0 0 1 .39-.783l.124-.066.149-.048.086-.014.922-.095-.094-.086a3.626 3.626 0 0 0-1.833-.82l-.257-.027-.26-.01c-1.316 0-2.518.701-3.156 1.829a.734.734 0 0 1-.992.278.718.718 0 0 1-.282-.984 5.08 5.08 0 0 1 4.43-2.567c.958 0 1.882.266 2.677.754l.26.17.087.064-.032-.291a.808.808 0 0 1 .185-.607l.093-.097.11-.084.137-.07.134-.042.087-.015a.835.835 0 0 1 .787.37zM17.5 3.75a1.25 1.25 0 0 1 0 2.5h-5a1.25 1.25 0 0 1 0-2.5h5z" fill="#073B4C" fill-rule="evenodd"/>
</svg>
