<svg width="130" height="133" viewBox="0 0 130 133" xmlns="http://www.w3.org/2000/svg">
    <g fill="none" fill-rule="evenodd">
        <g fill-rule="nonzero">
            <path d="M90.543 2.6h-10.43l-.898 3.261c-.703 2.551-3.005 4.317-5.628 4.317H55.763c-2.623 0-4.925-1.766-5.628-4.317L49.237 2.6h-10.43c-2.703 0-4.905 2.16-5.004 4.862l-.003.19v115.346c0 2.727 2.14 4.949 4.82 5.049l.187.003h51.736c2.703 0 4.905-2.16 5.004-4.862l.003-.19V7.652c0-2.727-2.14-4.949-4.82-5.048l-.187-.004z" fill="#FFF"/>
            <path d="M38.732 0h51.886c4.16 0 7.532 3.396 7.532 7.586v115.478c0 4.19-3.372 7.586-7.532 7.586H38.732c-4.16 0-7.532-3.396-7.532-7.586V7.586C31.2 3.396 34.572 0 38.732 0zm51.886 2.529h-10.46l-.901 3.265a5.865 5.865 0 0 1-5.645 4.32H55.738a5.865 5.865 0 0 1-5.645-4.32l-.901-3.265h-10.46c-2.71 0-4.919 2.162-5.018 4.868l-.003.19v115.477c0 2.73 2.147 4.954 4.833 5.054l.188.003h51.886c2.71 0 4.919-2.162 5.018-4.868l.003-.19V7.587c0-2.73-2.147-4.954-4.833-5.054l-.188-.003zM74.3 119.692a1.26 1.26 0 0 1 1.255 1.265c0 .657-.497 1.197-1.134 1.258l-.12.006H55.05a1.26 1.26 0 0 1-1.254-1.264c0-.658.497-1.198 1.134-1.259l.12-.006H74.3zM77.551 2.53H51.798l.714 2.588a3.353 3.353 0 0 0 3.053 2.465l.173.004h17.874a3.35 3.35 0 0 0 3.175-2.303l.05-.166.714-2.588z" fill="#073B4C"/>
            <path d="M78 2.6H51.35l.74 2.661a3.465 3.465 0 0 0 3.158 2.534l.179.005h18.497c1.496 0 2.816-.96 3.285-2.368l.053-.17L78 2.6z" fill="#FFD166"/>
            <path d="M65 37.05c2.42 0 4.55 1.065 4.55 2.925 0 1.062-.773 1.699-1.744 1.699-.23 0-.458-.03-.751-.085a17.22 17.22 0 0 1-.223-.046l-.144-.03a83.298 83.298 0 0 1-.311-.066c-.568-.117-.972-.172-1.377-.172s-.81.055-1.377.172l-.31.066-.145.03-.223.046a3.93 3.93 0 0 1-.751.085c-.97 0-1.744-.637-1.744-1.699 0-1.86 2.13-2.925 4.55-2.925zm0 1.3c-1.795 0-3.25.728-3.25 1.625s1.455 0 3.25 0 3.25.897 3.25 0S66.795 38.35 65 38.35zm-8.067-6.164a1.53 1.53 0 0 1-.792-.237c-.475-.316-.713-1.028-.475-1.581a1.41 1.41 0 0 1 1.267-.79h.079c.554.078 1.03.474 1.187.948.159.553-.079 1.107-.475 1.423a1.339 1.339 0 0 1-.791.237zm17.05 0a1.53 1.53 0 0 1-.791-.237c-.475-.316-.713-1.028-.475-1.581a1.41 1.41 0 0 1 1.266-.79h.08c.554.078 1.029.474 1.187.948.158.553-.08 1.107-.475 1.423a1.339 1.339 0 0 1-.792.237z" fill="#073B4C"/>
        </g>
        <path d="M74.1 61.1c0 12.92 10.483 23.4 23.4 23.4 12.94 0 23.4-10.48 23.4-23.4 0-12.914-10.46-23.4-23.4-23.4-12.917 0-23.4 10.486-23.4 23.4z" fill="#FFD166"/>
        <path d="M74.1 61.1c0 12.92 10.483 23.4 23.4 23.4 12.94 0 23.4-10.48 23.4-23.4 0-12.914-10.46-23.4-23.4-23.4-12.917 0-23.4 10.486-23.4 23.4z" fill="#FFD166"/>
        <path d="M97.5 37.7c12.94 0 23.4 10.486 23.4 23.4 0 12.92-10.46 23.4-23.4 23.4-12.917 0-23.4-10.48-23.4-23.4 0-12.914 10.483-23.4 23.4-23.4zm0 2.34c-11.624 0-21.06 9.437-21.06 21.06 0 11.626 9.435 21.06 21.06 21.06 11.64 0 21.06-9.426 21.06-21.06 0-11.631-9.421-21.06-21.06-21.06z" fill="#073B4C" fill-rule="nonzero"/>
        <path d="M97.523 70.884a2.062 2.062 0 0 1-2.059-2.06c0-1.123.913-2.035 2.036-2.035 1.147 0 2.06.912 2.06 2.035 0 1.124-.913 2.06-2.037 2.06zM95.44 52.231c0-1.12.937-2.059 2.06-2.059s2.036.939 2.036 2.06v10.342A2.036 2.036 0 0 1 97.5 64.61c-1.123 0-2.06-.91-2.06-2.036V52.231z" fill="#073B4C"/>
        <g>
            <path d="m46.759 103.833-26.203 25.58a5.91 5.91 0 0 1-4.221 1.746c-1.602 0-3.1-.619-4.22-1.746-2.328-2.342-2.328-6.15 0-8.489l26.202-25.58c.641-.644.85-1.601.54-2.456-2.343-6.404-.758-13.658 4.037-18.478a17.387 17.387 0 0 1 15.343-4.886l-9.62 9.674a2.34 2.34 0 0 0-.602 2.255l2.307 8.657a2.326 2.326 0 0 0 1.642 1.65l8.609 2.321c.8.215 1.654-.014 2.242-.605l9.621-9.674a17.597 17.597 0 0 1-4.859 15.427c-4.794 4.824-12.008 6.416-18.375 4.062a2.314 2.314 0 0 0-2.443.542z" fill="#E9F4FC"/>
            <path d="M55.233 68.124c1.07 0 2.142.093 3.2.28l2.147.376-1.537 1.546L49.423 80c-.302.304-.42.746-.31 1.16l2.309 8.659c.109.411.43.734.838.843l8.607 2.32c.408.11.842-.007 1.142-.308L71.629 83l1.551-1.56.377 2.167a18.734 18.734 0 0 1-5.173 16.424c-5.107 5.138-12.79 6.836-19.575 4.328a1.177 1.177 0 0 0-1.244.277l-.012.011-26.19 25.568a7.047 7.047 0 0 1-5.028 2.081 7.04 7.04 0 0 1-5.027-2.081c-2.769-2.786-2.769-7.31.012-10.105l26.19-25.568c.33-.33.438-.824.278-1.263-2.494-6.818-.807-14.537 4.3-19.671a18.524 18.524 0 0 1 13.145-5.484zm-9.28 34.906a3.452 3.452 0 0 1 3.643-.806c5.951 2.2 12.695.71 17.174-3.797a16.456 16.456 0 0 0 4.787-11.85l-.006-.272-7.93 7.974a3.454 3.454 0 0 1-3.188.939l-.156-.039-8.608-2.32a3.463 3.463 0 0 1-2.446-2.456l-2.307-8.655a3.478 3.478 0 0 1 .894-3.352l7.943-7.987-.118-.005-.402-.005c-4.304 0-8.447 1.711-11.532 4.813-4.484 4.508-5.967 11.296-3.776 17.288a3.49 3.49 0 0 1-.813 3.658l-26.191 25.568c-1.886 1.896-1.886 4.987 0 6.885a4.765 4.765 0 0 0 3.414 1.41c1.299 0 2.508-.5 3.426-1.422l26.192-25.569z" fill="#073B4C" fill-rule="nonzero"/>
        </g>
    </g>
</svg>
