<svg width="16" height="16" viewBox="0 0 16 16" xmlns="http://www.w3.org/2000/svg">
    <path d="M8 0a8 8 0 1 1-.001 16.001A8 8 0 0 1 8 0zm0 1.2a6.8 6.8 0 1 0 0 13.6A6.8 6.8 0 0 0 8 1.2zm.124 2c.292 0 .53.261.53.582v.791h.978c.292 0 .529.261.529.582 0 .32-.237.582-.53.582H7.424c-.422 0-.765.377-.765.84 0 .464.343.842.765.842h1.154c1.005 0 1.823.899 1.823 2.004 0 1.02-.695 1.876-1.616 1.991l-.13.016v.788c0 .321-.238.582-.53.582-.292 0-.529-.26-.529-.582v-.791H6.368c-.292 0-.529-.261-.529-.582 0-.32.237-.581.529-.581h2.21c.42 0 .763-.378.763-.841 0-.464-.342-.841-.764-.841H7.423c-1.005 0-1.823-.899-1.823-2.004s.818-2.005 1.823-2.005h.172v-.791c0-.321.237-.582.53-.582z" fill="#073B4C" fill-rule="evenodd"/>
</svg>
