<svg width="24" height="24" viewBox="0 0 24 24" xmlns="http://www.w3.org/2000/svg">
    <defs>
        <clipPath id="u497btu24a">
            <path d="M360 0v640H0V0h360z"/>
        </clipPath>
        <clipPath id="slnics0ceb">
            <path d="M10.878 0c2.78 0 5.05 2.249 5.178 5.071l.005.251v7.198c0 .497-.392.9-.876.9a.885.885 0 0 1-.869-.778l-.008-.122V5.322c0-1.875-1.428-3.409-3.228-3.516l-.202-.006H5.182c-1.826 0-3.319 1.467-3.423 3.315l-.006.207v13.356c0 1.875 1.428 3.409 3.227 3.516l.202.006L9 22.199l.156.001c.466 0 .844.403.844.9 0 .456-.317.832-.73.892L9.157 24H5.182c-2.78 0-5.049-2.249-5.176-5.072L0 18.678V5.322C0 2.467 2.19.137 4.938.006L5.182 0h5.696zm4.913 15.271.082.104a.976.976 0 0 1-.085 1.198l-1.868 2.005h5.226l.116.01c.417.06.738.445.738.912 0 .508-.382.92-.854.92h-5.223l1.865 2.007.083.103a.976.976 0 0 1-.08 1.199.81.81 0 0 1-1.207.003l-3.332-3.58-.013-.013a.91.91 0 0 1-.06-.076l-.015-.02A.966.966 0 0 1 11 19.5v-.025l.002-.024.001-.03a.88.88 0 0 1 .013-.097l.004-.026a.949.949 0 0 1 .144-.341l.028-.039.06-.071 3.332-3.579.096-.089a.808.808 0 0 1 1.111.092zM8.186 3.8c.438 0 .794.392.794.873V5.86h1.468c.437 0 .793.392.793.873 0 .48-.356.872-.793.872H7.134c-.632 0-1.147.566-1.147 1.261 0 .696.515 1.262 1.147 1.262h1.732c1.507 0 2.733 1.348 2.734 3.006 0 1.53-1.042 2.814-2.424 2.987l-.196.024v1.183c0 .48-.356.872-.794.872-.437 0-.793-.391-.793-.872V16.14H5.552c-.438 0-.793-.391-.793-.872s.355-.873.793-.873h3.314c.632 0 1.146-.566 1.146-1.261 0-.696-.514-1.261-1.146-1.261H7.134c-1.508 0-2.734-1.349-2.734-3.007C4.4 7.21 5.626 5.86 7.134 5.86h.259V4.673c0-.481.356-.873.793-.873z"/>
        </clipPath>
    </defs>
    <g clip-path="url(#u497btu24a)" transform="translate(-15 -503)">
        <g clip-path="url(#slnics0ceb)" transform="translate(19 503)">
            <path fill="#063B4C" d="M0 0h20v24H0V0z"/>
        </g>
    </g>
</svg>
