<svg width="130" height="130" viewBox="0 0 130 130" xmlns="http://www.w3.org/2000/svg">
    <g fill="none" fill-rule="evenodd">
        <g transform="translate(8.667 30.333)">
            <rect fill="#FFF" width="112.667" height="69.333" rx="8.673"/>
            <path d="M104 0c4.786 0 8.667 3.869 8.667 8.641v52.051c0 4.772-3.88 8.641-8.667 8.641H8.667C3.88 69.333 0 65.464 0 60.692V8.642C0 3.868 3.88 0 8.667 0H104zm0 2.019H8.667c-3.597 0-6.526 2.85-6.64 6.408l-.003.214v52.051c0 3.586 2.859 6.506 6.428 6.62l.215.003H104c3.596 0 6.525-2.85 6.639-6.409l.003-.214V8.642c0-3.587-2.858-6.507-6.427-6.62L104 2.019z" fill="#073B4C" fill-rule="nonzero"/>
            <path d="M26.764 13.546v-.895a.599.599 0 0 1 .527-.639h51.782c1.179 0 2.295 1.754 2.794 3.035H26.764v-1.501z" fill="#FED168"/>
            <path fill="#FFF" fill-rule="nonzero" d="M69.415 16.301h3.078V26.31h-3.078z"/>
            <path fill="#FFF" d="M68.268 16.3V26.31h-10.57V16.3h4.226zM56.59 26.309H46.024L45.981 16.3h10.573zM44.873 26.309h-10.57l-.04-10.008h10.57zM26.803 26.309 26.764 16.3h6.352l.04 10.008zM84.749 25.205a24.5 24.5 0 0 1 .986 5.715H79.91a1.888 1.888 0 0 1-1.077-.504c-1.446-1.183-3.12-2.389-4.58-3.548a4.52 4.52 0 0 0-.612-.555V16.289h8.43c.217.749 2.387 7.935 2.678 8.916z"/>
            <path d="M85.735 38.362a.54.54 0 0 1-.53.532H27.29a.535.535 0 0 1-.527-.532V27.57h45.253c.39.008.767.147 1.07.394l1.678 1.352 2.311 1.865.59.473c.635.509 1.423.787 2.236.788h5.825l.008 5.92z" fill="#E8F2FB"/>
            <path d="M85.857 30.932H79.91a1.888 1.888 0 0 1-1.077-.504c-1.446-1.183-3.12-2.389-4.58-3.548a4.52 4.52 0 0 0-.612-.556V16.29h8.43c.217.749 2.387 7.935 2.678 8.928a24.5 24.5 0 0 1 .986 5.715h.122z" fill="#FFF"/>
            <path d="m88.848 22.276-1.419-4.442a.924.924 0 0 0-.884-.646h-3.078l-.432-1.474-.299-1.021a.43.43 0 0 0-.02-.067 4.977 4.977 0 0 0-4.634-3.217h-50.17a2.39 2.39 0 0 0-2.386 2.393v24.777c0 1.317.452 1.648 1.765 1.648h57.937c1.313 0 1.64-.454 1.64-1.774V31.4c.004-2.3-.403-4.584-1.204-6.74l-1.65-5.613h1.855l1.214 3.792a.929.929 0 0 0 1.584.355.932.932 0 0 0 .181-.927v.008zm-62.084-8.474v-.745a.535.535 0 0 1 .527-.532h51.782c1.179 0 2.295 1.458 2.794 2.522H26.764v-1.245zM72.493 16.3v10.008h-3.078V16.3h3.078zm-4.225 0v10.008h-10.57V16.3h10.57zm-11.69 10.008H46.024L45.965 16.3H56.55l.028 10.008zm-11.721 0H34.303l-.04-10.008h10.57l.024 10.008zm-18.081 0L26.764 16.3h6.352l.04 10.008h-6.38zm58.96 12.053a.54.54 0 0 1-.531.532H27.29a.535.535 0 0 1-.527-.532V27.57h45.253c.39.008.767.147 1.07.394l1.678 1.352 2.311 1.865.59.473c.635.509 1.423.787 2.236.788h5.825l.008 5.92zm-.987-13.157a24.5 24.5 0 0 1 .986 5.715H79.91a1.888 1.888 0 0 1-1.077-.504c-1.446-1.183-3.12-2.389-4.58-3.548a4.52 4.52 0 0 0-.612-.555V16.289h8.43c.217.749 2.387 7.935 2.678 8.916z" fill="#073B4B"/>
            <path d="M38.497 34.578c-6.332.115-6.328 9.547 0 9.65 6.317-.103 6.313-9.535 0-9.65" fill="#FED168"/>
            <path d="M38.54 44.76c-3.636-.036-5.306-2.783-5.322-5.318-.015-2.534 1.608-5.305 5.22-5.396 3.616.04 5.287 2.783 5.303 5.317.015 2.535-1.588 5.306-5.2 5.396zm-.082-9.65c-2.893.08-4.194 2.294-4.178 4.336.015 2.042 1.352 4.233 4.249 4.261 2.88-.07 4.186-2.294 4.17-4.336-.016-2.041-1.348-4.225-4.241-4.26z" fill="#073B4B" fill-rule="nonzero"/>
            <path d="M38.497 37.207c-2.877.052-2.877 4.336 0 4.391 2.877-.05 2.877-4.336 0-4.39" fill="#073B4B"/>
            <path d="M73.64 34.578c-6.324.115-6.32 9.539 0 9.65 6.325-.115 6.325-9.535 0-9.65" fill="#FED168"/>
            <path d="M73.692 44.76c-3.636-.036-5.303-2.783-5.322-5.318-.02-2.534 1.607-5.305 5.224-5.396 3.62.04 5.286 2.783 5.306 5.317.02 2.535-1.592 5.306-5.208 5.396zm-.083-9.65c-2.893.08-4.194 2.294-4.178 4.336.016 2.042 1.352 4.233 4.253 4.261 2.881-.07 4.182-2.294 4.17-4.336-.011-2.041-1.352-4.225-4.245-4.26z" fill="#073B4B" fill-rule="nonzero"/>
            <path d="M73.64 37.207c-2.877.052-2.877 4.336 0 4.391 2.878-.05 2.878-4.336 0-4.39" fill="#073B4B"/>
            <path d="M37.675 55.291c.582 0 1.054.59 1.054 1.317 0 .681-.414 1.242-.946 1.31l-.108.006H9.855c-.581 0-1.053-.59-1.053-1.316 0-.682.415-1.243.946-1.31l.108-.007h27.82zm33.45 0c.581 0 1.053.59 1.053 1.317 0 .681-.415 1.242-.946 1.31l-.108.006h-27.82c-.581 0-1.053-.59-1.053-1.316 0-.682.415-1.243.946-1.31l.108-.007h27.82zm32.788 0c.582 0 1.054.59 1.054 1.317 0 .681-.415 1.242-.946 1.31l-.108.006h-27.82c-.582 0-1.053-.59-1.053-1.316 0-.682.414-1.243.946-1.31l.107-.007h27.82z" fill="#073B4C" fill-rule="nonzero"/>
        </g>
        <g transform="translate(71.964 78.374)">
            <ellipse fill="#FFD166" cx="22.869" cy="22.844" rx="22.869" ry="22.844"/>
            <ellipse stroke="#073B4C" stroke-width="1.733" cx="22.869" cy="22.844" rx="22.869" ry="22.844"/>
            <path d="m25.228 14.331.09.168 7.284 14.02c.12.317.188.656.206 1.007.077 1.643-1.028 3.052-2.531 3.235l-.175.015H15.689l-.031-.003-.083.002a2.639 2.639 0 0 1-.69-.137l-.223-.086c-1.386-.62-2.08-2.316-1.568-3.941l.064-.188 7.237-13.914c.257-.51.64-.93 1.1-1.209 1.31-.796 2.944-.327 3.733 1.031zm-3.01.405a1.358 1.358 0 0 0-.44.433l-.081.143-7.2 13.827c-.274.743.052 1.59.726 1.893.092.04.187.07.286.087l.15.018h14.404c.73-.042 1.291-.725 1.254-1.523a2.288 2.288 0 0 0-.031-.27l-.022-.107-7.247-13.935c-.354-.702-1.158-.956-1.8-.566zm.641 12.373c.412 0 .747.332.747.747v.01a.75.75 0 0 1-.747.753.75.75 0 0 1-.746-.752c0-.415.334-.758.746-.758zm-.01-7.576c.378 0 .69.356.74.817l.006.128v3.904c0 .522-.334.945-.746.945-.378 0-.69-.355-.74-.816l-.006-.129v-3.904c0-.522.334-.945.746-.945z" fill="#073B4C"/>
        </g>
    </g>
</svg>
