<svg width="30" height="30" viewBox="0 0 30 30" xmlns="http://www.w3.org/2000/svg">
    <path d="M15 0c8.285 0 15 6.715 15 15s-6.715 15-15 15S0 23.285 0 15 6.715 0 15 0zm0 2.25C7.958 2.25 2.25 7.958 2.25 15S7.958 27.75 15 27.75 27.75 22.042 27.75 15 22.042 2.25 15 2.25zm-.508 5.395c.57 0 1.04.423 1.115.972l.01.153v6.63l5.107 3.047c.489.292.676.897.459 1.407l-.07.136c-.291.49-.896.676-1.406.46l-.136-.07-5.655-3.374a1.125 1.125 0 0 1-.536-.798l-.013-.168V8.77c0-.622.504-1.125 1.125-1.125z" fill="#073B4C" fill-rule="evenodd"/>
</svg>
