<svg width="128" height="128" viewBox="0 0 128 128" xmlns="http://www.w3.org/2000/svg">
    <g fill-rule="nonzero" fill="none">
        <path d="M103.338 56.222H54.603a3.344 3.344 0 0 1-3.346-3.343v-48.7A3.344 3.344 0 0 1 54.603.836h48.735a3.344 3.344 0 0 1 3.346 3.343v48.7a3.344 3.344 0 0 1-3.346 3.343z" fill="#E9F4FC"/>
        <path d="M101.219 8.414a2.118 2.118 0 1 0 .002-4.237 2.118 2.118 0 0 0-.002 4.237zm-44.497 0a2.118 2.118 0 1 0 .001-4.237 2.118 2.118 0 0 0-.001 4.237zm44.497 44.465a2.118 2.118 0 1 0 .002-4.237 2.118 2.118 0 0 0-.002 4.237zm-44.497 0a2.118 2.118 0 1 0 .001-4.237 2.118 2.118 0 0 0-.001 4.237zm29.483-5.56h-14.47c-6.389 0-11.568-5.176-11.568-11.56v-14.46c0-6.385 5.18-11.56 11.568-11.56h14.47c6.39 0 11.57 5.175 11.57 11.56v14.46c0 6.384-5.18 11.56-11.57 11.56z" fill="#FFF"/>
        <g fill="#FFD166">
            <path d="M72.375 27.136h-2.788a.557.557 0 0 1-.557-.557v-6.13c0-.307.25-.557.557-.557h2.788c.308 0 .558.25.558.557v6.13c0 .307-.25.557-.558.557zM88.354 27.136h-2.788a.557.557 0 0 1-.558-.557v-6.13c0-.307.25-.557.558-.557h2.788c.308 0 .557.25.557.557v6.13c0 .307-.25.557-.557.557zM82.595 33.822v2.786c0 .308-.25.557-.558.557h-6.133a.557.557 0 0 1-.558-.557v-2.786c0-.307.25-.557.558-.557h6.133c.308 0 .558.25.558.557z"/>
        </g>
        <path d="M56.722 3.343a2.958 2.958 0 0 1 2.955 2.953 2.958 2.958 0 0 1-2.955 2.954 2.958 2.958 0 0 1-2.955-2.954 2.958 2.958 0 0 1 2.955-2.953zm0 1.672c-.707 0-1.283.575-1.283 1.281a1.284 1.284 0 0 0 2.565 0c0-.706-.575-1.281-1.282-1.281zM101.219 3.343a2.958 2.958 0 0 1 2.955 2.953 2.958 2.958 0 0 1-2.955 2.954 2.958 2.958 0 0 1-2.955-2.954 2.958 2.958 0 0 1 2.955-2.953zm0 1.672c-.707 0-1.282.575-1.282 1.281a1.284 1.284 0 0 0 2.565 0c0-.706-.576-1.281-1.283-1.281zM56.722 47.808a2.958 2.958 0 0 1 2.955 2.953 2.958 2.958 0 0 1-2.955 2.953 2.958 2.958 0 0 1-2.955-2.953 2.958 2.958 0 0 1 2.955-2.953zm0 1.672c-.707 0-1.283.575-1.283 1.281a1.284 1.284 0 0 0 2.565 0c0-.706-.575-1.281-1.282-1.281z" fill="#073B4C"/>
        <path d="M106.684 48.155a.836.836 0 0 0 .836-.836V4.179A4.185 4.185 0 0 0 103.338 0H54.603a4.185 4.185 0 0 0-4.182 4.179v48.7a4.185 4.185 0 0 0 4.182 4.179h48.735a4.185 4.185 0 0 0 4.182-4.18v-6.184a.836.836 0 0 0-1.673 0v6.185a2.511 2.511 0 0 1-2.51 2.507H54.604a2.511 2.511 0 0 1-2.51-2.507v-48.7a2.511 2.511 0 0 1 2.51-2.507h48.735a2.511 2.511 0 0 1 2.51 2.507v43.14c0 .462.374.836.836.836z" fill="#073B4C"/>
        <path d="M88.354 19.056c.768 0 1.394.625 1.394 1.393v6.13c0 .768-.626 1.393-1.394 1.393h-2.788a1.395 1.395 0 0 1-1.394-1.393v-6.13c0-.768.625-1.393 1.394-1.393zm-.279 1.672h-2.23V26.3h2.23v-5.572zM72.375 19.056c.769 0 1.394.625 1.394 1.393v6.13c0 .768-.625 1.393-1.394 1.393h-2.788a1.395 1.395 0 0 1-1.394-1.393v-6.13c0-.768.625-1.393 1.394-1.393zm-.279 1.672h-2.23V26.3h2.23v-5.572z" fill="#073B4C"/>
        <path d="M71.735 48.155h14.47c6.84 0 12.406-5.561 12.406-12.397V21.3c0-6.835-5.565-12.396-12.406-12.396H74.51a.836.836 0 1 0 0 1.671h11.695c5.918 0 10.733 4.811 10.733 10.725v14.46c0 5.913-4.815 10.724-10.733 10.724h-14.47c-5.917 0-10.732-4.81-10.732-10.725V21.3c0-5.914 4.815-10.725 10.732-10.725h3.904a.836.836 0 1 0 0-1.671h-3.904c-6.84 0-12.405 5.56-12.405 12.396v14.46c0 6.835 5.565 12.396 12.405 12.396zM101.219 47.808a2.958 2.958 0 0 1 2.955 2.953 2.958 2.958 0 0 1-2.955 2.953 2.958 2.958 0 0 1-2.955-2.953 2.958 2.958 0 0 1 2.955-2.953zm0 1.672c-.707 0-1.282.575-1.282 1.281a1.284 1.284 0 0 0 2.565 0c0-.706-.576-1.281-1.283-1.281z" fill="#073B4C"/>
        <path d="M82.037 32.43c.769 0 1.394.624 1.394 1.392v2.786c0 .768-.625 1.393-1.394 1.393h-6.133a1.395 1.395 0 0 1-1.394-1.393v-2.786c0-.768.625-1.393 1.394-1.393zm-.279 1.67h-5.576v2.23h5.576V34.1z" fill="#073B4C"/>
        <g>
            <path d="M84.228 68.236h4.597v-15.01a2.298 2.298 0 0 0-4.597 0v15.01zM69.46 68.236h4.597v-15.01a2.298 2.298 0 0 0-4.597 0v15.01z" fill="#FFF"/>
            <path d="M78.447 101.893h1.391a3.98 3.98 0 0 0 3.982-3.979V86.16h-9.355v11.755a3.98 3.98 0 0 0 3.982 3.98z" fill="#FFD166"/>
            <path d="M79.142 95.565c7.194 0 13.025-5.827 13.025-13.016V68.236h-26.05v14.313c0 7.189 5.832 13.016 13.025 13.016z" fill="#FFD166"/>
            <path d="M67.114 71.91H91.17a3.676 3.676 0 0 0 3.678-3.674 3.676 3.676 0 0 0-3.678-3.675H67.114a3.676 3.676 0 0 0-3.678 3.675 3.676 3.676 0 0 0 3.678 3.674z" fill="#E9F4FC"/>
            <path d="m75.67 76.615.09.08 4.038 4.034 4.037-4.035.09-.079a.952.952 0 0 1 1.256 1.424l-4.037 4.035 4.037 4.034a.95.95 0 0 1-1.256 1.424l-.09-.079-4.037-4.035-4.038 4.035-.09.08a.952.952 0 0 1-1.256-1.425l4.037-4.034-4.037-4.035a.95.95 0 0 1 1.256-1.424z" fill="#073B4C"/>
            <path d="M91.217 63.415a4.828 4.828 0 0 1 4.824 4.82 4.825 4.825 0 0 1-2.682 4.318v9.996c0 5.735-3.43 10.685-8.347 12.91v2.455c0 .201-.012.4-.034.594h-.046a5.132 5.132 0 0 1-2.421 3.778v11.63c0 7.766-6.323 14.084-14.095 14.084H56.894c-7.772 0-14.094-6.318-14.094-14.084V80.409c0-4.054-3.301-7.353-7.358-7.353H23.336a3.371 3.371 0 0 1-3.368-3.366 3.371 3.371 0 0 1 3.368-3.366h12.106c7.772 0 14.094 6.318 14.094 14.085v33.506c0 4.054 3.301 7.353 7.358 7.353h11.522c4.057 0 7.358-3.299 7.358-7.353v-11.63a5.125 5.125 0 0 1-2.456-4.37v-2.457c-4.917-2.224-8.347-7.174-8.347-12.909v-9.996a4.825 4.825 0 0 1-2.681-4.318 4.828 4.828 0 0 1 4.824-4.82h1.2V53.227a3.448 3.448 0 0 1 3.444-3.443h.046c1.9 0 3.445 1.545 3.445 3.443v10.188h7.833V53.227a3.448 3.448 0 0 1 3.445-3.443h.045c1.9 0 3.445 1.545 3.445 3.443v10.188h1.2zm-55.775 5.2H23.336c-.593 0-1.075.483-1.075 1.075 0 .593.482 1.075 1.075 1.075h12.106c5.321 0 9.65 4.326 9.65 9.644v33.506c0 6.503 5.295 11.793 11.802 11.793h11.522c6.508 0 11.802-5.29 11.802-11.793v-10.89c-.313.023-1.84.023-2.15 0v10.89c0 5.318-4.33 9.644-9.652 9.644H56.894c-5.321 0-9.65-4.326-9.65-9.644V80.41c0-6.503-5.295-11.793-11.802-11.793zm47.231 27.661.046-.01a14.187 14.187 0 0 1-3.553.444 14.191 14.191 0 0 1-3.509-.433v1.637c0 .204.022.403.063.594h-.046a2.847 2.847 0 0 0 2.773 2.24l.83.002h.308c.557-.003.79-.029 1.16-.154a2.836 2.836 0 0 0 1.928-2.682v-1.638zm8.348-23.22H67.31v9.386l.001.03v.137l.001.05.001.088c.002.152.004.247.007.32l.001.039.001.017.002.034.01.158c.007.104 0 .205-.02.302.13 1.473.532 2.868 1.154 4.136.06.067.111.143.154.226a11.842 11.842 0 0 0 10.069 6.429l.271.009a11.986 11.986 0 0 0 .409 0h-.044a11.842 11.842 0 0 0 10.38-6.437c.044-.084.096-.16.155-.228a11.724 11.724 0 0 0 1.157-4.138 1.043 1.043 0 0 1-.019-.356l.003-.051c.002-.017.003-.033.003-.05l.002-.034c.005-.093.008-.212.01-.465v-.101l.001-.056v-.123l.001-.067v-.31l.001-.09v-8.855zm-14.162-2.283h5.443c4.945-.006 9.184-.024 9.34-.054l.058-.01a2.533 2.533 0 0 0 2.002-2.473 2.533 2.533 0 0 0-2.53-2.53H67.158a2.533 2.533 0 0 0-2.53 2.53c0 1.213.859 2.228 2.001 2.472l.058.011c.156.03 4.396.048 9.34.053l.83.001zm9.69-18.697h.023c-.635 0-1.152.516-1.152 1.15v10.189h2.258V53.227c0-.627-.504-1.139-1.128-1.151zm-14.767 0h.022c-.635 0-1.152.516-1.152 1.15v10.189h2.258V53.227c0-.627-.504-1.139-1.128-1.151z" fill="#073B4C"/>
        </g>
    </g>
</svg>
