<svg width="30" height="30" viewBox="0 0 30 30" xmlns="http://www.w3.org/2000/svg">
    <path d="M15 0c8.284 0 15 6.716 15 15 0 8.284-6.716 15-15 15-8.283 0-15-6.717-15-15C0 6.717 6.717 0 15 0zm0 2.25C7.96 2.25 2.25 7.96 2.25 15S7.96 27.75 15 27.75c7.042 0 12.75-5.709 12.75-12.75S22.042 2.25 15 2.25zm.198 15.532c2.746 0 5.306.767 7.272 2.153.455.32.567.955.25 1.416a.995.995 0 0 1-1.396.255c-1.62-1.142-3.779-1.79-6.126-1.79-2.349 0-4.509.648-6.128 1.79a.995.995 0 0 1-1.397-.255 1.026 1.026 0 0 1 .25-1.416c1.967-1.386 4.528-2.153 7.275-2.153zm-1.618-4.98c.272.434.228.976-.128 1.464-.973 1.316-2.137 1.947-3.426 1.984-1.362-.048-2.518-.695-3.488-2.01-.341-.467-.378-.998-.117-1.428.26-.424.668-.414 1.02.032 1.565 1.995 3.55 1.995 5.122.01.356-.45.753-.472 1.017-.053zm9.754-.245c.467.24.562 1.088.177 1.635-.76 1.066-1.671 1.719-2.721 1.958-.257.058-.518.111-.786.095-1.314-.027-2.46-.669-3.429-1.963-.367-.494-.411-1.061-.132-1.491.271-.414.66-.382 1.02.08 1.513 1.946 3.544 1.963 5.067.026.242-.308.488-.499.804-.34z" fill="#073B4C" fill-rule="evenodd"/>
</svg>
