<svg width="130" height="130" viewBox="0 0 130 130" xmlns="http://www.w3.org/2000/svg">
    <g fill="none" fill-rule="evenodd">
        <g transform="translate(2.074 29.908)">
            <g transform="translate(0 16.926)">
                <rect stroke="#073B4C" stroke-width="2.427" fill="#5A50F9" x="1.213" y="14.22" width="7.973" height="21.623" rx="3.467"/>
                <rect stroke="#073B4C" stroke-width="2.427" fill="#5A50F9" x="116.913" y="14.22" width="7.973" height="21.623" rx="3.467"/>
                <g transform="translate(5.85)">
                    <rect fill="#00D576" width="114.452" height="48.994" rx="24.497"/>
                    <g fill="#FFF">
                        <path d="M24.205 17.978v-1.05a2.02 2.02 0 0 1 .234-.219c.363-.285.881-.01.881.467v1.058a.133.133 0 0 1-.177.129c-.28-.108-.568-.2-.859-.277a.11.11 0 0 1-.08-.108zm.102 4.18c-.234 0-.42-.2-.42-.443 0-.982.754-1.779 1.686-1.779.931 0 1.684.797 1.684 1.779a.432.432 0 0 1-.42.443c-.233 0-.421-.2-.421-.443 0-.492-.38-.888-.843-.888-.465 0-.845.396-.845.888a.432.432 0 0 1-.42.443zm-7.647-.454a.364.364 0 0 1-.055-.494c1.41-1.859 4.447-2.233 4.577-2.249.185-.022.35.118.371.313a.354.354 0 0 1-.298.393c-.03 0-2.889.352-4.126 1.985a.33.33 0 0 1-.26.13.326.326 0 0 1-.209-.078zm-1.542.37c-.08.323-.12.655-.12.989 0 1.681 1.058 3.263 2.82 4.256l.193 1.577c.092.4.447.67.837.634h.654c.388.037.745-.233.837-.633l.08-.675a9.133 9.133 0 0 0 3.094 0l.084.685c.092.398.449.664.837.623h.652a.784.784 0 0 0 .837-.623l.2-1.593a5.682 5.682 0 0 0 2.384-2.405l.94-.268a.874.874 0 0 0 .616-.853v-2.196c0-.486-.375-.882-.837-.882H28.22a6.068 6.068 0 0 0-2.341-2.03v-2.672a.286.286 0 0 0-.279-.294c-.497 0-.982.157-1.395.448v-.154a.287.287 0 0 0-.279-.294c-1.178-.001-2.198.863-2.452 2.075-2.87.15-5.234 1.596-6.11 3.571-.007-.01-.016-.016-.024-.026a5.562 5.562 0 0 1-.231.716l.009.025z"/>
                        <path d="M14.097 20.825a2.309 2.309 0 0 1-.378-.471.647.647 0 0 1-.011-.694c.091-.163.35-.502.56-.41.24.107.16.505.108.701-.067.261-.15.52-.24.773-.012.034-.027.067-.04.1M13.2 23.19c.39-.479.806-.953 1.103-1.506a4.17 4.17 0 0 0 .68.358c.116.048.247-.032.305-.142a.263.263 0 0 0 .014-.034l.008-.022c.042-.158-.052-.294-.185-.349-.046-.019-.092-.041-.139-.062a3.421 3.421 0 0 1-.451-.253c.03-.078.061-.157.09-.236.118-.326.24-.669.303-1.012.07-.376.03-.784-.246-1.059-.27-.269-.657-.246-.952-.035-.594.425-.859 1.219-.423 1.875.157.236.344.446.552.632-.283.523-.653.977-1.034 1.443-.224.275.15.677.375.402"/>
                    </g>
                    <g fill="#FFF">
                        <path d="M60.473 17.978v-1.05a2.02 2.02 0 0 1 .234-.219c.363-.285.882-.01.882.467v1.058a.133.133 0 0 1-.178.129c-.28-.108-.568-.2-.858-.277a.11.11 0 0 1-.08-.108zm.103 4.18c-.234 0-.42-.2-.42-.443 0-.982.753-1.779 1.685-1.779s1.685.797 1.685 1.779a.432.432 0 0 1-.421.443c-.233 0-.42-.2-.42-.443 0-.492-.38-.888-.844-.888-.465 0-.845.396-.845.888a.432.432 0 0 1-.42.443zm-7.647-.454a.364.364 0 0 1-.055-.494c1.41-1.859 4.446-2.233 4.576-2.249.185-.022.35.118.372.313a.354.354 0 0 1-.299.393c-.029 0-2.888.352-4.126 1.985a.33.33 0 0 1-.26.13.326.326 0 0 1-.208-.078zm-1.543.37c-.079.323-.119.655-.119.989 0 1.681 1.057 3.263 2.82 4.256l.193 1.577c.091.4.446.67.837.634h.653c.389.037.745-.233.837-.633l.08-.675a9.133 9.133 0 0 0 3.095 0l.084.685c.092.398.448.664.837.623h.652a.784.784 0 0 0 .836-.623l.2-1.593a5.682 5.682 0 0 0 2.385-2.405l.939-.268a.874.874 0 0 0 .616-.853v-2.196c0-.486-.374-.882-.836-.882h-1.007a6.068 6.068 0 0 0-2.341-2.03v-2.672a.286.286 0 0 0-.278-.294c-.498 0-.983.157-1.396.448v-.154a.287.287 0 0 0-.278-.294c-1.178-.001-2.199.863-2.453 2.075-2.87.15-5.234 1.596-6.11 3.571-.007-.01-.016-.016-.024-.026a5.562 5.562 0 0 1-.23.716l.008.025z"/>
                        <path d="M50.365 20.825a2.309 2.309 0 0 1-.378-.471.647.647 0 0 1-.011-.694c.092-.163.351-.502.56-.41.24.107.16.505.109.701-.068.261-.151.52-.24.773-.012.034-.027.067-.04.1m-.897 2.366c.39-.479.805-.953 1.102-1.506a4.17 4.17 0 0 0 .681.358c.116.048.247-.032.304-.142a.263.263 0 0 0 .014-.034c.003-.007.007-.014.009-.022.041-.158-.052-.294-.186-.349-.046-.019-.092-.041-.138-.062a3.421 3.421 0 0 1-.452-.253c.031-.078.061-.157.09-.236.118-.326.24-.669.304-1.012.069-.376.03-.784-.246-1.059-.27-.269-.658-.246-.953-.035-.593.425-.858 1.219-.423 1.875.157.236.345.446.552.632-.283.523-.652.977-1.034 1.443-.224.275.15.677.376.402"/>
                    </g>
                    <g fill="#FFF">
                        <path d="M96.717 17.978v-1.05a2.02 2.02 0 0 1 .234-.219c.363-.285.881-.01.881.467v1.058a.133.133 0 0 1-.177.129c-.28-.108-.568-.2-.859-.277a.11.11 0 0 1-.08-.108zm.102 4.18c-.234 0-.42-.2-.42-.443 0-.982.754-1.779 1.686-1.779.931 0 1.684.797 1.684 1.779a.432.432 0 0 1-.42.443c-.233 0-.421-.2-.421-.443 0-.492-.38-.888-.843-.888-.466 0-.845.396-.845.888a.432.432 0 0 1-.42.443zm-7.647-.454a.364.364 0 0 1-.055-.494c1.41-1.859 4.446-2.233 4.577-2.249.185-.022.35.118.371.313a.354.354 0 0 1-.298.393c-.03 0-2.889.352-4.126 1.985a.33.33 0 0 1-.26.13.326.326 0 0 1-.209-.078zm-1.542.37c-.08.323-.12.655-.12.989 0 1.681 1.058 3.263 2.82 4.256l.193 1.577c.092.4.447.67.837.634h.654c.388.037.745-.233.837-.633l.08-.675a9.133 9.133 0 0 0 3.094 0l.084.685c.092.398.449.664.837.623h.652a.784.784 0 0 0 .837-.623l.199-1.593a5.682 5.682 0 0 0 2.385-2.405l.94-.268a.874.874 0 0 0 .616-.853v-2.196c0-.486-.375-.882-.837-.882h-1.006a6.068 6.068 0 0 0-2.341-2.03v-2.672a.286.286 0 0 0-.279-.294c-.497 0-.982.157-1.395.448v-.154a.287.287 0 0 0-.279-.294c-1.178-.001-2.198.863-2.452 2.075-2.87.15-5.235 1.596-6.11 3.571-.007-.01-.016-.016-.024-.026a5.562 5.562 0 0 1-.231.716l.009.025z"/>
                        <path d="M86.608 20.825a2.309 2.309 0 0 1-.377-.471.647.647 0 0 1-.011-.694c.091-.163.35-.502.56-.41.24.107.16.505.108.701-.067.261-.15.52-.24.773-.012.034-.027.067-.04.1m-.897 2.366c.39-.479.806-.953 1.103-1.506a4.17 4.17 0 0 0 .68.358c.116.048.247-.032.305-.142a.263.263 0 0 0 .014-.034l.008-.022c.042-.158-.052-.294-.185-.349-.046-.019-.093-.041-.139-.062a3.421 3.421 0 0 1-.451-.253c.03-.078.061-.157.09-.236.118-.326.24-.669.303-1.012.07-.376.03-.784-.246-1.059-.27-.269-.657-.246-.952-.035-.594.425-.859 1.219-.423 1.875.157.236.344.446.552.632-.283.523-.653.977-1.034 1.443-.224.275.15.677.375.402"/>
                    </g>
                    <rect stroke="#073B4C" stroke-width="4.333" x="2.167" y="2.167" width="110.118" height="44.66" rx="22.33"/>
                    <path fill="#073B4C" d="M36.4 0H39v47.45h-2.6zM75.452 0h2.6v47.45h-2.6z"/>
                </g>
            </g>
            <rect stroke="#073B4C" stroke-width="3.068" fill="#E9F4FC" x="120.069" y="5.989" width="3.432" height="34.838" rx="1.716"/>
            <ellipse stroke="#073B4C" stroke-width="3.068" fill="#FFD166" cx="120.882" cy="7.15" rx="5.51" ry="5.616"/>
        </g>
        <path d="M9.597 32.348a.64.64 0 0 0-1.278 0c0 3.873-3.154 7.026-7.03 7.026a.64.64 0 0 0 0 1.278c3.876 0 7.03 3.153 7.03 7.026a.64.64 0 0 0 1.278 0c0-3.873 3.155-7.026 7.03-7.026a.64.64 0 0 0 0-1.278c-3.875 0-7.03-3.153-7.03-7.026zM70.956 27.677a.451.451 0 0 0-.797.423 4.967 4.967 0 0 1-2.052 6.71.451.451 0 0 0 .423.796 4.968 4.968 0 0 1 6.71 2.05.451.451 0 0 0 .797-.423 4.967 4.967 0 0 1 2.052-6.71.451.451 0 0 0-.423-.796 4.968 4.968 0 0 1-6.71-2.05zM111.158 7.653a.376.376 0 0 0-.664.353 4.14 4.14 0 0 1-1.71 5.591.376.376 0 0 0 .353.664 4.14 4.14 0 0 1 5.592 1.709.376.376 0 0 0 .664-.353 4.14 4.14 0 0 1 1.71-5.591.376.376 0 0 0-.353-.664 4.14 4.14 0 0 1-5.592-1.709zM38.595 8.92a.338.338 0 0 0-.597.318 3.725 3.725 0 0 1-1.54 5.031.338.338 0 0 0 .318.598 3.726 3.726 0 0 1 5.033 1.537.338.338 0 0 0 .597-.317 3.725 3.725 0 0 1 1.54-5.032.338.338 0 0 0-.318-.597 3.726 3.726 0 0 1-5.033-1.538z" fill="#478B77"/>
        <g transform="translate(94.923 80.23)">
            <ellipse stroke="#073B4C" stroke-width="1.986" fill="#FFD166" cx="17.151" cy="17.133" rx="16.158" ry="16.14"/>
            <path d="M23.159 12.416a.853.853 0 0 1 1.205 0c.301.302.329.776.058 1.123l-.058.066-8.245 8.247a.857.857 0 0 1-1.14.059l-.064-.058-4.973-4.961a.84.84 0 0 1-.002-1.188.857.857 0 0 1 1.14-.06l.065.058 4.37 4.358z" fill="#073B4C"/>
        </g>
    </g>
</svg>
