<svg width="14" height="14" viewBox="0 0 14 14" xmlns="http://www.w3.org/2000/svg">
    <defs>
        <clipPath id="2z68jnw5ga">
            <path d="M360 0v640H0V0h360z"/>
        </clipPath>
        <clipPath id="bgkg1zb8yb">
            <path d="M7.127 0C10.928 0 14 3.053 14 6.825c0 3.762-3.072 6.815-6.873 6.815a6.804 6.804 0 0 1-3.316-.846L0 14l1.245-3.656a6.793 6.793 0 0 1-.982-3.52C.263 3.054 3.335 0 7.127 0zm0 1.088c-3.18 0-5.775 2.577-5.775 5.737 0 1.254.408 2.411 1.098 3.364l-.72 2.129 2.217-.71a5.767 5.767 0 0 0 3.18.953c3.189 0 5.785-2.576 5.785-5.736 0-3.16-2.596-5.737-5.785-5.737zM4.813 3.714c.117 0 .233.009.33.009.098 0 .234-.058.38.282.136.33.476 1.157.515 1.235.039.087.068.185.02.3-.06.108-.088.177-.176.274-.078.096-.175.223-.252.291-.078.088-.166.175-.069.34.098.175.438.72.934 1.157.641.574 1.186.75 1.351.837.175.077.272.068.37-.05.097-.106.418-.485.534-.65.107-.165.224-.137.38-.088.062.024.231.103.423.195l.293.141.43.208c.166.088.282.127.322.195.048.078.048.408-.098.797-.136.39-.826.768-1.137.798-.302.028-.302.252-2.023-.418-1.71-.671-2.79-2.411-2.877-2.528-.078-.108-.68-.904-.68-1.721 0-.827.427-1.235.582-1.4a.627.627 0 0 1 .448-.204z"/>
        </clipPath>
    </defs>
    <g clip-path="url(#2z68jnw5ga)" transform="translate(-88 -595)">
        <g clip-path="url(#bgkg1zb8yb)" transform="translate(88 595)">
            <path fill="currentColor" d="M0 0h14v14H0V0z"/>
        </g>
    </g>
</svg>
