<svg width="130" height="130" viewBox="0 0 130 130" xmlns="http://www.w3.org/2000/svg" xmlns:xlink="http://www.w3.org/1999/xlink">
    <defs>
        <path id="0gok1ljoka" d="M0 0h9.075v9.1H0z"/>
        <path id="n9gqb195bc" d="M0 0h12.706v12.74H0z"/>
        <path id="oyegn2x85e" d="M0 0h9.075v9.1H0z"/>
        <path id="jj793wtwag" d="M0 0h6.5v6.5H0z"/>
    </defs>
    <g fill="none" fill-rule="evenodd">
        <g transform="translate(97.5 60.45)">
            <mask id="f3j78tckxb" fill="#fff">
                <use xlink:href="#0gok1ljoka"/>
            </mask>
            <path d="M4.887.35a.35.35 0 1 0-.698 0A3.85 3.85 0 0 1 .349 4.2a.35.35 0 0 0 0 .7 3.85 3.85 0 0 1 3.84 3.85.35.35 0 1 0 .698 0 3.85 3.85 0 0 1 3.84-3.85.35.35 0 0 0 0-.7A3.85 3.85 0 0 1 4.886.35zM-9.634-32.41a.35.35 0 1 0-.698 0 3.85 3.85 0 0 1-3.84 3.85.35.35 0 0 0 0 .7 3.85 3.85 0 0 1 3.84 3.85.35.35 0 1 0 .698 0 3.85 3.85 0 0 1 3.84-3.85.35.35 0 0 0 0-.7 3.85 3.85 0 0 1-3.84-3.85z" fill="#073B4C" mask="url(#f3j78tckxb)"/>
        </g>
        <g transform="translate(24.847 17.55)">
            <mask id="28kxxuc2fd" fill="#fff">
                <use xlink:href="#n9gqb195bc"/>
            </mask>
            <path d="M6.842.49a.49.49 0 1 0-.978 0c0 2.971-2.412 5.39-5.375 5.39a.49.49 0 0 0 0 .98c2.963 0 5.375 2.419 5.375 5.39a.49.49 0 1 0 .978 0c0-2.971 2.412-5.39 5.375-5.39a.49.49 0 0 0 0-.98c-2.963 0-5.375-2.419-5.375-5.39z" fill="#073B4C" mask="url(#28kxxuc2fd)"/>
        </g>
        <g transform="translate(24.725 100.1)">
            <mask id="51pv59brtf" fill="#fff">
                <use xlink:href="#oyegn2x85e"/>
            </mask>
            <path d="M4.887.35a.35.35 0 1 0-.698 0A3.85 3.85 0 0 1 .349 4.2a.35.35 0 0 0 0 .7 3.85 3.85 0 0 1 3.84 3.85.35.35 0 1 0 .698 0 3.85 3.85 0 0 1 3.84-3.85.35.35 0 0 0 0-.7A3.85 3.85 0 0 1 4.886.35zM-9.634-33.32a.35.35 0 1 0-.698 0 3.85 3.85 0 0 1-3.84 3.85.35.35 0 0 0 0 .7 3.85 3.85 0 0 1 3.84 3.85.35.35 0 1 0 .698 0 3.85 3.85 0 0 1 3.84-3.85.35.35 0 0 0 0-.7 3.85 3.85 0 0 1-3.84-3.85z" fill="#073B4C" mask="url(#51pv59brtf)"/>
        </g>
        <g transform="translate(91 96.85)">
            <mask id="94tpu3w9fh" fill="#fff">
                <use xlink:href="#jj793wtwag"/>
            </mask>
            <path d="M3.5.25a.25.25 0 0 0-.5 0A2.754 2.754 0 0 1 .25 3a.25.25 0 0 0 0 .5A2.754 2.754 0 0 1 3 6.25a.25.25 0 0 0 .5 0A2.754 2.754 0 0 1 6.25 3.5a.25.25 0 0 0 0-.5A2.754 2.754 0 0 1 3.5.25zM-6.9-23.8a.25.25 0 0 0-.5 0 2.754 2.754 0 0 1-2.75 2.75.25.25 0 0 0 0 .5A2.754 2.754 0 0 1-7.4-17.8a.25.25 0 0 0 .5 0 2.754 2.754 0 0 1 2.75-2.75.25.25 0 0 0 0-.5A2.754 2.754 0 0 1-6.9-23.8z" fill="#073B4C" mask="url(#94tpu3w9fh)"/>
        </g>
        <g fill-rule="nonzero">
            <path d="M81.551 41.305v-4.961H47.798v4.96c0 7.835 3.75 15.258 10.202 20.023A4.57 4.57 0 0 1 59.86 65c0 1.45-.691 2.81-1.854 3.669-6.59 4.865-10.208 12.351-10.208 20.026v4.96h33.753v-4.96c0-7.663-3.607-15.154-10.208-20.027a4.56 4.56 0 0 1-1.854-3.668 4.57 4.57 0 0 1 1.861-3.675c6.438-4.754 10.201-12.17 10.201-20.021z" fill="#FFF"/>
            <path d="M51.693 89.67v-.66c0-3.281 1.686-6.386 4.691-8.874 2.34-1.939 5.28-2.96 8.29-2.96 3.011 0 5.95 1.021 8.291 2.96 3.006 2.489 4.692 5.593 4.692 8.873v.66H51.693z" fill="#FFD166"/>
            <path d="M46.89 36.344h35.57c1.29 0 2.337-1.071 2.337-2.392 0-1.322-1.046-2.393-2.337-2.393H46.89c-1.29 0-2.337 1.071-2.337 2.393 0 1.32 1.046 2.392 2.337 2.392zM46.89 98.44h35.57c1.29 0 2.337-1.07 2.337-2.392 0-1.32-1.046-2.392-2.337-2.392H46.89c-1.29 0-2.337 1.071-2.337 2.393 0 1.32 1.046 2.392 2.337 2.392z" fill="#E9F4FC"/>
            <path d="M51.919 44.355c.644 4.314 2.641 8.292 5.71 11.434a9.844 9.844 0 0 0 7.046 2.977c2.64 0 5.18-1.065 7.047-2.976 3.068-3.142 5.065-7.121 5.709-11.435H51.919z" fill="#FFD166"/>
            <g fill="#073B4C">
                <path d="M50.69 89.01v.66c0 .557.449 1.008 1.003 1.008h25.964c.554 0 1.003-.451 1.003-1.009v-.66c0-3.524-1.796-6.952-5.058-9.653-2.483-2.056-5.654-3.189-8.927-3.189-3.274 0-6.445 1.133-8.928 3.19-3.261 2.7-5.057 6.128-5.057 9.652zm6.332-8.095c2.125-1.76 4.843-2.73 7.653-2.73 2.81 0 5.527.97 7.653 2.73 2.718 2.251 4.205 4.922 4.319 7.745H52.703c.113-2.823 1.6-5.494 4.319-7.745zM46.796 37.35v3.954a25.71 25.71 0 0 0 3.51 12.942 1 1 0 0 0 1.373.359c.478-.282.638-.9.357-1.382a23.68 23.68 0 0 1-3.234-11.919v-3.95h31.746v3.95c0 6.247-2.44 12.169-6.872 16.675-.9.915-1.881 1.767-2.92 2.534A5.604 5.604 0 0 0 68.487 65c0 1.76.846 3.436 2.263 4.482 3.999 2.952 6.948 6.961 8.53 11.595a1.004 1.004 0 0 0 1.275.626 1.01 1.01 0 0 0 .623-1.282c-1.716-5.025-4.912-9.37-9.241-12.566A3.564 3.564 0 0 1 70.492 65c0-1.12.543-2.19 1.452-2.86a26.615 26.615 0 0 0 3.158-2.742c4.806-4.887 7.452-11.313 7.452-18.094V37.35c1.798-.051 3.246-1.556 3.246-3.4 0-1.875-1.498-3.401-3.34-3.401H46.89c-1.85 0-3.34 1.524-3.34 3.402 0 1.843 1.448 3.348 3.246 3.399zm.094-4.781h35.57c.736 0 1.334.62 1.334 1.382 0 .763-.598 1.383-1.334 1.383H46.89c-.736 0-1.334-.62-1.334-1.382 0-.777.609-1.383 1.334-1.383z"/>
                <path d="M82.554 92.65c0-4.16.058-5.304-.243-7.468a1.004 1.004 0 0 0-1.133-.86 1.008 1.008 0 0 0-.854 1.14c.275 1.978.224 2.956.224 7.185H48.801c0-4.374-.273-7.963 1.795-12.966l.001-.003c1.67-4.037 4.437-7.562 8.003-10.195a5.594 5.594 0 0 0 2.263-4.482c0-1.76-.848-3.438-2.27-4.488a24.516 24.516 0 0 1-3.933-3.63.999.999 0 0 0-1.415-.095 1.014 1.014 0 0 0-.095 1.424 26.517 26.517 0 0 0 4.257 3.928 3.574 3.574 0 0 1 1.45 2.86c0 1.12-.54 2.188-1.444 2.855a26.19 26.19 0 0 0-8.668 11.048l-.001.003c-2.219 5.368-1.949 9.194-1.949 13.743a3.286 3.286 0 0 0-2.273 1 3.413 3.413 0 0 0-.972 2.4c0 1.875 1.498 3.401 3.34 3.401h35.57c1.842 0 3.34-1.526 3.34-3.401 0-1.844-1.448-3.349-3.246-3.4zm-.094 4.781H46.89c-.736 0-1.334-.62-1.334-1.382 0-.775.607-1.383 1.334-1.383h35.57c.736 0 1.334.62 1.334 1.383 0 .762-.598 1.382-1.334 1.382zM65.678 61.838c0-.558-.45-1.01-1.003-1.01-.554 0-1.003.452-1.003 1.01v1.345c0 .558.449 1.01 1.003 1.01.554 0 1.003-.452 1.003-1.01v-1.345z"/>
                <path d="M64.675 74.69c.554 0 1.003-.453 1.003-1.01v-1.346c0-.557-.45-1.01-1.003-1.01-.554 0-1.003.453-1.003 1.01v1.346c0 .557.449 1.01 1.003 1.01zM64.675 66.077c-.554 0-1.003.451-1.003 1.009v1.346c0 .557.449 1.009 1.003 1.009.554 0 1.003-.452 1.003-1.01v-1.345c0-.558-.45-1.01-1.003-1.01zM78.423 44.505c.09-.61-.379-1.16-.992-1.16H51.919c-.612 0-1.083.55-.992 1.16.676 4.526 2.746 8.673 5.986 11.992a10.916 10.916 0 0 0 7.762 3.278c2.899 0 5.728-1.195 7.762-3.278 3.24-3.319 5.31-7.465 5.986-11.992zM64.675 57.756a8.904 8.904 0 0 1-6.331-2.674c-2.663-2.727-4.454-6.067-5.225-9.718H76.23c-.77 3.652-2.561 6.992-5.224 9.718a8.903 8.903 0 0 1-6.33 2.674z"/>
            </g>
        </g>
    </g>
</svg>
