<svg width="140" height="140" viewBox="0 0 140 140" xmlns="http://www.w3.org/2000/svg" xmlns:xlink="http://www.w3.org/1999/xlink">
    <defs>
        <path d="M5.102.21 3.796 1.518l-.048.05c-.248.306-.208.779.104 1.089.33.33.84.356 1.14.056l1.307-1.307.046-.053c.248-.303.209-.776-.102-1.087A.886.886 0 0 0 5.621 0a.726.726 0 0 0-.519.21zM.265.266c-.33.33-.355.841-.057 1.14l1.309 1.308.052.046c.303.249.775.21 1.087-.103.33-.33.355-.84.056-1.14L1.404.21 1.353.162A.725.725 0 0 0 .887 0a.89.89 0 0 0-.622.266zm3.587 3.587c-.33.331-.356.842-.057 1.14l1.308 1.309.052.047c.303.25.776.209 1.088-.103.33-.33.356-.842.056-1.14L4.991 3.796 4.94 3.75a.73.73 0 0 0-.466-.161.884.884 0 0 0-.621.264zm-2.335-.055L.209 5.104l-.046.054c-.25.303-.21.776.102 1.088.33.33.84.355 1.14.056L2.71 4.993l.048-.05c.248-.305.21-.779-.103-1.09a.884.884 0 0 0-.62-.264.72.72 0 0 0-.52.21z" id="5tjh0zbqoa"/>
        <path d="M5.102.21 3.796 1.519l-.048.052c-.248.304-.208.777.104 1.088.329.33.839.355 1.138.056l1.308-1.307.047-.053c.249-.304.21-.776-.103-1.088A.881.881 0 0 0 5.621 0a.723.723 0 0 0-.519.21zM.264.267c-.328.33-.354.841-.056 1.14l1.308 1.308.053.047c.302.249.775.208 1.086-.103.331-.33.356-.84.057-1.14L1.404.21 1.353.163A.729.729 0 0 0 .886 0a.887.887 0 0 0-.622.266zm3.588 3.588c-.33.33-.356.84-.057 1.14l1.309 1.308.051.047c.303.248.775.21 1.087-.103.33-.33.356-.84.056-1.14L4.99 3.797l-.05-.047a.736.736 0 0 0-.467-.161.881.881 0 0 0-.621.265zm-2.336-.056L.209 5.105l-.046.053c-.25.304-.21.776.101 1.088.331.33.841.355 1.14.056l1.307-1.309.048-.05c.249-.305.208-.778-.104-1.089a.884.884 0 0 0-.62-.264.726.726 0 0 0-.52.208z" id="dv6vcse4uc"/>
        <path d="M6.587.27 4.899 1.957l-.06.066c-.321.393-.27 1.003.132 1.404.426.427 1.086.46 1.472.072L8.13 1.813l.061-.067c.321-.392.269-1.002-.133-1.405A1.14 1.14 0 0 0 7.257 0a.935.935 0 0 0-.67.27zM.342.34C-.084.768-.116 1.426.27 1.811l1.689 1.69.066.06c.39.32 1 .27 1.403-.134.427-.425.46-1.083.073-1.47L1.813.269l-.067-.06A.948.948 0 0 0 1.143 0C.86 0 .569.115.342.341zm4.63 4.63c-.427.427-.458 1.084-.073 1.47l1.689 1.69.065.06c.393.32 1.003.27 1.405-.133.426-.427.458-1.085.072-1.47l-1.688-1.69-.066-.06a.945.945 0 0 0-.602-.209c-.283 0-.575.116-.803.342zm-3.014-.072L.271 6.587l-.061.067c-.322.392-.27 1.001.132 1.404.426.426 1.084.458 1.472.071L3.5 6.443l.062-.067c.32-.393.269-1.003-.134-1.405a1.14 1.14 0 0 0-.801-.341.935.935 0 0 0-.669.269z" id="trnucgevxe"/>
    </defs>
    <g fill="none" fill-rule="evenodd">
        <g stroke="#073B4C" stroke-linecap="round" stroke-linejoin="round" stroke-width="2.45">
            <path d="M74.63 91.53c-11.422 2.633-22.813-4.518-25.44-15.973-2.626-11.455 4.506-22.876 15.93-25.509 11.424-2.633 22.814 4.518 25.44 15.972 2.627 11.455-4.505 22.876-15.93 25.51zm23.628-27.415a5.887 5.887 0 0 0-4.31-4.397c.947-1.9.838-4.25-.487-6.092a5.874 5.874 0 0 0-5.415-2.408 5.892 5.892 0 0 0-2.751-5.192 5.865 5.865 0 0 0-6.149-.053 5.882 5.882 0 0 0-4.64-3.962 5.866 5.866 0 0 0-5.526 2.136 5.866 5.866 0 0 0-5.607-1.72 5.885 5.885 0 0 0-4.386 4.321 5.862 5.862 0 0 0-6.075.488 5.901 5.901 0 0 0-2.401 5.429 5.871 5.871 0 0 0-5.178 2.76 5.908 5.908 0 0 0-.053 6.165 5.887 5.887 0 0 0-3.952 4.652 5.896 5.896 0 0 0 2.13 5.54 5.904 5.904 0 0 0-1.715 5.624 5.884 5.884 0 0 0 4.31 4.396 5.904 5.904 0 0 0 .487 6.092 5.868 5.868 0 0 0 5.413 2.408 5.896 5.896 0 0 0 2.753 5.193 5.865 5.865 0 0 0 6.148.053 5.882 5.882 0 0 0 4.64 3.962 5.868 5.868 0 0 0 5.526-2.137 5.867 5.867 0 0 0 5.608 1.721 5.885 5.885 0 0 0 4.384-4.322c1.895.95 4.239.841 6.076-.488a5.9 5.9 0 0 0 2.4-5.429 5.869 5.869 0 0 0 5.18-2.759 5.908 5.908 0 0 0 .053-6.165 5.9 5.9 0 0 0 1.82-10.194 5.9 5.9 0 0 0 1.717-5.622z" fill="#E9F4FC"/>
            <path d="m102.06 55.784 4.235.427M94.24 44.716l1.732-4.113M100.654 48.8l5.326-4.363M37.939 55.784l-4.234.427M45.759 44.716l-1.731-4.113M39.346 48.8l-5.326-4.363M71.736 98.012l10.265 20.99 6.322-10.366 12.045 1.336L90.03 88.835M90.402 102.95l-4.025-8.231M78.427 98.34l4.14 8.465M67.548 99.472l-9.551 19.531-6.322-10.367-12.044 1.337 9.765-19.968M57.432 106.803l4.538-9.28M53.656 94.648l-4.06 8.304"/>
        </g>
        <g fill="#073B4C" fill-rule="nonzero">
            <path d="M79.878 77.948c.546.289.66.832.356 1.302a.938.938 0 0 1-1.312.28 15.341 15.341 0 0 0-10.758-2.322c1.304 2.51.906 4.291-1.376 4.904-2.215.595-3.385-.657-3.472-3.295-.498.262-.986.553-1.46.874a1.09 1.09 0 0 1-.695.148.827.827 0 0 1-.609-.397c-.19-.324-.194-.729-.012-1.01.061-.095.152-.236.26-.3 5.787-3.911 13.276-3.971 19.078-.184zm-14.064-.183.658 1.548a.35.35 0 0 1-.614.33l-.03-.056-.676-1.593c-.148.055-.295.112-.441.172l-.003.084c-.086 2.132.441 2.81 1.622 2.534l.095-.024c1.304-.35 1.477-1.27.31-3.256-.31.075-.617.163-.92.26zM61.871 63.147a.7.7 0 0 1 .924 1.048l-.556.555.556.555a.7.7 0 0 1-.924 1.048l-.066-.058-.555-.556-.555.556-.066.058a.7.7 0 0 1-.924-1.048l.556-.555-.556-.555a.7.7 0 0 1 .924-1.048l.066.058.555.556.555-.556zM80.071 63.147a.7.7 0 0 1 .924 1.048l-.556.555.556.555a.7.7 0 0 1-.924 1.048l-.066-.058-.555-.556-.555.556-.066.058a.7.7 0 0 1-.924-1.048l.556-.555-.556-.555a.7.7 0 0 1 .924-1.048l.066.058.555.556.555-.556z"/>
        </g>
        <g transform="translate(19.551 87.586)">
            <mask id="313scathqb" fill="#fff">
                <use xlink:href="#5tjh0zbqoa"/>
            </mask>
            <path fill="#073B4C" mask="url(#313scathqb)" d="m3.253-10.061 13.31 13.316-13.31 13.317-13.308-13.317z"/>
        </g>
        <g transform="translate(115.5 105.324)">
            <mask id="w3ruxxmktd" fill="#fff">
                <use xlink:href="#dv6vcse4uc"/>
            </mask>
            <path fill="#073B4C" mask="url(#w3ruxxmktd)" d="m3.253-10.06 13.31 13.317-13.31 13.316-13.309-13.316z"/>
        </g>
        <g transform="translate(78.4 16.8)">
            <mask id="8yxv9ahhdf" fill="#fff">
                <use xlink:href="#trnucgevxe"/>
            </mask>
            <path fill="#073B4C" mask="url(#8yxv9ahhdf)" d="M4.55-12.6 21.7 4.55 4.55 21.7-12.6 4.55z"/>
        </g>
    </g>
</svg>
