<svg width="131" height="130" viewBox="0 0 131 130" xmlns="http://www.w3.org/2000/svg" xmlns:xlink="http://www.w3.org/1999/xlink">
    <defs>
        <path id="1jydtoq3wa" d="M0 0h7.719v7.7H0z"/>
        <path id="bpqyxj427c" d="M0 0h8.576v8.556H0z"/>
        <path id="u1wy1gs28e" d="M0 0h4.288v4.278H0z"/>
        <path id="qk3l9nzz7g" d="M0 0h8.576v8.556H0z"/>
    </defs>
    <g fill="none" fill-rule="evenodd">
        <path d="M101.961 94.055 51.028 43.134c-.52-3.187-.065-5.3 1.363-6.34 1.429-1.041 3.052-1.627 4.87-1.757l53.27 53.458c.585 2.146.13 4-1.363 5.56-1.493 1.56-3.896 1.56-7.207 0z" fill="#E9F4FC"/>
        <path d="M47.62 53.572c0-.52 1.46-4 4.382-10.438l50.836 51.214-11.492 4C62.195 69.017 47.62 54.091 47.62 53.571z" fill="#FFD166"/>
        <path fill="#E9F4FC" d="m40.315 121.564-15.387-15.413 22.691-52.58 43.727 44.776z"/>
        <path d="M30.844 91.412a1.461 1.461 0 0 0 1.925-.751l15.064-34.358 3.462 3.469a1.456 1.456 0 0 0 2.066 0c.57-.572.57-1.498 0-2.07l-4.267-4.274 3.312-7.554L92.104 85.64a1.456 1.456 0 0 0 2.066 0c.57-.571.57-1.498 0-2.069L52.615 41.945a2.976 2.976 0 0 1-.875-2.116c0-.8.31-1.551.875-2.117l.643-.644a2.988 2.988 0 0 1 4.226 0l3.754 3.762a1.46 1.46 0 0 0 2.066 0c.57-.572.57-1.498 0-2.07L59.55 35a5.91 5.91 0 0 0-8.357 0l-.643.643a5.885 5.885 0 0 0-1.73 4.186 5.88 5.88 0 0 0 1.38 3.8L30.092 89.485c-.324.74.012 1.603.75 1.928z" fill="#073B4C" fill-rule="nonzero"/>
        <path d="M65.64 43.17a1.46 1.46 0 0 1 2.066 0l42.949 43.02a5.885 5.885 0 0 1 1.73 4.186 5.886 5.886 0 0 1-1.73 4.186l-.643.644a5.886 5.886 0 0 1-4.179 1.73c-1.35 0-2.7-.46-3.794-1.38L72.46 108.57l1.22 3c2.177 5.357-.364 11.58-5.666 13.873l-8.479 3.668c-1.382.598-2.833.889-4.268.889a10.617 10.617 0 0 1-7.53-3.14 10.72 10.72 0 0 1-2.049-2.879l-1.46-2.99-2.784 1.224a4.753 4.753 0 0 1-1.368 3.803l-1.8 1.803a4.713 4.713 0 0 1-3.357 1.393 4.713 4.713 0 0 1-3.357-1.393l-13.573-13.595a4.767 4.767 0 0 1 0-6.726l1.8-1.803a4.713 4.713 0 0 1 3.798-1.372l3.947-9.003a1.46 1.46 0 1 1 2.675 1.177l-3.938 8.981c.08.07.158.142.233.217l13.573 13.595c.075.076.142.156.212.236l49.099-21.6-33.52-33.577a1.465 1.465 0 0 1 0-2.07 1.459 1.459 0 0 1 2.065 0l34.326 34.383 7.54-3.317-3.275-3.28a1.465 1.465 0 0 1 0-2.07 1.46 1.46 0 0 1 2.066 0l5.132 5.14a2.966 2.966 0 0 0 2.113.876c.798 0 1.548-.311 2.112-.876l.643-.644a2.977 2.977 0 0 0 .875-2.117c0-.799-.31-1.55-.875-2.116L65.64 45.24a1.465 1.465 0 0 1 0-2.07zm-2.416 69.463-9.756 4.292 1.279 2.62c.143.293.49.422.79.292l8.479-3.667a.623.623 0 0 0 .323-.792l-1.115-2.745z" fill="#073B4C" fill-rule="nonzero"/>
        <path d="m38.01 123.95-1.8 1.802a1.813 1.813 0 0 1-1.292.536c-.487 0-.946-.19-1.291-.536l-13.572-13.595a1.834 1.834 0 0 1 0-2.588l1.8-1.802a1.813 1.813 0 0 1 1.29-.536c.489 0 .947.19 1.292.536l13.573 13.595a1.834 1.834 0 0 1 0 2.587z" fill="#FFD166" fill-rule="nonzero"/>
        <path d="M70.973 112.673c1.582 3.894-.265 8.417-4.118 10.084l-8.479 3.667a7.719 7.719 0 0 1-8.574-1.633 7.804 7.804 0 0 1-1.49-2.096l-1.407-2.882 3.886-1.71 1.33 2.727a3.527 3.527 0 0 0 4.574 1.694l8.479-3.667c1.75-.758 2.59-2.813 1.87-4.582l-1.145-2.819 3.885-1.708 1.19 2.925z" fill="#E9F4FC" fill-rule="nonzero"/>
        <path d="M89.395 58.062c.374 0 .748-.143 1.033-.429l1.61-1.612c.57-.571.57-1.498 0-2.07a1.46 1.46 0 0 0-2.067 0l-1.61 1.613a1.465 1.465 0 0 0 1.034 2.498zM97.057 50.084c.373 0 .747-.143 1.033-.429l6.813-6.825c.571-.572.571-1.498 0-2.07a1.46 1.46 0 0 0-2.065 0l-6.814 6.826a1.465 1.465 0 0 0 1.033 2.498zM81.307 43.094a1.462 1.462 0 0 0 1.572-1.343l.763-9.622a1.463 1.463 0 0 0-1.34-1.574 1.462 1.462 0 0 0-1.572 1.342l-.764 9.622a1.462 1.462 0 0 0 1.34 1.575zM115.395 63.704a1.46 1.46 0 0 0-1.571-1.343l-9.607.765a1.462 1.462 0 0 0 .232 2.917l9.606-.765a1.462 1.462 0 0 0 1.34-1.574z" fill="#073B4C" fill-rule="nonzero"/>
        <g transform="translate(34.656 14.95)">
            <mask id="ecjkzx1deb" fill="#fff">
                <use xlink:href="#1jydtoq3wa"/>
            </mask>
            <path d="M4.156.296a.297.297 0 0 0-.593 0A3.266 3.266 0 0 1 .296 3.554a.297.297 0 1 0 0 .592c1.8 0 3.265 1.462 3.265 3.258a.297.297 0 0 0 .594 0 3.266 3.266 0 0 1 3.266-3.258.297.297 0 1 0 0-.592A3.266 3.266 0 0 1 4.156.296z" fill="#073B4C" mask="url(#ecjkzx1deb)"/>
        </g>
        <g transform="translate(15.3)">
            <mask id="cl17ao2htd" fill="#fff">
                <use xlink:href="#bpqyxj427c"/>
            </mask>
            <path d="M4.618.33a.33.33 0 0 0-.66 0A3.629 3.629 0 0 1 .33 3.948a.33.33 0 1 0 0 .658c2 0 3.628 1.624 3.628 3.62a.33.33 0 0 0 .66 0 3.629 3.629 0 0 1 3.629-3.62.33.33 0 1 0 0-.658c-2 0-3.629-1.625-3.629-3.62z" fill="#073B4C" mask="url(#cl17ao2htd)"/>
        </g>
        <path d="M5.663 24.6a4.711 4.711 0 0 1 4.717 4.706 4.715 4.715 0 0 1-4.717 4.705 4.711 4.711 0 0 1-4.717-4.705A4.711 4.711 0 0 1 5.663 24.6zm0 2.268a2.443 2.443 0 0 0-2.45 2.438 2.443 2.443 0 0 0 2.32 2.434l.129.003.13-.003a2.447 2.447 0 0 0 2.316-2.305l.004-.13a2.443 2.443 0 0 0-2.45-2.437zM106.625 0a3.575 3.575 0 1 1 0 7.15 3.575 3.575 0 0 1 0-7.15zm0 1.723a1.852 1.852 0 0 0-.109 3.7l.108.004.109-.003a1.855 1.855 0 0 0 1.74-1.74l.004-.109a1.852 1.852 0 0 0-1.852-1.852z" fill="#073B4C" fill-rule="nonzero"/>
        <g transform="translate(61.414 5.656)">
            <mask id="w33jq02zjf" fill="#fff">
                <use xlink:href="#u1wy1gs28e"/>
            </mask>
            <path d="M2.309.165a.165.165 0 0 0-.33 0c0 .997-.814 1.81-1.814 1.81a.165.165 0 1 0 0 .328c1 0 1.814.813 1.814 1.81a.165.165 0 0 0 .33 0c0-.997.814-1.81 1.814-1.81a.165.165 0 1 0 0-.329c-1 0-1.814-.812-1.814-1.81z" fill="#073B4C" mask="url(#w33jq02zjf)"/>
        </g>
        <g transform="translate(122.252 24.889)">
            <mask id="ww4hen8kyh" fill="#fff">
                <use xlink:href="#qk3l9nzz7g"/>
            </mask>
            <path d="M4.618.33a.33.33 0 0 0-.66 0A3.629 3.629 0 0 1 .33 3.948a.33.33 0 1 0 0 .658c2 0 3.628 1.624 3.628 3.62a.33.33 0 0 0 .66 0 3.629 3.629 0 0 1 3.629-3.62.33.33 0 1 0 0-.658c-2 0-3.629-1.625-3.629-3.62zM-9.104-31.326a.33.33 0 0 0-.66 0 3.629 3.629 0 0 1-3.628 3.62.33.33 0 1 0 0 .657c2 0 3.628 1.625 3.628 3.62a.33.33 0 0 0 .66 0 3.629 3.629 0 0 1 3.628-3.62.33.33 0 1 0 0-.658c-2 0-3.628-1.624-3.628-3.62z" fill="#073B4C" mask="url(#ww4hen8kyh)"/>
        </g>
    </g>
</svg>
