<svg width="20" height="20" viewBox="0 0 20 20" xmlns="http://www.w3.org/2000/svg">
    <path d="M8.616 2.341c.402 0 .728.327.728.728v5.57a.729.729 0 0 1-.728.728h-5.57a.729.729 0 0 1-.727-.728v-5.57c0-.401.327-.728.728-.728zm-.444 1.172H3.491v4.682h4.681V3.513zm-1.424.733c.381 0 .692.31.692.692V6.77c0 .382-.31.692-.692.692H4.916a.693.693 0 0 1-.692-.692V4.938c0-.381.31-.692.692-.692zm-.48 1.172h-.872v.872h.872v-.872zM5.645 0a.586.586 0 0 1 0 1.172h-3.3c-.647 0-1.173.526-1.173 1.173V5.66A.586.586 0 1 1 0 5.66V2.345A2.348 2.348 0 0 1 2.345 0zM.585 13.765c.325 0 .587.263.587.586v3.304c0 .647.526 1.173 1.173 1.173h3.3a.586.586 0 0 1 0 1.172h-3.3A2.348 2.348 0 0 1 0 17.655v-3.304c0-.323.262-.586.586-.586zm8.042-3.128c.402 0 .728.326.728.728v5.57a.729.729 0 0 1-.728.727h-5.57a.729.729 0 0 1-.727-.728v-5.57c0-.4.327-.727.728-.727zm-.444 1.172H3.502v4.681h4.681V11.81zm-1.435.733c.381 0 .691.31.691.692v1.832c0 .381-.31.691-.691.691H4.916a.693.693 0 0 1-.692-.691v-1.832c0-.382.31-.692.692-.692zm-.48 1.171h-.872v.873h.872v-.873zm13.146.052c.291 0 .533.213.578.491l.008.095v3.304c0 1.24-.966 2.257-2.185 2.34l-.16.005h-3.297a.586.586 0 0 1-.095-1.164l.095-.008h3.297c.604 0 1.102-.458 1.166-1.045l.007-.128v-3.304c0-.323.262-.586.586-.586zm-2.33.765c.291 0 .533.213.578.491l.008.095v1.818a.729.729 0 0 1-.63.721l-.098.007H15.01a.586.586 0 0 1-.096-1.164l.096-.008h1.488v-1.374c0-.323.262-.586.586-.586zm-3.641 1.96a.586.586 0 0 1 .095 1.164l-.095.008H11.22a.586.586 0 0 1-.095-1.164l.095-.008h2.223zm1.774-5.711a.74.74 0 0 1 .732.639l.007.1v3.556a.63.63 0 0 1-.536.621l-.093.007h-2.032a.586.586 0 0 1-.095-1.164l.095-.008h1.489v-2.58H11.22a.586.586 0 0 1-.095-1.164l.095-.007h3.997zm-2.282 1.798a.586.586 0 0 1 0 1.172h-.976v1.367a.586.586 0 0 1-1.172 0v-1.8a.74.74 0 0 1 .739-.739zm4.138-1.798c.323 0 .586.262.586.586v1.798a.586.586 0 0 1-1.172 0v-1.798c0-.324.262-.586.586-.586zM16.93 2.34c.401 0 .728.327.728.728v5.57a.729.729 0 0 1-.728.728h-5.57a.729.729 0 0 1-.727-.728v-5.57c0-.401.326-.728.727-.728zm-.444 1.172h-4.681v4.682h4.681V3.513zm-1.425.733c.382 0 .692.31.692.692V6.77c0 .382-.31.692-.692.692H13.23a.693.693 0 0 1-.692-.692V4.938c0-.381.31-.692.692-.692zm-.48 1.172h-.872v.872h.872v-.872zM17.655 0A2.348 2.348 0 0 1 20 2.345V5.66a.586.586 0 0 1-1.172 0V2.345c0-.647-.526-1.173-1.173-1.173h-3.297a.586.586 0 0 1 0-1.172z" fill="#48464D" fill-rule="evenodd"/>
</svg>
