<svg width="130" height="130" viewBox="0 0 130 130" xmlns="http://www.w3.org/2000/svg">
    <g fill="none" fill-rule="evenodd">
        <g fill-rule="nonzero">
            <path d="M63.7 48.877c-32.995-24.614-54.86 25.596 0 49.873 54.86-24.277 32.995-74.487 0-49.873z" fill="#FF5578"/>
            <path d="M63.7 48.877c-32.995-24.614-54.86 25.596 0 49.873 54.86-24.277 32.995-74.487 0-49.873z" fill="#EF476F"/>
            <path d="M74.522 43.209c15.644 5.58 17.442 34.477-16.76 52.659A91.72 91.72 0 0 0 63.7 98.75c48.563-21.49 37.003-63.3 10.822-55.541z" fill="#EF476F"/>
            <path d="M54.054 59.966h19.697c1.486 0 2.691 1.2 2.691 2.68V74.42c0 1.48-1.205 2.68-2.691 2.68H54.054a2.686 2.686 0 0 1-2.691-2.68V62.647c0-1.48 1.205-2.68 2.691-2.68z" fill="#D9EDFF"/>
            <path d="M54.054 59.966h19.697c1.486 0 2.691 1.2 2.691 2.68V74.42c0 1.48-1.205 2.68-2.691 2.68H54.054a2.686 2.686 0 0 1-2.691-2.68V62.647c0-1.48 1.205-2.68 2.691-2.68z" fill="#E9F4FC"/>
            <path d="M76.442 62.647c0-1.48-1.205-2.68-2.692-2.68h-7.183c1.487 0 2.692 1.2 2.692 2.68V74.42c0 1.48-1.205 2.68-2.692 2.68h7.183c1.487 0 2.692-1.2 2.692-2.68V62.647z" fill="#E9F4FC"/>
            <path d="M76.442 74.311h8.904c1.487 0 2.692-1.2 2.692-2.68v-6.194c0-1.48-1.205-2.68-2.692-2.68h-8.904V74.31zM51.363 62.756h-8.905a2.686 2.686 0 0 0-2.691 2.68v6.194c0 1.48 1.205 2.681 2.691 2.681h8.905V62.756z" fill="#FFD166"/>
            <path d="M88.038 65.436c0-1.48-1.205-2.68-2.692-2.68h-5.798c1.487 0 2.692 1.2 2.692 2.68v6.195c0 1.48-1.205 2.68-2.692 2.68h5.798c1.487 0 2.692-1.2 2.692-2.68v-6.195zM51.363 62.756h-5.798v11.555h-3.107 8.905z" fill="#FFD166"/>
            <path d="M69.259 73.288a1.002 1.002 0 0 1-.56-.17.987.987 0 0 1-.45-.835 1.006 1.006 0 0 1 .296-.71.995.995 0 0 1 .516-.276 1.02 1.02 0 0 1 .911.276 1.004 1.004 0 0 1 .276.906 1.023 1.023 0 0 1-.15.362.993.993 0 0 1-.453.37 1.044 1.044 0 0 1-.386.077zM63.902 73.288a.987.987 0 0 1-.385-.078.955.955 0 0 1-.328-.217.98.98 0 0 1-.218-.327 1.02 1.02 0 0 1-.077-.383 1.01 1.01 0 1 1 1.998.196 1 1 0 0 1-.15.361.994.994 0 0 1-.643.428.986.986 0 0 1-.197.02zM58.546 73.288a1.003 1.003 0 0 1-.561-.17.982.982 0 0 1-.428-.64 1.01 1.01 0 1 1 1.978 0 1.01 1.01 0 0 1-.99.81zM69.259 69.365a.992.992 0 0 1-.386-.076.939.939 0 0 1-.174-.094 1.007 1.007 0 0 1-.28-1.393 1 1 0 0 1 .28-.278 1.029 1.029 0 0 1 .362-.149 1.04 1.04 0 0 1 .758.149.995.995 0 0 1 .371.451.955.955 0 0 1 .078.385 1.007 1.007 0 0 1-1.009 1.005zM63.902 69.365a1.01 1.01 0 0 1-.99-1.202 1.04 1.04 0 0 1 .277-.513 1.022 1.022 0 0 1 1.274-.126 1.064 1.064 0 0 1 .279.278 1.007 1.007 0 0 1 .092.943 1.021 1.021 0 0 1-.371.45.946.946 0 0 1-.363.15.971.971 0 0 1-.198.02zM58.546 69.365a.993.993 0 0 1-.386-.076.93.93 0 0 1-.174-.094.992.992 0 0 1-.43-1.032 1.036 1.036 0 0 1 .15-.36 1 1 0 0 1 .454-.372 1.028 1.028 0 0 1 .772 0 1.028 1.028 0 0 1 .327.219.908.908 0 0 1 .125.153.955.955 0 0 1 .17.558 1.007 1.007 0 0 1-1.008 1.004zM69.259 65.442a1.002 1.002 0 0 1-.386-.076 1.029 1.029 0 0 1-.454-.371 1.002 1.002 0 0 1 .127-1.268 1.017 1.017 0 0 1 1.273-.126.995.995 0 0 1 .371.451 1.037 1.037 0 0 1 .078.385.991.991 0 0 1-.17.558.981.981 0 0 1-.64.428.983.983 0 0 1-.199.02zM63.903 65.442a1.018 1.018 0 0 1-.84-.447 1.002 1.002 0 0 1 .642-1.543 1.022 1.022 0 0 1 1.037.428 1.012 1.012 0 0 1 .15.754 1.001 1.001 0 0 1-.276.513 1.048 1.048 0 0 1-.328.219 1.016 1.016 0 0 1-.385.076zM58.546 65.442a1.015 1.015 0 0 1-.933-.62 1.008 1.008 0 1 1 1.493.451 1.01 1.01 0 0 1-.56.17z" fill="#4F3454"/>
            <g>
                <path d="M85.346 73.306H83.96c-.557 0-1.009.45-1.009 1.005 0 .555.452 1.005 1.01 1.005h1.386c2.04 0 3.701-1.653 3.701-3.686v-6.194c0-2.032-1.66-3.685-3.7-3.685H77.34a3.705 3.705 0 0 0-3.59-2.79H54.053a3.705 3.705 0 0 0-3.59 2.79h-1.893c-.558 0-1.01.45-1.01 1.005 0 .555.452 1.005 1.01 1.005h1.782v9.545h-7.895a1.68 1.68 0 0 1-1.682-1.676v-6.194a1.68 1.68 0 0 1 1.682-1.675h1.403c.557 0 1.009-.45 1.009-1.005 0-.555-.452-1.005-1.01-1.005h-1.402c-2.04 0-3.7 1.653-3.7 3.685v6.194c0 2.033 1.66 3.686 3.7 3.686h8.006a3.705 3.705 0 0 0 3.59 2.79H73.75a3.705 3.705 0 0 0 3.59-2.79h1.91c.557 0 1.009-.45 1.009-1.005 0-.555-.452-1.005-1.01-1.005h-1.798V63.76h7.896a1.68 1.68 0 0 1 1.682 1.675v6.194a1.68 1.68 0 0 1-1.683 1.676zm-9.913 1.114a1.68 1.68 0 0 1-1.682 1.676H54.054a1.68 1.68 0 0 1-1.682-1.676V62.647a1.68 1.68 0 0 1 1.682-1.675H73.75a1.68 1.68 0 0 1 1.683 1.675V74.42z" fill="#052C50"/>
                <path d="M69.061 71.297a1.01 1.01 0 0 0-.642 1.543 1 1 0 0 0 .454.37 1.03 1.03 0 0 0 .386.078.976.976 0 0 0 .386-.078.944.944 0 0 0 .174-.092.98.98 0 0 0 .43-.64 1.005 1.005 0 0 0-.276-.906 1.02 1.02 0 0 0-.912-.275zM64.463 71.446a1.026 1.026 0 0 0-.758-.15 1.01 1.01 0 0 0-.642 1.544.986.986 0 0 0 .454.37 1.03 1.03 0 0 0 .385.078.99.99 0 0 0 .386-.078.955.955 0 0 0 .328-.217.987.987 0 0 0 .218-.327 1.01 1.01 0 0 0 .077-.383 1.01 1.01 0 0 0-.448-.837zM59.106 71.446a1.009 1.009 0 0 0-1.121 0 1.009 1.009 0 0 0-.279 1.394.985.985 0 0 0 .454.37 1.066 1.066 0 0 0 .386.078.98.98 0 0 0 .386-.078.94.94 0 0 0 .174-.092.918.918 0 0 0 .153-.125.908.908 0 0 0 .125-.153 1.02 1.02 0 0 0 .17-.558 1.005 1.005 0 0 0-.448-.836z" fill="#052C50"/>
                <path d="M70.19 67.975a.938.938 0 0 0-.092-.172.981.981 0 0 0-.642-.428.982.982 0 0 0-.583.056 1.039 1.039 0 0 0-.327.219.987.987 0 0 0-.296.71 1.007 1.007 0 0 0 1.009 1.005 1.007 1.007 0 0 0 .99-1.202.964.964 0 0 0-.059-.188zM64.834 67.975a1.016 1.016 0 0 0-.546-.544 1.023 1.023 0 0 0-1.225.371 1.007 1.007 0 0 0-.17.558 1.01 1.01 0 1 0 1.941-.385z" fill="#000"/>
                <path d="M59.477 67.975a.938.938 0 0 0-.093-.172.983.983 0 0 0-.642-.428.982.982 0 0 0-.582.056 1.028 1.028 0 0 0-.454.372 1.007 1.007 0 0 0-.15.754 1.037 1.037 0 0 0 .15.36 1.007 1.007 0 0 0 .642.428 1.015 1.015 0 0 0 .911-.275 1.007 1.007 0 0 0 .276-.907.946.946 0 0 0-.058-.188zM70.19 64.052a.942.942 0 0 0-.092-.173.98.98 0 0 0-.64-.427 1.018 1.018 0 0 0-1.131.6 1.022 1.022 0 0 0 0 .77 1.011 1.011 0 0 0 1.77.173 1.022 1.022 0 0 0 .17-.558.968.968 0 0 0-.077-.385zM64.834 64.052a1.021 1.021 0 0 0-.218-.325 1.022 1.022 0 0 0-1.274-.126 1.063 1.063 0 0 0-.279.278 1.012 1.012 0 0 0-.15.755 1.012 1.012 0 0 0 1.921.188 1.011 1.011 0 0 0 .077-.385 1.05 1.05 0 0 0-.077-.385zM59.477 64.052a.942.942 0 0 0-.093-.173 1.018 1.018 0 0 0-1.398-.279.992.992 0 0 0-.43 1.033 1.008 1.008 0 0 0 .277.514 1.015 1.015 0 0 0 1.273.126.997.997 0 0 0 .371-.451 1.022 1.022 0 0 0 .078-.385.968.968 0 0 0-.078-.385z" fill="#052C50"/>
                <path d="M98.01 57.589c-.913-8.336-6.125-14.456-13.602-15.973a1.005 1.005 0 1 0-.403 1.97c6.587 1.336 11.184 6.785 11.998 14.22.707 6.459-1.518 13.63-6.265 20.196-5.586 7.725-14.584 14.513-26.038 19.647-10.676-4.782-18.972-10.787-24.667-17.852-4.879-6.054-7.56-12.589-7.754-18.897-.22-7.201 2.88-13.174 8.296-15.977 6.432-3.328 15.004-1.594 23.52 4.76.358.267.851.267 1.21 0 5.187-3.87 10.463-6.077 15.256-6.381a1.006 1.006 0 1 0-.128-2.006c-5.07.321-10.36 2.451-15.733 6.333-8.966-6.467-18.066-8.107-25.055-4.49-2.985 1.545-5.428 4.004-7.066 7.112-1.636 3.105-2.437 6.808-2.317 10.71.207 6.748 3.042 13.697 8.197 20.094 5.97 7.408 14.661 13.67 25.831 18.613a1.011 1.011 0 0 0 .82 0c6.255-2.768 11.81-6.004 16.508-9.618 4.328-3.328 7.947-6.986 10.758-10.874 5.04-6.968 7.395-14.635 6.634-21.587z" fill="#052C50"/>
            </g>
        </g>
        <path d="M28.24 29.173v2.952l.005.112c.054.624.547 1.113 1.147 1.113.636 0 1.151-.548 1.151-1.225v-2.952l-.005-.11c-.052-.625-.546-1.113-1.146-1.113-.635 0-1.151.547-1.151 1.223zm3.52 4.177-.111.005c-.62.054-1.106.549-1.106 1.152 0 .64.545 1.157 1.217 1.157h2.94l.11-.004c.62-.053 1.106-.549 1.106-1.153 0-.64-.545-1.157-1.215-1.157H31.76zm-7.676 0-.11.005c-.62.054-1.107.549-1.107 1.152 0 .64.547 1.157 1.217 1.157h2.94l.11-.004c.62-.053 1.107-.549 1.107-1.153 0-.64-.545-1.157-1.217-1.157h-2.94zm4.157 3.538v2.954l.004.111c.054.624.547 1.113 1.147 1.113.636 0 1.151-.549 1.151-1.224v-2.954l-.005-.111c-.052-.624-.546-1.113-1.146-1.113-.635 0-1.151.549-1.151 1.224z" fill="#EF476F"/>
        <circle fill="#EF476F" cx="115.375" cy="77.025" r="2.925"/>
        <circle fill="#EF476F" cx="15.925" cy="54.275" r="3.575"/>
        <path d="M100.224 89.93v2.951l.005.11c.053.627.546 1.115 1.146 1.115.635 0 1.152-.548 1.152-1.225V89.93l-.005-.112c-.054-.623-.548-1.112-1.147-1.112-.635 0-1.15.548-1.15 1.224zm3.52 4.176-.112.005c-.619.052-1.105.547-1.105 1.152 0 .639.545 1.157 1.217 1.157h2.94l.11-.005c.62-.053 1.106-.548 1.106-1.152 0-.64-.546-1.157-1.217-1.157h-2.94zm-7.677 0-.11.005c-.62.052-1.107.547-1.107 1.152 0 .639.546 1.157 1.217 1.157h2.94l.112-.005c.618-.053 1.105-.548 1.105-1.152 0-.64-.545-1.157-1.217-1.157h-2.94zm4.157 3.538v2.952l.005.112c.053.624.546 1.113 1.146 1.113.635 0 1.152-.547 1.152-1.225v-2.952l-.005-.11c-.054-.625-.548-1.114-1.147-1.114-.635 0-1.15.548-1.15 1.224z" fill="#EF476F"/>
    </g>
</svg>
