<svg width="24" height="24" viewBox="0 0 24 24" xmlns="http://www.w3.org/2000/svg">
    <path d="M12 0c6.627 0 12 5.373 12 12s-5.373 12-12 12S0 18.627 0 12 5.373 0 12 0zm0 1.8C6.367 1.8 1.8 6.367 1.8 12c0 5.633 4.567 10.2 10.2 10.2 5.633 0 10.2-4.567 10.2-10.2 0-5.633-4.567-10.2-10.2-10.2zm.006 8.552a.9.9 0 0 1 .892.778l.008.122v5.303a.9.9 0 0 1-1.792.122l-.008-.122v-5.303a.9.9 0 0 1 .9-.9zm0-3.807a.9.9 0 0 1 .122 1.792l-.134.008a.9.9 0 0 1-.122-1.792l.134-.008z" fill="#48464D" fill-rule="evenodd"/>
</svg>
