<svg width="135" height="131" viewBox="0 0 135 131" xmlns="http://www.w3.org/2000/svg">
    <g fill="none" fill-rule="evenodd">
        <g transform="rotate(-17 202.143 30.212)">
            <rect fill="#FFF" width="117.867" height="72.8" rx="9.073"/>
            <path d="M108.8 0c5.007 0 9.067 4.062 9.067 9.073v54.654c0 5.01-4.06 9.073-9.067 9.073H9.067C4.059 72.8 0 68.738 0 63.727V9.073C0 4.063 4.06 0 9.067 0H108.8zm0 2.12H9.067A6.951 6.951 0 0 0 2.12 8.847l-.003.225v54.654a6.952 6.952 0 0 0 6.724 6.95l.225.004H108.8a6.951 6.951 0 0 0 6.945-6.73l.004-.224V9.073a6.952 6.952 0 0 0-6.724-6.95l-.225-.004z" fill="#073B4C" fill-rule="nonzero"/>
            <path d="M28 14.223v-.94a.628.628 0 0 1 .55-.67h54.172c1.234 0 2.402 1.842 2.924 3.187H27.999v-1.577z" fill="#FED168"/>
            <path fill="#FFF" fill-rule="nonzero" d="M72.62 17.116h3.22v10.508h-3.22z"/>
            <path fill="#FFF" d="M71.418 17.116v10.508H60.361V17.116h4.42zM59.202 27.624H48.148l-.045-10.508H59.165zM46.944 27.624H35.886l-.04-10.508H46.901zM28.04 27.624 28 17.116h6.644l.042 10.508zM88.66 26.465c.58 1.952.926 3.967 1.032 6.001h-6.094a1.972 1.972 0 0 1-1.127-.53c-1.513-1.241-3.264-2.507-4.79-3.724a4.736 4.736 0 0 0-.642-.584V17.103h8.82c.227.787 2.497 8.332 2.801 9.362z"/>
            <path d="M89.692 40.28a.565.565 0 0 1-.555.56H28.55a.561.561 0 0 1-.55-.56V28.95H75.34c.409.008.802.153 1.119.413l1.756 1.42 2.417 1.958.617.496a3.74 3.74 0 0 0 2.34.828h6.094l.008 6.216z" fill="#E8F2FB"/>
            <path d="M89.82 32.479h-6.222a1.972 1.972 0 0 1-1.127-.53c-1.513-1.242-3.264-2.508-4.79-3.725a4.736 4.736 0 0 0-.642-.583V17.103h8.82c.227.787 2.497 8.332 2.801 9.375.58 1.952.926 3.966 1.032 6h.128z" fill="#FFF"/>
            <path d="m92.949 23.39-1.485-4.664a.967.967 0 0 0-.925-.679h-3.22l-.452-1.548-.312-1.072a.453.453 0 0 0-.02-.07 5.207 5.207 0 0 0-4.849-3.377H29.2a2.504 2.504 0 0 0-2.496 2.512v26.016c0 1.382.473 1.73 1.846 1.73h60.612c1.373 0 1.714-.476 1.714-1.862V32.97a20.276 20.276 0 0 0-1.258-7.077l-1.727-5.893h1.941l1.27 3.981a.967.967 0 0 0 1.657.373.982.982 0 0 0 .19-.973v.008zm-64.95-8.898v-.782a.561.561 0 0 1 .551-.559h54.172c1.234 0 2.402 1.531 2.924 2.649H27.999v-1.308zm47.84 2.624v10.508h-3.22V17.116h3.22zm-4.42 0v10.508H60.36V17.116h11.057zm-12.23 10.508H48.15l-.062-10.508H59.16l.03 10.508zm-12.262 0h-11.04l-.042-10.508h11.057l.025 10.508zm-18.915 0-.013-10.508h6.645l.042 10.508h-6.674zm61.68 12.656a.565.565 0 0 1-.555.56H28.55a.561.561 0 0 1-.55-.56V28.95H75.34c.409.008.802.153 1.119.413l1.756 1.42 2.417 1.958.617.496a3.74 3.74 0 0 0 2.34.828h6.094l.008 6.216zM88.66 26.465c.58 1.952.926 3.967 1.032 6.001h-6.094a1.972 1.972 0 0 1-1.127-.53c-1.513-1.241-3.264-2.507-4.79-3.724a4.736 4.736 0 0 0-.642-.584V17.103h8.82c.227.787 2.497 8.332 2.801 9.362z" fill="#073B4B"/>
            <path d="M40.274 36.307c-6.625.12-6.62 10.024 0 10.132 6.608-.108 6.604-10.012 0-10.132" fill="#FED168"/>
            <path d="M40.32 46.997c-3.805-.037-5.552-2.921-5.569-5.583-.016-2.66 1.682-5.57 5.461-5.666 3.783.042 5.53 2.922 5.547 5.584.017 2.66-1.661 5.57-5.44 5.665zm-.087-10.131c-3.027.083-4.388 2.409-4.371 4.552.016 2.144 1.414 4.445 4.445 4.474 3.014-.074 4.38-2.408 4.363-4.552-.017-2.144-1.41-4.437-4.437-4.474z" fill="#073B4B" fill-rule="nonzero"/>
            <path d="M40.274 39.068c-3.01.053-3.01 4.552 0 4.61 3.01-.054 3.01-4.552 0-4.61" fill="#073B4B"/>
            <path d="M77.04 36.307c-6.617.12-6.613 10.016 0 10.132 6.616-.12 6.616-10.012 0-10.132" fill="#FED168"/>
            <path d="M77.093 46.997c-3.804-.037-5.547-2.921-5.568-5.583-.02-2.66 1.682-5.57 5.465-5.666 3.787.042 5.53 2.922 5.551 5.584.02 2.66-1.665 5.57-5.448 5.665zm-.086-10.131c-3.027.083-4.388 2.409-4.371 4.552.016 2.144 1.414 4.445 4.449 4.474 3.014-.074 4.375-2.408 4.363-4.552-.013-2.144-1.415-4.437-4.441-4.474z" fill="#073B4B" fill-rule="nonzero"/>
            <path d="M77.04 39.068c-3.01.053-3.01 4.552 0 4.61 3.01-.054 3.01-4.552 0-4.61" fill="#073B4B"/>
            <path d="M39.414 58.056c.61 0 1.103.619 1.103 1.382 0 .716-.434 1.304-.99 1.375l-.113.007H10.311c-.61 0-1.103-.619-1.103-1.382 0-.716.434-1.304.99-1.375l.113-.007h29.103zm34.993 0c.609 0 1.102.619 1.102 1.382 0 .716-.433 1.304-.99 1.375l-.112.007H45.303c-.608 0-1.102-.619-1.102-1.382 0-.716.434-1.304.99-1.375l.112-.007h29.104zm34.302 0c.609 0 1.102.619 1.102 1.382 0 .716-.433 1.304-.99 1.375l-.112.007H79.605c-.608 0-1.102-.619-1.102-1.382 0-.716.434-1.304.99-1.375l.112-.007h29.104z" fill="#073B4C" fill-rule="nonzero"/>
        </g>
        <g transform="translate(80.03 84.44)">
            <ellipse stroke="#073B4C" stroke-width="1.986" fill="#72EFD3" cx="22.869" cy="22.844" rx="21.875" ry="21.851"/>
            <path d="M30.879 16.555a1.138 1.138 0 0 1 1.607 0c.4.402.438 1.035.077 1.497l-.078.087-10.993 10.997a1.143 1.143 0 0 1-1.519.079l-.087-.078-6.63-6.615a1.12 1.12 0 0 1-.003-1.584 1.143 1.143 0 0 1 1.52-.08l.087.077 5.827 5.812z" fill="#073B4C"/>
        </g>
        <g transform="translate(5.467 1.045)" fill="#073B4C">
            <ellipse cx="31.054" cy="4.7" rx="2.734" ry="2.731"/>
            <path d="m3.567 21.279 1.595 1.595.063.057c.366.308.896.306 1.22-.019.345-.344.327-.918-.038-1.284l-1.595-1.594-.062-.058c-.366-.309-.897-.305-1.221.02-.344.343-.328.917.038 1.283zm4.16.353-.058.062c-.306.365-.301.895.024 1.221.346.346.92.33 1.284-.033l1.59-1.59.058-.062c.306-.363.301-.895-.026-1.221-.345-.345-.92-.33-1.282.032l-1.59 1.59zm-4.152 4.15-.057.063c-.306.365-.302.895.024 1.221.346.346.92.33 1.284-.033l1.59-1.59.057-.062c.307-.363.302-.894-.025-1.22-.345-.346-.92-.331-1.283.032l-1.59 1.59zm4.16-.335 1.595 1.595.063.058c.366.308.897.306 1.221-.019.344-.344.326-.92-.038-1.284L8.98 24.202l-.063-.058c-.365-.309-.896-.306-1.221.019-.343.343-.326.919.039 1.284zM124.598 3.567l-1.595 1.595-.058.063c-.308.366-.306.896.019 1.22.344.345.919.327 1.284-.038l1.595-1.595.057-.062c.31-.366.306-.897-.019-1.221-.343-.344-.918-.328-1.283.038zm-.353 4.16-.063-.058c-.364-.306-.895-.301-1.22.024-.347.346-.33.92.032 1.284l1.59 1.59.062.058c.364.306.895.301 1.221-.026.346-.345.33-.92-.032-1.282l-1.59-1.59zm-4.152-4.152-.062-.057c-.364-.306-.895-.302-1.22.024-.347.346-.33.92.032 1.284l1.59 1.59.062.057c.364.307.895.302 1.221-.025.346-.345.33-.92-.033-1.283l-1.59-1.59zm.337 4.16-1.596 1.595-.058.063c-.307.366-.305.897.02 1.221.343.344.919.326 1.283-.038l1.596-1.596.058-.063c.308-.365.305-.896-.02-1.221-.343-.343-.918-.326-1.283.039z"/>
            <ellipse cx="94.529" cy="13.403" rx="3.904" ry="3.9"/>
            <path d="M59.435 17.501v2.927l.005.11c.052.62.544 1.103 1.142 1.103.632 0 1.147-.543 1.147-1.213V17.5l-.005-.11c-.054-.618-.545-1.103-1.142-1.103-.634 0-1.147.543-1.147 1.213zm3.506 4.14-.11.005c-.618.052-1.102.543-1.102 1.142 0 .634.543 1.147 1.212 1.147h2.928l.11-.005c.618-.052 1.102-.543 1.102-1.142 0-.634-.544-1.147-1.212-1.147h-2.928zm-7.647 0-.11.005c-.618.052-1.103.543-1.103 1.142 0 .634.545 1.147 1.213 1.147h2.929l.11-.005c.616-.052 1.102-.543 1.102-1.142 0-.634-.543-1.147-1.212-1.147h-2.93zm4.141 3.507v2.926l.005.111c.052.618.544 1.103 1.142 1.103.632 0 1.147-.542 1.147-1.214v-2.926l-.005-.11c-.054-.619-.545-1.103-1.142-1.103-.634 0-1.147.543-1.147 1.213z"/>
        </g>
    </g>
</svg>
