<svg width="29" height="29" viewBox="0 0 29 29" xmlns="http://www.w3.org/2000/svg">
    <path d="M20.542 0c.611 0 1.117.356 1.197.817l.011.129v1.568c3.774.519 6.054 3.09 6.042 7.1V21.79c0 4.511-2.887 7.209-7.527 7.209H8.735c-4.634 0-7.527-2.744-7.527-7.31V9.613c0-4.002 2.283-6.573 6.041-7.097L7.25.946C7.25.423 7.791 0 8.458 0c.612 0 1.118.356 1.198.817l.01.129v1.47h9.667V.946c0-.523.541-.946 1.209-.946zm5.204 12.083H3.252l.001 9.607c0 3.362 1.868 5.217 5.227 5.305l.255.003h11.53c3.531 0 5.482-1.823 5.482-5.207v-9.708zm-5.197 8.459c.663 0 1.201.54 1.201 1.208 0 .612-.452 1.117-1.038 1.197l-.163.011a1.208 1.208 0 0 1-1.216-1.208c0-.612.452-1.117 1.038-1.197l.178-.011zm-6.042 0c.664 0 1.201.54 1.201 1.208 0 .612-.451 1.117-1.038 1.197l-.163.011a1.208 1.208 0 0 1-1.215-1.208c0-.612.451-1.117 1.038-1.197l.177-.011zm-6.041 0c.663 0 1.2.54 1.2 1.208 0 .612-.451 1.117-1.037 1.197l-.178.011c-.663 0-1.201-.54-1.201-1.208 0-.612.452-1.117 1.038-1.197l.178-.011zM20.549 14.5c.663 0 1.201.541 1.201 1.208 0 .612-.452 1.118-1.038 1.198l-.163.01a1.208 1.208 0 0 1-1.216-1.208c0-.611.452-1.117 1.038-1.197l.178-.011zm-6.042 0c.664 0 1.201.541 1.201 1.208 0 .612-.451 1.118-1.038 1.198l-.163.01a1.208 1.208 0 0 1-1.215-1.208c0-.611.451-1.117 1.038-1.197l.177-.011zm-6.041 0c.663 0 1.2.541 1.2 1.208 0 .612-.451 1.118-1.037 1.198l-.178.01c-.663 0-1.201-.54-1.201-1.208 0-.611.452-1.117 1.038-1.197l.178-.011zM19.333 4.418H9.666v.678c0 .522-.54.946-1.208.946-.611 0-1.117-.356-1.197-.818l-.011-.128V4.54c-2.587.46-3.997 2.204-3.997 5.072v.053h22.493V9.61c.01-2.875-1.397-4.617-3.996-5.072v.558c0 .522-.541.946-1.208.946-.612 0-1.118-.356-1.198-.818l-.01-.128v-.678z" fill="#073B4C" fill-rule="evenodd"/>
</svg>
