<svg width="30" height="30" viewBox="0 0 30 30" xmlns="http://www.w3.org/2000/svg">
    <path d="M21.501 0C26.607 0 30 3.644 30 8.874v12.252C30 26.356 26.606 30 21.5 30H8.498C3.392 30 0 26.356 0 21.126V8.874C0 3.649 3.401 0 8.498 0zm0 2.25H8.497c-3.816 0-6.247 2.608-6.247 6.624v12.252c0 4.022 2.422 6.624 6.248 6.624H21.5c3.827 0 6.25-2.602 6.25-6.624V8.874c0-4.022-2.423-6.624-6.249-6.624zm-9.43 8.235.125.108 2.802 2.802 2.799-2.798a1.125 1.125 0 0 1 1.7 1.464l-.109.127-2.8 2.798 2.802 2.803a1.125 1.125 0 0 1-1.465 1.7l-.126-.11-2.802-2.802-2.797 2.799a1.125 1.125 0 0 1-1.7-1.465l.109-.126 2.798-2.799-2.802-2.802a1.125 1.125 0 0 1 1.465-1.7z" fill="#073B4C" fill-rule="evenodd"/>
</svg>
