<svg width="15" height="15" viewBox="0 0 15 15" xmlns="http://www.w3.org/2000/svg">
    <g fill="#5A50F9" fill-rule="evenodd">
        <path d="M10.79 11.42h-.002c-.328 0-.577.267-.581.62v.184c0 .463-.213.687-.649.687h-6.86c-.437 0-.65-.223-.65-.683V4.3c.009-.34.24-.58.561-.583h.1l.17-.001a.602.602 0 0 0 .582-.602.596.596 0 0 0-.55-.633c-.094-.008-.185-.007-.273-.005h-.047a1.662 1.662 0 0 0-1.253.591 1.952 1.952 0 0 0-.462 1.265c.01 1.773.008 3.575.007 5.318v2.698c0 .568.225 1.045.667 1.42.238.201.512.292.773.367l.02.006h7.575l.027-.01a.757.757 0 0 0 .049-.022c.5-.113.888-.408 1.154-.877.22-.387.238-.804.225-1.197-.011-.35-.262-.615-.584-.615"/>
        <path d="M13.561 8.859a.58.58 0 0 1-.19.446.727.727 0 0 1-.497.171h-.003a1101.965 1101.965 0 0 0-4.28-.003H6.368c-.428 0-.684-.227-.684-.609v-6.94c0-.382.256-.61.683-.61h6.517c.42 0 .671.225.672.602V5.4l-.002.984c-.002.81-.004 1.649.007 2.475zm1.314-2.575a1474.364 1474.364 0 0 1-.002-1.942 286.69 286.69 0 0 1 .003-2.429A1.644 1.644 0 0 0 14.31.661a2.136 2.136 0 0 0-1.406-.52h-.019c-1.492.013-3.01.01-4.478.009h-.07C7.66.149 6.958.147 6.268.148c-1.024 0-1.89.774-1.89 1.688v7.112c0 .447.2.87.561 1.192.362.322.837.5 1.34.5h.892l2.073.001c1.478 0 2.663-.002 3.73-.007.264-.001.551-.06.788-.16.726-.309 1.11-.864 1.112-1.608.002-.833.002-1.694.002-2.455v-.127z"/>
    </g>
</svg>
