<svg width="50" height="50" viewBox="0 0 50 50" xmlns="http://www.w3.org/2000/svg">
    <defs>
        <clipPath id="be058u5bna">
            <path d="M360 0v692H0V0h360z"/>
        </clipPath>
        <clipPath id="a8qbyhosib">
            <path d="M40.314 0a1.35 1.35 0 0 1 1.353 1.344 1.35 1.35 0 0 1-1.353 1.344h-5.14v9.106a9.902 9.902 0 0 1-4.458 8.275L23.272 25l7.443 4.93a9.903 9.903 0 0 1 4.458 8.277v9.105h5.14a1.35 1.35 0 0 1 1.354 1.344A1.35 1.35 0 0 1 40.314 50H1.353A1.35 1.35 0 0 1 0 48.656a1.35 1.35 0 0 1 1.353-1.344h5.14v-9.105a9.902 9.902 0 0 1 4.457-8.275L18.395 25l-7.443-4.93a9.903 9.903 0 0 1-4.458-8.277V2.688H1.353A1.35 1.35 0 0 1 0 1.344 1.35 1.35 0 0 1 1.353 0h38.96zm-19.48 26.615L12.45 32.17a7.225 7.225 0 0 0-3.252 6.038v9.105h23.269v-9.105a7.226 7.226 0 0 0-3.254-6.04l-8.38-5.552zm2.038 9.055c.042.035 1.92 1.61 3.794 3.245l.415.363c1.243 1.091 2.423 2.16 2.997 2.769l.049.052c.996 1.065.232 2.796-1.23 2.796H12.77c-1.463 0-2.226-1.731-1.23-2.796l.05-.052c1.496-1.59 7.132-6.315 7.204-6.377 1.174-1 2.905-1 4.078 0zm9.596-32.982H9.199v9.106a7.227 7.227 0 0 0 3.253 6.039l8.381 5.552 8.383-5.553a7.226 7.226 0 0 0 3.252-6.038V2.688z"/>
        </clipPath>
    </defs>
    <g clip-path="url(#be058u5bna)" transform="translate(-155 -231)">
        <g clip-path="url(#a8qbyhosib)" transform="translate(159.167 231)">
            <path fill="#FFF" d="M0 0h41.667v50H0V0z"/>
        </g>
    </g>
</svg>
