<svg width="30" height="30" viewBox="0 0 30 30" xmlns="http://www.w3.org/2000/svg">
    <path d="m27.798 7.174 1.455-1.455a.88.88 0 0 0-.548-1.497l-2.7-.228-.227-2.699a.879.879 0 0 0-1.497-.547l-1.455 1.454A14.92 14.92 0 0 0 15 0C10.993 0 7.226 1.56 4.393 4.393A14.902 14.902 0 0 0 0 15c0 4.007 1.56 7.774 4.393 10.607A14.902 14.902 0 0 0 15 30c4.007 0 7.774-1.56 10.607-4.393A14.902 14.902 0 0 0 30 15c0-2.783-.76-5.473-2.202-7.826zm-3.482-2.292a.88.88 0 0 0 .802.802l1.553.13-2.102 2.103-2.292-.194-.194-2.292 2.102-2.102.131 1.553zM17.988 15A2.992 2.992 0 0 1 15 17.988 2.992 2.992 0 0 1 12.012 15 2.992 2.992 0 0 1 15 12.012c.505 0 .98.126 1.397.348l-2.018 2.019a.879.879 0 1 0 1.242 1.242l2.02-2.018c.221.417.347.892.347 1.397zm-.313-3.918A4.72 4.72 0 0 0 15 10.254 4.751 4.751 0 0 0 10.254 15 4.751 4.751 0 0 0 15 19.746 4.751 4.751 0 0 0 19.746 15a4.72 4.72 0 0 0-.828-2.675l2.51-2.51A8.222 8.222 0 0 1 23.261 15c0 4.555-3.707 8.262-8.262 8.262-4.555 0-8.262-3.707-8.262-8.262 0-4.555 3.707-8.262 8.262-8.262 1.962 0 3.766.688 5.184 1.835l-2.51 2.509zm6.689 13.282A13.155 13.155 0 0 1 15 28.242a13.155 13.155 0 0 1-9.364-3.878A13.155 13.155 0 0 1 1.758 15c0-3.537 1.377-6.863 3.878-9.364A13.155 13.155 0 0 1 15 1.758c2.314 0 4.555.594 6.543 1.727l-.991.991a.879.879 0 0 0-.255.696l.119 1.402A9.959 9.959 0 0 0 15 4.98C9.475 4.98 4.98 9.475 4.98 15c0 5.525 4.495 10.02 10.02 10.02 5.525 0 10.02-4.495 10.02-10.02a9.959 9.959 0 0 0-1.594-5.416l1.402.119.074.003.013-.001.035-.002c.019 0 .038-.002.057-.004l.035-.006a.901.901 0 0 0 .227-.07l.033-.014a.954.954 0 0 0 .05-.028l.029-.018a.98.98 0 0 0 .05-.036l.024-.017a.871.871 0 0 0 .069-.062l.991-.991A13.175 13.175 0 0 1 28.242 15c0 3.537-1.377 6.863-3.878 9.364z" fill="#073B4C" fill-rule="evenodd"/>
</svg>
