<svg width="24" height="24" viewBox="0 0 24 24" xmlns="http://www.w3.org/2000/svg">
    <path d="M14.996.976a.87.87 0 0 1 .118 1.73l-.118.009h-8.45c-2.855 0-4.691 1.884-4.797 4.824l-.005.27v9.369c0 3.017 1.725 4.966 4.542 5.078l.26.005H16.55c2.857 0 4.69-1.877 4.796-4.813l.005-.27v-8.16a.871.871 0 0 1 1.736-.118l.008.118v8.16c0 3.93-2.489 6.691-6.272 6.817L16.55 24H6.545c-3.873 0-6.424-2.655-6.54-6.542L0 17.178v-9.37c0-3.931 2.49-6.7 6.273-6.827l.272-.005h8.451zm2.46 7.918a.868.868 0 0 1 .228 1.112l-.072.107-3.406 4.382a.874.874 0 0 1-1.12.224l-.108-.072L9.7 12.08l-2.943 3.814a.874.874 0 0 1-1.115.23l-.108-.071a.868.868 0 0 1-.23-1.112l.071-.108 3.48-4.51a.874.874 0 0 1 1.122-.225l.108.072 3.28 2.569 2.868-3.69a.874.874 0 0 1 1.224-.155zM20.894 0A3.102 3.102 0 0 1 24 3.098a3.102 3.102 0 0 1-3.107 3.097 3.102 3.102 0 0 1-3.108-3.097A3.102 3.102 0 0 1 20.893 0zm0 1.739a1.36 1.36 0 0 0-1.363 1.359c0 .75.61 1.358 1.363 1.358a1.36 1.36 0 0 0 1.363-1.358c0-.75-.61-1.36-1.363-1.36z" fill="#073B4C" fill-rule="evenodd"/>
</svg>
