<svg width="33" height="32" viewBox="0 0 33 32" xmlns="http://www.w3.org/2000/svg">
    <path d="M15.291 31.992c1.865 0 3.794-.001 5.692-.008 5.286-.02 9.776-3.609 11.176-8.932.13-.495.208-1.008.293-1.55l.122-.759-.006-1.719a1.735 1.735 0 0 1-.064-.33c-.151-1.564-.524-2.91-1.145-4.115-1.136-2.216-2.603-3.903-4.357-5.016-1.751-1.11-3.851-1.69-6.245-1.721a505.275 505.275 0 0 0-8.357-.019l-6.99.01 2.526-2.62a88.87 88.87 0 0 0 1.2-1.248c.631-.67.664-1.601.077-2.214a1.276 1.276 0 0 0-.936-.418h-.003c-.382 0-.76.174-1.07.492-2.01 2.08-4.072 4.223-6.13 6.373-.667.696-.666 1.565.003 2.267a1430.59 1430.59 0 0 0 6.128 6.371c.314.322.692.501 1.066.501h.003c.347 0 .673-.15.942-.43.587-.612.553-1.544-.08-2.218-.309-.327-.63-.66-.939-.98l-.629-.65c-.102-.106-.176-.213-.238-.3l-1.7-1.998 2.703.052c1.187-.002 2.407-.005 3.59-.012h.312c1.282-.009 2.572-.015 3.861-.015 1.71 0 3.419.013 5.116.055 2.767.073 5.278 1.422 6.887 3.705 1.61 2.288 2.092 5.178 1.324 7.933-1.091 3.904-4.536 6.53-8.573 6.532l-11.193.003c-.816.054-1.244.315-1.234 1.597C8.43 31.442 8.96 32 9.745 32c1.538-.005 3.093-.007 4.613-.008h.933z" fill="currentColor" fill-rule="evenodd"/>
</svg>
