<svg width="120" height="120" viewBox="0 0 120 120" xmlns="http://www.w3.org/2000/svg">
    <g fill="none" fill-rule="evenodd">
        <g fill-rule="nonzero">
            <path d="M105.016 45.888v1.544H15.464v-1.544a16.973 16.973 0 0 1 16.984-16.984h55.584a16.973 16.973 0 0 1 16.984 16.984z" fill="#FFF"/>
            <path d="M26.272 72.136 15.464 47.432l42.414-2.192 2.315-.124 44.823 2.316-10.808 24.704H26.272z" fill="#E9F4FC"/>
            <path fill="#802F34" d="m32.786 72.426 5.018-3.965 3.039 2.255 1.255 4.363z"/>
            <path d="M21.44 118.456a3.088 3.088 0 0 1-3.074-2.888L15.68 75.425a3.097 3.097 0 0 1 3.088-3.29h82.944a3.098 3.098 0 0 1 3.088 3.29l-2.686 40.143a3.088 3.088 0 0 1-3.074 2.888h-77.6z" fill="#E9F4FC"/>
            <path d="m52.585 74.13-1.516-8.646-2.563-6.148a47.01 47.01 0 0 1 10.19-1.096c2.023-.005 4.045.12 6.053.37l4.323 15.52H52.585zM48.166 67.164l-.927 4.972h-7.473l-1.651-1.405v-.015l.972-5.235 5.033-1.775 4.03 3.458z" fill="#FFD166"/>
            <path fill="#804537" d="m71.434 59.876.016-.061.17.108z"/>
            <path d="M63.328 81.4a3.088 3.088 0 1 1-6.176 0 3.088 3.088 0 0 1 6.176 0z" fill="#FFF"/>
            <path d="M50.976 72.136v12.352a9.264 9.264 0 0 0 9.264 9.264 9.264 9.264 0 0 0 9.264-9.264V72.136H50.976zm9.264 12.352a3.088 3.088 0 1 1 3.088-3.088 3.097 3.097 0 0 1-3.088 3.088z" fill="#FFD166"/>
            <path d="M53.354 90.664H25.978l-.51-7.612a1.545 1.545 0 0 1 1.545-1.652h23.963v3.088a9.16 9.16 0 0 0 2.378 6.176zM94.502 90.664l-.618 9.264H26.596l-.618-9.264h27.376a9.223 9.223 0 0 0 13.772 0h27.376zM93.884 99.928l-.525 7.828a1.543 1.543 0 0 1-1.544 1.436h-63.15a1.543 1.543 0 0 1-1.544-1.436l-.525-7.828h67.288zM94.502 90.664H67.126a9.16 9.16 0 0 0 2.378-6.176V81.4h23.963a1.543 1.543 0 0 1 1.544 1.652l-.51 7.612z" fill="#FFF"/>
            <path d="M41.712 28.904c-6.47 0-12.152 2.07-15.456 6.176a13.363 13.363 0 0 0-2.794 6.176 16.573 16.573 0 0 0-.278 3.088v3.088h-7.72v-1.544a16.973 16.973 0 0 1 16.984-16.984h9.264zm55.584 18.528v-3.088c.004-1.036-.089-2.07-.278-3.088a13.363 13.363 0 0 0-2.794-6.176c-3.304-4.107-8.986-6.176-15.456-6.176h9.264a16.973 16.973 0 0 1 16.984 16.984v1.544h-7.72z" fill="#E9F4FC"/>
            <path d="M97.296 44.344v3.088H23.184v-3.088c-.004-1.036.089-2.07.278-3.088h73.556c.19 1.019.282 2.052.278 3.088zM97.018 41.256H23.462a13.363 13.363 0 0 1 2.794-6.176h67.968a13.363 13.363 0 0 1 2.794 6.176z" fill="#FFF"/>
            <path fill="#FFD166" d="m90.363 70.994-7.102-4.2-1.93-7.52 1.19.695 5.897 3.49zM78.954 57.87l-7.504 1.945-7.103-4.2 7.52-1.93 5.913 3.49z"/>
            <path fill="#FFD166" d="m83.26 66.794-11.61-6.855-.03-.016-.17-.108 7.504-1.946h.014l2.363 1.405zM71.45 59.815l-.016.061-2.362 12.26H66.54L64.749 58.61l-.402-2.996z"/>
            <path fill="#FFD166" d="m83.26 66.794-6.422 5.342h-7.766l2.362-12.26.185.047.031.016z"/>
            <path fill="#FFD166" d="m90.363 70.994-2.933 1.142H76.838l6.423-5.342zM54.898 64.786l-1.359 7.35h-6.3l.927-4.972z"/>
            <path fill="#FFD166" d="m54.898 64.786-6.732 2.378h-.016l-4.03-3.458 1.297-7.01 3.089 2.64zM45.417 56.696l-1.297 7.01-5.033 1.775-5.42-4.631z"/>
            <path fill="#FFD166" d="m39.087 65.481-.972 5.235-4.015 1.42h-2.517l1.065-5.775 1.02-5.511z"/>
            <path d="M101.715 70.592a4.632 4.632 0 0 1 4.62 4.94l-2.675 40.145A4.641 4.641 0 0 1 99.04 120h-77.6a4.641 4.641 0 0 1-4.62-4.323l-2.676-40.145a4.632 4.632 0 0 1 4.621-4.94h82.95zm-82.95 3.088a1.546 1.546 0 0 0-1.544 1.646l2.676 40.144c.053.812.73 1.443 1.544 1.442h77.598a1.544 1.544 0 0 0 1.544-1.44l2.676-40.144a1.545 1.545 0 0 0-1.544-1.647l-30.667-.001v6.175h22.42a3.087 3.087 0 0 1 3.088 3.296l-1.647 24.704a3.098 3.098 0 0 1-3.088 2.881H28.659a3.098 3.098 0 0 1-3.088-2.883L23.924 83.15a3.087 3.087 0 0 1 3.088-3.294l22.42-.001V73.68H18.765zm73.467 27.792H28.247l.412 6.176h63.162l.41-6.176zm.618-9.265-25.054.002a10.784 10.784 0 0 1-7.556 3.087 10.784 10.784 0 0 1-7.556-3.088l-25.054-.001.412 6.177h64.396l.412-6.177zM67.96 73.68H52.52v10.808c0 1.917.698 3.67 1.855 5.02.094.08.176.173.246.273a7.697 7.697 0 0 0 5.619 2.427 7.7 7.7 0 0 0 5.62-2.427c.07-.1.151-.192.243-.273a7.677 7.677 0 0 0 1.857-5.02V73.68zm25.508 9.264-22.42-.001v1.545a10.778 10.778 0 0 1-1.045 4.632l23.053-.001.412-6.175zm-44.036-.001h-22.42l.412 6.176h23.053a10.778 10.778 0 0 1-1.045-4.63v-1.546zm10.808-6.175a4.632 4.632 0 0 1 1.545 9v1.808a1.544 1.544 0 0 1-3.09 0v-1.808a4.634 4.634 0 0 1 1.545-9zm0 3.088a1.545 1.545 0 1 0 0 3.089 1.545 1.545 0 0 0 0-3.09z" fill="#073B4C"/>
            <path d="M88.032 27.36c10.228.011 18.517 8.3 18.528 18.528v1.544c0 .244-.057.476-.158.681l-10.78 24.639a1.545 1.545 0 0 1-2.851-.053c-.15-.382-.141-.807.023-1.182l9.861-22.542H17.821l9.864 22.544a1.543 1.543 0 1 1-2.829 1.234L14.048 48.05l-.012-.03a1.538 1.538 0 0 1-.116-.588v-1.544c.011-10.228 8.3-18.517 18.528-18.528h55.584zM71.966 52.143l.084.008.053.007.03.005c.184.03.362.096.525.193l5.89 3.48.01.005 1.066.63.068.034.066.037 9.446 5.588c.046.027.09.055.13.086l-.122-.08a1.544 1.544 0 0 1 .71.944l1.935 7.523a1.544 1.544 0 0 1-.43 1.501l-.032.029a1.536 1.536 0 0 1-.47.298l-2.933 1.144a1.545 1.545 0 0 1-1.144-2.87l-3.435-2.029-5.587 4.647a1.544 1.544 0 1 1-1.976-2.374l4.738-3.942-8.038-4.748-1.965 10.169a1.543 1.543 0 0 1-2.78.591 1.544 1.544 0 0 1-2.795-.68L63.373 60.01a47.151 47.151 0 0 0-11.37.264l3.897 3.329c.42.358.618.913.517 1.456l-1.357 7.35a1.544 1.544 0 1 1-3.037-.555l.873-4.726-3.384 1.191-.763 4.103a1.544 1.544 0 0 1-1.793 1.23 1.544 1.544 0 0 1-1.235-1.8l.761-4.087-2.691-2.316-3.35 1.183-.65 3.496.975.827a1.547 1.547 0 0 1-2.007 2.354l-.986-.838-3.164 1.12a1.544 1.544 0 0 1-1.77-.562 1.543 1.543 0 0 1-2.77-1.181l2.058-11.166a1.537 1.537 0 0 1 .307-.765c.18-.241.429-.429.722-.532l11.75-4.154c.52-.184 1.098-.075 1.517.283l2.522 2.152a50.168 50.168 0 0 1 14.01-.795l-.14-1.055-.003-.036a1.543 1.543 0 0 1 1.152-1.655l7.437-1.915a1.55 1.55 0 0 1 .564-.068zm-37.29 11.754-1.266 6.857c.056-.028.114-.053.174-.074l3.166-1.121.592-3.192-2.666-2.47zm31.619-5.333 1.558 11.738 1.874-9.711-3.432-2.027zm17.46 3.941.844 3.29 3.337 1.973-.846-3.293-3.335-1.97zm-37.152-2.77-.452 3.684 2.32 1.995 3.389-1.192-4.262-3.636a1.55 1.55 0 0 1-.192-.164l-.803-.687zm-3.02-.754-7.004 2.47 2.558 2.369 4.029-1.421.417-3.418zm35.131.546-3.279.851 5.405 3.195-.845-3.289-1.281-.757zm-7.076-4.18-3.293.84 3.336 1.972 3.279-.85-3.322-1.962zM28.41 30.986l-.21.058c-6.457 1.85-11.184 7.794-11.192 14.844l4.632-.001v-1.543c0-5.77 2.464-10.4 6.77-13.358zm67.272 11.813H24.798c-.046.497-.07 1.012-.07 1.545v1.544h71.024v-1.544c0-.533-.024-1.048-.07-1.545zM92.07 30.985l.226.16c4.166 2.964 6.543 7.53 6.543 13.2l-.001 1.542h4.633c-.008-7.125-4.837-13.122-11.401-14.902zm1.28 5.436-.102.054c-.201.096-.425.149-.662.149H27.893c-.278 0-.538-.074-.763-.202a11.694 11.694 0 0 0-1.699 3.289H95.05a11.708 11.708 0 0 0-1.698-3.29zm-14.583-5.973H41.712c-4.093 0-8.327.907-11.543 3.087H90.31c-3.216-2.18-7.45-3.087-11.543-3.087z" fill="#073B4C"/>
        </g>
        <path d="M27.983 6.953c.543 0 .99.44 1.038 1.003l.004.1v2.661c0 .61-.467 1.103-1.042 1.103-.543 0-.99-.44-1.037-1.003l-.005-.1v-2.66c0-.61.467-1.104 1.042-1.104zm4.802-2.086c.608 0 1.101.467 1.101 1.043 0 .544-.44.99-1 1.039l-.1.004h-2.66c-.608 0-1.101-.467-1.101-1.043 0-.544.44-.99 1-1.039l.1-.004h2.66zm-6.944 0c.607 0 1.1.467 1.1 1.043 0 .544-.44.99-1 1.039l-.1.004h-2.66c-.608 0-1.101-.467-1.101-1.043 0-.544.44-.99 1-1.039l.1-.004h2.66zM27.983 0c.543 0 .99.44 1.038 1.003l.004.1v2.661c0 .61-.467 1.103-1.042 1.103-.543 0-.99-.44-1.037-1.003l-.005-.1v-2.66c0-.61.467-1.104 1.042-1.104zM2.184 13.727c.256.256.289.645.084.895l-.039.042-1.075 1.075c-.246.247-.666.226-.937-.045-.255-.256-.288-.644-.083-.894l.038-.043 1.075-1.075c.247-.246.666-.226.937.045zm2.994 1.028c.245.245.225.664-.047.936-.257.257-.645.29-.894.085l-.042-.038-1.075-1.075c-.246-.245-.225-.665.047-.936.256-.257.645-.29.894-.086l.042.039 1.075 1.075zM2.23 11.808c.246.246.225.665-.046.937-.257.256-.645.289-.894.085l-.043-.039-1.075-1.074c-.245-.246-.224-.665.047-.937.257-.256.645-.289.894-.085l.043.038 1.074 1.075zm2.903-1.03c.256.255.289.644.084.894l-.039.042-1.075 1.075c-.246.247-.666.226-.937-.045-.256-.256-.288-.644-.084-.894l.039-.043 1.075-1.075c.246-.246.666-.226.937.045z" fill="#FFD166"/>
        <path d="M106.628.002a6.731 6.731 0 0 0-6.727 6.734 6.731 6.731 0 0 0 6.727 6.735 6.731 6.731 0 0 0 6.728-6.734 6.736 6.736 0 0 0-6.728-6.735zm-.136 1.704.135-.002a5.035 5.035 0 0 1 5.027 5.033 5.029 5.029 0 0 1-5.026 5.031 5.029 5.029 0 0 1-5.025-5.032 5.03 5.03 0 0 1 4.889-5.03zM18.292 17.746a5.368 5.368 0 0 0-5.365 5.37 5.368 5.368 0 0 0 5.365 5.371 5.368 5.368 0 0 0 5.365-5.37 5.372 5.372 0 0 0-5.365-5.37zm-.119 1.704.118-.002a3.67 3.67 0 0 1 3.664 3.67 3.666 3.666 0 0 1-3.663 3.667 3.666 3.666 0 0 1-3.663-3.668 3.666 3.666 0 0 1 3.544-3.667z" fill="#FFD166" fill-rule="nonzero"/>
        <path d="M110.914 25.742c.384.383.389 1.01.025 1.442l-.068.074-1.882 1.882c-.43.43-1.11.45-1.516.043-.384-.384-.389-1.01-.025-1.442l.068-.074 1.882-1.882c.43-.431 1.11-.45 1.516-.043zm4.87 1.92c.43.43.45 1.109.042 1.516-.385.385-1.012.39-1.442.027l-.074-.068-1.88-1.88c-.43-.43-.45-1.109-.042-1.516.385-.385 1.012-.39 1.442-.027l.074.068 1.88 1.88zm-4.91-4.91c.43.43.449 1.108.041 1.516-.385.384-1.012.389-1.442.026l-.074-.067-1.88-1.881c-.43-.43-.449-1.108-.041-1.516.384-.385 1.011-.39 1.442-.027l.073.068 1.881 1.88zm4.957-1.927c.384.384.388 1.011.024 1.443l-.068.074-1.881 1.881c-.431.431-1.11.45-1.517.044-.384-.384-.388-1.011-.024-1.443l.068-.074 1.881-1.881c.431-.431 1.11-.45 1.517-.044zM88.794 13.597c.362 0 .66.251.692.573l.002.057v1.52c0 .349-.31.63-.694.63-.362 0-.66-.25-.692-.572l-.003-.058v-1.52c0-.348.312-.63.695-.63zm2.843-1.391c.347 0 .63.311.63.695 0 .363-.252.66-.573.693l-.057.003h-1.52c-.347 0-.629-.312-.629-.696 0-.363.252-.66.572-.692l.057-.003h1.52zm-4.167 0c.347 0 .63.311.63.695 0 .363-.252.66-.572.693l-.058.003h-1.52c-.347 0-.629-.312-.629-.696 0-.363.252-.66.572-.692l.057-.003h1.52zm1.324-2.781c.362 0 .66.251.692.573l.002.057v1.52c0 .349-.31.63-.694.63-.362 0-.66-.25-.692-.572l-.003-.057v-1.52c0-.35.312-.631.695-.631z" fill="#FFD166"/>
    </g>
</svg>
