<svg width="30" height="30" viewBox="0 0 30 30" xmlns="http://www.w3.org/2000/svg">
    <g stroke="currentColor" stroke-width="1.875" fill="none" fill-rule="evenodd">
        <path d="M24 27.5c1.89 0 2.946-.87 3.166-2.614v-.045l1.584-10.547c-.044-1.375-1.1-2.476-2.42-2.476h-6.686c-.396 0-.748-.367-.748-.78v-5.18c0-1.376-.352-2.385-1.012-2.89-.494-.386-1.434-.542-2.149-.568-.303-.012-.565 0-.735.027v4.448c0 4.74-4.958 6.508-5.847 6.79a1.907 1.907 0 0 1-.14.04c-.087.045-.175.045-.263.045v11.143c0 1.375 1.1 2.475 2.42 2.475L24 27.5z"/>
        <rect x="1.25" y="13.75" width="5" height="13.75" rx=".625"/>
    </g>
</svg>
