<svg width="130" height="130" viewBox="0 0 130 130" xmlns="http://www.w3.org/2000/svg">
    <g fill="none" fill-rule="evenodd">
        <circle stroke="#073B4C" stroke-width="1.733" fill="#DFF8F1" cx="65.325" cy="65" r="39.758"/>
        <circle stroke="#073B4C" stroke-width="1.733" fill="#72EFD3" cx="65.325" cy="65" r="24.247"/>
        <circle stroke="#073B4C" stroke-width="1.733" fill="#478B77" cx="65.325" cy="65" r="9.474"/>
        <g fill-rule="nonzero">
            <path d="M91.073 48.742a.908.908 0 0 1 .28 1.516L80.128 60.552a.937.937 0 0 1-.904.204l-4.3-1.306-1.498-.785-.352-1.003-1.413-4.216a.905.905 0 0 1 .188-.895L82.04 41.257a.931.931 0 0 1 1.542.245l1.692 3.863.45 1.236 1.401.552 3.948 1.59z" fill="#FFD166"/>
            <path d="M87.681 46.593 70.916 63.258a3.768 3.768 0 0 1-2.665 1.092 3.67 3.67 0 0 1 1.05-2.653l16.53-16.893a.945.945 0 0 1 1.328-.018l.513.496a.916.916 0 0 1 .01 1.31z" fill="#F2EAE7"/>
            <path d="m71.119 53.366 1.348 4.026-3.589 3.67a4.497 4.497 0 0 0-1.277 3.23.73.73 0 0 0 .732.708h.01a4.613 4.613 0 0 0 3.233-1.33l.916-.911a.719.719 0 0 0-.003-1.025.74.74 0 0 0-1.038.003l-.917.912c-.38.378-.856.65-1.37.79.131-.51.396-.987.77-1.37l16.87-17.254a.218.218 0 0 1 .157-.067c.04-.001.103.01.158.062l.523.507a.213.213 0 0 1 .067.154c0 .042-.01.103-.064.156l-13.95 13.878a.719.719 0 0 0 .003 1.026.74.74 0 0 0 1.038-.004l.479-.477s4.43 1.32 4.595 1.32c.419 0 .83-.154 1.145-.443l11.458-10.514c.423-.387.613-.953.51-1.513a1.656 1.656 0 0 0-1.019-1.238l-3.04-1.224a1.647 1.647 0 0 0-.195-2.157l-.523-.506a1.688 1.688 0 0 0-1.182-.477h-.023c-.36.005-.7.121-.982.33l-1.303-2.977a1.668 1.668 0 0 0-1.275-.98 1.684 1.684 0 0 0-1.52.535L71.458 51.742a1.648 1.648 0 0 0-.34 1.624zm15.217.645-3.595-1.448 2.281-2.27 3.729 1.502-2.415 2.216zm-3.612 3.315-3.387-1.376 2.284-2.272 3.53 1.421-2.427 2.227zm-2.768 2.54a.214.214 0 0 1-.206.046l-3.367-1.023 1.835-1.826 3.321 1.35-1.583 1.452zM91.478 49.16a.202.202 0 0 1-.064.19l-1.477 1.356-3.794-1.528 1.625-1.617 3.582 1.443c.094.037.12.114.128.156zM77.27 47.477l1.512 3.455-2.251 2.303-1.464-3.315 2.203-2.443zm3.268-3.626 1.598 3.651-2.249 2.3-1.54-3.52 2.191-2.43zm2.418-2.681a.207.207 0 0 1 .192-.067c.043.007.12.032.16.123l1.536 3.507-1.603 1.64-1.626-3.715 1.341-1.488zM72.555 52.706l1.437-1.594 1.436 3.252-1.81 1.85-1.106-3.304a.208.208 0 0 1 .043-.204z" fill="#073B4C"/>
        </g>
        <path d="M24.917 12.798v2.58l.004.098c.048.545.48.972 1.008.972.559 0 1.012-.479 1.012-1.07v-2.58l-.004-.097c-.047-.546-.48-.972-1.008-.972-.558 0-1.012.478-1.012 1.069zm3.093 3.65-.097.004c-.545.047-.972.48-.972 1.007 0 .56.479 1.011 1.07 1.011h2.584l.097-.003c.544-.046.971-.48.971-1.008 0-.558-.479-1.011-1.068-1.011H28.01zm-6.746 0-.096.004c-.546.047-.973.48-.973 1.007 0 .56.48 1.011 1.07 1.011h2.583l.097-.003c.545-.046.972-.48.972-1.008 0-.558-.479-1.011-1.07-1.011h-2.583zm3.653 3.092v2.582l.004.097c.048.545.48.973 1.008.973.559 0 1.012-.48 1.012-1.07V19.54l-.004-.097c-.047-.545-.48-.973-1.008-.973-.558 0-1.012.48-1.012 1.07zM7.355 73.244l1.54.888.059.031c.34.162.734.068.903-.226.18-.31.04-.727-.313-.93l-1.539-.89-.059-.03c-.34-.163-.734-.068-.903.225-.18.31-.04.728.312.932zm3.013-.65-.032.06c-.16.34-.067.734.227.903.311.18.727.04.93-.312l.89-1.54.031-.06c.162-.338.068-.733-.226-.902-.311-.18-.728-.04-.931.312l-.89 1.54zm-1.95 3.9-.031.06c-.162.34-.068.734.225.903.312.18.729.04.931-.312l.89-1.54.031-.06c.162-.338.068-.733-.227-.902-.31-.18-.727-.04-.93.312l-.89 1.54zm2.838-1.3 1.538.888.06.031c.34.162.734.068.903-.225.18-.311.04-.729-.313-.932l-1.538-.888-.06-.031c-.34-.162-.734-.068-.903.226-.18.31-.04.728.313.93zM110.366 100.117l-2.63 2.63-.094.102c-.51.604-.505 1.479.03 2.014.566.565 1.514.537 2.116-.065l2.63-2.63.095-.103c.508-.604.503-1.48-.03-2.013-.567-.567-1.514-.538-2.117.065zm-.584 6.856-.103-.095c-.599-.505-1.473-.497-2.012.041-.57.57-.545 1.517.054 2.115l2.62 2.62.102.093c.6.506 1.474.499 2.013-.04.57-.569.544-1.517-.054-2.114l-2.62-2.62zm-6.841-6.841-.102-.094c-.6-.506-1.475-.499-2.013.04-.57.57-.544 1.517.054 2.115l2.62 2.62.104.095c.598.504 1.473.498 2.012-.04.569-.57.544-1.517-.054-2.116l-2.621-2.62zm.553 6.857-2.63 2.629-.094.104c-.509.602-.505 1.478.03 2.012.566.566 1.513.54 2.117-.064l2.63-2.63.093-.102c.509-.605.504-1.48-.03-2.014-.566-.567-1.513-.538-2.116.065z" fill="#073B4C"/>
        <path d="M31.85 115.545c.581 0 1.107.236 1.488.617a2.1 2.1 0 0 1 0 2.976 2.1 2.1 0 0 1-2.976 0 2.098 2.098 0 0 1-.617-1.488c0-.581.236-1.107.617-1.488.38-.381.907-.617 1.488-.617zM110.5 18.695c.581 0 1.107.236 1.488.617a2.1 2.1 0 0 1 0 2.976 2.1 2.1 0 0 1-2.976 0 2.098 2.098 0 0 1-.617-1.488c0-.581.236-1.107.617-1.488.38-.381.907-.617 1.488-.617z" stroke="#073B4C" stroke-width="2.291"/>
    </g>
</svg>
