<svg width="130" height="130" viewBox="0 0 130 130" xmlns="http://www.w3.org/2000/svg" xmlns:xlink="http://www.w3.org/1999/xlink">
    <defs>
        <path d="M0 4.766a4.766 4.766 0 0 0 4.764 4.767 4.765 4.765 0 0 0 4.763-4.766A4.769 4.769 0 0 0 4.763 0 4.765 4.765 0 0 0 0 4.766z" id="pa12guc9la"/>
        <path d="M0 3.064a3.063 3.063 0 1 0 6.125.001A3.063 3.063 0 1 0 0 3.063z" id="fi3urpk9fc"/>
    </defs>
    <g fill="none" fill-rule="evenodd">
        <g transform="translate(2.074 53.334)">
            <rect stroke="#073B4C" stroke-width="2.427" fill="#5A50F9" x="1.213" y="14.22" width="7.973" height="21.623" rx="3.467"/>
            <rect stroke="#073B4C" stroke-width="2.427" fill="#5A50F9" x="116.913" y="14.22" width="7.973" height="21.623" rx="3.467"/>
            <g transform="translate(5.85)">
                <rect fill="#C4C4C4" width="114.452" height="48.994" rx="24.497"/>
                <g fill="#FFF">
                    <path d="M24.205 17.978v-1.05a2.02 2.02 0 0 1 .234-.219c.363-.285.881-.01.881.467v1.058a.133.133 0 0 1-.177.129c-.28-.108-.568-.2-.859-.277a.11.11 0 0 1-.08-.108zm.102 4.18c-.234 0-.42-.2-.42-.443 0-.982.754-1.779 1.686-1.779.931 0 1.684.797 1.684 1.779a.432.432 0 0 1-.42.443c-.233 0-.421-.2-.421-.443 0-.492-.38-.888-.843-.888-.465 0-.845.396-.845.888a.432.432 0 0 1-.42.443zm-7.647-.454a.364.364 0 0 1-.055-.494c1.41-1.859 4.447-2.233 4.577-2.249.185-.022.35.118.371.313a.354.354 0 0 1-.298.393c-.03 0-2.889.352-4.126 1.985a.33.33 0 0 1-.26.13.326.326 0 0 1-.209-.078zm-1.542.37c-.08.323-.12.655-.12.989 0 1.681 1.058 3.263 2.82 4.256l.193 1.577c.092.4.447.67.837.634h.654c.388.037.745-.233.837-.633l.08-.675a9.133 9.133 0 0 0 3.094 0l.084.685c.092.398.449.664.837.623h.652a.784.784 0 0 0 .837-.623l.2-1.593a5.682 5.682 0 0 0 2.384-2.405l.94-.268a.874.874 0 0 0 .616-.853v-2.196c0-.486-.375-.882-.837-.882H28.22a6.068 6.068 0 0 0-2.341-2.03v-2.672a.286.286 0 0 0-.279-.294c-.497 0-.982.157-1.395.448v-.154a.287.287 0 0 0-.279-.294c-1.178-.001-2.198.863-2.452 2.075-2.87.15-5.234 1.596-6.11 3.571-.007-.01-.016-.016-.024-.026a5.562 5.562 0 0 1-.231.716l.009.025z"/>
                    <path d="M14.097 20.825a2.309 2.309 0 0 1-.378-.471.647.647 0 0 1-.011-.694c.091-.163.35-.502.56-.41.24.107.16.505.108.701-.067.261-.15.52-.24.773-.012.034-.027.067-.04.1M13.2 23.19c.39-.479.806-.953 1.103-1.506a4.17 4.17 0 0 0 .68.358c.116.048.247-.032.305-.142a.263.263 0 0 0 .014-.034l.008-.022c.042-.158-.052-.294-.185-.349-.046-.019-.092-.041-.139-.062a3.421 3.421 0 0 1-.451-.253c.03-.078.061-.157.09-.236.118-.326.24-.669.303-1.012.07-.376.03-.784-.246-1.059-.27-.269-.657-.246-.952-.035-.594.425-.859 1.219-.423 1.875.157.236.344.446.552.632-.283.523-.653.977-1.034 1.443-.224.275.15.677.375.402"/>
                </g>
                <path d="m58.678 17.107.164.25.195.292.223.325.162.231.172.24.18.247.187.25.194.253.099.126.2.25.205.247c.72.85 1.483 1.577 2.078 1.715.351.083.937-.089 1.539-.34l.24-.103.12-.055.238-.112.23-.114.223-.114.308-.165.095-.052a.329.329 0 0 1 .485.327l-.008.044-1.8 7.206a.795.795 0 0 1-.702.6l-.067.003H53.199a.827.827 0 0 1-.782-.562l-.02-.068-1.77-7.182a.33.33 0 0 1 .437-.388l.04.019.297.16.216.113.227.115.235.113.24.11c.682.306 1.382.54 1.78.445.53-.125 1.2-.732 1.852-1.476l.206-.24.203-.245.1-.125.198-.252.193-.252.187-.25.179-.247.253-.357.23-.335.325-.485.106-.161c.13-.2.418-.2.547 0zm3.403 8.184h-1.87a.198.198 0 0 0-.197.19c-.063 1.352 1.682 1.97 2.256.064a.198.198 0 0 0-.151-.25l-.038-.004zm-3.313-1.995a.542.542 0 1 0 .002 1.083.542.542 0 0 0-.002-1.083zm3.903 0a.542.542 0 1 0 .002 1.083.542.542 0 0 0-.002-1.083zM99.754 17.988c.037 0 .074.017.093.017h.018l.056.017c0 .017.019.017.019.017l.055.034c0 .017.019.017.019.017l.056.051 2.472 3.571v.017c.02.017.038.034.038.051v.017c.019.034.019.051.019.085v.103c0 .033 0 .05-.02.067v.018a.21.21 0 0 1-.036.05l-7.438 7.466-.074.068h-.019c-.018 0-.018.017-.037.017 0 .011-.008.015-.014.016l-.302.001c0-.011-.008-.015-.013-.016-.024-.001-.024-.018-.042-.018h-.038l-.056-.05-7.437-7.45-.056-.067v-.017c0-.035-.018-.052-.018-.069V21.9c0-.033 0-.05.018-.085v-.017l.038-.05v-.018l2.473-3.571.055-.051.005-.012.014-.005.037-.026a.093.093 0 0 0 .019-.025c0-.011.008-.015.013-.016l.061-.018h.019a.158.158 0 0 1 .06-.016l9.943-.001zm-3.316 4.268h-3.26a.248.248 0 0 0-.232.327l1.63 4.91c.075.225.39.225.464 0l1.63-4.91a.247.247 0 0 0-.232-.327zm-4.558 0h-3.077c-.218 0-.327.269-.172.425l4.608 4.608c.184.184.487-.007.404-.255l-1.53-4.609a.245.245 0 0 0-.233-.169zm8.933 0h-3.077a.245.245 0 0 0-.232.17l-1.532 4.608c-.082.248.221.439.404.255l4.609-4.608c.155-.156.046-.425-.172-.425zm-11.17-2.993-1.333 1.923a.248.248 0 0 0 .2.39h2.666a.248.248 0 0 0 .2-.39l-1.332-1.923a.243.243 0 0 0-.4 0zm9.93.015-1.332 1.907a.248.248 0 0 0 .2.391h2.662a.248.248 0 0 0 .2-.39l-1.33-1.908a.243.243 0 0 0-.4 0zm-4.965-.016-1.592 2.297h3.123a.248.248 0 0 0 .2-.39l-1.33-1.907a.243.243 0 0 0-.4 0zm-.942-.577h-2.662a.248.248 0 0 0-.2.39l1.331 1.909c.098.14.303.14.4 0l1.33-1.908a.248.248 0 0 0-.2-.391zm4.946 0H95.95a.248.248 0 0 0-.2.39l1.331 1.909c.098.14.302.14.4 0l1.33-1.908a.248.248 0 0 0-.2-.391z" fill="#FFF"/>
                <rect stroke="#073B4C" stroke-width="4.333" x="2.167" y="2.167" width="110.118" height="44.66" rx="22.33"/>
                <path fill="#073B4C" d="M36.4 0H39v47.45h-2.6zM75.452 0h2.6v47.45h-2.6z"/>
            </g>
        </g>
        <rect stroke="#073B4C" stroke-width="3.068" fill="#E9F4FC" x="122.143" y="42.398" width="3.432" height="34.838" rx="1.716"/>
        <ellipse stroke="#073B4C" stroke-width="3.068" fill="#FFD166" cx="122.956" cy="43.558" rx="5.51" ry="5.616"/>
        <path d="M21.667 11.498v2.58l.004.098c.048.545.48.972 1.008.972.559 0 1.012-.479 1.012-1.07v-2.58l-.004-.097c-.047-.546-.48-.972-1.008-.972-.558 0-1.012.478-1.012 1.069zm3.093 3.65-.097.004c-.545.047-.972.48-.972 1.007 0 .56.479 1.011 1.07 1.011h2.584l.097-.003c.544-.046.971-.48.971-1.008 0-.558-.479-1.011-1.068-1.011H24.76zm-6.746 0-.096.004c-.546.047-.973.48-.973 1.007 0 .56.48 1.011 1.07 1.011h2.583l.097-.003c.545-.046.972-.48.972-1.008 0-.558-.479-1.011-1.07-1.011h-2.583zm3.653 3.092v2.582l.004.097c.048.545.48.973 1.008.973.559 0 1.012-.48 1.012-1.07V18.24l-.004-.097c-.047-.545-.48-.973-1.008-.973-.558 0-1.012.48-1.012 1.07zM119.466 9.117l-2.63 2.63-.094.102c-.51.604-.505 1.479.03 2.014.566.565 1.514.537 2.116-.065l2.63-2.63.095-.103c.508-.604.503-1.48-.03-2.013-.567-.567-1.514-.538-2.117.065zm-.584 6.856-.103-.095c-.599-.505-1.473-.497-2.012.041-.57.57-.545 1.517.054 2.115l2.62 2.62.102.093c.6.506 1.474.499 2.013-.04.57-.569.544-1.517-.054-2.114l-2.62-2.62zm-6.841-6.841-.102-.094c-.6-.506-1.475-.499-2.013.04-.57.57-.544 1.517.054 2.115l2.62 2.62.104.095c.598.504 1.473.498 2.012-.04.569-.57.544-1.517-.054-2.116l-2.621-2.62zm.553 6.857-2.63 2.629-.094.104c-.509.602-.505 1.478.03 2.012.566.566 1.513.54 2.117-.064l2.63-2.63.093-.102c.509-.605.504-1.48-.03-2.014-.566-.567-1.513-.538-2.116.065z" fill="#073B4C"/>
        <path d="M83.85 116.845c.402 0 .765.163 1.029.426a1.45 1.45 0 0 1-.001 2.057 1.452 1.452 0 0 1-2.057 0 1.45 1.45 0 0 1-.426-1.028c0-.402.163-.765.426-1.029a1.45 1.45 0 0 1 1.029-.426z" stroke="#073B4C" stroke-width="2.291"/>
        <g transform="translate(7.654 111.508)">
            <mask id="0u86e5bb6b" fill="#fff">
                <use xlink:href="#pa12guc9la"/>
            </mask>
            <path fill="#C4C4C4" mask="url(#0u86e5bb6b)" d="M-4.496 14.03h18.518V-4.497H-4.496z"/>
        </g>
        <g transform="translate(50.667 33.416)">
            <mask id="1erqhlp4nd" fill="#fff">
                <use xlink:href="#fi3urpk9fc"/>
            </mask>
            <path fill="#C4C4C4" mask="url(#1erqhlp4nd)" d="M-2.89 9.018H9.012v-11.91H-2.89z"/>
        </g>
        <circle fill="#C4C4C4" cx="115.7" cy="109.85" r="1.95"/>
        <path d="M76.793 34.969c-.143-1.112 1.321-2.326 3.377-2.567 2.057-.241 3.784.598 3.926 1.71.143 1.112-1.32 2.326-3.377 2.567-2.056.241-3.783-.599-3.926-1.71zM83.442 28.654c.834.435 1.134 1.773.579 2.995l-.029.062-.03.06-.034.064-.096-.065c-.783-.515-1.826-.811-2.948-.838l-.161-.002h-.041l.006-.054c.028-.212.08-.425.154-.634l.048-.125.053-.123c.55-1.209 1.684-1.765 2.5-1.34zM78.633 30.029c.226.275.404.576.528.882l.05.132.015.044-.15.034c-.998.237-1.87.684-2.486 1.273l-.1.1-.068.072-.017-.015-.103-.102-.099-.107-.095-.112c-.883-1.078-.962-2.432-.29-3.012.666-.572 1.937-.262 2.815.81z" fill="#FFF" fill-rule="nonzero"/>
        <path d="M74.713 28.496c-1.214 1.046-1.093 3.122.158 4.65.208.254.438.482.684.68a2.499 2.499 0 0 0-.26 1.453c.244 1.895 2.615 3.048 5.23 2.742 2.613-.307 4.623-1.974 4.38-3.869a2.513 2.513 0 0 0-.51-1.217c.129-.19.242-.394.34-.609.794-1.747.336-3.782-1.115-4.538-1.47-.767-3.28.12-4.08 1.88a4.39 4.39 0 0 0-.076.178 4.683 4.683 0 0 0-.283-.383c-1.255-1.534-3.245-2.02-4.468-.967zm1.736 6.648c-.143-1.112 1.32-2.326 3.377-2.567 2.057-.241 3.784.599 3.926 1.71.143 1.112-1.32 2.326-3.377 2.567-2.057.242-3.784-.598-3.926-1.71zm6.649-6.314c.833.434 1.134 1.772.579 2.994l-.03.062-.03.061-.033.064-.097-.066c-.782-.514-1.825-.81-2.947-.838l-.161-.002h-.042l.006-.054c.029-.212.08-.425.155-.634l.048-.124.053-.124c.549-1.209 1.684-1.764 2.499-1.34zm-4.809 1.374c.226.276.404.576.528.883l.05.132.014.043-.15.034c-.997.238-1.868.684-2.485 1.273l-.1.1-.068.072-.017-.015-.103-.102-.099-.106-.096-.112c-.882-1.079-.961-2.433-.288-3.012.665-.573 1.936-.263 2.814.81z" fill="#073B4C" fill-rule="nonzero"/>
        <path d="M113.617 39.24c-4.05-8.517-9.518-9.038-16.402-1.562C86.89 48.89 81.982 51.17 80.074 38.918" stroke="#073B4C" stroke-width="1.56" stroke-linecap="round" stroke-dasharray="3.64"/>
    </g>
</svg>
