<svg width="28" height="28" viewBox="0 0 28 28" xmlns="http://www.w3.org/2000/svg">
    <path d="M21.967.776c.356-.004.839.067 1.349.279.813.337 1.451.948 1.807 1.89l.38 1.041.814 2.335.84 2.47a.822.822 0 0 1-.044.63l-.073.12-.006.265-.02.333-.034.34-.047.344c-.063.416-.15.827-.244 1.178l-.07.252.026 10.338c0 2.393-1.848 4.355-4.164 4.471l-4.158.04c-.752 0-1.336-.215-1.724-.646a1.632 1.632 0 0 1-.43-1.022v-.14l.036-5.977a1.2 1.2 0 0 0-1.063-1.192l-.13-.007h-2.229c-.612 0-1.118.47-1.183 1.073l-.007.132-.036 5.913c0 .946-.733 1.783-1.966 1.86l-.228.007-3.595-.035c-2.34 0-4.259-1.89-4.373-4.251l-.005-.223-.02-9.956a10 10 0 0 1-.164-.672l-.05-.259A7.94 7.94 0 0 1 .96 9.853l.008-.303-.022-.029A.822.822 0 0 1 .8 9.037l.013-.128.033-.125.666-1.893.737-2.05.304-.824.341-.898.073-.186C3.544 1.478 4.477.87 5.435.785l.16-.009h16.372zm-8.12 12.226-.107.165a3.775 3.775 0 0 1-.297.373c-.588.65-1.344 1.03-2.25 1.132l-.25.02-.255.007-.252-.007c-1.014-.055-1.84-.446-2.45-1.162a3.526 3.526 0 0 1-.267-.357l-.088-.142-.116.18a3.78 3.78 0 0 1-.147.199l-.157.185A3.286 3.286 0 0 1 5.1 14.67l-.234.02-.258.008-.236-.006a3.467 3.467 0 0 1-1.23-.286l-.172-.086.021 8.27c0 1.512 1.156 2.751 2.613 2.844l3.8.041c.391 0 .524-.093.549-.204l.005-.041.035-5.914c0-1.497 1.158-2.727 2.615-2.82l.176-.005h2.23c1.48 0 2.695 1.174 2.786 2.652l.006.179-.037 6.014c.005.052.157.12.43.136l.153.003 3.904-.035c1.48 0 2.693-1.18 2.784-2.667l.006-.18-.023-8.415-.163.098c-.37.2-.78.33-1.229.388l-.273.026-.279.008-.242-.007c-.982-.054-1.786-.435-2.381-1.132a3.541 3.541 0 0 1-.282-.377l-.102-.168-.104.16a3.833 3.833 0 0 1-.14.189l-.15.176c-.588.65-1.344 1.03-2.25 1.132l-.25.02-.251.007c-1.132 0-2.047-.393-2.708-1.169a3.53 3.53 0 0 1-.276-.371l-.095-.157zm7.12-3.083V10c.003.162.01.323.023.484.066.83.277 1.55.674 2.012.26.302.594.483 1.02.55l.187.02.206.008.215-.008c.536-.04.954-.234 1.281-.595.358-.393.598-.96.734-1.639a8.6 8.6 0 0 0 .094-.687l.014-.208-4.448-.017zm-6.233-.023-.001.096c.008 1.011.213 1.909.697 2.475.275.321.632.512 1.09.578l.203.022.202.006c.677 0 1.187-.207 1.574-.634.466-.517.737-1.346.833-2.285l.02-.241-4.618-.017zM8.5 9.873v.098c.004 1.02.208 1.925.696 2.496.274.321.632.512 1.091.578l.203.022.197.006.206-.006c.577-.038 1.024-.244 1.372-.628.467-.517.738-1.348.833-2.286l.021-.264-4.62-.016zm-1.614-.007h-4.31l.001.03c0 .352.03.718.082 1.085l.06.367c.114.486.293.886.538 1.17.25.29.57.464.974.527l.178.02.196.008.206-.007c.508-.038.907-.225 1.222-.571.428-.47.682-1.2.798-2.048.023-.168.04-.336.051-.501l.004-.08zM5.62 2.402c-.383 0-.828.28-1.169 1.139l-.161.415-.388 1.035-.508 1.398-.656 1.84.613-.002 3.477.013h18.45l-.74-2.161-.601-1.708-.309-.844c-.287-.76-.897-1.07-1.492-1.118L22 2.403 5.62 2.402z" fill="#073B4C" fill-rule="evenodd"/>
</svg>
