<svg width="130" height="132" viewBox="0 0 130 132" xmlns="http://www.w3.org/2000/svg" xmlns:xlink="http://www.w3.org/1999/xlink">
    <defs>
        <path id="7fwdi3wbfa" d="M0 0h7.719v7.7H0z"/>
        <path id="jrzikch9pc" d="M0 0h8.576v8.556H0z"/>
        <path id="cig0zqb8ne" d="M0 0h12.007v11.978H0z"/>
        <path id="opiiibqg6g" d="M0 0h4.288v4.278H0z"/>
        <path id="c8o0rl367i" d="M0 0h8.576v8.556H0z"/>
    </defs>
    <g fill="none" fill-rule="evenodd">
        <g transform="translate(111.827 4.067)">
            <mask id="kr88315y8b" fill="#fff">
                <use xlink:href="#7fwdi3wbfa"/>
            </mask>
            <path d="M4.156.296a.297.297 0 0 0-.593 0A3.266 3.266 0 0 1 .296 3.554a.297.297 0 1 0 0 .592c1.8 0 3.265 1.462 3.265 3.258a.297.297 0 0 0 .594 0 3.266 3.266 0 0 1 3.266-3.258.297.297 0 1 0 0-.592A3.266 3.266 0 0 1 4.156.296z" fill="#073B4C" mask="url(#kr88315y8b)"/>
        </g>
        <g transform="translate(11.872)">
            <mask id="0sybqqreyd" fill="#fff">
                <use xlink:href="#jrzikch9pc"/>
            </mask>
            <path d="M4.618.33a.33.33 0 0 0-.66 0A3.629 3.629 0 0 1 .33 3.948a.33.33 0 1 0 0 .658c2 0 3.628 1.624 3.628 3.62a.33.33 0 0 0 .66 0 3.629 3.629 0 0 1 3.629-3.62.33.33 0 1 0 0-.658c-2 0-3.629-1.625-3.629-3.62z" fill="#073B4C" mask="url(#0sybqqreyd)"/>
        </g>
        <g transform="translate(0 33.056)">
            <mask id="k9wjojvukf" fill="#fff">
                <use xlink:href="#cig0zqb8ne"/>
            </mask>
            <path d="M6.465.46a.461.461 0 0 0-.923 0c0 2.794-2.28 5.068-5.08 5.068a.461.461 0 1 0 0 .922c2.8 0 5.08 2.274 5.08 5.067a.461.461 0 0 0 .923 0c0-2.793 2.28-5.067 5.08-5.067a.461.461 0 1 0 0-.922c-2.8 0-5.08-2.274-5.08-5.067z" fill="#073B4C" mask="url(#k9wjojvukf)"/>
        </g>
        <path d="M49.034 18.917a4.711 4.711 0 0 1 4.717 4.705 4.715 4.715 0 0 1-4.717 4.706 4.711 4.711 0 0 1-4.717-4.706 4.711 4.711 0 0 1 4.717-4.705zm0 2.268a2.443 2.443 0 0 0-2.449 2.437 2.443 2.443 0 0 0 2.32 2.435l.128.003.13-.004a2.447 2.447 0 0 0 2.317-2.305l.004-.129a2.443 2.443 0 0 0-2.45-2.437z" fill="#073B4C" fill-rule="nonzero"/>
        <g transform="translate(125.585 28.572)">
            <mask id="vvw5hb1jwh" fill="#fff">
                <use xlink:href="#opiiibqg6g"/>
            </mask>
            <path d="M2.309.165a.165.165 0 0 0-.33 0c0 .997-.814 1.81-1.814 1.81a.165.165 0 1 0 0 .328c1 0 1.814.813 1.814 1.81a.165.165 0 0 0 .33 0c0-.997.814-1.81 1.814-1.81a.165.165 0 1 0 0-.329c-1 0-1.814-.812-1.814-1.81zM-4.552-15.235a.165.165 0 0 0-.33 0c0 .997-.814 1.81-1.814 1.81a.165.165 0 1 0 0 .328c1 0 1.814.813 1.814 1.81a.165.165 0 0 0 .33 0c0-.997.814-1.81 1.814-1.81a.165.165 0 1 0 0-.329c-1 0-1.814-.812-1.814-1.81z" fill="#073B4C" mask="url(#vvw5hb1jwh)"/>
        </g>
        <g transform="translate(119.474 51.056)">
            <mask id="txip42bn8j" fill="#fff">
                <use xlink:href="#c8o0rl367i"/>
            </mask>
            <path d="M4.618.33a.33.33 0 0 0-.66 0A3.629 3.629 0 0 1 .33 3.948a.33.33 0 1 0 0 .658c2 0 3.628 1.624 3.628 3.62a.33.33 0 0 0 .66 0 3.629 3.629 0 0 1 3.629-3.62.33.33 0 1 0 0-.658c-2 0-3.629-1.625-3.629-3.62zM-9.104-31.326a.33.33 0 0 0-.66 0 3.629 3.629 0 0 1-3.628 3.62.33.33 0 1 0 0 .657c2 0 3.628 1.625 3.628 3.62a.33.33 0 0 0 .66 0 3.629 3.629 0 0 1 3.628-3.62.33.33 0 1 0 0-.658c-2 0-3.628-1.624-3.628-3.62z" fill="#073B4C" mask="url(#txip42bn8j)"/>
        </g>
        <path d="M38.097 130c-3.697 0-6.694-2.983-6.694-6.662V80.31h70.865c2.301 0 4.167 1.857 4.167 4.147v38.882c0 3.68-2.998 6.662-6.694 6.662H38.097z" fill="#E9F4FC"/>
        <path fill="#FFD166" d="M58.507 106.915V80.309H79.33V130H58.507v-14.285M57.782 43.148c4.238-.08 7.976 2.63 9.089 6.593 1.135 4.042-.576 8.324-4.641 12.036 0 0-4.558 4.3-7.682 4.976l-.665-.134.395-.165-2.446-5.786a1.362 1.362 0 0 0-1.78-.722l-6.444 2.698c.128-2.643.93-5.916.93-5.916 1.175-3.986 2.895-7.218 5.003-9.528 2.34-2.566 5.16-3.993 8.24-4.052zM15.911 60.678c4.174-4.089 11.238-4.044 19.015.074 0 0 2.912 1.718 4.9 3.475l-6.423 2.69a1.333 1.333 0 0 0-.716 1.747l2.452 5.802.358-.15-.368.567c-2.615 1.713-8.681 1.975-8.938 1.985-5.518.297-9.79-1.48-11.9-5.114-2.068-3.562-1.401-8.117 1.62-11.076z"/>
        <path d="M81.218 69.39 17.981 95.864a2.986 2.986 0 0 1-3.904-1.584l-2.793-6.608a2.961 2.961 0 0 1 1.592-3.885l63.237-26.475a2.987 2.987 0 0 1 3.904 1.585l2.793 6.608a2.961 2.961 0 0 1-1.592 3.885" fill="#E9F4FC"/>
        <path fill="#FFD166" d="m37.847 80.95-2.736-6.472 19.195-8.036 5.11 12.088-19.195 8.036-1.469-3.475z"/>
        <path d="m33.403 66.916 16.65-6.97a1.362 1.362 0 0 1 1.78.722l2.445 5.786-19.139 8.012-2.452-5.802a1.333 1.333 0 0 1 .716-1.748" fill="#E9F4FC"/>
        <path d="M105.426 20.236c.003.987-.995 2.056-2.683 3.916-1.805 1.986-1.167 3.627-1.21 6.233-.072 4.4-5.49 1.784-7.718 5.655-1.36 2.364-2.278 4.1-4.605 3.357-2.434-.778-3.065-1.442-4.553-1.442s-2.118.664-4.553 1.442c-2.327.744-3.244-.993-4.604-3.357-2.228-3.871-7.646-1.255-7.719-5.655-.042-2.606.595-4.247-1.209-6.233-1.688-1.86-2.687-2.929-2.684-3.915-.003-.986.996-2.056 2.684-3.915 1.804-1.987.914-3.628.956-6.234.072-4.4 5.744-1.783 7.972-5.655 1.36-2.364 2.277-4.1 4.604-3.357 2.435.778 3.065 1.442 4.553 1.443 1.488-.001 2.119-.665 4.553-1.443 2.327-.744 3.245.993 4.605 3.357 2.228 3.872 7.646 1.255 7.718 5.655.043 2.606-.595 4.247 1.21 6.234 1.688 1.86 2.686 2.929 2.683 3.914z" fill="#FFD166" fill-rule="nonzero"/>
        <path d="M84.657 8.128c-6.803 0-12.34 5.556-12.34 12.385 0 6.83 5.537 12.386 12.34 12.386 6.804 0 12.34-5.557 12.34-12.386 0-6.83-5.536-12.385-12.34-12.385z" fill="#FFF" fill-rule="nonzero"/>
        <path d="M84.657 8.128c-6.803 0-12.34 5.556-12.34 12.385 0 6.83 5.537 12.386 12.34 12.386 6.804 0 12.34-5.557 12.34-12.386 0-6.83-5.536-12.385-12.34-12.385z" fill="#FFF" fill-rule="nonzero"/>
        <path d="M92.348.952c.576.514 1.064 1.192 1.691 2.267l.284.495.267.472c.559.982 1.235 1.4 2.773 1.803l.331.084.786.184.325.08.296.078.27.078c.649.196 1.09.403 1.546.729.972.695 1.502 1.75 1.526 3.265l.002.134v.264l-.003.268-.007.285-.018.483-.022.49-.013.344c-.05 1.65.109 2.249.872 3.126l.945 1.06.31.355.278.323.322.386.141.176.13.166.117.157.107.149.097.142.045.068.083.133.074.129.033.063.062.123.055.122.025.06.045.12c.008.02.014.04.02.06l.038.12.032.123.028.125.025.128.022.133.01.069a2.877 2.877 0 0 1-.06 1.07l-.034.132-.037.127-.041.126-.046.123-.05.123-.057.124-.062.125-.07.128a4.566 4.566 0 0 1-.038.065l-.082.133-.09.14-.101.144-.11.152-.122.16-.133.17-.145.18-.159.192-.358.42-.308.354-.863.97c-.804.896-.99 1.47-.954 3.051l.01.33.045 1.092.01.353.003.326-.003.329c-.04 2.485-1.238 3.54-3.677 4.161l-.157.04-.775.179c-1.759.41-2.577.817-3.182 1.815l-.508.894-.22.376c-.57.958-1.032 1.584-1.576 2.07-1.061.947-2.317 1.191-3.784.716l-.184-.06-.343-.116-.163-.058-.322-.119-.325-.126-.345-.14-1.088-.46-.217-.085-.122-.045-.163-.054-.155-.043a2.853 2.853 0 0 0-.736-.09c-.269 0-.499.028-.737.09l-.104.028-.104.032-.11.037-.122.045-.217.086-.5.21-.4.17-.36.149-.333.133-.322.122-.326.117c-.166.058-.34.116-.528.177-1.477.478-2.664.247-3.686-.632a5.774 5.774 0 0 1-.816-.865l-.145-.194a9.244 9.244 0 0 1-.074-.102l-.15-.218-.155-.236-.16-.256-.17-.278-.177-.301-.189-.327-.305-.541c-.558-.982-1.234-1.4-2.772-1.803l-.331-.084-.719-.167c-2.72-.636-3.989-1.632-4.031-4.247l-.003-.221.002-.324.004-.223.012-.37.04-.93.01-.297.007-.27.001-.244v-.114l-.006-.212a6.128 6.128 0 0 0-.005-.1l-.014-.185a2.904 2.904 0 0 0-.224-.908l-.064-.142a3.953 3.953 0 0 0-.649-.942l-.75-.841-.418-.475-.273-.317-.164-.194-.222-.269-.132-.166-.12-.156-.11-.148a7.586 7.586 0 0 1-.05-.07l-.094-.138-.085-.13-.077-.127-.068-.122-.032-.06-.058-.119-.052-.117-.046-.118-.042-.118-.038-.12-.035-.123-.031-.127-.03-.132a2.82 2.82 0 0 1 .007-1.228l.033-.134.035-.13.02-.064.04-.127.023-.062.05-.125.055-.125.062-.127.069-.13.077-.133.042-.068.09-.14.1-.147.112-.154.122-.162.134-.172.225-.277.167-.2.377-.44.212-.243.603-.68.272-.304c.267-.297.455-.577.582-.859l.03-.068.054-.136c.108-.294.154-.588.153-1.02l-.003-.211-.01-.233-.016-.259-.022-.287-.084-.992-.02-.285-.015-.263-.01-.25-.004-.244v-.247l.001-.128c.036-2.218.979-3.27 2.971-3.925l.279-.087c.19-.056.388-.11.596-.16l.317-.076.663-.148.172-.041.325-.08.302-.082.279-.082c1.116-.347 1.681-.75 2.147-1.525l.504-.887c.675-1.174 1.183-1.897 1.794-2.442 1.068-.953 2.326-1.188 3.784-.716.136.044.265.087.389.13l.36.126c.117.042.233.085.35.13l.358.142.384.158.93.393.216.086.178.064.106.034.155.043c.239.062.469.09.737.09s.496-.028.734-.089l.104-.028.158-.05.115-.04.13-.05.235-.095.845-.358.196-.081.369-.15.352-.135c.117-.043.233-.086.353-.128l.373-.127.198-.065c1.46-.472 2.717-.237 3.785.716zM89.313 2.59l-.323.107-.298.104-.29.107-.295.115-.315.128-.349.147-.655.277-.202.082-.244.092a5.404 5.404 0 0 1-1.941.356 5.407 5.407 0 0 1-1.944-.356l-.243-.092-.362-.149-.674-.286-.33-.137-.303-.12c-.049-.02-.097-.039-.146-.057l-.29-.107-.146-.052-.31-.105a25.997 25.997 0 0 0-.164-.054c-.844-.273-1.337-.042-1.956.848l-.101.15-.166.266-.568.952-.36.609c-.789 1.389-1.936 2.209-3.504 2.723l-.196.063-.192.058-.3.082-.22.055-.52.122-.597.133-.384.092-.23.06-.212.059-.099.03-.184.059-.166.06-.15.064c-.474.213-.686.47-.774.88l-.022.127c-.01.066-.017.136-.022.21l-.007.154-.002.081-.002.222.003.217.007.222.013.236.017.258.057.673.024.278c.189 2.197-.041 3.434-1.273 4.864l-.88.977-.231.26-.21.243-.197.232-.178.22-.083.104-.152.198-.133.184c-.042.06-.08.116-.115.17l-.097.155c-.13.222-.197.392-.197.507 0 .152.094.37.298.675l.101.147.118.16.133.173.15.188.166.201.28.331.32.366.36.403.432.479c1.293 1.442 1.623 2.572 1.586 4.733l-.01.38-.043 1.024-.01.347-.003.208v.202l.001.205.005.167.004.078.012.148c.066.617.3.919 1.031 1.182l.178.06.096.03.205.06.11.03.236.061.257.063.279.065c2.666.61 3.98 1.25 5.032 3.023l.869 1.466.249.406.137.214c.631.923 1.117 1.164 1.98.885l.321-.106.151-.052.292-.105.29-.11.303-.12.51-.214.365-.156.323-.133c.973-.395 1.51-.519 2.357-.519.696 0 1.28.115 1.943.356l.183.069.264.106 1.005.424.16.067.303.12.29.11.291.105.151.052.322.107.132.04.126.032c.554.128.944.006 1.448-.604l.114-.143c.04-.05.079-.104.119-.16l.123-.178.13-.195.067-.105.139-.223.223-.37.242-.417.287-.503c1.02-1.795 2.256-2.476 4.727-3.077l.8-.189.361-.092.215-.06c.069-.02.134-.04.196-.06l.178-.06c.702-.253.946-.542 1.022-1.112l.015-.142.01-.154.005-.167.002-.29-.005-.392-.016-.464-.041-.94-.01-.286-.005-.258v-.233l.003-.216.004-.103.011-.2.017-.199.022-.202c.138-1.162.563-2.172 1.403-3.16l.248-.28.649-.718.338-.383.206-.24.188-.225.17-.213.078-.101.143-.192.125-.178c.23-.34.35-.593.35-.747l-.003-.056a.59.59 0 0 0-.004-.03l-.013-.061a.786.786 0 0 0-.009-.033l-.023-.068-.03-.073a1.51 1.51 0 0 0-.02-.039l-.043-.082-.052-.09-.062-.096-.071-.104-.127-.174-.15-.195-.243-.298-.293-.346-.54-.62-.553-.62-.122-.136c-.934-1.042-1.397-2.099-1.542-3.327l-.021-.201a7.741 7.741 0 0 1-.009-.099l-.013-.198-.009-.203-.003-.214v-.233l.006-.256.015-.443.035-.78.016-.465.005-.296v-.19l-.002-.195-.005-.167-.01-.154-.015-.142c-.076-.57-.32-.859-1.022-1.112l-.178-.06a6.737 6.737 0 0 0-.095-.03l-.206-.06-.11-.03-.235-.061-.257-.063-.736-.171-.377-.093-.22-.058-.202-.057-.195-.059-.193-.063a11.952 11.952 0 0 1-.099-.034c-1.432-.495-2.509-1.269-3.28-2.538l-.627-1.063-.39-.648-.173-.279-.062-.093c-.636-.938-1.125-1.183-1.992-.903zm-4.656 4.563c7.343 0 13.315 5.993 13.315 13.36 0 7.367-5.972 13.36-13.315 13.36-7.343 0-13.314-5.993-13.314-13.36 0-7.367 5.971-13.36 13.314-13.36zm0 1.95c-6.264 0-11.364 5.119-11.364 11.41s5.1 11.41 11.364 11.41c6.265 0 11.365-5.119 11.365-11.41s-5.1-11.41-11.365-11.41zm3.085 12.184a2.32 2.32 0 0 1 2.314 2.323 2.32 2.32 0 0 1-2.314 2.322 2.32 2.32 0 0 1-2.314-2.322 2.32 2.32 0 0 1 2.314-2.323zM87.1 15.44a.769.769 0 0 1 1.07-.215c.354.238.45.718.214 1.074l-6.17 9.29a.77.77 0 0 1-1.07.214.776.776 0 0 1-.213-1.074zm.642 7.396a.773.773 0 0 0 0 1.549.774.774 0 0 0 0-1.549zm-6.17-7.74a2.32 2.32 0 0 1 2.314 2.322 2.32 2.32 0 0 1-2.314 2.322 2.32 2.32 0 0 1-2.313-2.322 2.32 2.32 0 0 1 2.313-2.323zm0 1.548a.773.773 0 0 0 0 1.548.774.774 0 0 0 0-1.548zM95.626 45.59a1.154 1.154 0 1 0-1.884 1.333c.072.102.213.311.408.617.329.517.683 1.111 1.048 1.772 1.043 1.888 1.957 3.923 2.626 6.021.634 1.985 1.014 3.925 1.094 5.781.205 4.781-1.616 9.286-5.516 13.562a1.154 1.154 0 0 0 1.705 1.555c4.292-4.706 6.349-9.794 6.116-15.216-.089-2.076-.508-4.214-1.2-6.383-.72-2.255-1.694-4.424-2.805-6.436a35.515 35.515 0 0 0-1.122-1.895 19.11 19.11 0 0 0-.47-.71z" fill="#073B4C" fill-rule="nonzero"/>
        <path d="M60.473 41.877c4.701.695 8.325 4.405 8.8 9.032.359 3.494-1.04 6.83-3.904 9.651l10.298-4.312a4.14 4.14 0 0 1 5.413 2.2l2.792 6.607a4.115 4.115 0 0 1-2.208 5.399l-20.784 8.7h18.459l22.93.001c2.936 0 5.32 2.372 5.32 5.3v38.883c0 4.318-3.516 7.816-7.848 7.816H38.097c-4.333 0-7.848-3.498-7.848-7.816v-31.36l-11.822 4.95a4.14 4.14 0 0 1-5.413-2.199l-2.793-6.608a4.115 4.115 0 0 1 2.21-5.398l11.253-4.711c-4.726-.305-8.403-2.255-10.391-5.679-2.335-4.022-1.584-9.154 1.81-12.48 4.586-4.49 12.176-4.456 20.41-.095l.304.184c.236.144.498.308.78.49a42.29 42.29 0 0 1 2.373 1.629c.378.28.734.558 1.065.83l1.649-.692a1.154 1.154 0 0 1-.05-.34c0-.57.085-1.227.24-1.969.142-.674.342-1.411.589-2.199a44.431 44.431 0 0 1 1.443-3.895c4.098-8.368 10.218-12.857 16.567-11.919zm-3.12 39.585h-1.956l-14.73 6.168c-.05.021-.1.038-.15.051l-7.961 3.331v32.326c0 3.041 2.48 5.508 5.541 5.508h19.256V81.461zm20.824 0H59.66v47.384h18.516V81.463zm24.091.001H80.484v47.382l19.257.001c3.06 0 5.54-2.467 5.54-5.508V84.456a3.003 3.003 0 0 0-3.013-2.993zm-70.79-4.077-.595.113-17.562 7.353a1.807 1.807 0 0 0-.974 2.37l2.793 6.609a1.832 1.832 0 0 0 2.395.969l21.168-8.863-1.013-2.397-.905-2.14-2.102-4.974c-.89.393-1.967.707-3.206.96zM53.69 67.95l-5.298 2.218-11.767 4.927 2.285 5.406.905 2.14 1.017 2.405 17.064-7.145-4.206-9.95zm22.868-9.573-20.74 8.682 4.208 9.951 20.747-8.685a1.807 1.807 0 0 0 .974-2.371l-2.793-6.608a1.833 1.833 0 0 0-2.396-.97zm-59.84 3.125c-2.648 2.594-3.23 6.571-1.43 9.672 1.852 3.19 5.676 4.82 10.851 4.541a35.435 35.435 0 0 0 1.519-.108 33.72 33.72 0 0 0 2.57-.334l3.399-1.425-2.003-4.734a2.492 2.492 0 0 1-.16-.547l.07.022a47.638 47.638 0 0 0-.99-.311l-.267-.08-.047-.015c-2.453-.575-4.784-.867-6.942-.876a1.154 1.154 0 0 1 .01-2.308c2.338.01 4.841.324 7.51.95a49.589 49.589 0 0 1 1.367.42c.219-.213.482-.391.782-.517l4.634-1.94-.54-.392a42.24 42.24 0 0 0-2.438-1.61c-.133-.08-.226-.136-.227-.138-7.39-3.914-13.917-3.943-17.667-.27zm33.78-.492-16.65 6.97a.179.179 0 0 0-.099.235l2.005 4.742 17.01-7.12-1.995-4.72a.208.208 0 0 0-.271-.107zM46 54.763l-.102.245c-.1.241-.21.514-.326.81a40.036 40.036 0 0 0-.908 2.564 21.506 21.506 0 0 0-.532 1.982c-.066.318-.116.61-.148.873l5.622-2.355c.314-.132.64-.195.962-.196a48.928 48.928 0 0 1 1.154-2.294c1.39-2.291 2.915-4.292 4.543-5.964a1.154 1.154 0 1 1 1.653 1.611c-1.502 1.542-2.921 3.403-4.196 5.503l-.016.03-.047.087a33.112 33.112 0 0 0-.415.803c-.209.413-.417.84-.621 1.274.106.148.197.309.27.483l1.74 4.12c.587-.181 1.24-.435 1.943-.754a31.607 31.607 0 0 0 3-1.584 35.435 35.435 0 0 0 1.291-.805c4.35-2.816 6.486-6.383 6.11-10.051-.367-3.567-3.176-6.443-6.843-6.985-5.193-.767-10.456 3.093-14.134 10.603z" fill="#073B4C" fill-rule="nonzero"/>
    </g>
</svg>
