<svg width="130" height="131" viewBox="0 0 130 131" xmlns="http://www.w3.org/2000/svg">
    <g fill="none" fill-rule="evenodd">
        <g fill-rule="nonzero">
            <path d="M107.08 32.352H16.417c-3.576 0-6.488 2.85-6.6 6.408l-.004.215V82.77c0 3.586 2.842 6.507 6.39 6.62l.214.003h90.663c3.576 0 6.488-2.85 6.6-6.408l.004-.215V38.975c0-3.586-2.842-6.507-6.39-6.62l-.214-.003z" fill="#E9F4FC"/>
            <path d="M107.08 30.333c4.76 0 8.617 3.87 8.617 8.642V82.77c0 4.773-3.858 8.642-8.617 8.642H16.417c-4.76 0-8.617-3.87-8.617-8.642V38.975c0-4.773 3.858-8.642 8.617-8.642h90.663zm0 2.019H16.417c-3.576 0-6.488 2.85-6.6 6.408l-.004.215V82.77c0 3.586 2.842 6.507 6.39 6.62l.214.003h90.663c3.576 0 6.488-2.85 6.6-6.408l.004-.215V38.975c0-3.586-2.842-6.507-6.39-6.62l-.214-.003z" fill="#073B4C"/>
        </g>
        <g transform="translate(16.036 38.587)">
            <path d="M99.28 2.019H8.617c-3.576 0-6.488 2.85-6.6 6.408l-.004.214v43.797c0 3.586 2.842 6.506 6.39 6.62l.214.003H99.28c3.576 0 6.488-2.85 6.6-6.409l.004-.214V8.641c0-3.586-2.842-6.506-6.39-6.619l-.214-.003z" fill="#FFF" fill-rule="nonzero"/>
            <path d="M99.28 0c4.76 0 8.617 3.869 8.617 8.641v43.797c0 4.773-3.858 8.641-8.617 8.641H8.617C3.857 61.08 0 57.211 0 52.438V8.641C0 3.87 3.858 0 8.617 0H99.28zm0 2.019H8.617c-3.576 0-6.488 2.85-6.6 6.408l-.004.214v43.797c0 3.586 2.842 6.506 6.39 6.62l.214.003H99.28c3.576 0 6.488-2.85 6.6-6.409l.004-.214V8.641c0-3.586-2.842-6.506-6.39-6.619l-.214-.003z" fill="#073B4C" fill-rule="nonzero"/>
            <ellipse fill="#FFD166" cx="54.36" cy="31.365" rx="18.12" ry="18.159"/>
            <path d="m54.628 22.286.09.005c.481.046.88.41.989.9l.019.107.011.196-.002 1.5 1.956.001.104.005c.482.046.88.41.99.9l.018.107.012.196-.005.103c-.046.476-.398.89-.864 1.002l-.102.02-.192.011h-4.47l-.11.003c-.794.061-1.41.778-1.41 1.63 0 .739.463 1.385 1.12 1.578l.119.03.223.025 2.414.002.159.004c2 .088 3.604 1.833 3.605 3.974 0 1.844-1.193 3.43-2.86 3.862l-.162.038-.545.085.001 1.53-.005.11-.014.106a1.153 1.153 0 0 1-.849.925l-.101.02-.152.009-.194-.014-.095-.019c-.378-.095-.7-.428-.801-.854l-.021-.108-.014-.216V38.56l-2.462.002-.104-.005a1.14 1.14 0 0 1-.988-.9l-.02-.107-.01-.196.004-.103c.046-.475.399-.89.864-1.002l.102-.02.192-.011 4.47.001.11-.004c.794-.06 1.409-.778 1.409-1.63 0-.739-.462-1.384-1.12-1.577l-.118-.03-.223-.025-2.414-.002-.159-.004c-2-.088-3.605-1.833-3.605-3.974 0-2.023 1.439-3.709 3.305-3.949l.165-.017.601-.025.002-1.523.005-.11c.045-.505.398-.921.863-1.034l.102-.019.167-.01z" fill="#073B4C" fill-rule="nonzero"/>
            <path d="M54.36 13.206c10.008 0 18.12 8.13 18.12 18.16 0 10.028-8.112 18.158-18.12 18.158-10.007 0-18.12-8.13-18.12-18.159 0-10.029 8.113-18.159 18.12-18.159zm0 1.899c-8.96 0-16.225 7.28-16.225 16.26s7.264 16.26 16.225 16.26c8.962 0 16.226-7.28 16.226-16.26s-7.264-16.26-16.226-16.26z" fill="#073B4C" fill-rule="nonzero"/>
        </g>
        <g transform="translate(71.964 84.44)">
            <ellipse fill="#FFD166" cx="22.869" cy="22.844" rx="22.869" ry="22.844"/>
            <ellipse stroke="#073B4C" stroke-width="1.733" cx="22.869" cy="22.844" rx="22.869" ry="22.844"/>
            <path d="m25.228 14.331.09.168 7.284 14.02c.12.317.188.656.206 1.007.077 1.643-1.028 3.052-2.531 3.235l-.175.015H15.689l-.031-.003-.083.002a2.639 2.639 0 0 1-.69-.137l-.223-.086c-1.386-.62-2.08-2.316-1.568-3.941l.064-.188 7.237-13.914c.257-.51.64-.93 1.1-1.209 1.31-.796 2.944-.327 3.733 1.031zm-3.01.405a1.358 1.358 0 0 0-.44.433l-.081.143-7.2 13.827c-.274.743.052 1.59.726 1.893.092.04.187.07.286.087l.15.018h14.404c.73-.042 1.291-.725 1.254-1.523a2.288 2.288 0 0 0-.031-.27l-.022-.107-7.247-13.935c-.354-.702-1.158-.956-1.8-.566zm.641 12.373c.412 0 .747.332.747.747v.01a.75.75 0 0 1-.747.753.75.75 0 0 1-.746-.752c0-.415.334-.758.746-.758zm-.01-7.576c.378 0 .69.356.74.817l.006.128v3.904c0 .522-.334.945-.746.945-.378 0-.69-.355-.74-.816l-.006-.129v-3.904c0-.522.334-.945.746-.945z" fill="#073B4C"/>
        </g>
    </g>
</svg>
