<svg width="24" height="24" viewBox="0 0 24 24" xmlns="http://www.w3.org/2000/svg">
    <path d="m12.401 3.23.253.384.3.449.343.5.25.356.263.37.277.379.289.385.297.389.152.194.31.385.314.378c1.107 1.309 2.282 2.427 3.197 2.64.54.127 1.442-.137 2.367-.523l.37-.16.185-.083.365-.173.356-.176.34-.175.475-.253.146-.08a.506.506 0 0 1 .746.503l-.012.067-2.768 11.086c-.128.511-.565.88-1.08.924L20.03 21H3.972c-.548 0-1.03-.352-1.204-.865l-.03-.105L.016 8.981c-.1-.407.3-.745.672-.597l.061.03.457.247.333.173.349.176.361.175.368.17c1.05.469 2.128.829 2.74.684.814-.193 1.845-1.126 2.85-2.272l.315-.368.313-.378.155-.192.304-.387.296-.388.288-.386.276-.38.39-.549.354-.514.5-.746.162-.249a.5.5 0 0 1 .841 0zm5.235 12.59h-2.875a.305.305 0 0 0-.304.292c-.097 2.08 2.588 3.032 3.47.098a.305.305 0 0 0-.232-.385l-.059-.005zm-5.096-3.07a.833.833 0 0 0-.832.835c0 .46.373.834.832.834a.833.833 0 0 0 0-1.669zm6.004 0a.833.833 0 0 0-.832.835c0 .46.373.834.832.834a.833.833 0 0 0 0-1.669z" fill="#48464D" fill-rule="evenodd"/>
</svg>
