<svg width="131" height="133" viewBox="0 0 131 133" xmlns="http://www.w3.org/2000/svg">
    <g fill="none" fill-rule="evenodd">
        <g fill-rule="nonzero">
            <path d="m84.947 13.44 26.283 24.957-.122 85.553c-.007 4.4-3.586 7.972-7.996 7.978l-74.847.107c-4.409.007-7.978-3.555-7.972-7.955L20.44 21.5c.007-4.4 3.586-7.973 7.995-7.98l56.512-.08z" fill="#FFF"/>
            <path d="m88.257 52.774-48.9.07c-3.505.005-6.365 2.783-6.492 6.25l-.005.233-.06 41.828a6.457 6.457 0 0 0 6.245 6.46l.233.005 48.9-.07c3.505-.005 6.364-2.783 6.492-6.25l.004-.233.06-41.829a6.457 6.457 0 0 0-6.245-6.46l-.232-.004z" fill="#E9F4FC"/>
            <path d="m84.947 13.44 26.283.08v24.877l-.122 85.553c-.007 4.4-3.586 7.972-7.996 7.978l-74.847.109c-4.409.005-7.978-3.557-7.972-7.957L20.44 21.5c.007-4.4 3.586-7.973 7.995-7.98l56.512-.08zm-1.002 2.491-55.513.08a5.503 5.503 0 0 0-5.492 5.265l-.005.22-.147 102.58a5.464 5.464 0 0 0 5.26 5.466l.221.004 74.847-.107a5.503 5.503 0 0 0 5.492-5.266l.005-.22.12-84.484V16.011l-24.788-.08zm4.315 34.353c4.96-.007 8.976 4 8.969 8.95l-.06 41.83c-.007 4.95-4.034 8.968-8.995 8.976l-48.9.07c-4.96.007-8.975-4-8.968-8.951l.06-41.829c.007-4.95 4.034-8.969 8.994-8.976l48.9-.07zm-29.693 2.533-19.21.027c-3.505.005-6.365 2.783-6.492 6.25l-.005.233-.06 41.828a6.457 6.457 0 0 0 6.245 6.46l.233.005 19.21-.028.08-54.775zm17.964-.026-15.469.022-.078 54.776 15.468-.022.079-54.776zm11.726-.017-9.232.013-.078 54.776 9.231-.013c3.505-.005 6.364-2.783 6.492-6.25l.004-.233.06-41.829a6.457 6.457 0 0 0-6.245-6.46l-.232-.004zM63.83 35.63a1.242 1.242 0 0 1 1.246 1.244 1.25 1.25 0 0 1-1.122 1.24l-.127.006-32.933.047a1.242 1.242 0 0 1-1.246-1.243 1.25 1.25 0 0 1 1.122-1.24l.127-.006 32.933-.048zM50.87 27.681a1.242 1.242 0 0 1 1.246 1.243 1.25 1.25 0 0 1-1.122 1.24l-.127.006-19.96.029a1.242 1.242 0 0 1-1.245-1.243 1.25 1.25 0 0 1 1.121-1.24l.128-.007 19.96-.028z" fill="#073B4C"/>
        </g>
        <ellipse cx="28.238" cy="28.42" rx="26.693" ry="26.875" fill="#FFF" stroke="#073B4C" stroke-width="3.091" transform="translate(69.377 .44)"/>
        <path d="m101.49 30.012-1.913-1.14 1.751-1.043a.993.993 0 0 0 .347-1.335.93.93 0 0 0-1.294-.356l-1.59.947v-1.893c0-.54-.423-.976-.947-.976-.523 0-.947.437-.947.976v2.087l-1.913-1.138a.93.93 0 0 0-1.293.356.997.997 0 0 0 .346 1.336l1.752 1.04-1.913 1.14a.995.995 0 0 0-.346 1.336.945.945 0 0 0 .82.488c.16 0 .324-.043.472-.133l2.075-1.234v2.473c0 .54.424.976.947.976.524 0 .947-.437.947-.976v-2.282l1.753 1.043c.15.09.312.133.472.133a.941.941 0 0 0 .821-.488.996.996 0 0 0-.346-1.337M114.333 30.012l-1.914-1.14 1.75-1.043a.993.993 0 0 0 .348-1.335.93.93 0 0 0-1.294-.356l-1.59.947v-1.893c0-.54-.423-.976-.947-.976-.523 0-.948.437-.948.976v2.087l-1.912-1.138a.93.93 0 0 0-1.293.356.997.997 0 0 0 .346 1.336l1.752 1.04-1.913 1.14a.995.995 0 0 0-.346 1.336.945.945 0 0 0 .82.488c.16 0 .324-.043.472-.133l2.074-1.234v2.473c0 .54.425.976.948.976.524 0 .947-.437.947-.976v-2.282l1.753 1.043c.15.09.312.133.472.133a.941.941 0 0 0 .82-.488.996.996 0 0 0-.345-1.337M88.65 30.012l-1.915-1.14 1.751-1.043a.993.993 0 0 0 .348-1.335.932.932 0 0 0-1.295-.356l-1.59.947v-1.893c0-.54-.423-.976-.947-.976-.522 0-.947.437-.947.976v2.087l-1.913-1.138a.93.93 0 0 0-1.293.356.998.998 0 0 0 .346 1.336l1.752 1.04-1.913 1.14a.995.995 0 0 0-.346 1.336.945.945 0 0 0 .82.488c.161 0 .324-.043.473-.133l2.074-1.234v2.473c0 .54.425.976.947.976.524 0 .947-.437.947-.976v-2.282l1.753 1.043c.15.09.312.133.473.133a.941.941 0 0 0 .82-.488.996.996 0 0 0-.346-1.337" fill="#073B4C"/>
    </g>
</svg>
