<svg width="136" height="136" viewBox="0 0 136 136" xmlns="http://www.w3.org/2000/svg" xmlns:xlink="http://www.w3.org/1999/xlink">
    <defs>
        <path d="M0 4.986a4.986 4.986 0 0 0 4.984 4.987 4.985 4.985 0 0 0 4.983-4.986A4.989 4.989 0 0 0 4.983 0 4.985 4.985 0 0 0 0 4.986z" id="m1eg0ufs0a"/>
        <path d="M0 3.205a3.204 3.204 0 1 0 6.407.001A3.208 3.208 0 0 0 3.203 0 3.204 3.204 0 0 0 0 3.205z" id="7eycie0bbc"/>
        <path d="m4.957.204-1.27 1.27-.046.05c-.24.296-.202.756.1 1.057.321.32.817.346 1.108.054l1.27-1.27.044-.05c.242-.295.204-.755-.098-1.057A.86.86 0 0 0 5.46 0a.705.705 0 0 0-.503.204zm-4.7.054c-.32.32-.345.817-.055 1.108l1.271 1.27.05.045c.296.242.754.203 1.057-.1.32-.32.345-.816.055-1.107L1.364.203l-.05-.046A.704.704 0 0 0 .862 0a.864.864 0 0 0-.604.258zm3.485 3.485c-.322.322-.346.817-.056 1.108l1.272 1.27.05.047c.294.242.753.203 1.057-.1.32-.321.345-.818.054-1.108l-1.27-1.271-.052-.046a.71.71 0 0 0-.452-.157.86.86 0 0 0-.603.257zM1.473 3.69.203 4.959l-.045.052c-.242.294-.204.754.1 1.056.32.322.816.346 1.107.055L2.634 4.85l.046-.05c.24-.296.204-.756-.1-1.058a.859.859 0 0 0-.602-.257.7.7 0 0 0-.505.204z" id="bnfw2z1mbe"/>
        <path d="m4.957.205-1.27 1.27-.046.05c-.24.295-.202.755.1 1.057.32.32.816.345 1.107.055l1.27-1.27.045-.052c.242-.295.204-.754-.1-1.057A.856.856 0 0 0 5.46 0a.702.702 0 0 0-.503.205zm-4.7.053c-.32.32-.345.817-.055 1.108l1.27 1.27.052.046c.294.242.753.202 1.055-.1.322-.321.346-.816.056-1.108L1.364.204l-.05-.046A.708.708 0 0 0 .861 0a.862.862 0 0 0-.604.258zm3.485 3.486c-.32.32-.346.816-.055 1.107l1.27 1.27.051.047c.294.24.753.204 1.056-.1.321-.32.345-.817.054-1.107l-1.27-1.272-.05-.046a.715.715 0 0 0-.453-.157.856.856 0 0 0-.603.258zm-2.27-.054L.203 4.96l-.045.051c-.242.295-.203.754.099 1.056.321.322.817.346 1.108.055L2.634 4.85l.046-.05c.242-.296.203-.755-.1-1.057a.859.859 0 0 0-.603-.257.705.705 0 0 0-.505.203z" id="00uwxhwjog"/>
        <path d="M8.382.344 6.235 2.49l-.077.085c-.409.5-.343 1.277.169 1.788.542.543 1.38.584 1.872.092l2.147-2.148.078-.085c.408-.5.342-1.276-.17-1.789A1.451 1.451 0 0 0 9.234 0a1.19 1.19 0 0 0-.852.344zM.435.434C-.107.978-.148 1.816.343 2.307l2.15 2.15.083.077c.498.408 1.275.343 1.786-.17.543-.542.585-1.38.093-1.872L2.308.342 2.222.265A1.206 1.206 0 0 0 1.454 0C1.096 0 .724.146.435.434zM6.327 6.33c-.543.543-.583 1.381-.093 1.873l2.15 2.15.083.077c.5.408 1.275.343 1.787-.17.543-.542.583-1.38.093-1.872l-2.149-2.15-.084-.078a1.203 1.203 0 0 0-.766-.265c-.36 0-.732.147-1.021.435zm-3.835-.091L.344 8.386l-.077.086c-.41.499-.343 1.275.168 1.788.543.542 1.38.583 1.874.09l2.145-2.147.079-.085c.408-.5.342-1.277-.17-1.789a1.45 1.45 0 0 0-1.02-.434c-.315 0-.622.113-.851.343z" id="7hxr02tf1i"/>
    </defs>
    <g fill="none" fill-rule="evenodd">
        <g transform="translate(27.727 109.855)">
            <mask id="tqe4ypy1gb" fill="#fff">
                <use xlink:href="#m1eg0ufs0a"/>
            </mask>
            <path fill="#FFD166" mask="url(#tqe4ypy1gb)" d="M-4.703 14.677h19.372V-4.705H-4.703z"/>
        </g>
        <g transform="translate(97.885 21.359)">
            <mask id="qeklclo2xd" fill="#fff">
                <use xlink:href="#7eycie0bbc"/>
            </mask>
            <path fill="#FFD166" mask="url(#qeklclo2xd)" d="M-3.023 9.434H9.428V-3.025h-12.45z"/>
        </g>
        <g transform="translate(114.873 34.083)">
            <mask id="74v8n4pd1f" fill="#fff">
                <use xlink:href="#bnfw2z1mbe"/>
            </mask>
            <path fill="#215B58" mask="url(#74v8n4pd1f)" d="M3.16-9.774 16.09 3.162 3.16 16.1-9.768 3.162z"/>
        </g>
        <g transform="translate(14.28 45.195)">
            <mask id="38z0t86o2h" fill="#fff">
                <use xlink:href="#00uwxhwjog"/>
            </mask>
            <path fill="#215B58" mask="url(#38z0t86o2h)" d="M3.16-9.773 16.09 3.164 3.16 16.099-9.768 3.164z"/>
        </g>
        <g transform="translate(96.07 115.105)">
            <mask id="5299eyj0tj" fill="#fff">
                <use xlink:href="#7hxr02tf1i"/>
            </mask>
            <path fill="#215B58" mask="url(#5299eyj0tj)" d="M5.345-16.528 27.209 5.347 5.345 27.223-16.518 5.347z"/>
        </g>
        <g fill-rule="nonzero">
            <path d="M106.934 75.886 82.607 101.35a23.33 23.33 0 0 1-16.498 6.835h-4.593c-11.81 0-21.387-9.576-21.387-21.388a32.427 32.427 0 0 0-4.343-16.212l-7.275-12.6a5.184 5.184 0 0 1 .514-5.92c2.289-2.739 6.65-2.407 8.467.734 10.586 18.34-1.673-2.898 10.36 17.945-8.29-30.939-8.254-30.031-7.962-31.71 0-.168.211-1.006.504-1.59 2.387-4.905 9.503-4.136 10.887 1.025l7.642 28.527c0-35.33-.025-33.544.047-34.088.405-3.028 3.046-5.083 5.486-5.083a5.832 5.832 0 0 1 6.133 5.825V68c9.751-34.017 8.942-31.632 9.662-32.73 1.518-2.405 4.95-3.414 7.685-1.88 2.17 1.09 3.54 3.886 2.81 6.614l-8.492 31.697v6.891c0 2.31 2.792 3.467 4.425 1.834 7.84-9.078 7.14-8.29 7.516-8.641 4.057-3.76 9.574-4.314 11.4-3.401 2.883 1.24 3.758 5.083 1.34 7.502z" fill="#E9F4FC"/>
            <path d="M108.024 70.915 80.22 99.778a23.318 23.318 0 0 1-12.41 5.619c-14.473 1.881-25.087-8.842-25.087-21.194a32.427 32.427 0 0 0-4.344-16.211c-9.813-16.691-9.244-15.713-9.353-15.928a5.181 5.181 0 0 1 5.353-1.672c1.124.309 1.768.822 2.498 1.552 5.506 9.223 10.991 18.8 10.975 18.8a2.114 2.114 0 0 0 2.042-2.662c-7.74-28.885-7.375-27.09-7.322-28.337.045-1.824 1.11-3.767 2.85-4.782.73-.428 1.54-.652 1.606-.653a5.83 5.83 0 0 1 4.254 4.158l7.642 28.527c0-36.585-.039-33.613.091-34.378.157-.876.526-1.7.948-2.29.502-.733 1.176-1.266 1.192-1.266 3.955-3.05 9.435-.158 9.435 4.588V68c9.46-33 8.952-31.265 9.04-31.492 1.382-3.937 6.655-5.315 9.791-1.946.2.225.895-2.76-9.758 37.625v6.891c0 1.983 2.212 3.897 4.768 2.902 1.717-.669 2.679-2.052 3.995-3.576 5.922-6.855 5.215-6.05 5.626-6.482a13.98 13.98 0 0 1 6.551-3.56c1.086-.25 2.803-.47 3.853-.309a4.577 4.577 0 0 1 3.268 2.237c.184.308.294.609.301.625z" fill="#E9F4FC"/>
            <path d="M44.184 96.961a1.296 1.296 0 1 0-2.237 1.31c.357.61.635 1.175 1.444 1.175 1.007 0 1.647-1.124 1.09-1.995a14.563 14.563 0 0 1-.297-.49z" fill="#052C50"/>
            <path d="M103.595 66.704a15.166 15.166 0 0 0-10.795 4.47c-.06.062-2.193 2.591-7.071 8.368-.814.767-2.179.195-2.179-.95v-6.72L92 40.338c1.206-4.504-2.193-8.974-6.889-8.974a7.138 7.138 0 0 0-6.88 5.273l-6.345 22.136V33.649c0-3.93-3.198-7.129-7.129-7.129-3.902 0-7.129 3.153-7.129 7.13v23.498l-5.094-19.016a7.125 7.125 0 0 0-8.73-5.04c-3.78 1.01-6.07 4.91-5.042 8.732l5.29 19.744-5.437-9.418c-1.788-3.095-5.76-4.159-8.852-2.372-3.042 1.757-4.19 5.705-2.373 8.853l7.274 12.602a31.174 31.174 0 0 1 4.17 15.563c0 2.186.311 4.35.925 6.431a1.296 1.296 0 0 0 2.486-.733 20.137 20.137 0 0 1-.818-5.698c0-5.91-1.563-11.74-4.518-16.86l-7.274-12.601a3.883 3.883 0 0 1-.522-1.938c0-4.005 5.298-5.342 7.257-1.95L46.73 71.39c.753 1.304 2.765.474 2.374-.983-8.56-31.949-7.995-29.583-7.995-30.435 0-3.453 3.769-5.677 6.807-3.924a4.509 4.509 0 0 1 2.114 2.755l7.643 28.527c.39 1.457 2.548 1.171 2.548-.336V33.65c0-1.211.472-2.35 1.327-3.208 2.835-2.831 7.746-.847 7.746 3.208V68c0 1.496 2.13 1.793 2.542.357l8.89-31.014c.632-2.19 2.484-3.386 4.385-3.386 2.987 0 5.153 2.842 4.385 5.712-9.098 33.954-8.537 31.766-8.537 32.032v6.891c0 3.695 4.615 5.163 6.71 2.67l7.003-8.292a12.589 12.589 0 0 1 8.924-3.674c2.717 0 4.532 3.262 2.237 5.698l-24.153 25.45a21.89 21.89 0 0 1-15.57 6.444h-4.593c-5.26 0-10.235-2.021-14.007-5.69a1.296 1.296 0 1 0-1.808 1.858 22.562 22.562 0 0 0 15.815 6.424h4.593c7.018 0 13.5-3.058 17.438-7.238l24.154-25.452c3.83-3.852 1.019-10.086-4.106-10.086z" fill="#052C50"/>
            <path d="M62.812 100.244c0-9.06 6.76-16.793 15.725-17.987a1.296 1.296 0 1 0-.343-2.57C67.947 81.052 60.22 89.89 60.22 100.244a1.296 1.296 0 0 0 2.592 0z" fill="#052C50"/>
        </g>
    </g>
</svg>
