<svg width="32" height="32" viewBox="0 0 32 32" xmlns="http://www.w3.org/2000/svg" xmlns:xlink="http://www.w3.org/1999/xlink">
    <defs>
        <path id="n7ck9kghva" d="M0 0h32v21.333H0z"/>
    </defs>
    <g fill="none" fill-rule="evenodd">
        <path d="M27.306 22.824c.123.712.241 1.438.357 2.144l.022.137-.028-.015-.466-.254c-.467-.254-.995-.542-1.51-.827a.715.715 0 0 0-.348-.095.724.724 0 0 0-.35.096c-.626.345-1.264.692-1.881 1.028l-.12.066a1070.246 1070.246 0 0 1 .388-2.333.723.723 0 0 0-.214-.662c-.366-.366-.729-.734-1.092-1.102l-.02-.02-.518-.524c.29-.045.579-.088.869-.131l.715-.106c.238-.035.476-.07.714-.107.218-.033.39-.17.497-.396.343-.727.684-1.442 1.012-2.126l.355.746.155.326.138.285c.105.215.214.438.305.658.193.464.587.518.716.535.603.083 1.217.176 1.814.267l.322.049-.4.406c-.393.398-.8.811-1.21 1.22-.2.199-.273.44-.222.735zm3.327-2.722c-.13-.56-.5-.932-1.042-1.047-.14-.03-.282-.05-.408-.068l-.018-.002-.13-.02-.312-.047c-.396-.06-.84-.128-1.275-.192-.114-.244-.231-.489-.345-.726l-.04-.083a57.992 57.992 0 0 1-.169-.357c-.137-.292-.28-.594-.434-.888a1.272 1.272 0 0 0-1.338-.653c-.442.078-.784.348-.991.783l-.12.254-.796 1.67c-.203.032-.407.062-.605.091l-.051.008-.32.048-.323.048c-.285.041-.58.084-.87.14-.673.127-1.144.835-1.029 1.547.05.306.187.569.42.804l.17.172c.435.44.87.879 1.301 1.319-.1.617-.21 1.287-.34 2.045-.068.405-.024.73.14 1.023.369.657 1.118.873 1.782.514.344-.186.688-.374 1.032-.562l.022-.012c.205-.113.41-.224.616-.336a1.814 1.814 0 0 0 .17-.106c.022.012.047.029.064.04.038.023.076.047.114.068.176.095.351.19.527.287l.028.016c.391.214.796.436 1.201.645.182.094.37.142.56.142.27 0 .54-.099.78-.285.407-.316.589-.775.511-1.29-.097-.646-.208-1.299-.316-1.93l-.044-.262.472-.477.012-.013c.27-.273.547-.554.822-.827.254-.25.53-.555.6-1.007l.006-.403-.034-.071z" fill="#073B4C"/>
        <g transform="translate(0 5.333)">
            <mask id="696f0zaoxb" fill="#fff">
                <use xlink:href="#n7ck9kghva"/>
            </mask>
            <path d="m2 5.333.007-.219A3.333 3.333 0 0 1 5.333 2h21.334l.219.007A3.333 3.333 0 0 1 30 5.333v1H2v-1zm18.431 14H5.333l-.219-.007A3.334 3.334 0 0 1 2 16V8.333h28v3.38h2v-6.38A5.334 5.334 0 0 0 26.667 0H5.333A5.334 5.334 0 0 0 0 5.333V16a5.334 5.334 0 0 0 5.333 5.333h15.098v-2z" fill="#073B4C" mask="url(#696f0zaoxb)"/>
        </g>
    </g>
</svg>
