<svg width="24" height="24" viewBox="0 0 24 24" xmlns="http://www.w3.org/2000/svg">
    <path d="M1.452 2.08c1.022-.327 1.585.405 1.91 1.03l.094.192.175.39c.06.132.12.257.172.347.276.473.66.915 1.206 1.4.096.082.212.166.332.247l.26.17c.371.235.73.475 1.008.804l.132.173.724-2.303c.274-.877 1.107-1.426 1.9-1.285l.14.033 6.981 2.031c.796.231 1.233 1.092 1.03 1.978l-.04.148-.378 1.206c.25-.107.507-.172.754-.226l.278-.059c.231-.045.473-.094.665-.166.582-.212 1.045-.442 1.437-.714l.19-.14c.057-.043.118-.097.182-.157l.33-.32.151-.14.17-.145c.533-.434 1.288-.824 2.06-.2.514.42.762 1.03.664 1.634-.08.49-.37 1.034-.798 1.486-.16.17-.335.327-.517.463.157.24.241.525.241.845 0 1.145-1.332 1.689-2.135 1.757l-.205.01a4.764 4.764 0 0 1-.374-.003c-.063.257-.214.553-.525.838a1.62 1.62 0 0 1-1.126.424c-.777 0-1.487-.435-1.784-.689a3.232 3.232 0 0 1-.671-.838L16 12.144 13.64 19.69c-.275.886-1.112 1.438-1.913 1.284l-.133-.032-6.982-2.021c-.79-.234-1.23-1.102-1.027-1.982l.04-.147 1.945-6.21c-.185.115-.37.206-.556.272-.273.094-.644.16-1.029.16-.318 0-.643-.045-.93-.153a1.613 1.613 0 0 1-.902-.807c-.179-.39-.203-.724-.161-.988l-.256-.094-.206-.087C.794 8.58-.36 7.553.109 6.423c.122-.3.315-.543.56-.714a4.294 4.294 0 0 1-.315-.637c-.22-.58-.28-1.193-.172-1.687.14-.612.616-1.095 1.27-1.304zm9.779 4.397a2.721 2.721 0 0 0-3.32 1.666l-.055.163-1.599 5.398a2.7 2.7 0 0 0 1.676 3.302l.164.054 1.832.537a2.722 2.722 0 0 0 3.321-1.667l.054-.162 1.599-5.398a2.7 2.7 0 0 0-1.676-3.303l-.163-.053-1.833-.537zm-.057 1.655c.08-.287.357-.44.659-.361.264.074.42.295.392.541l-.02.094-.1.348c.947.337 1.484 1.324 1.216 2.266-.084.282-.37.432-.671.361a.501.501 0 0 1-.388-.541l.019-.094a.846.846 0 0 0-.52-1.027l-.109-.035-.608-.158c-.52-.137-1.047.15-1.19.647a.919.919 0 0 0 .352 1.009l.1.062 1.162.627c.805.444 1.215 1.353.956 2.237-.263.912-1.175 1.496-2.12 1.431l-.157-.017-.1.345a.524.524 0 0 1-.654.361c-.269-.07-.424-.294-.402-.541l.016-.094.101-.344c-.94-.345-1.476-1.328-1.207-2.274a.54.54 0 0 1 .67-.357c.261.073.416.298.388.542l-.019.093c-.124.425.103.854.52 1.018l.109.036.604.162a.959.959 0 0 0 1.19-.644.933.933 0 0 0-.352-1.005l-.1-.065-1.158-.627c-.804-.448-1.215-1.357-.955-2.232.262-.916 1.163-1.49 2.116-1.431l.16.015.1-.348zm11.528-1.063c-.273-.222-.56-.094-1.22.55-.151.15-.308.31-.47.431-.51.393-1.108.71-1.881.992a3.79 3.79 0 0 1-.537.15l-.3.062c-.293.061-.571.118-.814.218l-.175.084-.591 1.893.065.155c.104.227.304.595.606.857.22.188.724.456 1.155.456a.67.67 0 0 0 .472-.167c.157-.145.247-.295.27-.451l.006-.106-.046-.155a.356.356 0 0 1 .324-.455l.076.004.181.029c.137.023.285.037.451.042l.172.003c.028 0 .052 0 .08-.004h.056l.056-.003c.452-.014 1.32-.327 1.32-.852 0-.192-.053-.335-.165-.438l-.067-.055-.024-.016-.16-.077a.36.36 0 0 1-.081-.596l.07-.048.157-.082c.283-.15.556-.358.794-.608.3-.32.51-.7.563-1.016.046-.292-.077-.581-.343-.797zM2.701 3.918c-.375-.86-.595-1.086-.952-.974-.336.107-.573.344-.643.637-.07.323-.021.764.136 1.178.119.31.294.61.504.86a.45.45 0 0 1-.172.7l-.078.025-.12.028-.046.015a.638.638 0 0 0-.343.373c-.197.473.415 1.043.844 1.256l.175.078.076.03.014.003c.137.055.269.1.403.137l.251.06a.43.43 0 0 1 .282.636l-.055.075-.007.02c-.08.181-.063.39.046.623.07.153.199.264.388.338.41.153.997.083 1.284-.018.204-.072.417-.194.634-.36l.163-.134.028-.024.588-1.882a1.407 1.407 0 0 0-.091-.188c-.168-.274-.444-.482-.766-.69l-.165-.103-.087-.06a5.077 5.077 0 0 1-.623-.448c-.619-.55-1.063-1.064-1.388-1.62a4.147 4.147 0 0 1-.214-.432l-.066-.14z" fill="#48464D" fill-rule="evenodd"/>
</svg>
