<svg width="130" height="130" viewBox="0 0 130 130" xmlns="http://www.w3.org/2000/svg">
    <g fill="none" fill-rule="evenodd">
        <g fill-rule="nonzero">
            <path d="m80.96 17.34 21.285 20.06-.099 68.767c-.005 3.537-2.904 6.409-6.475 6.414l-60.615.086c-3.57.005-6.461-2.858-6.456-6.395l.12-82.454c.004-3.537 2.903-6.408 6.474-6.413l45.766-.065z" fill="#FFF"/>
            <path d="m83.64 48.957-39.602.056c-2.838.004-5.154 2.237-5.257 5.024l-.003.187-.049 33.621c-.004 2.812 2.244 5.099 5.057 5.193l.189.003 39.602-.056c2.838-.004 5.154-2.237 5.257-5.024l.003-.187.049-33.622c.004-2.81-2.244-5.098-5.057-5.192l-.189-.003z" fill="#E9F4FC"/>
            <path d="m80.96 17.34 21.285 20.06-.099 68.767c-.005 3.537-2.904 6.409-6.475 6.414l-60.615.086c-3.57.005-6.461-2.858-6.456-6.395l.12-82.454c.004-3.537 2.903-6.408 6.474-6.413l45.766-.065zm-.811 2.002-44.958.064c-2.395.004-4.35 1.883-4.448 4.232l-.003.177-.12 82.454c-.003 2.372 1.889 4.304 4.26 4.393l.18.003 60.614-.086c2.395-.003 4.35-1.882 4.448-4.232l.004-.177.098-67.908-20.075-18.92zm3.494 27.613c4.017-.005 7.27 3.216 7.263 7.195l-.048 33.621c-.006 3.98-3.267 7.21-7.284 7.215l-39.602.057c-4.017.005-7.27-3.216-7.263-7.195l.048-33.621c.006-3.98 3.267-7.21 7.284-7.215l39.602-.057zm-24.047 2.036-15.558.022c-2.838.004-5.154 2.237-5.257 5.024l-.003.187-.049 33.621c-.004 2.812 2.244 5.099 5.057 5.193l.189.003 15.558-.022.063-44.028zm14.548-.02-12.527.017-.064 44.028L74.08 93l.064-44.029zm9.496-.014-7.476.01-.063 44.029 7.476-.01c2.838-.005 5.154-2.238 5.257-5.025l.003-.187.049-33.622c.004-2.81-2.244-5.098-5.057-5.192l-.189-.003zM63.86 35.176c.557-.001 1.009.446 1.008.999 0 .518-.399.945-.908.997l-.104.005-26.67.038c-.558 0-1.01-.447-1.009-1 0-.517.399-.944.908-.996l.104-.005 26.67-.038zm-10.498-6.39c.558 0 1.01.447 1.009 1-.001.518-.4.945-.909.997l-.103.005-16.164.023c-.558 0-1.01-.447-1.009-1 .001-.518.4-.944.909-.996l.103-.006 16.164-.022z" fill="#073B4C"/>
            <path d="m81.243 17.333 21.024 19.82v1.78H86.09c-3.573 0-6.47-2.866-6.47-6.4v-15.2h1.622zm17.859 19.6-17.459-16.46v12.06c0 2.37 1.896 4.303 4.27 4.396l.178.003h13.011z" fill="#073B4C"/>
            <path d="M99.084 36.927 81.66 20.48l-.018 12.068c-.003 2.372 1.888 4.304 4.26 4.393l.18.003 13-.018z" fill="#E9F4FC"/>
        </g>
        <g transform="translate(78.897 56.707)">
            <ellipse fill="#FFD166" cx="22.869" cy="22.844" rx="22.869" ry="22.844"/>
            <ellipse stroke="#073B4C" stroke-width="1.733" cx="22.869" cy="22.844" rx="22.869" ry="22.844"/>
            <path d="m25.228 14.331.09.168 7.284 14.02c.12.317.188.656.206 1.007.077 1.643-1.028 3.052-2.531 3.235l-.175.015H15.689l-.031-.003-.083.002a2.639 2.639 0 0 1-.69-.137l-.223-.086c-1.386-.62-2.08-2.316-1.568-3.941l.064-.188 7.237-13.914c.257-.51.64-.93 1.1-1.209 1.31-.796 2.944-.327 3.733 1.031zm-3.01.405a1.358 1.358 0 0 0-.44.433l-.081.143-7.2 13.827c-.274.743.052 1.59.726 1.893.092.04.187.07.286.087l.15.018h14.404c.73-.042 1.291-.725 1.254-1.523a2.288 2.288 0 0 0-.031-.27l-.022-.107-7.247-13.935c-.354-.702-1.158-.956-1.8-.566zm.641 12.373c.412 0 .747.332.747.747v.01a.75.75 0 0 1-.747.753.75.75 0 0 1-.746-.752c0-.415.334-.758.746-.758zm-.01-7.576c.378 0 .69.356.74.817l.006.128v3.904c0 .522-.334.945-.746.945-.378 0-.69-.355-.74-.816l-.006-.129v-3.904c0-.522.334-.945.746-.945z" fill="#073B4C"/>
        </g>
    </g>
</svg>
