<svg width="130" height="130" viewBox="0 0 130 130" xmlns="http://www.w3.org/2000/svg" xmlns:xlink="http://www.w3.org/1999/xlink">
    <defs>
        <path id="fvdj5lapja" d="M0 0h17.926v7.8H0z"/>
        <path id="oktxu261hc" d="M0 0h17.926v6.5H0z"/>
        <path d="M1.038.083a.362.362 0 0 0-.11.242L.922.398a1 1 0 0 0-.818.932c-.034.463.236.891.66 1.043l.528.182a.33.33 0 0 1 .209.332.324.324 0 0 1-.103.22.283.283 0 0 1-.219.073l-.262-.02a.266.266 0 0 1-.19-.098.29.29 0 0 1-.063-.204.34.34 0 0 0-.303-.375.314.314 0 0 0-.244.08.357.357 0 0 0-.115.242c-.03.475.26.897.687 1.02l-.005.072c-.01.197.125.356.31.37l.029.002a.311.311 0 0 0 .207-.08.365.365 0 0 0 .117-.246l.004-.072c.443-.068.787-.454.82-.933.032-.466-.238-.895-.66-1.043L.98 1.712a.321.321 0 0 1-.207-.33.326.326 0 0 1 .102-.22.282.282 0 0 1 .22-.077l.261.02a.28.28 0 0 1 .254.306.36.36 0 0 0 .076.256c.057.07.137.111.23.12.193.012.34-.131.355-.326V1.46c.03-.469-.267-.897-.69-1.017l.005-.067A.362.362 0 0 0 1.509.12.326.326 0 0 0 1.281 0h-.016a.33.33 0 0 0-.227.083z" id="03bv4boq7g"/>
        <path d="M1.039.083a.358.358 0 0 0-.112.242L.923.398a1.002 1.002 0 0 0-.82.933c-.033.462.238.89.66 1.042l.53.182a.328.328 0 0 1 .208.332.328.328 0 0 1-.103.22.287.287 0 0 1-.218.073l-.263-.02a.265.265 0 0 1-.189-.098.289.289 0 0 1-.063-.204.34.34 0 0 0-.304-.375.316.316 0 0 0-.243.08.354.354 0 0 0-.116.242c-.03.475.261.897.688 1.02l-.006.072c-.009.197.125.356.31.37l.03.002a.307.307 0 0 0 .206-.08.361.361 0 0 0 .117-.245l.005-.073c.442-.068.787-.454.819-.933a1.018 1.018 0 0 0-.66-1.042l-.53-.183a.321.321 0 0 1-.207-.33.325.325 0 0 1 .102-.22.285.285 0 0 1 .218-.077l.263.02a.28.28 0 0 1 .253.305.362.362 0 0 0 .077.255c.056.07.137.112.23.12.192.011.34-.13.355-.325a.86.86 0 0 0 .002-.042V1.37C2.264.938 1.978.556 1.58.444l.005-.068A.36.36 0 0 0 1.51.12.325.325 0 0 0 1.282 0H1.26a.322.322 0 0 0-.221.083z" id="k3u9zmam2i"/>
        <path d="M0 6.896c0 3.809 3.054 6.895 6.821 6.895s6.82-3.086 6.82-6.895C13.638 3.09 10.586.006 6.821 0 3.054 0 0 3.087 0 6.896zm9.39-1.731a.325.325 0 0 0 .236-.1.35.35 0 0 0-.172-.577l-.647-.147a1.19 1.19 0 0 1-.912-1.135 1.187 1.187 0 0 1 .873-1.172V1.97a.428.428 0 0 1 .111-.305.415.415 0 0 1 .297-.128c.116.002.221.04.3.117a.425.425 0 0 1 .125.298v.059c.517.098.914.556.929 1.097v.002a.422.422 0 0 1-.408.434h-.006a.418.418 0 0 1-.424-.415.3.3 0 0 0-.092-.215.288.288 0 0 0-.217-.082l-.314.007a.336.336 0 0 0-.328.35.343.343 0 0 0 .263.33l.65.149c.527.123.902.589.912 1.133a1.184 1.184 0 0 1-.874 1.174l.001.063a.43.43 0 0 1-.119.31.404.404 0 0 1-.288.123h-.009a.417.417 0 0 1-.42-.409l-.002-.063a1.15 1.15 0 0 1-.926-1.102.417.417 0 0 1 .415-.432h.008c.23 0 .412.18.416.415.001.08.033.155.09.21.058.055.14.083.218.083l.315-.007zm-4.883-.068a.35.35 0 0 0-.118-.59l-.631-.208a1.193 1.193 0 0 1-.803-1.216c.038-.547.449-.992.978-1.084l.005-.065a.425.425 0 0 1 .141-.294.404.404 0 0 1 .306-.099c.115.01.216.061.288.146a.42.42 0 0 1 .096.307l-.004.06c.506.146.859.64.822 1.18v.001a.413.413 0 0 1-.447.394.418.418 0 0 1-.29-.145.42.42 0 0 1-.098-.31.301.301 0 0 0-.28-.323l-.314-.023a.333.333 0 0 0-.358.316.343.343 0 0 0 .23.355l.634.21c.513.172.843.671.803 1.214a1.18 1.18 0 0 1-.978 1.086l-.005.064a.43.43 0 0 1-.148.297.4.4 0 0 1-.262.096l-.035-.001a.419.419 0 0 1-.391-.448l.004-.064a1.15 1.15 0 0 1-.819-1.184.415.415 0 0 1 .454-.39c.112.009.215.06.286.145a.425.425 0 0 1 .097.308.298.298 0 0 0 .07.217.3.3 0 0 0 .21.103l.313.023.032.002c.079 0 .153-.03.212-.08zm-.284 6.21v-.002C2.84 10.603 1.55 9.24 1.55 7.209c0-.173.14-.313.31-.313.085 0 .226.015.534.049 1.47.173 2.948.26 4.427.264a39.645 39.645 0 0 0 4.917-.31.3.3 0 0 1 .248.074.312.312 0 0 1 .105.236c0 2.244-1.178 3.54-2.718 4.163-.13 1.25-1.17 2.107-2.546 2.107h-.006c-1.124-.003-2.141-.592-2.598-2.173z" id="v9cwpfk3ik"/>
        <path d="M.515 0A.505.505 0 0 0 0 .493v2.33c0 .98.829 1.774 1.85 1.774 1.131 0 2.047-.879 2.047-1.962V.538A.55.55 0 0 0 3.337 0H.514z" id="rdnw6ek67m"/>
        <path d="M1.039.083a.358.358 0 0 0-.112.242L.923.398a1.002 1.002 0 0 0-.82.933c-.033.462.238.89.66 1.042l.53.182a.328.328 0 0 1 .208.332.328.328 0 0 1-.103.22.287.287 0 0 1-.218.073l-.263-.02a.265.265 0 0 1-.189-.098.289.289 0 0 1-.063-.204.34.34 0 0 0-.304-.375.316.316 0 0 0-.243.08.354.354 0 0 0-.116.242c-.03.475.261.897.688 1.02l-.006.072c-.009.197.125.356.31.37l.03.002a.307.307 0 0 0 .206-.08.361.361 0 0 0 .117-.245l.005-.073c.442-.068.787-.454.819-.933a1.018 1.018 0 0 0-.66-1.042l-.53-.183a.321.321 0 0 1-.207-.33.325.325 0 0 1 .102-.22.285.285 0 0 1 .218-.077l.263.02a.28.28 0 0 1 .253.305.362.362 0 0 0 .077.255c.056.07.137.112.23.12.192.011.34-.13.355-.325a.86.86 0 0 0 .002-.042V1.37C2.264.938 1.978.556 1.58.444l.005-.068A.36.36 0 0 0 1.51.12.325.325 0 0 0 1.282 0H1.26a.322.322 0 0 0-.221.083z" id="aee6vs39mo"/>
        <path id="6hzup18oaq" d="M0 0h18.96v9.099H0z"/>
        <path id="nj27bt5mhs" d="M0 0h7.893v7.903H0z"/>
        <path id="pbzlkzsl7u" d="M0 0h7.893v7.903H0z"/>
        <path id="l5gl3b9rsw" d="M0 0h11.7v11.7H0z"/>
        <path id="i3xs581fdy" d="M0 0h16.9v16.9H0z"/>
        <path id="owuri03czA" d="M0 0h7.893v7.903H0z"/>
        <path d="M0 4.766a4.766 4.766 0 0 0 4.764 4.767 4.765 4.765 0 0 0 4.763-4.766A4.769 4.769 0 0 0 4.763 0 4.765 4.765 0 0 0 0 4.766z" id="dag2yrtahC"/>
        <path d="M0 3.064a3.063 3.063 0 1 0 6.125.001A3.063 3.063 0 1 0 0 3.063z" id="8ue94ad9iE"/>
        <rect id="o3kjiy9xce" x="0" y="0" width="20.8" height="10.4" rx="3.467"/>
    </defs>
    <g fill="none" fill-rule="evenodd">
        <rect stroke="#073B4C" stroke-width="2.427" fill="#5A50F9" x="3.287" y="61.022" width="7.973" height="21.623" rx="3.467"/>
        <rect stroke="#073B4C" stroke-width="2.427" fill="#5A50F9" x="118.987" y="61.022" width="7.973" height="21.623" rx="3.467"/>
        <rect stroke="#073B4C" stroke-width="3.068" fill="#E9F4FC" x="122.143" y="35.898" width="3.432" height="34.838" rx="1.716"/>
        <ellipse stroke="#073B4C" stroke-width="3.068" fill="#FFD166" cx="122.956" cy="37.058" rx="5.51" ry="5.616"/>
        <g transform="translate(7.8 46.15)">
            <rect fill="#7F77F9" y=".684" width="114.452" height="48.994" rx="24.497"/>
            <g fill="#FFF">
                <path d="M24.205 18.662v-1.05a2.02 2.02 0 0 1 .234-.219c.363-.285.881-.01.881.468v1.057a.133.133 0 0 1-.177.13c-.28-.109-.568-.2-.859-.278a.11.11 0 0 1-.08-.108zm.102 4.18c-.234 0-.42-.2-.42-.443 0-.982.754-1.778 1.686-1.778.931 0 1.684.796 1.684 1.778a.432.432 0 0 1-.42.443c-.233 0-.421-.2-.421-.443 0-.492-.38-.888-.843-.888-.465 0-.845.396-.845.888a.432.432 0 0 1-.42.443zm-7.647-.454a.364.364 0 0 1-.055-.494c1.41-1.858 4.447-2.232 4.577-2.249.185-.022.35.118.371.313a.354.354 0 0 1-.298.393c-.03 0-2.889.352-4.126 1.985a.33.33 0 0 1-.26.13.326.326 0 0 1-.209-.078zm-1.542.37c-.08.323-.12.655-.12.989 0 1.681 1.058 3.263 2.82 4.256l.193 1.577c.092.4.447.67.837.634h.654c.388.037.745-.233.837-.632l.08-.676a9.133 9.133 0 0 0 3.094 0l.084.685c.092.398.449.664.837.623h.652a.784.784 0 0 0 .837-.623l.2-1.592a5.682 5.682 0 0 0 2.384-2.406l.94-.268a.874.874 0 0 0 .616-.853v-2.196c0-.486-.375-.881-.837-.881H28.22a6.068 6.068 0 0 0-2.341-2.032v-2.671a.286.286 0 0 0-.279-.294c-.497 0-.982.157-1.395.449v-.155a.287.287 0 0 0-.279-.294c-1.178-.001-2.198.863-2.452 2.075-2.87.15-5.234 1.596-6.11 3.572-.007-.01-.016-.017-.024-.027a5.562 5.562 0 0 1-.231.716l.009.025z"/>
                <path d="M14.097 21.509a2.309 2.309 0 0 1-.378-.471.647.647 0 0 1-.011-.694c.091-.163.35-.502.56-.41.24.107.16.505.108.701-.067.261-.15.52-.24.773-.012.035-.027.067-.04.101m-.897 2.365c.39-.478.806-.953 1.103-1.506a4.17 4.17 0 0 0 .68.358c.116.048.247-.032.305-.141a.263.263 0 0 0 .014-.035l.008-.022c.042-.158-.052-.294-.185-.349-.046-.019-.092-.041-.139-.062a3.421 3.421 0 0 1-.451-.253c.03-.078.061-.157.09-.236.118-.325.24-.668.303-1.012.07-.376.03-.784-.246-1.059-.27-.269-.657-.246-.952-.035-.594.425-.859 1.219-.423 1.876.157.236.344.446.552.63-.283.524-.653.978-1.034 1.444-.224.275.15.677.375.402"/>
            </g>
            <path d="m58.596 17.307.178.271.212.316.241.352.176.25.185.26.196.268.203.272.21.273.106.137.218.27.221.267c.78.922 1.607 1.709 2.252 1.86.38.089 1.015-.097 1.666-.369l.261-.113.13-.059.257-.12.25-.125.24-.123.335-.178.103-.057a.356.356 0 0 1 .525.354l-.009.048-1.949 7.806a.862.862 0 0 1-.76.65l-.074.004H52.661a.896.896 0 0 1-.848-.61l-.021-.073-1.917-7.78a.357.357 0 0 1 .473-.421l.044.02.321.175.234.122.246.124.254.123.26.12c.739.33 1.498.583 1.93.481.572-.136 1.298-.793 2.005-1.6l.223-.259.22-.266.109-.135.214-.273.209-.273.202-.272.195-.267.274-.387.25-.362.351-.525.115-.175a.352.352 0 0 1 .592 0zm3.687 8.866h-2.025a.215.215 0 0 0-.214.205c-.068 1.465 1.822 2.136 2.444.07a.215.215 0 0 0-.164-.271l-.041-.004zm-3.589-2.162a.587.587 0 1 0 .002 1.174.587.587 0 0 0-.002-1.174zm4.228 0a.587.587 0 1 0 .002 1.174.587.587 0 0 0-.002-1.174z" fill="#FFF"/>
            <g fill="#FFF">
                <path d="M96.717 18.662v-1.05a2.02 2.02 0 0 1 .234-.219c.363-.285.881-.01.881.468v1.057a.133.133 0 0 1-.177.13c-.28-.109-.568-.2-.859-.278a.11.11 0 0 1-.08-.108zm.102 4.18c-.234 0-.42-.2-.42-.443 0-.982.754-1.778 1.686-1.778.931 0 1.684.796 1.684 1.778a.432.432 0 0 1-.42.443c-.233 0-.421-.2-.421-.443 0-.492-.38-.888-.843-.888-.466 0-.845.396-.845.888a.432.432 0 0 1-.42.443zm-7.647-.454a.364.364 0 0 1-.055-.494c1.41-1.858 4.446-2.232 4.577-2.249.185-.022.35.118.371.313a.354.354 0 0 1-.298.393c-.03 0-2.889.352-4.126 1.985a.33.33 0 0 1-.26.13.326.326 0 0 1-.209-.078zm-1.542.37c-.08.323-.12.655-.12.989 0 1.681 1.058 3.263 2.82 4.256l.193 1.577c.092.4.447.67.837.634h.654c.388.037.745-.233.837-.632l.08-.676a9.133 9.133 0 0 0 3.094 0l.084.685c.092.398.449.664.837.623h.652a.784.784 0 0 0 .837-.623l.199-1.592a5.682 5.682 0 0 0 2.385-2.406l.94-.268a.874.874 0 0 0 .616-.853v-2.196c0-.486-.375-.881-.837-.881h-1.006a6.068 6.068 0 0 0-2.341-2.032v-2.671a.286.286 0 0 0-.279-.294c-.497 0-.982.157-1.395.449v-.155a.287.287 0 0 0-.279-.294c-1.178-.001-2.198.863-2.452 2.075-2.87.15-5.235 1.596-6.11 3.572-.007-.01-.016-.017-.024-.027a5.562 5.562 0 0 1-.231.716l.009.025z"/>
                <path d="M86.608 21.509a2.309 2.309 0 0 1-.377-.471.647.647 0 0 1-.011-.694c.091-.163.35-.502.56-.41.24.107.16.505.108.701-.067.261-.15.52-.24.773-.012.035-.027.067-.04.101m-.897 2.365c.39-.478.806-.953 1.103-1.506a4.17 4.17 0 0 0 .68.358c.116.048.247-.032.305-.141a.263.263 0 0 0 .014-.035l.008-.022c.042-.158-.052-.294-.185-.349-.046-.019-.093-.041-.139-.062a3.421 3.421 0 0 1-.451-.253c.03-.078.061-.157.09-.236.118-.325.24-.668.303-1.012.07-.376.03-.784-.246-1.059-.27-.269-.657-.246-.952-.035-.594.425-.859 1.219-.423 1.876.157.236.344.446.552.63-.283.524-.653.978-1.034 1.444-.224.275.15.677.375.402"/>
            </g>
            <g transform="translate(15.525 3.577)">
                <mask id="mgsagow5sb" fill="#fff">
                    <use xlink:href="#fvdj5lapja"/>
                </mask>
                <path d="M17.213-2.419c-.039.246-.196.541-.42.79a2.361 2.361 0 0 1-.593.474l-.117.063a.286.286 0 0 0 .007.502l.12.06c.015.009.039.027.068.055.083.08.122.192.122.34 0 .41-.647.653-.984.664-.029.002-.056.002-.084.002-.021.003-.04.003-.06.003-.178 0-.33-.011-.465-.036L14.67.476c-.194-.032-.354.157-.299.351l.035.121v.008c.003.15-.065.29-.207.425a.488.488 0 0 1-.352.13c-.322 0-.698-.209-.863-.355-.29-.262-.454-.66-.501-.787l.442-1.472c.208-.122.464-.176.739-.236l.02-.005c.202-.04.41-.084.604-.16.578-.22 1.025-.466 1.406-.771.12-.095.238-.22.35-.336.494-.5.709-.6.912-.428.199.168.29.393.256.62zm-1.586-.774-.089.09a2.939 2.939 0 0 1-.28.267l-.005.005c-.32.26-.708.472-1.214.664a3.168 3.168 0 0 1-.497.13l-.026.006c-.238.05-.496.105-.745.216l.283-.939c.043-.148.06-.295.06-.44H9.392l.365.112c1.076.328 1.69 1.497 1.374 2.611l-1.194 4.2C9.62 4.843 8.491 5.48 7.416 5.152l-1.369-.418c-1.075-.328-1.69-1.497-1.374-2.611l1.194-4.2c.135-.473.421-.853.782-1.116H4.08c.168.125.313.257.41.42.023.043.046.09.067.146l-.439 1.463-.02.02A1.913 1.913 0 0 1 3.5-.76c-.214.079-.653.133-.959.014a.505.505 0 0 1-.29-.263c-.08-.181-.094-.344-.036-.481l.002-.003c.003-.006.003-.011.006-.016l.007-.009c.158-.192.062-.49-.177-.544l-.034-.007a2.688 2.688 0 0 1-.455-.147l-.01-.003c-.04-.015-.076-.03-.107-.046l-.019-.008c-.296-.125-.767-.546-.709-.92H.002c-.045.735.664 1.36 1.139 1.567.054.028.107.046.154.068l.191.072a1.37 1.37 0 0 0 .12.77c.13.284.363.503.674.628.214.083.457.119.695.119.288 0 .564-.052.769-.125.138-.052.276-.122.415-.211l-1.453 4.83c-.217.724.115 1.465.737 1.657l5.216 1.573c.626.192 1.311-.246 1.528-.974L11.95.91c.116.232.299.534.565.774.222.198.753.536 1.333.536.33 0 .622-.116.841-.33.233-.222.345-.453.392-.652.089.005.186.005.28.003.02-.003.042-.003.06-.003h.01c.585-.02 1.678-.438 1.678-1.373 0-.248-.063-.47-.18-.657.135-.106.266-.228.386-.36.32-.352.535-.774.596-1.156a1.342 1.342 0 0 0-.173-.885h-2.11z" fill="#FFF" mask="url(#mgsagow5sb)"/>
            </g>
            <path d="m24.399 1.837.071-.273a.4.4 0 0 0-.263-.498c-.212-.062-.407.059-.463.283l-.07.274c-.712-.108-1.407.35-1.603 1.109a1.583 1.583 0 0 0 .673 1.75l.815.49c.27.173.4.518.318.84-.1.39-.472.618-.838.504l-.425-.127c-.342-.1-.536-.465-.442-.826a.4.4 0 0 0-.26-.498c-.207-.062-.413.059-.472.28-.189.741.189 1.512.85 1.782l-.07.27c-.054.221.058.436.27.498.201.065.402-.062.46-.284l.071-.27c.702.115 1.407-.354 1.602-1.108.183-.693-.106-1.405-.673-1.753l-.816-.491c-.272-.163-.407-.518-.319-.84.1-.39.472-.614.837-.507l.429.124c.342.1.536.468.442.832-.06.222.053.436.259.498a.38.38 0 0 0 .472-.283c.19-.738-.189-1.513-.855-1.776" fill="#FFF"/>
            <g transform="translate(51.032 3.827)">
                <mask id="ut521mc5vd" fill="#fff">
                    <use xlink:href="#oktxu261hc"/>
                </mask>
                <path d="M17.213-3.719c-.039.246-.196.541-.42.79a2.361 2.361 0 0 1-.593.474l-.117.063a.286.286 0 0 0 .007.502l.12.06c.015.009.039.027.068.055.083.08.122.192.122.34 0 .41-.647.653-.984.664-.029.002-.056.002-.084.002-.021.003-.04.003-.06.003-.178 0-.33-.011-.465-.036l-.136-.022c-.194-.032-.354.157-.299.351l.035.121v.008c.003.15-.065.29-.207.425a.488.488 0 0 1-.352.13c-.322 0-.698-.209-.863-.355-.29-.262-.454-.66-.501-.787l.442-1.472c.208-.122.464-.176.739-.236l.02-.005c.202-.04.41-.084.604-.16.578-.22 1.025-.466 1.406-.771.12-.095.238-.22.35-.336.494-.5.709-.6.912-.428.199.168.29.393.256.62zm-1.586-.774-.089.09a2.939 2.939 0 0 1-.28.267l-.005.005c-.32.26-.708.472-1.214.664a3.168 3.168 0 0 1-.497.13l-.026.006c-.238.05-.496.105-.745.216l.283-.939c.043-.148.06-.295.06-.44H9.392l.365.112c1.076.328 1.69 1.497 1.374 2.611l-1.194 4.2C9.62 3.543 8.491 4.18 7.416 3.852l-1.369-.418C4.972 3.106 4.357 1.937 4.673.823l1.194-4.2c.135-.473.421-.853.782-1.116H4.08c.168.125.313.257.41.42.023.043.046.09.067.146l-.439 1.463-.02.02a1.913 1.913 0 0 1-.597.384c-.214.079-.653.133-.959.014a.505.505 0 0 1-.29-.263c-.08-.181-.094-.344-.036-.481l.002-.003c.003-.006.003-.011.006-.016l.007-.009c.158-.192.062-.49-.177-.544l-.034-.007a2.688 2.688 0 0 1-.455-.147l-.01-.003c-.04-.015-.076-.03-.107-.046l-.019-.008c-.296-.125-.767-.546-.709-.92H.002c-.045.735.664 1.36 1.139 1.567.054.028.107.046.154.068l.191.072a1.37 1.37 0 0 0 .12.77c.13.284.363.503.674.628.214.083.457.119.695.119.288 0 .564-.052.769-.125.138-.052.276-.122.415-.211l-1.453 4.83c-.217.724.115 1.465.737 1.657l5.216 1.573c.626.192 1.311-.246 1.528-.974L11.95-.39c.116.232.299.534.565.774.222.198.753.536 1.333.536.33 0 .622-.116.841-.33.233-.222.345-.453.392-.652.089.005.186.005.28.003.02-.003.042-.003.06-.003h.01c.585-.02 1.678-.438 1.678-1.373 0-.248-.063-.47-.18-.657.135-.106.266-.228.386-.36.32-.352.535-.774.596-1.156a1.342 1.342 0 0 0-.173-.885h-2.11z" fill="#FFF" mask="url(#ut521mc5vd)"/>
            </g>
            <g transform="translate(81.776 1.333)">
                <mask id="xqmpzhb85f" fill="#fff">
                    <use xlink:href="#o3kjiy9xce"/>
                </mask>
                <g mask="url(#xqmpzhb85f)" fill="#FFF">
                    <path d="M19.124 5.192a.37.37 0 0 1 .254.125.358.358 0 0 1 .085.195l.001.074-.005.072c.439.117.757.514.773.965l-.001.104a.367.367 0 0 1-.397.344.36.36 0 0 1-.342-.321l-.002-.074a.299.299 0 0 0-.22-.311l-.062-.01-.294-.021a.333.333 0 0 0-.358.311.338.338 0 0 0 .17.322l.06.026.594.193a1.07 1.07 0 0 1-.074 2.059l-.104.02-.006.076a.373.373 0 0 1-.13.258.357.357 0 0 1-.168.079l-.063.005h-.032a.366.366 0 0 1-.345-.323l-.002-.068.006-.076a1.04 1.04 0 0 1-.77-1.073.367.367 0 0 1 .402-.34.364.364 0 0 1 .34.328v.067a.291.291 0 0 0 .221.308l.06.01.294.021a.333.333 0 0 0 .245-.077.332.332 0 0 0 .115-.23.345.345 0 0 0-.173-.323l-.06-.027-.591-.191a1.076 1.076 0 0 1-.738-1.098c.032-.463.367-.846.811-.96l.104-.02.006-.078a.368.368 0 0 1 .124-.255.379.379 0 0 1 .272-.086zM10.082-4.83c3.979.005 7.204 3.208 7.208 7.16 0 3.956-3.227 7.161-7.208 7.161-3.98 0-7.208-3.205-7.208-7.16S6.1-4.83 10.082-4.83zM4.84 2.33a.327.327 0 0 0-.328.326c0 2.034 1.266 3.422 2.67 4.173l.156.08C7.8 8.487 8.809 9.114 9.94 9.163l.142.004c1.46 0 2.56-.89 2.697-2.188 1.627-.647 2.873-1.993 2.873-4.323a.322.322 0 0 0-.373-.322c-1.724.213-3.46.32-5.197.322a41.598 41.598 0 0 1-3.9-.192l-1.21-.127-.132-.007zm6.756 1.247a.58.58 0 0 1 .583.475l.006.083v2.177c0 1.125-.961 2.037-2.147 2.037-1.027 0-1.868-.757-1.936-1.715l-.005-.126v-2.42c0-.256.2-.47.46-.506l.08-.005h2.96zm.975-6.813a.442.442 0 0 0-.313.133.431.431 0 0 0-.115.245l-.004.072.001.068a1.236 1.236 0 0 0-.923 1.217c.009.523.354.98.855 1.147l.11.031.682.153c.161.038.276.18.28.344a.348.348 0 0 1-.276.352l-.07.007-.333.008a.337.337 0 0 1-.23-.088.304.304 0 0 1-.088-.156l-.007-.06a.433.433 0 0 0-.361-.425l-.087-.006a.436.436 0 0 0-.438.448c.015.53.373.975.869 1.118l.108.026.002.066c.009.216.161.383.366.418l.089.006a.428.428 0 0 0 .425-.376l.004-.072-.001-.067a1.231 1.231 0 0 0 .07-2.365l-.11-.03-.687-.155a.357.357 0 0 1-.278-.344.35.35 0 0 1 .282-.355l.064-.008.333-.007a.311.311 0 0 1 .319.246l.007.062a.434.434 0 0 0 .367.425l.081.006a.445.445 0 0 0 .432-.37l.006-.08a1.204 1.204 0 0 0-.874-1.116l-.107-.025-.002-.06a.435.435 0 0 0-.131-.311.461.461 0 0 0-.317-.122zm-5.386.108a.431.431 0 0 0-.14.235l-.01.071-.005.068c-.559.094-.993.557-1.033 1.125-.04.522.26 1.009.742 1.222l.106.041.667.216a.363.363 0 0 1 .246.369.348.348 0 0 1-.308.324h-.07L7.046.52a.32.32 0 0 1-.221-.108.305.305 0 0 1-.073-.163L6.752.188a.435.435 0 0 0-.405-.471.437.437 0 0 0-.48.405c-.034.53.282 1.006.761 1.193l.106.036-.005.067a.438.438 0 0 0 .414.465l.037.001a.426.426 0 0 0 .276-.1.438.438 0 0 0 .145-.236l.011-.072.005-.066a1.233 1.233 0 0 0 .291-2.35l-.105-.04-.67-.217a.356.356 0 0 1-.243-.368.35.35 0 0 1 .313-.329h.065l.331.024c.157.01.276.126.295.272l.002.064a.433.433 0 0 0 .41.472.43.43 0 0 0 .46-.33l.013-.08a1.201 1.201 0 0 0-.765-1.19l-.104-.036.004-.061a.432.432 0 0 0-.406-.471.432.432 0 0 0-.323.102zm-5.682-2.3c.1.006.19.048.252.117a.328.328 0 0 1 .084.182v.069l-.004.067c.435.11.75.48.766.901l-.002.098c-.016.193-.18.333-.393.321a.377.377 0 0 1-.255-.118.325.325 0 0 1-.084-.182l-.001-.068a.281.281 0 0 0-.22-.292l-.06-.01-.29-.019a.337.337 0 0 0-.243.076.305.305 0 0 0-.113.215.312.312 0 0 0 .17.301l.059.025.587.18c.468.145.768.566.73 1.025-.031.435-.36.791-.795.897l-.11.02-.006.072a.342.342 0 0 1-.13.241.367.367 0 0 1-.229.079l-.031-.001c-.183-.013-.321-.138-.342-.302l-.002-.063.006-.07C.374-1.79.052-2.204.085-2.67a.337.337 0 0 1 .128-.238.375.375 0 0 1 .27-.08.352.352 0 0 1 .336.306v.063a.262.262 0 0 0 .07.2c.04.043.091.073.15.088l.06.009.29.02a.337.337 0 0 0 .242-.072.304.304 0 0 0 .114-.216.318.318 0 0 0-.17-.301l-.06-.025-.586-.18C.46-3.244.161-3.665.199-4.12c.03-.43.359-.787.795-.895l.111-.021.006-.072a.338.338 0 0 1 .122-.239.4.4 0 0 1 .27-.08z"/>
                </g>
            </g>
            <path d="m59.906.787.072-.273a.4.4 0 0 0-.263-.498c-.213-.061-.407.059-.463.283l-.071.274c-.711-.108-1.407.35-1.602 1.109a1.583 1.583 0 0 0 .673 1.75l.814.49c.271.173.4.518.318.84-.1.39-.472.618-.837.504l-.425-.127c-.342-.1-.537-.465-.443-.826a.4.4 0 0 0-.26-.498c-.206-.061-.412.059-.471.28-.19.742.188 1.512.85 1.782l-.071.27c-.054.222.058.437.27.498.202.065.402-.061.461-.283l.071-.27c.702.114 1.407-.355 1.601-1.109.183-.693-.106-1.405-.672-1.753l-.817-.49c-.271-.164-.407-.518-.318-.84.1-.39.471-.615.837-.508l.428.124c.342.1.537.468.442.832-.059.222.053.436.26.498a.38.38 0 0 0 .472-.283c.189-.738-.19-1.512-.856-1.776" fill="#FFF"/>
            <g>
                <g transform="translate(12.874 36.935)">
                    <mask id="5pqnoy0d9h" fill="#fff">
                        <use xlink:href="#03bv4boq7g"/>
                    </mask>
                    <path fill="#FFF" mask="url(#5pqnoy0d9h)" d="M-.206 4.458H2.48v-4.65H-.206z"/>
                </g>
                <g transform="translate(29.763 47.114)">
                    <mask id="vm033ssn8j" fill="#fff">
                        <use xlink:href="#k3u9zmam2i"/>
                    </mask>
                    <path fill="#FFF" mask="url(#vm033ssn8j)" d="M-.206.761H2.48v-.954H-.206z"/>
                </g>
                <g transform="translate(15.472 37.592)">
                    <mask id="3oydz175il" fill="#fff">
                        <use xlink:href="#v9cwpfk3ik"/>
                    </mask>
                    <path fill="#FFF" mask="url(#3oydz175il)" d="M-.189 10.421h14.02V-.19H-.19z"/>
                </g>
                <g transform="translate(20.344 45.472)">
                    <mask id="klx6jnx4un" fill="#fff">
                        <use xlink:href="#rdnw6ek67m"/>
                    </mask>
                    <path fill="#FFF" mask="url(#klx6jnx4un)" d="M-.19 2.326h4.278V-.19H-.19z"/>
                </g>
            </g>
            <g transform="translate(75.024 40.614)">
                <mask id="6muvqi1xqp" fill="#fff">
                    <use xlink:href="#aee6vs39mo"/>
                </mask>
                <path fill="#FFF" mask="url(#6muvqi1xqp)" d="M-.206.761H2.48v-.954H-.206z"/>
            </g>
            <g transform="translate(49.094 39.135)">
                <mask id="arfidnjcsr" fill="#fff">
                    <use xlink:href="#6hzup18oaq"/>
                </mask>
                <path d="m1.594 3.97 1.62-2.387a.292.292 0 0 1 .487 0l1.62 2.387c.138.203-.003.484-.243.484h-3.24c-.241 0-.382-.28-.244-.484zM4.868.865h3.235c.242 0 .383.281.243.485L6.73 3.718a.292.292 0 0 1-.486 0L4.625 1.35c-.14-.204.002-.485.243-.485zm4.867.716 1.617 2.367c.14.204-.002.485-.243.485H7.313l-.014.02v-.02h.014l1.936-2.851a.292.292 0 0 1 .486-.001zM10.88.865h3.236c.241 0 .382.281.243.485L12.74 3.718a.292.292 0 0 1-.486 0L10.636 1.35c-.139-.204.002-.485.243-.485zm4.89.736 1.617 2.368c.139.204-.002.485-.243.485h-3.236c-.24 0-.382-.281-.243-.485L15.282 1.6a.292.292 0 0 1 .486 0zM.022 5.087c.022.021.045.063.067.084L3.93 9.1h1.26L1.984 5.825c-.189-.194-.056-.527.21-.527h3.74c.127 0 .24.085.281.21l1.168 3.59h.949L7.228 5.705c-.065-.2.079-.406.282-.406h3.963c.203 0 .347.207.282.406l-1.104 3.395h.949l1.168-3.591a.298.298 0 0 1 .282-.21h3.74c.265 0 .398.333.209.527l-3.206 3.274h1.226l3.85-3.949c.023-.02.046-.042.069-.084v-.02c.022-.022.022-.043.022-.086v-.126c0-.042 0-.063-.022-.106v-.021c0-.021-.023-.042-.046-.063v-.021L15.886.19 15.82.127s-.022 0-.022-.022c-.023-.02-.046-.02-.068-.042 0 0-.023 0-.023-.02-.023 0-.045-.022-.068-.022h-.022c-.023 0-.068-.021-.113-.021H3.458c-.046 0-.068 0-.113.02h-.023c-.023 0-.045.022-.068.022 0 0-.022 0-.022.021-.023.042-.046.042-.068.064 0 0-.023 0-.023.02l-.067.064L.068 4.644v.021c-.023.021-.023.042-.045.063v.021C0 4.792 0 4.813 0 4.855v.126c0 .022.023.043.023.085v.021z" fill="#FFF" mask="url(#arfidnjcsr)"/>
            </g>
            <rect stroke="#073B4C" stroke-width="4.333" x="2.167" y="2.851" width="110.118" height="44.66" rx="22.33"/>
            <path fill="#073B4C" d="M36.4.684H39v47.45h-2.6zM75.452.684h2.6v47.45h-2.6z"/>
        </g>
        <g transform="rotate(-24 87.243 -.633)">
            <mask id="lapqmjvwat" fill="#fff">
                <use xlink:href="#nj27bt5mhs"/>
            </mask>
            <path d="M4.25.304a.304.304 0 1 0-.607 0 3.346 3.346 0 0 1-3.34 3.343.304.304 0 0 0 0 .608c1.841 0 3.34 1.5 3.34 3.344a.304.304 0 1 0 .607 0 3.346 3.346 0 0 1 3.339-3.344.304.304 0 0 0 0-.608c-1.84 0-3.34-1.5-3.34-3.343z" fill="#72EFD3" mask="url(#lapqmjvwat)"/>
        </g>
        <g transform="rotate(-24 129.066 -199.47)">
            <mask id="2z4e84uxcv" fill="#fff">
                <use xlink:href="#pbzlkzsl7u"/>
            </mask>
            <path d="M4.25.304a.304.304 0 1 0-.607 0 3.346 3.346 0 0 1-3.34 3.343.304.304 0 0 0 0 .608c1.841 0 3.34 1.5 3.34 3.344a.304.304 0 1 0 .607 0 3.346 3.346 0 0 1 3.339-3.344.304.304 0 0 0 0-.608c-1.84 0-3.34-1.5-3.34-3.343zM-9.354-29.24a.304.304 0 1 0-.607 0 3.346 3.346 0 0 1-3.34 3.343.304.304 0 0 0 0 .608c1.841 0 3.34 1.5 3.34 3.343a.304.304 0 1 0 .607 0 3.346 3.346 0 0 1 3.34-3.343.304.304 0 0 0 0-.608c-1.842 0-3.34-1.5-3.34-3.343z" fill="#72EFD3" mask="url(#2z4e84uxcv)"/>
        </g>
        <g transform="rotate(-24 259.288 -36.165)">
            <mask id="we5t38syvx" fill="#fff">
                <use xlink:href="#l5gl3b9rsw"/>
            </mask>
            <path d="M6.3.45a.45.45 0 0 0-.9 0A4.956 4.956 0 0 1 .45 5.4a.45.45 0 0 0 0 .9 4.956 4.956 0 0 1 4.95 4.95.45.45 0 0 0 .9 0 4.956 4.956 0 0 1 4.95-4.95.45.45 0 0 0 0-.9A4.956 4.956 0 0 1 6.3.45zM-14.263-42.858a.45.45 0 0 0-.9 0 4.956 4.956 0 0 1-4.95 4.95.45.45 0 0 0 0 .9 4.956 4.956 0 0 1 4.95 4.95.45.45 0 0 0 .9 0 4.956 4.956 0 0 1 4.95-4.95.45.45 0 0 0 0-.9 4.956 4.956 0 0 1-4.95-4.95z" fill="#72EFD3" mask="url(#we5t38syvx)"/>
        </g>
        <g transform="rotate(-24 52.451 -55.71)">
            <mask id="j3fgeso2wz" fill="#fff">
                <use xlink:href="#i3xs581fdy"/>
            </mask>
            <path d="M9.1.65a.65.65 0 0 0-1.3 0C7.8 4.592 4.592 7.8.65 7.8a.65.65 0 0 0 0 1.3c3.942 0 7.15 3.208 7.15 7.15a.65.65 0 0 0 1.3 0c0-3.942 3.208-7.15 7.15-7.15a.65.65 0 0 0 0-1.3C12.308 7.8 9.1 4.592 9.1.65z" fill="#72EFD3" mask="url(#j3fgeso2wz)"/>
        </g>
        <path d="M83.85 116.845c.402 0 .765.163 1.029.426a1.45 1.45 0 0 1-.001 2.057 1.452 1.452 0 0 1-2.057 0 1.45 1.45 0 0 1-.426-1.028c0-.402.163-.765.426-1.029a1.45 1.45 0 0 1 1.029-.426z" stroke="#72EFD3" stroke-width="2.291"/>
        <g transform="rotate(-24 289.086 -213.424)">
            <mask id="wij5katdxB" fill="#fff">
                <use xlink:href="#owuri03czA"/>
            </mask>
            <path d="M4.25.304a.304.304 0 1 0-.607 0 3.346 3.346 0 0 1-3.34 3.343.304.304 0 0 0 0 .608c1.841 0 3.34 1.5 3.34 3.344a.304.304 0 1 0 .607 0 3.346 3.346 0 0 1 3.339-3.344.304.304 0 0 0 0-.608c-1.84 0-3.34-1.5-3.34-3.343zM-9.354-29.24a.304.304 0 1 0-.607 0 3.346 3.346 0 0 1-3.34 3.343.304.304 0 0 0 0 .608c1.841 0 3.34 1.5 3.34 3.343a.304.304 0 1 0 .607 0 3.346 3.346 0 0 1 3.34-3.343.304.304 0 0 0 0-.608c-1.842 0-3.34-1.5-3.34-3.343z" fill="#72EFD3" mask="url(#wij5katdxB)"/>
        </g>
        <g transform="translate(7.654 111.508)">
            <mask id="xf4mpo0h1D" fill="#fff">
                <use xlink:href="#dag2yrtahC"/>
            </mask>
            <path fill="#FFD166" mask="url(#xf4mpo0h1D)" d="M-4.496 14.03h18.518V-4.497H-4.496z"/>
        </g>
        <g transform="translate(83.167 14.566)">
            <mask id="c37uoc0epF" fill="#fff">
                <use xlink:href="#8ue94ad9iE"/>
            </mask>
            <path fill="#FFD166" mask="url(#c37uoc0epF)" d="M-2.89 9.018H9.012v-11.91H-2.89z"/>
        </g>
    </g>
</svg>
