<svg width="140" height="140" viewBox="0 0 140 140" xmlns="http://www.w3.org/2000/svg" xmlns:xlink="http://www.w3.org/1999/xlink">
    <defs>
        <path d="M0 4.2a4.2 4.2 0 0 0 8.4 0 4.2 4.2 0 1 0-8.4 0z" id="5emiuxfwea"/>
        <path d="M0 2.1a2.1 2.1 0 0 0 4.2 0 2.1 2.1 0 1 0-4.2 0z" id="p0swtaznlc"/>
        <path d="M5.102.21 3.796 1.518l-.048.05c-.248.306-.208.779.104 1.089.33.33.84.356 1.14.056l1.307-1.307.046-.053c.248-.303.209-.776-.102-1.087A.886.886 0 0 0 5.621 0a.726.726 0 0 0-.519.21zM.265.266c-.33.33-.355.841-.057 1.14l1.309 1.308.052.046c.303.249.775.21 1.087-.103.33-.33.355-.84.056-1.14L1.404.21 1.353.162A.725.725 0 0 0 .887 0a.89.89 0 0 0-.622.266zm3.587 3.587c-.33.331-.356.842-.057 1.14l1.308 1.309.052.047c.303.25.776.209 1.088-.103.33-.33.356-.842.056-1.14L4.991 3.796 4.94 3.75a.73.73 0 0 0-.466-.161.884.884 0 0 0-.621.264zm-2.335-.055L.209 5.104l-.046.054c-.25.303-.21.776.102 1.088.33.33.84.355 1.14.056L2.71 4.993l.048-.05c.248-.305.21-.779-.103-1.09a.884.884 0 0 0-.62-.264.72.72 0 0 0-.52.21z" id="fp910oxxfe"/>
        <path d="M5.102.21 3.796 1.518l-.048.05c-.248.306-.208.779.104 1.089.33.33.84.356 1.14.056l1.307-1.307.046-.053c.248-.303.209-.776-.102-1.087A.886.886 0 0 0 5.621 0a.726.726 0 0 0-.519.21zM.265.266c-.33.33-.355.841-.057 1.14l1.309 1.308.052.046c.303.249.775.21 1.087-.103.33-.33.355-.84.056-1.14L1.404.21 1.353.162A.725.725 0 0 0 .887 0a.89.89 0 0 0-.622.266zm3.587 3.587c-.33.331-.356.842-.057 1.14l1.308 1.309.052.047c.303.25.776.209 1.088-.103.33-.33.356-.842.056-1.14L4.991 3.796 4.94 3.75a.73.73 0 0 0-.466-.161.884.884 0 0 0-.621.264zm-2.335-.055L.209 5.104l-.046.054c-.25.303-.21.776.102 1.088.33.33.84.355 1.14.056L2.71 4.993l.048-.05c.248-.305.21-.779-.103-1.09a.884.884 0 0 0-.62-.264.72.72 0 0 0-.52.21z" id="5vppqyt4fg"/>
        <path d="M5.102.21 3.796 1.519l-.048.052c-.248.304-.208.777.104 1.088.329.33.839.355 1.138.056l1.308-1.307.047-.053c.249-.304.21-.776-.103-1.088A.881.881 0 0 0 5.621 0a.723.723 0 0 0-.519.21zM.264.267c-.328.33-.354.841-.056 1.14l1.308 1.308.053.047c.302.249.775.208 1.086-.103.331-.33.356-.84.057-1.14L1.404.21 1.353.163A.729.729 0 0 0 .886 0a.887.887 0 0 0-.622.266zm3.588 3.588c-.33.33-.356.84-.057 1.14l1.309 1.308.051.047c.303.248.775.21 1.087-.103.33-.33.356-.84.056-1.14L4.99 3.797l-.05-.047a.736.736 0 0 0-.467-.161.881.881 0 0 0-.621.265zm-2.336-.056L.209 5.105l-.046.053c-.25.304-.21.776.101 1.088.331.33.841.355 1.14.056l1.307-1.309.048-.05c.249-.305.208-.778-.104-1.089a.884.884 0 0 0-.62-.264.726.726 0 0 0-.52.208z" id="1ilnx4vafi"/>
        <path d="M6.587.27 4.899 1.957l-.06.066c-.321.393-.27 1.003.132 1.404.426.427 1.086.46 1.472.072L8.13 1.813l.061-.067c.321-.392.269-1.002-.133-1.405A1.14 1.14 0 0 0 7.257 0a.935.935 0 0 0-.67.27zM.342.34C-.084.768-.116 1.426.27 1.811l1.689 1.69.066.06c.39.32 1 .27 1.403-.134.427-.425.46-1.083.073-1.47L1.813.269l-.067-.06A.948.948 0 0 0 1.143 0C.86 0 .569.115.342.341zm4.63 4.63c-.427.427-.458 1.084-.073 1.47l1.689 1.69.065.06c.393.32 1.003.27 1.405-.133.426-.427.458-1.085.072-1.47l-1.688-1.69-.066-.06a.945.945 0 0 0-.602-.209c-.283 0-.575.116-.803.342zm-3.014-.072L.271 6.587l-.061.067c-.322.392-.27 1.001.132 1.404.426.426 1.084.458 1.472.071L3.5 6.443l.062-.067c.32-.393.269-1.003-.134-1.405a1.14 1.14 0 0 0-.801-.341.935.935 0 0 0-.669.269z" id="ghgjzlr3uk"/>
    </defs>
    <g fill="none" fill-rule="evenodd">
        <path d="M111.15 39.784c-.623-1.744-3.681-2.434-6.882-1.246-3.201 1.188-5.11 3.721-4.487 5.466.623 1.744 3.681 2.434 6.882 1.246 3.201-1.188 5.11-3.721 4.487-5.466zM96.657 35.474c-.898 1.265-.339 3.462 1.391 4.845l.09.07.089.067.098.068.092-.17c.764-1.344 2.075-2.564 3.703-3.446l.235-.124.06-.03-.049-.076c-.2-.29-.436-.566-.702-.817l-.163-.148-.17-.142c-1.712-1.368-3.795-1.335-4.674-.097zM104.75 33.889a5.692 5.692 0 0 0-.115 1.696l.026.232.01.075.246-.062c1.643-.4 3.258-.395 4.604.01l.222.07.154.056.013-.035.075-.226.065-.232.057-.237c.49-2.25-.408-4.304-1.83-4.653-1.406-.344-3.04 1.066-3.528 3.306z" fill="#FFF" fill-rule="nonzero"/>
        <path d="M107.813 28.028c2.634.22 4.486 3.115 4.3 6.375a7.675 7.675 0 0 1-.254 1.572 4.13 4.13 0 0 1 1.755 1.693c1.514 2.771-.53 6.617-4.313 8.745-3.783 2.129-8.08 1.85-9.592-.92a4.165 4.165 0 0 1-.501-2.124 6.896 6.896 0 0 1-1.043-.486c-2.752-1.566-4.115-4.732-2.914-7.153 1.216-2.452 4.489-3.025 7.262-1.447.093.053.185.108.275.165-.011-.26-.01-.523.006-.787.187-3.272 2.37-5.854 5.02-5.633zm4.133 10.58c-.888-1.627-4.017-1.83-6.993-.155-2.975 1.674-4.464 4.475-3.576 6.1.888 1.626 4.017 1.829 6.992.155 2.976-1.675 4.464-4.475 3.577-6.1zm-14.989-1.991c-.69 1.39.207 3.472 2.132 4.568l.099.055.099.052.107.052.065-.181c.544-1.448 1.648-2.858 3.118-3.984l.212-.159.056-.04-.061-.067a5.159 5.159 0 0 0-.82-.697l-.185-.12-.19-.114c-1.905-1.084-3.957-.725-4.632.635zm7.745-2.831c-.034.588.02 1.162.152 1.693l.062.224.022.073.233-.1c1.56-.65 3.156-.9 4.549-.71l.23.035.16.031.009-.036.038-.236.028-.24.02-.242c.13-2.3-1.077-4.188-2.536-4.31-1.443-.12-2.836 1.529-2.967 3.818z" fill="#073B4C" fill-rule="nonzero"/>
        <path d="M112.54 49.35c12.317 11.601 10.743 20.631-4.721 27.09-23.197 9.687-43.471 3.15-25.555 13.045" stroke="#073B4C" stroke-width="1.975" stroke-linecap="round" stroke-dasharray="4.608"/>
        <path d="M51.21 123.9a4.313 4.313 0 0 1-4.31-4.317V91.7h45.618a2.684 2.684 0 0 1 2.682 2.687v25.196a4.313 4.313 0 0 1-4.31 4.317H51.21z" fill="#E9F4FC"/>
        <path d="M90.89 123.9H51.21a4.313 4.313 0 0 1-4.31-4.317V91.7h45.618a2.684 2.684 0 0 1 2.682 2.687v25.196a4.313 4.313 0 0 1-4.31 4.317z" stroke="#073B4C" stroke-width="2.1" stroke-linecap="round" stroke-linejoin="round"/>
        <path fill="#FFD166" d="M64.4 108.94V91.7h13.3v32.2H64.4v-9.257"/>
        <path stroke="#073B4C" stroke-width="2.1" stroke-linecap="round" stroke-linejoin="round" d="M64.4 108.94V91.7h13.3v32.2H64.4v-9.257"/>
        <path d="M61.742 83.3c2.038-.442 5.008-3.246 5.008-3.246 2.65-2.422 3.766-5.215 3.026-7.852-.725-2.585-3.162-4.353-5.925-4.3-2.009.037-3.847.968-5.373 2.642-1.373 1.507-2.495 3.616-3.26 6.216 0 0-.844 3.444-.56 5.116" fill="#FFD166"/>
        <path d="M56.7 72.8c-.602 1.144-1.115 2.467-1.521 3.948 0 0-.791 3.468-.524 5.152" fill="#FFD166"/>
        <path d="M56.7 72.8c-.602 1.144-1.115 2.467-1.521 3.948 0 0-.791 3.468-.524 5.152" stroke="#073B4C" stroke-width="2.1" stroke-linecap="round" stroke-linejoin="round"/>
        <path d="M61.973 83.3c1.98-.442 4.868-3.246 4.868-3.246 2.576-2.422 3.66-5.215 2.941-7.852a5.84 5.84 0 0 0-5.76-4.3c-1.952.037-3.739.968-5.222 2.642" fill="#FFD166"/>
        <path d="M61.973 83.3c1.98-.442 4.868-3.246 4.868-3.246 2.576-2.422 3.66-5.215 2.941-7.852a5.84 5.84 0 0 0-5.76-4.3c-1.952.037-3.739.968-5.222 2.642" stroke="#073B4C" stroke-width="2.1" stroke-linecap="round" stroke-linejoin="round"/>
        <path d="M53.2 82.226c-.995-1.376-4.042-3.189-4.042-3.189-5.044-2.693-9.625-2.722-12.333-.048-1.96 1.936-2.392 4.915-1.05 7.245 1.368 2.377 4.139 3.54 7.712 3.345 0 0 4.07-.154 5.802-1.299" fill="#FFD166"/>
        <path d="M53.2 82.226c-.995-1.376-4.042-3.189-4.042-3.189-5.044-2.693-9.625-2.722-12.333-.048-1.96 1.936-2.392 4.915-1.05 7.245 1.368 2.377 4.139 3.54 7.712 3.345 0 0 4.07-.154 5.802-1.299M63.7 72.8c-1.01 1.04-1.97 2.298-2.85 3.757 0 0-1.882 3.465-2.05 5.343" stroke="#073B4C" stroke-width="2.1" stroke-linecap="round" stroke-linejoin="round"/>
        <path d="M51.8 85.4c-1.441-1.166-5.183-2.221-5.183-2.221-1.637-.382-3.186-.573-4.617-.579" stroke="#073B4C" stroke-width="2.1" stroke-linecap="round" stroke-linejoin="round"/>
        <path d="m79.328 84.95-40.58 17.1a1.912 1.912 0 0 1-2.505-1.024l-1.793-4.268a1.917 1.917 0 0 1 1.022-2.509l40.58-17.099a1.912 1.912 0 0 1 2.505 1.024l1.793 4.267a1.917 1.917 0 0 1-1.022 2.51" fill="#E9F4FC"/>
        <path d="m79.328 84.95-40.58 17.1a1.912 1.912 0 0 1-2.505-1.024l-1.793-4.268a1.917 1.917 0 0 1 1.022-2.509l40.58-17.099a1.912 1.912 0 0 1 2.505 1.024l1.793 4.267a1.917 1.917 0 0 1-1.022 2.51z" stroke="#073B4C" stroke-width="2.1" stroke-linecap="round" stroke-linejoin="round"/>
        <path fill="#FFD166" d="M51.434 92.189 49.7 87.91 61.862 82.6l3.238 7.989L52.938 95.9l-.931-2.297z"/>
        <path stroke="#073B4C" stroke-width="2.1" stroke-linecap="round" stroke-linejoin="round" d="M51.434 92.189 49.7 87.91 61.862 82.6l3.238 7.989L52.938 95.9l-.931-2.297z"/>
        <path d="m48.13 83.503 10.743-4.337c.447-.18.96.021 1.149.45l1.578 3.599L49.25 88.2l-1.582-3.61a.819.819 0 0 1 .462-1.087" fill="#E9F4FC"/>
        <path d="m48.13 83.503 10.743-4.337c.447-.18.96.021 1.149.45l1.578 3.599L49.25 88.2l-1.582-3.61a.819.819 0 0 1 .462-1.087z" stroke="#073B4C" stroke-width="2.1" stroke-linecap="round" stroke-linejoin="round"/>
        <g transform="translate(70.7 50.4)">
            <mask id="zdvzuc47gb" fill="#fff">
                <use xlink:href="#5emiuxfwea"/>
            </mask>
            <path fill="#FFD166" mask="url(#zdvzuc47gb)" d="M-4.2 11.9h16.1V-4.2H-4.2z"/>
        </g>
        <g transform="translate(114.1 88.2)">
            <mask id="8vpnmhrmud" fill="#fff">
                <use xlink:href="#p0swtaznlc"/>
            </mask>
            <path fill="#FFD166" mask="url(#8vpnmhrmud)" d="M-2.1 6.3h8.4v-8.4h-8.4z"/>
        </g>
        <g transform="translate(17.451 109.286)">
            <mask id="4m29mk82jf" fill="#fff">
                <use xlink:href="#fp910oxxfe"/>
            </mask>
            <path fill="#215B58" mask="url(#4m29mk82jf)" d="m3.253-10.061 13.31 13.316-13.31 13.317-13.308-13.317z"/>
        </g>
        <g transform="translate(23.751 55.386)">
            <mask id="nzpmn1e86h" fill="#fff">
                <use xlink:href="#5vppqyt4fg"/>
            </mask>
            <path fill="#215B58" mask="url(#nzpmn1e86h)" d="m3.253-10.061 13.31 13.316-13.31 13.317-13.308-13.317z"/>
        </g>
        <g transform="translate(66.5 20.624)">
            <mask id="xuuu3luxzj" fill="#fff">
                <use xlink:href="#1ilnx4vafi"/>
            </mask>
            <path fill="#215B58" mask="url(#xuuu3luxzj)" d="m3.253-10.06 13.31 13.317-13.31 13.316-13.309-13.316z"/>
        </g>
        <g transform="translate(118.3 115.5)">
            <mask id="1k7waemmvl" fill="#fff">
                <use xlink:href="#ghgjzlr3uk"/>
            </mask>
            <path fill="#215B58" mask="url(#1k7waemmvl)" d="M4.55-12.6 21.7 4.55 4.55 21.7-12.6 4.55z"/>
        </g>
    </g>
</svg>
