<svg width="158" height="142" viewBox="0 0 158 142" xmlns="http://www.w3.org/2000/svg">
    <g fill="none" fill-rule="evenodd">
        <path d="M19.55 40.107c-.24-1.864 2.206-3.895 5.646-4.295 3.44-.4 6.33 1.01 6.571 2.873.241 1.864-2.205 3.895-5.645 4.296-3.44.4-6.331-1.01-6.572-2.874zM30.663 29.538c1.395.73 1.9 2.972.974 5.02l-.049.103-.05.102-.056.107-.162-.11c-1.31-.864-3.056-1.363-4.933-1.41l-.27-.004h-.069l.01-.09c.048-.356.134-.713.258-1.063l.08-.208.088-.207c.916-2.025 2.815-2.954 4.179-2.24zM22.62 31.832c.378.462.676.966.884 1.48l.084.221.025.073-.25.057c-1.67.396-3.127 1.143-4.157 2.129l-.168.166-.113.121-.029-.025-.171-.17-.166-.18-.16-.188c-1.48-1.808-1.614-4.078-.49-5.047 1.113-.96 3.24-.437 4.711 1.363z" fill="#FFF" fill-rule="nonzero"/>
        <path d="M17.152 27.946c-2.279 1.411-2.62 4.88-.95 7.74.278.475.598.913.953 1.305a4.189 4.189 0 0 0-.806 2.338c-.092 3.201 3.526 5.736 7.925 5.918 4.398.181 8.153-2.05 8.245-5.25a4.224 4.224 0 0 0-.526-2.15c.261-.28.502-.588.72-.919 1.765-2.682 1.54-6.171-.66-7.806-2.23-1.656-5.45-.667-7.23 2.036-.06.091-.118.183-.173.276a7.873 7.873 0 0 0-.368-.71c-1.675-2.87-4.837-4.198-7.13-2.778zm1.137 11.463c.054-1.878 2.788-3.502 6.248-3.359 3.46.143 6.095 1.989 6.041 3.867-.054 1.878-2.788 3.502-6.248 3.359-3.46-.143-6.095-1.989-6.04-3.867zm12.629-8.7c1.264.94 1.412 3.233.177 5.11l-.064.095-.066.093-.072.096-.143-.134c-1.158-1.058-2.805-1.824-4.652-2.164l-.265-.046-.068-.01.024-.089c.102-.343.243-.682.42-1.008l.112-.194.12-.19c1.221-1.857 3.241-2.477 4.477-1.56zm-8.302 1.007c.3.517.516 1.06.641 1.6l.048.232.013.077-.256.016c-1.71.13-3.266.64-4.438 1.453l-.192.138-.13.102-.025-.03-.143-.195-.136-.203-.129-.21c-1.177-2.018-.955-4.28.307-5.063 1.249-.773 3.267.075 4.44 2.083z" fill="#073B4C" fill-rule="nonzero"/>
        <path d="M22.7 49.39c-5.79 16.158-.21 23.594 16.74 22.31 25.424-1.927 40.736-17.171 29.101.022" stroke="#073B4C" stroke-width="1.202" stroke-linecap="round" stroke-dasharray="2.804"/>
        <g fill-rule="nonzero">
            <path d="m107.474 24.55 23.239 22.017-.109 75.474c-.005 3.882-3.17 7.034-7.069 7.04l-66.178.094c-3.898.005-7.054-3.137-7.049-7.02l.13-90.495c.006-3.881 3.17-7.033 7.07-7.038l49.966-.072z" fill="#FFF"/>
            <path d="m107.474 24.55 23.239 22.017-.109 75.474c-.005 3.882-3.17 7.034-7.069 7.04l-66.178.094c-3.898.005-7.054-3.137-7.049-7.02l.13-90.495c.006-3.881 3.17-7.033 7.07-7.038l49.966-.072zm-.886 2.198-49.084.07c-2.615.004-4.75 2.066-4.856 4.645l-.004.194-.13 90.496c-.004 2.603 2.062 4.723 4.651 4.821l.195.004 66.178-.094c2.615-.004 4.75-2.066 4.856-4.645l.004-.195.107-74.53-21.917-20.766zM88.804 44.126a1.097 1.097 0 0 1 .11 2.19l-.114.006-29.118.042a1.097 1.097 0 0 1-.11-2.191l.113-.006 29.119-.041zm-11.461-7.013a1.097 1.097 0 0 1 .11 2.19l-.113.007-17.648.025a1.097 1.097 0 0 1-.11-2.19l.113-.007 17.648-.025z" fill="#073B4C"/>
            <path d="m107.783 24.543 22.953 21.753v1.952h-17.66c-3.901 0-7.064-3.144-7.064-7.023V24.543h1.77zm19.498 21.51L108.22 27.99v13.236c0 2.602 2.07 4.723 4.66 4.825l.196.004h14.205z" fill="#073B4C"/>
            <path d="m127.26 46.048-19.021-18.05-.02 13.245c-.003 2.603 2.062 4.723 4.652 4.821l.195.004 14.195-.02z" fill="#E9F4FC"/>
        </g>
        <path d="M130.314 120.435c13.284 0 26.141-11.925 26.141-25.131 0-13.207-12.846-24.444-26.13-24.444-13.285 0-24.054 10.706-24.054 23.912 0 13.207 10.758 25.663 24.043 25.663z" fill="#FFD166"/>
        <path d="M131.05 68.35c-14.725 0-26.66 11.941-26.66 26.67 0 14.728 11.935 26.67 26.66 26.67s26.66-11.942 26.66-26.67c0-14.729-11.935-26.67-26.66-26.67zm0 2.356c13.422 0 24.302 10.885 24.302 24.314 0 13.428-10.88 24.314-24.302 24.314-13.422 0-24.303-10.886-24.303-24.314 0-13.429 10.88-24.314 24.303-24.314z" fill="#073B4C" fill-rule="nonzero"/>
        <g fill="#073B4C">
            <path d="M141.922 81.528c.404 0 .733.333.733.742 0 .41-.33.743-.733.743h-2.787v5.028c0 1.842-.903 3.55-2.415 4.57l-4.035 2.723 4.034 2.722a5.496 5.496 0 0 1 2.416 4.57v5.029h2.787c.404 0 .733.333.733.742 0 .41-.33.742-.733.742h-21.117a.739.739 0 0 1-.733-.742c0-.41.329-.742.733-.742h2.786v-5.028c0-1.842.903-3.55 2.416-4.57l4.035-2.723-4.034-2.723a5.496 5.496 0 0 1-2.417-4.57v-5.028h-2.786a.739.739 0 0 1-.733-.743c0-.409.329-.742.733-.742zm-10.559 14.698-4.543 3.066a4.01 4.01 0 0 0-1.762 3.335v5.028h12.611v-5.028a4.01 4.01 0 0 0-1.763-3.335l-4.543-3.066zm-1.105 5a1.681 1.681 0 0 1 2.21 0c.04.034 3.094 2.643 3.906 3.521l.026.03c.54.587.126 1.543-.667 1.543h-8.74c-.793 0-1.206-.956-.667-1.544l.027-.029c.314-.34.964-.939 1.646-1.548l.342-.304c.967-.857 1.896-1.65 1.917-1.67zm7.41-18.213h-12.61v5.028c0 1.344.659 2.59 1.763 3.335l4.542 3.066 4.544-3.067a4.01 4.01 0 0 0 1.762-3.334v-5.028z"/>
        </g>
        <path d="M110.662 71.488c-1.039 0-1.882-.859-1.882-1.918v-3.068c0-1.059.843-1.917 1.882-1.917 1.04 0 1.882.858 1.882 1.917v3.068c0 1.06-.842 1.918-1.882 1.918zM75.533 71.488c-1.039 0-1.881-.859-1.881-1.918v-3.068c0-1.059.842-1.917 1.881-1.917 1.04 0 1.882.858 1.882 1.917v3.068c0 1.06-.842 1.918-1.882 1.918z" fill="#073B4C" fill-rule="nonzero"/>
        <path d="M93.075 79.646c-3.89 0-9.615 5.055-7.779 6.618.865.735 4.576-.721 7.78-.662 3.598.066 6.728 1.555 7.778.662 1.985-1.69-3.89-6.618-7.779-6.618z" fill="#FFD166"/>
        <path d="M92.762 78.39c-2.21 0-4.917 1.233-7.029 2.993l-.137.115-.265.233c-2.163 1.944-3.102 4.069-1.371 5.488.613.503 1.353.577 2.442.466l.308-.035a16.6 16.6 0 0 0 .337-.046l.375-.059 2.015-.352.647-.105.392-.057.37-.048.355-.04.176-.016a12.44 12.44 0 0 1 1.36-.058 17.12 17.12 0 0 1 2.508.245l.532.09 1.945.37.414.074.37.058c.174.025.337.045.493.06 1.09.108 1.904-.005 2.564-.547 1.75-1.434.903-3.529-1.19-5.43l-.262-.232-.275-.23c-2.113-1.723-4.863-2.937-7.074-2.937zm.505 2.092c1.53 0 3.753.967 5.453 2.331.769.618 1.329 1.243 1.57 1.725l.057.125-.034.002a3.865 3.865 0 0 1-.46-.022l-.255-.029a10.638 10.638 0 0 1-.14-.02l-.313-.048-.797-.145-.937-.178c-1.646-.31-2.835-.465-4.12-.488a15.52 15.52 0 0 0-1.678.069l-.218.02-.44.05-.224.028-.465.064-.497.076-.265.044-1.894.327-.355.057-.31.046-.14.018-.254.03-.237.018-.012.022c.253-.491.818-1.127 1.58-1.753 1.697-1.392 3.876-2.369 5.385-2.369z" fill="#073B4C" fill-rule="nonzero"/>
    </g>
</svg>
