<svg width="24" height="24" viewBox="0 0 24 24" xmlns="http://www.w3.org/2000/svg">
    <defs>
        <clipPath id="36k5jl9hpa">
            <path d="M360 0v640H0V0h360z"/>
        </clipPath>
        <clipPath id="lyv17izs2b">
            <path d="m19.038.748.131.135c.803.88.795 1.999.091 2.893-.376.479-.944.897-1.644 1.25 2.811.215 4.888 1.874 5.739 4.376.044.13.208.53.225.6.028.11.014.527-.07.697a3.017 3.017 0 0 1-.73 1.445V16.9c0 4.097-2.603 6.977-6.547 7.095L15.98 24H7.578c-4 0-6.684-2.795-6.794-6.84L.78 16.9v-4.567c-.525-.46-.832-1.157-.773-2.093a.496.496 0 0 1 .008-.18c.696-2.865 2.883-4.8 5.929-5.036-.7-.351-1.268-.77-1.644-1.248-.704-.894-.712-2.013.09-2.893l.132-.135c1.245-1.204 3.12-.865 4.905.38.505.353.963.743 1.337 1.15A1.984 1.984 0 0 1 11.78 2c.388 0 .751.11 1.058.302l-.042-.025a8.242 8.242 0 0 1 1.337-1.149c1.784-1.245 3.66-1.584 4.905-.38zM2.581 12.995v3.906c0 3.135 1.839 5.192 4.764 5.295l.233.004 1.202-.001V13h-6c-.067 0-.134-.002-.2-.005zm18.4-.002a3 3 0 0 1-.2.007H14.78v9.199l1.2.001c2.983 0 4.9-1.976 4.996-5.054l.004-.245v-3.908zM12.78 13h-2v9.199h2V13zm-4-6.2H6.578c-2.507 0-4.266 1.406-4.816 3.687.212.274.576.468.901.506L2.78 11h6V6.8zm4 0h-2V11h2V6.8zm4.2 0h-2.2V11h6c.365 0 .79-.196 1.024-.488-.524-2.226-2.192-3.623-4.59-3.708l-.233-.004zM11.78 3a1 1 0 1 0 0 2 1 1 0 0 0 0-2zm3.36-.136-.2.146c-.33.25-.624.524-.85.786l-.118.143h.015c.103-.004.215-.012.335-.025a7.937 7.937 0 0 0 2.089-.564c.613-.259 1.096-.56 1.352-.829l.077-.088a.202.202 0 0 1 .051-.05l.011-.005c-.003 0-.013 0-.03-.013l-.03-.028c-.438-.48-1.509-.306-2.701.527zm-9.423-.527-.03.028c-.016.012-.026.013-.029.013l.01.004c.011.007.028.02.053.051l.076.088c.256.268.739.57 1.352.83a7.937 7.937 0 0 0 2.09.563c.119.013.231.021.334.025h.015l-.117-.143a5.675 5.675 0 0 0-.85-.786l-.201-.146c-1.193-.833-2.264-1.008-2.703-.527z"/>
        </clipPath>
    </defs>
    <g clip-path="url(#36k5jl9hpa)" transform="translate(-15 -429)">
        <g clip-path="url(#lyv17izs2b)" transform="translate(15.22 429)">
            <path fill="#063B4C" d="M0 0h23.593v24H0V0z"/>
        </g>
    </g>
</svg>
