<svg width="15" height="15" viewBox="0 0 15 15" xmlns="http://www.w3.org/2000/svg">
    <path d="M4.863 10.875h7.224c.606 0 1.132-.409 1.279-.992l1.62-6.338A.436.436 0 0 0 14.561 3H2.99l-.26-.829a1.312 1.312 0 0 0-1.258-.921H.44a.438.438 0 1 0 0 .875h1.034c.194 0 .362.123.42.307.13.418 2.271 7.245 2.412 7.692-.449.21-.76.664-.76 1.188 0 .724.591 1.313 1.318 1.313h.515a1.317 1.317 0 0 0 1.243 1.75 1.317 1.317 0 0 0 1.243-1.75h1.909a1.317 1.317 0 0 0 1.243 1.75 1.317 1.317 0 0 0 1.242-1.75h.515a.438.438 0 1 0 0-.875h-7.91a.439.439 0 0 1-.44-.438c0-.24.198-.437.44-.437zm2.198 2.188a.439.439 0 0 1-.88 0 .439.439 0 0 1 .88 0zm4.394 0a.439.439 0 0 1-.879 0 .439.439 0 0 1 .88 0zm-1.377-5.688L9.748 10h-1.86l-.33-2.625h2.52zM7.448 6.5l-.33-2.625h3.4l-.33 2.625h-2.74zM7.002 10H5.186l-.823-2.625h2.31L7.003 10zm5.512-.331a.438.438 0 0 1-.427.331h-1.452l.33-2.625H13.1l-.586 2.294zm.81-3.169h-2.25l.33-2.625h2.591L13.324 6.5zm-7.09-2.625L6.562 6.5H4.089l-.823-2.625h2.967z" fill="currentColor" fill-rule="evenodd"/>
</svg>
