<svg width="30" height="30" viewBox="0 0 30 30" xmlns="http://www.w3.org/2000/svg">
    <path d="M15 0c8.284 0 15 6.716 15 15 0 8.284-6.716 15-15 15-8.283 0-15-6.717-15-15C0 6.717 6.717 0 15 0zm0 2.25C7.96 2.25 2.25 7.96 2.25 15S7.96 27.75 15 27.75c7.042 0 12.75-5.709 12.75-12.75S22.042 2.25 15 2.25zm7.72 15.969a1.026 1.026 0 0 1-.25 1.416c-1.966 1.386-4.527 2.153-7.274 2.153s-5.306-.767-7.272-2.153a1.026 1.026 0 0 1-.251-1.416.995.995 0 0 1 1.397-.255c1.62 1.142 3.778 1.79 6.126 1.79 2.348 0 4.508-.648 6.128-1.79a.995.995 0 0 1 1.397.255zM8.746 8.75c1.418 0 2.465.737 3.121 1.876.36.625.54 1.23.61 1.683a1.25 1.25 0 0 1-2.44.525l-.03-.143a2.622 2.622 0 0 0-.305-.817c-.245-.424-.529-.624-.956-.624-.743 0-1.09.347-1.26 1.441a1.25 1.25 0 0 1-2.47-.382c.347-2.24 1.664-3.559 3.73-3.559zm12.5 0c1.418 0 2.465.737 3.121 1.876.36.625.54 1.23.61 1.683a1.25 1.25 0 0 1-2.44.525l-.03-.143a2.622 2.622 0 0 0-.305-.817c-.245-.424-.529-.624-.956-.624-.743 0-1.09.347-1.26 1.441a1.25 1.25 0 0 1-2.47-.382c.347-2.24 1.664-3.559 3.73-3.559z" fill="currentColor" fill-rule="evenodd"/>
</svg>
