<svg width="30" height="30" viewBox="0 0 30 30" xmlns="http://www.w3.org/2000/svg">
    <path d="m26.815 3.21-.025-.026a2.628 2.628 0 0 0-3.184-.4C21.04.961 18.08 0 15 0c-3.079 0-6.04.96-8.606 2.784a2.627 2.627 0 0 0-3.183.4l-.027.026a2.628 2.628 0 0 0-.4 3.184C.961 8.96 0 11.92 0 15c0 3.079.96 6.04 2.784 8.606a2.628 2.628 0 0 0 .4 3.184l.026.026a2.628 2.628 0 0 0 3.184.4C8.96 29.039 11.92 30 15 30c3.079 0 6.04-.96 8.606-2.784a2.628 2.628 0 0 0 3.184-.4l.026-.026c.859-.861.991-2.178.4-3.184C29.039 21.04 30 18.08 30 15c0-3.079-.96-6.04-2.784-8.606a2.628 2.628 0 0 0-.4-3.184zm-2.493 1.225a.869.869 0 0 1 1.226-.007l.024.024a.869.869 0 0 1-.007 1.226l-4.388 4.387a7.981 7.981 0 0 0-1.242-1.242l4.387-4.388zM21.152 15A6.16 6.16 0 0 1 15 21.152 6.16 6.16 0 0 1 8.848 15 6.16 6.16 0 0 1 15 8.848 6.16 6.16 0 0 1 21.152 15zM15 1.758c2.585 0 5.08.772 7.272 2.241L18.41 7.863A7.862 7.862 0 0 0 15 7.09c-1.22 0-2.376.278-3.409.773L7.728 3.999C9.92 2.53 12.415 1.758 15 1.758zM4.428 4.452l.024-.024a.869.869 0 0 1 1.226.007l4.387 4.388a7.981 7.981 0 0 0-1.242 1.242L4.435 5.678a.869.869 0 0 1-.007-1.226zM1.758 15c0-2.585.772-5.08 2.241-7.272l3.864 3.863A7.863 7.863 0 0 0 7.09 15c0 1.22.278 2.376.773 3.409l-3.864 3.863C2.53 20.08 1.758 17.585 1.758 15zm3.92 10.565a.869.869 0 0 1-1.227.006l-.023-.023a.869.869 0 0 1 .007-1.226l4.388-4.387c.367.458.784.875 1.242 1.242l-4.387 4.388zM15 28.242c-2.585 0-5.08-.772-7.272-2.241l3.863-3.864A7.863 7.863 0 0 0 15 22.91c1.22 0 2.376-.278 3.409-.773l3.863 3.864C20.08 27.47 17.585 28.242 15 28.242zm10.572-2.694-.024.024a.869.869 0 0 1-1.226-.007l-4.387-4.388a7.979 7.979 0 0 0 1.242-1.242l4.388 4.387c.34.34.342.89.007 1.226zM28.242 15c0 2.585-.772 5.08-2.241 7.272l-3.864-3.863A7.863 7.863 0 0 0 22.91 15c0-1.22-.278-2.376-.773-3.409l3.864-3.863C27.47 9.92 28.242 12.415 28.242 15z" fill="currentColor" stroke="#073B4C" fill-rule="nonzero" />
</svg>