<svg width="30" height="30" viewBox="0 0 30 30" xmlns="http://www.w3.org/2000/svg">
    <path d="m13.123 6.114.343.306.406.354.46.393.333.279.35.288.366.294.378.297.388.297c.065.05.13.098.197.147l.398.292.401.283c1.408.974 2.831 1.748 3.77 1.716.555-.017 1.358-.505 2.151-1.116l.317-.25.157-.128.308-.261.298-.261.284-.258.393-.367.12-.114a.506.506 0 0 1 .85.29l.006.069.19 11.4c.008.526-.32.994-.806 1.17l-.1.031L9.57 25.422a1.272 1.272 0 0 1-1.386-.523l-.057-.093-5.482-9.943a.506.506 0 0 1 .495-.75l.067.013.505.12.366.081.382.08.394.075.4.068c1.135.18 2.269.248 2.823-.05.736-.397 1.491-1.563 2.166-2.927l.21-.436.204-.446.1-.225.194-.452.186-.45.178-.447.168-.437.235-.63.21-.588.29-.848.092-.281a.5.5 0 0 1 .813-.219zm8.307 10.779-2.777.744a.305.305 0 0 0-.217.36c.443 2.03 3.282 2.253 3.377-.803a.304.304 0 0 0-.324-.311l-.059.01zm-5.714-1.64a.832.832 0 1 0 .431 1.608.832.832 0 0 0-.431-1.608zm5.799-1.553a.832.832 0 1 0 .432 1.607.832.832 0 0 0-.432-1.607z" fill="#FFD166" fill-rule="evenodd"/>
</svg>
