<svg width="24" height="24" viewBox="0 0 24 24" xmlns="http://www.w3.org/2000/svg">
    <path d="M9.453 14.473C3.416 14.473 0 15.582 0 18.724 0 21.87 3.432 23 9.453 23l.772-.006c5.553-.094 8.68-1.24 8.68-4.245 0-3.078-3.284-4.226-9.063-4.275l-.39-.001zm0 1.743c5.041 0 7.652.86 7.652 2.533 0 1.663-2.604 2.508-7.652 2.508-5.042 0-7.653-.86-7.653-2.533 0-1.618 2.464-2.462 7.249-2.506l.404-.002zM9.453 0C5.913 0 3.07 2.751 3.07 6.179c0 3.427 2.842 6.179 6.382 6.179 3.54 0 6.381-2.752 6.381-6.18C15.834 2.752 12.993 0 9.453 0zm0 1.743c2.546 0 4.581 1.97 4.581 4.436 0 2.464-2.036 4.436-4.581 4.436-2.545 0-4.582-1.972-4.582-4.436 0-2.465 2.036-4.436 4.582-4.436zm11.192 5.134c.455 0 .832.328.892.754l.008.118-.001 1.457H23.1c.497 0 .9.391.9.872a.881.881 0 0 1-.778.864l-.122.008-1.556-.001v1.46c0 .48-.402.87-.9.87a.891.891 0 0 1-.89-.753l-.01-.118V10.95h-1.552c-.497 0-.9-.39-.9-.87 0-.442.338-.806.778-.864l.122-.008 1.552-.001V7.749c0-.481.404-.872.9-.872z" fill="#052C50" fill-rule="evenodd"/>
</svg>
