<svg width="30" height="30" viewBox="0 0 30 30" xmlns="http://www.w3.org/2000/svg">
    <path d="M9.508 0c.516-.023 1.053.458 1.057 1.036a.846.846 0 0 0 .845.835h1.522c2.16 0 3.94 1.754 3.968 3.924v.36h4.272c4.774-.039 8.619 3.506 8.82 8.122.007.181.009.367.006.552v6.465c.102 4.662-3.624 8.556-8.307 8.66a8.52 8.52 0 0 1-.557-.008 357.518 357.518 0 0 1-12.33.001c-4.619.197-8.59-3.44-8.796-8.118a8.595 8.595 0 0 1-.006-.556v-6.468A8.418 8.418 0 0 1 2.36 8.769a8.426 8.426 0 0 1 5.952-2.62c.184-.006.373-.004.562.008l5.933-.002V5.81a1.884 1.884 0 0 0-1.882-1.844H11.4c-1.596 0-2.91-1.3-2.929-2.907A1.047 1.047 0 0 1 9.508.001zM8.465 8.24l-.104.002a6.353 6.353 0 0 0-4.49 1.974 6.342 6.342 0 0 0-1.776 4.267v6.81c-.004.163-.002.304.004.442.154 3.53 3.121 6.29 6.676 6.12 4.08.069 8.224.069 12.385-.002.204.01.348.011.49.006 3.524-.075 6.333-3.01 6.255-6.541v-6.513a6.847 6.847 0 0 0-.004-.437c-.152-3.507-2.985-6.123-6.608-6.123-.036 0-.066.003-.114.003H8.823a9.343 9.343 0 0 0-.25-.007h-.108zm2.154 6.138c.56 0 1.022.409 1.095.939l.01.147v1.524h1.55c.61 0 1.105.487 1.105 1.087 0 .55-.415 1.004-.954 1.075l-.15.01h-1.551v1.525c0 .6-.495 1.086-1.105 1.086-.559 0-1.02-.408-1.094-.938l-.01-.148V19.16h-1.55c-.61 0-1.105-.486-1.105-1.085 0-.55.415-1.004.954-1.076l.15-.01 1.55-.001.001-1.524c0-.6.495-1.086 1.104-1.086zm11.578 5.142c.61 0 1.105.486 1.105 1.086 0 .55-.416 1.004-.955 1.076l-.15.01h-.148c-.61 0-1.104-.487-1.104-1.086 0-.55.415-1.004.954-1.076l.15-.01h.148zm-2.52-4.983c.61 0 1.104.486 1.104 1.086 0 .55-.415 1.004-.954 1.076l-.15.01h-.148c-.61 0-1.105-.486-1.105-1.086 0-.55.416-1.004.955-1.076l.15-.01h.148z" fill="currentColor" fill-rule="evenodd"/>
</svg>
