<svg width="16" height="16" viewBox="0 0 16 16" xmlns="http://www.w3.org/2000/svg">
    <g fill="currentColor" fill-rule="evenodd">
        <path d="M11.33 12.89h-.002c-.374 0-.66.305-.665.709V13.809c0 .528-.242.785-.74.785h-7.84c-.5 0-.744-.255-.744-.78V4.751c.01-.388.274-.662.641-.666H2.095c.063 0 .127.001.193-.001a.688.688 0 0 0 .666-.687.681.681 0 0 0-.629-.724c-.106-.01-.21-.008-.311-.006H1.96a1.899 1.899 0 0 0-1.432.676c-.338.394-.53.92-.528 1.446.01 2.026.01 4.085.008 6.077 0 1.008-.002 2.05 0 3.084 0 .648.256 1.194.762 1.622.272.23.586.334.883.42l.024.007h8.656l.031-.012a.865.865 0 0 0 .056-.025c.572-.13 1.016-.466 1.319-1.002.25-.443.272-.92.258-1.368-.013-.401-.3-.704-.667-.704"/>
        <path d="M14.497 9.963a.663.663 0 0 1-.217.51.83.83 0 0 1-.568.196h-.003a1259.377 1259.377 0 0 0-4.892-.004h-2.54c-.49 0-.782-.26-.782-.696V2.037c0-.436.292-.697.78-.697h7.449c.48 0 .767.258.767.689V6.01c0 .375 0 .75-.002 1.124-.002.927-.005 1.885.008 2.829zm1.501-2.943a1684.162 1684.162 0 0 1-.001-2.22c-.002-.906-.003-1.844.003-2.775a1.88 1.88 0 0 0-.648-1.431A2.441 2.441 0 0 0 13.746 0h-.021c-1.706.015-3.44.012-5.119.01h-.078C7.752.007 6.949.006 6.16.007 4.99.008 4 .892 4 1.936v8.129c0 .51.228.994.641 1.362.414.368.957.57 1.53.571h1.02l2.37.002c1.69 0 3.044-.003 4.263-.009a2.42 2.42 0 0 0 .9-.183c.83-.352 1.27-.987 1.272-1.837.002-.952.002-1.937.001-2.805V7.02z"/>
    </g>
</svg>
