<svg width="130" height="130" viewBox="0 0 130 130" xmlns="http://www.w3.org/2000/svg">
    <g fill="none" fill-rule="evenodd">
        <g transform="translate(35.576 15.6)">
            <g fill-rule="nonzero">
                <path d="M43.342 1.893h-7.618l-.656 2.374a4.27 4.27 0 0 1-4.11 3.142H17.94a4.27 4.27 0 0 1-4.11-3.142l-.657-2.374H5.556c-1.974 0-3.582 1.572-3.655 3.54L1.9 5.57v83.968a3.668 3.668 0 0 0 3.52 3.675l.137.003h37.786c1.974 0 3.583-1.573 3.655-3.54l.002-.138V5.57a3.668 3.668 0 0 0-3.52-3.675l-.137-.002z" fill="#FFF"/>
                <path d="M5.501 0h37.896c3.038 0 5.501 2.472 5.501 5.522v84.064c0 3.05-2.463 5.522-5.5 5.522H5.5C2.463 95.108 0 92.636 0 89.586V5.522C0 2.472 2.463 0 5.501 0zm37.896 1.84h-7.64l-.658 2.378a4.281 4.281 0 0 1-4.122 3.145H17.922a4.281 4.281 0 0 1-4.123-3.145l-.658-2.377H5.5a3.674 3.674 0 0 0-3.665 3.543l-.002.138v84.064a3.675 3.675 0 0 0 3.53 3.679l.137.003h37.896a3.674 3.674 0 0 0 3.665-3.544l.002-.138V5.522a3.675 3.675 0 0 0-3.53-3.679l-.137-.002zM31.478 87.132c.507 0 .917.413.917.92a.92.92 0 0 1-.829.917l-.088.004H17.42a.919.919 0 0 1-.917-.92.92.92 0 0 1 .829-.916l.088-.005h14.058zm2.375-85.29H15.044l.522 1.884a2.447 2.447 0 0 0 2.23 1.794l.126.003h13.055c1.056 0 1.987-.68 2.318-1.676l.037-.121.521-1.884z" fill="#052C50"/>
                <path d="M34.181 1.893H14.717l.54 1.937a2.529 2.529 0 0 0 2.307 1.845l.13.003h13.51a2.53 2.53 0 0 0 2.4-1.724l.038-.124.54-1.937z" fill="#FFD166"/>
            </g>
            <ellipse fill="#FFFDE7" cx="48.387" cy="41.624" rx="14.68" ry="14.653"/>
            <ellipse stroke="#073B4C" stroke-width="1.82" fill="#FFD166" cx="48.455" cy="41.726" rx="9.481" ry="9.458"/>
            <ellipse stroke="#073B4C" stroke-width="1.82" fill="#EFBD72" cx="48.455" cy="41.726" rx="3.662" ry="3.652"/>
            <g fill-rule="nonzero">
                <path d="M56.95 92.952a.748.748 0 0 1-1.047-.721l.557-12.568a.776.776 0 0 1 .41-.647l3.275-1.752 1.334-.418.79.38 3.286 1.633c.242.12.4.361.413.632l.63 12.546a.77.77 0 0 1-1.044.759L62.31 91.53l-.984-.457-1.142.496-3.234 1.382z" fill="#FFD166"/>
                <path d="m60.188 92.223.079-19.524c.003-.82.335-1.61.921-2.194.59.562.926 1.34.934 2.16l.191 19.52a.782.782 0 0 1-.766.786l-.59.01a.754.754 0 0 1-.77-.758z" fill="#F2EAE7"/>
                <path d="M66.268 78.453 63.1 76.878l-.044-4.28a3.741 3.741 0 0 0-1.148-2.656.608.608 0 0 0-.85.015l-.005.006a3.855 3.855 0 0 0-1.125 2.69l-.004 1.08a.598.598 0 0 0 .606.6.619.619 0 0 0 .61-.614l.004-1.078a2.6 2.6 0 0 1 .344-1.275c.223.38.347.816.352 1.262l.204 20.12a.183.183 0 0 1-.052.132.185.185 0 0 1-.13.056l-.608.01a.177.177 0 0 1-.13-.05.177.177 0 0 1-.054-.13l.06-16.408a.598.598 0 0 0-.606-.602.619.619 0 0 0-.61.615l-.002.563s-3.393 1.838-3.49 1.935c-.247.247-.4.581-.415.937l-.57 12.955c-.022.478.2.923.59 1.192a1.38 1.38 0 0 0 1.33.128l2.516-1.073a1.37 1.37 0 0 0 1.385 1.155l.607-.01a1.41 1.41 0 0 0 .992-.432c.21-.215.342-.484.386-.773l2.522.984c.443.173.94.107 1.329-.175.39-.283.607-.736.583-1.213l-.655-12.933a1.37 1.37 0 0 0-.755-1.158zm-9.362 8.602 2.974-1.27-.01 2.684-3.085 1.316.12-2.73zm.18-4.084 2.809-1.189-.01 2.686-2.92 1.246.12-2.743zm.137-3.13a.179.179 0 0 1 .095-.148l2.59-1.385-.008 2.158-2.755 1.166.078-1.79zm-.496 13.106a.168.168 0 0 1-.074-.15l.073-1.67 3.14-1.34-.008 1.912-2.963 1.264a.17.17 0 0 1-.168-.016zm9.378-7.394-2.928-1.143-.027-2.685 2.817 1.088.138 2.74zm.206 4.064-3.093-1.207-.027-2.683 2.982 1.164.138 2.726zm.152 3.006a.173.173 0 0 1-.073.153.172.172 0 0 1-.168.022l-2.971-1.16-.02-1.91 3.148 1.227.084 1.668zM65.81 79.69l.09 1.787-2.763-1.068-.022-2.158 2.6 1.293a.173.173 0 0 1 .095.146z" fill="#073B4C"/>
            </g>
            <path d="M18.794 23.43a1.12 1.12 0 0 1-.578-.172c-.347-.23-.52-.749-.347-1.151a1.03 1.03 0 0 1 .925-.576h.058c.405.058.752.345.868.69a.989.989 0 0 1-.347 1.037.98.98 0 0 1-.579.172zm12.454 0a1.12 1.12 0 0 1-.579-.172c-.347-.23-.52-.749-.347-1.151a1.03 1.03 0 0 1 .926-.576h.057c.405.058.752.345.868.69a.989.989 0 0 1-.347 1.037.98.98 0 0 1-.578.172zM48.387 25.551c-8.895 0-16.105 7.197-16.105 16.073 0 8.876 7.21 16.073 16.105 16.073S64.49 50.5 64.49 41.624c0-8.876-7.21-16.073-16.104-16.073zm0 1.42c8.108 0 14.68 6.56 14.68 14.653s-6.572 14.653-14.68 14.653-14.68-6.56-14.68-14.653 6.572-14.653 14.68-14.653z" fill="#073B4C" fill-rule="nonzero"/>
        </g>
        <path d="M90.78 16.863c.47 0 .895.194 1.203.506.314.317.506.756.506 1.239 0 .484-.193.923-.507 1.24a1.688 1.688 0 0 1-1.202.507c-.47 0-.895-.194-1.202-.506a1.759 1.759 0 0 1-.506-1.24c0-.484.192-.923.506-1.24a1.686 1.686 0 0 1 1.202-.506z" stroke="#073B4C" stroke-width="2.526"/>
        <path d="M21.131 27.3v2.693l.004.102c.05.57.497 1.015 1.042 1.015.577 0 1.045-.5 1.045-1.117V27.3l-.004-.101c-.048-.57-.496-1.015-1.041-1.015-.577 0-1.046.498-1.046 1.116zm3.197 3.81-.101.005c-.563.049-1.005.5-1.005 1.051 0 .584.496 1.056 1.106 1.056h2.671l.1-.004c.563-.048 1.005-.5 1.005-1.052 0-.583-.496-1.056-1.105-1.056h-2.671zm-6.973 0-.1.005c-.563.049-1.005.5-1.005 1.051 0 .584.496 1.056 1.105 1.056h2.67l.102-.004c.562-.048 1.004-.5 1.004-1.052 0-.583-.495-1.056-1.105-1.056h-2.67zm3.776 3.229v2.695l.004.101c.05.57.497 1.016 1.042 1.016.577 0 1.045-.501 1.045-1.117v-2.695l-.004-.102c-.048-.57-.496-1.015-1.041-1.015-.577 0-1.046.5-1.046 1.117zM107.428 37.336v2.693l.004.102c.049.57.496 1.016 1.041 1.016.578 0 1.046-.5 1.046-1.118v-2.693l-.004-.1c-.048-.571-.497-1.016-1.042-1.016-.576 0-1.045.499-1.045 1.116zm3.196 3.81-.1.005c-.563.05-1.005.501-1.005 1.051 0 .585.495 1.056 1.105 1.056h2.672l.1-.003c.562-.049 1.004-.501 1.004-1.053 0-.583-.495-1.055-1.104-1.055h-2.672zm-6.972 0-.1.005c-.564.05-1.006.501-1.006 1.051 0 .585.497 1.056 1.106 1.056h2.67l.101-.003c.563-.049 1.005-.501 1.005-1.053 0-.583-.496-1.055-1.106-1.055h-2.67zm3.776 3.23v2.694l.004.102c.049.569.496 1.015 1.041 1.015.578 0 1.046-.501 1.046-1.117v-2.695l-.004-.102c-.048-.569-.497-1.015-1.042-1.015-.576 0-1.045.501-1.045 1.117z" fill="#073B4C"/>
        <path d="M53.138 45.115c2.773 1.796 5.522 2.636 8.25 2.519 2.727-.118 5.295-.957 7.703-2.52" stroke="#073B4C" stroke-width="1.82" stroke-linecap="round"/>
    </g>
</svg>
