<svg width="15" height="16" viewBox="0 0 15 16" xmlns="http://www.w3.org/2000/svg">
    <path d="M7.5.5a7.5 7.5 0 1 1 0 15 7.5 7.5 0 0 1 0-15zm0 1.125a6.376 6.376 0 1 0 .001 12.751A6.376 6.376 0 0 0 7.5 1.625zm0 9.408c.183.001.358.071.49.197.128.126.2.296.2.474a.667.667 0 0 1-.201.475.706.706 0 0 1-.923.044l-.009-.007-.044-.038a.673.673 0 0 1-.202-.476.675.675 0 0 1 .62-.665l.07-.004zm.054-7.407.122.006.103.009c1.191.13 2.127 1.07 2.214 2.242.086 1.116-.626 2.134-1.703 2.48l-.1.03v1.163c0 .134-.04.264-.115.373l-.04.053-.047.05a.7.7 0 0 1-.975-.002.664.664 0 0 1-.198-.41l-.004-.067V8.247a1.16 1.16 0 0 1 .863-1.115l.074-.018c.541-.117.912-.603.868-1.141a1.1 1.1 0 0 0-1.034-1.006 1.137 1.137 0 0 0-.847.29c-.206.186-.331.441-.351.713l-.003.082c0 .37-.31.67-.69.67-.382 0-.691-.3-.691-.671.002-.672.29-1.313.794-1.773a2.52 2.52 0 0 1 1.76-.652z" fill="#48464D" fill-rule="evenodd"/>
</svg>
