<svg width="24" height="24" viewBox="0 0 24 24" xmlns="http://www.w3.org/2000/svg">
    <path d="M18.36 3.277c2.806 1.922 4.64 5.102 4.64 8.7 0 5.797-4.88 10.51-10.798 10.621v1.145c0 .206-.238.328-.413.212L8.935 22.05a.253.253 0 0 1 0-.424l2.854-1.904c.175-.116.412.006.412.212v1.147l.15-.003c4.994-.186 9.096-4.19 9.096-9.102 0-3.083-1.57-5.809-3.975-7.457a.74.74 0 0 1-.039-1.206l.012-.009a.783.783 0 0 1 .915-.028zM12.21.045l2.855 1.904a.253.253 0 0 1 0 .424L12.21 4.277c-.175.116-.412-.006-.412-.212l-.001-1.148-.14.004c-4.996.186-9.105 4.19-9.105 9.102 0 3.083 1.57 5.809 3.975 7.457a.74.74 0 0 1 .039 1.206l-.012.009a.783.783 0 0 1-.915.028C2.834 18.8 1 15.62 1 12.023 1 6.229 5.883 1.517 11.798 1.402V.257c0-.206.238-.328.413-.212z" fill="currentColor" fill-rule="evenodd"/>
</svg>
