<svg width="20" height="20" viewBox="0 0 20 20" xmlns="http://www.w3.org/2000/svg">
    <path d="m17.657 6.245.036.122 1.413 5.413a1.882 1.882 0 0 1-1.192 2.244l-.121.038-2.384.654-.08 1.168a1.483 1.483 0 0 1-.843 1.24l-.113.047-.117.039c-.38.106-.773.054-1.102-.142l-.026-.018-.007.013a1.47 1.47 0 0 1-.643.61l-.12.052-.124.04a1.397 1.397 0 0 1-1.097-.138l-.027-.018-.005.014a1.455 1.455 0 0 1-.643.607l-.12.05-.124.04a1.42 1.42 0 0 1-1.451-.436l-.02-.025-.154.106a6.65 6.65 0 0 1-.48.284l-.25.128-.255.118-3.416 1.482a.442.442 0 0 1-.547-.25.46.46 0 0 1 .174-.563l.065-.034 3.378-1.469a5.836 5.836 0 0 0 1.691-1.116l.208-.206 1.43-1.49a.904.904 0 0 0 .223-.848.878.878 0 0 0-1.084-.623 3.504 3.504 0 0 0-1.006.456l-.182.129-2.408 1.821a.44.44 0 0 1-.623-.087.458.458 0 0 1 .033-.583l.06-.054.358-.273-1.278-4.903-.013-.058-.016-.1-.055.023a3.511 3.511 0 0 0-1.789 1.75l-.073.17-.065.175-.138.403a.453.453 0 0 1-.308.293.436.436 0 0 1-.257-.007.45.45 0 0 1-.297-.503l.019-.072.137-.403a4.426 4.426 0 0 1 2.82-2.79l.146-.044.039-.086c.19-.383.504-.69.89-.87l.148-.06.14-.044 9.434-2.595a1.82 1.82 0 0 1 2.21 1.18zm-7.22 10.056-.639.668-.203.203-.137.126.058.053a.536.536 0 0 0 .39.11l.085-.016a.552.552 0 0 0 .395-.42l.01-.076.042-.648zm2.04-.778-.386.107-.724.202-.035.508a.529.529 0 0 0 .13.391l.062.06c.293.24.797.036.882-.326l.011-.075.06-.867zm2.022-.556-.389.107-.721.202-.035.508a.529.529 0 0 0 .13.391l.062.06c.293.24.797.036.882-.326l.011-.075.06-.867zm2.966-5.923L6.212 12.197l.523 2.005 1.278-.964a4.38 4.38 0 0 1 1.26-.666l.23-.07a1.762 1.762 0 0 1 2.175 1.26c.085.325.075.668-.023.988l-.024.068 1.232-.342.029-.005 1.18-.325.812-.226.034-.006 2.648-.728a.965.965 0 0 0 .697-1.065l-.02-.101-.778-2.976zm-1.59-3.136-.1.011-.102.022-9.435 2.595a.965.965 0 0 0-.697 1.066l.02.1.246.945L17.06 7.495l-.23-.889a.935.935 0 0 0-.955-.698zM9.09.37l.022.064.072.272.405-.109a.51.51 0 0 1 .603.29l.022.065a.507.507 0 0 1-.297.597l-.067.022-1.317.353c-.149.04-.242.205-.197.373.04.15.174.243.307.233l.05-.008.688-.184a1.315 1.315 0 0 1 1.607.933 1.315 1.315 0 0 1-.68 1.52l-.026.011.078.293a.507.507 0 0 1-.297.596l-.066.023-.07.014a.508.508 0 0 1-.53-.298l-.025-.07-.074-.272-.552.148a.51.51 0 0 1-.603-.29L8.12 4.88a.507.507 0 0 1 .298-.596l.066-.023 1.317-.353c.149-.04.242-.205.197-.373a.305.305 0 0 0-.307-.233l-.05.009-.688.184a1.315 1.315 0 0 1-1.607-.934A1.316 1.316 0 0 1 8.173.981l.022-.007-.073-.275a.507.507 0 0 1 .297-.597L8.486.08a.51.51 0 0 1 .603.29z" fill="currentColor" fill-rule="evenodd"/>
</svg>
