<svg width="133" height="131" viewBox="0 0 133 131" xmlns="http://www.w3.org/2000/svg">
    <g transform="translate(.705)" fill="none" fill-rule="evenodd">
        <g fill-rule="nonzero">
            <path d="m47.378 16.654-8.231 2.205-.016 2.775c-.013 2.17-1.454 4.055-3.525 4.61l-14.063 3.768c-2.07.555-4.262-.358-5.357-2.23l-1.402-2.395-8.23 2.206c-2.132.571-3.411 2.748-2.915 4.91l.037.151 24.49 91.398c.579 2.16 2.74 3.468 4.874 2.98l.15-.036 40.823-10.939c2.132-.571 3.41-2.748 2.915-4.91l-.037-.151L52.4 19.598c-.58-2.16-2.74-3.468-4.875-2.98l-.148.036z" fill="#FFF"/>
            <path d="m5.943 25.548 40.942-10.97c3.282-.88 6.664 1.099 7.553 4.419l24.518 91.501c.89 3.32-1.05 6.724-4.332 7.604l-40.942 10.97c-3.282.88-6.664-1.099-7.554-4.419L1.611 33.152c-.89-3.32 1.05-6.724 4.332-7.604zm41.478-8.966-8.254 2.211-.017 2.778c-.014 2.172-1.46 4.06-3.537 4.617l-14.104 3.78c-2.076.556-4.273-.356-5.37-2.231l-1.405-2.397-8.254 2.212c-2.138.573-3.422 2.753-2.926 4.918l.038.151 24.517 91.502c.58 2.162 2.746 3.471 4.887 2.982l.15-.037 40.94-10.97c2.14-.573 3.423-2.753 2.927-4.918l-.038-.151-24.518-91.502c-.58-2.162-2.746-3.471-4.886-2.982l-.15.037zm12 96.287a1.031 1.031 0 0 1 1.258.737c.14.52-.138 1.054-.628 1.237l-.094.03-15.188 4.07a1.031 1.031 0 0 1-1.259-.737c-.14-.52.139-1.054.628-1.237l.094-.03 15.188-4.07zM37.11 19.344 16.79 24.79l1.113 1.9a2.741 2.741 0 0 0 2.932 1.308l.137-.033 14.105-3.78a2.737 2.737 0 0 0 2.016-2.495l.004-.143.014-2.202z" fill="#073B4C"/>
            <path d="m37.48 19.306-21.028 5.635 1.148 1.952a2.833 2.833 0 0 0 3.03 1.34l.143-.034 14.595-3.91a2.831 2.831 0 0 0 2.09-2.572l.005-.146.017-2.265z" fill="#FFD166"/>
        </g>
        <g transform="rotate(-17 203.218 -29.72)">
            <ellipse fill="#72EFD3" cx="18.2" cy="18.2" rx="16.59" ry="16.593"/>
            <path d="M18.2 0C8.148 0 0 8.149 0 18.2s8.148 18.2 18.2 18.2 18.2-8.149 18.2-18.2S28.252 0 18.2 0zm0 1.607c9.163 0 16.59 7.43 16.59 16.593 0 9.164-7.427 16.593-16.59 16.593S1.61 27.363 1.61 18.2c0-9.164 7.427-16.593 16.59-16.593z" fill="#073B4C" fill-rule="nonzero"/>
            <g fill="#073B4C" fill-rule="nonzero">
                <path d="M8.833 18.51a9.562 9.562 0 0 0 4.045 7.824.79.79 0 0 1 .04 1.265l-.012.01a.778.778 0 0 1-.93.029 11.152 11.152 0 0 1-4.723-9.129c0-6.123 5.04-11.094 11.119-11.146v1.59c-5.206.051-9.539 4.31-9.539 9.556z"/>
                <path d="m18.662 5.941 2.904 1.998a.27.27 0 0 1 0 .445l-2.904 1.997a.268.268 0 0 1-.42-.222V6.164c0-.217.242-.345.42-.223zM28.061 18.461a9.562 9.562 0 0 0-4.045-7.824.79.79 0 0 1-.04-1.266l.012-.01a.778.778 0 0 1 .931-.029 11.152 11.152 0 0 1 4.723 9.13c0 6.122-5.033 11.093-11.11 11.146v-1.59c5.205-.052 9.53-4.31 9.53-9.557z"/>
                <path d="m18.233 31.029-2.905-1.998a.27.27 0 0 1 0-.444l2.905-1.998a.268.268 0 0 1 .42.222v3.996a.268.268 0 0 1-.42.222z"/>
            </g>
        </g>
        <path d="M123.473 79.082h-53.91c-1.239 0-2.243.999-2.243 2.231v5.993h58.397v-5.993a2.237 2.237 0 0 0-2.244-2.231" fill="#E9F4FC"/>
        <path fill="#FFF" d="M72.07 83.623h25.2V57.588h-25.2z"/>
        <path fill="#F4D77D" d="M76.841 82.689h5.123v-25.41h-5.123z"/>
        <path d="m124.78 73.509-26.047 37.999a2.111 2.111 0 0 1-2.923.55l-19.13-12.96a2.085 2.085 0 0 1-.554-2.907l26.047-37.999a2.111 2.111 0 0 1 2.923-.55l19.13 12.96c.96.65 1.207 1.952.553 2.907" fill="#E9F4FC"/>
        <path d="M101.188 65.05 82.187 92.773a1.257 1.257 0 0 0-.06 1.332 6.102 6.102 0 0 1 .742 3.802 1.26 1.26 0 0 0 .548 1.204l9.917 6.719c.395.267.909.296 1.327.066a6.2 6.2 0 0 1 3.832-.703c.478.067.952-.146 1.224-.543l19.002-27.721c.272-.397.297-.914.06-1.332a6.105 6.105 0 0 1-.743-3.802 1.259 1.259 0 0 0-.548-1.204l-9.916-6.719a1.276 1.276 0 0 0-1.328-.067 6.2 6.2 0 0 1-3.831.704 1.274 1.274 0 0 0-1.225.543" fill="#FFF"/>
        <path d="M103.363 75.516c3.758 0 6.805 3.029 6.805 6.766 0 3.736-3.047 6.766-6.805 6.766-3.759 0-6.805-3.03-6.805-6.766 0-3.737 3.046-6.766 6.805-6.766" fill="#F4D77D"/>
        <path d="M124.25 120.969H67.976a3.227 3.227 0 0 1-3.237-3.218V85.907a3.227 3.227 0 0 1 3.237-3.218h56.276a3.227 3.227 0 0 1 3.236 3.218v31.844a3.227 3.227 0 0 1-3.236 3.218" fill="#FFF"/>
        <path d="M124.25 82.689H67.976a3.227 3.227 0 0 0-3.237 3.218v3.526h62.75v-3.526a3.227 3.227 0 0 0-3.237-3.218M67.975 120.969h56.276a3.227 3.227 0 0 0 3.236-3.218v-3.526H64.738v3.526a3.227 3.227 0 0 0 3.237 3.218" fill="#E9F4FC"/>
        <path d="M129.414 95.678h-11.8c-3.417 0-6.187 2.754-6.187 6.15 0 3.398 2.77 6.152 6.187 6.152h11.8a1.17 1.17 0 0 0 1.173-1.166v-9.97a1.17 1.17 0 0 0-1.173-1.166" fill="#FFD166"/>
        <path d="M117.834 98.973a2.864 2.864 0 0 1 2.873 2.856 2.864 2.864 0 0 1-2.873 2.856 2.864 2.864 0 0 1-2.873-2.856 2.865 2.865 0 0 1 2.873-2.856" fill="#E9F4FC"/>
        <path d="M77.384 106.483a2.882 2.882 0 0 0-1.35-.335H59.167a2.874 2.874 0 0 0-2.882 2.866 2.874 2.874 0 0 0 2.882 2.865H72.29a11.82 11.82 0 0 1 5.093-5.396M71.286 118.15h-11.53a2.874 2.874 0 0 0-2.882 2.866 2.873 2.873 0 0 0 2.881 2.865h13.863a11.612 11.612 0 0 1-2.332-5.73M71.203 116.786c0-1.656.35-3.233.977-4.663H61.85a2.874 2.874 0 0 0-2.882 2.865 2.874 2.874 0 0 0 2.882 2.865h9.404a11.7 11.7 0 0 1-.05-1.067" fill="#F4D77D"/>
        <path d="M82.986 104.685c-6.711 0-12.172 5.429-12.172 12.101 0 6.673 5.46 12.102 12.172 12.102 6.712 0 12.172-5.429 12.172-12.102 0-6.672-5.46-12.1-12.172-12.1" fill="#F4D77D"/>
        <path d="M94.67 56.55c2.107 0 3.822 1.678 3.822 3.74v2.02l3.095-4.514a2.797 2.797 0 0 1 1.801-1.173 2.8 2.8 0 0 1 2.107.437l19.13 12.96a2.776 2.776 0 0 1 1.177 1.79 2.763 2.763 0 0 1-.437 2.095l-3.066 4.473h1.175a2.947 2.947 0 0 1 2.952 2.935v1.322l.097.069a3.926 3.926 0 0 1 1.673 3.203v9.067h1.218c.502 0 .974.194 1.33.548.355.354.551.823.551 1.322v9.97c0 1.031-.844 1.87-1.881 1.87h-1.218v9.067c0 2.163-1.77 3.922-3.945 3.922H95.333l-.059.142A13.263 13.263 0 0 1 82.986 130a13.384 13.384 0 0 1-10.684-5.366l-.07-.093H59.595c-1.968 0-3.57-1.592-3.57-3.549 0-1.659 1.185-3.117 2.816-3.467l.36-.077-.225-.289a3.496 3.496 0 0 1-.753-2.172c0-.772.25-1.51.724-2.133l.276-.363-.457-.006c-1.942-.026-3.521-1.617-3.521-3.546 0-1.957 1.6-3.548 3.57-3.548h5.215V85.906c0-1.525.903-2.924 2.301-3.564l.135-.061v-.968a2.947 2.947 0 0 1 2.952-2.936h1.617V60.291c0-2.063 1.715-3.741 3.823-3.741H94.67zm-11.684 48.292a12.005 12.005 0 0 0-6.137 1.681 12.052 12.052 0 0 0-4.4 4.531l-.073.137-.037.071c-.043.083-.086.164-.127.246a11.558 11.558 0 0 0-.222.473l-.02.046a11.561 11.561 0 0 0-.267.656 11.81 11.81 0 0 0-.73 4.104c0 .135.004.27.01.403v.032c.005.13.012.259.02.388l.002.024a11.775 11.775 0 0 0 2.21 6.092l.04.053c.086.118.175.236.267.352l.047.06c.093.117.188.231.284.344l.028.031a12.088 12.088 0 0 0 9.105 4.165c4.56 0 8.802-2.64 10.806-6.727.05-.101.096-.204.142-.307l.08-.176c.055-.126.107-.253.157-.381l.038-.096a11.6 11.6 0 0 0 .156-.432l.014-.041a11.857 11.857 0 0 0 .622-3.784 11.958 11.958 0 0 0-.187-2.084l-.02-.115a12.306 12.306 0 0 0-.074-.363l-.047-.202c-.024-.1-.047-.196-.073-.292-.031-.12-.066-.238-.101-.356l-.016-.055a2.751 2.751 0 0 0-.029-.097c-1.579-5.013-6.187-8.381-11.468-8.381zm.195 5.153c.456 0 .828.37.828.823v1.12h1.531c.457 0 .828.37.828.824a.826.826 0 0 1-.828.822h-3.457c-.66 0-1.197.534-1.197 1.19 0 .656.537 1.19 1.197 1.19h1.807a2.848 2.848 0 0 1 2.852 2.835 2.84 2.84 0 0 1-2.528 2.818l-.205.023v1.115a.826.826 0 0 1-.828.823.826.826 0 0 1-.828-.823v-1.12h-1.92a.826.826 0 0 1-.828-.823c0-.454.371-.823.828-.823h3.457c.66 0 1.196-.534 1.196-1.19 0-.656-.537-1.19-1.196-1.19h-1.807a2.847 2.847 0 0 1-2.852-2.835 2.847 2.847 0 0 1 2.852-2.836h.27v-1.12c0-.454.371-.823.828-.823zm-13.37 8.541H59.596a2.466 2.466 0 0 0-2.47 2.456 2.466 2.466 0 0 0 2.47 2.456h11.911l-.187-.34a13.033 13.033 0 0 1-1.478-4.375l-.03-.197zm54.44-35.143H67.975a2.524 2.524 0 0 0-2.529 2.513v2.823h10.741c.39 0 .708.316.708.704a.707.707 0 0 1-.708.704h-10.74v15.254h10.825l.054-.032a13.32 13.32 0 0 1 6.66-1.786c5.994 0 11.27 4.02 12.832 9.778l.047.17h7.867c.39 0 .708.316.708.704a.707.707 0 0 1-.708.704h-7.587l.03.258c.069.557.102 1.08.102 1.6 0 1.074-.133 2.148-.395 3.192l-.071.286h28.44a2.524 2.524 0 0 0 2.528-2.514v-2.822h-15.198a.707.707 0 0 1-.708-.704c0-.388.318-.704.708-.704h15.198v-4.837h-9.165c-3.802 0-6.895-3.075-6.895-6.855 0-.687.102-1.365.304-2.016l.01-.031c.088-.28.203-.575.34-.863l.027-.059.012-.023a6.949 6.949 0 0 1 6.202-3.863h9.165v-4.837H84.088a.707.707 0 0 1-.708-.704c0-.388.317-.704.708-.704h42.691v-2.823a2.524 2.524 0 0 0-2.528-2.513zM70.4 112.532h-8.608a2.466 2.466 0 0 0-2.47 2.455 2.466 2.466 0 0 0 2.47 2.456h7.922l-.01-.332c-.004-.108-.008-.216-.008-.324 0-1.348.205-2.679.61-3.956l.094-.3zm4.257-6.049H58.814a2.466 2.466 0 0 0-2.47 2.456 2.466 2.466 0 0 0 2.47 2.456h12.042l.062-.133a13.209 13.209 0 0 1 3.281-4.377l.458-.402zm54.757-10.101h-11.8a5.487 5.487 0 0 0-5.145 3.576 5.388 5.388 0 0 0-.333 1.87 5.38 5.38 0 0 0 .662 2.595 5.487 5.487 0 0 0 4.816 2.853h11.8a.464.464 0 0 0 .465-.462v-9.97a.464.464 0 0 0-.465-.462zm-11.58 1.887c1.975 0 3.581 1.597 3.581 3.56s-1.606 3.56-3.58 3.56c-1.975 0-3.582-1.597-3.582-3.56s1.607-3.56 3.581-3.56zm0 1.408a2.16 2.16 0 0 0-2.164 2.152 2.16 2.16 0 0 0 2.164 2.152 2.16 2.16 0 0 0 2.165-2.152 2.16 2.16 0 0 0-2.165-2.152zm5.64-19.891h-2.14l-1.507 2.199h4.424c.16 0 .328.01.498.032l.26.033v-.737c0-.842-.689-1.527-1.535-1.527zm-19.56-21.804a1.388 1.388 0 0 0-1.156.606L86.722 81.985h2.002l11.88-17.33a2.015 2.015 0 0 1 1.907-.844 5.507 5.507 0 0 0 3.39-.622 1.979 1.979 0 0 1 2.07.101l9.916 6.719c.622.421.949 1.14.852 1.877a5.422 5.422 0 0 0 .657 3.365c.372.654.336 1.45-.092 2.074l-3.194 4.66h2.002l6.082-8.872a1.384 1.384 0 0 0-.367-1.928l-19.13-12.96a1.395 1.395 0 0 0-.783-.242zm2.936 6.372a.547.547 0 0 0-.264.067 6.937 6.937 0 0 1-4.271.784.566.566 0 0 0-.541.242L90.438 81.984h5.417l.015-.214c.266-3.902 3.558-6.958 7.493-6.958 3.935 0 7.227 3.056 7.494 6.958l.015.214h3.524l3.738-5.453a.56.56 0 0 0 .028-.59 6.835 6.835 0 0 1-.828-4.239.56.56 0 0 0-.244-.53l-9.917-6.72a.573.573 0 0 0-.323-.098zm-30.694-6.442h-1.298c-1.352 0-2.453 1.067-2.453 2.379v21.694h3.751V57.912zm5.124 0h-3.754v24.073h3.754V57.912zm13.39 0H82.65v24.073h2.357L97.122 64.31v-4.02c0-1.311-1.1-2.378-2.453-2.378zm8.693 18.308c-3.124 0-5.79 2.422-6.07 5.514l-.023.25h12.186l-.022-.25c-.28-3.092-2.947-5.514-6.07-5.514zm-32.328 3.566h-1.617c-.846 0-1.536.685-1.536 1.527v.671h3.153v-2.198z" stroke="#073B4C" stroke-width=".52" fill="#073B4C"/>
        <path d="m98.475 46.914-3.745 4.437a.438.438 0 0 1-.722-.076l-2.741-5.118a.443.443 0 0 1 .433-.652l1.956.205.008-.104c.636-8.447-5.482-16.118-13.894-17.002-5.252-.552-10.172 1.59-13.402 5.318a1.281 1.281 0 0 1-2.062-.15l-.013-.021a1.3 1.3 0 0 1 .113-1.537c3.768-4.353 9.508-6.854 15.637-6.21 9.871 1.038 17.038 10.056 16.194 19.978l1.949.205a.443.443 0 0 1 .289.727z" fill="#073B4C" fill-rule="nonzero"/>
        <path d="M117.495 39.5a.5.5 0 0 0-1 0c0 3.032-2.468 5.5-5.5 5.5a.5.5 0 0 0 0 1c3.032 0 5.5 2.468 5.5 5.5a.5.5 0 0 0 1 0c0-3.032 2.468-5.5 5.5-5.5a.5.5 0 0 0 0-1 5.507 5.507 0 0 1-5.5-5.5zM66.095 3.375a.775.775 0 0 0-1.55 0c0 4.7-3.825 8.525-8.525 8.525a.775.775 0 0 0 0 1.55c4.7 0 8.525 3.825 8.525 8.525a.775.775 0 0 0 1.55 0c0-4.7 3.825-8.525 8.525-8.525a.775.775 0 0 0 0-1.55c-4.7 0-8.525-3.825-8.525-8.525z" fill="#72EFD3"/>
        <path d="M110.495 9.309c1.199 0 2.284.486 3.07 1.271a4.327 4.327 0 0 1 1.27 3.07 4.332 4.332 0 0 1-1.272 3.068 4.331 4.331 0 0 1-3.068 1.273 4.327 4.327 0 0 1-3.07-1.271 4.327 4.327 0 0 1-1.271-3.07c0-1.199.486-2.284 1.271-3.07a4.327 4.327 0 0 1 3.07-1.271z" stroke="#72EFD3" stroke-width="1.718"/>
        <circle fill="#72EFD3" cx="25.995" cy="8.45" r="1.95"/>
    </g>
</svg>
