<svg width="24" height="24" viewBox="0 0 24 24" xmlns="http://www.w3.org/2000/svg">
    <path d="M22.679 15.65c.12.01.228.063.303.15a.427.427 0 0 1 .101.232l.002.088-.007.086c.523.14.902.611.921 1.148l-.002.125a.437.437 0 0 1-.472.41.428.428 0 0 1-.408-.382l-.001-.089a.356.356 0 0 0-.264-.37l-.073-.013-.35-.025a.397.397 0 0 0-.427.37.402.402 0 0 0 .204.385l.071.031.707.23a1.275 1.275 0 0 1-.088 2.452l-.124.024-.007.09a.444.444 0 0 1-.155.308.425.425 0 0 1-.2.094l-.075.006-.038-.001a.436.436 0 0 1-.41-.385l-.003-.08.006-.09a1.239 1.239 0 0 1-.915-1.278.437.437 0 0 1 .478-.405.434.434 0 0 1 .404.39v.08a.347.347 0 0 0 .264.367l.072.012.35.025a.397.397 0 0 0 .291-.092c.08-.069.13-.167.137-.275a.411.411 0 0 0-.206-.383l-.071-.033-.705-.227a1.281 1.281 0 0 1-.878-1.308 1.28 1.28 0 0 1 .966-1.143l.124-.025.006-.092a.438.438 0 0 1 .148-.303.451.451 0 0 1 .324-.104zM11.909 3.713c4.74.006 8.581 3.822 8.585 8.53 0 4.71-3.843 8.528-8.584 8.528-4.742 0-8.586-3.817-8.586-8.529 0-4.71 3.844-8.529 8.586-8.529zm-6.243 8.53a.39.39 0 0 0-.39.387c0 2.423 1.508 4.076 3.178 4.97l.187.096c.55 1.88 1.753 2.626 3.1 2.685l.169.004c1.739 0 3.048-1.06 3.212-2.606 1.938-.77 3.422-2.374 3.422-5.15a.384.384 0 0 0-.444-.382 50.85 50.85 0 0 1-6.19.383 49.546 49.546 0 0 1-4.646-.229l-1.44-.15-.158-.009zm8.047 1.484a.69.69 0 0 1 .694.566l.007.099v2.593c0 1.34-1.145 2.426-2.557 2.426-1.223 0-2.225-.902-2.306-2.043l-.005-.15v-2.881c0-.307.238-.56.548-.604l.095-.006h3.524zm1.161-8.114a.526.526 0 0 0-.373.158.514.514 0 0 0-.137.292l-.005.085.002.081a1.472 1.472 0 0 0-1.1 1.45c.011.623.422 1.167 1.018 1.366l.13.037.815.182a.435.435 0 0 1 .333.41.415.415 0 0 1-.33.419l-.083.009-.396.009a.401.401 0 0 1-.274-.104.362.362 0 0 1-.105-.186l-.009-.073a.516.516 0 0 0-.43-.505l-.103-.008a.519.519 0 0 0-.522.534 1.427 1.427 0 0 0 1.036 1.332l.128.03.002.08a.519.519 0 0 0 .437.497l.105.008a.51.51 0 0 0 .507-.449l.005-.086-.002-.079a1.466 1.466 0 0 0 .083-2.817l-.13-.036-.819-.184a.425.425 0 0 1-.33-.41.418.418 0 0 1 .335-.423l.076-.009.397-.008a.37.37 0 0 1 .38.292l.009.075a.517.517 0 0 0 .437.505l.096.008a.53.53 0 0 0 .514-.442l.007-.094a1.434 1.434 0 0 0-1.04-1.33l-.128-.03-.002-.072a.518.518 0 0 0-.156-.37.55.55 0 0 0-.378-.144zM8.46 5.74a.513.513 0 0 0-.166.28l-.012.085-.006.08a1.476 1.476 0 0 0-1.231 1.34c-.048.622.31 1.202.884 1.455l.126.05.794.256a.433.433 0 0 1 .293.44.414.414 0 0 1-.366.387h-.084l-.396-.028a.38.38 0 0 1-.264-.128.363.363 0 0 1-.086-.195l-.002-.073a.518.518 0 0 0-.482-.561.52.52 0 0 0-.57.483 1.424 1.424 0 0 0 .905 1.421l.125.043-.005.08a.521.521 0 0 0 .493.554l.044.001a.507.507 0 0 0 .33-.12.522.522 0 0 0 .171-.28l.014-.086.006-.08a1.468 1.468 0 0 0 .347-2.797L9.195 8.3l-.798-.259a.424.424 0 0 1-.29-.439.417.417 0 0 1 .374-.391h.077l.395.028c.186.013.328.15.35.324l.003.077a.515.515 0 0 0 .489.561.513.513 0 0 0 .547-.392l.015-.095a1.431 1.431 0 0 0-.91-1.42l-.125-.041.005-.073a.515.515 0 0 0-.483-.56.514.514 0 0 0-.385.121zm-6.768-2.74c.12.008.226.058.3.14a.39.39 0 0 1 .1.217l.002.082-.007.08c.519.13.894.571.913 1.073l-.002.117c-.02.229-.215.397-.468.382a.45.45 0 0 1-.304-.14.387.387 0 0 1-.1-.217l-.001-.082a.335.335 0 0 0-.261-.347l-.073-.012-.346-.023a.402.402 0 0 0-.289.09.364.364 0 0 0-.135.257.371.371 0 0 0 .203.359l.07.029.7.214c.557.173.914.675.87 1.221-.038.518-.429.943-.947 1.068l-.133.025-.006.085a.408.408 0 0 1-.154.287A.437.437 0 0 1 1.35 8l-.038-.001c-.218-.015-.382-.164-.406-.36l-.003-.075.007-.083c-.563-.145-.946-.64-.907-1.195a.402.402 0 0 1 .152-.283c.089-.07.2-.106.321-.095a.42.42 0 0 1 .4.365v.074a.312.312 0 0 0 .084.24c.047.05.109.086.178.103l.072.01.346.024c.108.01.21-.022.288-.086a.362.362 0 0 0 .136-.256.379.379 0 0 0-.204-.359l-.07-.03-.698-.213C.449 5.602.093 5.1.138 4.558c.037-.512.428-.937.947-1.065l.132-.026.007-.086a.403.403 0 0 1 .146-.284c.086-.07.2-.1.32-.097z" fill="#48464D" fill-rule="evenodd"/>
</svg>
