<?xml version="1.0" encoding="UTF-8"?>
<svg width="121px" height="90px" viewBox="0 0 121 90" version="1.1" xmlns="http://www.w3.org/2000/svg" xmlns:xlink="http://www.w3.org/1999/xlink">
    <title>Fintech/illustrations/standards/large/timeout service</title>
    <g id="Mi-cuenta-V3--Billetera_Home" stroke="none" stroke-width="1" fill="none" fill-rule="evenodd">
        <g id="Main_mi_cuenta--error-avtivity" transform="translate(-120.000000, -343.000000)">
            <g id="Fintech/illustrations/standards/large/timeout-service" transform="translate(108.027120, 327.200000)">
                <g id="Group-4" transform="translate(0.000000, 0.000000)">
                    <g id="Fintech/illustrations/standards/large/no-service">
                        <g id="Group-2" transform="translate(33.074268, 42.929878) scale(-1, 1) rotate(27.000000) translate(-33.074268, -42.929878) translate(11.440845, 12.535526)">
                            <path d="M30.9993049,10.766172 C30.4656245,9.27085374 27.8442039,8.67959745 25.100463,9.6980183 C22.3567221,10.7164391 20.7212678,12.8877608 21.2549482,14.3830791 C21.7886285,15.8783973 24.4100491,16.4696536 27.15379,15.4512328 C29.897531,14.4328119 31.5329852,12.2614903 30.9993049,10.766172 Z" id="Path" fill="#FFFFFF" fill-rule="nonzero"></path>
                            <path d="M18.5773397,7.07136569 C17.8068146,8.15626357 18.286371,10.0387314 19.7695897,11.2245988 L19.8456984,11.2841412 L19.9226235,11.341731 L20.0062582,11.4002297 L20.0856661,11.255362 C20.7406611,10.1024814 21.8642594,9.05698379 23.2594405,8.30099333 L23.4605783,8.1949838 L23.5128636,8.16869294 L23.4703556,8.10389271 C23.2983901,7.85453325 23.0967074,7.61892048 22.8688698,7.40339821 L22.7290571,7.27654645 L22.5831383,7.15482092 C21.1161262,5.98191119 19.3305514,6.010845 18.5773397,7.07136569 Z" id="Path" fill="#FFFFFF" fill-rule="nonzero"></path>
                            <path d="M25.5131348,5.71301475 C25.405749,6.20652846 25.3748274,6.69999836 25.4153913,7.16694138 L25.437138,7.36535851 L25.4465449,7.43010368 L25.6567247,7.37663891 C27.0655014,7.03457618 28.4490688,7.03803338 29.6032335,7.38502675 L29.7934351,7.44603953 L29.9251758,7.49355445 L29.9369545,7.46370264 L30.0007472,7.26952247 L30.0570082,7.07076164 L30.1055465,6.8677483 C30.5252944,4.93870962 29.7559348,3.17814525 28.5369583,2.87955476 C27.3315645,2.58429141 25.9308975,3.79309923 25.5131348,5.71301475 Z" id="Path" fill="#FFFFFF" fill-rule="nonzero"></path>
                            <path d="M29.465133,1.25597562 C31.6652714,1.79490342 32.8449149,4.49434123 32.2497651,7.22947577 C32.151018,7.68328871 32.0079183,8.11833032 31.8247719,8.52599486 C32.4015027,8.95199666 32.8395056,9.51097821 33.0836627,10.1950814 C33.993282,12.7437429 31.7472179,15.7257449 28.2595635,17.0202913 C24.7719091,18.3148377 21.1717601,17.5028311 20.2621407,14.9541697 C20.0456317,14.3475334 20.0079056,13.7163465 20.1231509,13.0892078 C19.8400277,12.9318273 19.5662691,12.7474188 19.3051613,12.5386571 C17.1852258,10.8437201 16.4558007,7.98040903 17.7970757,6.09189632 C19.155664,4.17900641 22.0029749,4.13286802 24.1391171,5.84076263 C24.2109868,5.89822411 24.2813911,5.95713058 24.3502834,6.01740807 C24.3753493,5.79586721 24.4121668,5.57325843 24.4604665,5.35128729 C25.0576014,2.6070296 27.2514119,0.713720679 29.465133,1.25597562 Z M31.54508,10.766172 C31.0113997,9.27085374 28.3899791,8.67959745 25.6462381,9.6980183 C22.9024972,10.7164391 21.267043,12.8877608 21.8007233,14.3830791 C22.3344036,15.8783973 24.9558242,16.4696536 27.6995652,15.4512328 C30.4433061,14.4328119 32.0787603,12.2614903 31.54508,10.766172 Z M19.1231148,7.07136569 C18.3525898,8.15626357 18.8321462,10.0387314 20.3153649,11.2245988 L20.3914735,11.2841412 L20.4683986,11.341731 L20.5520334,11.4002297 L20.6314413,11.255362 C21.2864363,10.1024814 22.4100346,9.05698379 23.8052157,8.30099333 L24.0063535,8.1949838 L24.0586387,8.16869294 L24.0161308,8.10389271 C23.8441653,7.85453325 23.6424826,7.61892048 23.414645,7.40339821 L23.2748323,7.27654645 L23.1289134,7.15482092 C21.6619014,5.98191119 19.8763265,6.010845 19.1231148,7.07136569 Z M26.0589099,5.71301475 C25.9515241,6.20652846 25.9206025,6.69999836 25.9611664,7.16694138 L25.9829131,7.36535851 L25.9923201,7.43010368 L26.2024998,7.37663891 C27.6112765,7.03457618 28.9948439,7.03803338 30.1490086,7.38502675 L30.3392103,7.44603953 L30.4709509,7.49355445 L30.4827296,7.46370264 L30.5465223,7.26952247 L30.6027833,7.07076164 L30.6513217,6.8677483 C31.0710696,4.93870962 30.30171,3.17814525 29.0827334,2.87955476 C27.8773396,2.58429141 26.4766727,3.79309923 26.0589099,5.71301475 Z" id="Shape" fill="#073B4C" fill-rule="nonzero" transform="translate(25.203377, 9.395626) rotate(-9.000000) translate(-25.203377, -9.395626) "></path>
                            <path d="M-0.327864498,47.9168407 C-1.26745548,33.4432273 4.99763582,28.7022753 18.4674094,33.6939847 C38.6720697,41.1815489 47.5596741,57.1314172 42.1131391,40.454192" id="Path-17" stroke="#073B4C" stroke-width="0.609333711" stroke-linecap="round" stroke-dasharray="1.421778591156006" transform="translate(21.633423, 39.845353) scale(-1, -1) rotate(-43.000000) translate(-21.633423, -39.845353) "></path>
                        </g>
                        <g id="Fintech/illustrations/succes/QR-pay-Copy-3" transform="translate(41.810855, 16.540549)" fill-rule="nonzero">
                            <g id="Group">
                                <path d="M48.3087121,0.00616101045 L67.9474601,18.6120042 L67.8558427,82.3928949 C67.8511305,85.6733589 65.1765334,88.3365127 61.8819628,88.3412152 L5.956828,88.4210464 C2.66225743,88.4257427 -0.00469973387,85.7702133 6.21830875e-06,82.4897492 L0.109864132,6.01475134 C0.114576319,2.73428725 2.78917345,0.0711335327 6.08374402,0.0664310123 L48.3087121,0.00616101045 Z" id="Path" fill="#FFFFFF"></path>
                                <path d="M48.3087121,0.00616101045 L67.9474601,18.6120042 L67.8558427,82.3928949 C67.8511305,85.6733589 65.1765334,88.3365127 61.8819628,88.3412152 L5.956828,88.4210464 C2.66225743,88.4257427 -0.00469973387,85.7702133 6.21830876e-06,82.4897492 L0.109864132,6.01475134 C0.114576319,2.73428725 2.78917345,0.0711335327 6.08374402,0.0664310123 L48.3087121,0.00616101045 Z M47.5603774,1.86341461 L6.08107771,1.92262028 C3.87130477,1.92577441 2.06722533,3.66854563 1.9775277,5.84784493 L1.97403529,6.0120905 L1.86417933,82.4870884 C1.861023,84.6873996 3.60612906,86.4787709 5.79455177,86.5618438 L5.9594943,86.5648509 L61.8846291,86.4850259 C64.0944021,86.4818718 65.8984815,84.7391006 65.9881791,82.5598013 L65.9916715,82.3955557 L66.0821445,19.4113414 L47.5603774,1.86341461 Z M32.5312444,16.5487307 C33.0460211,16.5479969 33.4627331,16.9629234 33.4619978,17.4754959 C33.4613066,17.9560326 33.0939634,18.3517947 32.6238853,18.3999933 L32.5285781,18.4049209 L7.92151878,18.4400449 C7.40674213,18.4407787 6.99003007,18.0258522 6.99076537,17.5132797 C6.99145661,17.032743 7.35879977,16.6369809 7.82887786,16.5887823 L7.92418508,16.5838547 L32.5312444,16.5487307 Z M22.8460865,10.6227614 C23.3608632,10.6220276 23.7775752,11.036954 23.7768399,11.5495266 C23.7761487,12.0300633 23.4088055,12.4258253 22.9387275,12.4740239 L22.8434202,12.4789516 L7.93005095,12.5002393 C7.4152743,12.500973 6.99856224,12.0860466 6.99929754,11.5734741 C6.99998878,11.0929373 7.36733194,10.6971753 7.83741003,10.6489767 L7.93271725,10.644049 L22.8460865,10.6227614 Z" id="Shape" fill="#073B4C"></path>
                                <path d="M48.5699373,0 L67.967111,18.3827167 L67.967111,20.0328281 L53.0433382,20.0328281 C49.7464693,20.0328281 47.073829,17.3753459 47.073829,14.0971753 L47.073829,0 L48.5699373,0 Z M65.0472748,18.1779366 L48.9393006,2.91217964 L48.9393006,14.0971753 C48.9393006,16.2959482 50.6882027,18.0885599 52.8782759,18.1746964 L53.0433382,18.1779366 L65.0472748,18.1779366 Z" id="Path" fill="#073B4C"></path>
                                <path d="M65.0302961,18.1729109 L48.9554946,2.919449 L48.9394125,14.1122703 C48.9362562,16.3125816 50.6813623,18.1039528 52.869785,18.1870257 L53.0347275,18.1900328 L65.0302961,18.1729109 Z" id="Path" fill="#E9F4FC"></path>
                            </g>
                        </g>
                    </g>
                    <path d="M109.421111,97.5757576 C120.647304,97.5757576 131.512652,87.4985873 131.512652,76.3383215 C131.512652,65.1780556 120.656523,55.6818182 109.43033,55.6818182 C98.2041365,55.6818182 89.1035089,64.7290012 89.1035089,75.8892671 C89.1035089,87.0495329 98.194918,97.5757576 109.421111,97.5757576 Z" id="Oval" fill="#FFD166"></path>
                    <path d="M110.043023,53.5606061 C97.5994824,53.5606061 87.513166,63.6518007 87.513166,76.0984848 C87.513166,88.545169 97.5994824,98.6363636 110.043023,98.6363636 C122.486564,98.6363636 132.57288,88.545169 132.57288,76.0984848 C132.57288,63.6518007 122.486564,53.5606061 110.043023,53.5606061 Z M110.043023,55.551131 C121.385528,55.551131 130.580444,64.7504947 130.580444,76.0984848 C130.580444,87.446475 121.385528,96.6458387 110.043023,96.6458387 C98.7005189,96.6458387 89.5056024,87.446475 89.5056024,76.0984848 C89.5056024,64.7504947 98.7005189,55.551131 110.043023,55.551131 Z" id="Oval" fill="#073B4C" fill-rule="nonzero"></path>
                    <g id="Iconly/Light-outline/Close" transform="translate(100.766023, 64.696970)" fill="#073B4C">
                        <path d="M18.4645263,0 C18.8061923,0 19.0841144,0.281387864 19.0841144,0.62730418 C19.0841144,0.973174861 18.8061923,1.25451709 18.4645263,1.25451709 L16.1099655,1.25451709 L16.1099655,5.50367463 C16.1099655,7.06020678 15.3468858,8.50388259 14.0686699,9.365342 L10.6589972,11.6666895 L14.0679036,13.967535 C15.3466604,14.8294051 16.1099655,16.2730809 16.1099655,17.8297043 L16.1099655,22.0788619 L18.4645263,22.0788619 C18.8061923,22.0788619 19.0841144,22.3602497 19.0841144,22.7061204 C19.0841144,23.0519455 18.8061923,23.3333333 18.4645263,23.3333333 L0.61963313,23.3333333 C0.277967107,23.3333333 0,23.0519455 0,22.7060748 C0,22.3602497 0.277967107,22.0788619 0.61963313,22.0788619 L2.97419395,22.0788619 L2.97419395,17.8297043 C2.97419395,16.2730809 3.73727361,14.8294964 5.01548953,13.968037 L8.42516227,11.6666895 L5.0162559,9.36579836 C3.73749901,8.50397387 2.97419395,7.06020678 2.97419395,5.50362899 L2.97419395,1.25447145 L0.61963313,1.25447145 C0.277967107,1.25447145 0,0.97308359 0,0.627258545 C0,0.281387864 0.277967107,0 0.61963313,0 Z M9.54207973,12.420495 L5.70256327,15.0119923 C4.77016079,15.640483 4.21337005,16.6938393 4.21337005,17.8297043 L4.21337005,22.0788619 L14.8707894,22.0788619 L14.8707894,17.8297043 C14.8707894,16.6937937 14.3137733,15.6403005 13.3807847,15.0114903 L9.54207973,12.420495 Z M8.60822565,16.6459312 C9.14563173,16.1793093 9.93846461,16.1793093 10.4759158,16.6459312 C10.4937146,16.661431 11.2427639,17.3013906 12.0399057,18.006402 L12.3597081,18.29055 C12.9447772,18.8129866 13.5067245,19.330295 13.7761328,19.6218612 C13.7837063,19.6301212 13.7912348,19.6382899 13.7987182,19.646413 C14.2547537,20.1431543 13.9051084,20.9508096 13.2349399,20.9508096 L5.84911135,20.9508096 C5.17894284,20.9508096 4.82929755,20.1431543 5.28542327,19.646413 C5.29286157,19.6382443 5.30043511,19.6301212 5.30800866,19.6218612 C5.57741689,19.330295 6.13936419,18.8129796 6.72443332,18.2905372 L7.04423567,18.0063862 C7.84137756,17.3013679 8.59042686,16.6614065 8.60822565,16.6459312 Z M14.8707443,1.25451709 L4.21337005,1.25451709 L4.21337005,5.50367463 C4.21337005,6.63949405 4.77038619,7.69303284 5.70337472,8.32188863 L9.54207973,10.9128383 L13.3815511,8.32138664 C14.3139085,7.69289594 14.8707443,6.63949405 14.8707443,5.50367463 L14.8707443,1.25451709 Z" id="Combined-Shape"></path>
                    </g>
                    <path d="M92.8143089,56.2121212 C91.9360155,56.2121212 91.223966,55.4868434 91.223966,54.5917508 L91.223966,51.9991582 C91.223966,51.1040657 91.9360155,50.3787879 92.8143089,50.3787879 C93.6926022,50.3787879 94.4046518,51.1040657 94.4046518,51.9991582 L94.4046518,54.5917508 C94.4046518,55.4866274 93.6926022,56.2121212 92.8143089,56.2121212 Z" id="Path" fill="#073B4C" fill-rule="nonzero"></path>
                    <path d="M63.1279088,56.2121212 C62.2496154,56.2121212 61.5375659,55.4868434 61.5375659,54.5917508 L61.5375659,51.9991582 C61.5375659,51.1040657 62.2496154,50.3787879 63.1279088,50.3787879 C64.0062021,50.3787879 64.7182516,51.1040657 64.7182516,51.9991582 L64.7182516,54.5917508 C64.7182516,55.4866274 64.0062021,56.2121212 63.1279088,56.2121212 Z" id="Path" fill="#073B4C" fill-rule="nonzero"></path>
                    <path d="M77.9520243,63.1060606 C74.6651983,63.1060606 69.8265436,67.3785054 71.3783723,68.6987635 C72.1092125,69.3205445 75.2446819,68.0894388 77.9520243,68.1394932 C80.9933147,68.1957217 83.6381514,69.453848 84.5256762,68.6987635 C86.2032714,67.2715063 81.2388502,63.1060606 77.9520243,63.1060606 Z" id="Path-13" fill="#FFD166"></path>
                    <path d="M77.6868645,62.0454545 C75.8203176,62.0454545 73.53189,63.0874117 71.7472382,64.5743797 L71.6315722,64.6719508 L71.4073891,64.8683663 C69.579891,66.5116374 68.786055,68.3068244 70.2486013,69.5061652 C70.7668469,69.9311454 71.392355,69.9934217 72.3125742,69.9003894 L72.5732378,69.8705278 C72.6636459,69.8590509 72.7580324,69.8460072 72.857771,69.8312651 L73.1744174,69.7818128 L74.8772431,69.4838695 L75.4242026,69.3955803 L75.755161,69.3474783 L76.0674642,69.3070693 L76.3682177,69.2735704 C76.4177755,69.2685197 76.4671482,69.2637242 76.5164838,69.2591677 C76.9319122,69.2208002 77.3134867,69.2040279 77.6665819,69.2103202 C78.3374508,69.2222753 78.9897595,69.2885171 79.7855376,69.4175206 L80.2348007,69.4941614 L81.8791544,69.806772 L82.2289186,69.8684595 L82.5405805,69.9173788 C82.68851,69.9388024 82.8258053,69.9557886 82.9579477,69.9688638 C83.8794402,70.0600432 84.5668072,69.9640082 85.1251277,69.5061652 C86.6033706,68.2939525 85.8878614,66.524349 84.1190766,64.9171745 L83.897304,64.7212384 L83.6654684,64.5272196 C81.8794383,63.0712883 79.5554677,62.0454545 77.6868645,62.0454545 Z M78.1139108,63.8131313 C79.4065057,63.8131313 81.2855875,64.6299895 82.7219862,65.7831286 C83.3718873,66.3048685 83.8449033,66.8330053 84.0487507,67.2403266 L84.0968739,67.3460867 L84.0681063,67.3478863 C83.9653907,67.3504593 83.8360491,67.3448044 83.680034,67.3296015 L83.4642762,67.3047799 C83.4259959,67.2997795 83.3864556,67.2943354 83.3455063,67.2884298 L83.0817075,67.2473139 L82.407764,67.1251544 L81.6163296,66.9743965 C80.2252895,66.7131081 79.2206174,66.5813273 78.134455,66.5622654 C77.6865099,66.554404 77.2168315,66.5747355 76.7163808,66.6202535 L76.53196,66.6379437 L76.1606296,66.679093 C76.098035,66.6866362 76.034944,66.6945366 75.9711418,66.7028161 L75.5780749,66.7572195 L75.1576253,66.8217793 C75.0846956,66.8334443 75.0101951,66.8455765 74.9339091,66.858198 L73.3335617,67.1351155 L73.0334365,67.1834625 L72.77192,67.221733 C72.7312041,67.2273107 72.6918366,67.2324976 72.6536871,67.2373086 L72.4383657,67.2617779 L72.2381712,67.2779127 L72.228204,67.296151 C72.4421224,66.8810456 72.9193064,66.3440081 73.5640402,65.8149745 C74.9977647,64.6385382 76.8385399,63.8131313 78.1139108,63.8131313 Z" id="Path-13" fill="#073B4C" fill-rule="nonzero"></path>
                </g>
            </g>
        </g>
    </g>
</svg>