<svg width="130" height="130" viewBox="0 0 130 130" xmlns="http://www.w3.org/2000/svg">
    <g transform="translate(7.15 10.429)" fill="none" fill-rule="evenodd">
        <path d="M94.467 22.288c3.11 0 5.928 1.26 7.966 3.3a11.231 11.231 0 0 1 3.3 7.966v34.234c0 3.111-1.26 5.928-3.3 7.967a11.231 11.231 0 0 1-7.966 3.3H83.639l-5.964 11.928-5.964-11.929H21.233a11.231 11.231 0 0 1-7.966-3.3 11.231 11.231 0 0 1-3.3-7.966V33.554c0-3.11 1.26-5.927 3.3-7.966a11.231 11.231 0 0 1 7.966-3.3z" stroke="#073B4C" stroke-width="1.733" fill="#E9F4FC"/>
        <circle fill="#7ADEFF" cx="32.175" cy="52.296" r="4.875"/>
        <circle fill="#7ADEFF" cx="58.175" cy="52.296" r="4.875"/>
        <circle fill="#7ADEFF" cx="83.525" cy="52.296" r="4.875"/>
        <path d="M27.3 66.572V81.57a6.151 6.151 0 0 1-6.151 6.151H6.15A6.151 6.151 0 0 1 0 81.57V66.572a6.151 6.151 0 0 1 6.151-6.15H21.15a6.151 6.151 0 0 1 6.151 6.15z" fill="#00D576"/>
        <path d="M16.266 68.221c2.001 0 3.342 1.385 3.342 3.445v4.755c0 2.054-1.34 3.439-3.342 3.439h-5.119c-2 0-3.347-1.385-3.347-3.439v-4.755c0-2.06 1.346-3.445 3.347-3.445zm-.094 4.074a.526.526 0 0 0-.733 0l-2.438 2.403-1.033-1.018a.526.526 0 0 0-.732 0c-.2.197-.2.517 0 .721l1.405 1.38c.1.098.23.145.36.145a.512.512 0 0 0 .366-.146l2.805-2.764c.2-.198.2-.518 0-.721z" fill="#FFF"/>
        <path d="M54.6 88.672V99.12a6.151 6.151 0 0 1-6.151 6.151H39.3a6.151 6.151 0 0 1-6.151-6.151V88.672a6.151 6.151 0 0 1 6.151-6.15h9.148a6.151 6.151 0 0 1 6.151 6.15z" fill="#5A50F9"/>
        <path d="M96.873 30.088c1.493 0 2.71.404 3.632 1.258.89.825 1.328 1.867 1.328 3.122 0 1.223-.438 2.24-1.323 3.048-.923.841-2.142 1.238-3.637 1.238-1.524 0-2.759-.395-3.683-1.238-.885-.808-1.323-1.825-1.323-3.048 0-1.255.439-2.297 1.328-3.122.923-.856 2.156-1.258 3.678-1.258zm3.421-26c3.226 0 5.833.781 7.799 2.396 1.919 1.576 2.84 3.896 2.84 6.92 0 2.471-.822 4.473-2.498 5.992-1.87 1.695-4.374 2.473-7.487 2.39l-.281 3.318h-7.529l-.231-8.17h3.037c1.986 0 3.504-.236 4.563-.672.659-.272 1.14-.64 1.468-1.075.355-.473.542-1.034.542-1.689 0-.852-.247-1.495-.669-1.96-.455-.503-1.06-.775-1.835-.775-.954 0-1.625.342-2.07.926-.25.33-.432.721-.532 1.176h-8.14c.043-1.444.391-2.778 1.051-4 .78-1.444 1.998-2.59 3.64-3.452 1.7-.893 3.813-1.325 6.332-1.325z" stroke="#073B4C" stroke-width="1.733" fill="#7ADEFF" fill-rule="nonzero"/>
        <path d="M32.067 1.069v2.58l.004.098c.048.545.48.972 1.008.972.559 0 1.012-.479 1.012-1.07v-2.58l-.004-.097C34.04.426 33.607 0 33.079 0c-.558 0-1.012.478-1.012 1.069zm3.093 3.65-.097.004c-.545.048-.972.48-.972 1.007 0 .56.479 1.012 1.07 1.012h2.584l.097-.004c.544-.046.971-.48.971-1.008 0-.558-.479-1.01-1.068-1.01H35.16zm-6.746 0-.096.004c-.546.048-.973.48-.973 1.007 0 .56.48 1.012 1.07 1.012h2.583l.097-.004c.545-.046.972-.48.972-1.008 0-.558-.479-1.01-1.07-1.01h-2.583zm3.653 3.093v2.58l.004.098c.048.545.48.973 1.008.973.559 0 1.012-.48 1.012-1.07V7.812l-.004-.098c-.047-.545-.48-.972-1.008-.972-.558 0-1.012.48-1.012 1.07zM106.466 95.538l-2.63 2.63-.094.102c-.51.605-.505 1.479.03 2.014.566.565 1.514.538 2.116-.065l2.63-2.63.095-.103c.508-.604.503-1.48-.03-2.013-.567-.567-1.514-.538-2.117.065zm-.584 6.856-.103-.095c-.599-.504-1.473-.497-2.012.041-.57.57-.545 1.517.054 2.115l2.62 2.62.102.094c.6.505 1.474.498 2.013-.04.57-.57.544-1.518-.054-2.115l-2.62-2.62zm-6.841-6.841-.102-.094c-.6-.506-1.475-.498-2.013.04-.57.57-.544 1.517.054 2.115l2.62 2.62.104.095c.598.504 1.473.498 2.012-.04.569-.57.544-1.517-.054-2.116l-2.621-2.62zm.553 6.857-2.63 2.63-.094.103c-.509.602-.505 1.478.03 2.013.566.565 1.513.539 2.117-.065l2.63-2.63.093-.102c.509-.605.504-1.48-.03-2.014-.566-.567-1.513-.538-2.116.065z" fill="#073B4C"/>
        <path d="M11.7 103.817c.402 0 .765.162 1.029.426a1.45 1.45 0 0 1-.001 2.056 1.452 1.452 0 0 1-2.057 0 1.45 1.45 0 0 1-.426-1.028c0-.402.163-.765.426-1.028a1.45 1.45 0 0 1 1.029-.426z" stroke="#073B4C" stroke-width="2.291"/>
        <g fill="#FFF">
            <path d="M43.604 88.371c3.265 0 5.904 2.607 5.904 5.82 0 3.217-2.64 5.819-5.904 5.819-3.26 0-5.904-2.602-5.904-5.82 0-3.212 2.645-5.819 5.904-5.819zm-.207 2.869a.44.44 0 0 0-.443.436v2.94c0 .15.083.29.219.372l2.314 1.361a.44.44 0 1 0 .455-.75l-2.102-1.234v-2.689a.44.44 0 0 0-.443-.436z"/>
        </g>
    </g>
</svg>
