<svg width="140" height="140" viewBox="0 0 140 140" xmlns="http://www.w3.org/2000/svg" xmlns:xlink="http://www.w3.org/1999/xlink">
    <defs>
        <path d="M0 4.2a4.2 4.2 0 0 0 8.4 0 4.2 4.2 0 1 0-8.4 0z" id="mzltq639ka"/>
        <path d="M0 2.1a2.1 2.1 0 0 0 4.2 0 2.1 2.1 0 1 0-4.2 0z" id="esl5j48mmc"/>
        <path d="M0 2.1a2.1 2.1 0 0 0 4.2 0 2.1 2.1 0 1 0-4.2 0z" id="pyjy8a3the"/>
        <path d="M5.102.21 3.796 1.518l-.048.05c-.248.306-.208.779.104 1.089.33.33.84.356 1.14.056l1.307-1.307.046-.053c.248-.303.209-.776-.102-1.087A.886.886 0 0 0 5.621 0a.726.726 0 0 0-.519.21zM.265.266c-.33.33-.355.841-.057 1.14l1.309 1.308.052.046c.303.249.775.21 1.087-.103.33-.33.355-.84.056-1.14L1.404.21 1.353.162A.725.725 0 0 0 .887 0a.89.89 0 0 0-.622.266zm3.587 3.587c-.33.331-.356.842-.057 1.14l1.308 1.309.052.047c.303.25.776.209 1.088-.103.33-.33.356-.842.056-1.14L4.991 3.796 4.94 3.75a.73.73 0 0 0-.466-.161.884.884 0 0 0-.621.264zm-2.335-.055L.209 5.104l-.046.054c-.25.303-.21.776.102 1.088.33.33.84.355 1.14.056L2.71 4.993l.048-.05c.248-.305.21-.779-.103-1.09a.884.884 0 0 0-.62-.264.72.72 0 0 0-.52.21z" id="qyumei98kg"/>
        <path d="M5.102.21 3.796 1.518l-.048.05c-.248.306-.208.779.104 1.089.33.33.84.356 1.14.056l1.307-1.307.046-.053c.248-.303.209-.776-.102-1.087A.886.886 0 0 0 5.621 0a.726.726 0 0 0-.519.21zM.265.266c-.33.33-.355.841-.057 1.14l1.309 1.308.052.046c.303.249.775.21 1.087-.103.33-.33.355-.84.056-1.14L1.404.21 1.353.162A.725.725 0 0 0 .887 0a.89.89 0 0 0-.622.266zm3.587 3.587c-.33.331-.356.842-.057 1.14l1.308 1.309.052.047c.303.25.776.209 1.088-.103.33-.33.356-.842.056-1.14L4.991 3.796 4.94 3.75a.73.73 0 0 0-.466-.161.884.884 0 0 0-.621.264zm-2.335-.055L.209 5.104l-.046.054c-.25.303-.21.776.102 1.088.33.33.84.355 1.14.056L2.71 4.993l.048-.05c.248-.305.21-.779-.103-1.09a.884.884 0 0 0-.62-.264.72.72 0 0 0-.52.21z" id="dymwbu09di"/>
        <path d="M5.102.21 3.796 1.519l-.048.052c-.248.304-.208.777.104 1.088.329.33.839.355 1.138.056l1.308-1.307.047-.053c.249-.304.21-.776-.103-1.088A.881.881 0 0 0 5.621 0a.723.723 0 0 0-.519.21zM.264.267c-.328.33-.354.841-.056 1.14l1.308 1.308.053.047c.302.249.775.208 1.086-.103.331-.33.356-.84.057-1.14L1.404.21 1.353.163A.729.729 0 0 0 .886 0a.887.887 0 0 0-.622.266zm3.588 3.588c-.33.33-.356.84-.057 1.14l1.309 1.308.051.047c.303.248.775.21 1.087-.103.33-.33.356-.84.056-1.14L4.99 3.797l-.05-.047a.736.736 0 0 0-.467-.161.881.881 0 0 0-.621.265zm-2.336-.056L.209 5.105l-.046.053c-.25.304-.21.776.101 1.088.331.33.841.355 1.14.056l1.307-1.309.048-.05c.249-.305.208-.778-.104-1.089a.884.884 0 0 0-.62-.264.726.726 0 0 0-.52.208z" id="tyzkwa9vsk"/>
    </defs>
    <g fill="none" fill-rule="evenodd">
        <g transform="translate(11.2 42.7)">
            <mask id="vzzkyren1b" fill="#fff">
                <use xlink:href="#mzltq639ka"/>
            </mask>
            <path fill="#EF476F" mask="url(#vzzkyren1b)" d="M-4.2 11.9h16.1V-4.2H-4.2z"/>
        </g>
        <g transform="translate(101.5 19.6)">
            <mask id="0bttsp0msd" fill="#fff">
                <use xlink:href="#esl5j48mmc"/>
            </mask>
            <path fill="#EF476F" mask="url(#0bttsp0msd)" d="M-2.1 6.3h8.4v-8.4h-8.4z"/>
        </g>
        <g transform="translate(121.1 104.3)">
            <mask id="fc4d0pkx8f" fill="#fff">
                <use xlink:href="#pyjy8a3the"/>
            </mask>
            <path fill="#EF476F" mask="url(#fc4d0pkx8f)" d="M-2.1 6.3h8.4v-8.4h-8.4z"/>
        </g>
        <g transform="translate(11.851 98.086)">
            <mask id="to0x5vx4qh" fill="#fff">
                <use xlink:href="#qyumei98kg"/>
            </mask>
            <path fill="#215B58" mask="url(#to0x5vx4qh)" d="m3.253-10.061 13.31 13.316-13.31 13.317-13.308-13.317z"/>
        </g>
        <g transform="translate(123.851 63.786)">
            <mask id="kbva0p4wmj" fill="#fff">
                <use xlink:href="#dymwbu09di"/>
            </mask>
            <path fill="#215B58" mask="url(#kbva0p4wmj)" d="m3.253-10.061 13.31 13.316-13.31 13.317-13.308-13.317z"/>
        </g>
        <g transform="translate(49.7 12.924)">
            <mask id="ace0188aal" fill="#fff">
                <use xlink:href="#tyzkwa9vsk"/>
            </mask>
            <path fill="#215B58" mask="url(#ace0188aal)" d="m3.253-10.06 13.31 13.317-13.31 13.316-13.309-13.316z"/>
        </g>
        <path d="M42.685 112.7a5.61 5.61 0 0 1-5.612-5.61V70.857h59.414a3.492 3.492 0 0 1 3.493 3.492v32.741a5.611 5.611 0 0 1-5.612 5.61H42.685z" fill="#E9F4FC"/>
        <path d="M94.368 112.7H42.685a5.61 5.61 0 0 1-5.612-5.61V70.857h59.414a3.492 3.492 0 0 1 3.493 3.492v32.741a5.611 5.611 0 0 1-5.612 5.61z" stroke="#073B4C" stroke-width="2.73" stroke-linecap="round" stroke-linejoin="round"/>
        <path d="M77.087 63.718c2.949.564 8.458-1.46 8.458-1.46 4.869-1.701 7.911-4.756 8.406-8.648.484-3.816-1.758-7.518-5.451-9.005-2.685-1.08-5.643-.887-8.603.46-2.665 1.214-5.332 3.362-7.803 6.358 0 0-3.045 4.066-3.603 6.43" fill="#EF476F"/>
        <path d="M76.276 47.038c-1.438 1.17-2.859 2.624-4.226 4.348 0 0-2.99 4.127-3.577 6.497" fill="#FFD166"/>
        <path d="M76.276 47.038c-1.438 1.17-2.859 2.624-4.226 4.348 0 0-2.99 4.127-3.577 6.497" stroke="#073B4C" stroke-width="3.003" stroke-linecap="round" stroke-linejoin="round"/>
        <path d="M77.393 63.847c2.873.533 8.272-1.538 8.272-1.538 4.771-1.743 7.772-4.815 8.294-8.696.511-3.804-1.64-7.468-5.232-8.911-2.61-1.05-5.5-.827-8.404.545" fill="#EF476F"/>
        <path d="M77.393 63.847c2.873.533 8.272-1.538 8.272-1.538 4.771-1.743 7.772-4.815 8.294-8.696.511-3.804-1.64-7.468-5.232-8.911-2.61-1.05-5.5-.827-8.404.545" stroke="#073B4C" stroke-width="3.003" stroke-linecap="round" stroke-linejoin="round"/>
        <path d="M66.36 57.493c-.55-2.373-3.575-6.478-3.575-6.478-5.182-6.39-11.24-9.007-16.326-7.006-3.682 1.449-5.923 5.133-5.448 8.96.485 3.903 3.509 6.995 8.355 8.75 0 0 5.483 2.088 8.42 1.554" fill="#EF476F"/>
        <path d="M66.36 57.493c-.55-2.373-3.575-6.478-3.575-6.478-5.182-6.39-11.24-9.007-16.326-7.006-3.682 1.449-5.923 5.133-5.448 8.96.485 3.903 3.509 6.995 8.355 8.75 0 0 5.483 2.088 8.42 1.554M85.559 50.978c-1.923.803-3.898 1.921-5.883 3.349 0 0-4.433 3.508-5.707 5.889" stroke="#073B4C" stroke-width="3.003" stroke-linecap="round" stroke-linejoin="round"/>
        <path d="M62.728 60.89c-1.258-2.348-5.63-5.846-5.63-5.846-1.957-1.425-3.904-2.548-5.798-3.362" stroke="#073B4C" stroke-width="3.003" stroke-linecap="round" stroke-linejoin="round"/>
        <path d="m99.484 75.792-63.38-.301a2.76 2.76 0 0 1-2.75-2.76l.012-6.634a2.74 2.74 0 0 1 2.758-2.733l63.38.302a2.76 2.76 0 0 1 2.75 2.759l-.012 6.634a2.74 2.74 0 0 1-2.758 2.733" fill="#E9F4FC"/>
        <path d="m99.484 75.792-63.38-.301a2.76 2.76 0 0 1-2.75-2.76l.012-6.634a2.74 2.74 0 0 1 2.758-2.733l63.38.302a2.76 2.76 0 0 1 2.75 2.759l-.012 6.634a2.74 2.74 0 0 1-2.758 2.733z" stroke="#073B4C" stroke-width="3.003" stroke-linecap="round" stroke-linejoin="round"/>
        <path fill="#EF476F" d="m58.444 69.632.095-6.614 19.099-.156-.177 12.354-19.1.155.052-3.551z"/>
        <path stroke="#073B4C" stroke-width="3.003" stroke-linecap="round" stroke-linejoin="round" d="m58.444 69.632.095-6.614 19.099-.156-.177 12.354-19.1.155.052-3.551z"/>
        <path d="m58.923 56.323 16.673.33c.693.014 1.262.569 1.272 1.239l.078 5.633-19.165-.38-.079-5.649c-.01-.661.538-1.187 1.221-1.173" fill="#E9F4FC"/>
        <path d="m58.923 56.323 16.673.33c.693.014 1.262.569 1.272 1.239l.078 5.633-19.165-.38-.079-5.649c-.01-.661.538-1.187 1.221-1.173z" stroke="#073B4C" stroke-width="3.003" stroke-linecap="round" stroke-linejoin="round"/>
        <g fill="#073B4C" fill-rule="nonzero">
            <path d="M80.937 102.107c.71.375.86 1.08.463 1.692-.356.55-1.099.761-1.708.364a20.018 20.018 0 0 0-14.013-3.017c1.698 3.26 1.181 5.576-1.792 6.372-2.884.772-4.408-.854-4.522-4.28-.65.338-1.284.717-1.902 1.133-.28.165-.582.23-.905.193a1.078 1.078 0 0 1-.792-.516c-.247-.421-.253-.947-.016-1.313.08-.123.198-.306.338-.388 7.538-5.084 17.292-5.161 24.849-.24zm-18.318-.239.857 2.013a.457.457 0 0 1-.8.428l-.04-.073-.88-2.069c-.192.071-.382.145-.572.222l-.006.11c-.112 2.771.575 3.652 2.113 3.293l.123-.031c1.7-.455 1.924-1.65.403-4.23-.404.096-.802.21-1.198.337zM57.483 82.873a.913.913 0 0 1 1.204.076.908.908 0 0 1 0 1.286l-.724.721.724.722a.908.908 0 0 1 0 1.286.913.913 0 0 1-1.204.076l-.086-.076-.723-.722-.722.722-.086.076a.913.913 0 0 1-1.204-.076.908.908 0 0 1 0-1.286l.723-.722-.723-.72a.908.908 0 0 1 0-1.287.913.913 0 0 1 1.204-.076l.086.076.722.72.723-.72zM81.188 82.873a.913.913 0 0 1 1.203.076.908.908 0 0 1 0 1.286l-.724.721.724.722a.908.908 0 0 1 0 1.286.913.913 0 0 1-1.203.076l-.086-.076-.724-.722-.722.722-.086.076a.913.913 0 0 1-1.203-.076.908.908 0 0 1 0-1.286l.722-.722-.722-.72a.908.908 0 0 1 0-1.287.913.913 0 0 1 1.203-.076l.086.076.722.72.724-.72z"/>
        </g>
    </g>
</svg>
