<svg width="50" height="50" viewBox="0 0 50 50" xmlns="http://www.w3.org/2000/svg">
    <defs>
        <filter x="-35.7%" y="-35.7%" width="171.4%" height="171.4%" filterUnits="objectBoundingBox" id="o45hen9pea">
            <feOffset dy="2" in="SourceAlpha" result="shadowOffsetOuter1"/>
            <feGaussianBlur stdDeviation="4" in="shadowOffsetOuter1" result="shadowBlurOuter1"/>
            <feColorMatrix values="0 0 0 0 0 0 0 0 0 0 0 0 0 0 0 0 0 0 0.2 0" in="shadowBlurOuter1" result="shadowMatrixOuter1"/>
            <feMerge>
                <feMergeNode in="shadowMatrixOuter1"/>
                <feMergeNode in="SourceGraphic"/>
            </feMerge>
        </filter>
    </defs>
    <g transform="translate(-3 -3)" filter="url(#o45hen9pea)" fill="#FFF" fill-rule="evenodd">
        <path d="M28 18c.86 0 1.57.64 1.683 1.469l.015.23V26.3h6.604a1.699 1.699 0 0 1 .23 3.384l-.23.015h-6.605l.001 6.602a1.699 1.699 0 0 1-3.38.23l-.016-.23v-6.602h-6.604a1.699 1.699 0 0 1-.23-3.383l.23-.015 6.604-.001v-6.6c0-.94.76-1.7 1.698-1.7z"/>
    </g>
</svg>
