<svg width="71" height="70" viewBox="0 0 71 70" xmlns="http://www.w3.org/2000/svg">
    <g fill="none" fill-rule="evenodd">
        <circle cx="35" cy="35" r="35" fill="#FFD166" transform="translate(.574)"/>
        <path d="M35.574 19c8.837 0 16 7.164 16 16s-7.163 16-16 16c-8.835 0-16-7.164-16-16s7.165-16 16-16zm0 2.4c-7.51 0-13.6 6.09-13.6 13.6s6.09 13.6 13.6 13.6c7.512 0 13.6-6.09 13.6-13.6s-6.088-13.6-13.6-13.6zm.009 11.403a1.2 1.2 0 0 1 1.189 1.037l.01.163v7.07a1.2 1.2 0 0 1-2.388.163l-.011-.163v-7.07a1.2 1.2 0 0 1 1.2-1.2zm0-5.076a1.2 1.2 0 0 1 .162 2.389l-.178.01a1.2 1.2 0 0 1-.163-2.388l.179-.011z" fill="#48464D"/>
    </g>
</svg>
