<svg width="29" height="29" viewBox="0 0 29 29" xmlns="http://www.w3.org/2000/svg">
    <path d="M14.5 0c5.998 0 10.875 4.877 10.875 10.875 0 7.228-9.026 16.632-10.136 17.762l-.075.076-.022.022a.91.91 0 0 1-1.306-.022l-.075-.076c-1.11-1.13-10.136-10.534-10.136-17.762C3.625 4.877 8.502 0 14.5 0zm0 1.813c-4.997 0-9.063 4.065-9.063 9.062 0 5.758 6.899 13.592 9.063 15.908 2.164-2.316 9.063-10.155 9.063-15.908 0-4.997-4.066-9.063-9.063-9.063zm0 3.625a5.444 5.444 0 0 1 5.438 5.437 5.444 5.444 0 0 1-5.438 5.438 5.444 5.444 0 0 1-5.438-5.438A5.444 5.444 0 0 1 14.5 5.437zm0 1.812c-2 0-3.625 1.626-3.625 3.625 0 2 1.626 3.625 3.625 3.625 2 0 3.625-1.626 3.625-3.625 0-2-1.626-3.625-3.625-3.625z" fill="#073B4C" fill-rule="evenodd"/>
</svg>
