<svg width="130" height="130" viewBox="0 0 130 130" xmlns="http://www.w3.org/2000/svg" xmlns:xlink="http://www.w3.org/1999/xlink">
    <defs>
        <path id="ssrc4h9wra" d="M0 0h7.893v7.903H0z"/>
        <path id="cm22dxwgac" d="M0 0h7.893v7.903H0z"/>
        <path id="8dz6srgj6e" d="M0 0h11.7v11.7H0z"/>
        <path id="z5vkqj2vog" d="M0 0h16.9v16.9H0z"/>
        <path id="bdz6171eri" d="M0 0h7.893v7.903H0z"/>
        <path d="M0 4.766a4.766 4.766 0 0 0 4.764 4.767 4.765 4.765 0 0 0 4.763-4.766A4.769 4.769 0 0 0 4.763 0 4.765 4.765 0 0 0 0 4.766z" id="383aaeksuk"/>
        <path d="M0 3.064a3.063 3.063 0 1 0 6.125.001A3.063 3.063 0 1 0 0 3.063z" id="ng7e16xscm"/>
    </defs>
    <g fill="none" fill-rule="evenodd">
        <g fill-rule="nonzero">
            <path d="M102.55 52.95a10.68 10.68 0 0 0-6.93-5.116 10.68 10.68 0 0 0-.966-8.56c-2.975-5.152-9.587-6.923-14.739-3.949-3.488 2.014-6.884 6.488-10.12 13.32.612-7.534-.092-13.107-2.106-16.596a10.718 10.718 0 0 0-6.552-5.027A10.717 10.717 0 0 0 52.95 28.1a10.679 10.679 0 0 0-5.117 6.929 10.68 10.68 0 0 0-8.559.967c-5.152 2.975-6.923 9.586-3.949 14.739 2.014 3.488 6.488 6.884 13.32 10.12-7.535-.612-13.108.092-16.596 2.106a10.717 10.717 0 0 0-5.027 6.551A10.718 10.718 0 0 0 28.1 77.7a10.68 10.68 0 0 0 6.93 5.117 10.68 10.68 0 0 0 .966 8.56c1.996 3.457 5.63 5.392 9.362 5.392 1.83 0 3.682-.465 5.377-1.444 1.217-.702 3.97-2.866 6.1-6.323 2.064-3.35 3.521-8.017 3.774-7.558.314.572-.313 3.96 0 7.558.352 4.058 1.66 8.401 2.353 9.6a10.718 10.718 0 0 0 6.55 5.027 10.724 10.724 0 0 0 8.187-1.078 10.679 10.679 0 0 0 5.118-6.93c2.84.885 5.913.561 8.56-.966a10.718 10.718 0 0 0 5.026-6.551 10.719 10.719 0 0 0-1.078-8.188c-2.014-3.488-6.49-6.885-13.323-10.122 1.754.143 3.405.216 4.944.216 5.075 0 8.979-.775 11.655-2.32a10.717 10.717 0 0 0 5.027-6.551 10.72 10.72 0 0 0-1.078-8.188z" fill="#073B4C"/>
            <path d="M59.584 77.093c-3.4 8.165-7.007 13.524-10.427 15.499-3.646 2.105-8.324.851-10.429-2.795-1.35-2.338-1.369-5.151-.05-7.526a1.577 1.577 0 0 0-1.354-2.343c-2.715-.046-5.142-1.469-6.492-3.807a7.584 7.584 0 0 1-.763-5.793 7.585 7.585 0 0 1 3.557-4.635c2.184-1.26 5.598-1.897 10.064-1.897 2.53 0 5.4.204 8.572.616 3.388.438 6.524 1.04 8.827 1.536l-9.59 5.537a1.578 1.578 0 0 0 1.578 2.733l9.59-5.537a109.584 109.584 0 0 1-3.083 8.412zM54.19 42.882a1.577 1.577 0 1 0-2.733 1.578L61.97 62.666a109.623 109.623 0 0 1-8.413-3.082c-8.164-3.401-13.524-7.007-15.498-10.427-2.105-3.646-.852-8.324 2.794-10.43a7.583 7.583 0 0 1 3.8-1.025c1.276 0 2.554.325 3.726.975a1.577 1.577 0 0 0 2.343-1.353c.046-2.715 1.469-5.142 3.807-6.492a7.584 7.584 0 0 1 5.793-.763 7.584 7.584 0 0 1 4.636 3.557c1.975 3.421 2.418 9.865 1.28 18.636a109.795 109.795 0 0 1-1.536 8.827L54.19 42.882zM92.592 81.493a7.585 7.585 0 0 1 .763 5.793 7.584 7.584 0 0 1-3.557 4.635c-2.339 1.35-5.152 1.37-7.526.05a1.578 1.578 0 0 0-2.343 1.354c-.046 2.715-1.47 5.142-3.807 6.492a7.582 7.582 0 0 1-5.793.763 7.584 7.584 0 0 1-4.636-3.558c-1.975-3.42-2.418-9.864-1.281-18.635a109.795 109.795 0 0 1 1.537-8.827L76.46 87.767a1.577 1.577 0 1 0 2.733-1.578L68.68 67.983c2.243.722 5.258 1.768 8.413 3.082 8.164 3.401 13.524 7.007 15.498 10.428zM100.58 60.32a7.585 7.585 0 0 1-3.557 4.636c-3.42 1.975-9.865 2.418-18.636 1.282A109.72 109.72 0 0 1 69.56 64.7l9.59-5.537a1.578 1.578 0 0 0-1.577-2.732l-9.606 5.545c2.492-7.74 7.627-20.514 13.526-23.92 3.645-2.105 8.324-.85 10.428 2.795 1.35 2.338 1.37 5.151.051 7.526a1.578 1.578 0 0 0 1.353 2.343c2.715.046 5.142 1.469 6.492 3.807a7.583 7.583 0 0 1 .763 5.793z" fill="#72EFD3"/>
            <path d="M48.145 75.244a1.577 1.577 0 0 0-2.155-.578l-3.108 1.794a1.578 1.578 0 0 0 1.578 2.733l3.107-1.794a1.578 1.578 0 0 0 .578-2.155zM88.345 52.034a1.578 1.578 0 0 0-2.155-.577l-3.107 1.794a1.578 1.578 0 0 0 1.577 2.732l3.107-1.794a1.578 1.578 0 0 0 .578-2.155z" fill="#073B4C"/>
        </g>
        <g transform="rotate(-24 115.09 3.688)">
            <mask id="y05xn5n0yb" fill="#fff">
                <use xlink:href="#ssrc4h9wra"/>
            </mask>
            <path d="M4.25.304a.304.304 0 1 0-.607 0 3.346 3.346 0 0 1-3.34 3.343.304.304 0 0 0 0 .608c1.841 0 3.34 1.5 3.34 3.344a.304.304 0 1 0 .607 0 3.346 3.346 0 0 1 3.339-3.344.304.304 0 0 0 0-.608c-1.84 0-3.34-1.5-3.34-3.343z" fill="#FFF" mask="url(#y05xn5n0yb)"/>
        </g>
        <g transform="rotate(-24 134.783 -241.404)">
            <mask id="keay74s3id" fill="#fff">
                <use xlink:href="#cm22dxwgac"/>
            </mask>
            <path d="M4.25.304a.304.304 0 1 0-.607 0 3.346 3.346 0 0 1-3.34 3.343.304.304 0 0 0 0 .608c1.841 0 3.34 1.5 3.34 3.344a.304.304 0 1 0 .607 0 3.346 3.346 0 0 1 3.339-3.344.304.304 0 0 0 0-.608c-1.84 0-3.34-1.5-3.34-3.343zM-9.354-29.24a.304.304 0 1 0-.607 0 3.346 3.346 0 0 1-3.34 3.343.304.304 0 0 0 0 .608c1.841 0 3.34 1.5 3.34 3.343a.304.304 0 1 0 .607 0 3.346 3.346 0 0 1 3.34-3.343.304.304 0 0 0 0-.608c-1.842 0-3.34-1.5-3.34-3.343z" fill="#FFF" mask="url(#keay74s3id)"/>
        </g>
        <g transform="rotate(-24 286.618 -14.375)">
            <mask id="34mldma1of" fill="#fff">
                <use xlink:href="#8dz6srgj6e"/>
            </mask>
            <path d="M6.3.45a.45.45 0 0 0-.9 0A4.956 4.956 0 0 1 .45 5.4a.45.45 0 0 0 0 .9 4.956 4.956 0 0 1 4.95 4.95.45.45 0 0 0 .9 0 4.956 4.956 0 0 1 4.95-4.95.45.45 0 0 0 0-.9A4.956 4.956 0 0 1 6.3.45zM-14.263-42.858a.45.45 0 0 0-.9 0 4.956 4.956 0 0 1-4.95 4.95.45.45 0 0 0 0 .9 4.956 4.956 0 0 1 4.95 4.95.45.45 0 0 0 .9 0 4.956 4.956 0 0 1 4.95-4.95.45.45 0 0 0 0-.9 4.956 4.956 0 0 1-4.95-4.95z" fill="#EF476F" mask="url(#34mldma1of)"/>
        </g>
        <g transform="rotate(-24 37.065 -50.99)">
            <mask id="djb4f8b50h" fill="#fff">
                <use xlink:href="#z5vkqj2vog"/>
            </mask>
            <path d="M9.1.65a.65.65 0 0 0-1.3 0C7.8 4.592 4.592 7.8.65 7.8a.65.65 0 0 0 0 1.3c3.942 0 7.15 3.208 7.15 7.15a.65.65 0 0 0 1.3 0c0-3.942 3.208-7.15 7.15-7.15a.65.65 0 0 0 0-1.3C12.308 7.8 9.1 4.592 9.1.65z" fill="#FFF" mask="url(#djb4f8b50h)"/>
        </g>
        <path d="M92.95 116.493c.499 0 .95.202 1.278.53a1.803 1.803 0 0 1 0 2.555 1.803 1.803 0 0 1-2.556 0 1.801 1.801 0 0 1-.529-1.278c0-.499.202-.95.53-1.278.326-.327.778-.529 1.277-.529z" stroke="#EF476F" stroke-width="1.586"/>
        <g transform="rotate(-24 254.569 -223.957)">
            <mask id="qyayflf45j" fill="#fff">
                <use xlink:href="#bdz6171eri"/>
            </mask>
            <path d="M4.25.304a.304.304 0 1 0-.607 0 3.346 3.346 0 0 1-3.34 3.343.304.304 0 0 0 0 .608c1.841 0 3.34 1.5 3.34 3.344a.304.304 0 1 0 .607 0 3.346 3.346 0 0 1 3.339-3.344.304.304 0 0 0 0-.608c-1.84 0-3.34-1.5-3.34-3.343zM-9.354-29.24a.304.304 0 1 0-.607 0 3.346 3.346 0 0 1-3.34 3.343.304.304 0 0 0 0 .608c1.841 0 3.34 1.5 3.34 3.343a.304.304 0 1 0 .607 0 3.346 3.346 0 0 1 3.34-3.343.304.304 0 0 0 0-.608c-1.842 0-3.34-1.5-3.34-3.343z" fill="#EF476F" mask="url(#qyayflf45j)"/>
        </g>
        <g transform="translate(6.354 86.158)">
            <mask id="lwkiwxmi0l" fill="#fff">
                <use xlink:href="#383aaeksuk"/>
            </mask>
            <path fill="#EF476F" mask="url(#lwkiwxmi0l)" d="M-4.496 14.03h18.518V-4.497H-4.496z"/>
        </g>
        <g transform="translate(84.467 8.716)">
            <mask id="wrzl6s9iyn" fill="#fff">
                <use xlink:href="#ng7e16xscm"/>
            </mask>
            <path fill="#FFF" mask="url(#wrzl6s9iyn)" d="M-2.89 9.018H9.012v-11.91H-2.89z"/>
        </g>
    </g>
</svg>
