<svg width="222" height="205" viewBox="0 0 222 205" xmlns="http://www.w3.org/2000/svg" xmlns:xlink="http://www.w3.org/1999/xlink">
    <defs>
        <ellipse id="mbnywv8z8a" cx="13.626" cy="16" rx="6.667" ry="6.813"/>
    </defs>
    <g fill="none" fill-rule="evenodd">
        <circle fill="#4E43FE" cx="112" cy="105" r="100"/>
        <path d="M171.408 77.563v17.805a7.098 7.098 0 0 1-7.098 7.098H54.506a7.098 7.098 0 0 1-7.098-7.098V77.563a7.098 7.098 0 0 1 7.098-7.097H164.31a7.098 7.098 0 0 1 7.098 7.097z" fill="#00D576"/>
        <path d="M76.556 88.799h73.67a2 2 0 0 0 0-4h-73.67a2 2 0 1 0 0 4zM65.02 79.56c2.347 0 3.917 1.624 3.917 4.038v5.574c0 2.407-1.57 4.03-3.916 4.03h-6c-2.346 0-3.924-1.623-3.924-4.03v-5.574c0-2.414 1.578-4.038 3.924-4.038zm-.11 4.775a.616.616 0 0 0-.858 0l-2.858 2.817-1.211-1.194a.616.616 0 0 0-.858 0 .595.595 0 0 0 0 .846l1.647 1.617c.117.116.27.17.422.17a.6.6 0 0 0 .429-.17l3.287-3.24a.595.595 0 0 0 0-.846z" fill="#FFF"/>
        <g transform="translate(55.408 106.341)">
            <path d="M124 4.74v22.52a4.74 4.74 0 0 1-4.74 4.74H4.74A4.74 4.74 0 0 1 0 27.26V4.74A4.74 4.74 0 0 1 4.74 0h114.52A4.74 4.74 0 0 1 124 4.74z" fill="#7ADEFF"/>
            <use fill="#5A50F9" transform="matrix(0 1 1 0 -2.374 2.374)" xlink:href="#mbnywv8z8a"/>
            <path d="M29.148 18.333h73.67a2 2 0 0 0 0-4h-73.67a2 2 0 1 0 0 4z" fill="#5A50F9"/>
        </g>
        <path d="M109.893 38.59c.702 0 1.28.488 1.342 1.11l.006.112v2.944c0 .675-.605 1.221-1.348 1.221-.703 0-1.28-.487-1.343-1.11l-.005-.11v-2.945c0-.675.604-1.221 1.348-1.221zm5.519-2.692c.673 0 1.22.602 1.22 1.346 0 .703-.487 1.28-1.11 1.341l-.11.006h-2.95c-.674 0-1.221-.603-1.221-1.347 0-.702.488-1.279 1.11-1.34l.11-.006h2.95zm-8.088 0c.673 0 1.22.602 1.22 1.346 0 .703-.488 1.28-1.11 1.341l-.11.006h-2.95c-.674 0-1.222-.603-1.222-1.347 0-.702.489-1.279 1.11-1.34l.111-.006h2.95zm2.569-5.387c.702 0 1.28.488 1.342 1.11l.006.111v2.945c0 .674-.605 1.22-1.348 1.22-.703 0-1.28-.487-1.343-1.109l-.005-.111v-2.945c0-.674.604-1.22 1.348-1.22zM73.893 199.59c.702 0 1.28.488 1.342 1.11l.006.112v2.944c0 .675-.605 1.221-1.348 1.221-.703 0-1.28-.487-1.343-1.11l-.005-.11v-2.945c0-.675.604-1.221 1.348-1.221zm5.519-2.692c.673 0 1.22.602 1.22 1.346 0 .703-.487 1.28-1.11 1.341l-.11.006h-2.95c-.674 0-1.221-.603-1.221-1.347 0-.702.488-1.279 1.11-1.34l.11-.006h2.95zm-8.088 0c.673 0 1.22.602 1.22 1.346 0 .703-.488 1.28-1.11 1.341l-.11.006h-2.95c-.674 0-1.222-.603-1.222-1.347 0-.702.489-1.279 1.11-1.34l.111-.006h2.95zm2.569-5.387c.702 0 1.28.488 1.342 1.11l.006.111v2.945c0 .674-.605 1.22-1.348 1.22-.703 0-1.28-.487-1.343-1.109l-.005-.111v-2.945c0-.674.604-1.22 1.348-1.22zM210.632 107.12c.497.497.56 1.25.165 1.734l-.075.083-2.082 2.082c-.477.477-1.29.436-1.817-.09-.496-.497-.56-1.25-.164-1.734l.074-.083 2.083-2.082c.477-.477 1.29-.436 1.816.09zm5.807 1.998c.476.477.437 1.29-.089 1.816-.497.497-1.25.56-1.733.163l-.082-.074-2.086-2.086c-.477-.477-.438-1.29.088-1.816.497-.497 1.25-.56 1.734-.163l.082.074 2.086 2.086zm-5.72-5.719c.477.477.438 1.29-.088 1.816-.497.497-1.25.56-1.733.163l-.083-.074-2.086-2.086c-.476-.477-.437-1.29.09-1.816.496-.497 1.249-.56 1.732-.163l.083.074 2.086 2.086zm5.626-1.992c.497.497.56 1.25.165 1.734l-.075.083-2.082 2.082c-.477.477-1.29.436-1.817-.09-.496-.497-.56-1.25-.164-1.734l.074-.083 2.083-2.082c.477-.477 1.29-.436 1.816.09z" fill="#FFF"/>
        <path d="m209.654 35.085.126.008c.277.03.536.139.786.342.716.58 1.01 1.363.888 2.145-.115.69-.554 1.526-1.216 2.23a6.413 6.413 0 0 1-1.588 1.224c.81.798.845 1.224.845 1.73 0 .637-.382 1.212-1.023 1.626-.644.416-1.518.647-2.09.664-1.005-.002-1.32-.03-1.577-.071-.183 1.11-.471 1.477-.886 1.858-.352.32-.79.497-1.358.497-.957 0-2.083-.585-2.58-1.008-.767-.665-1.234-1.645-1.395-2.056l1.103-4.291c1.003-.482 1.613-.612 2.257-.746l.557-.114a6.13 6.13 0 0 0 .872-.244c1.315-.479 2.336-1.014 3.211-1.687.241-.181.476-.419.709-.65.761-.743 1.262-1.123 1.65-1.298.313-.14.586-.177.835-.15zM174.94 27.846c1.89.629 2.222 1.224 2.636 2.171.237.513.341.745.467.955.553.945 1.312 1.816 2.364 2.748.32.283.687.518 1.036.743 1.382.89 1.89 1.356 2.231 2.068l-1.025 4.267c-.977.796-1.459 1.06-1.914 1.22-.634.223-1.932.364-2.843.024-.552-.214-.91-.555-1.11-.992-.318-.682-.311-1.282-.066-1.795a19.506 19.506 0 0 0-.521-.303l-.186-.102a4.182 4.182 0 0 0-.41-.193l-.084-.034c-.818-.38-1.543-.902-1.99-1.452a2.49 2.49 0 0 1-.497-.937 1.646 1.646 0 0 1 .068-1.06c.226-.554.569-.885 1.018-1.078-.112-1.028-.375-1.5-.563-1.989-.342-.898-.43-1.857-.28-2.556.187-.776.782-1.421 1.67-1.705z" stroke="#5A50F9" stroke-width="1.498" fill="#7ADEFF"/>
        <path d="M184.015 31.426c.497-1.586 2.004-2.577 3.439-2.322l.252.058 12.636 3.673c1.44.417 2.232 1.974 1.864 3.576l-.072.267-6.945 22.155c-.498 1.603-2.012 2.602-3.462 2.323l-.241-.058-12.637-3.655c-1.427-.423-2.224-1.992-1.857-3.583l.072-.266 6.951-22.168z" fill="#7ADEFF"/>
        <path d="M190.831 34.946c-2.505-.733-5.13.608-6.01 3.013l-.097.294-2.894 9.758c-.738 2.49.612 5.097 3.033 5.971l.296.097 3.316.97c2.506.733 5.13-.608 6.011-3.012l.097-.294 2.894-9.76c.737-2.488-.612-5.095-3.034-5.97l-.295-.097-3.317-.97z" fill="#5A50F9"/>
        <path d="M190.729 37.938c.144-.518.645-.795 1.191-.653.478.134.76.535.71.98l-.035.168-.182.63c1.714.609 2.685 2.394 2.2 4.096-.152.511-.668.78-1.214.654-.472-.127-.752-.532-.702-.98l.034-.169c.225-.775-.185-1.557-.941-1.856l-.196-.064-1.1-.285c-.941-.248-1.897.27-2.155 1.17-.207.676.063 1.413.638 1.823l.181.113 2.101 1.132c1.457.803 2.2 2.446 1.73 4.045-.474 1.648-2.126 2.705-3.834 2.588l-.285-.03-.182.622a.949.949 0 0 1-1.184.653c-.485-.126-.767-.532-.727-.979l.03-.169.182-.623c-1.7-.622-2.67-2.4-2.185-4.11.152-.51.683-.789 1.214-.646.472.133.752.54.702.981l-.035.167c-.224.769.186 1.544.942 1.841l.196.065 1.093.293c.94.262 1.896-.263 2.154-1.164a1.686 1.686 0 0 0-.638-1.817l-.18-.118-2.095-1.133c-1.456-.81-2.2-2.453-1.73-4.036.475-1.656 2.107-2.692 3.831-2.587l.288.028.183-.63zM46.97 171.341a.798.798 0 0 1 .6.12c.13.088.227.212.285.358l.044.153.028.152a2.254 2.254 0 0 1 2.148 1.575l.055.22a.79.79 0 0 1-.634.935.802.802 0 0 1-.607-.119.774.774 0 0 1-.285-.358l-.044-.152a.643.643 0 0 0-.634-.525l-.134.013-.623.12a.717.717 0 0 0-.573.848c.05.284.266.507.536.575l.14.021 1.342.07a2.306 2.306 0 0 1 .994 4.323l-.205.1.03.161a.802.802 0 0 1-.127.61.77.77 0 0 1-.307.258l-.128.046-.067.016a.788.788 0 0 1-.897-.48l-.043-.138-.03-.16a2.24 2.24 0 0 1-2.199-1.804.789.789 0 0 1 .647-.93.785.785 0 0 1 .888.492l.039.14a.626.626 0 0 0 .267.407c.108.073.234.11.365.11l.132-.014.623-.12a.719.719 0 0 0 .466-.297.715.715 0 0 0 .11-.544.743.743 0 0 0-.539-.573l-.14-.024-1.337-.067c-1.074-.07-1.956-.839-2.148-1.872-.19-.981.293-1.965 1.154-2.448l.205-.102-.031-.164a.792.792 0 0 1 .116-.6.817.817 0 0 1 .518-.332zm-24.412-15.8c8.287-2.21 16.788 2.654 18.998 10.873 2.205 8.227-2.727 16.694-11.016 18.915-8.29 2.221-16.796-2.645-19-10.873-2.204-8.225 2.729-16.694 11.018-18.915zm-6.925 17.819a.704.704 0 0 0-.5.86c1.133 4.23 4.543 6.412 7.882 7.19l.37.08c1.843 3.024 4.294 3.764 6.676 3.236l.298-.072c3.04-.815 4.832-3.278 4.396-6.055 3.027-2.253 4.872-5.748 3.573-10.595a.694.694 0 0 0-.37-.448.69.69 0 0 0-.586-.012 92.129 92.129 0 0 1-10.642 3.568 89.767 89.767 0 0 1-8.23 1.777l-2.588.411-.279.06zm14.763-1.178c.615-.165 1.24.128 1.477.665l.06.168 1.213 4.529c.627 2.339-.866 4.772-3.335 5.434-2.139.573-4.311-.533-4.987-2.487l-.08-.26-1.348-5.032c-.143-.534.154-1.089.676-1.31l.163-.056 6.161-1.651zm-1.767-14.713a.952.952 0 0 0-.578.452.928.928 0 0 0-.104.573l.032.151.042.141c-1.061.61-1.591 1.87-1.244 3.046.31 1.083 1.282 1.841 2.418 1.91l.246.003 1.507-.064a.787.787 0 0 1 .776.56.75.75 0 0 1-.38.886l-.143.054-.688.202a.727.727 0 0 1-.528-.053.654.654 0 0 1-.27-.276l-.05-.123a.934.934 0 0 0-.987-.68l-.185.034a.956.956 0 0 0-.581.453.938.938 0 0 0-.081.723 2.58 2.58 0 0 0 2.433 1.841l.24-.006.04.137c.14.445.55.707.995.665l.189-.036a.922.922 0 0 0 .562-.436c.1-.178.14-.38.113-.585l-.031-.153-.04-.137a2.652 2.652 0 0 0-1.174-4.959l-.244-.001-1.517.062a.77.77 0 0 1-.77-.56.756.756 0 0 1 .388-.897l.13-.051.69-.2a.671.671 0 0 1 .8.331l.05.127a.936.936 0 0 0 1.001.678l.173-.031c.466-.15.737-.566.692-1.013l-.033-.168c-.322-1.087-1.337-1.817-2.44-1.834l-.238.008-.037-.126a.936.936 0 0 0-.446-.572.995.995 0 0 0-.728-.076zm-11.155 3.23a.928.928 0 0 0-.159.565l.018.154.027.144c-1.112.509-1.758 1.713-1.524 2.917.206 1.108 1.103 1.953 2.226 2.127l.244.027 1.508.076a.782.782 0 0 1 .718.63.749.749 0 0 1-.46.847l-.147.04-.705.136a.688.688 0 0 1-.52-.1.656.656 0 0 1-.243-.3l-.037-.125a.935.935 0 0 0-.39-.61.949.949 0 0 0-.715-.145.94.94 0 0 0-.772 1.111 2.574 2.574 0 0 0 2.248 2.058l.24.015.027.141c.11.52.594.838 1.12.737l.079-.018a.919.919 0 0 0 .52-.363.944.944 0 0 0 .169-.571l-.017-.156-.026-.141a2.652 2.652 0 0 0-.703-5.048l-.243-.025-1.514-.078a.767.767 0 0 1-.713-.631.755.755 0 0 1 .47-.858l.134-.037.704-.135a.678.678 0 0 1 .765.402l.04.133a.93.93 0 0 0 1.117.751c.48-.089.78-.489.773-.942l-.017-.172c-.218-1.112-1.159-1.933-2.256-2.052l-.237-.015-.026-.13a.93.93 0 0 0-1.107-.753.932.932 0 0 0-.616.394zM4.36 159.083a.81.81 0 0 1 .59.103.706.706 0 0 1 .277.333l.04.143.027.142c.967-.015 1.83.58 2.098 1.447l.052.205c.073.41-.19.793-.64.887a.813.813 0 0 1-.597-.103.7.7 0 0 1-.276-.332l-.041-.142c-.055-.292-.315-.487-.619-.484l-.132.014-.616.122a.727.727 0 0 0-.462.292.657.657 0 0 0-.116.512.67.67 0 0 0 .52.531l.138.018 1.324.046c1.054.042 1.914.751 2.092 1.725.176.922-.308 1.847-1.157 2.31l-.22.105.03.15a.737.737 0 0 1-.136.575.791.791 0 0 1-.433.291l-.066.015c-.388.076-.744-.107-.879-.436l-.04-.13-.027-.15c-1.052.011-1.953-.672-2.145-1.661a.726.726 0 0 1 .134-.566.81.81 0 0 1 .517-.316c.386-.073.744.12.87.45l.036.13c.029.157.12.292.258.378.105.067.23.1.359.097l.13-.014.617-.121a.727.727 0 0 0 .464-.285.654.654 0 0 0 .117-.512.685.685 0 0 0-.525-.53l-.138-.02-1.319-.045c-1.06-.05-1.918-.76-2.093-1.726-.174-.913.31-1.837 1.158-2.305l.22-.107-.029-.153a.728.728 0 0 1 .122-.564.862.862 0 0 1 .516-.32zM186.145 166.59l.535.476.634.554.718.614.52.435.546.45.57.46.59.464.606.464.308.23.62.456.627.442c2.197 1.523 4.418 2.732 5.884 2.683.866-.026 2.118-.788 3.356-1.742l.493-.39.245-.201.48-.407.465-.408.444-.402.613-.573c.064-.06.126-.12.187-.18.472-.454 1.238-.164 1.328.456l.008.106.3 17.808a1.908 1.908 0 0 1-1.255 1.826l-.155.049-24.202 6.485a1.984 1.984 0 0 1-2.163-.817l-.089-.145-8.559-15.534a.79.79 0 0 1 .772-1.17l.105.019.788.188.57.127.598.124.615.117.624.107c1.77.282 3.54.389 4.405-.077 1.148-.619 2.325-2.44 3.377-4.57l.328-.681.318-.696c.053-.117.104-.234.156-.352l.302-.705.29-.705.278-.696.263-.683.365-.984.328-.918.451-1.325.145-.44a.78.78 0 0 1 1.268-.34z" fill="#7ADEFF"/>
        <path d="m199.112 183.428-4.332 1.161a.476.476 0 0 0-.34.563c.692 3.17 5.122 3.52 5.27-1.253a.475.475 0 0 0-.507-.486l-.09.015zM190.194 180.865a1.3 1.3 0 0 0-.917 1.592 1.3 1.3 0 0 0 1.59.92 1.3 1.3 0 0 0 .917-1.591 1.3 1.3 0 0 0-1.59-.92zM199.243 178.44a1.3 1.3 0 0 0-.917 1.593 1.3 1.3 0 0 0 1.59.92 1.3 1.3 0 0 0 .917-1.592 1.3 1.3 0 0 0-1.59-.92z" fill="#5A50F9"/>
        <path d="M26.994 58.42a5.988 5.988 0 0 1 5.991 5.985 5.988 5.988 0 0 1-5.991 5.984 5.988 5.988 0 0 1-5.991-5.984 5.988 5.988 0 0 1 5.99-5.985M25.108 106a2.245 2.245 0 1 1 0 4.489 2.245 2.245 0 1 1 0-4.489M112.108 0a2.245 2.245 0 1 1 0 4.489 2.245 2.245 0 1 1 0-4.489" fill="#FFD166"/>
        <path d="M52.646 24.629c.497.497.561 1.25.165 1.734l-.075.082-2.082 2.083c-.477.477-1.29.436-1.816-.09-.497-.497-.561-1.25-.165-1.734l.075-.083 2.082-2.082c.477-.477 1.29-.436 1.816.09zm5.807 1.998c.477.477.438 1.29-.088 1.816-.497.497-1.25.56-1.734.163l-.082-.074-2.086-2.086c-.476-.477-.437-1.29.089-1.816.497-.497 1.25-.56 1.733-.163l.082.074 2.086 2.086zm-5.719-5.719c.477.476.437 1.29-.089 1.816-.497.497-1.25.559-1.733.163l-.082-.075-2.086-2.086c-.477-.476-.438-1.289.089-1.815.496-.497 1.25-.56 1.733-.164l.082.075 2.086 2.086zm5.625-1.992c.497.497.561 1.25.165 1.734l-.075.082-2.082 2.083c-.477.477-1.29.436-1.816-.09-.497-.497-.561-1.25-.165-1.734l.075-.083 2.082-2.082c.477-.477 1.29-.436 1.816.09z" fill="#FFF"/>
        <path d="M204.994 5.573a2.993 2.993 0 1 1 0 5.985 2.993 2.993 0 1 1 0-5.985" fill="#FFD166"/>
        <g stroke-width="1.157">
            <g stroke="#FFD166">
                <path d="M96.09 169.392a.355.355 0 0 1-.355-.354v-2.259a.355.355 0 0 1 .71 0v2.26c0 .195-.159.353-.355.353zM96.09 175.532a.355.355 0 0 1-.355-.354v-2.259a.355.355 0 0 1 .71 0v2.26c0 .195-.159.353-.355.353zM100.301 171.347h-2.265a.355.355 0 1 1 0-.708h2.265a.355.355 0 1 1 0 .708zM94.144 171.347h-2.266a.355.355 0 1 1 0-.708h2.266a.355.355 0 1 1 0 .708z"/>
            </g>
            <path d="M145.668 160.736a.355.355 0 0 1-.355-.354v-2.26a.355.355 0 0 1 .71 0v2.26c0 .195-.159.354-.355.354zM145.668 166.876a.355.355 0 0 1-.355-.354v-2.26a.355.355 0 0 1 .71 0v2.26c0 .195-.159.354-.355.354zM149.88 162.69h-2.265a.354.354 0 1 1 0-.708h2.265a.355.355 0 1 1 0 .708zM143.722 162.69h-2.265a.354.354 0 1 1 0-.708h2.265a.355.355 0 1 1 0 .708z" stroke="#FFF"/>
        </g>
    </g>
</svg>
