<svg xmlns="http://www.w3.org/2000/svg" width="30" height="30" viewBox="0 0 30 30">
    <g fill="none" fill-rule="evenodd">
        <g fill="currentColor">
            <g>
                <g>
                    <path d="M24.073.935l.164.168c1.003 1.1.993 2.499.113 3.617-.47.598-1.18 1.12-2.055 1.561 3.514.27 6.11 2.344 7.174 5.472.054.161.26.662.281.749.035.139.018.665-.088.875-.144.695-.46 1.317-.911 1.803l-.001 5.946c0 5.121-3.254 8.721-8.184 8.87L20.25 30H9.748c-5 0-8.356-3.494-8.494-8.55l-.004-.324v-5.71c-.656-.574-1.04-1.445-.966-2.613-.01-.083-.007-.159.01-.229l.018-.067V12.5l.05-.19C1.3 8.875 3.993 6.566 7.706 6.28 6.83 5.84 6.12 5.318 5.65 4.72c-.84-1.067-.887-2.39-.017-3.465l.13-.152.164-.168C7.484-.57 9.83-.146 12.058 1.41c.633.441 1.205.93 1.674 1.438l.05-.032c.361-.201.776-.316 1.218-.316.47 0 .911.13 1.287.356l-.017-.01c.467-.506 1.04-.995 1.672-1.436 2.23-1.556 4.574-1.98 6.13-.475zM3.5 16.244v4.882c0 3.919 2.3 6.49 5.956 6.619l.292.005 1.502-.001V16.25h-7.5c-.084 0-.167-.002-.25-.006zm23-.002c-.082.005-.165.008-.25.008h-7.5v11.499l1.5.001c3.728 0 6.125-2.47 6.245-6.317l.005-.307v-4.884zm-10.25.008h-2.5v11.499h2.5V16.25zm-5-7.75H8.498c-3.134 0-5.333 1.757-6.02 4.609.265.343.72.585 1.126.633l.146.008h7.5V8.5zm5 0h-2.5v5.25h2.5V8.5zm5.251 0H18.75v5.25h7.5c.457 0 .988-.245 1.281-.61-.657-2.784-2.743-4.529-5.738-4.635L21.5 8.5zM15 3.75c-.69 0-1.25.56-1.25 1.25s.56 1.25 1.25 1.25 1.25-.56 1.25-1.25-.56-1.25-1.25-1.25zm4.2-.17l-.25.183c-.412.311-.78.654-1.064.982l-.146.179h.018c.13-.005.27-.015.42-.032.802-.09 1.764-.347 2.61-.704.768-.324 1.371-.702 1.69-1.037l.096-.11c.03-.038.052-.055.065-.063l.014-.005c-.004 0-.017-.002-.037-.017l-.038-.034c-.548-.602-1.887-.383-3.377.657zM7.499 2.847l-.076.074-.038.034c-.013.01-.023.014-.03.016h-.007l.014.006c.008.005.02.014.037.032l.028.031.095.11c.32.335.923.713 1.69 1.037.847.357 1.809.614 2.612.704.1.011.195.02.286.025l.133.007h.018l-.146-.179c-.227-.262-.508-.534-.822-.792l-.241-.19-.252-.184c-1.425-.995-2.712-1.238-3.301-.731z" transform="translate(-16.000000, -297.000000) translate(0.000000, 277.000000) translate(16.000000, 20.000000)"/>
                </g>
            </g>
        </g>
    </g>
</svg>
