<svg xmlns="http://www.w3.org/2000/svg" width="21" height="20" viewBox="0 0 21 20">
    <defs>
        <filter id="ym6c07gbza">
            <feColorMatrix in="SourceGraphic" values="0 0 0 0 0.156863 0 0 0 0 0.317647 0 0 0 0 0.905882 0 0 0 1.000000 0"/>
        </filter>
    </defs>
    <g fill="none" fill-rule="evenodd">
        <g>
            <g filter="url(#ym6c07gbza)" transform="translate(-76 -242) translate(15 224)">
                <g fill="#2851e7" fill-rule="nonzero">
                    <g>
                        <path d="M10.206 20C16.093 20 20 15.938 20 10.234c0-.56-.053-1.117-.16-1.667h-9.634v3.438H16c-.555 2.657-3.033 4.5-5.794 4.31-3.524-.037-6.354-2.862-6.325-6.315-.029-3.454 2.8-6.279 6.325-6.315 1.511-.029 2.972.528 4.067 1.55l2.778-2.618C15.2.91 12.747-.028 10.206.001 4.57 0 0 4.478 0 10 0 15.522 4.57 20 10.206 20z" transform="translate(61.5 18)"/>
                    </g>
                </g>
            </g>
        </g>
    </g>
</svg>
