<svg width="115" height="117" viewBox="0 0 115 117" xmlns="http://www.w3.org/2000/svg">
    <defs>
        <clipPath id="5kn39wqvia">
            <path d="M360 0v640H0V0h360z"/>
        </clipPath>
        <clipPath id="770s1jg3gb">
            <path d="M109.862 0a4.662 4.662 0 0 1 4.656 4.668v76.785a4.662 4.662 0 0 1-4.656 4.668H4.655A4.662 4.662 0 0 1 0 81.453V4.668A4.662 4.662 0 0 1 4.655 0z"/>
        </clipPath>
        <clipPath id="esejxfg3rc">
            <path d="M108 0a2.797 2.797 0 0 1 2.793 2.801v76.795a2.797 2.797 0 0 1-2.793 2.8H2.793A2.797 2.797 0 0 1 0 79.597V2.8A2.797 2.797 0 0 1 2.793 0H108z"/>
        </clipPath>
        <clipPath id="l70val0rpd">
            <path d="m10.193.014 55.281 4.837a3.73 3.73 0 0 1 3.392 4.041L62.728 79.04a3.73 3.73 0 0 1-4.041 3.392L3.406 77.594a3.73 3.73 0 0 1-3.392-4.041L6.151 3.406A3.73 3.73 0 0 1 10.193.014z"/>
        </clipPath>
        <clipPath id="inisvnrove">
            <path d="m8.02 0 .145.007 55.281 4.837a1.865 1.865 0 0 1 1.696 2.02l-6.137 70.147a1.865 1.865 0 0 1-2.02 1.696L1.702 73.87a1.865 1.865 0 0 1-1.696-2.02L6.144 1.703A1.865 1.865 0 0 1 8.165.007z"/>
        </clipPath>
        <clipPath id="qamh1f6q3f">
            <path d="m62.378 3.212 9.8 69.73a3.73 3.73 0 0 1-3.175 4.213L14.05 84.878a3.73 3.73 0 0 1-4.213-3.175l-9.8-69.73A3.73 3.73 0 0 1 3.212 7.76L58.164.037a3.73 3.73 0 0 1 4.214 3.175z"/>
        </clipPath>
        <clipPath id="pj011ec2qg">
            <path d="M56.558.018a1.865 1.865 0 0 1 2.107 1.588l9.8 69.73a1.865 1.865 0 0 1-1.588 2.106l-54.952 7.723a1.865 1.865 0 0 1-2.107-1.587l-9.8-69.73a1.865 1.865 0 0 1 1.588-2.107z"/>
        </clipPath>
        <clipPath id="gefnyajngh">
            <path d="m62.873 3.535 3.685 70.319a3.73 3.73 0 0 1-3.53 3.92L7.61 80.68a3.73 3.73 0 0 1-3.92-3.53L.004 6.83a3.73 3.73 0 0 1 3.53-3.92L58.952.004a3.73 3.73 0 0 1 3.92 3.53z"/>
        </clipPath>
        <clipPath id="zjqh2nucqi">
            <path d="M57.184.003a1.865 1.865 0 0 1 1.96 1.765l3.686 70.318a1.865 1.865 0 0 1-1.765 1.96L5.648 76.951a1.865 1.865 0 0 1-1.96-1.765L.003 4.867a1.865 1.865 0 0 1 1.765-1.96z"/>
        </clipPath>
        <clipPath id="ouxme7ggij">
            <path d="M19.935 0a4.656 4.656 0 0 1 4.394 3.126l3.143 9.002a2.794 2.794 0 0 0 2.636 1.875h79.754a4.662 4.662 0 0 1 4.656 4.668v62.782a4.662 4.662 0 0 1-4.656 4.668H4.655A4.662 4.662 0 0 1 0 81.453V4.668A4.662 4.662 0 0 1 4.655 0z"/>
        </clipPath>
        <clipPath id="emk342ar6k">
            <path d="M18.073 0c1.187 0 2.245.752 2.637 1.876l3.142 9.003a4.656 4.656 0 0 0 4.394 3.126H108a2.797 2.797 0 0 1 2.793 2.801v62.79a2.797 2.797 0 0 1-2.793 2.8H2.793A2.797 2.797 0 0 1 0 79.597V2.8A2.797 2.797 0 0 1 2.793 0h15.28z"/>
        </clipPath>
        <clipPath id="hn6uls9z2l">
            <path d="M16.5 0C25.613 0 33 7.388 33 16.5S25.613 33 16.5 33C7.388 33 0 25.612 0 16.5S7.388 0 16.5 0zm0 2.475c-7.745 0-14.025 6.28-14.025 14.025S8.755 30.525 16.5 30.525c7.746 0 14.025-6.28 14.025-14.025S24.245 2.475 16.5 2.475zm.002 20.698c.401.002.786.156 1.076.433.282.277.44.651.44 1.042s-.158.766-.443 1.047a1.553 1.553 0 0 1-2.03.096l-.02-.016h-.012l-.084-.082a1.48 1.48 0 0 1-.445-1.048c.004-.39.164-.762.447-1.041a1.54 1.54 0 0 1 .92-.423l.15-.008zm.117-16.296.268.013.226.02c2.622.288 4.68 2.354 4.872 4.932.188 2.457-1.377 4.696-3.747 5.456l-.22.065v2.56c.001.295-.089.58-.254.821l-.089.117-.1.109a1.539 1.539 0 0 1-1.075.431 1.54 1.54 0 0 1-1.072-.435 1.46 1.46 0 0 1-.435-.9l-.009-.15v-2.872c-.004-1.146.78-2.145 1.898-2.454l.163-.04c1.192-.256 2.006-1.326 1.91-2.51-.085-1.185-1.055-2.128-2.276-2.213a2.501 2.501 0 0 0-1.862.639c-.454.409-.729.97-.772 1.567l-.006.18c-.002.816-.682 1.477-1.52 1.477-.839 0-1.519-.661-1.519-1.478a5.3 5.3 0 0 1 1.747-3.9 5.546 5.546 0 0 1 3.872-1.435z"/>
        </clipPath>
    </defs>
    <g clip-path="url(#5kn39wqvia)" transform="translate(-123 -145)">
        <g clip-path="url(#770s1jg3gb)" transform="translate(123 175.879)">
            <path fill="#063B4C" d="M0 0h114.518v86.121H0V0z"/>
        </g>
        <g clip-path="url(#esejxfg3rc)" transform="translate(124.862 177.741)">
            <path fill="#B5EDFF" d="M0 0h110.793v82.397H0V0z"/>
        </g>
        <g clip-path="url(#l70val0rpd)" transform="translate(157.343 145)">
            <path fill="#063B4C" d="M0 0h68.88v82.445H0V0z"/>
        </g>
        <g clip-path="url(#inisvnrove)" transform="translate(159.208 146.865)">
            <path fill="#FFE29E" d="M0 0h65.15v78.714H0V0z"/>
        </g>
        <g clip-path="url(#qamh1f6q3f)" transform="translate(138.655 154.957)">
            <path fill="#063B4C" d="M0 0h72.214v84.915H0V0z"/>
        </g>
        <g clip-path="url(#pj011ec2qg)" transform="translate(140.52 156.822)">
            <path fill="#FFEDC5" d="M0 0h68.483v81.184H0V0z"/>
        </g>
        <g clip-path="url(#gefnyajngh)" transform="translate(152.905 167.098)">
            <path fill="#063B4C" d="M0 0h66.563v80.684H0V0z"/>
        </g>
        <g clip-path="url(#zjqh2nucqi)" transform="translate(154.77 168.964)">
            <path fill="#FFD166" d="M0 0h62.832v76.953H0V0z"/>
        </g>
        <g clip-path="url(#ouxme7ggij)" transform="translate(123 175.879)">
            <path fill="#063B4C" d="M0 0h114.518v86.121H0V0z"/>
        </g>
        <g clip-path="url(#emk342ar6k)" transform="translate(124.862 177.741)">
            <path fill="#E9F4FC" d="M0 0h110.793v82.397H0V0z"/>
        </g>
        <g clip-path="url(#hn6uls9z2l)" transform="translate(165.788 209)">
            <path fill="#2851E7" opacity="60.011%" d="M0 0h33v33H0V0z"/>
        </g>
    </g>
</svg>
