<svg width="111" height="99" viewBox="0 0 111 99" xmlns="http://www.w3.org/2000/svg" xmlns:xlink="http://www.w3.org/1999/xlink">
    <defs>
        <path d="M0 4.947a4.948 4.948 0 0 0 9.895.001A4.947 4.947 0 1 0 0 4.947z" id="zbd6zqfjla"/>
        <path d="M0 3.18a3.18 3.18 0 0 0 6.361.001A3.18 3.18 0 1 0 0 3.18z" id="vbf9og8xec"/>
        <path d="M4.92.202 3.66 1.463l-.045.049c-.24.294-.201.75.1 1.049.318.318.81.343 1.099.054l1.26-1.26.045-.051c.24-.292.202-.748-.098-1.048A.855.855 0 0 0 5.42 0a.7.7 0 0 0-.5.202zM.257.256C-.062.574-.087 1.067.2 1.355l1.262 1.261.05.044c.293.24.748.202 1.049-.099.318-.318.342-.81.054-1.098L1.354.201l-.05-.045A.7.7 0 0 0 .857 0a.858.858 0 0 0-.6.256zm3.459 3.458c-.32.319-.343.811-.055 1.099l1.262 1.261.05.046c.292.24.748.201 1.049-.1.318-.318.343-.811.054-1.099L4.814 3.66l-.051-.045a.705.705 0 0 0-.45-.156.853.853 0 0 0-.598.255zm-2.252-.053L.202 4.92l-.045.052c-.24.292-.202.748.099 1.048.318.319.81.343 1.099.054l1.26-1.261.046-.049c.239-.294.202-.75-.1-1.05a.853.853 0 0 0-.597-.255.695.695 0 0 0-.501.202z" id="m5cwd6mrqe"/>
        <path d="m4.92.203-1.26 1.26-.045.05c-.24.293-.201.749.1 1.049.317.318.809.342 1.098.054l1.26-1.26.046-.051c.24-.293.202-.748-.1-1.049A.85.85 0 0 0 5.422 0a.697.697 0 0 0-.5.203zM.256.256C-.062.574-.087 1.067.2 1.355l1.26 1.261.052.045c.292.24.748.201 1.048-.099.319-.319.343-.81.055-1.099L1.354.202l-.05-.045A.703.703 0 0 0 .855 0a.856.856 0 0 0-.6.256zm3.46 3.459c-.318.318-.343.81-.055 1.098l1.262 1.261.05.046c.292.239.747.202 1.048-.1.319-.317.343-.81.054-1.098L4.813 3.66l-.05-.045a.71.71 0 0 0-.45-.156.85.85 0 0 0-.598.256zm-2.253-.054-1.26 1.26-.045.051c-.24.293-.202.748.098 1.048.319.319.81.343 1.1.054l1.26-1.261.046-.049c.24-.294.2-.749-.1-1.049a.853.853 0 0 0-.598-.255.7.7 0 0 0-.501.201z" id="uyx2pgktyg"/>
        <path d="M8.322.341 6.19 2.472l-.076.084c-.406.496-.341 1.267.167 1.774.538.539 1.37.58 1.859.091l2.13-2.131.079-.084c.405-.496.339-1.266-.17-1.775A1.441 1.441 0 0 0 9.169 0c-.314 0-.617.112-.846.341zm-7.89.09C-.106.97-.148 1.802.34 2.289l2.134 2.133.083.077c.494.405 1.265.34 1.773-.169.539-.538.58-1.369.092-1.857L2.29.339 2.206.263A1.198 1.198 0 0 0 1.444 0C1.088 0 .719.145.432.431zM6.28 6.28c-.54.539-.578 1.37-.092 1.858l2.134 2.133.083.077c.496.405 1.266.34 1.774-.168.539-.539.579-1.371.092-1.858L8.139 6.188l-.084-.077a1.194 1.194 0 0 0-.76-.263c-.357 0-.727.146-1.014.432zm-3.807-.091L.342 8.321l-.077.085c-.406.495-.34 1.265.167 1.774.539.538 1.37.579 1.86.09l2.13-2.131.078-.084c.405-.496.34-1.267-.17-1.775a1.44 1.44 0 0 0-1.011-.431 1.18 1.18 0 0 0-.845.34z" id="noaks2cz3i"/>
    </defs>
    <g fill="none" fill-rule="evenodd">
        <g transform="translate(97.735 4.745)">
            <mask id="bgeunz59qb" fill="#fff">
                <use xlink:href="#zbd6zqfjla"/>
            </mask>
            <path fill="#FFD166" mask="url(#bgeunz59qb)" d="M-4.669 14.563h19.232V-4.668H-4.669z"/>
        </g>
        <g transform="translate(21.568 80.892)">
            <mask id="h9bd6pvvsd" fill="#fff">
                <use xlink:href="#vbf9og8xec"/>
            </mask>
            <path fill="#FFD166" mask="url(#h9bd6pvvsd)" d="M-3.001 9.361H9.36V-3.001H-3.001z"/>
        </g>
        <g transform="translate(99.865 32.12)">
            <mask id="qw32y39xhf" fill="#fff">
                <use xlink:href="#m5cwd6mrqe"/>
            </mask>
            <path fill="#215B58" mask="url(#qw32y39xhf)" d="M3.138-9.697 15.974 3.138 3.138 15.973-9.697 3.138z"/>
        </g>
        <g transform="translate(0 43.144)">
            <mask id="qopl9t00eh" fill="#fff">
                <use xlink:href="#uyx2pgktyg"/>
            </mask>
            <path fill="#215B58" mask="url(#qopl9t00eh)" d="M3.137-9.697 15.973 3.139 3.137 15.974-9.698 3.139z"/>
        </g>
        <g transform="translate(99.426 87.546)">
            <mask id="eoeivphfgj" fill="#fff">
                <use xlink:href="#noaks2cz3i"/>
            </mask>
            <path fill="#215B58" mask="url(#eoeivphfgj)" d="M5.306-16.4 27.012 5.305 5.306 27.011-16.399 5.305z"/>
        </g>
        <path d="M82.14 25.12V7.88a4.377 4.377 0 0 0-4.369-4.37h-67.76a4.367 4.367 0 0 0-4.358 4.37v17.24a4.367 4.367 0 0 0 4.358 4.368h67.76a4.377 4.377 0 0 0 4.37-4.369M84.65 7.88v17.24a6.88 6.88 0 0 1-6.88 6.88h-67.76c-3.788 0-6.868-3.082-6.868-6.88V7.88c0-3.788 3.08-6.88 6.868-6.88h67.76c3.8 0 6.88 3.092 6.88 6.88" fill="#073B4C"/>
        <path d="M82.14 7.88v17.239a4.377 4.377 0 0 1-4.369 4.369h-67.76a4.367 4.367 0 0 1-4.358-4.37V7.88a4.367 4.367 0 0 1 4.358-4.37h67.76a4.377 4.377 0 0 1 4.37 4.37" fill="#E9F4FC"/>
        <path d="M77.771 1h-67.76C6.223 1 3.143 4.092 3.143 7.88v17.239c0 3.799 3.08 6.88 6.868 6.88h67.76a6.88 6.88 0 0 0 6.88-6.88V7.88c0-3.788-3.08-6.88-6.88-6.88z" stroke="#073B4C"/>
        <path d="M82.14 25.12a4.377 4.377 0 0 1-4.369 4.368h-67.76a4.367 4.367 0 0 1-4.358-4.369V7.88a4.367 4.367 0 0 1 4.358-4.37h67.76a4.377 4.377 0 0 1 4.37 4.37v17.24z" stroke="#073B4C"/>
        <path d="m39.663 17.717-2.538-1.465 2.322-1.341a1.255 1.255 0 1 0-1.256-2.173l-2.11 1.217v-2.433a1.256 1.256 0 0 0-2.512 0v2.682l-2.535-1.462a1.255 1.255 0 1 0-1.256 2.174l2.323 1.338-2.537 1.465a1.256 1.256 0 0 0 .629 2.344c.213 0 .429-.056.626-.171l2.75-1.586v3.178a1.256 1.256 0 0 0 2.513 0V18.55l2.325 1.34c.198.115.414.172.626.172a1.258 1.258 0 0 0 .63-2.346" fill="#073B4C"/>
        <path d="m39.663 17.717-2.538-1.465 2.322-1.341a1.255 1.255 0 1 0-1.256-2.173l-2.11 1.217v-2.433a1.256 1.256 0 0 0-2.512 0v2.682l-2.535-1.462a1.255 1.255 0 1 0-1.256 2.174l2.323 1.338-2.537 1.465a1.256 1.256 0 0 0 .629 2.344c.213 0 .429-.056.626-.171l2.75-1.586v3.178a1.256 1.256 0 0 0 2.513 0V18.55l2.325 1.34c.198.115.414.172.626.172a1.258 1.258 0 0 0 .63-2.346z" stroke="#073B4C" stroke-width=".75"/>
        <path d="m22.865 17.717-2.538-1.465 2.322-1.341a1.254 1.254 0 1 0-1.256-2.173l-2.109 1.217v-2.433a1.257 1.257 0 0 0-2.512 0v2.682l-2.536-1.462a1.255 1.255 0 1 0-1.256 2.174l2.323 1.338-2.537 1.465a1.256 1.256 0 0 0 .629 2.344c.213 0 .429-.056.627-.171l2.75-1.586v3.178a1.257 1.257 0 0 0 2.512 0V18.55l2.325 1.34c.198.115.414.172.627.172a1.258 1.258 0 0 0 .629-2.346" fill="#073B4C"/>
        <path d="m22.865 17.717-2.538-1.465 2.322-1.341a1.254 1.254 0 1 0-1.256-2.173l-2.109 1.217v-2.433a1.257 1.257 0 0 0-2.512 0v2.682l-2.536-1.462a1.255 1.255 0 1 0-1.256 2.174l2.323 1.338-2.537 1.465a1.256 1.256 0 0 0 .629 2.344c.213 0 .429-.056.627-.171l2.75-1.586v3.178a1.257 1.257 0 0 0 2.512 0V18.55l2.325 1.34c.198.115.414.172.627.172a1.258 1.258 0 0 0 .629-2.346z" stroke="#073B4C" stroke-width=".75"/>
        <g>
            <path d="M92.94 74.754v-21.91c0-.78-.45-1.87-1.23-2.68s-1.78-1.32-2.81-1.32c-.34 0-1.14.3-2.16.63-.5.17-1.17.52-2.34.03-.58-.25-1.1-.8-1.32-1.31-.22-.51-.26-.93-.26-1.35 0-1.62-.12-2.09-.45-2.4-.82-.78-3.11-1.21-4.16-1.16-2.09.1-3.16 1.88-4.87 2.44-.2.06-.41.1-.61.1-1.12.01-2.04-.87-2.05-1.98 0-2.25-1.77-4-4.05-4-1.85 0-3.3 1.79-4.49 3.25-.38.48-.97.76-1.58.76a2.02 2.02 0 0 1-2.03-2.01v-23c0-1.12-.44-2.12-1.17-2.84-.72-.72-1.74-1.16-2.87-1.16-2.28 0-4.05 1.75-4.05 4v31s.01 2.17-.57 4.47c-.29 1.16-.72 2.38-1.55 3.47-.83 1.09-2.27 2.06-3.95 2.06-3.34 0-5.42-2.01-7.21-3.43-1.8-1.42-3.42-2.57-6.96-2.57-2.19 0-5.11.04-7.21.57-1.06.26-1.88.64-2.31 1.03-.43.38-.6.67-.6 1.4 0 1-.11 1.1.5 1.79.62.68 2.36 1.89 6.27 3.34 6.23 2.31 9.9 7.93 13.88 12.56 3.98 4.63 7.94 8.31 14.77 8.31h30.96c.11-.03.27-.15.38-.18.36-.13.7-.25 1.07-.38.75-.25 1.53-.55 2.25-1.03 1.44-.96 2.78-2.43 2.78-6.5m4.05-21.9v21.9c0 5.09-2.2 8.24-4.55 9.81-1.18.79-2.36 1.21-3.23 1.5-.43.15-.79.27-1.01.35-.12.04-.19.09-.19.09-.03.01-.06.02-.1.03-.02.02-.04.05-.06.07l-.03.03c-.05.02-.1.04-.16.06l-.09.03c-.23.08-.46.12-.7.12H55.5c-8.36 0-13.65-4.85-17.84-9.71-4.19-4.87-7.6-9.71-12.21-11.41-4.18-1.55-6.49-2.87-7.9-4.44-1.41-1.56-1.52-3.44-1.52-4.44-.1-8.25 11.98-7 14.17-7 3.38 0 5.85 1.04 7.72 2.21.74.5 4.02 2.81 4.61 3.3.52.28 1.04.45 1.65.48.05.01.09.03.14.03.03 0 .05-.01.08-.02.17 0 .28-.03.39-.12.08-.04.16-.09.23-.15a2.66 2.66 0 0 0 .38-.46c.08-.1.14-.21.2-.33.06-.14.12-.28.17-.43 0-.01.01-.01.01-.02.2-.37.28-.75.34-1.15.07-.32.11-.66.14-.98.03-.28.05-.56.05-.84-.01-.02-.02-.03-.02-.05.02-.11.03-.21.05-.32.03-.22.04-.45.02-.67.02-.28.03-.48.03-.48v-21h-.02v-4h.02v-6c0-4.12 3.24-7.42 7.31-7.84.19-.08.39-.13.6-.16h.19c4.17 0 7.52 3.2 7.93 7.22.11.25.16.52.16.78v18.29c.88-.56 1.86-1.12 3.04-1.3 2.45-.18 3.11.35 4.05.66v.01c2.09.87 3.75 2.57 4.52 4.72 1.58-.55 2.08-1.48 4.23-1.58 1.61-.08 4.79.49 6.24 1.67 1.09.89 1.65 2.32 1.93 3.94a6.65 6.65 0 0 1 2.31-.41c1.09 0 2.11.29 3.03.69 4.74 1.97 5.06 6.01 5.06 7.32" fill="#073B4C"/>
            <path d="M92.94 52.844v21.91c0 4.07-1.34 5.54-2.78 6.5-.72.48-1.5.78-2.25 1.03-.37.13-.71.25-1.07.38-.11.03-.27.15-.38.18H55.5c-6.83 0-10.79-3.68-14.77-8.31-3.98-4.63-7.65-10.25-13.88-12.56-3.91-1.45-5.65-2.66-6.27-3.34-.61-.69-.5-.79-.5-1.79 0-.73.17-1.02.6-1.4.43-.39 1.25-.77 2.31-1.03 2.1-.53 5.02-.57 7.21-.57 3.54 0 5.16 1.15 6.96 2.57 1.79 1.42 3.87 3.43 7.21 3.43 1.68 0 3.12-.97 3.95-2.06.83-1.09 1.26-2.31 1.55-3.47.58-2.3.57-4.47.57-4.47v-31c0-2.25 1.77-4 4.05-4 1.13 0 2.15.44 2.87 1.16.73.72 1.17 1.72 1.17 2.84v23a2.02 2.02 0 0 0 2.03 2.01c.61 0 1.2-.28 1.58-.76 1.19-1.46 2.64-3.25 4.49-3.25 2.28 0 4.05 1.75 4.05 4 .01 1.11.93 1.99 2.05 1.98.2 0 .41-.04.61-.1 1.71-.56 2.78-2.34 4.87-2.44 1.05-.05 3.34.38 4.16 1.16.33.31.45.78.45 2.4 0 .42.04.84.26 1.35.22.51.74 1.06 1.32 1.31 1.17.49 1.84.14 2.34-.03 1.02-.33 1.82-.63 2.16-.63 1.03 0 2.03.51 2.81 1.32.78.81 1.23 1.9 1.23 2.68" fill="#FFF"/>
        </g>
    </g>
</svg>
