<svg width="25" height="24" viewBox="0 0 25 24" xmlns="http://www.w3.org/2000/svg">
    <g fill="none" fill-rule="evenodd">
        <path d="M24.5 12c0-6.351-5.373-11.5-12-11.5S.5 5.649.5 12c0 6.35 5.373 11.5 12 11.5s12-5.15 12-11.5zm-1.8 0c0 5.398-4.567 9.775-10.2 9.775-5.633 0-10.2-4.377-10.2-9.775 0-5.399 4.567-9.775 10.2-9.775 5.633 0 10.2 4.376 10.2 9.775z" fill="#48464D" fill-rule="nonzero"/>
        <path d="M8.906 16.5c1.155 1.092 2.351 1.637 3.588 1.637s2.5-.545 3.792-1.637M10.344 9.75c-.367-1-1.066-1.5-2.097-1.5-1.03 0-1.77.5-2.216 1.5M18.969 9.75c-.367-1-1.066-1.5-2.097-1.5-1.03 0-1.77.5-2.216 1.5" stroke="#48464D" stroke-width="2" stroke-linecap="round"/>
    </g>
</svg>
