<svg xmlns="http://www.w3.org/2000/svg" width="18" height="18" viewBox="0 0 18 18">
    <g fill="none" fill-rule="evenodd">
        <g fill="#073B4C" fill-rule="nonzero">
            <g>
                <path d="M5.652 0C6.219.017 6.768.116 7.3.297h.053c.036.017.063.036.081.053.199.064.387.136.567.235l.342.153c.135.072.297.206.387.261.09.053.189.108.27.17C10 .405 11.214-.009 12.465 0c.568 0 1.135.08 1.674.261 3.322 1.08 4.519 4.725 3.519 7.911-.567 1.628-1.494 3.114-2.708 4.328-1.738 1.683-3.645 3.177-5.698 4.464l-.225.136-.234-.145c-2.06-1.278-3.978-2.772-5.732-4.464C1.855 11.277.927 9.801.35 8.172c-1.017-3.186.18-6.83 3.538-7.93.26-.09.53-.153.8-.188h.108C5.05.017 5.301 0 5.553 0zm8.019 2.844c-.369-.127-.774.072-.909.45-.126.378.072.792.45.926.577.216.963.784.963 1.413v.028c-.017.206.045.405.171.558.126.153.315.242.513.261.369-.01.684-.306.711-.685v-.107c.027-1.26-.737-2.403-1.899-2.844z" transform="translate(-328 -166) translate(328 166) translate(0 .45)"/>
            </g>
        </g>
    </g>
</svg>
