<svg width="18" height="17" viewBox="0 0 18 17" xmlns="http://www.w3.org/2000/svg">
    <path d="M9.243 17C4.604 17 .844 13.194.844 8.5S4.604 0 9.243 0c4.637 0 8.398 3.806 8.398 8.5S13.88 17 9.243 17zm0-1.275c3.941 0 7.138-3.235 7.138-7.225 0-3.99-3.197-7.225-7.138-7.225C5.3 1.275 2.104 4.51 2.104 8.5c0 3.99 3.196 7.225 7.139 7.225zm-.005-6.058a.633.633 0 0 1-.624-.55l-.006-.087V5.273c0-.352.282-.637.63-.637.32 0 .583.24.624.551l.006.086V9.03a.634.634 0 0 1-.63.637zm0 2.697a.634.634 0 0 1-.63-.637c0-.323.237-.59.545-.632l.094-.006c.347 0 .63.285.63.638 0 .322-.237.589-.545.631l-.094.006z" fill="currentColor" fill-rule="evenodd"/>
</svg>
