<svg width="17" height="17" viewBox="0 0 17 17" xmlns="http://www.w3.org/2000/svg">
    <path d="M13.9 2.125c.04 0 .081.018.101.018h.02l.061.019c0 .019.02.019.02.019l.061.036c0 .02.02.02.02.02l.061.055 2.695 3.892v.018c.02.019.04.037.04.056v.018c.021.037.021.056.021.093v.111c0 .037 0 .056-.02.074v.019a.229.229 0 0 1-.041.055l-8.105 8.136-.081.074h-.02c-.02 0-.02.018-.04.018 0 .013-.01.017-.016.018l-.329.001c0-.012-.009-.016-.015-.018-.026 0-.026-.019-.045-.019h-.041l-.061-.056L.08 6.665l-.06-.074v-.018c0-.037-.02-.056-.02-.075v-.11c0-.037 0-.056.02-.094v-.018l.04-.055V6.2l2.695-3.89.06-.057.006-.012.015-.006.04-.029a.101.101 0 0 0 .02-.026c0-.013.01-.017.016-.018l.066-.02h.02a.172.172 0 0 1 .066-.017L13.9 2.125zm-3.613 4.651H6.734a.27.27 0 0 0-.253.357l1.776 5.35a.266.266 0 0 0 .506 0l1.776-5.35a.27.27 0 0 0-.252-.357zm-4.967 0H1.967c-.239 0-.357.293-.188.463l5.022 5.022c.2.2.53-.008.44-.278L5.573 6.96a.267.267 0 0 0-.253-.184zm9.734 0H11.7a.267.267 0 0 0-.253.184l-1.669 5.023c-.09.27.24.478.44.278l5.022-5.022c.17-.17.051-.463-.187-.463zM2.882 3.514 1.429 5.61a.27.27 0 0 0 .219.425h2.904a.27.27 0 0 0 .219-.425L3.318 3.515a.265.265 0 0 0-.436 0zm10.82.016-1.45 2.08a.27.27 0 0 0 .217.425h2.901a.27.27 0 0 0 .218-.426l-1.45-2.079a.265.265 0 0 0-.436 0zm-5.41-.016L6.557 6.017H9.96a.27.27 0 0 0 .217-.426l-1.45-2.078a.265.265 0 0 0-.436 0zm-1.027-.63h-2.9a.27.27 0 0 0-.218.426l1.45 2.08c.107.152.33.152.436 0l1.45-2.08a.27.27 0 0 0-.218-.425zm5.39 0h-2.9a.27.27 0 0 0-.218.426l1.45 2.08c.107.152.33.152.436 0l1.45-2.08a.27.27 0 0 0-.217-.425z" fill="#073B4C" fill-rule="evenodd"/>
</svg>
