<svg width="40" height="40" viewBox="0 0 40 40" xmlns="http://www.w3.org/2000/svg">
    <path d="M20.02 0c5.687 0 10.327 4.513 10.556 10.165l.008.437v3.152a9.084 9.084 0 0 1 6.078 8.301l.005.283v8.578c0 4.928-3.91 8.938-8.786 9.08l-.267.004H12.386c-4.91 0-8.908-3.922-9.049-8.816l-.004-.268v-8.578a9.085 9.085 0 0 1 6.083-8.584v-3.198C9.442 4.7 14.191-.025 20.02 0zm7.594 16.254H12.386c-3.273 0-5.94 2.6-6.059 5.856l-.004.228v8.578c0 3.284 2.592 5.96 5.835 6.08l.228.004h15.228c3.273 0 5.94-2.6 6.059-5.856l.004-.228v-8.578c0-3.36-2.714-6.084-6.063-6.084zM20 22.906c.757 0 1.383.564 1.482 1.297l.013.203v4.442c0 .829-.67 1.5-1.495 1.5a1.497 1.497 0 0 1-1.48-1.296l-.014-.204v-4.442c0-.828.669-1.5 1.494-1.5zM20.013 3c-4.053-.018-7.375 3.161-7.595 7.172l-.012.39v2.691h15.188v-2.65C27.595 6.404 24.203 3 20.014 3z" fill="#073B4C" fill-rule="evenodd"/>
</svg>
