<svg xmlns="http://www.w3.org/2000/svg" width="69" height="69" viewBox="0 0 69 69">
    <g fill="none" fill-rule="evenodd">
        <g fill="#00D576">
            <g>
                <path d="M34.5 0C53.554 0 69 15.446 69 34.5 69 53.554 53.554 69 34.5 69 15.446 69 0 53.554 0 34.5 0 15.446 15.446 0 34.5 0zm12.666 24.904c-1.004-.984-2.622-.977-3.613.02L32.16 36.38l-4.665-4.574c-1.005-.985-2.619-.974-3.613.024-.991.998-.98 2.601.024 3.586l6.48 6.36c.504.494 1.157.737 1.811.73.654-.003 1.304-.253 1.802-.754L47.187 28.49c.99-.998.98-2.601-.02-3.586z" transform="translate(-255.000000, -308.000000) translate(255.000000, 308.000000)"/>
            </g>
        </g>
    </g>
</svg>
