<svg width="30" height="30" viewBox="0 0 30 30" xmlns="http://www.w3.org/2000/svg">
    <path d="M26.765 0c1.718 0 3.123 1.361 3.229 3.08l.006.208v7.174c0 1.746-1.34 3.174-3.03 3.282l-.205.006H23.75v12.9c0 1.78-1.285 3.234-2.908 3.343l-.197.007H9.355c-1.649 0-2.998-1.386-3.099-3.138l-.006-.211V13.75H3.235c-1.718 0-3.123-1.361-3.229-3.08L0 10.462V3.288C0 1.542 1.34.114 3.03.006L3.236 0h23.53zm-4.709 8.077H7.944V26.65c0 .735.483 1.35 1.126 1.491l.14.023.145.008h11.29c.728 0 1.327-.594 1.403-1.356l.008-.166V8.077zM15.115 12.5c.394 0 .71.33.76.749l.008.116v.48l.628.002c.394 0 .71.33.76.748l.008.116c0 .432-.284.798-.663.856l-.105.008h-2.045c-.231 0-.43.232-.43.53 0 .265.157.478.354.523l.076.008h1.068c1.09 0 1.966 1.019 1.966 2.259 0 1.08-.662 2.003-1.576 2.214l-.042.007v.52c0 .431-.283.798-.662.856l-.105.008-.105-.008c-.34-.052-.605-.354-.654-.729l-.009-.127v-.483h-.858c-.394 0-.71-.33-.76-.748l-.008-.116c0-.431.284-.798.662-.856l.106-.008h2.045c.231 0 .43-.232.43-.53 0-.265-.157-.478-.354-.522l-.076-.008h-1.068c-1.09 0-1.966-1.02-1.966-2.26 0-1.18.794-2.16 1.811-2.252l.036-.001v-.487c0-.432.284-.799.663-.857l.105-.008zm11.65-10.707H3.235a1.48 1.48 0 0 0-1.463 1.342l-.007.153v7.174c0 .774.578 1.41 1.32 1.487l.15.008H6.25V7.811H4.375a.938.938 0 0 1-.127-1.866l.127-.008h21.25a.937.937 0 0 1 .127 1.866l-.127.008H23.75v4.144h3.015a1.48 1.48 0 0 0 1.463-1.341l.007-.153V3.288c0-.774-.578-1.41-1.32-1.487l-.15-.008z" fill="#073B4C" fill-rule="nonzero"/>
</svg>
