<svg width="21" height="20" viewBox="0 0 21 20" xmlns="http://www.w3.org/2000/svg">
    <path d="M10.5 0C14.636 0 18 3.364 18 7.5c0 5.199-6.77 12.029-7.057 12.317a.628.628 0 0 1-.886 0C9.77 19.53 3 12.7 3 7.5 3 3.364 6.364 0 10.5 0zm0 1.25A6.257 6.257 0 0 0 4.25 7.5c0 3.971 4.758 9.374 6.25 10.971 1.492-1.597 6.25-7.004 6.25-10.971a6.257 6.257 0 0 0-6.25-6.25zm0 2.5a3.755 3.755 0 0 1 3.75 3.75 3.755 3.755 0 0 1-3.75 3.75A3.755 3.755 0 0 1 6.75 7.5a3.755 3.755 0 0 1 3.75-3.75zm0 1.25A2.503 2.503 0 0 0 8 7.5C8 8.879 9.121 10 10.5 10S13 8.879 13 7.5 11.879 5 10.5 5z" fill="#5A50F9" fill-rule="evenodd"/>
</svg>
