<svg width="60" height="60" viewBox="0 0 60 60" xmlns="http://www.w3.org/2000/svg">
    <path d="m2.987.368.21.181 9.451 9.469H50c5.523 0 10 4.487 10 10.02v20.038a10.02 10.02 0 0 1-7.635 9.738l6.97 6.984A1.878 1.878 0 0 1 58.012 60c-.383 0-.766-.118-1.09-.352l-.232-.198L.55 3.202a1.878 1.878 0 0 1 0-2.653A1.87 1.87 0 0 1 2.987.368zm1.216 11.505 2.713 2.717a6.263 6.263 0 0 0-3.153 5.036l-.013.412v1.878h10.477l3.751 3.758H3.75v14.402a6.257 6.257 0 0 0 5.84 6.25l.41.012h28.602l3.75 3.757H10c-5.523 0-10-4.485-10-10.019V20.038c0-3.368 1.659-6.348 4.203-8.165zm25.49 15.219.307.46.914.762 7.786 7.802 2.685 2.695 7.511 7.527H50c3.314 0 6.025-2.583 6.237-5.85l.013-.412V25.674l-27.972-.001 1.416 1.419zM19.459 16.839l2.7 2.702 2.369 2.374H56.25v-1.877a6.257 6.257 0 0 0-5.84-6.249l-.41-.013-33.602-.001 3.06 3.064z" fill="#FFFEFE" fill-rule="evenodd"/>
</svg>
