<svg width="24" height="24" viewBox="0 0 24 24" xmlns="http://www.w3.org/2000/svg">
    <path d="M17.2 0C21.286 0 24 2.915 24 7.1v9.8c0 4.185-2.715 7.1-6.8 7.1H6.798C2.714 24 0 21.085 0 16.9V7.1C0 2.92 2.72 0 6.798 0zm0 1.8H6.799C3.744 1.8 1.8 3.886 1.8 7.1v9.8c0 3.218 1.938 5.3 4.998 5.3H17.2c3.061 0 5-2.082 5-5.3V7.1c0-3.218-1.939-5.3-5-5.3zM8.209 8.878c1.411 0 2.604.937 2.99 2.222h6.814a.9.9 0 0 1 .892.778l.008.122v2.222a.9.9 0 0 1-1.792.123l-.008-.123V12.9l-1.595-.001v1.323a.9.9 0 0 1-1.791.122l-.009-.122V12.9h-2.519a3.125 3.125 0 0 1-2.813 2.217l-.177.005a3.123 3.123 0 0 1 0-6.244zm0 1.8a1.323 1.323 0 1 0 .003 2.645 1.323 1.323 0 0 0-.003-2.645z" fill="#073B4C" fill-rule="evenodd"/>
</svg>
