<svg width="25" height="21" viewBox="0 0 25 21" xmlns="http://www.w3.org/2000/svg" xmlns:xlink="http://www.w3.org/1999/xlink">
    <defs>
        <path id="c01hhbotoa" d="M0 0h12v12H0z"/>
        <path id="9sa8cmmi2c" d="M0 0h24v16H0z"/>
    </defs>
    <g fill="none" fill-rule="evenodd">
        <g transform="translate(7 9)">
            <mask id="3e7blukiub" fill="#fff">
                <use xlink:href="#c01hhbotoa"/>
            </mask>
            <path d="m9.006 5.004-.03-.072C8.402 3.56 7.383 2.856 5.948 2.844c-1.025-.01-1.841.534-2.281 1.05H4.86v.965H2.278V2.28h.965v.654c1.403-1.138 2.9-1.371 4.453-.692 1.025.449 1.762 1.24 2.191 2.35l.03.076-.91.337zm.715 4.713h-.965v-.645c-.861.71-1.769 1.067-2.713 1.067-.582 0-1.178-.136-1.786-.407-1.002-.447-1.724-1.23-2.145-2.326l-.03-.077.91-.336.03.072c.58 1.383 1.604 2.084 3.042 2.085h.001c.88 0 1.644-.352 2.273-1.046H7.14v-.967h2.58v2.58zM6 0a6 6 0 1 0 0 12A6 6 0 0 0 6 0z" fill="#003D50" mask="url(#3e7blukiub)"/>
        </g>
        <g transform="translate(.766)">
            <mask id="77y92cbftd" fill="#fff">
                <use xlink:href="#9sa8cmmi2c"/>
            </mask>
            <path d="M22.5 4.749h-21v-.75l.005-.163A2.5 2.5 0 0 1 4 1.5h16l.164.005A2.5 2.5 0 0 1 22.5 4v.749zM20 0H4a4 4 0 0 0-4 4v8a4 4 0 0 0 4 4h1.016a7.61 7.61 0 0 1 .05-1.5H4l-.164-.006A2.5 2.5 0 0 1 1.5 12V6.249h21v5.75l-.005.165A2.5 2.5 0 0 1 20 14.499h-.066a7.58 7.58 0 0 1 .05 1.501H20a4 4 0 0 0 4-4V4a4 4 0 0 0-4-4z" fill="#003D50" mask="url(#77y92cbftd)"/>
        </g>
    </g>
</svg>
