<svg xmlns="http://www.w3.org/2000/svg" width="24" height="24" viewBox="0 0 24 24">
    <g fill="none" fill-rule="evenodd">
        <g fill="#18B279" fill-rule="nonzero">
            <g>
                <path d="M20.832 4.162L9.234 15.894 3.166 9.761c-.463-.483-1.147-.676-1.79-.506-.644.171-1.147.68-1.316 1.33-.168.651.023 1.344.5 1.812l7.372 7.457c.72.728 1.886.728 2.606 0L23.44 6.803c.477-.468.668-1.16.5-1.812-.17-.65-.672-1.16-1.315-1.33-.644-.17-1.328.023-1.791.506l-.002-.005z" transform="translate(-23 -376) translate(23 376)"/>
            </g>
        </g>
    </g>
</svg>
