<svg width="30" height="30" viewBox="0 0 30 30" xmlns="http://www.w3.org/2000/svg">
    <path d="M29.903 7.028a1.263 1.263 0 0 0-.274-.41c-.007-.007-.015-.009-.021-.015a1.285 1.285 0 0 0-.39-.257 1.26 1.26 0 0 0-.371-.076c-.038-.002-.07-.02-.108-.02H18.656a1.26 1.26 0 1 0 0 2.521h7.053l-9.978 10.035-3.796-4.86a1.26 1.26 0 0 0-1.86-.14L.393 22.97a1.262 1.262 0 0 0-.05 1.783 1.263 1.263 0 0 0 1.783.048l8.673-8.212 3.823 4.894a1.258 1.258 0 0 0 1.889.113l10.967-11.03v7.028a1.26 1.26 0 1 0 2.521 0V7.51a1.294 1.294 0 0 0-.097-.481z" fill="#073B4C" fill-rule="evenodd"/>
</svg>
