<svg xmlns="http://www.w3.org/2000/svg" width="70" height="50" viewBox="0 0 70 50">
    <defs>
        <filter id="fevmxma9xa" width="140%" height="129%" x="-20%" y="-14.5%" filterUnits="objectBoundingBox">
            <feOffset dy="2" in="SourceAlpha" result="shadowOffsetOuter1"/>
            <feGaussianBlur in="shadowOffsetOuter1" result="shadowBlurOuter1" stdDeviation="4"/>
            <feColorMatrix in="shadowBlurOuter1" result="shadowMatrixOuter1" values="0 0 0 0 0 0 0 0 0 0 0 0 0 0 0 0 0 0 0.1 0"/>
            <feMerge>
                <feMergeNode in="shadowMatrixOuter1"/>
                <feMergeNode in="SourceGraphic"/>
            </feMerge>
        </filter>
    </defs>
    <g fill="none" fill-rule="evenodd">
        <g fill-rule="nonzero">
            <g filter="url(#fevmxma9xa)" transform="translate(-30.000000, -453.000000) translate(15.000000, 426.000000)">
                <g>
                    <g transform="translate(15.000000, 27.000000) translate(23.000000, 2.000000)">
                        <path fill="#FFF" d="M23.701 42.925c0 1.462-1.308 2.648-2.92 2.648H3.62c-1.612 0-2.92-1.186-2.92-2.648V3.22c0-1.462 1.308-2.647 2.92-2.647h17.16c1.612 0 2.92 1.185 2.92 2.647v39.706z"/>
                        <rect width="10.676" height="2.605" x="6.661" y=".381" fill="#073B4C" rx=".665"/>
                        <path fill="#073B4C" d="M20.065 0C22.238 0 24 1.65 24 3.685v38.63C24 44.35 22.238 46 20.065 46H3.932C1.76 45.999 0 44.35 0 42.315V3.685C0 1.65 1.76 0 3.932 0zm.141.96H3.794C2.25.96 1 2.12 1 3.549V42.37c0 1.43 1.25 2.589 2.794 2.589h16.412c1.543 0 2.794-1.159 2.794-2.589V3.55C23 2.119 21.75.96 20.206.96z"/>
                        <path fill="#073B4C" d="M8.97 26.491c.52 0 .985-.096 1.398-.288.412-.193.753-.445 1.021-.756.268-.311.459-.648.57-1.01v-1.35H8.67v1.07h1.92c-.118.34-.305.6-.562.78-.256.182-.57.272-.942.272-.542 0-.968-.154-1.278-.462-.31-.309-.464-.738-.464-1.287 0-.515.147-.926.442-1.235.295-.308.687-.463 1.176-.463.283 0 .53.053.739.157.21.105.37.257.482.455h1.671c-.165-.612-.502-1.09-1.012-1.435s-1.137-.518-1.88-.518c-.613 0-1.158.129-1.636.386-.477.258-.85.617-1.119 1.078-.268.462-.402.987-.402 1.575 0 .59.134 1.113.402 1.571.269.459.643.817 1.124 1.074.48.258 1.027.386 1.64.386zm6.722-.042c.648 0 1.154-.146 1.516-.437.363-.292.544-.687.544-1.185 0-.345-.109-.652-.327-.92-.218-.27-.507-.44-.867-.515.319-.09.574-.251.765-.483.192-.233.288-.524.288-.875 0-.475-.178-.852-.535-1.13-.357-.277-.85-.415-1.482-.415H12.8v5.96h2.892zm-.39-3.549h-.99v-1.248h.99c.248 0 .438.054.571.161.133.108.199.263.199.467 0 .204-.066.358-.199.463-.133.105-.323.157-.57.157zm.124 2.377h-1.114v-1.316h1.097c.253 0 .452.06.597.179.144.118.216.283.216.492 0 .21-.069.37-.207.48-.139.11-.335.165-.589.165z"/>
                    </g>
                </g>
            </g>
        </g>
    </g>
</svg>
