<svg xmlns="http://www.w3.org/2000/svg" width="24" height="24" viewBox="0 0 24 24">
    <g fill="none" fill-rule="evenodd">
        <g>
            <g transform="translate(-37 -444) translate(37 444)">
                <path fill="#FFF" stroke="#48464D" stroke-width="1.5" d="M15.478.75c.801.05 1.492.374 1.984.88.498.512.788 1.206.788 1.97h0v16.78c-.049.834-.366 1.556-.864 2.068-.49.504-1.154.802-1.886.802h0-6.978c-.801-.05-1.492-.374-1.984-.88-.498-.512-.788-1.206-.788-1.97h0V3.62c.049-.834.366-1.556.864-2.068C7.104 1.048 7.768.75 8.5.75h0z"/>
                <rect width="6" height="2" x="9" y="3" fill="#48464D" rx="1"/>
                <path fill="#48464D" d="M12.104 19c.292.001.572.113.782.315.205.201.32.474.321.758 0 .284-.115.557-.322.76-.209.201-.49.313-.783.314-.254 0-.5-.087-.695-.243l-.013-.012h-.01l-.06-.06c-.206-.202-.322-.474-.324-.761.003-.284.12-.555.325-.758.18-.175.417-.283.669-.307l.11-.006z"/>
            </g>
        </g>
    </g>
</svg>
