<svg width="132" height="126" viewBox="0 0 132 126" xmlns="http://www.w3.org/2000/svg">
    <g fill="none" fill-rule="evenodd">
        <path d="M4 25.906v2.187l.002.083c.023.462.237.824.498.824.276 0 .5-.406.5-.907v-2.187l-.002-.082C4.975 25.361 4.76 25 4.5 25c-.276 0-.5.405-.5.906zM5.906 29l-.083.002c-.46.023-.823.237-.823.498 0 .277.406.5.906.5h2.189l.082-.002c.46-.022.823-.237.823-.498 0-.276-.406-.5-.905-.5h-2.19zm-5 0-.082.002C.362 29.025 0 29.24 0 29.5c0 .277.407.5.906.5h2.188l.083-.002c.46-.022.823-.237.823-.498 0-.276-.406-.5-.906-.5H.906zM4 30.907v2.186l.002.083c.023.462.237.824.498.824.276 0 .5-.407.5-.907v-2.186l-.002-.083C4.975 30.362 4.76 30 4.5 30c-.276 0-.5.407-.5.907z" fill="#073B4C"/>
        <circle fill="#073B4C" cx="28.5" cy="11.5" r="3.5"/>
        <path d="M9.5 1a3.5 3.5 0 1 1-.26 6.99 3 3 0 0 1-3.23-3.23A3.5 3.5 0 0 1 9.5 1zM9 2.462a2.57 2.57 0 0 0-.226.01A2.155 2.155 0 0 0 9.5 6.653c.935 0 1.73-.595 2.028-1.427A2.54 2.54 0 0 0 9 2.462z" fill="#073B4C" fill-rule="nonzero"/>
        <circle fill="#073B4C" cx="130" cy="32" r="2"/>
        <path d="M120 1.36v3.28l.004.124c.047.693.475 1.236.996 1.236.552 0 1-.609 1-1.36V1.36l-.004-.124C121.95.542 121.52 0 121 0c-.551 0-1 .607-1 1.36zM123.359 6l-.124.004C122.543 6.051 122 6.48 122 7c0 .553.609 1 1.359 1h3.283l.123-.003C127.457 7.95 128 7.522 128 7c0-.552-.609-1-1.358-1h-3.283zm-8 0-.123.004C114.543 6.051 114 6.48 114 7c0 .553.61 1 1.359 1h3.282l.124-.003C119.457 7.95 120 7.522 120 7c0-.552-.609-1-1.359-1h-3.282zM120 10.36v3.28l.004.124c.047.693.475 1.236.996 1.236.552 0 1-.61 1-1.36v-3.28l-.004-.124C121.95 9.543 121.52 9 121 9c-.551 0-1 .61-1 1.36z" fill="#073B4C"/>
        <g fill-rule="nonzero">
            <path fill="#E9F4FC" d="M15.295 56.97h106.377v66.97H15.295z"/>
            <path d="M130.967 53.251c0 8.313-6.878 15.052-15.363 15.052-6.142 0-11.442-3.532-13.9-8.636a1.611 1.611 0 0 0-2.924 0c-2.458 5.104-7.759 8.636-13.9 8.636-6.143 0-11.444-3.532-13.902-8.636a1.611 1.611 0 0 0-2.923 0c-2.459 5.104-7.76 8.636-13.901 8.636-6.142 0-11.443-3.532-13.901-8.636a1.611 1.611 0 0 0-2.924 0c-2.458 5.104-7.758 8.636-13.9 8.636-8.485 0-15.363-6.739-15.363-15.052l14.716-25.233a3.98 3.98 0 0 1 3.442-1.957h86.584a3.98 3.98 0 0 1 3.442 1.957l14.717 25.233z" fill="#B5EDFF"/>
            <path d="M112.808 26.06H26.225c-1.423 0-2.737.737-3.443 1.929L8.066 52.849h122.901l-14.717-24.86c-.706-1.192-2.02-1.928-3.442-1.928z" fill="#B5EDFF"/>
            <g fill="#FFFDE7">
                <path d="M88.718 76.545h23.659v47.394H88.718zM25.623 76.545H78.86v37.521H25.623z"/>
            </g>
            <path d="M126.209 122.32h-2.1V67.74C128.85 64.697 132 59.394 132 53.37c0-.32-.084-.635-.243-.913L117.11 26.909A5.808 5.808 0 0 0 112.083 24H25.917c-2.073 0-4 1.114-5.028 2.909L6.243 52.457c-.16.277-.243.592-.243.913 0 6.025 3.15 11.328 7.89 14.37v54.58h-2.099c-1.02 0-1.846.824-1.846 1.84s.827 1.84 1.846 1.84H126.21c1.02 0 1.846-.824 1.846-1.84s-.827-1.84-1.846-1.84zM9.819 55.21h5.917c1.019 0 1.845-.824 1.845-1.84 0-1.017-.826-1.84-1.845-1.84h-4.71l13.068-22.796a2.106 2.106 0 0 1 1.823-1.054h86.166c.751 0 1.45.404 1.823 1.054l13.068 22.796h-4.71c-1.02 0-1.847.823-1.847 1.84 0 1.016.826 1.84 1.846 1.84h5.918c-.902 6.52-6.53 11.56-13.316 11.56-6.786 0-12.41-5.04-13.312-11.56h12.82c1.02 0 1.846-.824 1.846-1.84 0-1.017-.826-1.84-1.846-1.84H23.628c-1.02 0-1.846.823-1.846 1.84 0 1.016.827 1.84 1.846 1.84h12.82c-.903 6.52-6.528 11.56-13.314 11.56-6.786 0-12.413-5.04-13.315-11.56zm87.783 0c-.903 6.52-6.528 11.56-13.313 11.56-6.786 0-12.41-5.04-13.313-11.56h26.626zm-30.578 0c-.902 6.52-6.527 11.56-13.313 11.56-6.785 0-12.41-5.04-13.313-11.56h26.626zM17.582 69.522c1.743.597 3.61.926 5.552.926 6.668 0 12.459-3.816 15.289-9.373 2.83 5.556 8.62 9.373 15.288 9.373 6.668 0 12.459-3.816 15.289-9.373 2.83 5.556 8.62 9.373 15.289 9.373 6.667 0 12.458-3.816 15.288-9.373 2.83 5.556 8.62 9.373 15.289 9.373 1.943 0 3.81-.329 5.552-.926v52.797h-6.172V76.966c0-1.016-.827-1.84-1.846-1.84H88.727c-1.02 0-1.845.824-1.845 1.84v45.354h-69.3V69.523zm92.972 42.965H90.573V78.806h19.98v33.682zm-19.981 3.68h19.98v6.152h-19.98v-6.152z" fill="#073B4C"/>
            <path d="M78.52 75.515H25.398c-1.016 0-1.84.827-1.84 1.848v37.517c0 1.02.824 1.847 1.84 1.847H78.52c1.017 0 1.84-.827 1.84-1.847V77.363c0-1.02-.823-1.848-1.84-1.848zm-1.84 37.517H27.238V79.21h49.44v33.822z" fill="#073B4C"/>
        </g>
    </g>
</svg>
