<svg width="24" height="24" viewBox="0 0 24 24" xmlns="http://www.w3.org/2000/svg">
    <path d="M12 0c4.963 0 9 4.037 9 9 0 6.239-8.124 14.434-8.469 14.781a.753.753 0 0 1-1.062 0C11.124 23.435 3 15.239 3 9c0-4.963 4.037-9 9-9zm0 1.5C7.864 1.5 4.5 4.864 4.5 9c0 4.765 5.709 11.248 7.5 13.166C13.791 20.248 19.5 13.76 19.5 9c0-4.136-3.364-7.5-7.5-7.5zm0 3c2.481 0 4.5 2.019 4.5 4.5s-2.019 4.5-4.5 4.5A4.505 4.505 0 0 1 7.5 9c0-2.481 2.019-4.5 4.5-4.5zM12 6c-1.655 0-3 1.346-3 3 0 1.655 1.345 3 3 3s3-1.345 3-3c0-1.654-1.345-3-3-3z" fill="currentColor" fill-rule="evenodd"/>
</svg>
