<svg width="24" height="24" viewBox="0 0 24 24" fill="none" xmlns="http://www.w3.org/2000/svg">
<path fill-rule="evenodd" clip-rule="evenodd" d="M1.19472 0.147047C0.901604 -0.0704388 0.485663 -0.0462737 0.219847 0.219542C-0.0725511 0.512123 -0.0725511 0.986173 0.219847 1.27857L22.676 23.7347L22.7685 23.8135C22.8983 23.9069 23.0516 23.9542 23.2049 23.9542C23.3966 23.9542 23.5883 23.8815 23.7339 23.7347C24.0263 23.4423 24.0263 22.9683 23.7339 22.6757L20.9461 19.8875C22.6986 19.4625 24 17.8833 24 16.0001V8.00006C24 5.79092 22.2091 4.00006 20 4.00006H5.05974L1.27869 0.219542L1.19472 0.147047ZM6.55995 5.50006L7.78308 6.72301L8.86294 7.80178L9.81127 8.75006H22.5V8.00006C22.5 6.67458 21.4685 5.59002 20.1644 5.50538L20 5.50006H6.55995ZM11.3113 10.2501L11.8775 10.8162L12 11.0001L12.3655 11.3042L15.4801 14.4189L16.5539 15.4948L19.5588 18.5001H20C21.3255 18.5001 22.41 17.4685 22.4947 16.1644L22.5 16.0001V10.2501H11.3113ZM0 8.00006C0 6.65519 0.66371 5.46533 1.68145 4.74018L2.76639 5.82512C2.05492 6.22953 1.56131 6.97296 1.50532 7.83569L1.5 8.00006V8.75006H5.69134L7.19134 10.2501H1.5V16.0001C1.5 17.3255 2.53154 18.4101 3.83562 18.4947L4 18.5001H15.4413L16.9413 20.0001H4C1.79086 20.0001 0 18.2092 0 16.0001V10.2501V8.75006V8.00006Z" fill="#052C50"/>
</svg>
