<svg width="30" height="30" viewBox="0 0 30 30" xmlns="http://www.w3.org/2000/svg">
    <path d="M22.5 0c4.054 0 6.56 3.008 7.483 8.545.034.2.017.399-.04.58.037.284.057.577.057.875 0 2.177-1.043 4.028-2.5 4.715v8.899l-.005.292c-.134 3.942-3.01 5.993-7.49 6.09l-.34.004h-9.33l-.336-.004c-4.542-.1-7.362-2.242-7.494-6.344l-.005-.304v-8.632C1.044 14.029 0 12.177 0 10c0-.298.02-.59.057-.875a1.245 1.245 0 0 1-.04-.58C.918 3.14 3.328.145 7.213.005L7.5 0h15zm-7.435 9.749h-.07l.004.125L15 10c0 2.761-1.679 5-3.75 5-2.071 0-3.75-2.239-3.75-5 0 2.32-1.185 4.271-2.793 4.836v8.512l.005.274c.062 1.607.68 2.734 1.85 3.414V20a3.438 3.438 0 0 1 3.229-3.431l.209-.006h1.25a3.438 3.438 0 0 1 3.431 3.228l.006.209v7.5c0 .111-.005.22-.015.33l4.993-.002.331-.003c3.37-.078 5.182-1.364 5.292-3.957l.006-.254-.001-8.778c-1.461-.513-2.574-2.172-2.764-4.212C22.3 13.091 20.722 15 18.809 15c-2.07 0-3.75-2.239-3.75-5l.006-.251zm-3.815 8.688H10c-.809 0-1.474.615-1.554 1.403l-.009.16v7.5c0 .061.004.122.01.181.454.079.947.126 1.48.142l.408.005h2.443c.011-.052.02-.106.026-.16l.008-.168V20c0-.809-.614-1.474-1.402-1.554l-.16-.009zm9.976-1.1a3.438 3.438 0 0 1 3.431 3.228l.007.21v1.25a3.438 3.438 0 0 1-3.228 3.43l-.21.007h-2.5a3.438 3.438 0 0 1-3.431-3.228l-.006-.21v-1.25a3.438 3.438 0 0 1 3.228-3.43l.21-.007h2.5zm0 1.875h-2.5c-.809 0-1.474.615-1.554 1.403l-.008.16v1.25c0 .809.615 1.474 1.402 1.554l.16.008h2.5c.81 0 1.475-.615 1.555-1.403l.008-.16v-1.25c0-.862-.7-1.562-1.563-1.562zM5.615 9.75 2 9.75l-.117.078a1.546 1.546 0 0 0-.008.172c0 1.38.84 2.5 1.875 2.5 1.036 0 1.875-1.12 1.875-2.5l-.01-.251zm7.5 0h-3.73c-.007.083-.01.166-.01.251 0 1.38.84 2.5 1.875 2.5 1.036 0 1.875-1.12 1.875-2.5l-.01-.251zm7.559 0h-3.73c-.006.083-.01.167-.01.251 0 1.38.84 2.5 1.876 2.5 1.035 0 1.875-1.12 1.875-2.5l-.011-.251zm3.71 0c-.006.083-.009.167-.009.251 0 1.38.84 2.5 1.875 2.5 1.036 0 1.875-1.12 1.875-2.5l-.008-.172L28 9.75h-3.616zM22.5 2.5h-15l-.235.006c-2.125.1-3.592 1.59-4.421 4.742h24.313c-.83-3.153-2.297-4.642-4.422-4.742L22.5 2.5z" fill="#073B4C" fill-rule="evenodd"/>
</svg>
