<svg width="129" height="120" viewBox="0 0 129 120" xmlns="http://www.w3.org/2000/svg" xmlns:xlink="http://www.w3.org/1999/xlink">
    <defs>
        <path id="m4tbff2oea" d="M0 0h119.14v114.595H0z"/>
        <path d="M0 57.297c0 31.645 26.67 57.298 59.57 57.298s59.57-25.653 59.57-57.298C119.14 25.653 92.47 0 59.57 0S0 25.653 0 57.297" id="5e27n75mtb"/>
        <path d="M59.57 114.595c32.9 0 59.57-25.653 59.57-57.298C119.14 25.653 92.47 0 59.57 0S0 25.653 0 57.297c0 31.645 26.67 57.298 59.57 57.298z" id="ri3drsazhd"/>
    </defs>
    <g fill="none" fill-rule="evenodd">
        <g transform="translate(9.02 5.405)">
            <mask id="gwavxb81qc" fill="#fff">
                <use xlink:href="#5e27n75mtb"/>
            </mask>
            <path d="M104.37 112.193V69.992c0-8.55-12.261-17.67-12.261-17.67L71.222 87.833s-2.298 10.98 3.938 18.527c0 1.373.049 5.833.049 5.833" fill="#FFD4CB" mask="url(#gwavxb81qc)"/>
        </g>
        <g transform="translate(9.02 5.405)">
            <mask id="rtw9srs4ye" fill="#fff">
                <use xlink:href="#ri3drsazhd"/>
            </mask>
            <path d="M75.044 113.222c-.628 0-1.14-.529-1.148-1.187-.002-.166-.04-3.735-.048-5.407-6.194-7.888-4.01-18.758-3.913-19.223.028-.132.076-.258.144-.372l20.887-35.511c.167-.283.438-.481.75-.548.311-.066.635.006.894.198.52.387 12.746 9.584 12.746 18.648v42.201c0 .664-.515 1.201-1.15 1.201-.634 0-1.148-.537-1.148-1.2V69.82c0-6.47-7.97-13.589-10.798-15.912L72.145 88.105c-.25 1.436-1.627 10.827 3.72 17.299.18.218.28.497.28.785 0 1.35.048 5.774.048 5.819.007.663-.5 1.207-1.135 1.214h-.014z" fill="#000" mask="url(#rtw9srs4ye)"/>
        </g>
        <g>
            <path d="M103.799 96.488h-86.26s11.523 0 11.852-11.693V1.222h74.737l-.33 95.266z" fill="#FFF"/>
            <path d="M5.028 59.344h23.705v25.308c0 15.275-23.705 16.231-23.705 0V59.344z" fill="#B5EDFF"/>
            <path d="m102.98 95.284-78.443-.016c2.071-1.37 3.974-3.526 4.834-6.902a14.23 14.23 0 0 0 .472-3.445c.001-.037.005-.072.006-.109V2.407l73.452.018-.321 92.859zM6.145 84.634V60.53h21.4v24.104c0 .073-.004.142-.005.214a13.168 13.168 0 0 1-.443 3.027c-1.416 4.852-5.99 7.373-10.521 7.373-2.79 0-5.356-.93-7.227-2.619-2.096-1.892-3.204-4.656-3.204-7.995zM105.274.372a1.128 1.128 0 0 0-.817-.354L28.697 0c-.305 0-.598.127-.814.353a1.233 1.233 0 0 0-.338.85v56.92H4.992c-.636 0-1.152.54-1.152 1.204v25.307c0 4.06 1.384 7.454 4.002 9.817 2.29 2.067 5.391 3.205 8.734 3.205l.077-.002c.063.011.126.02.192.02l87.282.018c.636 0 1.15-.537 1.153-1.2l.33-95.266c0-.32-.12-.627-.336-.854z" fill="#000"/>
            <path d="M110.548 82.215s-14.5-14.373-15.488-15.487c-3.292-3.013-8.23 2.49-5.103 6.1l10.37 10.834s-8.56 10.662-.328 18.916l4.294 3.368" fill="#FFD4CB"/>
            <path d="M100.143 103.863c-.287 0-.574-.111-.798-.336-7.465-7.486-2.308-16.786-.39-19.666l-9.668-10.1a1.216 1.216 0 0 1-.04-.044c-2.075-2.396-1.414-5.504.313-7.336 1.888-2.004 4.521-2.2 6.404-.478.03.028.059.057.086.088.765.863 8.814 9.063 12.963 13.278.456.464.466 1.226.023 1.702a1.118 1.118 0 0 1-1.63.024c-.485-.493-11.732-11.92-13-13.315-1.142-1.007-2.437-.424-3.204.39-.72.764-1.581 2.466-.263 4.011l10.348 10.81c.423.443.452 1.148.069 1.626-.02.024-2.036 2.574-3.055 6.014-1.304 4.407-.416 8.195 2.64 11.26.46.46.474 1.222.033 1.702-.226.246-.528.37-.83.37M47.335 49.027c0 1.424-1.106 2.58-2.47 2.58-1.363 0-2.469-1.156-2.469-2.58 0-1.425 1.106-2.58 2.47-2.58 1.363 0 2.469 1.155 2.469 2.58M47.335 61.064c0 1.425-1.106 2.58-2.47 2.58-1.363 0-2.469-1.155-2.469-2.58 0-1.424 1.106-2.58 2.47-2.58 1.363 0 2.469 1.156 2.469 2.58M47.335 73.101c0 1.425-1.106 2.58-2.47 2.58-1.363 0-2.469-1.155-2.469-2.58 0-1.424 1.106-2.579 2.47-2.579 1.363 0 2.469 1.155 2.469 2.58M53.096 36.99h35.887M53.096 49.027h35.887M88.983 50.23H53.096c-.636 0-1.152-.538-1.152-1.203s.516-1.204 1.152-1.204h35.887c.636 0 1.152.539 1.152 1.204 0 .665-.516 1.204-1.152 1.204M53.096 61.064h35.887M88.983 62.268H53.096c-.636 0-1.152-.54-1.152-1.204 0-.665.516-1.204 1.152-1.204h35.887c.636 0 1.152.54 1.152 1.204 0 .665-.516 1.204-1.152 1.204M53.096 73.101h20.577M73.673 74.305H53.096c-.636 0-1.152-.539-1.152-1.204 0-.664.516-1.203 1.152-1.203h20.577c.637 0 1.153.539 1.153 1.203 0 .665-.516 1.204-1.153 1.204" fill="#000"/>
        </g>
        <g fill="#C33">
            <path d="M67.68 11.52c7.157 0 12.96 5.803 12.96 12.96 0 7.158-5.803 12.96-12.96 12.96-7.157 0-12.96-5.802-12.96-12.96 0-7.157 5.803-12.96 12.96-12.96zm0 1.944c-6.083 0-11.016 4.933-11.016 11.016 0 6.084 4.932 11.016 11.016 11.016s11.016-4.932 11.016-11.016c0-6.083-4.933-11.016-11.016-11.016zm3.765 7.24c.324.323.35.831.081 1.186l-.08.092-2.487 2.486 2.483 2.484a.904.904 0 0 1-1.186 1.36l-.093-.081-2.483-2.484-2.486 2.487a.904.904 0 0 1-1.36-1.186l.08-.093 2.486-2.487-2.482-2.483a.904.904 0 0 1 1.186-1.36l.093.081 2.482 2.483 2.487-2.486a.904.904 0 0 1 1.28 0z"/>
        </g>
    </g>
</svg>
