<svg width="14" height="14" xmlns="http://www.w3.org/2000/svg">
    <path d="M8.29 1.102a2.52 2.52 0 0 1 3.513 0l1.007.987a2.4 2.4 0 0 1 0 3.443l-7.567 7.417a2.33 2.33 0 0 1-1.632.662H.512A.507.507 0 0 1 0 13.096l.078-3.065C.094 9.452.335 8.9.753 8.49zm5.198 11.505c.283 0 .512.225.512.502a.506.506 0 0 1-.443.498l-.07.004H8.145a.507.507 0 0 1-.512-.502c0-.254.193-.464.443-.497l.07-.005h5.343zM7.704 3.095 1.478 9.2a1.248 1.248 0 0 0-.376.857l-.065 2.55h2.574c.303 0 .594-.105.824-.293l.083-.075 6.257-6.134-3.071-3.01zm3.374-1.283a1.48 1.48 0 0 0-2.063 0l-.586.572 3.071 3.01.585-.572a1.41 1.41 0 0 0 .1-1.915l-.1-.108z" fill="#2851E7" fill-rule="evenodd"/>
</svg>
