<svg xmlns="http://www.w3.org/2000/svg" width="25" height="25" viewBox="0 0 25 25">
    <g fill="none" fill-rule="evenodd">
        <g fill="#2851E7">
            <g>
                <g>
                    <path d="M15.625 0c2.876 0 5.208 2.332 5.208 5.208v14.584c0 2.876-2.332 5.208-5.208 5.208h-6.25c-2.876 0-5.208-2.332-5.208-5.208V5.208C4.167 2.332 6.499 0 9.375 0h6.25zm0 2.083h-6.25c-1.664 0-3.025 1.301-3.12 2.942l-.005.183v14.584c0 1.664 1.301 3.024 2.941 3.12l.184.005h6.25c1.664 0 3.025-1.301 3.12-2.942l.005-.183V5.208c0-1.664-1.301-3.024-2.941-3.12l-.184-.005zM12.501 19.64c.304.001.596.118.815.327.214.21.334.494.335.79 0 .296-.12.58-.336.793-.217.209-.51.326-.815.326-.265 0-.52-.09-.724-.253l-.014-.012h-.01l-.063-.063c-.214-.21-.335-.493-.337-.793.003-.295.124-.577.338-.789.188-.182.435-.295.697-.32l.114-.006zm2.084-16.514c.574 0 1.04.466 1.04 1.04v.003c0 .575-.466 1.04-1.04 1.04h-4.17c-.574 0-1.04-.465-1.04-1.04v-.003c0-.574.466-1.04 1.04-1.04h4.17z" transform="translate(-207.000000, -99.000000) translate(40.000000, 92.000000) translate(167.000000, 7.000000)"/>
                </g>
            </g>
        </g>
    </g>
</svg>
