<svg xmlns="http://www.w3.org/2000/svg" width="24" height="25" viewBox="0 0 24 25">
    <g fill="none" fill-rule="evenodd">
        <g fill="currentColor">
            <g>
                <path d="M12 1c.688.003 1.314.379 1.62.973l2.714 5.256c.012.012.024.024.035.024l6.074.845c.475.065.906.306 1.2.671.541.7.459 1.676-.192 2.282l-4.404 4.11s-.008.008-.008.012c0 .003 0 0 .008.011l1.056 5.801c.144.944-.523 1.826-1.5 1.98-.094.013-.19.021-.284.021-.298.001-.592-.07-.855-.206l-5.425-2.733c-.017 0-.034.004-.048.012l-5.463 2.756c-.252.122-.533.186-.816.185-.672.001-1.29-.356-1.607-.926-.188-.336-.256-.723-.193-1.1l1.07-5.778c0-.013-.004-.026-.014-.035l-4.44-4.122C.191 10.722.001 10.286 0 9.83c0-.48.2-.939.553-1.273.28-.244.625-.403.996-.464l6.06-.845c.024 0 .05-.01.05-.035l2.71-5.241c.213-.416.589-.731 1.043-.88.19-.063.39-.093.588-.093zm0 1.69h-.022l-.012.009c-.011.005-.018.015-.024.025L9.228 7.97c-.261.516-.767.873-1.355.961l-6.036.835-.073.023c-.01.015-.012.03-.01.048l4.44 4.11c.422.401.614.977.515 1.54l-1.056 5.767v.023c.006.023.028.04.053.04h.02l5.434-2.75c.267-.137.564-.21.866-.21.292-.001.58.068.84.198l5.4 2.72h.01c.011.006.023.011.035.012.005.003.01.003.015 0h.025l.024-.022-1.057-5.767c-.117-.569.079-1.155.517-1.55l4.404-4.122.012-.025-.012-.01h-.017c-.01-.005-.02-.007-.03-.007l-6.075-.853c-.588-.086-1.095-.445-1.355-.96L12.05 2.736c0-.01-.003-.02-.01-.027-.008-.007-.018-.01-.029-.01l-.01-.01z" transform="translate(-25.000000, -482.000000) translate(25.000000, 482.220916)"/>
            </g>
        </g>
    </g>
</svg>
