<svg width="33" height="32" viewBox="0 0 33 32" xmlns="http://www.w3.org/2000/svg">
    <path d="M26.973 10.752c.59.05 1.043.54 1.075 1.13l-.015.329-.504 6.162-.527 6.013a208.69 208.69 0 0 1-.298 3.01c-.3 2.778-2.103 4.496-4.822 4.547-4.235.078-8.307.077-12.26-.008-2.64-.056-4.416-1.792-4.71-4.527l-.205-2.016-.355-3.909-.365-4.29-.416-5.148c-.052-.661.428-1.24 1.072-1.293a1.175 1.175 0 0 1 1.237.939l.048.472.391 4.827.428 5.003c.191 2.166.357 3.92.49 5.15.168 1.56.989 2.362 2.433 2.392 3.923.085 7.964.086 12.17.008 1.532-.029 2.366-.823 2.537-2.411l.203-2.005c.06-.617.123-1.3.19-2.04l.428-4.92.515-6.315a1.185 1.185 0 0 1 1.101-1.102l.16.002zM2.578 7.982c-.646 0-1.17-.537-1.17-1.2 0-.607.44-1.109 1.011-1.188l.159-.011h5.098c.606 0 1.136-.4 1.326-.976l.046-.178.397-2.02C9.794 1.07 10.927.118 12.255.01l.25-.01h6.605c1.35 0 2.542.874 3 2.225l.078.258.379 1.946c.119.609.605 1.064 1.193 1.142l.18.012h5.098c.646 0 1.17.537 1.17 1.2 0 .607-.44 1.11-1.012 1.189l-.158.01H2.578zM19.11 2.4h-6.605a.84.84 0 0 0-.741.445l-.041.109-.38 1.946a3.916 3.916 0 0 1-.199.683h9.327a3.9 3.9 0 0 1-.138-.419l-.061-.265-.362-1.87a.834.834 0 0 0-.662-.617L19.11 2.4z" fill="#FFF" fill-rule="evenodd"/>
</svg>
