<svg xmlns="http://www.w3.org/2000/svg" width="24" height="24" viewBox="0 0 24 24">
    <g fill="none" fill-rule="evenodd">
        <g fill="#073B4C">
            <g>
                <path d="M1.195.147l.084.072L5.059 4 20 4c2.21 0 4 1.79 4 4v8c0 1.883-1.302 3.463-3.054 3.888l2.788 2.788c.292.292.292.766 0 1.059-.146.146-.337.22-.53.22-.152 0-.306-.048-.435-.142l-.093-.078L.22 1.279C-.073.986-.073.512.22.219c.266-.265.682-.29.975-.072zm.487 4.593l1.085 1.085c-.712.404-1.206 1.148-1.262 2.01L1.5 8v.75h4.191l1.5 1.5H1.5V16c0 1.325 1.032 2.41 2.336 2.495L4 18.5h11.441l1.5 1.5H4c-2.21 0-4-1.79-4-4V8c0-1.345.664-2.535 1.682-3.26zm10.196 6.076L12 11l.366.304 3.114 3.115 1.074 1.076 3.004 3.004.442.001c1.325 0 2.41-1.032 2.495-2.336L22.5 16v-5.75H11.31l.568.566zM9.81 8.75l12.69.001V8c0-1.325-1.032-2.41-2.336-2.495L20 5.5H6.56l3.25 3.25z" transform="translate(-15 -567) translate(15 567)"/>
            </g>
        </g>
    </g>
</svg>
