<svg xmlns="http://www.w3.org/2000/svg" width="24" height="24" viewBox="0 0 24 24">
    <g fill="none" fill-rule="evenodd">
        <g fill="#FFD166">
            <g>
                <g>
                    <path d="M12 0c6.627 0 12 5.373 12 12s-5.373 12-12 12S0 18.627 0 12 5.373 0 12 0zm.186 4.8c-.437 0-.793.392-.793.873V6.86h-.259C9.626 6.86 8.4 8.21 8.4 9.866c0 1.658 1.226 3.007 2.734 3.007h1.732c.632 0 1.146.565 1.146 1.26 0 .696-.514 1.262-1.146 1.262H9.552c-.438 0-.793.392-.793.873 0 .48.355.872.793.872h1.84v1.188c0 .48.357.872.794.872.438 0 .794-.391.794-.872v-1.183l.196-.024c1.382-.173 2.424-1.457 2.424-2.987 0-1.658-1.227-3.006-2.734-3.006h-1.732c-.632 0-1.147-.566-1.147-1.262 0-.695.515-1.26 1.147-1.26h3.314c.437 0 .793-.392.793-.873s-.356-.873-.793-.873H12.98V5.673c0-.481-.356-.873-.794-.873z" transform="translate(-26 -501) translate(26 500) translate(0 1)"/>
                </g>
            </g>
        </g>
    </g>
</svg>
