<svg width="18" height="18" viewBox="0 0 18 18" xmlns="http://www.w3.org/2000/svg">
    <path d="M15 2.25a3 3 0 0 1 3 3V12a3 3 0 0 1-3 3H3a3 3 0 0 1-3-3V5.25a3 3 0 0 1 3-3h12zm0 1.275H3c-.913 0-1.66.71-1.721 1.607l-.004.118V12c0 .913.71 1.66 1.607 1.721l.118.004h12c.913 0 1.66-.71 1.721-1.607l.004-.118V5.25c0-.913-.71-1.66-1.607-1.721L15 3.525zM4.65 9.952c1.302 0 2.4.212 2.4 1.028 0 .816-1.106 1.02-2.4 1.02-1.301 0-2.4-.212-2.4-1.028 0-.816 1.106-1.02 2.4-1.02zM15 9.75a.75.75 0 1 1 0 1.5H9a.75.75 0 1 1 0-1.5h6zM4.65 6c.882 0 1.588.706 1.588 1.587S5.532 9.175 4.65 9.175a1.582 1.582 0 0 1-1.588-1.588C3.062 6.707 3.769 6 4.65 6zM12 7.5A.75.75 0 1 1 12 9H9a.75.75 0 0 1 0-1.5h3z" fill="currentColor" fill-rule="evenodd"/>
</svg>
