<svg width="25" height="24" xmlns="http://www.w3.org/2000/svg">
    <path d="m20.555 8.063.12.001a.89.89 0 0 1 .805.847l-.011.247-.378 4.622-.396 4.51c-.083.9-.158 1.66-.223 2.257-.225 2.084-1.577 3.372-3.616 3.41-3.177.059-6.23.058-9.196-.006-1.98-.042-3.312-1.344-3.533-3.395l-.152-1.512-.267-2.932-.273-3.217-.313-3.862a.893.893 0 0 1 .805-.969.881.881 0 0 1 .927.704l.036.354.294 3.62.32 3.753c.144 1.625.268 2.94.368 3.863.126 1.169.742 1.77 1.825 1.793 2.942.064 5.973.064 9.127.006 1.15-.021 1.775-.617 1.903-1.808l.152-1.504c.045-.463.092-.974.143-1.53l.32-3.69.387-4.736a.889.889 0 0 1 .826-.826zM2.378 5.987a.89.89 0 0 1-.878-.9c0-.456.33-.832.759-.892l.119-.008H6.2c.455 0 .852-.3.995-.732l.035-.133.297-1.516A2.392 2.392 0 0 1 9.635.008L9.823 0h4.954c1.012 0 1.906.656 2.25 1.668l.058.195.284 1.458c.09.457.454.799.895.857l.135.009h3.823a.89.89 0 0 1 .878.9c0 .456-.33.832-.759.892l-.119.008H2.378zM14.777 1.8H9.823a.63.63 0 0 0-.556.334l-.03.081-.285 1.46a2.937 2.937 0 0 1-.15.511h6.995a2.926 2.926 0 0 1-.103-.313l-.046-.199-.272-1.403a.626.626 0 0 0-.496-.462l-.103-.009z" fill="#EF476F" fill-rule="evenodd"/>
</svg>
