<svg xmlns="http://www.w3.org/2000/svg" width="25" height="24" viewBox="0 0 25 24">
    <g fill="none" fill-rule="evenodd">
        <g fill="#48464D">
            <g>
                <path d="M17.2 0C21.286 0 24 2.915 24 7.1v9.8c0 4.185-2.715 7.1-6.8 7.1H6.798C2.714 24 0 21.085 0 16.9V7.1C0 2.92 2.72 0 6.798 0zm0 1.8H6.799C3.744 1.8 1.8 3.886 1.8 7.1v9.8c0 3.218 1.938 5.3 4.998 5.3H17.2c3.061 0 5-2.082 5-5.3V7.1c0-3.218-1.939-5.3-5-5.3zM9.657 8.388l.101.087 2.241 2.241 2.24-2.239c.351-.351.92-.351 1.272 0 .32.32.349.82.088 1.172l-.088.101-2.239 2.239 2.241 2.242c.352.352.352.922 0 1.273-.32.32-.82.348-1.172.087l-.1-.087-2.242-2.243-2.238 2.24c-.351.35-.921.35-1.273 0-.32-.32-.348-.82-.087-1.172l.087-.101 2.238-2.239-2.24-2.242c-.352-.351-.352-.92 0-1.272.319-.32.819-.349 1.171-.087z" transform="translate(-22 -420) translate(22.714 420)"/>
            </g>
        </g>
    </g>
</svg>
