<svg width="24" height="24" xmlns="http://www.w3.org/2000/svg" xmlns:xlink="http://www.w3.org/1999/xlink">
    <defs>
        <path id="a" d="M0 0h5.67v5.643H0z"/>
    </defs>
    <g fill="none" fill-rule="evenodd">
        <path d="M19.49 16.179c0 1.484.026 2.969-.014 4.447-.045 1.858-1.625 3.356-3.483 3.369-1.31.007-2.613.007-3.918 0-1.738-.013-3.232-1.353-3.443-3.08a5.728 5.728 0 0 1-.04-.671v-5.235c0-1.826-.007-3.652 0-5.478.007-1.084.666-2.043 1.634-2.39 1.599-.585 3.304.558 3.351 2.265.026 1.011.006 2.024.006 3.029 0 .289 0 .281.296.289.804.013 1.608-.04 2.411.032a3.513 3.513 0 0 1 3.101 2.713c.059.236.1.467.1.71m-8.837 4.309c.006.788.665 1.405 1.461 1.405h3.872c.099 0 .197-.007.29-.026.737-.164 1.178-.749 1.185-1.61.007-1.28.007-2.561 0-3.843-.007-.959-.652-1.582-1.607-1.59H12.7c-.139 0-.27.008-.401-.031-.481-.138-.752-.52-.752-1.091V9.768c0-.113-.006-.224-.026-.336a.445.445 0 0 0-.454-.355.445.445 0 0 0-.414.402c-.014.098-.014.197-.014.295v5.274h.006c0 1.814-.006 3.627.008 5.44M2.396 17.847c0 .545.415.966.948.96a.94.94 0 0 0 .942-.94.933.933 0 0 0-.928-.934c-.534-.005-.955.395-.962.914M.5 17.873A2.823 2.823 0 0 1 3.3 15.055c1.612 0 2.89 1.248 2.89 2.825-.006 1.537-1.278 2.798-2.838 2.811A2.835 2.835 0 0 1 .5 17.873M20.478 9.4a.955.955 0 0 0-.948.946.96.96 0 0 0 .961.939.95.95 0 0 0 .941-.953.954.954 0 0 0-.954-.932m-2.832.926a2.835 2.835 0 0 1 2.832-2.812 2.831 2.831 0 0 1 2.838 2.832 2.807 2.807 0 0 1-2.845 2.81 2.812 2.812 0 0 1-2.825-2.83M2.403 10.346c.006.532.415.94.942.94a.946.946 0 0 0 .941-.947.945.945 0 0 0-.948-.94.932.932 0 0 0-.935.947m.921 2.81a2.8 2.8 0 0 1-2.818-2.81c0-1.518 1.153-2.825 2.839-2.818 1.659 0 2.824 1.261 2.837 2.824.014 1.564-1.277 2.805-2.858 2.805" fill="#073B4C"/>
        <g transform="translate(17.83)">
            <mask id="b" fill="#fff">
                <use xlink:href="#a"/>
            </mask>
            <path d="M1.883 2.818A.948.948 0 0 0 3.78 2.81a.951.951 0 0 0-.955-.939c-.514.006-.948.434-.942.946M0 2.792C.006 1.215 1.27-.008 2.904 0c1.514.007 2.765 1.28 2.765 2.825a2.844 2.844 0 0 1-2.85 2.817C1.237 5.622-.014 4.362 0 2.792" fill="#073B4C" mask="url(#b)"/>
        </g>
        <path d="M9.165 2.805C9.172 1.209 10.437-.007 12.083 0c1.508.007 2.765 1.294 2.758 2.831-.007 1.544-1.29 2.811-2.837 2.811a2.84 2.84 0 0 1-2.839-2.837m2.825.952a.952.952 0 0 0 .961-.932c.014-.506-.421-.946-.935-.953a.943.943 0 0 0-.961.933.946.946 0 0 0 .935.952M2.396 2.785c0 .539.409.972.942.972a.943.943 0 1 0 .006-1.885c-.52 0-.941.407-.948.913m.935 2.851C1.777 5.656.513 4.375.5 2.825.493 1.3 1.745.013 3.246.001c1.653-.014 2.963 1.228 2.937 2.817-.027 1.596-1.225 2.799-2.852 2.818" fill="#073B4C"/>
    </g>
</svg>
