<svg xmlns="http://www.w3.org/2000/svg" width="24" height="24" viewBox="0 0 24 24">
    <g fill="none" fill-rule="evenodd">
        <g fill="#2851E7">
            <g>
                <g>
                    <path d="M20 3c2.21 0 4 1.79 4 4v9c0 2.21-1.79 4-4 4H4c-2.21 0-4-1.79-4-4V7c0-2.21 1.79-4 4-4h16zm0 1.7H4c-1.217 0-2.214.946-2.295 2.143L1.7 7v9c0 1.217.946 2.214 2.143 2.295L4 18.3h16c1.217 0 2.214-.946 2.295-2.143L22.3 16V7c0-1.217-.946-2.214-2.143-2.295L20 4.7zM6.2 13.27c1.735 0 3.2.282 3.2 1.37S7.926 16 6.2 16C4.465 16 3 15.718 3 14.63s1.474-1.36 3.2-1.36zM20 13c.552 0 1 .448 1 1s-.448 1-1 1h-8c-.552 0-1-.448-1-1s.448-1 1-1h8zM6.2 8c1.176 0 2.118.942 2.118 2.116 0 1.175-.942 2.117-2.118 2.117-1.175 0-2.118-.942-2.118-2.117C4.082 8.942 5.025 8 6.2 8zm9.8 2c.552 0 1 .448 1 1s-.448 1-1 1h-4c-.552 0-1-.448-1-1s.448-1 1-1h4z" transform="translate(-128.000000, -100.000000) translate(40.000000, 92.000000) translate(88.000000, 8.000000)"/>
                </g>
            </g>
        </g>
    </g>
</svg>
