<svg width="25" height="24" viewBox="0 0 25 24" xmlns="http://www.w3.org/2000/svg">
    <path d="M12.766 0c6.628 0 12 5.372 12 12s-5.372 12-12 12-12-5.372-12-12 5.372-12 12-12zm0 1.8c-5.634 0-10.2 4.566-10.2 10.2 0 5.634 4.566 10.2 10.2 10.2 5.634 0 10.2-4.566 10.2-10.2 0-5.634-4.566-10.2-10.2-10.2zm-.406 4.316a.9.9 0 0 1 .892.778l.008.122v5.304l4.085 2.438a.9.9 0 0 1 .367 1.125l-.055.109a.9.9 0 0 1-1.125.367l-.11-.055-4.523-2.699a.9.9 0 0 1-.43-.639l-.01-.134V7.016a.9.9 0 0 1 .9-.9z" fill="#48464D" fill-rule="evenodd"/>
</svg>