<svg xmlns="http://www.w3.org/2000/svg" width="19" height="19" viewBox="0 0 19 19">
    <g fill="none" fill-rule="evenodd">
        <g fill="#E1E1E1">
            <g>
                <g>
                    <path d="M11.875 0c2.186 0 3.958 1.772 3.958 3.958v11.084c0 2.186-1.772 3.958-3.958 3.958h-4.75c-2.186 0-3.958-1.772-3.958-3.958V3.958C3.167 1.772 4.939 0 7.125 0h4.75zm0 1.583h-4.75c-1.265 0-2.299.99-2.371 2.236l-.004.14v11.083c0 1.264.989 2.298 2.235 2.37l.14.005h4.75c1.265 0 2.299-.99 2.371-2.236l.004-.14V3.959c0-1.264-.989-2.298-2.235-2.37l-.14-.005zM9.501 14.925c.231.002.453.09.62.25.162.16.253.375.253.6 0 .225-.09.44-.255.602-.165.159-.387.248-.619.248-.202 0-.396-.069-.55-.192l-.011-.01h-.007l-.049-.047c-.162-.16-.254-.375-.256-.603.003-.224.094-.439.257-.6.144-.138.33-.223.53-.243l.087-.005zm1.582-12.55c.438 0 .792.354.792.792 0 .437-.354.791-.792.791H7.917c-.438 0-.792-.354-.792-.791 0-.438.354-.792.792-.792h3.166z" transform="translate(-215.000000, -102.000000) translate(40.000000, 92.000000) translate(175.000000, 10.000000)"/>
                </g>
            </g>
        </g>
    </g>
</svg>
