<svg width="12" height="12" viewBox="0 0 12 12" xmlns="http://www.w3.org/2000/svg">
    <path d="M6 0a6 6 0 1 1-.001 12.001A6 6 0 0 1 6 0zm0 .9a5.1 5.1 0 1 0 0 10.2A5.1 5.1 0 0 0 6 .9zm.093 1.5c.219 0 .397.196.397.436v.594h.734c.219 0 .397.196.397.436s-.178.437-.397.437H5.567c-.316 0-.574.282-.574.63 0 .348.258.631.574.631h.866c.753 0 1.367.674 1.367 1.503 0 .765-.521 1.407-1.212 1.493l-.098.013v.59c0 .241-.178.437-.397.437-.219 0-.397-.196-.397-.436V8.57h-.92c-.219 0-.397-.196-.397-.436s.178-.436.397-.436h1.657c.316 0 .573-.283.573-.631 0-.348-.257-.63-.573-.63h-.866c-.754 0-1.367-.675-1.367-1.504S4.813 3.43 5.567 3.43h.13v-.594c0-.24.177-.436.396-.436z" fill="currentColor" fill-rule="evenodd"/>
</svg>
