<svg width="70" height="70" viewBox="0 0 70 70" xmlns="http://www.w3.org/2000/svg">
    <g fill="none" fill-rule="evenodd">
        <circle cx="35" cy="35" r="35" fill="currentColor"/>
        <path d="M35 19c8.836 0 16 7.164 16 16s-7.164 16-16 16c-8.837 0-16-7.164-16-16s7.163-16 16-16zm0 2.4c-7.511 0-13.6 6.09-13.6 13.6S27.489 48.6 35 48.6c7.51 0 13.6-6.09 13.6-13.6S42.51 21.4 35 21.4zm.248 4c.584 0 1.058.522 1.058 1.164v1.583h1.958c.583 0 1.058.522 1.058 1.163 0 .642-.475 1.164-1.058 1.164h-4.418c-.844 0-1.53.754-1.53 1.681s.686 1.682 1.53 1.682h2.308c2.01 0 3.645 1.798 3.646 4.008 0 2.04-1.39 3.752-3.231 3.983l-.263.032v1.577c0 .641-.474 1.163-1.058 1.163-.583 0-1.058-.522-1.058-1.163v-1.583h-2.454c-.583 0-1.058-.522-1.058-1.164 0-.641.475-1.163 1.058-1.163h4.418c.843 0 1.529-.755 1.529-1.682 0-.927-.686-1.681-1.529-1.681h-2.308c-2.01 0-3.646-1.798-3.646-4.009 0-2.21 1.635-4.008 3.646-4.008h.344v-1.583c0-.642.475-1.164 1.058-1.164z" fill="#073B4C"/>
    </g>
</svg>
