<svg width="140" height="140" viewBox="0 0 140 140" xmlns="http://www.w3.org/2000/svg">
    <g fill="none" fill-rule="evenodd">
        <g transform="translate(14.56)">
            <path d="M7.18 96.97h2.123a6.349 6.349 0 0 1 6.349 6.35v34.564H.83v-34.565a6.349 6.349 0 0 1 6.348-6.348zM51.642 93.444h2.124a6.349 6.349 0 0 1 6.349 6.348v38.092H45.294V99.792a6.349 6.349 0 0 1 6.348-6.348zM73.52 106.141h2.125a6.349 6.349 0 0 1 6.348 6.349v25.394h-14.82V112.49a6.349 6.349 0 0 1 6.348-6.349z" fill="#E9F4FC"/>
            <ellipse fill="#E9F4FC" fill-rule="nonzero" cx="8.252" cy="67.18" rx="7.263" ry="7.257"/>
            <ellipse fill="#E9F4FC" fill-rule="nonzero" cx="30.405" cy="45.773" rx="7.263" ry="7.257"/>
            <ellipse fill="#E9F4FC" fill-rule="nonzero" cx="74.712" cy="79.879" rx="7.263" ry="7.257"/>
            <ellipse fill="#E9F4FC" fill-rule="nonzero" cx="96.866" cy="57.021" rx="7.263" ry="7.257"/>
            <path d="M30.405 37.528c4.557 0 8.252 3.691 8.252 8.245 0 1.788-.57 3.443-1.538 4.794L68.3 74.692a8.238 8.238 0 0 1 6.413-3.057c2.367 0 4.501.996 6.006 2.59L91.25 63.06a8.219 8.219 0 0 1-2.634-6.04c0-4.553 3.694-8.244 8.251-8.244 4.557 0 8.252 3.691 8.252 8.245 0 4.553-3.695 8.244-8.252 8.244a8.22 8.22 0 0 1-4.004-1.034L81.909 75.842a8.201 8.201 0 0 1 1.055 4.037c0 4.554-3.694 8.245-8.252 8.245-4.557 0-8.251-3.691-8.251-8.245 0-1.254.28-2.442.781-3.506l-31.46-24.346a8.224 8.224 0 0 1-5.377 1.99c-1.985 0-3.807-.7-5.23-1.868L14.817 62.186a8.203 8.203 0 0 1 1.685 4.994c0 4.553-3.694 8.244-8.251 8.244C3.694 75.424 0 71.734 0 67.18c0-4.553 3.694-8.244 8.252-8.244 1.965 0 3.77.686 5.188 1.833l10.366-10.046a8.203 8.203 0 0 1-1.652-4.95c0-4.554 3.694-8.245 8.251-8.245zM74.712 73.61a6.27 6.27 0 0 0-5.152 2.69.988.988 0 0 1-.405.668 6.217 6.217 0 0 0-.718 2.911c0 3.463 2.81 6.27 6.275 6.27a6.272 6.272 0 0 0 5.396-9.473.989.989 0 0 1-.503-.72 6.258 6.258 0 0 0-4.893-2.346zm-66.46-12.7a6.272 6.272 0 0 0-6.276 6.27c0 3.462 2.81 6.27 6.276 6.27a6.272 6.272 0 0 0 6.275-6.27c0-3.462-2.81-6.27-6.275-6.27zm88.614-10.159a6.272 6.272 0 0 0-6.275 6.27c0 3.462 2.81 6.269 6.275 6.269a6.272 6.272 0 0 0 6.276-6.27c0-3.462-2.81-6.269-6.276-6.269zm-66.46-11.248a6.272 6.272 0 0 0-6.276 6.27c0 1.601.6 3.062 1.59 4.17a.99.99 0 0 1 .311.323 6.25 6.25 0 0 0 4.374 1.776 6.272 6.272 0 0 0 6.276-6.27c0-3.462-2.81-6.269-6.276-6.269z" fill="#073B4C" fill-rule="nonzero"/>
            <path d="M115.213 19.282c0-10.391-8.671-18.759-19.179-18.274-9.346.43-16.946 7.985-17.42 17.32-.467 9.188 5.855 16.983 14.395 18.83a1.647 1.647 0 0 1 1.213 1.076l2.68 4.562 2.678-4.562a1.64 1.64 0 0 1 1.206-1.074c8.247-1.78 14.427-9.107 14.427-17.878z" fill="#FFD166" fill-rule="nonzero"/>
            <path d="M95.989.021c-9.855.454-17.862 8.415-18.362 18.257-.483 9.52 6.009 17.863 15.173 19.846a.66.66 0 0 1 .454.35l.033.08c.022.062.05.123.083.18l2.68 4.562a.988.988 0 0 0 1.703 0l2.68-4.562.046-.089.036-.092a.652.652 0 0 1 .48-.428c8.814-1.903 15.206-9.72 15.206-18.843 0-10.88-8.995-19.594-19.882-19.273l-.33.012zm18.236 19.261c0 8.187-5.738 15.205-13.647 16.913l-.149.037a2.628 2.628 0 0 0-1.73 1.54l-.012.032-1.786 3.04-1.784-3.037.04.108a2.635 2.635 0 0 0-1.939-1.722c-8.224-1.779-14.051-9.268-13.617-17.814C80.049 9.552 87.24 2.4 96.08 1.994c9.908-.456 18.145 7.423 18.145 17.288z" fill="#073B4C" fill-rule="nonzero"/>
            <ellipse fill="#073B4C" cx="63.644" cy="48.298" rx="2.117" ry="2.116"/>
        </g>
        <path d="M44.145 82.158h2.124a6.349 6.349 0 0 1 6.348 6.348v49.378h-14.82V88.506a6.349 6.349 0 0 1 6.348-6.348zM111.192 76.514h2.124a6.349 6.349 0 0 1 6.349 6.349v55.02h-14.821v-55.02a6.349 6.349 0 0 1 6.348-6.349z" fill="#E9F4FC"/>
        <path d="M4.908 140a.989.989 0 0 1-.095-1.975l.095-.005h10.304V104.37c0-3.98 3.156-7.22 7.098-7.349l.242-.004h2.117c3.973 0 7.208 3.162 7.336 7.11l.004.243v33.651h5.081V89.523c0-3.98 3.157-7.22 7.098-7.349l.243-.004h2.117c4.054 0 7.34 3.292 7.34 7.353l-.001 48.497h5.788v-37.186c0-3.98 3.156-7.22 7.098-7.349l.242-.003h2.117c4.054 0 7.34 3.291 7.34 7.352v37.186h5.081v-24.46c0-3.98 3.157-7.221 7.098-7.35l.242-.003h2.118c4.053 0 7.34 3.292 7.34 7.352l-.001 24.461h5.787V83.867c0-3.98 3.157-7.22 7.098-7.349l.243-.004h2.117c4.054 0 7.34 3.292 7.34 7.353l-.001 54.153h13.834a.989.989 0 0 1 .095 1.975l-.095.005H4.908zM24.67 98.996h-2.117a5.368 5.368 0 0 0-5.36 5.157l-.004.216v33.651h12.845V104.37a5.37 5.37 0 0 0-4.97-5.359l-.22-.011-.174-.003zM46.548 84.15H44.43a5.368 5.368 0 0 0-5.364 5.373v48.497h12.845V89.523a5.369 5.369 0 0 0-5.19-5.37l-.174-.003zM69.132 95.46h-2.117a5.368 5.368 0 0 0-5.364 5.373v37.186h12.845v-37.186a5.369 5.369 0 0 0-5.19-5.37l-.174-.003zm21.879 12.725h-2.118a5.368 5.368 0 0 0-5.363 5.373v24.461h12.844v-24.46a5.369 5.369 0 0 0-5.19-5.37l-.173-.004zm22.584-29.692h-2.117a5.368 5.368 0 0 0-5.364 5.373v54.153h12.845V83.867a5.369 5.369 0 0 0-5.19-5.37l-.174-.003zM109.853 20.474h2.977c.678 0 1.23.546 1.23 1.218 0 .672-.552 1.219-1.23 1.219h-5.246c-.808 0-1.463.649-1.463 1.45 0 .8.655 1.448 1.463 1.448h2.294v1.29c0 .8.655 1.448 1.463 1.448.809 0 1.464-.648 1.464-1.449V25.81h.025c2.292 0 4.157-1.846 4.157-4.117 0-2.27-1.865-4.117-4.157-4.117h-2.977c-.68 0-1.231-.546-1.231-1.218 0-.672.552-1.219 1.23-1.219h5.247c.808 0 1.463-.649 1.463-1.45 0-.8-.655-1.448-1.463-1.448h-2.294v-1.29c0-.8-.655-1.448-1.464-1.448-.808 0-1.463.649-1.463 1.449v1.289h-.025c-2.293 0-4.158 1.847-4.158 4.117s1.865 4.117 4.158 4.117z" fill="#073B4C" fill-rule="nonzero"/>
        <ellipse fill="#073B4C" cx="4.296" cy="42.303" rx="3.176" ry="3.174"/>
        <path d="m132.045 40.894-2.266 2.266-.08.088c-.44.521-.436 1.274.025 1.735.487.488 1.304.464 1.823-.056l2.265-2.265.082-.09c.438-.52.434-1.274-.026-1.733-.488-.489-1.304-.464-1.823.055zm-.503 5.907-.09-.081c-.515-.435-1.269-.429-1.733.035-.49.49-.469 1.306.047 1.822l2.257 2.257.088.08c.517.437 1.27.43 1.734-.034.49-.49.468-1.307-.046-1.822l-2.257-2.257zm-5.894-5.894-.088-.08c-.517-.436-1.27-.43-1.735.034-.49.49-.468 1.307.047 1.822l2.258 2.258.089.082c.515.433 1.269.428 1.733-.036.49-.49.47-1.306-.047-1.822l-2.257-2.258zm.476 5.908-2.265 2.265-.082.09c-.438.519-.435 1.273.026 1.734.488.487 1.304.464 1.824-.056l2.265-2.266.081-.088c.438-.52.435-1.275-.025-1.735-.489-.488-1.305-.463-1.824.056zM27.067 16.066v2.223l.004.084c.04.47.413.838.868.838.481 0 .872-.413.872-.922v-2.223l-.004-.083c-.04-.47-.414-.838-.868-.838-.48 0-.872.411-.872.92zm2.665 3.145-.084.003c-.47.04-.837.414-.837.868 0 .482.412.87.921.87h2.227l.083-.002c.469-.04.837-.413.837-.868 0-.482-.413-.871-.92-.871h-2.227zm-5.812 0-.083.003c-.47.04-.838.414-.838.868 0 .482.413.87.921.87h2.226l.084-.002c.469-.04.837-.413.837-.868 0-.482-.413-.871-.921-.871H23.92zm3.147 2.664v2.224l.004.084c.04.47.413.837.868.837.481 0 .872-.413.872-.921v-2.224l-.004-.084c-.04-.47-.414-.838-.868-.838-.48 0-.872.413-.872.922z" fill="#073B4C"/>
    </g>
</svg>
