<svg xmlns="http://www.w3.org/2000/svg" width="24" height="24" viewBox="0 0 24 24">
    <g fill="none" fill-rule="evenodd">
        <g fill="#073B4C">
            <g>
                <g>
                    <path d="M17.23 0C21.3 0 24 2.9 24 7.072v9.856C24 21.1 21.3 24 17.23 24H6.77C2.7 24 0 21.1 0 16.928V7.072C0 2.904 2.707 0 6.77 0zm0 1.674H6.77c-3.11 0-5.096 2.13-5.096 5.398v9.856c0 3.273 1.978 5.398 5.095 5.398h10.462c3.117 0 5.095-2.125 5.095-5.398V7.072c0-3.273-1.978-5.398-5.095-5.398zM9.044 5.491c.423 0 .774.315.83.724l.007.113V17.65c0 .463-.375.838-.837.838-.424 0-.775-.315-.83-.724l-.008-.114V6.328c0-.462.375-.837.838-.837zm6 0c.423 0 .774.315.83.724l.007.113V17.65c0 .463-.375.838-.837.838-.424 0-.775-.315-.83-.724l-.008-.114V6.328c0-.462.375-.837.838-.837z" transform="translate(-15 -512) translate(0 496) translate(15 16)"/>
                </g>
            </g>
        </g>
    </g>
</svg>
