<svg xmlns="http://www.w3.org/2000/svg" width="70" height="51" viewBox="0 0 70 51">
    <defs>
        <filter id="c7swe1l33a" width="140%" height="129%" x="-20%" y="-14.5%" filterUnits="objectBoundingBox">
            <feOffset dy="2" in="SourceAlpha" result="shadowOffsetOuter1"/>
            <feGaussianBlur in="shadowOffsetOuter1" result="shadowBlurOuter1" stdDeviation="4"/>
            <feColorMatrix in="shadowBlurOuter1" result="shadowMatrixOuter1" values="0 0 0 0 0 0 0 0 0 0 0 0 0 0 0 0 0 0 0.1 0"/>
            <feMerge>
                <feMergeNode in="shadowMatrixOuter1"/>
                <feMergeNode in="SourceGraphic"/>
            </feMerge>
        </filter>
    </defs>
    <g fill="none" fill-rule="evenodd">
        <g>
            <g>
                <g filter="url(#c7swe1l33a)" transform="translate(-146.000000, -453.000000) translate(15.000000, 426.000000) translate(116.000000, 0.117246)">
                    <g>
                        <g>
                            <g>
                                <path fill="#FED168" d="M1.186 2.04v-.854c-.022-.306.2-.574.505-.61h49.605c1.13 0 2.2 1.676 2.678 2.9H1.186V2.04z" transform="translate(15.000000, 27.000000) translate(5.000000, 7.000000)"/>
                                <path fill="#FFF" fill-rule="nonzero" d="M42.045 4.673H44.993V14.233H42.045z" transform="translate(15.000000, 27.000000) translate(5.000000, 7.000000)"/>
                                <path fill="#FFF" d="M40.945 4.673L40.945 14.233 34.868 14.233 33.091 14.233 30.82 14.233 30.82 4.673 33.091 4.673 34.868 4.673zM29.758 14.233L23.681 14.233 21.904 14.233 19.637 14.233 19.595 4.673 21.188 4.673 23.643 4.673 29.724 4.673zM18.533 14.233L12.456 14.233 10.679 14.233 8.408 14.233 8.371 4.673 10.641 4.673 12.418 4.673 18.496 4.673zM1.224 14.233L1.186 4.673 7.271 4.673 7.309 14.233zM56.734 13.179c.53 1.776.848 3.609.945 5.46h-5.58c-.387-.046-.75-.215-1.032-.482-1.386-1.13-2.99-2.282-4.387-3.389-.18-.195-.376-.372-.587-.53V4.661h8.077c.207.715 2.285 7.58 2.564 8.517z" transform="translate(15.000000, 27.000000) translate(5.000000, 7.000000)"/>
                                <path fill="#E8F2FB" d="M57.679 25.748c-.004.28-.23.504-.508.508H1.69c-.279-.004-.503-.23-.505-.508v-10.31h43.352c.373.008.734.14 1.024.377l1.608 1.291 2.214 1.781.564.452c.609.487 1.364.752 2.143.753h5.58l.008 5.656z" transform="translate(15.000000, 27.000000) translate(5.000000, 7.000000)"/>
                                <path fill="#FFF" d="M57.796 18.65h-5.697c-.387-.045-.75-.214-1.032-.482-1.386-1.13-2.99-2.282-4.387-3.389-.18-.194-.376-.372-.587-.53V4.661h8.077c.207.715 2.285 7.58 2.564 8.528.53 1.776.848 3.61.945 5.46h.117z" transform="translate(15.000000, 27.000000) translate(5.000000, 7.000000)"/>
                                <path fill="#073B4B" d="M60.661 10.381l-1.36-4.243c-.116-.37-.46-.62-.846-.618h-2.949l-.414-1.408-.286-.975c-.005-.022-.011-.044-.019-.064C54.086 1.228 52.321.007 50.347 0H2.287C1.023 0 0 1.023 0 2.286v23.67c0 1.257.433 1.573 1.69 1.573h55.503c1.258 0 1.57-.433 1.57-1.694v-6.737c.005-2.198-.385-4.379-1.152-6.439L56.03 7.297h1.777l1.163 3.623c.092.31.344.546.659.616.315.071.644-.035.859-.277.214-.241.28-.58.173-.885v.007zM1.186 2.286v-.712c.002-.278.226-.504.505-.508h49.605c1.13 0 2.2 1.393 2.678 2.41H1.186v-1.19zm43.807 2.387v9.56h-2.948v-9.56h2.948zm-4.048 0v9.56H30.82v-9.56h10.125zm-11.198 9.56h-10.11l-.057-9.56h10.14l.027 9.56zm-11.229 0H8.408l-.037-9.56h10.125l.022 9.56zm-17.32 0l-.012-9.56h6.085l.038 9.56H1.197zm56.48 11.515c-.003.28-.228.504-.507.508H1.69c-.279-.004-.503-.23-.505-.508v-10.31h43.352c.373.008.734.14 1.024.377l1.608 1.291 2.214 1.781.564.452c.609.487 1.364.752 2.143.753h5.58l.008 5.656zm-.944-12.569c.53 1.776.848 3.609.945 5.46h-5.58c-.387-.046-.75-.215-1.032-.482-1.386-1.13-2.99-2.282-4.387-3.389-.18-.195-.376-.372-.587-.53V4.661h8.077c.207.715 2.285 7.58 2.564 8.517z" transform="translate(15.000000, 27.000000) translate(5.000000, 7.000000)"/>
                                <path fill="#FED168" d="M12.426 22.133c-6.066.11-6.062 9.12 0 9.218 6.051-.098 6.047-9.109 0-9.218" transform="translate(15.000000, 27.000000) translate(5.000000, 7.000000)"/>
                                <path fill="#073B4B" fill-rule="nonzero" d="M12.467 31.86c-3.483-.035-5.083-2.66-5.098-5.08-.015-2.421 1.54-5.069 5-5.155 3.465.038 5.065 2.658 5.08 5.08.015 2.42-1.521 5.068-4.982 5.154zm-.079-9.218c-2.771.075-4.017 2.191-4.002 4.142.015 1.95 1.295 4.044 4.07 4.07 2.76-.068 4.01-2.192 3.995-4.142-.015-1.95-1.291-4.037-4.063-4.07z" transform="translate(15.000000, 27.000000) translate(5.000000, 7.000000)"/>
                                <path fill="#073B4B" d="M12.426 24.645c-2.756.049-2.756 4.142 0 4.194 2.756-.049 2.756-4.142 0-4.194" transform="translate(15.000000, 27.000000) translate(5.000000, 7.000000)"/>
                                <path fill="#FED168" d="M46.093 22.133c-6.059.11-6.055 9.113 0 9.218 6.058-.11 6.058-9.109 0-9.218" transform="translate(15.000000, 27.000000) translate(5.000000, 7.000000)"/>
                                <path fill="#073B4B" fill-rule="nonzero" d="M46.142 31.86c-3.483-.035-5.08-2.66-5.099-5.08-.019-2.421 1.54-5.069 5.004-5.155 3.468.038 5.065 2.658 5.084 5.08.019 2.42-1.525 5.068-4.99 5.154zm-.08-9.218c-2.77.075-4.017 2.191-4.002 4.142.015 1.95 1.295 4.044 4.074 4.07 2.76-.068 4.006-2.192 3.995-4.142-.011-1.95-1.295-4.037-4.066-4.07z" transform="translate(15.000000, 27.000000) translate(5.000000, 7.000000)"/>
                                <path fill="#073B4B" d="M46.093 24.645c-2.757.049-2.757 4.142 0 4.194 2.756-.049 2.756-4.142 0-4.194" transform="translate(15.000000, 27.000000) translate(5.000000, 7.000000)"/>
                            </g>
                            <path fill="#00354C" d="M20.335 36c-.298 0-.54-.224-.54-.5s.242-.5.54-.5h7.085c.298 0 .54.224.54.5s-.242.5-.54.5h-7.085zM5.579 36c-.32 0-.579-.224-.579-.5s.26-.5.579-.5h11.087c.32 0 .579.224.579.5s-.26.5-.58.5H5.58zM30.041 36c-.304 0-.551-.224-.551-.5s.247-.5.551-.5h24.407c.305 0 .552.224.552.5s-.247.5-.552.5H30.041z" transform="translate(15.000000, 27.000000) translate(5.000000, 7.000000)"/>
                        </g>
                    </g>
                </g>
            </g>
        </g>
    </g>
</svg>
