<svg width="24" height="25" viewBox="0 0 24 25" xmlns="http://www.w3.org/2000/svg">
    <path d="M15 .5a5 5 0 0 1 5 5v14a5 5 0 0 1-5 5H9a5 5 0 0 1-5-5v-14a5 5 0 0 1 5-5h6zm0 2H9a3 3 0 0 0-2.995 2.824L6 5.5v14a3 3 0 0 0 2.824 2.995L9 22.5h6a3 3 0 0 0 2.995-2.824L18 19.5v-14a3 3 0 0 0-2.824-2.995L15 2.5zm-2.999 16.853c.292.002.572.114.783.315.205.202.32.474.32.758 0 .284-.115.557-.322.761a1.13 1.13 0 0 1-1.477.07l-.014-.012h-.009l-.06-.06a1.076 1.076 0 0 1-.324-.761 1.08 1.08 0 0 1 .324-.757 1.12 1.12 0 0 1 .67-.308l.11-.006zm3.732-9.533a1 1 0 0 1 .034 1.322l-.087.09-3.232 3a1 1 0 0 1-1.288.062l-.092-.08L9.3 12.482a1 1 0 0 1 1.305-1.51l.095.082 1.086 1.064 2.534-2.35a1 1 0 0 1 1.413.052zM14 3.5a1 1 0 0 1 0 2h-4a1 1 0 1 1 0-2h4z" fill="#48464D" fill-rule="evenodd"/>
</svg>
