<svg width="26" height="26" viewBox="0 0 26 26" xmlns="http://www.w3.org/2000/svg">
    <path d="m13.106 0 11.036 3.65A2.708 2.708 0 0 1 26 6.22v.21c0 1.197-.97 2.167-2.167 2.167l-.542-.001v8.805a2.168 2.168 0 0 1 1.626 2.098v1.625A2.708 2.708 0 0 1 23.292 26H2.708a2.708 2.708 0 0 1-1.625-4.875V19.5c0-1.01.69-1.857 1.625-2.098V8.597h-.541A2.167 2.167 0 0 1 0 6.432v-.2C0 5.058.755 4.02 1.87 3.656L13.106 0zm10.186 22.208H2.708a1.083 1.083 0 0 0-.126 2.16l.126.007h20.584a1.083 1.083 0 0 0 .126-2.16l-.126-.007zM18.958 8.597H7.041v8.805A2.168 2.168 0 0 1 8.667 19.5l-.001 1.083h8.667V19.5c0-1.01.69-1.857 1.625-2.098V8.597zM6.5 18.958H3.25a.542.542 0 0 0-.533.445l-.009.097v.542h4.334V19.5a.542.542 0 0 0-.445-.533l-.097-.009zm16.25 0H19.5a.542.542 0 0 0-.533.445l-.009.097v.542h4.334V19.5a.542.542 0 0 0-.445-.533l-.097-.009zM13.112 9.48c.384 0 .693.305.742.69l.007.106v.444h.612c.384 0 .693.304.742.69l.007.106c0 .398-.277.735-.646.789l-.103.007H12.48c-.225 0-.42.214-.42.488 0 .244.154.44.346.481l.074.008h1.042c1.063 0 1.916.938 1.916 2.08 0 .994-.645 1.845-1.536 2.039l-.04.006v.479c0 .397-.277.735-.646.788l-.103.008-.103-.008c-.332-.048-.59-.326-.637-.671l-.008-.117-.001-.445h-.836c-.384 0-.693-.304-.742-.688l-.007-.107c0-.398.277-.735.646-.789l.103-.007h1.994c.225 0 .42-.214.42-.488 0-.244-.154-.44-.346-.48l-.074-.008h-1.042c-1.063 0-1.916-.939-1.916-2.08 0-1.088.774-1.991 1.766-2.075l.034-.001v-.449c0-.397.277-.735.646-.788l.103-.008zm-7.695-.812H4.333v8.666h1.083V8.667zm16.25 0h-1.084v8.666h1.083V8.667zM13.102 1.71 2.373 5.2a1.083 1.083 0 0 0-.74.904l-.008.126v.2c0 .266.192.487.444.533l.098.009h21.666a.542.542 0 0 0 .533-.445l.009-.097v-.21c0-.425-.248-.806-.626-.982l-.117-.046-10.53-3.483z" fill="currentColor" fill-rule="evenodd"/>
</svg>
