<svg xmlns="http://www.w3.org/2000/svg" xmlns:xlink="http://www.w3.org/1999/xlink" width="24" height="24" viewBox="0 0 24 24">
    <defs>
        <path id="ahmxkg78ua" d="M0 0L24 0 24 24 0 24z"/>
    </defs>
    <g fill="none" fill-rule="evenodd">
        <g>
            <g>
                <path fill="#48464D" d="M12.002 5.964c-.474 0-.857-.384-.857-.859s.383-.859.857-.859c.473 0 .857.384.857.859s-.384.859-.857.859m0-3.436c-1.42 0-2.572 1.154-2.572 2.577s1.151 2.577 2.572 2.577c1.419 0 2.57-1.154 2.57-2.577s-1.151-2.577-2.57-2.577M5.145 12.835c-.474 0-.857-.384-.857-.86 0-.474.383-.858.857-.858.473 0 .857.384.857.859s-.384.859-.857.859m0-3.436c-1.42 0-2.571 1.154-2.571 2.577s1.15 2.577 2.571 2.577c1.42 0 2.571-1.154 2.571-2.577S6.564 9.399 5.145 9.399" transform="translate(-23.000000, -363.000000) translate(23.000000, 363.000000)"/>
                <g transform="translate(-23.000000, -363.000000) translate(23.000000, 363.000000)">
                    <mask id="gdmqekom7b" fill="#fff">
                        <use xlink:href="#ahmxkg78ua"/>
                    </mask>
                    <path fill="#48464D" d="M1.717 11.976C1.717 6.284 6.32 1.67 12.002 1.67c5.68 0 10.285 4.614 10.285 10.306 0 5.692-4.605 10.306-10.285 10.306-5.679-.006-10.28-4.617-10.285-10.306m21.427 10.306H18.15c5.666-3.417 7.496-10.789 4.086-16.468C18.826.136 11.469-1.697 5.803 1.72.136 5.136-1.694 12.51 1.716 18.187 3.886 21.801 7.792 24.01 12.002 24h11.142c.473 0 .857-.384.857-.859s-.384-.859-.857-.859" mask="url(#gdmqekom7b)"/>
                </g>
                <path fill="#48464D" d="M12.002 12.835c-.474 0-.857-.384-.857-.86 0-.474.383-.858.857-.858.473 0 .857.384.857.859s-.384.859-.857.859m0-3.436c-1.42 0-2.572 1.154-2.572 2.577s1.151 2.577 2.572 2.577c1.419 0 2.57-1.154 2.57-2.577s-1.151-2.577-2.57-2.577M12.002 19.706c-.474 0-.857-.384-.857-.86 0-.474.383-.858.857-.858.473 0 .857.384.857.859s-.384.859-.857.859m0-3.436c-1.42 0-2.572 1.154-2.572 2.577s1.151 2.576 2.572 2.576c1.419 0 2.57-1.153 2.57-2.576s-1.151-2.577-2.57-2.577M18.858 12.835c-.474 0-.857-.384-.857-.86 0-.474.383-.858.857-.858.473 0 .857.384.857.859s-.384.859-.857.859m2.572-.86c0-1.422-1.152-2.576-2.572-2.576-1.42 0-2.571 1.154-2.571 2.577s1.151 2.577 2.571 2.577c1.42 0 2.572-1.154 2.572-2.577" transform="translate(-23.000000, -363.000000) translate(23.000000, 363.000000)"/>
            </g>
        </g>
    </g>
</svg>
