<svg width="20" height="20" xmlns="http://www.w3.org/2000/svg">
    <path d="M10 20a.918.918 0 0 1-.914-.786l-.009-.123V3.11L3.243 8.884a.932.932 0 0 1-1.305.002.9.9 0 0 1-.092-1.183l.09-.102L9.345.267 9.37.245a.924.924 0 0 1 .064-.054l-.088.076a.926.926 0 0 1 .223-.163l.046-.021a.729.729 0 0 1 .063-.027l.03-.01a.81.81 0 0 1 .076-.021L9.807.02a.937.937 0 0 1 .742.159l.027.02a.924.924 0 0 1 .061.053l.016.015 7.411 7.334a.9.9 0 0 1-.002 1.285.933.933 0 0 1-1.202.086l-.103-.088-5.834-5.772v15.979c0 .502-.414.909-.923.909z" fill="#5A50F9" fill-rule="evenodd"/>
</svg>
