<svg width="25" height="25" viewBox="0 0 25 25" xmlns="http://www.w3.org/2000/svg">
    <path d="M13.193 12.3a5.6 5.6 0 1 1 0 11.2 5.6 5.6 0 0 1 0-11.2zm.087 2.24c-.178 0-.328.14-.362.325l-.008.082v.554h-.12c-.704 0-1.277.63-1.277 1.403 0 .729.507 1.329 1.154 1.397l.122.006h.808c.296 0 .536.264.536.589 0 .292-.195.535-.449.58l-.087.008h-1.546c-.204 0-.37.183-.37.408 0 .196.127.36.296.398l.074.009h.86v.554c0 .224.165.407.37.407.178 0 .328-.14.362-.325l.008-.082V20.3l.092-.011c.644-.081 1.13-.68 1.13-1.394 0-.728-.507-1.328-1.153-1.397l-.123-.006h-.808c-.295 0-.535-.264-.535-.589 0-.292.195-.535.449-.58l.086-.008h1.547c.204 0 .37-.183.37-.407 0-.197-.127-.361-.296-.4l-.074-.008h-.685v-.554c0-.224-.166-.407-.37-.407zM20.793 2.5a4 4 0 0 1 4 4v8a4 4 0 0 1-4 4h-.016a7.61 7.61 0 0 0-.05-1.5h.066a2.5 2.5 0 0 0 2.495-2.336l.005-.164V8.749h-21V14.5a2.5 2.5 0 0 0 2.336 2.495l.164.005H5.86a7.568 7.568 0 0 0-.05 1.5H4.793a4 4 0 0 1-4-4v-8a4 4 0 0 1 4-4h16zm0 1.5h-16A2.5 2.5 0 0 0 2.3 6.336l-.006.164v.749h21V6.5a2.5 2.5 0 0 0-2.335-2.495L20.793 4z" fill="#073B4C" fill-rule="evenodd"/>
</svg>
