<svg xmlns="http://www.w3.org/2000/svg" width="20" height="20" viewBox="0 0 20 20">
    <defs>
        <filter id="zfc8mrxhua" color-interpolation-filters="auto">
            <feColorMatrix in="SourceGraphic" values="0 0 0 0 0.156863 0 0 0 0 0.317647 0 0 0 0 0.905882 0 0 0 1.000000 0"/>
        </filter>
    </defs>
    <g fill="none" fill-rule="evenodd">
        <g>
            <g filter="url(#zfc8mrxhua)" transform="translate(-310.000000, -610.000000) translate(15.000000, 581.000000)">
                <g>
                    <path fill="currentColor" d="M10 0c.467 0 .853.342.914.786l.009.123v15.98l5.834-5.773c.36-.355.944-.357 1.305-.002.328.322.359.827.092 1.183l-.09.102-7.41 7.333-.024.023c-.02.019-.041.037-.063.053l.087-.076c-.036.036-.074.069-.115.097l-.06.04-.048.027-.046.021c-.02.01-.042.019-.063.027l-.03.01c-.024.008-.05.015-.076.021l-.023.005c-.154.032-.314.026-.464-.02l-.063-.022c-.023-.008-.046-.018-.069-.03l-.033-.016-.049-.028c-.017-.01-.034-.021-.05-.033l-.014-.01-.027-.02c-.021-.017-.042-.034-.061-.053l-.016-.015-7.411-7.334c-.36-.356-.359-.931.002-1.285.329-.323.841-.35 1.202-.086l.103.088 5.834 5.772V.909c0-.502.414-.91.923-.91z" transform="translate(305.000080, 39.000000) scale(-1, 1) rotate(-180.000000) translate(-305.000080, -39.000000) translate(295.000000, 29.000000) translate(10.000080, 10.000000) rotate(-90.000000) translate(-10.000080, -10.000000)"/>
                </g>
            </g>
        </g>
    </g>
</svg>
