<svg xmlns="http://www.w3.org/2000/svg" width="24" height="24" viewBox="0 0 24 24">
    <g fill="none" fill-rule="evenodd">
        <g fill="#073B4C">
            <g>
                <g>
                    <g>
                        <path d="M10.058 0c4.153.03 7.857 2.618 9.31 6.504 1.452 3.886.35 8.264-2.768 11.004-3.119 2.74-7.607 3.272-11.282 1.34l-.046-.016c-.007-.004-.008-.008-.01-.013l-.682-.386c-.14-.057-.293-.066-.387-.042-.71.255-1.435.464-2.171.627l-.135.016c-.81.018-1.22-.508-1.22-1.273l.02-.164c.184-.761.415-1.51.678-2.204.04-.132.027-.274-.044-.405l-.183-.359C-.487 11.523-.365 7.794 1.46 4.8 3.286 1.807 6.546-.014 10.058 0zm-.01 1.395l-.28.004c-2.913.083-5.595 1.632-7.116 4.127-1.57 2.576-1.676 5.784-.275 8.461l.18.353c.241.45.292.978.127 1.505-.256.68-.47 1.374-.64 2.08l.094-.368.395-.103c.135-.037.271-.077.408-.118l.412-.13.418-.144c.443-.122.913-.094 1.376.097.097.047.218.112.37.198l.422.242.018.005-.012-.001.288.144c3.025 1.46 6.63 1.031 9.226-1.1l.22-.187c2.684-2.358 3.631-6.124 2.381-9.468-1.25-3.343-4.437-5.57-8.012-5.597zM5.616 8.86c.63 0 1.141.51 1.141 1.14 0 .63-.51 1.14-1.141 1.14-.63 0-1.141-.51-1.141-1.14 0-.63.51-1.14 1.141-1.14zm4.437 0c.63 0 1.141.51 1.141 1.14 0 .63-.511 1.14-1.141 1.14S8.91 10.63 8.91 10c0-.63.512-1.14 1.142-1.14zm4.437 0c.63 0 1.141.51 1.141 1.14 0 .63-.511 1.14-1.141 1.14s-1.142-.51-1.142-1.14c0-.63.512-1.14 1.142-1.14z" transform="translate(-14 -621) translate(0 605) translate(6 8) translate(8 8) translate(2 2)"/>
                    </g>
                </g>
            </g>
        </g>
    </g>
</svg>
