<svg xmlns="http://www.w3.org/2000/svg" width="70" height="51" viewBox="0 0 70 51">
    <defs>
        <filter id="5g4pwlgnja" width="140%" height="129%" x="-20%" y="-14.5%" filterUnits="objectBoundingBox">
            <feOffset dy="2" in="SourceAlpha" result="shadowOffsetOuter1"/>
            <feGaussianBlur in="shadowOffsetOuter1" result="shadowBlurOuter1" stdDeviation="4"/>
            <feColorMatrix in="shadowBlurOuter1" result="shadowMatrixOuter1" values="0 0 0 0 0 0 0 0 0 0 0 0 0 0 0 0 0 0 0.1 0"/>
            <feMerge>
                <feMergeNode in="shadowMatrixOuter1"/>
                <feMergeNode in="SourceGraphic"/>
            </feMerge>
        </filter>
    </defs>
    <g fill="none" fill-rule="evenodd">
        <g>
            <g>
                <g filter="url(#5g4pwlgnja)" transform="translate(-260.000000, -453.000000) translate(15.000000, 426.000000) translate(230.000000, 0.117246)">
                    <g>
                        <g>
                            <path fill="#FFF" fill-rule="nonzero" d="M3.562 1h23.516l.058.01.052.017.042.02.03.022.036.03 9.63 10.875.023.033.018.035.02.077.02.136-.008 34.185c0 1.41-1.15 2.56-2.562 2.56H3.562c-1.411 0-2.56-1.15-2.56-2.56V3.56C1.001 2.149 2.15 1 3.561 1z" transform="translate(15.000000, 27.000000) translate(16.000000, 0.000000)"/>
                            <path fill="#073B4C" fill-rule="nonzero" d="M27.078 0H3.562C1.597 0 0 1.596 0 3.56v42.88C0 48.403 1.598 50 3.562 50h30.875C36.402 50 38 48.403 38 46.44V12.166l-.016-.134c0-.032-.01-.095-.027-.165l-.043-.148-.015-.043c-.058-.139-.128-.258-.223-.365L28.046.436c-.078-.088-.165-.159-.266-.224L27.692.16l-.12-.057-.169-.06-.038-.01C27.274.013 27.177 0 27.078 0zM3.562 1h23.516l.058.01.052.017.042.02.03.022.036.03 9.63 10.875.023.033.018.035.02.077.02.136-.008 34.185c0 1.41-1.15 2.56-2.562 2.56H3.562c-1.411 0-2.56-1.15-2.56-2.56V3.56C1.001 2.149 2.15 1 3.561 1z" transform="translate(15.000000, 27.000000) translate(16.000000, 0.000000)"/>
                            <path fill="#073B4C" fill-rule="nonzero" d="M37.917 11.9L27.505 0v9.363c0 1.397 1.128 2.536 2.52 2.536h7.892zm-9.37-9.129l7.076 8.087h-5.597c-.816 0-1.48-.67-1.48-1.495V2.771z" transform="translate(15.000000, 27.000000) translate(16.000000, 0.000000)"/>
                            <path fill="#073B4C" d="M19.365 12.288c-5.11 0-9.252 4.143-9.252 9.252 0 5.11 4.143 9.252 9.252 9.252 5.11 0 9.252-4.142 9.252-9.252 0-5.109-4.142-9.252-9.252-9.252z" transform="translate(15.000000, 27.000000) translate(16.000000, 0.000000)"/>
                            <path fill="#FFD166" d="M19.365 13.676c4.343 0 7.865 3.522 7.865 7.864 0 4.343-3.522 7.865-7.865 7.865s-7.864-3.522-7.864-7.865 3.521-7.864 7.864-7.864z" transform="translate(15.000000, 27.000000) translate(16.000000, 0.000000)"/>
                            <path fill="#073B4C" d="M19.509 27.092c-.338 0-.612-.302-.612-.673v-.915h-1.42c-.336 0-.61-.302-.61-.673 0-.371.274-.673.61-.673h2.556c.487 0 .884-.436.884-.972 0-.537-.397-.973-.884-.973h-1.335c-1.163 0-2.108-1.04-2.108-2.318s.945-2.317 2.108-2.317h.2v-.916c0-.37.273-.673.611-.673.337 0 .612.302.612.673v.916h1.132c.337 0 .611.301.611.672 0 .371-.274.673-.611.673h-2.555c-.488 0-.885.436-.885.972 0 .537.397.973.885.973h1.335c1.162 0 2.107 1.04 2.108 2.318 0 1.18-.803 2.17-1.869 2.303l-.151.018v.912c0 .37-.275.673-.612.673" transform="translate(15.000000, 27.000000) translate(16.000000, 0.000000)"/>
                            <path fill="#073B4C" fill-rule="nonzero" d="M29.288 36.397c.276 0 .5.224.5.5 0 .245-.177.45-.41.492l-.09.008H10.082c-.276 0-.5-.224-.5-.5 0-.246.177-.45.41-.492l.09-.008h19.206zM29.288 40.44c.276 0 .5.224.5.5 0 .246-.177.45-.41.492l-.09.008H10.082c-.276 0-.5-.224-.5-.5 0-.245.177-.45.41-.492l.09-.008h19.206z" transform="translate(15.000000, 27.000000) translate(16.000000, 0.000000)"/>
                            <path fill="#E9F4FC" fill-rule="nonzero" d="M28.547 2.771l7.076 8.087h-5.597c-.816 0-1.48-.67-1.48-1.495V2.771z" transform="translate(15.000000, 27.000000) translate(16.000000, 0.000000)"/>
                        </g>
                    </g>
                </g>
            </g>
        </g>
    </g>
</svg>
