<svg width="20" height="20" viewBox="0 0 20 20" xmlns="http://www.w3.org/2000/svg">
    <path d="M10 0c5.522 0 10 4.478 10 10 0 5.523-4.477 10-10 10S0 15.523 0 10C0 4.478 4.478 0 10 0zm0 1.5a8.5 8.5 0 1 0 .002 17.002A8.5 8.5 0 0 0 10 1.5zm2.905 5.586c.25.25.27.642.063.915l-.063.072-1.919 1.918 1.917 1.916a.698.698 0 0 1-.915 1.05l-.072-.063L10 10.977l-1.919 1.92a.698.698 0 0 1-1.049-.916l.063-.071 1.918-1.92-1.916-1.915a.698.698 0 0 1 .915-1.05l.072.063 1.915 1.916 1.92-1.918a.698.698 0 0 1 .986 0z" fill="#FFF" fill-rule="evenodd"/>
</svg>
