<svg width="32" height="32" viewBox="0 0 32 32" fill="none" xmlns="http://www.w3.org/2000/svg">
<path fill-rule="evenodd" clip-rule="evenodd" d="M13.7767 0.612312C15.1444 -0.204104 16.8556 -0.204104 18.2233 0.612311L27.9156 6.39823C29.2091 7.17043 30 8.55734 30 10.0535V21.9465C30 23.4427 29.2091 24.8296 27.9156 25.6018L18.2233 31.3877C16.8556 32.2041 15.1444 32.2041 13.7767 31.3877L4.08444 25.6018C2.79089 24.8296 2 23.4427 2 21.9465V10.0535C2 8.55734 2.79089 7.17043 4.08444 6.39823L13.7767 0.612312ZM13.7658 2.33424C15.1387 1.5093 16.8607 1.5093 18.2336 2.33424L26.4259 7.2568C27.7134 8.03042 28.4997 9.41391 28.4997 10.9057V21.122C28.4997 22.6137 27.7134 23.9972 26.4259 24.7708L18.2336 29.6934C16.8607 30.5183 15.1387 30.5183 13.7658 29.6934L5.57347 24.7708C4.28598 23.9972 3.4997 22.6137 3.4997 21.122V10.9057C3.4997 9.41392 4.28598 8.03042 5.57347 7.2568L13.7658 2.33424Z" fill="white"/>
<path fill-rule="evenodd" clip-rule="evenodd" d="M13.9395 2.22986C15.2073 1.46806 16.7921 1.46806 18.0599 2.22986L26.5599 7.33731C27.7635 8.0605 28.4997 9.36182 28.4997 10.766V21.2617C28.4997 22.6659 27.7635 23.9672 26.5599 24.6904L18.0599 29.7978C16.7921 30.5596 15.2073 30.5596 13.9395 29.7978L5.43951 24.6904C4.23594 23.9672 3.49969 22.6659 3.49969 21.2617V10.766C3.49969 9.36182 4.23593 8.0605 5.4395 7.33731L13.9395 2.22986Z" fill="url(#paint0_linear_219_15226)"/>
<path d="M16.9865 1.84544L6.35316 8.60664C5.58161 9.09723 5.11508 9.94306 5.11508 10.8513V24.47C4.10184 23.6665 3.49969 22.4439 3.49969 21.1385V10.9222C3.49969 9.43044 4.28597 8.04694 5.57346 7.27332L13.7658 2.35076C14.7461 1.76172 15.9044 1.59328 16.9865 1.84544Z" fill="#948DFF"/>
<path d="M15.2505 22.3195V11.5822H12.7692V9.60205H17.5938V22.3195H15.2505Z" fill="#39405D"/>
<defs>
<linearGradient id="paint0_linear_219_15226" x1="7.9997" y1="3.13793" x2="24.6401" y2="30.0053" gradientUnits="userSpaceOnUse">
<stop offset="0.106594" stop-color="#B4AFFC"/>
<stop offset="0.713542" stop-color="#E8E7FF"/>
</linearGradient>
</defs>
</svg>
