<svg width="24" height="24" viewBox="0 0 24 24" xmlns="http://www.w3.org/2000/svg">
    <path d="M21.35 0c.359 0 .65.29.65.645a.648.648 0 0 1-.65.645h-2.467v4.37c0 1.602-.8 3.087-2.14 3.973L13.172 12l3.572 2.367a4.754 4.754 0 0 1 2.14 3.972v4.37h2.468c.358 0 .649.29.649.646a.648.648 0 0 1-.65.645H2.65a.648.648 0 0 1-.65-.645c0-.356.291-.645.65-.645h2.467v-4.37c0-1.602.8-3.087 2.14-3.973L10.83 12 7.257 9.633a4.754 4.754 0 0 1-2.14-3.972V1.29H2.649A.648.648 0 0 1 2 .644C2 .29 2.291 0 2.65 0zM12 12.775l-4.024 2.666a3.468 3.468 0 0 0-1.56 2.898v4.37h11.168v-4.37a3.469 3.469 0 0 0-1.561-2.899L12 12.775zm-.979 4.347a1.51 1.51 0 0 1 1.958 0c.019.016.85.714 1.714 1.464l.323.283c.59.518 1.149 1.024 1.421 1.313l.024.026c.478.51.111 1.341-.59 1.341H8.13c-.703 0-1.069-.83-.59-1.341l.023-.026c.272-.29.83-.795 1.42-1.313l.324-.283c.863-.75 1.695-1.448 1.714-1.464zM17.584 1.29H6.416v4.37c0 1.17.583 2.253 1.561 2.9L12 11.225l4.024-2.666a3.468 3.468 0 0 0 1.56-2.898V1.29z" fill="#073B4C" fill-rule="evenodd"/>
</svg>
