<svg xmlns="http://www.w3.org/2000/svg" width="20" height="20" viewBox="0 0 20 20">
    <g fill="none" fill-rule="evenodd" opacity=".38">
        <g fill="#200E32" fill-rule="nonzero">
            <g>
                <g>
                    <g>
                        <path d="M12.104 0c1.262.014 2.463.548 3.323 1.478.86.93 1.305 2.173 1.232 3.404l-.001 5.198c.074 1.269-.37 2.513-1.23 3.442-.861.93-2.062 1.464-3.33 1.478H4.546C1.906 15 0 12.865 0 10.118V4.882C0 2.135 1.906 0 4.547 0zm-.014 1.274H4.547c-1.911 0-3.282 1.536-3.282 3.608v5.236c0 2.072 1.37 3.608 3.282 3.608h7.543c.916-.01 1.788-.398 2.412-1.072.625-.675.947-1.578.892-2.536l.001-5.273c.054-.92-.268-1.824-.893-2.499-.624-.674-1.496-1.062-2.412-1.072zm1.263 3.425c.199.25.18.603-.03.83l-.068.065-3.423 2.759c-.83.653-1.98.685-2.846.095L6.85 8.35 3.406 5.595c-.273-.218-.32-.619-.102-.894.197-.25.544-.312.81-.156l.078.053 3.441 2.75c.386.303.915.327 1.318.074l.098-.068 3.416-2.755c.272-.22.67-.175.888.1z" transform="translate(-26 -379) translate(16 353) translate(10 25) translate(0 1) translate(1.667 2.5)"/>
                    </g>
                </g>
            </g>
        </g>
    </g>
</svg>
