<svg xmlns="http://www.w3.org/2000/svg" width="22" height="22" viewBox="0 0 22 22">
    <g fill="none" fill-rule="evenodd">
        <g fill="#073B4C">
            <g>
                <path fill="currentColor" d="M22 10.724c0 5.913-4.827 10.71-10.801 10.71-1.895 0-3.666-.473-5.21-1.328L0 22l1.956-5.745c-.978-1.62-1.543-3.513-1.543-5.53C.413 4.796 5.24 0 11.199 0 17.173 0 22 4.797 22 10.724M11.199 1.71c-4.996 0-9.075 4.049-9.075 9.014 0 1.971.641 3.79 1.726 5.287l-1.13 3.345 3.483-1.115c1.436.948 3.162 1.498 4.996 1.498 5.011 0 9.09-4.049 9.09-9.015 0-4.965-4.079-9.014-9.09-9.014m5.454 11.474c-.061-.107-.244-.168-.504-.306-.26-.122-1.558-.763-1.803-.855-.244-.077-.428-.122-.596.138-.183.26-.687.855-.84 1.023-.153.183-.305.199-.58.077-.26-.138-1.116-.413-2.124-1.315-.78-.688-1.314-1.543-1.467-1.817-.153-.26-.015-.397.108-.535.121-.107.274-.306.397-.458.137-.153.182-.26.274-.429.077-.182.031-.336-.03-.472-.062-.123-.596-1.421-.81-1.94-.229-.536-.443-.445-.596-.445-.152 0-.336-.014-.519-.014-.168 0-.458.06-.703.32-.244.26-.916.902-.916 2.2 0 1.284.946 2.536 1.069 2.705.137.183 1.834 2.918 4.522 3.972 2.704 1.054 2.704.702 3.178.657.489-.046 1.573-.642 1.787-1.253.23-.61.23-1.13.153-1.253" transform="translate(-320 -194) translate(320 194)"/>
            </g>
        </g>
    </g>
</svg>
