<svg width="24" height="24" viewBox="0 0 24 24" xmlns="http://www.w3.org/2000/svg">
    <path d="M12 0c6.627 0 12 5.373 12 12s-5.373 12-12 12S0 18.627 0 12 5.373 0 12 0zm0 1.8C6.367 1.8 1.8 6.367 1.8 12c0 5.633 4.567 10.2 10.2 10.2 5.633 0 10.2-4.567 10.2-10.2 0-5.633-4.567-10.2-10.2-10.2zm4.908 6.716a.9.9 0 0 1 .087 1.172l-.087.1-5.695 5.696a.9.9 0 0 1-1.172.087l-.101-.087-2.849-2.847a.9.9 0 0 1 1.172-1.36l.1.086 2.212 2.211 5.06-5.058a.9.9 0 0 1 1.273 0z" fill="#052C50" fill-rule="evenodd"/>
</svg>
