<svg width="24" height="25" viewBox="0 0 24 25" xmlns="http://www.w3.org/2000/svg">
    <path d="m1.195.647.084.072 3.78 3.78L20 4.5a4 4 0 0 1 4 4v8a4.002 4.002 0 0 1-3.054 3.888l2.788 2.788a.749.749 0 0 1-.965 1.137l-.093-.078L.22 1.779A.749.749 0 0 1 1.195.647zm.487 4.593 1.085 1.085a2.5 2.5 0 0 0-1.262 2.01L1.5 8.5v.75h4.191l1.5 1.5H1.5v5.75a2.5 2.5 0 0 0 2.336 2.495L4 19h11.441l1.5 1.5H4a4 4 0 0 1-4-4v-8c0-1.345.664-2.535 1.682-3.26zm10.196 6.076L12 11.5l.366.304 3.114 3.115 1.074 1.076 3.004 3.004L20 19a2.5 2.5 0 0 0 2.495-2.336l.005-.164v-5.75H11.31l.568.566zM9.81 9.25l12.69.001V8.5a2.5 2.5 0 0 0-2.336-2.495L20 6H6.56l3.25 3.25z" fill="#48464D" fill-rule="evenodd"/>
</svg>
