<svg xmlns="http://www.w3.org/2000/svg" width="18" height="18" viewBox="0 0 18 18">
    <g fill="none" fill-rule="evenodd">
        <g fill="#073B4C">
            <g>
                <g>
                    <path d="M9.002 1.5l.257.004c3.538.118 6.716 2.607 8.558 6.643l.125.282c.076.17.077.365.003.536-1.861 4.304-5.22 6.935-8.947 6.935l-.257-.004c-3.543-.118-6.72-2.612-8.557-6.64l-.13-.291c-.072-.17-.072-.36 0-.53C1.917 4.131 5.276 1.5 9.003 1.5zm.006 1.34C6.022 2.841 3.25 4.896 1.554 8.4l-.141.3.152.324c1.609 3.307 4.18 5.32 6.968 5.518l.24.013.23.003.23-.004c2.968-.107 5.706-2.254 7.345-5.833l.008-.022c-1.599-3.504-4.245-5.638-7.123-5.841l-.24-.013zM9 5.202c1.944 0 3.52 1.566 3.52 3.498 0 1.932-1.576 3.497-3.52 3.497-1.945 0-3.52-1.565-3.52-3.497S7.055 5.202 9 5.202zm0 1.341c-1.2 0-2.17.966-2.17 2.157S7.8 10.856 9 10.856c1.198 0 2.17-.965 2.17-2.156 0-1.191-.971-2.157-2.17-2.157z" transform="translate(-125 -442) translate(82 431) translate(43 11)"/>
                </g>
            </g>
        </g>
    </g>
</svg>
