<svg width="20" height="21" viewBox="0 0 20 21" xmlns="http://www.w3.org/2000/svg">
    <path d="m11.973.695.055.012a9.918 9.918 0 0 1 4.187 1.964 5.654 5.654 0 0 1 .217.178 8.223 8.223 0 0 1 .317.278c.214.196.42.401.616.615l-.187-.198a10.088 10.088 0 0 1 .651.74l.057.074a9.917 9.917 0 0 1 .827 1.238l.031.056a9.872 9.872 0 0 1 1.06 2.875l.012.06a9.94 9.94 0 0 1 .178 1.573l-.002-.055a10.127 10.127 0 0 1 .003.714L20 10.5a10.133 10.133 0 0 1-.275 2.334 10.151 10.151 0 0 1-.51 1.549 11.574 11.574 0 0 1-.155.349 9.85 9.85 0 0 1-.332.646l.109-.2a9.995 9.995 0 0 1-2.088 2.695l.207-.195a10.088 10.088 0 0 1-.74.651l-.058.045a9.923 9.923 0 0 1-1.254.84l-.074.04a9.877 9.877 0 0 1-2.857 1.05l-.06.012a9.943 9.943 0 0 1-2.232.179L10 20.5a10.129 10.129 0 0 1-1.913-.184l-.06-.011a9.929 9.929 0 0 1-2.857-1.05l-.074-.042a8.332 8.332 0 0 1-.512-.31 7.852 7.852 0 0 1-.256-.17 9.936 9.936 0 0 1-.486-.36l-.057-.044a8.19 8.19 0 0 1-.33-.274 11.387 11.387 0 0 1-.204-.182c-.218-.2-.428-.41-.628-.628l.2.211a10.088 10.088 0 0 1-1.66-2.277l.11.2A9.978 9.978 0 0 1 .09 11.852a9.665 9.665 0 0 1-.086-1.033 10.134 10.134 0 0 1 .003-.715l-.002.054a10.072 10.072 0 0 1 .178-1.572l.011-.06a9.924 9.924 0 0 1 1.06-2.875l.032-.056a8.706 8.706 0 0 1 .312-.516 7.85 7.85 0 0 1 .167-.25c.112-.16.227-.318.348-.472l.057-.073a8.161 8.161 0 0 1 .288-.346 11.987 11.987 0 0 1 .176-.197c.196-.214.402-.419.616-.615l-.207.195A10.088 10.088 0 0 1 6.227 1.24a10.477 10.477 0 0 1 .92-.324 10.26 10.26 0 0 1 .88-.22l.06-.011A9.944 9.944 0 0 1 10.32.505L10 .5a10.129 10.129 0 0 1 1.913.184l.06.011zm4.302 5.055L5.25 16.775l.157.116a7.827 7.827 0 0 0 4.393 1.48l.2.002c4.341 0 7.873-3.532 7.873-7.873a7.83 7.83 0 0 0-1.482-4.593l-.116-.157zM10 2.627c-4.341 0-7.873 3.532-7.873 7.873a7.83 7.83 0 0 0 1.498 4.615l.119.16 11.03-11.031a7.832 7.832 0 0 0-4.572-1.615L10 2.627z" fill="#48464D" fill-rule="evenodd"/>
</svg>
