<svg width="24" height="24" viewBox="0 0 24 24" xmlns="http://www.w3.org/2000/svg">
    <path d="M20 3a4 4 0 0 1 4 4v9a4 4 0 0 1-4 4H4a4 4 0 0 1-4-4V7a4 4 0 0 1 4-4h16zm0 1.7H4a2.3 2.3 0 0 0-2.295 2.143L1.7 7v9a2.3 2.3 0 0 0 2.143 2.295L4 18.3h16a2.3 2.3 0 0 0 2.295-2.143L22.3 16V7a2.3 2.3 0 0 0-2.143-2.295L20 4.7zM6.2 13.27c1.735 0 3.2.282 3.2 1.37S7.926 16 6.2 16C4.465 16 3 15.718 3 14.63s1.474-1.36 3.2-1.36zM20 13a1 1 0 0 1 0 2h-8a1 1 0 0 1 0-2h8zM6.2 8a2.11 2.11 0 0 1 2.118 2.116A2.11 2.11 0 0 1 6.2 12.233a2.11 2.11 0 0 1-2.118-2.117A2.11 2.11 0 0 1 6.2 8zm9.8 2a1 1 0 0 1 0 2h-4a1 1 0 0 1 0-2h4z" fill="#48464D" fill-rule="evenodd"/>
</svg>
