<svg width="64" height="94" viewBox="0 0 64 94" xmlns="http://www.w3.org/2000/svg">
    <defs>
        <clipPath id="6t98no2c8a">
            <path d="M360 0v640H0V0h360z"/>
        </clipPath>
        <clipPath id="keuzp72e1b">
            <path d="m11.162 0 .65 2.347a4.226 4.226 0 0 0 4.07 3.105h12.887a4.226 4.226 0 0 0 4.07-3.105L33.486 0h7.543l.135.003a3.628 3.628 0 0 1 3.485 3.632v82.99l-.002.135a3.627 3.627 0 0 1-3.618 3.499H3.62l-.135-.003A3.628 3.628 0 0 1 0 86.624V3.634l.002-.136A3.627 3.627 0 0 1 3.62 0h7.542z"/>
        </clipPath>
        <clipPath id="1xjx03xezc">
            <path d="M42.964 0a5.452 5.452 0 0 1 5.446 5.458v83.084A5.452 5.452 0 0 1 42.964 94H5.446A5.452 5.452 0 0 1 0 88.542V5.458A5.452 5.452 0 0 1 5.446 0h37.518zM13.01 1.82H5.446a3.635 3.635 0 0 0-3.628 3.502l-.003.136v83.084a3.635 3.635 0 0 0 3.495 3.636l.136.003h37.518a3.634 3.634 0 0 0 3.628-3.503l.003-.136V5.458A3.635 3.635 0 0 0 43.1 1.822l-.136-.003H35.4l-.651 2.35a4.237 4.237 0 0 1-4.082 3.108H17.743a4.237 4.237 0 0 1-4.082-3.109L13.01 1.82zm18.154 84.296a.909.909 0 0 1 .087 1.815l-.087.004H17.246a.909.909 0 0 1-.087-1.815l.087-.004h13.918zM33.515 1.82H14.894l.516 1.863a2.422 2.422 0 0 0 2.208 1.773l.125.003h12.924a2.421 2.421 0 0 0 2.296-1.657l.037-.12.515-1.862z"/>
        </clipPath>
        <clipPath id="b2a4554mgd">
            <path d="m19.27 0-.534 1.915-.038.123a2.504 2.504 0 0 1-2.375 1.703H2.948l-.13-.003A2.503 2.503 0 0 1 .535 1.915L0 0h19.27z"/>
        </clipPath>
        <clipPath id="vwta6gxmqe">
            <path d="m26.696 0 .132.003a3.025 3.025 0 0 1 2.902 3.016v23.544l-.003.131a3.027 3.027 0 0 1-3.031 2.888H3.034l-.132-.003A3.025 3.025 0 0 1 0 26.563V3.02l.003-.131A3.027 3.027 0 0 1 3.033 0h23.663z"/>
        </clipPath>
        <clipPath id="kwd4lhzdlf">
            <path d="M6.37 14.489c.168 0 .304.135.304.302v6.037a.303.303 0 0 1-.303.302H.303A.303.303 0 0 1 0 20.828v-6.037c0-.167.136-.302.303-.302h6.068zm15.776 0c.167 0 .303.135.303.302v6.037a.303.303 0 0 1-.303.302h-6.068a.303.303 0 0 1-.303-.302v-6.037c0-.167.136-.302.303-.302h6.068zM6.37 0c.167 0 .303.135.303.302v6.037a.303.303 0 0 1-.303.302H.303A.303.303 0 0 1 0 6.339V.302C0 .135.136 0 .303 0h6.068zm15.775 0c.167 0 .303.135.303.302v6.037a.303.303 0 0 1-.303.302h-6.068a.303.303 0 0 1-.303-.302V.302c0-.167.136-.302.303-.302h6.068z"/>
        </clipPath>
        <clipPath id="u0ft8i0hgg">
            <path d="M28.516 0c2.68 0 4.854 2.162 4.854 4.83v23.544c0 2.668-2.173 4.83-4.854 4.83H4.854c-2.68 0-4.854-2.162-4.854-4.83V4.83C0 2.162 2.173 0 4.854 0h23.662zm0 1.811H4.854A3.027 3.027 0 0 0 1.823 4.7l-.003.13v23.545a3.025 3.025 0 0 0 2.902 3.016l.132.003h23.662a3.027 3.027 0 0 0 3.031-2.888l.003-.13V4.83a3.025 3.025 0 0 0-2.902-3.016l-.132-.003zM11.831 18.715c1.173 0 2.124.946 2.124 2.113v6.037c0 1.167-.951 2.113-2.124 2.113H5.764a2.118 2.118 0 0 1-2.124-2.113v-6.037c0-1.167.951-2.113 2.124-2.113h6.067zm15.775 0c1.173 0 2.124.946 2.124 2.113v6.037c0 1.167-.951 2.113-2.124 2.113H21.54a2.118 2.118 0 0 1-2.124-2.113v-6.037c0-1.167.951-2.113 2.124-2.113h6.067zM16.685 4.226c.473 0 .862.36.906.818l.004.088v10.564h10.618c.502 0 .91.406.91.906 0 .47-.361.858-.823.901l-.087.005-10.618-.001v10.565c0 .5-.407.906-.91.906a.908.908 0 0 1-.906-.818l-.004-.088V17.507H8.19a.908.908 0 0 1-.91-.905c0-.47.36-.858.822-.901l.088-.005h7.584V5.132c0-.5.407-.906.91-.906zm-4.854 16.3H5.764a.303.303 0 0 0-.303.302v6.037c0 .167.135.302.303.302h6.067a.303.303 0 0 0 .304-.302v-6.037a.303.303 0 0 0-.304-.302zm15.775 0H21.54a.303.303 0 0 0-.304.302v6.037c0 .167.136.302.304.302h6.067a.303.303 0 0 0 .303-.302v-6.037a.303.303 0 0 0-.303-.302zM9.708 22.337c.335 0 .606.27.606.604v1.811a.605.605 0 0 1-.606.604h-1.82a.605.605 0 0 1-.607-.604v-1.811c0-.333.271-.604.606-.604h1.82zm15.775 0c.335 0 .606.27.606.604v1.811a.605.605 0 0 1-.606.604h-1.82a.605.605 0 0 1-.607-.604v-1.811c0-.333.271-.604.606-.604h1.82zM9.1 23.545h-.607v.603h.607v-.603zm15.775 0h-.607v.603h.607v-.603zM4.55 15.696c.503 0 .91.406.91.906s-.407.906-.91.906a.908.908 0 0 1-.91-.906c0-.5.408-.906.91-.906zm7.281-11.47c1.173 0 2.124.946 2.124 2.113v6.037c0 1.167-.951 2.113-2.124 2.113H5.764a2.118 2.118 0 0 1-2.124-2.113V6.339c0-1.167.951-2.113 2.124-2.113h6.067zm15.775 0c1.173 0 2.124.946 2.124 2.113v6.037c0 1.167-.951 2.113-2.124 2.113H21.54a2.118 2.118 0 0 1-2.124-2.113V6.339c0-1.167.951-2.113 2.124-2.113h6.067zM11.831 6.037H5.764a.303.303 0 0 0-.303.302v6.037c0 .167.135.302.303.302h6.067a.303.303 0 0 0 .304-.302V6.339a.303.303 0 0 0-.304-.302zm15.775 0H21.54a.303.303 0 0 0-.304.302v6.037c0 .167.136.302.304.302h6.067a.303.303 0 0 0 .303-.302V6.339a.303.303 0 0 0-.303-.302zM9.708 7.848c.335 0 .606.27.606.604v1.811a.605.605 0 0 1-.606.604h-1.82a.605.605 0 0 1-.607-.604V8.452c0-.333.271-.604.606-.604h1.82zm15.775 0c.335 0 .606.27.606.604v1.811a.605.605 0 0 1-.606.604h-1.82a.605.605 0 0 1-.607-.604V8.452c0-.333.271-.604.606-.604h1.82zM9.1 9.056h-.607v.603h.607v-.603zm15.775 0h-.607v.603h.607v-.603z"/>
        </clipPath>
        <clipPath id="rf17oe4yqh">
            <path d="M13.074 1.868c.366.193.443.556.239.87a.631.631 0 0 1-.881.187C8.945.66 4.456.693.972 3.032a.735.735 0 0 1-.466.1.556.556 0 0 1-.408-.266c-.128-.217-.13-.487-.008-.675.04-.063.102-.158.174-.2a11.6 11.6 0 0 1 12.81-.123z"/>
        </clipPath>
        <clipPath id="q1fom28rki">
            <path d="M1.04 0c.401.057.745.341.86.683a.976.976 0 0 1-.344 1.023.972.972 0 0 1-.573.171c-.171 0-.4-.057-.572-.17C.067 1.478-.104.966.067.568A1.02 1.02 0 0 1 .983 0h.058zm12.33 0c.4.057.744.341.858.683a.976.976 0 0 1-.343 1.023.972.972 0 0 1-.573.171c-.172 0-.4-.057-.572-.17-.344-.228-.515-.74-.344-1.138A1.02 1.02 0 0 1 13.312 0h.057z"/>
        </clipPath>
        <clipPath id="63amm2ejkj">
            <path d="M15.51 0c8.566 0 15.51 6.91 15.51 15.433s-6.944 15.433-15.51 15.433C6.944 30.866 0 23.956 0 15.433S6.944 0 15.51 0z"/>
        </clipPath>
        <clipPath id="ualdelse0k">
            <path d="M7.52 0c4.153 0 7.52 3.35 7.52 7.483 0 4.132-3.367 7.482-7.52 7.482S0 11.615 0 7.483C0 3.35 3.367 0 7.52 0zm0 1.122c-3.53 0-6.392 2.848-6.392 6.36 0 3.514 2.862 6.36 6.392 6.36 3.53 0 6.392-2.846 6.392-6.36 0-3.512-2.862-6.36-6.392-6.36zm-.254 2.691c.285 0 .521.212.558.485l.006.077v3.307l2.56 1.52a.56.56 0 0 1 .23.702l-.035.068a.566.566 0 0 1-.705.229l-.068-.035-2.835-1.683a.561.561 0 0 1-.27-.398l-.005-.084V4.375c0-.31.252-.562.564-.562z"/>
        </clipPath>
        <clipPath id="uacj85vhtl">
            <path d="M15.944 0c8.806 0 15.944 7.113 15.944 15.885 0 8.773-7.138 15.886-15.944 15.886C7.138 31.77 0 24.658 0 15.885 0 7.113 7.138 0 15.944 0zm0 1.403C7.917 1.403 1.41 7.887 1.41 15.885c0 7.999 6.507 14.483 14.534 14.483 8.027 0 14.534-6.484 14.534-14.483 0-7.998-6.507-14.482-14.534-14.482z"/>
        </clipPath>
    </defs>
    <g clip-path="url(#6t98no2c8a)" transform="translate(-148 -340)">
        <g clip-path="url(#keuzp72e1b)" transform="translate(149.88 341.87)">
            <path fill="#FFF" d="M0 0h44.65v90.259H0V0z"/>
        </g>
        <g clip-path="url(#1xjx03xezc)" transform="translate(148 340)">
            <path fill="#052B50" d="M0 0h48.41v94H0V0z"/>
        </g>
        <g clip-path="url(#b2a4554mgd)" transform="translate(162.57 341.87)">
            <path fill="#FFD166" d="M0 0h19.27v3.741H0V0z"/>
        </g>
        <g clip-path="url(#vwta6gxmqe)" transform="translate(157.34 388.577)">
            <path fill="#E9F4FC" d="M0 0h29.73v29.582H0V0z"/>
        </g>
        <g clip-path="url(#kwd4lhzdlf)" transform="translate(160.98 392.803)">
            <path fill="#FFD166" d="M0 0h22.449v21.13H0V0z"/>
        </g>
        <g clip-path="url(#u0ft8i0hgg)" transform="translate(155.52 386.766)">
            <path fill="#052B50" d="M0 0h33.37v33.204H0V0z"/>
        </g>
        <g clip-path="url(#rf17oe4yqh)" transform="translate(165.999 369.164)">
            <path fill="#063B4C" d="M0 0h13.424v3.136H0V0z"/>
        </g>
        <g>
            <g clip-path="url(#q1fom28rki)" transform="translate(165.623 361.28)">
                <path fill="#063B4C" d="M0 0h14.264v1.877H0V0z"/>
            </g>
        </g>
        <g>
            <g clip-path="url(#63amm2ejkj)" transform="translate(180.43 365.721)">
                <path fill="#FFD166" d="M0 0h31.02v30.866H0V0z"/>
            </g>
            <g clip-path="url(#ualdelse0k)" transform="translate(188.42 373.672)">
                <path fill="#063B4C" d="M0 0h15.04v14.965H0V0z"/>
            </g>
            <g clip-path="url(#uacj85vhtl)" transform="translate(179.96 365.254)">
                <path fill="#063B4C" d="M0 0h31.888v31.77H0V0z"/>
            </g>
        </g>
    </g>
</svg>
