<svg xmlns="http://www.w3.org/2000/svg" width="25" height="24" viewBox="0 0 25 24">
    <g fill="none" fill-rule="evenodd">
        <g fill="#48464D">
            <g>
                <path d="M9.133.946c1.604-1.211 3.852-1.26 5.506-.144l.203.144 7.691 5.845c.847.623 1.366 1.549 1.454 2.556l.013.24v9.733c0 2.508-2.085 4.548-4.699 4.68h-2.514c-1.2-.023-2.172-.91-2.26-2.027l-.013-.17v-3.43c0-.374-.292-.684-.682-.746l-.114-.012h-3.374c-.403.012-.731.288-.782.648l-.013.11v3.42c0 .07-.013.155-.025.215l-.012.025-.014.083c-.15 1.021-1.035 1.8-2.134 1.873L7.2 24H4.939c-2.64 0-4.8-1.967-4.939-4.44V9.588c.011-1.022.48-1.97 1.263-2.63zm4.61 1.308c-.96-.732-2.324-.767-3.335-.132l-.19.132-7.68 5.882c-.441.31-.706.778-.77 1.27l-.013.193v9.72c0 1.597 1.313 2.905 2.982 3H7.2c.278 0 .518-.178.555-.43l.026-.216.013-.061v-3.24c0-1.283 1.035-2.328 2.362-2.425h3.562c1.35 0 2.45.985 2.551 2.246v3.61c0 .253.19.47.443.517h2.348c1.692 0 3.07-1.235 3.17-2.808l.014-.192V9.599c-.014-.515-.24-.997-.631-1.355l-.165-.134z" transform="translate(-14 -433) translate(14.714 433)"/>
            </g>
        </g>
    </g>
</svg>
