<svg width="24" height="24" viewBox="0 0 24 24" fill="none" xmlns="http://www.w3.org/2000/svg">
<path fill-rule="evenodd" clip-rule="evenodd" d="M20 4C22.2091 4 24 5.79086 24 8V16C24 18.2091 22.2091 20 20 20H4C1.79086 20 0 18.2091 0 16V10.25V8.75V8C0 5.79086 1.79086 4 4 4H20ZM1.5 10.25V16C1.5 17.3255 2.53154 18.41 3.83562 18.4947L4 18.5H20C21.3255 18.5 22.41 17.4685 22.4947 16.1644L22.5 16V10.25H1.5ZM22.5 8.75H1.5V8L1.50532 7.83562C1.58996 6.53154 2.67452 5.5 4 5.5H20L20.1644 5.50532C21.4685 5.58996 22.5 6.67452 22.5 8V8.75Z" fill="#052C50"/>
</svg>
