<svg width="50" height="50" viewBox="0 0 50 50" xmlns="http://www.w3.org/2000/svg">
    <path d="M44.48 0a1.35 1.35 0 0 1 1.353 1.344 1.35 1.35 0 0 1-1.352 1.344H39.34v9.106a9.902 9.902 0 0 1-4.457 8.275L27.439 25l7.442 4.93a9.903 9.903 0 0 1 4.459 8.277v9.105h5.14a1.35 1.35 0 0 1 1.353 1.344A1.35 1.35 0 0 1 44.481 50H5.52a1.35 1.35 0 0 1-1.353-1.344 1.35 1.35 0 0 1 1.353-1.344h5.14v-9.105a9.902 9.902 0 0 1 4.457-8.275L22.561 25l-7.442-4.93a9.903 9.903 0 0 1-4.459-8.277V2.688H5.52a1.35 1.35 0 0 1-1.353-1.344A1.35 1.35 0 0 1 5.52 0zM25 26.615l-8.383 5.554a7.225 7.225 0 0 0-3.251 6.038v9.105h23.268v-9.105a7.226 7.226 0 0 0-3.253-6.04L25 26.615zm-2.039 9.055c1.173-1 2.904-1 4.078 0 .042.035 1.92 1.61 3.793 3.245l.416.363c1.243 1.091 2.423 2.16 2.996 2.769l.05.052c.995 1.065.232 2.796-1.231 2.796H16.937c-1.463 0-2.226-1.731-1.23-2.796l.049-.052c1.497-1.59 7.133-6.315 7.205-6.377zM36.634 2.688H13.366v9.106a7.227 7.227 0 0 0 3.253 6.039L25 23.385l8.383-5.553a7.226 7.226 0 0 0 3.251-6.038V2.688z" fill="#FFF" fill-rule="evenodd"/>
</svg>
