<svg width="133" height="112" viewBox="0 0 133 112" xmlns="http://www.w3.org/2000/svg">
    <g fill="none" fill-rule="evenodd">
        <g fill-rule="nonzero">
            <path fill="#E9F4FC" d="M9.295 32.97h106.377v66.97H9.295z"/>
            <path d="M124.967 29.251c0 8.313-6.878 15.052-15.363 15.052-6.142 0-11.442-3.532-13.9-8.636a1.611 1.611 0 0 0-2.924 0c-2.458 5.104-7.759 8.636-13.9 8.636-6.143 0-11.444-3.532-13.902-8.636a1.611 1.611 0 0 0-2.923 0c-2.459 5.104-7.76 8.636-13.901 8.636-6.142 0-11.443-3.532-13.901-8.636a1.611 1.611 0 0 0-2.924 0c-2.458 5.104-7.758 8.636-13.9 8.636-8.485 0-15.363-6.739-15.363-15.052L16.782 4.018a3.98 3.98 0 0 1 3.442-1.957h86.584a3.98 3.98 0 0 1 3.442 1.957l14.717 25.233z" fill="#B5EDFF"/>
            <path d="M106.808 2.06H20.225c-1.423 0-2.737.737-3.443 1.929L2.066 28.849h122.901L110.25 3.988c-.706-1.192-2.02-1.928-3.442-1.928z" fill="#B5EDFF"/>
            <g fill="#FFFDE7">
                <path d="M82.718 52.545h23.659V99.94H82.718zM19.623 52.545H72.86v37.521H19.623z"/>
            </g>
            <path d="M120.209 98.32h-2.1V43.74C122.85 40.697 126 35.394 126 29.37c0-.32-.084-.635-.243-.913L111.11 2.909A5.808 5.808 0 0 0 106.083 0H19.917c-2.073 0-4 1.114-5.028 2.909L.243 28.457c-.16.277-.243.592-.243.913 0 6.025 3.15 11.328 7.89 14.37v54.58H5.792c-1.02 0-1.846.824-1.846 1.84S4.772 102 5.791 102H120.21c1.02 0 1.846-.824 1.846-1.84s-.827-1.84-1.846-1.84zM3.819 31.21h5.917c1.019 0 1.845-.824 1.845-1.84 0-1.017-.826-1.84-1.845-1.84h-4.71L18.094 4.734a2.106 2.106 0 0 1 1.823-1.054h86.166c.751 0 1.45.404 1.823 1.054l13.068 22.796h-4.71c-1.02 0-1.847.823-1.847 1.84 0 1.016.826 1.84 1.846 1.84h5.918c-.902 6.52-6.53 11.56-13.316 11.56-6.786 0-12.41-5.04-13.312-11.56h12.82c1.02 0 1.846-.824 1.846-1.84 0-1.017-.826-1.84-1.846-1.84H17.628c-1.02 0-1.846.823-1.846 1.84 0 1.016.827 1.84 1.846 1.84h12.82c-.903 6.52-6.528 11.56-13.314 11.56-6.786 0-12.413-5.04-13.315-11.56zm87.783 0c-.903 6.52-6.528 11.56-13.313 11.56-6.786 0-12.41-5.04-13.313-11.56h26.626zm-30.578 0c-.902 6.52-6.527 11.56-13.313 11.56-6.785 0-12.41-5.04-13.313-11.56h26.626zM11.582 45.522c1.743.597 3.61.926 5.552.926 6.668 0 12.459-3.816 15.289-9.373 2.83 5.556 8.62 9.373 15.288 9.373 6.668 0 12.459-3.816 15.289-9.373 2.83 5.556 8.62 9.373 15.289 9.373 6.667 0 12.458-3.816 15.288-9.373 2.83 5.556 8.62 9.373 15.289 9.373 1.943 0 3.81-.329 5.552-.926V98.32h-6.172V52.966c0-1.016-.827-1.84-1.846-1.84H82.727c-1.02 0-1.845.824-1.845 1.84V98.32h-69.3V45.523zm92.972 42.965H84.573V54.806h19.98v33.682zm-19.981 3.68h19.98v6.152h-19.98v-6.152z" fill="#073B4C"/>
            <path d="M72.52 51.515H19.398c-1.016 0-1.84.827-1.84 1.848V90.88c0 1.02.824 1.847 1.84 1.847H72.52c1.017 0 1.84-.827 1.84-1.847V53.363c0-1.02-.823-1.848-1.84-1.848zm-1.84 37.517H21.238V55.21h49.44v33.822z" fill="#073B4C"/>
        </g>
        <g transform="translate(96 75)">
            <circle stroke="#073B4C" stroke-width="2.292" fill="#C33" cx="18.5" cy="18.5" r="17.354"/>
            <path d="M25.723 10.157a.8.8 0 0 1 1.042.078l.057.062a.808.808 0 0 1 .006.999l-.063.071-6.633 6.632 6.633 6.634a.8.8 0 0 1-1.053 1.2l-.078-.068-6.635-6.633-6.652 6.65-.08.067a.8.8 0 0 1-1.095-1.145l.062-.071 6.632-6.634-6.631-6.632a.8.8 0 0 1-.059-1.067l.059-.065a.806.806 0 0 1 1.06-.063l.072.063 4.17 4.17 2.459 2.465 6.654-6.651z" fill="#FFF"/>
        </g>
    </g>
</svg>
