<svg width="152" height="152" viewBox="0 0 152 152" xmlns="http://www.w3.org/2000/svg">
    <g fill="none" fill-rule="evenodd">
        <path d="M122.427 32.4c7.938 0 14.373 6.435 14.373 14.373v54.456c0 7.938-6.435 14.374-14.373 14.374l-52.966-.001-29.986 18.14a4.588 4.588 0 0 1-6.702-5.447l4.464-12.693h-9.664c-7.938 0-14.373-6.435-14.373-14.373V46.773c0-7.938 6.435-14.373 14.373-14.373h94.854z" fill="#FFF"/>
        <path d="M122.427 33.756c3.594 0 6.848 1.457 9.204 3.813a12.976 12.976 0 0 1 3.813 9.204v54.456c0 3.595-1.457 6.849-3.813 9.205a12.976 12.976 0 0 1-9.204 3.812H69.083l-30.31 18.336a3.221 3.221 0 0 1-2.445.373 3.231 3.231 0 0 1-2.276-4.21l5.1-14.5-11.579.001a12.976 12.976 0 0 1-9.204-3.812 12.976 12.976 0 0 1-3.813-9.205V46.773c0-3.594 1.457-6.848 3.813-9.204a12.976 12.976 0 0 1 9.204-3.813z" stroke="#073B4C" stroke-width="2.713"/>
        <g fill-rule="nonzero">
            <path d="M106.868 50.044a1.168 1.168 0 0 1 1.728.931l.004.115-.006.1-.014.096-9.666 51.559c-.083.441-.41.793-.836.912l-.1.024-.13.016a1.169 1.169 0 0 1-1.018-.464l-.062-.09L86.505 86.56l-7.556 5.783a1.168 1.168 0 0 1-1.398.016 1.173 1.173 0 0 1-.446-1.238l.03-.098 3.155-8.985-19.011-4.623a1.172 1.172 0 0 1-.375-2.112l.088-.053 45.876-25.206zm-1.76 7.064-16.94 27.688 9.005 14.638 7.936-42.326zm-6.587 6.283-8.86 10.45a1.178 1.178 0 0 1-.14.14l-2.842 3.37-.06.078-3.808 4.493-2.169 6.176 5.193-3.974L98.521 63.39zm3.917-8.24-37.676 20.7 16.687 4.057 2.886-3.404 3.832-4.547.019.005 14.252-16.81z" fill="#073B4C"/>
            <path d="m98.521 63.391-8.86 10.45a1.178 1.178 0 0 1-.14.14l-2.842 3.37-.06.078-3.808 4.493-2.169 6.176 5.193-3.974L98.521 63.39z" fill="#FFF"/>
            <path fill="#E9F4FC" d="M105.109 57.108 88.167 84.796l9.006 14.638zM102.438 55.151l-37.676 20.7 16.687 4.057 2.886-3.404 3.832-4.547.019.005z"/>
        </g>
        <path d="M56.343 45c-7.274 0-13.17 5.876-13.17 13.123 0 7.248 5.896 13.124 13.17 13.124 7.273 0 13.171-5.877 13.171-13.124 0-7.247-5.898-13.123-13.17-13.123z" fill="#073B4C"/>
        <path d="M56.343 46.968c6.182 0 11.195 4.995 11.195 11.155 0 6.16-5.013 11.155-11.195 11.155-6.183 0-11.195-4.994-11.195-11.155 0-6.16 5.012-11.155 11.195-11.155z" fill="#FFD166"/>
        <path d="M56.548 65.997c-.48 0-.871-.428-.871-.954v-1.298h-2.02c-.48 0-.871-.429-.871-.955s.39-.954.87-.954h3.637c.694 0 1.259-.619 1.259-1.38 0-.76-.565-1.378-1.259-1.378h-1.9c-1.655 0-3.001-1.475-3.001-3.288 0-1.813 1.346-3.288 3-3.288h.285v-1.298c0-.526.39-.955.87-.955.481 0 .872.429.872.955v1.298h1.61c.481 0 .872.428.872.955 0 .526-.39.954-.871.954h-3.637c-.694 0-1.26.618-1.26 1.38 0 .76.566 1.379 1.26 1.379h1.9c1.654 0 3 1.474 3.001 3.287 0 1.673-1.143 3.077-2.66 3.267l-.215.026v1.293c0 .526-.39.954-.871.954" fill="#073B4C"/>
        <path d="M33.233 84.352c1.45-.962 2.835-1.742 4.153-2.34a.917.917 0 0 0 .458-1.216.923.923 0 0 0-1.222-.456c-1.412.64-2.882 1.468-4.411 2.483a.917.917 0 0 0-.256 1.274.924.924 0 0 0 1.278.255zm8.598-3.701c1.62-.227 3.104-.096 4.461.387a.923.923 0 0 0 1.178-.557.918.918 0 0 0-.558-1.174c-1.646-.585-3.43-.743-5.337-.476a.92.92 0 1 0 .256 1.82zm8.171 2.88c.963 1.011 1.85 2.283 2.66 3.818a.924.924 0 0 0 1.245.386.917.917 0 0 0 .387-1.24c-.884-1.678-1.868-3.088-2.954-4.229a.924.924 0 0 0-1.304-.034.916.916 0 0 0-.034 1.3zm4.9 8.318c.896 1.572 1.871 2.967 2.912 4.17a.924.924 0 0 0 1.3.096.916.916 0 0 0 .097-1.296c-.96-1.11-1.867-2.406-2.704-3.877a.924.924 0 0 0-1.257-.346.917.917 0 0 0-.347 1.253zm6.829 7.594c1.65 1.027 3.363 1.618 5.064 1.747.508.038.95-.34.99-.846a.92.92 0 0 0-.85-.986c-1.393-.106-2.822-.598-4.227-1.473a.924.924 0 0 0-1.27.292.917.917 0 0 0 .293 1.266zm10.38.52c1.455-.842 2.75-2.09 3.83-3.695a.917.917 0 0 0-.252-1.275.924.924 0 0 0-1.28.25c-.93 1.382-2.021 2.435-3.225 3.132a.917.917 0 0 0-.333 1.257.924.924 0 0 0 1.26.332z" fill="#073B4C" fill-rule="nonzero"/>
        <g transform="translate(100.8 100.8)">
            <circle fill="#7ADEFF" cx="25.2" cy="25.2" r="24"/>
            <path d="M25.2 0C11.282 0 0 11.282 0 25.2s11.282 25.2 25.2 25.2 25.2-11.282 25.2-25.2S39.118 0 25.2 0zm0 2.4C37.792 2.4 48 12.608 48 25.2S37.792 48 25.2 48 2.4 37.792 2.4 25.2 12.608 2.4 25.2 2.4z" fill="#073B4C" fill-rule="nonzero"/>
            <path d="M35.486 12c.394 0 .714.318.714.71 0 .391-.32.71-.714.71H32.77v4.807c0 1.761-.88 3.395-2.353 4.37l-3.93 2.603 3.93 2.603a5.229 5.229 0 0 1 2.353 4.37v4.808h2.715c.394 0 .714.318.714.71 0 .39-.32.709-.714.709H14.914a.713.713 0 0 1-.714-.71c0-.391.32-.71.714-.71h2.715v-4.807c0-1.761.88-3.394 2.353-4.37l3.93-2.603-3.93-2.603a5.229 5.229 0 0 1-2.353-4.37v-4.808h-2.715a.713.713 0 0 1-.714-.71c0-.39.32-.709.714-.709zM25.2 26.053l-4.426 2.932a3.815 3.815 0 0 0-1.717 3.188v4.808h12.286v-4.808a3.816 3.816 0 0 0-1.718-3.189L25.2 26.053zm-1.077 4.78a1.661 1.661 0 0 1 2.154 0c.038.033 3.013 2.528 3.804 3.368l.026.028c.526.562.123 1.475-.65 1.475h-8.514c-.773 0-1.176-.913-.65-1.475l.026-.028c.79-.84 3.766-3.335 3.804-3.367zm7.22-17.414H19.057v4.808c0 1.285.642 2.477 1.718 3.189l4.425 2.931 4.426-2.932a3.815 3.815 0 0 0 1.717-3.188v-4.808z" fill="#073B4C"/>
        </g>
        <path d="M9.3 13.8a3.3 3.3 0 1 1 0 6.6 3.3 3.3 0 0 1 0-6.6zm0 1.586a1.714 1.714 0 1 0 0 3.428 1.714 1.714 0 0 0 0-3.428zM125.7 6.6a3.3 3.3 0 1 1 0 6.6 3.3 3.3 0 0 1 0-6.6zm0 1.2a2.1 2.1 0 1 0 0 4.2 2.1 2.1 0 0 0 0-4.2z" fill="#073B4C" fill-rule="nonzero"/>
        <path d="m138.797 14.131-1.623 1.624-.058.063c-.316.373-.311.914.02 1.246.351.35.938.335 1.31-.037l1.624-1.623.058-.065c.314-.372.31-.914-.021-1.245-.352-.351-.938-.335-1.31.037zm-.352 4.242-.064-.059c-.371-.313-.912-.31-1.244.023-.352.351-.335.937.036 1.308l1.624 1.625.064.058c.372.314.913.31 1.245-.022.352-.351.335-.938-.036-1.309l-1.625-1.624zm-4.242-4.243-.064-.058c-.372-.314-.913-.31-1.245.022-.352.351-.335.938.036 1.309l1.625 1.625.064.059c.371.312.913.31 1.245-.023.352-.351.335-.937-.036-1.309l-1.625-1.625zm.352 4.244-1.624 1.623-.059.064c-.314.372-.31.914.022 1.246.35.35.937.335 1.31-.037l1.623-1.624.058-.063c.314-.374.31-.915-.02-1.246-.352-.352-.938-.335-1.31.037zM13.336 4.202v1.452l.002.055c.027.306.27.547.565.547.313 0 .567-.27.567-.602V4.202l-.002-.055c-.026-.307-.27-.547-.565-.547-.313 0-.567.269-.567.602zm1.734 2.054-.055.002a.582.582 0 0 0-.545.567c0 .315.269.57.6.57h1.449l.054-.003a.582.582 0 0 0 .545-.567c0-.314-.269-.57-.6-.57H15.07zm-3.782 0-.054.002a.582.582 0 0 0-.546.567c0 .315.27.57.6.57h1.448l.055-.003a.582.582 0 0 0 .545-.567c0-.314-.269-.57-.6-.57h-1.448zm2.048 1.74V9.45l.002.055c.027.307.27.547.565.547.313 0 .567-.27.567-.602V7.996l-.002-.055c-.026-.306-.27-.547-.565-.547-.313 0-.567.27-.567.602z" fill="#073B4C"/>
        <circle fill="#073B4C" cx="67.2" cy="128.4" r="1.8"/>
        <path d="M79.447 134.807v2.431l.004.092c.045.514.452.916.949.916.526 0 .953-.45.953-1.008v-2.43l-.004-.092c-.044-.514-.452-.916-.949-.916-.525 0-.953.45-.953 1.007zm2.913 3.44-.092.003c-.513.045-.915.452-.915.949 0 .527.45.953 1.007.953h2.434l.09-.003c.513-.044.916-.452.916-.95 0-.526-.451-.953-1.006-.953H82.36zm-6.353 0-.09.003c-.514.045-.917.452-.917.949 0 .527.452.953 1.007.953h2.433l.092-.003c.513-.044.915-.452.915-.95 0-.526-.45-.953-1.007-.953h-2.433zm3.44 2.913v2.432l.004.092c.045.513.452.916.949.916.526 0 .953-.452.953-1.008v-2.432l-.004-.092c-.044-.514-.452-.916-.949-.916-.525 0-.953.452-.953 1.008z" fill="#073B4C"/>
    </g>
</svg>
