<svg width="19" height="19" viewBox="0 0 19 19" xmlns="http://www.w3.org/2000/svg">
    <path d="M15.971 6.384c.35.03.62.32.638.67l-.009.196-.299 3.659-.313 3.57a123.91 123.91 0 0 1-.177 1.788c-.178 1.649-1.249 2.669-2.863 2.699-2.514.046-4.932.046-7.28-.005-1.567-.033-2.621-1.064-2.796-2.688l-.121-1.196-.211-2.321-.217-2.547-.247-3.058a.707.707 0 0 1 .637-.767.698.698 0 0 1 .734.557l.029.28.232 2.867.254 2.97c.113 1.287.212 2.327.291 3.059.1.925.587 1.401 1.445 1.42 2.329.05 4.728.05 7.225.004.91-.017 1.405-.489 1.507-1.432l.12-1.19c.035-.366.073-.771.113-1.211l.254-2.922.306-3.749a.703.703 0 0 1 .654-.654l.094.001zM1.486 4.74a.704.704 0 0 1-.694-.713c0-.36.261-.659.6-.706l.094-.006h3.027c.36 0 .675-.238.788-.58l.027-.105.236-1.2C5.77.636 6.444.07 7.232.006L7.38 0h3.921c.802 0 1.51.519 1.782 1.32l.046.154.225 1.155c.07.362.36.633.708.679l.107.007h3.027c.384 0 .695.319.695.712 0 .36-.262.659-.6.706l-.095.007H1.487zm9.816-3.315H7.381a.499.499 0 0 0-.44.264l-.025.065-.225 1.155c-.028.141-.067.277-.118.406h5.537a2.316 2.316 0 0 1-.082-.249l-.036-.157-.215-1.11a.495.495 0 0 0-.393-.367l-.082-.007z" fill="#48464D" fill-rule="evenodd"/>
</svg>
