<svg width="16" height="16" viewBox="0 0 16 16" xmlns="http://www.w3.org/2000/svg">
    <path d="M10.57 0c.272 0 .498.21.533.482l.005.076v.631c2.14.151 3.478 1.533 3.555 3.774l.004.226v6.79c0 2.44-1.43 3.929-3.745 4.017l-.22.004H4.63C2.264 16 .76 14.561.67 12.152l-.003-.229V5.19c0-2.373 1.358-3.843 3.564-4V.56c0-.31.242-.559.54-.559.272 0 .497.21.533.482l.005.076-.001.617h4.723V.558c0-.308.241-.558.539-.558zm3.02 6.626H1.743v5.297c0 1.854.962 2.885 2.692 2.957l.195.004h6.073c1.793 0 2.812-.946 2.883-2.706l.004-.198V6.626zm-2.728 4.683c.298 0 .539.25.539.558a.552.552 0 0 1-.465.553l-.074.005a.55.55 0 0 1-.545-.558c0-.283.203-.516.466-.553l.08-.005zm-3.185 0c.297 0 .538.25.538.558a.552.552 0 0 1-.465.553l-.073.005a.55.55 0 0 1-.546-.558c0-.283.203-.516.466-.553l.08-.005zm-3.193 0c.297 0 .539.25.539.558a.552.552 0 0 1-.466.553l-.08.005a.549.549 0 0 1-.538-.558c0-.283.203-.516.465-.553l.08-.005zm6.378-2.892c.298 0 .539.25.539.558a.552.552 0 0 1-.465.553l-.074.005a.55.55 0 0 1-.545-.558c0-.283.203-.516.466-.553l.08-.005zm-3.185 0c.297 0 .538.25.538.558a.552.552 0 0 1-.465.553l-.073.005a.55.55 0 0 1-.546-.558c0-.283.203-.516.466-.553l.08-.005zm-3.193 0c.297 0 .539.25.539.558a.552.552 0 0 1-.466.553l-.08.005a.549.549 0 0 1-.538-.558c0-.283.203-.516.465-.553l.08-.005zm5.547-6.126H5.308v.716a.549.549 0 0 1-.538.558.545.545 0 0 1-.533-.482l-.005-.076-.001-.699C2.688 2.441 1.813 3.37 1.748 4.99l-.004.199-.001.321H13.59v-.323c.005-1.745-.873-2.741-2.482-2.879v.7a.549.549 0 0 1-.538.557.545.545 0 0 1-.534-.482l-.005-.076v-.716z" fill="#073B4C" fill-rule="evenodd"/>
</svg>
