<svg width="24" height="24" viewBox="0 0 24 24" xmlns="http://www.w3.org/2000/svg">
    <defs>
        <clipPath id="pgom3xr5ba">
            <path d="M360 0v640H0V0h360z"/>
        </clipPath>
        <clipPath id="558q28dqxb">
            <path d="M16 0c.506 0 .925.294.99.677l.01.106V2.08c3.123.43 5.01 2.557 5 5.875V9l-.001.018.001 9.016c0 3.65-2.284 5.866-5.975 5.963L15.77 24H6.23C2.394 24 0 21.73 0 17.95V7.956c0-3.313 1.89-5.44 5-5.874v-1.3C5 .35 5.448 0 6 0c.506 0 .925.294.99.677L7 .783V2h8V.783C15 .35 15.448 0 16 0zm4.307 10H1.692v7.95c0 2.771 1.533 4.304 4.29 4.39l.247.003h9.542c2.922 0 4.537-1.508 4.537-4.31L20.307 10zM8.612 11.428l.086.075L11 13.805l2.3-2.3a.837.837 0 0 1 1.258 1.1l-.075.085-2.3 2.299 2.303 2.303a.837.837 0 0 1-1.098 1.259l-.086-.075L11 16.173l-2.3 2.3a.837.837 0 0 1-1.258-1.098l.075-.086 2.3-2.3-2.303-2.302a.837.837 0 0 1 1.098-1.259zM15 3.656H7v.561C7 4.65 6.552 5 6 5c-.506 0-.925-.294-.99-.677L5 4.217v-.459c-2.14.38-3.308 1.824-3.308 4.198V8h18.615v-.047c.008-2.379-1.156-3.82-3.306-4.197L17 4.217C17 4.65 16.552 5 16 5c-.506 0-.925-.294-.99-.677L15 4.217v-.561z"/>
        </clipPath>
    </defs>
    <g clip-path="url(#pgom3xr5ba)" transform="translate(-25 -104)">
        <g clip-path="url(#558q28dqxb)" transform="translate(26 104)">
            <path fill="#063B4C" d="M0 0h22v24H0V0z"/>
        </g>
    </g>
</svg>
