<svg width="24" height="25" viewBox="0 0 24 25" xmlns="http://www.w3.org/2000/svg">
    <path d="M9.182 24.954c-2.78 0-5.049-2.248-5.176-5.071L4 19.633V6.275C4 3.422 6.19 1.091 8.938.96l.244-.006h5.696c2.78 0 5.05 2.25 5.178 5.072l.005.25v7.198c0 .497-.392.9-.876.9a.885.885 0 0 1-.869-.778l-.008-.122V6.276c0-1.875-1.428-3.408-3.228-3.516l-.202-.006H9.182c-1.826 0-3.319 1.467-3.423 3.316l-.006.206v13.356c0 1.876 1.428 3.41 3.227 3.516l.202.006h3.974c.466 0 .844.403.844.9 0 .456-.317.833-.73.892l-.114.008H9.182zm11.138-8.82.096.089 3.332 3.578.059.071.029.04c.068.1.118.215.144.34 0 .01.003.018.004.027a.88.88 0 0 1 .013.096l.001.03a.687.687 0 0 1 .002.049l-.002.05v.013l-.001-.015-.004.072a.958.958 0 0 1-.157.423l-.014.02a.91.91 0 0 1-.061.076l-.013.013-3.332 3.58a.81.81 0 0 1-1.207-.003.976.976 0 0 1-.08-1.199l.083-.103 1.865-2.007h-5.223c-.472 0-.854-.412-.854-.92 0-.466.321-.851.738-.912l.116-.009h5.226l-1.868-2.005a.976.976 0 0 1-.085-1.199l.082-.103a.808.808 0 0 1 1.111-.092zm-8.134-11.38c.438 0 .794.392.794.873v1.188h1.468c.437 0 .793.391.793.872s-.356.873-.793.873h-3.314c-.632 0-1.147.565-1.147 1.26 0 .696.515 1.262 1.147 1.262h1.732c1.507 0 2.733 1.349 2.734 3.006 0 1.53-1.042 2.814-2.424 2.987l-.196.025v1.182c0 .481-.356.872-.794.872-.437 0-.793-.39-.793-.872v-1.187H9.552c-.438 0-.793-.392-.793-.873s.355-.872.793-.872h3.314c.632 0 1.146-.566 1.146-1.262 0-.695-.514-1.26-1.146-1.26h-1.732c-1.508 0-2.734-1.35-2.734-3.007 0-1.658 1.226-3.006 2.734-3.006h.259V5.627c0-.481.356-.873.793-.873z" fill="#052C50" fill-rule="evenodd"/>
</svg>
