<svg width="59" height="16" viewBox="0 0 59 16" xmlns="http://www.w3.org/2000/svg" xmlns:xlink="http://www.w3.org/1999/xlink">
    <defs>
        <path d="M0 7.1v.415c0 4.147 4.233 7.507 10.816 7.507 6.624 0 10.818-3.358 10.818-7.506V7.1h-.001c0-3.909-4.843-7.1-10.816-7.1C4.844 0 0 3.187 0 7.1z" id="8nvveod2ca"/>
        <path d="M0 6.615c0 3.654 4.642 6.615 10.369 6.615 5.727 0 10.37-2.962 10.37-6.615h.001C20.74 2.962 16.098 0 10.37 0 4.642 0 0 2.961 0 6.615z" id="7irc2zk0uc"/>
        <path d="m.963 1.451-.9.993.001.002c-.005.011-.108.12-.042.207a1.27 1.27 0 0 0 1.176.218 3.388 3.388 0 0 0 1.068-.691 4.248 4.248 0 0 1 1.219-.8c.286-.107.598-.116.889-.024.297.113.571.277.811.484.707.544 3.549 3.08 4.04 3.519a24.09 24.09 0 0 1 4.542-1.495A5.775 5.775 0 0 0 11.61.4a6.5 6.5 0 0 1-5.595.093A5.32 5.32 0 0 0 3.9 0 3.759 3.759 0 0 0 .963 1.451z" id="zwhqsyjo0e"/>
        <path d="M0 3.5c.189.049.492.139.62.167 2.97.653 3.895 1.326 4.063 1.466a.992.992 0 0 1 .736-.326.994.994 0 0 1 .8.416 1.13 1.13 0 0 1 .708-.246c.145.002.288.026.425.074a.97.97 0 0 1 .6.534.998.998 0 0 1 .413-.087c.17.002.339.039.494.108.444.204.687.688.583 1.165a1.173 1.173 0 0 1 1.295 1.159c0 .193-.048.382-.141.55.308.186.663.28 1.022.271a.655.655 0 0 0 .479-.206c.029-.041.061-.09.032-.124l-.838-.921s-.138-.129-.092-.179c.046-.05.133.022.193.072.427.352.947.884.947.884s.043.073.236.107a.88.88 0 0 0 .662-.153 1.06 1.06 0 0 0 .145-.147.055.055 0 0 1-.009.007.437.437 0 0 0-.024-.546l-.978-1.086s-.14-.128-.092-.179c.048-.051.133.023.194.073.31.256.747.69 1.167 1.1a.8.8 0 0 0 .939-.032.666.666 0 0 0 .347-.606.685.685 0 0 0-.207-.4l-1.337-1.329s-.141-.119-.091-.179c.05-.06.133.022.192.072.426.352 1.578 1.4 1.578 1.4.278.178.636.17.907-.018a.6.6 0 0 0 .3-.474.7.7 0 0 0-.225-.539l.001-.007c-.034-.03-3.379-2.924-4.137-3.488a1.863 1.863 0 0 0-.939-.441 1.29 1.29 0 0 0-.446.042 4.05 4.05 0 0 0-1.223.721 3.505 3.505 0 0 1-1.194.73 1.955 1.955 0 0 1-1.316-.2.586.586 0 0 1-.218-.237.401.401 0 0 1 .112-.432l.923-.987c.107-.106.215-.212.326-.316a6.042 6.042 0 0 0-.841.187 3.733 3.733 0 0 1-.982.181 9.36 9.36 0 0 1-1-.155A15.094 15.094 0 0 1 2.443 0 5.828 5.828 0 0 0 0 3.5z" id="7derfxvmng"/>
        <path d="M0 .717a.723.723 0 0 0 1.22.518s.006.01 0 .024a.942.942 0 0 0 .592 1.085c.234.09.499.049.695-.107.057-.04.066-.023.058.03a.674.674 0 0 0 .506.723.644.644 0 0 0 .753-.139c.064-.058.082-.049.085.041a.9.9 0 0 0 .9.862.9.9 0 0 0 .907-.893v-.007a.908.908 0 0 0-.906-.9l.005-.006a2.879 2.879 0 0 0-.458.1c-.016-.011.013-.093.032-.14.019-.047.289-.856-.368-1.136a.776.776 0 0 0-.916.136c-.028.029-.04.026-.043-.01a.724.724 0 0 0-.51-.672 1 1 0 0 0-1.121.4A.72.72 0 0 0 0 .717z" id="1xprmgz6wi"/>
        <path d="M8.264.883a4.962 4.962 0 0 0-1.249.226c-.284.094-.58.15-.88.167-.113 0-.316-.01-.334-.011a17.263 17.263 0 0 1-3.164-.87 9.084 9.084 0 0 0-.374.279c1.103.457 2.253.788 3.43.984.141.009.291.025.441.025.337-.016.671-.077.993-.183.191-.053.4-.111.624-.153l-.178.175-.915.983a.455.455 0 0 0-.125.5c.054.11.137.202.241.265.297.166.632.251.972.245.13.001.261-.012.388-.04a3.5 3.5 0 0 0 1.213-.74 4.034 4.034 0 0 1 1.192-.708c.109-.028.22-.044.332-.045a.617.617 0 0 1 .086 0c.334.055.646.203.9.427.751.56 4.076 3.448 4.109 3.476a.63.63 0 0 1 .2.485.53.53 0 0 1-.266.421.812.812 0 0 1-.437.135.719.719 0 0 1-.385-.111c-.012-.01-1.151-1.047-1.57-1.4a.357.357 0 0 0-.2-.1.11.11 0 0 0-.087.041c-.066.081.008.192.095.266l1.331 1.328a.627.627 0 0 1 .184.358.602.602 0 0 1-.316.548.86.86 0 0 1-.472.155.694.694 0 0 1-.38-.114l-.191-.187c-.349-.341-.709-.693-.973-.911a.354.354 0 0 0-.2-.1.115.115 0 0 0-.084.035c-.03.033-.051.093.024.192.02.026.043.051.067.074l.971 1.083a.368.368 0 0 1 .022.462l-.034.043c-.028.03-.058.059-.09.086a.783.783 0 0 1-.474.149.638.638 0 0 1-.131-.011.33.33 0 0 1-.191-.08l-.012-.012a14.94 14.94 0 0 0-.948-.886.34.34 0 0 0-.189-.1.117.117 0 0 0-.088.039c-.08.087.04.217.091.265l.828.907A.186.186 0 0 1 12.03 9c-.03.041-.13.14-.43.178a.802.802 0 0 1-.11.007 1.915 1.915 0 0 1-.811-.239c.077-.163.118-.34.118-.521a1.233 1.233 0 0 0-1.23-1.224h-.045a1.087 1.087 0 0 0-.627-1.152 1.317 1.317 0 0 0-.517-.113 1.046 1.046 0 0 0-.379.068 1.034 1.034 0 0 0-.6-.51 1.368 1.368 0 0 0-.443-.078 1.172 1.172 0 0 0-.691.22 1.05 1.05 0 0 0-.813-.39c-.276 0-.541.107-.738.3A11.11 11.11 0 0 0 .696 4.089c-.133-.03-.437-.116-.623-.17-.032.149-.056.3-.073.452 0 0 .5.12.6.142a10.45 10.45 0 0 1 3.88 1.379c-.053.127-.08.263-.081.4a1.046 1.046 0 0 0 1.048 1.041c.064 0 .129-.005.192-.017.085.42.385.764.79.906.119.046.245.07.373.072.081 0 .161-.011.239-.03.123.282.358.501.65.6.13.054.271.083.412.084a.923.923 0 0 0 .32-.057 1.238 1.238 0 0 0 2.027.389c.319.184.678.29 1.046.31.052-.001.105-.003.158-.01a.963.963 0 0 0 .709-.345.458.458 0 0 0 .044-.07c.109.033.221.051.335.052.245-.005.482-.089.676-.24a.926.926 0 0 0 .4-.576c.074.016.151.023.226.023.249-.003.49-.079.695-.219a.994.994 0 0 0 .5-.886 1.1 1.1 0 0 0 .229.024c.232-.003.458-.072.651-.2a.94.94 0 0 0 .452-.731.979.979 0 0 0-.144-.59 27.12 27.12 0 0 1 4.313-1.34 4.153 4.153 0 0 0-.06-.444c-1.558.341-3.08.831-4.544 1.463v-.002c-1.024-.887-3.391-2.93-4.032-3.408a2.846 2.846 0 0 0-.835-.483 1.392 1.392 0 0 0-.41-.063 1.74 1.74 0 0 0-.521.087 4.273 4.273 0 0 0-1.226.771l-.021.016c-.306.284-.66.508-1.047.662a1.81 1.81 0 0 1-.388.043 1.003 1.003 0 0 1-.728-.233c-.018-.023-.007-.06.036-.114l.006-.007.9-.964a3.757 3.757 0 0 1 2.906-1.4h.077A5.472 5.472 0 0 1 12.87.88a6.291 6.291 0 0 0 2.749.655 7.226 7.226 0 0 0 3.018-.718 6.993 6.993 0 0 0-.365-.287 6.7 6.7 0 0 1-2.65.6A5.888 5.888 0 0 1 13.05.516a5.83 5.83 0 0 0-2.2-.515h-.086L10.711 0c-.893 0-1.759.312-2.447.883zM4.79 6.288a.656.656 0 0 1 .66-.653c.329 0 .608.245.65.571l.023.176.1-.149a.965.965 0 0 1 .767-.417.993.993 0 0 1 .286.045c.272.083.46.332.467.616.007.085.068.089.08.089a.108.108 0 0 0 .076-.04.666.666 0 0 1 .485-.2.95.95 0 0 1 .363.081c.62.264.339 1.046.336 1.055-.053.13-.056.187-.005.22l.025.012h.018a.408.408 0 0 0 .12-.031c.106-.041.218-.065.331-.072.464.003.84.377.846.84a.844.844 0 0 1-.85.838h-.003a.836.836 0 0 1-.844-.8c0-.038-.005-.141-.092-.141a.162.162 0 0 0-.1.053.601.601 0 0 1-.415.186.756.756 0 0 1-.273-.059c-.482-.194-.489-.522-.469-.655a.122.122 0 0 0-.017-.1l-.03-.026h-.03a.145.145 0 0 0-.084.034.71.71 0 0 1-.411.14.633.633 0 0 1-.228-.044.877.877 0 0 1-.553-1.018.087.087 0 0 0-.028-.083l-.045-.037-.042.04a.655.655 0 0 1-.455.183h-.003a.657.657 0 0 1-.656-.654z" id="nl9a9pea7k"/>
        <path d="M2.325.006A2.069 2.069 0 0 0 .577.75a2.795 2.795 0 0 0-.576 1.755 2.774 2.774 0 0 0 .576 1.768 2.087 2.087 0 0 0 1.748.734 2.086 2.086 0 0 0 1.749-.734 2.78 2.78 0 0 0 .576-1.768 2.789 2.789 0 0 0-.576-1.76L4.073.75A2.068 2.068 0 0 0 2.48 0c-.051 0-.103.002-.155.006zm.797 1.418c.205.323.304.704.28 1.086.024.384-.075.764-.28 1.089a.93.93 0 0 1-.8.383.935.935 0 0 1-.8-.383 1.811 1.811 0 0 1-.281-1.09 1.804 1.804 0 0 1 .281-1.085.937.937 0 0 1 .8-.381.93.93 0 0 1 .8.38z" id="z2mmvzizam"/>
        <path d="M.494.611a1.726 1.726 0 0 0-.343.985h1.174a.846.846 0 0 1 .173-.419.782.782 0 0 1 .618-.209c.203-.012.405.025.591.107a.4.4 0 0 1 .2.387.358.358 0 0 1-.262.34c-.157.053-.32.088-.486.1l-.416.05c-.373.03-.737.129-1.074.294a1.3 1.3 0 0 0-.666 1.228c-.022.379.131.747.414 1 .3.234.67.361 1.05.355 2.653.116 2.623-1.374 2.648-1.684V1.429a1.138 1.138 0 0 0-.6-1.124l.004.006a3.013 3.013 0 0 0-1.362-.3 2.017 2.017 0 0 0-1.663.6zm.9 3.216a.525.525 0 0 1-.175-.442.545.545 0 0 1 .287-.507c.176-.084.365-.139.56-.163l.276-.05c.111-.018.22-.046.326-.083.082-.03.161-.069.235-.115v.444a.95.95 0 0 1-.348.826 1.284 1.284 0 0 1-.734.227h-.016a.677.677 0 0 1-.41-.137z" id="pp0u55g38o"/>
        <path d="M.615.656a2.573 2.573 0 0 0-.61 1.827 2.533 2.533 0 0 0 .55 1.694 2.13 2.13 0 0 0 1.722.653 2.08 2.08 0 0 0 1.766-.783 1.93 1.93 0 0 0 .418-1.03H3.168a1.074 1.074 0 0 1-.227.586.779.779 0 0 1-.632.226.846.846 0 0 1-.855-.57 2.162 2.162 0 0 1-.125-.805c-.01-.287.033-.572.125-.844a.872.872 0 0 1 .877-.6v.002c.253-.02.5.083.664.277.098.136.16.295.183.461h1.3A1.758 1.758 0 0 0 3.79.389 2.656 2.656 0 0 0 2.296.003 2.185 2.185 0 0 0 .615.656z" id="bk8qkwoqlq"/>
        <path d="M.015 2.008a2.249 2.249 0 0 0-.01.402v2.432H1.22V2.56a1.905 1.905 0 0 1 .139-.831c.203-.338.586-.526.978-.479h.144c.059 0 .126.008.2.017V.018l-.1-.007h-.057v.004a2.266 2.266 0 0 0-2.51 1.993z" id="br4padouws"/>
        <path d="M.656.633A2.426 2.426 0 0 0 .01 2.444a2.176 2.176 0 0 0 .716 1.823c.47.371 1.053.569 1.651.56a2.311 2.311 0 0 0 1.763-.664c.2-.19.347-.428.428-.691l-1.309-.001a.88.88 0 0 1-.169.181 1.081 1.081 0 0 1-.689.182 1.197 1.197 0 0 1-.657-.153 1.071 1.071 0 0 1-.5-.951h3.413a5.76 5.76 0 0 0-.04-.9 2.19 2.19 0 0 0-.374-.941 1.899 1.899 0 0 0-.81-.674 2.75 2.75 0 0 0-1.1-.213A2.297 2.297 0 0 0 .656.633zm.944.607a.988.988 0 0 1 .732-.26c.264-.009.522.078.727.245a.98.98 0 0 1 .326.719h-2.11c.028-.264.143-.511.325-.704z" id="46khn6lqau"/>
        <path d="M4.705.001a1.758 1.758 0 0 0-1.38.648A1.703 1.703 0 0 0 1.952.001a1.91 1.91 0 0 0-1.946 2.04v2.787h1.11V2.014a.815.815 0 0 1 .839-.869.775.775 0 0 1 .8.869v2.814h1.107V2.014c-.001-.024-.002-.046-.001-.07a.82.82 0 0 1 .84-.799.783.783 0 0 1 .814.869v2.814h1.11V2.041A1.857 1.857 0 0 0 4.778 0l-.073.001z" id="1novuc9ukw"/>
        <path d="M3.257.871v1.321a1.475 1.475 0 0 0-.526-.518 1.456 1.456 0 0 0-.741-.187 1.747 1.747 0 0 0-1.445.688 3.07 3.07 0 0 0-.54 1.919c-.026.616.169 1.22.549 1.705a2.3 2.3 0 0 0 1.722.636 1.974 1.974 0 0 0 2.187-1.737c.008-.07.013-.14.013-.211V.004l-.003.002S4.419 0 4.335 0c-.32 0-1.078.082-1.078.871zM1.49 5.043a2.02 2.02 0 0 1-.25-1.07 1.911 1.911 0 0 1 .246-1.008.838.838 0 0 1 .772-.406.903.903 0 0 1 .607.224c.315.341.469.8.425 1.262.015.353-.078.701-.266 1a.88.88 0 0 1-.774.387l-.05.001a.84.84 0 0 1-.71-.39z" id="pcxc9zxy0y"/>
        <path d="M.736.466a1.987 1.987 0 0 0-.73 1.7v4.277h.605a.582.582 0 0 0 .427-.179.584.584 0 0 0 .18-.428v-1.6c.13.238.328.432.57.554.245.111.513.166.782.16a1.67 1.67 0 0 0 1.372-.678 2.91 2.91 0 0 0 .534-1.821A2.653 2.653 0 0 0 3.907.672 2.105 2.105 0 0 0 2.321.006a2.414 2.414 0 0 0-1.585.46zm2.243.969c.198.321.291.695.268 1.071.02.359-.074.715-.268 1.018a.846.846 0 0 1-.73.375.883.883 0 0 1-.766-.375 1.623 1.623 0 0 1-.267-1.018 1.841 1.841 0 0 1 .248-1.071.87.87 0 0 1 .75-.375.885.885 0 0 1 .765.375z" id="sfqq6uyieA"/>
        <path d="M2.15.008a1.966 1.966 0 0 0-1.638.68 2.892 2.892 0 0 0-.509 1.775c-.026.53.106 1.056.38 1.511.217.351.54.625.921.785.342.14.72.171 1.081.089.361-.081.673-.304.867-.618v.3l.007.006c0 .305-.096.602-.277.849a.98.98 0 0 1-.538.344.929.929 0 0 1-.589-.071.912.912 0 0 1-.439-.379H.111A2.033 2.033 0 0 0 2.15 6.798 2.1 2.1 0 0 0 4.473 4.66V2.168a1.954 1.954 0 0 0-.733-1.7A2.301 2.301 0 0 0 2.35 0c-.068 0-.134.003-.2.008zm-.722 1.483a.828.828 0 0 1 .822-.441.789.789 0 0 1 .68.318c.157.214.26.463.3.725.041.272.037.55-.01.821a1.306 1.306 0 0 1-.232.609.986.986 0 0 1-1.055.328c-.477-.089-.715-.54-.715-1.352h-.005a2.264 2.264 0 0 1 .215-1.008z" id="g7tqrn9edC"/>
        <path d="M.495.612a1.734 1.734 0 0 0-.343.985h1.175a.846.846 0 0 1 .173-.419.782.782 0 0 1 .618-.21 1.29 1.29 0 0 1 .591.107.402.402 0 0 1 .2.388.36.36 0 0 1-.262.34c-.157.054-.32.088-.486.1l-.416.05c-.373.031-.737.13-1.074.294a1.293 1.293 0 0 0-.668 1.227c-.02.379.131.747.414 1 .3.235.67.361 1.05.355 2.654.117 2.624-1.374 2.648-1.684V1.429a1.138 1.138 0 0 0-.6-1.123l.005.006a3.013 3.013 0 0 0-1.362-.3 2.022 2.022 0 0 0-1.663.6zm.9 3.216a.525.525 0 0 1-.177-.443.543.543 0 0 1 .287-.507c.177-.084.365-.138.56-.163l.276-.051c.11-.018.22-.046.325-.083.082-.03.161-.068.236-.115l.001.446a.948.948 0 0 1-.348.826 1.29 1.29 0 0 1-.734.226l-.019.001a.684.684 0 0 1-.408-.137z" id="2pgbu81l9E"/>
        <path d="M2.325.006A2.072 2.072 0 0 0 .577.751a2.789 2.789 0 0 0-.576 1.76 2.78 2.78 0 0 0 .576 1.768c.432.51 1.081.783 1.748.733a2.09 2.09 0 0 0 1.75-.733c.389-.506.592-1.13.575-1.768a2.794 2.794 0 0 0-.575-1.76A2.076 2.076 0 0 0 2.478 0c-.051 0-.102.002-.153.006zm.798 1.419c.206.323.303.704.279 1.086.024.383-.073.763-.279 1.088a.929.929 0 0 1-.8.383.936.936 0 0 1-.8-.383 1.795 1.795 0 0 1-.282-1.088 1.796 1.796 0 0 1 .282-1.086.937.937 0 0 1 .8-.381.932.932 0 0 1 .8.381z" id="agbx0ios2G"/>
    </defs>
    <g fill="none" fill-rule="evenodd">
        <g>
            <mask id="i456z400ub" fill="#fff">
                <use xlink:href="#8nvveod2ca"/>
            </mask>
            <path fill="#273673" mask="url(#i456z400ub)" d="M-.179 15.197h21.991V-.179H-.179z"/>
        </g>
        <g transform="translate(.536 .358)">
            <mask id="bujm9p46hd" fill="#fff">
                <use xlink:href="#7irc2zk0uc"/>
            </mask>
            <path fill="#00A3DA" mask="url(#bujm9p46hd)" d="M-.179 13.409h21.1V-.179h-21.1z"/>
        </g>
        <g transform="translate(7.33 2.503)">
            <mask id="neh2o011sf" fill="#fff">
                <use xlink:href="#zwhqsyjo0e"/>
            </mask>
            <path fill="#FFFEFE" mask="url(#neh2o011sf)" d="M-.223 5.542h14.169V-.204H-.223z"/>
        </g>
        <g transform="translate(.536 2.682)">
            <mask id="oin8fnrkih" fill="#fff">
                <use xlink:href="#7derfxvmng"/>
            </mask>
            <path fill="#FFFEFE" mask="url(#oin8fnrkih)" d="M-.179 8.982h16.643V-.179H-.179z"/>
        </g>
        <g transform="translate(5.186 7.868)">
            <mask id="rzh64wmarj" fill="#fff">
                <use xlink:href="#1xprmgz6wi"/>
            </mask>
            <path fill="#FFFEFE" mask="url(#rzh64wmarj)" d="M-.179 3.935H5.9V-.178H-.179z"/>
        </g>
        <g transform="translate(.536 2.144)">
            <mask id="1e22gahe2l" fill="#fff">
                <use xlink:href="#nl9a9pea7k"/>
            </mask>
            <path fill="#273673" mask="url(#1e22gahe2l)" d="M-.179 9.835h21.1V-.178h-21.1z"/>
        </g>
        <g transform="translate(54.351 1.782)">
            <mask id="9eprg6p45n" fill="#fff">
                <use xlink:href="#z2mmvzizam"/>
            </mask>
            <path fill="#273673" mask="url(#9eprg6p45n)" d="M-.178 5.19h5.006V-.172H-.178z"/>
        </g>
        <g transform="translate(45.052 1.777)">
            <mask id="cgjq6unk1p" fill="#fff">
                <use xlink:href="#pp0u55g38o"/>
            </mask>
            <path fill="#273673" mask="url(#cgjq6unk1p)" d="M-.176 5.127H4.3V-.168H-.176z"/>
        </g>
        <g transform="translate(40.222 1.785)">
            <mask id="xq82g0wcer" fill="#fff">
                <use xlink:href="#bk8qkwoqlq"/>
            </mask>
            <path fill="#273673" mask="url(#xq82g0wcer)" d="M-.174 5.009h4.827V-.176H-.174z"/>
        </g>
        <g transform="translate(37.183 1.773)">
            <mask id="jxa5pl2wwt" fill="#fff">
                <use xlink:href="#br4padouws"/>
            </mask>
            <path fill="#273673" mask="url(#jxa5pl2wwt)" d="M-.33 5.021h3.2V-.164h-3.2z"/>
        </g>
        <g transform="translate(31.994 1.789)">
            <mask id="wba0osydsv" fill="#fff">
                <use xlink:href="#46khn6lqau"/>
            </mask>
            <path fill="#273673" mask="url(#wba0osydsv)" d="M-.17 5.005h5.01V-.18H-.17z"/>
        </g>
        <g transform="translate(25.025 1.787)">
            <mask id="m2lqduftmx" fill="#fff">
                <use xlink:href="#1novuc9ukw"/>
            </mask>
            <path fill="#273673" mask="url(#m2lqduftmx)" d="M-.174 5.007h6.973V-.178H-.174z"/>
        </g>
        <g transform="translate(49.52 .358)">
            <mask id="prrfv09s2z" fill="#fff">
                <use xlink:href="#pcxc9zxy0y"/>
            </mask>
            <path fill="#273673" mask="url(#prrfv09s2z)" d="M-.175 6.615h4.852V-.306H-.175z"/>
        </g>
        <g transform="translate(32.712 8.576)">
            <mask id="e9zpjat0uB" fill="#fff">
                <use xlink:href="#sfqq6uyieA"/>
            </mask>
            <path fill="#00A3DA" mask="url(#e9zpjat0uB)" d="M-.173 6.621h4.827V-.173H-.173z"/>
        </g>
        <g transform="translate(42.012 8.576)">
            <mask id="ki6cbgul6D" fill="#fff">
                <use xlink:href="#g7tqrn9edC"/>
            </mask>
            <path fill="#00A3DA" mask="url(#ki6cbgul6D)" d="M-.176 6.977h4.83V-.192h-4.83z"/>
        </g>
        <g transform="translate(37.364 8.57)">
            <mask id="rh4zi4cwhF" fill="#fff">
                <use xlink:href="#2pgbu81l9E"/>
            </mask>
            <path fill="#00A3DA" mask="url(#rh4zi4cwhF)" d="M-.176 5.128H4.3V-.167H-.176z"/>
        </g>
        <g transform="translate(46.841 8.576)">
            <mask id="3d8rjrm0wH" fill="#fff">
                <use xlink:href="#agbx0ios2G"/>
            </mask>
            <path fill="#00A3DA" mask="url(#3d8rjrm0wH)" d="M-.178 5.191h5.006V-.173H-.178z"/>
        </g>
    </g>
</svg>
