<svg width="53" height="13" viewBox="0 0 53 13" xmlns="http://www.w3.org/2000/svg" xmlns:xlink="http://www.w3.org/1999/xlink">
    <defs>
        <path id="v68dbum4la" d="M0 0h2.354v2.353H0z"/>
        <path id="rhmm8gd2lc" d="M.25.25h.5v.5h-.5z"/>
    </defs>
    <g fill="none" fill-rule="evenodd">
        <path d="M1.427 8.33A1.172 1.172 0 0 1 .256 7.214v3.47c0 .648.528 1.171 1.17 1.171.65 0 1.172-.528 1.172-1.172V7.214A1.172 1.172 0 0 1 1.427 8.33" fill="#00C49A"/>
        <g transform="translate(.25 5.977)">
            <mask id="akobrqfxob" fill="#fff">
                <use xlink:href="#v68dbum4la"/>
            </mask>
            <path d="M1.177 0a1.177 1.177 0 1 1 0 2.354 1.177 1.177 0 0 1 0-2.354" fill="#7FE1CC" mask="url(#akobrqfxob)"/>
        </g>
        <path d="M11.517 2.463a1.178 1.178 0 0 1-.99-1.815L6.469 6.312l.908 1.265c.17.203.269.467.269.753 0 .225-.06.434-.17.61l2.864-4.003v5.68a1.173 1.173 0 0 1 2.343 0v-9.27a1.16 1.16 0 0 1-1.166 1.116" fill="#00B6AB"/>
        <path d="M6.474 7.154c.363 0 .687.165.907.423l-.907-1.264L2.384.6A1.182 1.182 0 0 0 .743.33 1.18 1.18 0 0 0 .47 1.969l4.992 6.978c.006.01.017.022.022.033a1.18 1.18 0 0 1 .99-1.826" fill="#00C49A"/>
        <path d="M37.134 1.59C36.051.62 34.577.11 32.874.11h-3.52a1.172 1.172 0 0 1 0 2.342h3.52c1.115 0 2.05.308 2.693.886.682.61 1.028 1.506 1.028 2.655 0 1.15-.346 2.035-1.028 2.64-.649.577-1.578.88-2.694.88H30.53v1.05a1.178 1.178 0 0 1-1.171 1.297h3.514c1.7 0 3.167-.506 4.25-1.468 1.188-1.056 1.82-2.573 1.82-4.399 0-1.825-.627-3.343-1.809-4.404" fill="#0099CE"/>
        <path d="M30.53 10.563V4.817c0-.65-.527-1.171-1.17-1.171-.644 0-1.177.522-1.177 1.17v5.868a1.178 1.178 0 0 1 2.348-.121" fill="#00A7BD"/>
        <g transform="translate(0 11.237)">
            <mask id="9soa9wsyxd" fill="#fff">
                <use xlink:href="#rhmm8gd2lc"/>
            </mask>
        </g>
        <path d="M45.074 10.81c0-.649.528-1.177 1.177-1.177a3.644 3.644 0 0 1-3.64-3.64c0-.968.38-1.886 1.066-2.584a1.173 1.173 0 1 0-1.67-1.65 5.997 5.997 0 0 0 4.113 10.222h.004a1.178 1.178 0 0 1-1.05-1.17" fill="#0099CE"/>
        <path d="M46.251 0a1.177 1.177 0 1 1 0 2.354 1.177 1.177 0 0 1 0-2.354" fill="#7FC4EF"/>
        <path d="M6.474 7.154a1.177 1.177 0 1 1 0 2.354 1.177 1.177 0 0 1 0-2.354" fill="#7FE1CC"/>
        <path d="M11.517 9.507a1.177 1.177 0 1 1 0 2.354 1.177 1.177 0 0 1 0-2.354M11.517.11a1.177 1.177 0 1 1 0 2.354 1.177 1.177 0 0 1 0-2.354" fill="#7FDAD5"/>
        <path d="M29.36 9.507a1.177 1.177 0 1 1 0 2.354 1.177 1.177 0 0 1 0-2.354" fill="#7FD3DE"/>
        <path d="M29.36.116a1.17 1.17 0 1 1 0 2.34 1.17 1.17 0 0 1 0-2.34" fill="#7FCCE6"/>
        <path d="M46.367.005a1.178 1.178 0 0 1 1.067 1.171c0 .628-.49 1.138-1.105 1.172a3.65 3.65 0 0 1 3.574 3.64c0 .973-.38 1.891-1.067 2.578a3.61 3.61 0 0 1-2.573 1.067 1.178 1.178 0 0 1 .13 2.349 5.96 5.96 0 0 0 4.102-1.75 5.954 5.954 0 0 0 1.755-4.238C52.238 2.728 49.616.066 46.366.005" fill="#008AE0"/>
        <path d="M46.251 9.633a1.177 1.177 0 1 1 0 2.355 1.177 1.177 0 0 1 0-2.354" fill="#7FCCE6"/>
        <path d="M19.374 10.81c0-.649.528-1.177 1.177-1.177a3.644 3.644 0 0 1-3.64-3.64c0-.968.379-1.886 1.066-2.584a1.173 1.173 0 1 0-1.671-1.65 5.997 5.997 0 0 0 4.113 10.222h.005a1.183 1.183 0 0 1-1.05-1.17" fill="#00B6AB"/>
        <path d="M20.55 0a1.177 1.177 0 1 1 0 2.354 1.177 1.177 0 0 1 0-2.354" fill="#7FD3DE"/>
        <path d="M20.666.005a1.178 1.178 0 0 1 1.067 1.171c0 .628-.49 1.138-1.105 1.172a3.65 3.65 0 0 1 3.574 3.64c0 .973-.38 1.891-1.067 2.578a3.61 3.61 0 0 1-2.573 1.067 1.178 1.178 0 0 1 .131 2.349 5.96 5.96 0 0 0 4.102-1.75 5.954 5.954 0 0 0 1.754-4.238C26.54 2.728 23.916.066 20.666.005" fill="#00A7BD"/>
        <path d="M20.55 9.633a1.177 1.177 0 1 1 0 2.355 1.177 1.177 0 0 1 0-2.354" fill="#7FDAD5"/>
    </g>
</svg>
