<svg width="51" height="18" viewBox="0 0 51 18" xmlns="http://www.w3.org/2000/svg" xmlns:xlink="http://www.w3.org/1999/xlink">
    <defs>
        <path id="1x6aus6i0a" d="M0 0h18v18H0z"/>
    </defs>
    <g fill="none" fill-rule="evenodd">
        <g>
            <mask id="52r1fouteb" fill="#fff">
                <use xlink:href="#1x6aus6i0a"/>
            </mask>
            <path d="M18 16.237C18 17.21 17.21 18 16.237 18H1.763C.79 18 0 17.21 0 16.237V1.764C0 .79.79 0 1.763 0h14.474C17.21 0 18 .79 18 1.764v14.473z" fill="#D80B7F" mask="url(#52r1fouteb)"/>
        </g>
        <path d="M12.009 4.006A1.119 1.119 0 0 0 11.894 4H3.063C2.476 4 2 4.456 2 5.018s.476 1.018 1.063 1.018H5.99l-.76.382.002 6.564c0 .562.476 1.018 1.063 1.018s1.063-.456 1.063-1.018V6.036h4.367l.006.006c1.81 0 2.013 1.002 2.013 1.563 0 1.248-1.445 1.333-1.445 1.333h-.603l-.004.006h-1.334c-.587 0-1.063.456-1.063 1.018v.751l.001.002.002 2.267c0 .562.476 1.018 1.063 1.018s1.063-.456 1.063-1.018v-1.655l-.937-.347h1.18l.053.001c3.334.064 4.28-1.886 4.28-3.17 0-3.52-3.07-3.8-3.991-3.805" fill="#FEFEFE"/>
        <path d="m25.82 12.992-.265.017h-1.437v-2.33h1.456v-.002l.246.015a1.15 1.15 0 0 1 1.074 1.15c0 .613-.475 1.113-1.074 1.15zm.03-3.789-.276-.01h-.005l-.033-.002v.001H23.29v.005a.81.81 0 0 0-.785.811v6.012c0 .448.36.812.806.812a.81.81 0 0 0 .807-.812v-1.524h1.456v-.004l.276-.01a2.634 2.634 0 0 0 2.523-2.64 2.634 2.634 0 0 0-2.523-2.639zm16.472 3.923a.688.688 0 0 0-.684-.655h-2.706c-.38 0-.687.31-.687.691 0 .382.308.692.687.692h1.537c.23.022.214.18.214.18s-.009.457-.004.839c-.044.053-.222.176-.349.261a2.425 2.425 0 0 1-1.294.375 2.463 2.463 0 0 1-2.454-2.472 2.463 2.463 0 0 1 2.454-2.472 2.43 2.43 0 0 1 1.524.537.37.37 0 0 1 .005-.003s.436.347.963-.112c.305-.307.343-.49.187-.85a3.904 3.904 0 0 0-2.679-1.063c-2.173 0-3.934 1.775-3.934 3.963 0 2.189 1.761 3.963 3.934 3.963.098 0 .196-.005.292-.012.06 0 .244-.01.526-.075.356-.076.694-.2 1.008-.366a6.796 6.796 0 0 0 1.087-.67c.146-.109.314-.206.351-.433l.006-.006v-.025a.66.66 0 0 0 .002-.12l-.002-.006v-1.391l.016-.704.002-.03V13.126h-.002zm4.473 2.383a2.463 2.463 0 0 1-2.454-2.472 2.463 2.463 0 0 1 2.454-2.472 2.463 2.463 0 0 1 2.454 2.472 2.463 2.463 0 0 1-2.454 2.472zm0-6.435c-2.173 0-3.934 1.775-3.934 3.963 0 2.189 1.761 3.963 3.934 3.963 2.172 0 3.934-1.774 3.934-3.963 0-2.188-1.762-3.963-3.934-3.963zm-16.188 4.541.967-2.164.966 2.164h-1.933zm1.91-4.012a.802.802 0 0 0-.698-.48V9.12h-.464v.003a.802.802 0 0 0-.724.48l-2.722 6.092c-.18.41.004.89.411 1.072a.804.804 0 0 0 1.064-.414l.594-1.33h3.191l.595 1.33c.18.41.656.595 1.063.414a.814.814 0 0 0 .411-1.072l-2.722-6.092zM39.066 7c-.012-.002-.023-.004-.035-.004H36.97V.786h2.042a3.099 3.099 0 0 1 2.982 3.108A3.1 3.1 0 0 1 39.067 7zM39.11.01A.302.302 0 0 0 39.032 0H36.52a.327.327 0 0 0-.256.131.332.332 0 0 0-.096.23v7.043c0 .056.016.109.042.156a.344.344 0 0 0 .31.222h2.512c.013 0 .026-.002.038-.004 2.057-.086 3.697-1.792 3.697-3.884 0-2.079-1.62-3.777-3.657-3.883zm8.03.773c1.705 0 3.087 1.392 3.087 3.11 0 1.717-1.382 3.11-3.087 3.11-1.705 0-3.087-1.393-3.087-3.11 0-1.718 1.382-3.11 3.087-3.11zm0 6.998c2.132 0 3.86-1.74 3.86-3.888C51 1.746 49.272.006 47.14.006c-2.132 0-3.86 1.74-3.86 3.888 0 2.147 1.728 3.888 3.86 3.888zM31.596.784c1.705 0 3.087 1.392 3.087 3.11 0 1.717-1.382 3.11-3.087 3.11-1.705 0-3.087-1.393-3.087-3.11 0-1.718 1.382-3.11 3.087-3.11zm0 6.998c2.132 0 3.86-1.74 3.86-3.888 0-2.148-1.728-3.888-3.86-3.888-2.132 0-3.86 1.74-3.86 3.888 0 2.147 1.728 3.888 3.86 3.888zm-6.96-.498c0 .192.175.348.39.348.216 0 .391-.156.391-.348V.787h2.29c.192 0 .347-.176.347-.394 0-.217-.155-.393-.346-.393h-5.362C22.155 0 22 .176 22 .393c0 .218.155.394.346.394h2.29v6.497z" fill="#BFC0C1"/>
    </g>
</svg>
