<svg width="35" height="18" viewBox="0 0 35 18" xmlns="http://www.w3.org/2000/svg" xmlns:xlink="http://www.w3.org/1999/xlink">
    <defs>
        <path d="m0 1.085.004 15.227a1.09 1.09 0 0 0 1.075 1.085c.607 0 1.096-.494 1.096-1.086L2.172 1.084C2.172.492 1.682 0 1.077 0A1.09 1.09 0 0 0 0 1.085z" id="3ifvhvaxua"/>
        <path d="M6.498.999v4.504c-.019 1.074-.974 1.922-2.179 1.922-1.183 0-2.118-.847-2.118-1.922L2.2 1c0-.529-.478-1-1.101-1C.497 0 0 .471 0 1v4.504c0 2.148 1.953 3.919 4.319 3.919 2.388 0 4.381-1.772 4.38-3.921L8.698.998C8.698.47 8.158 0 7.577 0c-.623 0-1.079.471-1.079.999z" id="jpdsyif1xc"/>
        <path d="M8.373 0c-.514 0-.91.357-1.029.828C6.592.32 5.702 0 4.712 0a4.664 4.664 0 0 0-3.365 1.414C.495 2.262 0 3.431 0 4.732a4.69 4.69 0 0 0 1.349 3.315 4.708 4.708 0 0 0 3.365 1.376 4.65 4.65 0 0 0 2.632-.81c.119.451.515.81 1.03.81.574 0 1.048-.454 1.048-.999l-.001-3.695V1.017C9.423.451 8.948 0 8.375 0h-.002zM2.872 6.671c-.475-.489-.752-1.168-.752-1.94-.001-.791.276-1.471.751-1.941.455-.51 1.129-.774 1.841-.774.693 0 1.366.264 1.841.773.475.471.772 1.149.772 1.941a2.76 2.76 0 0 1-.771 1.94 2.622 2.622 0 0 1-1.841.737c-.712 0-1.385-.264-1.841-.736z" id="uafha0nz8e"/>
        <path d="M8.373 0c-.515 0-.911.357-1.029.828C6.591.32 5.7 0 4.71 0a4.666 4.666 0 0 0-3.365 1.414C.494 2.262 0 3.431 0 4.732a4.7 4.7 0 0 0 1.346 3.315 4.715 4.715 0 0 0 3.367 1.376 4.66 4.66 0 0 0 2.633-.81c.118.451.514.81 1.028.81.574 0 1.05-.454 1.05-.999l-.001-3.695-.001-3.712C9.422.451 8.948 0 8.373 0zM2.871 6.671c-.475-.489-.753-1.168-.753-1.94 0-.791.278-1.471.752-1.941.455-.51 1.128-.774 1.841-.774.692 0 1.366.264 1.841.773.475.471.772 1.149.773 1.941 0 .772-.297 1.451-.772 1.94a2.622 2.622 0 0 1-1.841.737c-.713 0-1.386-.264-1.841-.736z" id="ujsokp0lig"/>
        <path d="M3.907.269c-.67.433-1.139 1.006-1.365 1.281l-.07.087-.01.011-.173.214C1.767 2.516 1.174 3.258.45 3.331a.894.894 0 0 1-.154.005.29.29 0 0 0-.27.143c-.047.088-.03.189.05.265.37.353.947.605 1.545.605.337 0 .68-.081.995-.268.672-.433 1.14-1.005 1.365-1.281l.072-.088.01-.011c.057-.069.114-.141.171-.213.523-.654 1.116-1.396 1.84-1.471a1.36 1.36 0 0 1 .153-.004.286.286 0 0 0 .27-.141.213.213 0 0 0-.044-.262L6.447.604A2.306 2.306 0 0 0 4.903 0c-.336 0-.68.081-.996.269z" id="7bel44v7xi"/>
    </defs>
    <g fill="none" fill-rule="evenodd">
        <g transform="translate(21.747)">
            <mask id="qlye3f1zbb" fill="#fff">
                <use xlink:href="#3ifvhvaxua"/>
            </mask>
            <path fill="#3E6BFD" mask="url(#qlye3f1zbb)" d="M-.725 18.122H2.9V-.726H-.725z"/>
        </g>
        <g transform="translate(0 7.974)">
            <mask id="k6f3krc00d" fill="#fff">
                <use xlink:href="#jpdsyif1xc"/>
            </mask>
            <path fill="#3E6BFD" mask="url(#k6f3krc00d)" d="M-.725 10.148H9.424V-.726H-.725z"/>
        </g>
        <g transform="translate(25.371 7.974)">
            <mask id="txdoy3wibf" fill="#fff">
                <use xlink:href="#uafha0nz8e"/>
            </mask>
            <path fill="#3E6BFD" mask="url(#txdoy3wibf)" d="M-.724 10.148H10.15V-.726H-.724z"/>
        </g>
        <g transform="translate(10.149 7.974)">
            <mask id="m5t0osj6oh" fill="#fff">
                <use xlink:href="#ujsokp0lig"/>
            </mask>
            <path fill="#3E6BFD" mask="url(#m5t0osj6oh)" d="M-.725 10.148h10.874V-.726H-.725z"/>
        </g>
        <g transform="translate(26.822 1.449)">
            <mask id="lx0t6bz02j" fill="#fff">
                <use xlink:href="#7bel44v7xi"/>
            </mask>
            <path fill="#FF6766" mask="url(#lx0t6bz02j)" d="M-.747 5.074H7.27V-.725H-.747z"/>
        </g>
    </g>
</svg>
