<svg width="47" height="17" viewBox="0 0 47 17" xmlns="http://www.w3.org/2000/svg">
    <defs>
        <linearGradient x1="0%" y1="49.992%" x2="100.007%" y2="49.992%" id="hzspot4qaa">
            <stop stop-color="#F0F" stop-opacity="0" offset="0%"/>
            <stop stop-color="#E12FFA" stop-opacity=".145" offset="14.55%"/>
            <stop stop-color="#B475F2" stop-opacity=".379" offset="37.9%"/>
            <stop stop-color="#90ACEC" stop-opacity=".59" offset="58.97%"/>
            <stop stop-color="#77D4E8" stop-opacity=".77" offset="76.99%"/>
            <stop stop-color="#67ECE5" stop-opacity=".913" offset="91.26%"/>
            <stop stop-color="#61F5E4" offset="100%"/>
        </linearGradient>
    </defs>
    <g fill-rule="nonzero" fill="none">
        <g fill="#465466">
            <path d="M28.284 7.391a3.222 3.222 0 0 0-1.24-1.347c-.552-.34-1.23-.513-2.015-.513a7.03 7.03 0 0 0-2.862.622c-.408.18-.63.528-.63.974 0 .277.097.523.278.713a.903.903 0 0 0 .666.293c.085 0 .18-.015.293-.044.008-.002.018-.004.026-.009.364-.126.695-.22.987-.284a4.76 4.76 0 0 1 .99-.09c.627 0 1.083.195 1.351.446.222.207.35.487.382 1.094h-1.53c-1.26 0-2.24.2-2.914.732-.707.554-1.066 1.275-1.066 2.207 0 .563.135 1.055.404 1.493a2.63 2.63 0 0 0 1.083.993c.44.221.925.329 1.44.329.807 0 1.533-.181 2.17-.538a.592.592 0 0 1 .728.123l.004.004c.204.213.466.325.76.325.291 0 .556-.112.764-.32.212-.214.323-.49.323-.8V9.147c0-.626-.132-1.218-.392-1.756zm-3.82 5.53c-.495 0-.854-.09-1.038-.263-.18-.169-.264-.382-.264-.669 0-.609.676-.917 2.01-.917h.722c.331 0 .6.28.6.626a.628.628 0 0 1-.198.466c-.186.169-.442.319-.68.45a2.359 2.359 0 0 1-1.153.307zM37.6 7.34a3.16 3.16 0 0 0-1.118-1.322c-.482-.322-1.06-.487-1.703-.487-.69 0-1.302.154-1.819.46a5.236 5.236 0 0 0-.763.555 1.128 1.128 0 0 0-.345-.641 1.056 1.056 0 0 0-.73-.291c-.295.002-.519.118-.723.337-.2.217-.266.493-.266.797v7.046c0 .308.068.582.27.795a.985.985 0 0 0 .74.325c.292 0 .598-.11.806-.32.212-.214.366-.49.366-.8v-4.21c0-.422.163-.827.452-1.122.16-.162.327-.306.502-.426a2.016 2.016 0 0 1 1.191-.365c.945 0 1.348.502 1.348 1.624v4.499c0 .308.1.582.303.795.204.213.462.325.757.325.29 0 .573-.11.783-.32.212-.214.343-.49.343-.8V9.13a4.31 4.31 0 0 0-.394-1.79zM46.776 13.138 44.28 9.683a.292.292 0 0 1 .034-.38l1.83-1.712c.005-.004.011-.008.015-.014.248-.26.373-.538.373-.827 0-.285-.082-.538-.246-.748-.125-.163-.367-.355-.81-.355-.245 0-.481.104-.716.315l-3.128 3.023V3.189c0-.287-.153-.696-.355-.89A1.04 1.04 0 0 0 40.543 2c-.297 0-.573.116-.777.337-.2.217-.317.494-.317.797v10.658c0 .308.117.582.321.795.204.213.472.324.765.324.29 0 .56-.11.767-.32a1.11 1.11 0 0 0 .327-.8v-1.496c0-.289.117-.563.32-.759a.742.742 0 0 1 1.13.118l1.967 2.798c.107.143.238.257.392.337a1.068 1.068 0 0 0 1.241-.175c.21-.202.32-.48.32-.805a1.067 1.067 0 0 0-.223-.67z"/>
        </g>
        <path d="M3.999 16.998c-.67 0-1.348-.17-1.973-.528-1.92-1.103-2.595-3.574-1.504-5.517L5.52 2.049C6.611.106 9.054-.575 10.975.53c1.921 1.103 2.595 3.573 1.504 5.516L7.483 14.95a3.992 3.992 0 0 1-3.484 2.049z" fill="#F36"/>
        <path d="M4.003 17c-.467 0-.94-.082-1.402-.258-2.069-.783-3.12-3.114-2.346-5.207a9.411 9.411 0 0 1 3.364-4.41 9.21 9.21 0 0 1 5.382-1.727c1.94 0 3.8.597 5.381 1.727a9.411 9.411 0 0 1 3.364 4.41c.773 2.093-.277 4.426-2.348 5.207a3.968 3.968 0 0 1-1.4.258 4.003 4.003 0 0 1-3.748-2.63c-.162-.436-.61-.878-1.251-.878-.64 0-1.09.44-1.251.877A4 4 0 0 1 4.003 17z" fill="url(#hzspot4qaa)"/>
    </g>
</svg>
