<svg width="58" height="14" viewBox="0 0 58 14" xmlns="http://www.w3.org/2000/svg" xmlns:xlink="http://www.w3.org/1999/xlink">
    <defs>
        <path id="dzfys5f1oa" d="M0 0h19.014v13.73H0z"/>
    </defs>
    <g fill="none" fill-rule="evenodd">
        <g>
            <mask id="wy9b6bhskb" fill="#fff">
                <use xlink:href="#dzfys5f1oa"/>
            </mask>
            <path d="m4.024 11.296-.546.283c-.24-.606-.436-.712-.752-.375-.413-.285-.413-.285-.547.036l-.6-.334v1.599c-.7-.67-1.067-1.477-1.291-2.344C-.713 6.27.908 2.44 4.976.883c3.192-1.221 6.426-1.201 9.555.219 3.108 1.412 4.665 4.086 4.466 7.486-.077 1.317-.457 2.564-1.228 3.663-.068.096-.148.183-.303.374v-1.687l-.628.28c-.138-.481-.354-.095-.546-.016-.32-.338-.52-.23-.751.378l-.495-.258c-.05.468-.046.877-.15 1.255-.068.244-.252.573-.457.64-.683.229-1.395.382-2.106.502-.17.028-.492-.15-.54-.3-.06-.185.069-.45.16-.66.052-.12.186-.206.292-.297 1.239-1.07 1.413-2.271.773-3.794a22.824 22.824 0 0 1-1.413-4.854c-.076-.426-.06-.868-.122-1.298-.111-.768-.554-1.146-1.32-1.157a47.454 47.454 0 0 0-1.307 0c-.77.012-1.198.39-1.33 1.152-.214 1.235-.388 2.479-.67 3.699-.18.779-.5 1.53-.801 2.277-.685 1.7-.53 2.927.777 4.038.107.09.245.177.293.296.076.187.16.425.104.596-.046.14-.288.286-.455.3-.793.07-1.54-.146-2.24-.5-.433-.22-.466-.67-.506-1.088-.023-.242-.004-.488-.004-.833" fill="#00B400" mask="url(#wy9b6bhskb)"/>
        </g>
        <path d="M56.652 6.853c-.103-.906-.751-1.434-1.643-1.383-.771.044-1.354.629-1.357 1.383h3zM53.644 7.99c.095.809.609 1.374 1.406 1.396.588.016 1.192-.11 1.769-.252.383-.094.704-.171.93.223.18.316.032.62-.406.852-1.044.554-2.141.623-3.25.26-1.267-.416-1.998-1.757-1.834-3.271.14-1.293.627-2.355 1.98-2.763 1.943-.586 3.759.757 3.76 2.756.002.576-.203.794-.773.797-1.041.005-2.082.002-3.123.002h-.46zM32.075 7.908l-.005-.036c-.398.05-.803.07-1.193.157-.362.08-.677.259-.661.713.014.402.287.675.761.735.691.088 1.311-.116 1.773-.618.162-.176.154-.532.161-.807.001-.044-.33-.105-.511-.14-.105-.021-.216-.004-.325-.004m.834-1.095c-.008-.812-.337-1.216-1.083-1.23-.535-.008-1.079.093-1.607.2-.511.104-.777.042-.886-.315-.112-.366.038-.69.508-.793.734-.162 1.494-.347 2.234-.314 1.357.06 2.163.999 2.185 2.367.016.964-.001 1.93.006 2.894.003.404-.004.8-.467.964-.339.12-.597-.032-.931-.524-.737.482-1.534.73-2.424.56-.863-.165-1.433-.755-1.535-1.591-.1-.82.313-1.603 1.123-1.9.514-.19 1.084-.244 1.635-.31.397-.045.804-.008 1.242-.008M45.479 7.845c-.715.075-1.421.128-2.12.233-.335.051-.548.302-.53.663.019.362.218.598.58.692.595.153 1.134.018 1.639-.302.536-.339.59-.483.43-1.286m.05-1.033c-.025-.837-.346-1.222-1.096-1.229-.535-.006-1.077.093-1.605.2-.365.074-.69.129-.866-.279-.156-.362.032-.671.498-.844.736-.272 1.493-.412 2.282-.323 1.285.145 2.109 1.041 2.126 2.342.014 1.01-.005 2.02.005 3.03.004.401-.042.767-.497.881-.44.111-.694-.146-.854-.553-.771.509-1.583.762-2.486.581-.866-.174-1.393-.74-1.51-1.608-.105-.774.27-1.524 1.055-1.838.52-.208 1.105-.277 1.668-.35.409-.053.832-.01 1.28-.01M25.466 8.847 26.9 5.404c.07-.173.134-.348.208-.52.189-.435.526-.618.873-.478.376.15.507.518.327.978-.215.55-.446 1.093-.672 1.638l-2.313 5.549c-.042.1-.081.203-.13.299-.175.344-.462.469-.816.34-.351-.13-.451-.435-.345-.765.16-.502.349-.996.557-1.481.132-.308.124-.575-.007-.886-.63-1.488-1.236-2.986-1.85-4.48-.036-.086-.074-.172-.102-.26-.143-.453-.012-.793.353-.93.359-.135.695.04.872.475.399.978.789 1.96 1.185 2.939.126.312.258.622.426 1.025M35.4 7.544c.02-1.28.488-2.254 1.585-2.828 1.178-.616 2.363-.551 3.508.127.327.194.446.489.265.833-.192.366-.525.368-.844.198-.622-.33-1.264-.424-1.937-.22-.895.27-1.374 1.097-1.256 2.13.104.906.747 1.587 1.647 1.61.478.013.977-.107 1.437-.26.502-.164.8-.152.97.195.168.34.025.643-.424.895-2.011 1.132-4.452.112-4.891-2.05-.046-.227-.045-.463-.06-.63M49.688 4.937c.514-.209 1.006-.463 1.528-.606.45-.123.773.138.815.53.048.445-.185.657-.696.722-.316.04-.643.121-.928.26-.487.24-.768.603-.732 1.218.053.93.015 1.864.013 2.797 0 .41-.176.694-.606.747-.398.05-.687-.205-.69-.629-.009-1.648-.003-3.295-.004-4.943 0-.343.166-.57.49-.646.346-.079.605.07.751.397.037.084.066.171.06.153M55.36 3.517c-.443.002-.89.156-.963-.358-.069-.48.388-.476.697-.573.28-.089.562-.172.848-.232.362-.074.622.078.686.443.065.365-.12.59-.494.637-.29.037-.584.063-.775.083" fill="#000"/>
    </g>
</svg>
