<svg width="130" height="105" viewBox="0 0 130 105" xmlns="http://www.w3.org/2000/svg" xmlns:xlink="http://www.w3.org/1999/xlink">
    <defs>
        <path id="w73ur4xsua" d="M0 0h8.077v8.077H0z"/>
        <path id="mripn3669c" d="M0 0h4.487v4.487H0z"/>
        <path id="8p69n3c0xe" d="M0 0h8.974v8.974H0z"/>
        <path id="miwc9j3f6g" d="M0 0h8.974v8.974H0z"/>
        <path id="suo7ettuqi" d="M0 0h12.564v12.564H0z"/>
    </defs>
    <g fill="none" fill-rule="evenodd">
        <path d="M100.962 9.399c.998 0 1.901.404 2.555 1.058a3.602 3.602 0 0 1 1.059 2.555c-.001.998-.406 1.901-1.06 2.555a3.606 3.606 0 0 1-2.554 1.06 3.603 3.603 0 0 1-2.556-1.058 3.603 3.603 0 0 1-1.059-2.556c0-.998.405-1.902 1.059-2.556a3.603 3.603 0 0 1 2.556-1.058z" stroke="#073B4C" stroke-width="2.643"/>
        <g transform="translate(61.923)">
            <mask id="w3vu6u8lkb" fill="#fff">
                <use xlink:href="#w73ur4xsua"/>
            </mask>
            <path d="M4.35.31a.31.31 0 0 0-.622 0A3.422 3.422 0 0 1 .31 3.729a.31.31 0 0 0 0 .621 3.422 3.422 0 0 1 3.417 3.417.31.31 0 0 0 .621 0A3.422 3.422 0 0 1 7.766 4.35a.31.31 0 0 0 0-.621A3.422 3.422 0 0 1 4.35.31z" fill="#073B4C" mask="url(#w3vu6u8lkb)"/>
        </g>
        <g transform="translate(115.77 33.205)">
            <mask id="s61udme4qd" fill="#fff">
                <use xlink:href="#mripn3669c"/>
            </mask>
            <path d="M2.416.173a.173.173 0 0 0-.345 0A1.9 1.9 0 0 1 .173 2.07a.173.173 0 0 0 0 .345A1.9 1.9 0 0 1 2.07 4.315a.173.173 0 0 0 .345 0 1.9 1.9 0 0 1 1.899-1.899.173.173 0 0 0 0-.345A1.9 1.9 0 0 1 2.416.173zM-4.763-15.981a.173.173 0 0 0-.345 0 1.9 1.9 0 0 1-1.899 1.898.173.173 0 0 0 0 .345 1.9 1.9 0 0 1 1.899 1.899.173.173 0 0 0 .345 0 1.9 1.9 0 0 1 1.898-1.899.173.173 0 0 0 0-.345 1.9 1.9 0 0 1-1.898-1.898z" fill="#073B4C" mask="url(#s61udme4qd)"/>
        </g>
        <g transform="translate(26.026 13.462)">
            <mask id="dht190e8bf" fill="#fff">
                <use xlink:href="#8p69n3c0xe"/>
            </mask>
            <path d="M4.832.345a.345.345 0 0 0-.69 0A3.802 3.802 0 0 1 .345 4.142a.345.345 0 0 0 0 .69A3.802 3.802 0 0 1 4.142 8.63a.345.345 0 0 0 .69 0A3.802 3.802 0 0 1 8.63 4.832a.345.345 0 0 0 0-.69A3.802 3.802 0 0 1 4.832.345z" fill="#073B4C" mask="url(#dht190e8bf)"/>
        </g>
        <g transform="translate(120.256 54.744)">
            <mask id="o3qoo217hh" fill="#fff">
                <use xlink:href="#miwc9j3f6g"/>
            </mask>
            <path d="M4.832.345a.345.345 0 0 0-.69 0A3.802 3.802 0 0 1 .345 4.142a.345.345 0 0 0 0 .69A3.802 3.802 0 0 1 4.142 8.63a.345.345 0 0 0 .69 0A3.802 3.802 0 0 1 8.63 4.832a.345.345 0 0 0 0-.69A3.802 3.802 0 0 1 4.832.345zM-9.527-32.86a.345.345 0 0 0-.69 0 3.802 3.802 0 0 1-3.797 3.797.345.345 0 0 0 0 .69 3.802 3.802 0 0 1 3.797 3.797.345.345 0 0 0 .69 0 3.802 3.802 0 0 1 3.797-3.797.345.345 0 0 0 0-.69 3.802 3.802 0 0 1-3.797-3.797z" fill="#073B4C" mask="url(#o3qoo217hh)"/>
        </g>
        <g transform="translate(0 38.59)">
            <mask id="lhy0w9x7rj" fill="#fff">
                <use xlink:href="#suo7ettuqi"/>
            </mask>
            <path d="M6.765.483a.483.483 0 0 0-.966 0A5.322 5.322 0 0 1 .483 5.8a.483.483 0 0 0 0 .966A5.322 5.322 0 0 1 5.8 12.081a.483.483 0 0 0 .966 0 5.322 5.322 0 0 1 5.316-5.316.483.483 0 0 0 0-.966A5.322 5.322 0 0 1 6.765.483z" fill="#073B4C" mask="url(#lhy0w9x7rj)"/>
        </g>
        <g fill-rule="nonzero">
            <path d="M52.072 44.06h41.32v57.23a2.419 2.419 0 0 1-2.418 2.42H54.49a2.419 2.419 0 0 1-2.42-2.42V44.06zM50.456 44.06h44.553c.89 0 1.613-.723 1.613-1.613v-4.899c0-.89-.722-1.612-1.613-1.612H50.456c-.891 0-1.613.722-1.613 1.612v4.899c0 .89.722 1.612 1.613 1.612z" fill="#E9F4FC"/>
            <path fill="#57DFB7" d="M69.258 30.418h6.497v5.518h-6.497z"/>
            <g fill="#57DFB7">
                <path d="M75.755 30.418s6.118-8.333 9.468-6.402c3.732 2.153 2.578 11.92 2.578 11.92H75.755v-5.518zM69.258 30.418s-6.119-8.333-9.468-6.402c-3.732 2.153-2.578 11.92-2.578 11.92h12.046v-5.518zM75.755 44.06h-6.497v-8.124h6.497z"/>
            </g>
            <path fill="#57DFB7" d="M75.755 103.71h-6.497V44.06h6.497z"/>
            <g>
                <path d="M23.544 71.413h50.598c.89 0 1.613-.721 1.613-1.612v-4.919c0-.89-.722-1.612-1.613-1.612H23.544c-.891 0-1.613.722-1.613 1.612v4.919c0 .89.722 1.612 1.613 1.612zM24.677 71.413H73.01v29.878a2.419 2.419 0 0 1-2.42 2.419H27.097a2.419 2.419 0 0 1-2.419-2.42V71.414z" fill="#E9F4FC"/>
                <path fill="#7ADEFF" d="M52.092 71.413h-6.498V63.27h6.498zM52.092 103.71h-6.498V71.413h6.498zM45.598 57.57h6.493v5.698h-6.493zM52.091 57.572s6.144-8.605 9.486-6.61c3.724 2.222 2.576 12.308 2.576 12.308H52.091v-5.698zM45.598 57.568s-6.147-8.601-9.49-6.607c-3.723 2.223-2.575 12.309-2.575 12.309l12.065-.004v-5.698z"/>
            </g>
            <g>
                <path d="M63.011 85.445h37.292c.89 0 1.612-.722 1.612-1.612v-4.065c0-.89-.722-1.613-1.612-1.613H63.01c-.89 0-1.612.722-1.612 1.613v4.065c0 .89.722 1.612 1.612 1.612zM64.058 85.445h35.198v15.846a2.419 2.419 0 0 1-2.419 2.419h-30.36a2.419 2.419 0 0 1-2.42-2.42V85.446z" fill="#E9F4FC"/>
                <path fill="#675EFB" d="M84.803 78.155h-6.292v-5.74h6.292z"/>
                <g fill="#675EFB">
                    <path d="M78.51 72.415s-5.039-6.449-7.765-4.076c-2.809 2.445-1.926 9.816-1.926 9.816h9.692v-5.74zM84.803 72.415s5.04-6.449 7.766-4.076c2.809 2.445 1.926 9.816 1.926 9.816h-9.692v-5.74zM84.803 85.445h-6.292v-7.29h6.292z"/>
                </g>
                <path fill="#675EFB" d="M84.803 103.71h-6.292V85.445h6.292z"/>
            </g>
            <path d="M100.378 76.973h-4.504c.106-1.946.075-5.463-1.208-7.914V45.236h.408a2.83 2.83 0 0 0 2.827-2.828v-4.907a2.83 2.83 0 0 0-2.827-2.828h-5.899c.195-2.996.217-9.751-3.301-11.78-1.911-1.102-4.414-.21-7.44 2.65-1.45 1.371-2.664 2.851-3.251 3.602H69.87c-.587-.75-1.801-2.23-3.251-3.602-3.026-2.86-5.53-3.752-7.44-2.65-3.518 2.029-3.496 8.784-3.301 11.78h-5.446a2.83 2.83 0 0 0-2.827 2.828v4.907a2.83 2.83 0 0 0 2.827 2.828h.408V56.35l-4.666-.003c-.588-.773-1.807-2.3-3.262-3.716-3.042-2.958-5.557-3.878-7.476-2.732-3.512 2.096-3.476 9.1-3.28 12.16h-8.69a2.83 2.83 0 0 0-2.826 2.829v4.925a2.83 2.83 0 0 0 2.751 2.825v6.13a1.212 1.212 0 0 0 2.424 0v-6.126H44.35v29.934H27.027c-.668 0-1.211-.544-1.211-1.213V83.615a1.212 1.212 0 0 0-2.424 0v17.748A3.64 3.64 0 0 0 27.026 105h69.88a3.64 3.64 0 0 0 3.635-3.635V86.692a2.829 2.829 0 0 0 2.664-2.819v-4.072a2.83 2.83 0 0 0-2.827-2.828zM44.35 70.219H23.468a.405.405 0 0 1-.403-.405v-4.926c0-.223.18-.405.403-.405H44.35v5.736zm.004-8.163-9.76.003a32.69 32.69 0 0 1-.014-4.073c.207-3.189.953-5.322 2.1-6.006.156-.094.337-.137.539-.137 1.745 0 5.037 3.27 7.135 6.11v4.103zm49.094 14.917H86.06v-4.111c1.263-1.522 3.525-3.677 5.02-3.819.315-.03.54.036.753.221 1.48 1.289 1.773 5.042 1.615 7.709zM76.994 30.759c2.333-3.068 6.15-6.643 7.669-5.766 2.001 1.154 2.34 6.16 2.086 9.68h-9.755V30.76zm0 6.337h18.08c.222 0 .404.182.404.405v4.907a.404.404 0 0 1-.404.404h-18.08v-5.716zm-6.51-5.528h4.086v3.105h-4.086v-3.105zm0 5.528h4.086v5.716h-4.086v-5.716zm3.683 27.387c.222 0 .403.182.403.405v2.405c-.666-.351-1.352-.597-2.026-.662-.975-.093-1.865.185-2.577.805-.806.702-1.36 1.688-1.737 2.783H53.285v-5.736h20.882zm-8.69-2.424c.196-3.06.233-10.065-3.28-12.16-1.919-1.145-4.434-.226-7.474 2.734a29.937 29.937 0 0 0-1.459 1.53v-8.927H68.06v16.823h-2.583zm-7.174-31.29c.206-3.067.947-5.119 2.088-5.777 1.52-.876 5.336 2.699 7.67 5.767v3.914h-9.746a30.492 30.492 0 0 1-.012-3.903zm-7.87 12.043a.404.404 0 0 1-.404-.404v-4.907c0-.223.181-.405.404-.405H68.06v5.716H50.433zm-3.656 15.959 4.083.002v3.286l-4.083-.003v-3.285zm4.084 43.805h-4.087V72.642h4.087v29.934zm0-32.357h-4.087v-5.736h4.087v5.736zm2.423-12.263c2.34-3.17 6.165-6.876 7.671-5.977 2.017 1.204 2.355 6.426 2.096 10.08h-9.767v-4.103zm0 44.62V72.642H67.67c-.228 1.628-.212 3.23-.153 4.33h-4.503a2.83 2.83 0 0 0-2.828 2.828v4.073a2.829 2.829 0 0 0 2.665 2.82v14.671c0 .425.073.833.208 1.212h-9.774zm24.047 0H66.486a1.213 1.213 0 0 1-1.212-1.211V86.7H77.33v15.875zm0-18.299H63.013a.404.404 0 0 1-.404-.404v-4.072c0-.223.182-.404.404-.404h14.318v4.88zm0-7.304h-7.388c-.157-2.668.135-6.42 1.615-7.709.213-.185.439-.25.754-.221 1.494.142 3.756 2.297 5.02 3.819v4.111zm-.337-7.943V55.486a1.212 1.212 0 0 0-2.424 0v6.573h-4.086V45.236h4.086v5.403a1.212 1.212 0 0 0 2.424 0v-5.403h15.248v21.533a3.505 3.505 0 0 0-1.395-.138c-2.668.256-5.527 3.35-6.574 4.59h-5.155a22.058 22.058 0 0 0-2.124-2.19zm2.76 7.943v-3.328h3.882v3.328h-3.881zm3.882 2.423v4.881h-3.881v-4.88h3.881zm14.481 21.969c0 .668-.543 1.211-1.212 1.211H86.06v-5.514a1.212 1.212 0 0 0-2.424 0v5.514h-3.881V86.701h3.881v5.514a1.212 1.212 0 0 0 2.424 0v-5.514h12.057v14.664zm2.665-17.492a.404.404 0 0 1-.404.404H86.06v-4.88h14.318c.222 0 .404.18.404.403v4.073z" fill="#073B4C"/>
        </g>
    </g>
</svg>
