<svg width="40" height="35" viewBox="0 0 40 35" xmlns="http://www.w3.org/2000/svg" xmlns:xlink="http://www.w3.org/1999/xlink">
    <defs>
        <path d="M1.598.369v.89l.001.033c.016.188.163.336.342.336.189 0 .342-.165.342-.37v-.89L2.282.336C2.266.147 2.119 0 1.94 0c-.19 0-.343.165-.343.369zm1.047 1.259-.033.001a.354.354 0 0 0-.329.347c0 .193.163.35.362.35h.875l.032-.002a.354.354 0 0 0 .33-.348.356.356 0 0 0-.362-.348h-.875zm-2.283 0-.033.001A.355.355 0 0 0 0 1.976c0 .193.162.35.362.35h.875l.032-.002a.354.354 0 0 0 .33-.348.356.356 0 0 0-.362-.348H.362zm1.236 1.066v.89l.001.034c.016.188.163.335.342.335.189 0 .342-.165.342-.369v-.89l-.001-.033c-.016-.188-.163-.336-.341-.336-.19 0-.343.165-.343.37z" id="8xhe06bida"/>
        <path d="M1.598.369v.89l.002.033c.015.188.162.336.34.336.19 0 .343-.166.343-.37V.336C2.265.147 2.118 0 1.94 0c-.19 0-.343.165-.343.369zm1.047 1.259-.032.001a.354.354 0 0 0-.33.347c0 .193.162.35.362.35h.875l.033-.002a.354.354 0 0 0 .328-.348.355.355 0 0 0-.361-.348h-.875zm-2.283 0-.033.001A.354.354 0 0 0 0 1.976c0 .193.162.35.362.35h.875l.032-.002a.354.354 0 0 0 .33-.348.355.355 0 0 0-.362-.348H.362zm1.236 1.066v.89l.002.034c.015.188.162.335.34.335.19 0 .343-.165.343-.369v-.923c-.017-.188-.164-.336-.342-.336-.19 0-.343.165-.343.37z" id="10jwl61urc"/>
        <path d="M.07.07C-.017.16-.024.297.055.376l.343.35.014.012C.492.804.615.793.697.71.784.62.79.485.712.405L.368.055.355.044A.19.19 0 0 0 .232 0 .23.23 0 0 0 .07.07zM1.34.057l-.344.35-.012.013C.918.5.929.627 1.01.709c.086.089.22.096.298.016l.344-.35.012-.013C1.73.28 1.72.154 1.638.07A.23.23 0 0 0 1.475 0c-.05 0-.1.018-.136.056zm-.33.973c-.086.089-.092.225-.014.305l.343.35.013.012c.08.066.204.055.286-.028.087-.088.093-.225.015-.304l-.344-.35-.013-.012a.189.189 0 0 0-.122-.044.229.229 0 0 0-.163.071zm-.612-.015-.343.35-.012.013c-.066.081-.055.208.027.291.086.088.22.095.299.015l.343-.35.012-.013c.065-.081.055-.208-.027-.29A.23.23 0 0 0 .534.957c-.05 0-.1.019-.136.056z" id="2buaxactxe"/>
        <path d="m1.34.056-.344.35-.012.013C.918.5.929.627 1.01.709c.086.089.22.096.298.016l.344-.35.012-.013C1.73.28 1.72.154 1.638.07A.23.23 0 0 0 1.475 0c-.05 0-.1.018-.136.056zM.07.07C-.017.159-.024.296.055.375l.343.35.014.012C.492.804.615.793.697.71.784.62.79.485.712.405L.368.055.355.044A.19.19 0 0 0 .232 0 .23.23 0 0 0 .07.07zm.94.958c-.086.089-.092.225-.014.305l.343.35.013.012c.08.066.204.055.286-.028.087-.088.093-.225.015-.304l-.344-.35-.013-.012a.189.189 0 0 0-.122-.044.23.23 0 0 0-.163.071zm-.612-.015-.343.35-.012.013c-.066.081-.055.208.027.291.086.088.22.095.299.015l.343-.35.012-.013c.065-.081.055-.208-.027-.29A.229.229 0 0 0 .534.957c-.05 0-.1.019-.136.056z" id="qnd314mdxg"/>
        <path d="m1.339.056-.343.35-.012.013C.918.5.929.627 1.01.709c.087.089.22.096.3.016l.342-.35.013-.013C1.73.28 1.72.154 1.638.07A.229.229 0 0 0 1.475 0a.19.19 0 0 0-.136.056zM.069.07C-.016.159-.023.296.056.375l.343.35.013.012C.491.804.615.793.697.71.783.622.79.485.712.405L.369.055.355.044A.19.19 0 0 0 .232 0 .23.23 0 0 0 .07.07zm.941.958c-.086.089-.093.225-.014.305l.343.35.014.012c.08.066.203.056.285-.028.086-.088.093-.225.015-.304l-.343-.35-.014-.012a.19.19 0 0 0-.123-.044.23.23 0 0 0-.163.071zm-.612-.015-.343.35-.012.013c-.066.081-.055.208.027.291.086.088.22.095.299.015l.342-.35.013-.013c.065-.081.055-.208-.027-.29A.23.23 0 0 0 .534.957a.19.19 0 0 0-.136.056z" id="i6j93gizgi"/>
        <path d="m1.339.056-.343.35-.012.013C.918.5.929.627 1.01.709c.087.089.22.096.3.016l.342-.35.013-.013C1.73.28 1.72.154 1.638.07A.229.229 0 0 0 1.475 0c-.05 0-.1.018-.136.056zM.069.07C-.016.159-.023.296.056.375l.343.35.013.012C.491.804.615.793.697.71.783.622.79.485.712.405L.369.055.355.044A.19.19 0 0 0 .233 0 .229.229 0 0 0 .07.07zm.941.958c-.086.089-.093.225-.014.305l.343.35.014.012c.08.066.203.056.285-.028.086-.088.093-.225.015-.304l-.343-.35-.014-.012a.19.19 0 0 0-.123-.044.23.23 0 0 0-.163.071zm-.612-.015-.343.35-.012.013c-.066.081-.055.208.027.291.086.088.22.095.299.015l.342-.35.013-.013c.065-.081.055-.208-.027-.29A.23.23 0 0 0 .534.957a.19.19 0 0 0-.136.056z" id="afhu22993k"/>
        <path d="M.096.098C-.038.235-.03.462.11.606l.619.63.024.022c.141.121.347.12.473-.009a.364.364 0 0 0-.013-.507L.595.112.57.09A.364.364 0 0 0 .333 0a.329.329 0 0 0-.237.098zm2.247.014-.618.63-.022.024a.362.362 0 0 0 .008.483c.133.136.357.13.498-.014l.618-.63.022-.024a.362.362 0 0 0-.008-.483A.329.329 0 0 0 2.605 0a.37.37 0 0 0-.262.112zm-.632 1.63a.364.364 0 0 0 .014.508l.618.63.024.022c.141.121.348.12.474-.008a.364.364 0 0 0-.014-.508l-.618-.63-.024-.022a.366.366 0 0 0-.238-.09.328.328 0 0 0-.236.098zm-.983.015-.618.63-.022.024a.363.363 0 0 0 .008.483c.134.136.357.13.499-.015l.618-.63.022-.024a.362.362 0 0 0-.009-.483.328.328 0 0 0-.236-.098.367.367 0 0 0-.262.113z" id="k49zup5jom"/>
        <path d="M.096.098C-.038.235-.03.462.11.606l.619.63.024.022c.141.121.347.12.473-.009a.364.364 0 0 0-.013-.507L.595.112.57.09A.364.364 0 0 0 .333 0a.328.328 0 0 0-.237.098zm2.247.014-.618.63-.022.024a.362.362 0 0 0 .008.483c.133.136.357.13.498-.014l.618-.63.022-.024a.362.362 0 0 0-.008-.483A.329.329 0 0 0 2.605 0a.368.368 0 0 0-.262.112zm-.632 1.63a.364.364 0 0 0 .014.508l.618.63.024.022c.141.121.348.12.474-.008a.364.364 0 0 0-.014-.508l-.618-.63-.024-.022a.367.367 0 0 0-.238-.09.329.329 0 0 0-.236.098zm-.983.015-.618.63-.022.024a.363.363 0 0 0 .008.483c.134.136.357.13.499-.015l.618-.63.022-.024a.362.362 0 0 0-.009-.483.33.33 0 0 0-.236-.098.368.368 0 0 0-.262.113z" id="cv1h4wt9eo"/>
        <path d="M.887.205v.494l.001.018c.01.105.106.186.221.186.123 0 .222-.09.222-.204V.205L1.33.186C1.32.082 1.225 0 1.109 0 .987 0 .887.092.887.205zm.645.698-.019.002c-.102.01-.182.107-.182.224 0 .125.09.226.2.226h.505c.102-.01.182-.108.182-.226 0-.124-.09-.226-.201-.226h-.485zM.2.903.183.905C.08.915 0 1.012 0 1.129c0 .125.09.226.2.226h.504c.103-.01.183-.108.183-.226 0-.124-.09-.226-.2-.226H.2zm.686.657v.494l.001.019c.01.104.106.186.221.186.123 0 .222-.092.222-.205V1.56l-.001-.019c-.01-.104-.105-.186-.221-.186-.122 0-.222.092-.222.205z" id="00pmolz84q"/>
        <path d="M.404.092C.282.26.45.596.777.844l.376.286c.137.104.207.245.156.315-.052.07-.205.042-.342-.062L.247.838C.154.765.048.746.013.794c-.036.049.013.147.107.219l.32.241-.088.12c-.035.048.013.146.108.218.095.072.201.091.236.043l.088-.12.056.044c.327.248.692.314.814.147.122-.166-.045-.503-.373-.752L.905.67C.767.565.697.424.748.354.8.284.953.312 1.09.416l.72.545c.094.072.2.092.236.044.035-.049-.013-.147-.108-.219l-.4-.303.087-.12c.036-.048-.013-.146-.108-.218-.095-.072-.2-.09-.236-.043l-.087.12-.045-.03C.963.065.774 0 .628 0c-.1 0-.179.03-.224.092z" id="8xtov9ja9s"/>
    </defs>
    <g fill="none" fill-rule="evenodd">
        <path d="M15.2 30.093c-.387-.121-3.539-.104-6.037-3.03v-.046h1.566c1.38 0 2.499-1.14 2.499-2.545a2.56 2.56 0 0 0-.732-1.802 2.466 2.466 0 0 0-1.767-.746h-3.56c-.389 0-.756.09-1.082.25-.191-2.477.343-4.606 1.326-6.287a8.651 8.651 0 0 1 3.008-3.057 7.733 7.733 0 0 1 3.462-1.083l.046-.022.126.017c.286-2.008.897-3.392 1.605-3.392 2.02 0 3.788 1.197 4.78 2.999H26.258c3.856 0 7.184 3.23 8.29 7.059.499 1.717.547 3.558-.007 5.28l-3.428 9.096c0 .933-3.55 1.45-4.352.14l-.13-.307v-.003l-.976-2.317-.24.105H21.76l-.894 2.382c-.31.969-3.266 1.7-4.42.007l-1.245-2.693.005-.002-.007-.003" fill="#E9F4FC"/>
        <path d="m15.207 30.096-.005.002-.002-.005c.002 0 .004.003.007.003" fill="#E9F4FC"/>
        <path d="m15.2 30.093.002.005-5.36 2.637-.098.044c-1.085.573-3.774-2.197-2.763-3.601l1.154-1.817v-.344h1.028v.046c2.498 2.926 5.65 2.909 6.037 3.03M13.929 11.725l-.045.022a7.727 7.727 0 0 0-3.463 1.083c-.164-2.576-.76-4.48-1.468-4.48 2.158 0 4.03 1.367 4.976 3.375" fill="#E9F4FC"/>
        <path d="M6.087 22.175a2.45 2.45 0 0 1 1.082-.25h3.56c.69 0 1.314.284 1.767.745.453.461.732 1.098.732 1.802 0 1.406-1.118 2.545-2.499 2.545H7.169A2.47 2.47 0 0 1 5.4 26.27a2.56 2.56 0 0 1-.732-1.8 2.55 2.55 0 0 1 1.419-2.296" fill="#FFF"/>
        <path d="m6.087 22.177-.239-.002c-.182-2.355.288-4.579 1.36-6.412A8.937 8.937 0 0 1 10.3 12.62a8 8 0 0 1 3.568-1.115.238.238 0 0 1 .252.227.241.241 0 0 1-.223.257 7.527 7.527 0 0 0-3.356 1.05 8.449 8.449 0 0 0-2.925 2.973c-1.02 1.746-1.468 3.87-1.293 6.144l-.237.02z" fill="#073B4C"/>
        <path d="M7.17 22.167c-.345 0-.674.076-.98.226a2.322 2.322 0 0 0-1.284 2.079c0 .614.236 1.193.663 1.628.427.434.995.674 1.6.674h3.56c1.246 0 2.26-1.033 2.26-2.302a2.31 2.31 0 0 0-.662-1.63 2.224 2.224 0 0 0-1.598-.675h-3.56zm3.559 5.092h-3.56c-.732 0-1.42-.29-1.938-.816a2.796 2.796 0 0 1-.801-1.971 2.81 2.81 0 0 1 1.553-2.516 2.67 2.67 0 0 1 1.186-.274h3.56c.731 0 1.418.29 1.935.816.518.527.802 1.228.802 1.974 0 1.537-1.228 2.787-2.737 2.787zM26.258 11.592h-5.815a.24.24 0 0 1-.239-.243.24.24 0 0 1 .239-.243h5.815a.24.24 0 0 1 .239.243.24.24 0 0 1-.239.243" fill="#073B4C"/>
        <path d="M34.541 23.93a.244.244 0 0 1-.227-.319c.515-1.599.517-3.375.006-5.134-1.153-3.99-4.543-6.885-8.062-6.885a.24.24 0 0 1-.238-.243.24.24 0 0 1 .238-.243c3.726 0 7.308 3.042 8.52 7.234.537 1.854.534 3.729-.01 5.423a.24.24 0 0 1-.227.167M16.447 33.034a.238.238 0 0 1-.216-.14l-1.674-3.623a.245.245 0 0 1 .115-.322.237.237 0 0 1 .317.116l1.673 3.623a.245.245 0 0 1-.114.323.233.233 0 0 1-.101.023M21.29 14.943a.24.24 0 0 1-.24-.243c0-1.15-.282-2.267-.817-3.232-.992-1.8-2.701-2.876-4.573-2.876a.24.24 0 0 1-.238-.242.24.24 0 0 1 .238-.243c2.047 0 3.912 1.167 4.988 3.123a7.161 7.161 0 0 1 .88 3.47.24.24 0 0 1-.239.243" fill="#073B4C"/>
        <path d="M17.176 14.547a.24.24 0 0 1-.238-.243c0-3.486-.757-5.712-1.278-5.712a.24.24 0 0 1-.238-.243.24.24 0 0 1 .238-.242c1.152 0 1.755 3.117 1.755 6.197a.24.24 0 0 1-.239.243" fill="#073B4C"/>
        <path d="M13.884 14.547a.24.24 0 0 1-.239-.243c0-.907.059-1.78.174-2.596.321-2.255 1.01-3.601 1.84-3.601a.24.24 0 0 1 .24.242.24.24 0 0 1-.24.243c-.44 0-1.056.997-1.368 3.185a18.1 18.1 0 0 0-.169 2.527.24.24 0 0 1-.238.243" fill="#073B4C"/>
        <path d="M13.929 11.968a.238.238 0 0 1-.215-.138c-.941-1.997-2.766-3.238-4.761-3.238a.24.24 0 0 1-.239-.242.24.24 0 0 1 .239-.243c2.18 0 4.17 1.346 5.19 3.513a.244.244 0 0 1-.111.324.231.231 0 0 1-.103.024" fill="#073B4C"/>
        <path d="m10.421 12.835-.238-.005c-.185-2.886-.843-4.238-1.23-4.238a.24.24 0 0 1-.239-.243.24.24 0 0 1 .239-.242c1.036 0 1.561 2.431 1.706 4.707l-.238.021z" fill="#073B4C"/>
        <path d="M7.348 16.091a.24.24 0 0 1-.235-.203c-.512-3.168.15-6.22 1.083-7.34.244-.293.498-.441.757-.441a.24.24 0 0 1 .238.243.24.24 0 0 1-.238.242c-.107 0-.25.099-.393.27-.71.85-1.51 3.646-.977 6.947a.242.242 0 0 1-.235.282M6.645 25.353a.24.24 0 0 1-.239-.243v-1.423a.24.24 0 0 1 .239-.242.24.24 0 0 1 .238.242v1.423a.24.24 0 0 1-.238.243M9.36 25.353a.24.24 0 0 1-.238-.243v-1.423a.24.24 0 0 1 .239-.242.24.24 0 0 1 .238.242v1.423a.24.24 0 0 1-.238.243M15.14 25.528a.24.24 0 0 1-.238-.243.24.24 0 0 1 .238-.243c.776 0 1.407-.82 1.407-1.828a.24.24 0 0 1 .238-.243.24.24 0 0 1 .239.243c0 1.276-.845 2.314-1.884 2.314M15.207 30.339a.24.24 0 0 1-.081-.015 3.504 3.504 0 0 0-.278-.042c-1.001-.13-3.661-.479-5.865-3.06a.246.246 0 0 1 .023-.342c.1-.088.25-.078.337.024 2.084 2.441 4.614 2.772 5.566 2.896a2.43 2.43 0 0 1 .373.066.242.242 0 0 1 .163.23.24.24 0 0 1-.238.243M18.594 34.049c-1.001 0-1.852-.399-2.343-1.119a.245.245 0 0 1 .06-.338.235.235 0 0 1 .331.06c.713 1.046 2.08.93 2.48.87.858-.128 1.423-.515 1.518-.813a.238.238 0 0 1 .301-.156.244.244 0 0 1 .153.306c-.173.54-.937 1-1.902 1.144-.204.03-.404.046-.598.046" fill="#073B4C"/>
        <path d="M20.867 33.027a.234.234 0 0 1-.085-.016.244.244 0 0 1-.137-.314l1.125-2.996a.237.237 0 0 1 .308-.14.243.243 0 0 1 .137.313l-1.125 2.997a.238.238 0 0 1-.223.156M6.98 29.42a.235.235 0 0 1-.129-.038.246.246 0 0 1-.07-.336l1.154-1.816a.236.236 0 0 1 .33-.072c.11.072.141.223.07.335L7.181 29.31a.237.237 0 0 1-.2.11" fill="#073B4C"/>
        <path d="M9.405 33.101c-.67 0-1.478-.59-2.035-1.254-.68-.807-1.188-1.97-.582-2.813a.236.236 0 0 1 .334-.052c.106.08.129.232.051.34-.443.614.025 1.574.559 2.21.654.777 1.507 1.24 1.903 1.032a.236.236 0 0 1 .321.104.245.245 0 0 1-.102.327.95.95 0 0 1-.449.106" fill="#073B4C"/>
        <path d="M9.842 32.978a.238.238 0 0 1-.215-.137.244.244 0 0 1 .111-.324l5.36-2.637a.239.239 0 0 1 .32.11.243.243 0 0 1-.105.323l-5.367 2.641a.233.233 0 0 1-.104.024M26.809 33.282a.238.238 0 0 1-.22-.148l-.178-.42a.245.245 0 0 1 .125-.32.237.237 0 0 1 .313.126l.18.424a.244.244 0 0 1-.126.318.231.231 0 0 1-.094.02" fill="#073B4C"/>
        <path d="M26.63 32.857a.238.238 0 0 1-.219-.147l-1.216-2.887a.245.245 0 0 1 .125-.32.238.238 0 0 1 .313.128l1.216 2.887a.245.245 0 0 1-.125.32.23.23 0 0 1-.094.019" fill="#073B4C"/>
        <path d="M28.815 33.953c-.911 0-1.851-.238-2.256-.9a1.279 1.279 0 0 1-.16-.375.242.242 0 0 1 .23-.306.24.24 0 0 1 .236.197c.023.085.055.16.095.222.436.71 1.988.836 3.112.509.551-.16.802-.38.802-.516a.24.24 0 0 1 .239-.243.24.24 0 0 1 .238.243c0 .418-.407.767-1.148.983-.39.114-.885.186-1.388.186" fill="#073B4C"/>
        <path d="M31.113 33.027a.235.235 0 0 1-.086-.016.244.244 0 0 1-.137-.314l3.429-9.097a.238.238 0 0 1 .308-.14.244.244 0 0 1 .137.314l-3.429 9.097a.239.239 0 0 1-.222.156M25.414 30.645h-3.65a.24.24 0 0 1-.239-.243.24.24 0 0 1 .239-.243h3.65a.24.24 0 0 1 .239.243.24.24 0 0 1-.239.243M35.941 17.66a.24.24 0 0 1-.238-.243.24.24 0 0 1 .238-.242.752.752 0 0 0 .146-.016 1.573 1.573 0 0 0 1.18-1.016 1.618 1.618 0 0 0-.291-1.544.247.247 0 0 1 .02-.344.236.236 0 0 1 .337.022c.472.544.623 1.339.385 2.026a2.037 2.037 0 0 1-1.545 1.334 1.223 1.223 0 0 1-.232.023" fill="#073B4C"/>
        <path d="M35.519 16.61a.112.112 0 0 0-.028.004c-.052.013-.08.066-.093.108-.031.097-.013.216.043.283.084.1.209.144.32.16l.002-.007c.029-.169.013-.315-.045-.414-.044-.078-.13-.133-.2-.133zm.375 1.051c-.343 0-.631-.12-.817-.341a.807.807 0 0 1-.132-.75.614.614 0 0 1 .435-.428c.276-.068.592.082.75.356.116.201.152.457.103.74a1.38 1.38 0 0 1-.07.266.238.238 0 0 1-.213.156l-.056.001z" fill="#073B4C"/>
        <path d="M34.583 18.651h-.04a.243.243 0 0 1-.235-.246.238.238 0 0 1 .236-.24h.004c.487.018.998-.343 1.169-.83a.236.236 0 0 1 .304-.146.244.244 0 0 1 .145.31c-.236.673-.897 1.152-1.583 1.152M14.287 20.482a.237.237 0 0 1-.198-.107c-.289-.435-.632-.676-1.02-.718-.792-.083-1.553.655-1.56.662a.235.235 0 0 1-.338-.005.246.246 0 0 1 .005-.343c.038-.038.931-.905 1.94-.797.536.056.996.369 1.368.929a.246.246 0 0 1-.064.337.236.236 0 0 1-.133.042M8.46 20.352a.238.238 0 0 1-.21-.127c-.232-.435-.503-.67-.804-.701-.592-.058-1.171.639-1.177.646a.236.236 0 0 1-.336.03.246.246 0 0 1-.03-.34c.03-.038.74-.902 1.588-.82.468.047.865.367 1.178.952a.245.245 0 0 1-.095.33.234.234 0 0 1-.114.03" fill="#073B4C"/>
        <path d="M26.63 2.57c.178 0 .325.146.34.335l.002.033v.89c0 .204-.154.37-.343.37-.178 0-.325-.148-.34-.336l-.002-.034v-.89c0-.204.153-.369.342-.369zm1.578-.698c.2 0 .362.156.362.348a.354.354 0 0 1-.329.348l-.033.001h-.874a.356.356 0 0 1-.362-.349c0-.182.144-.33.329-.347l.033-.001h.874zm-2.283 0c.2 0 .362.156.362.348a.354.354 0 0 1-.33.348l-.032.001h-.874a.356.356 0 0 1-.363-.349c0-.182.145-.33.33-.347l.033-.001h.874zm.704-1.628c.179 0 .326.147.341.335l.002.034v.89c0 .204-.154.369-.343.369-.178 0-.325-.148-.34-.336l-.002-.033v-.89c0-.204.153-.37.342-.37z" fill="#F4D77D"/>
        <g transform="translate(24.689 .244)">
            <mask id="xwh33pko1b" fill="#fff">
                <use xlink:href="#8xhe06bida"/>
            </mask>
            <path fill="#F4D77D" mask="url(#xwh33pko1b)" d="M-91.49 130.453h199.615V-448.96H-91.49z"/>
            <path fill="#F4D77D" mask="url(#xwh33pko1b)" d="M-2.772 6.777h9.426v-9.6h-9.426z"/>
        </g>
        <path d="M2.882 17.934c.178 0 .325.148.341.336l.002.033v.89c0 .204-.154.37-.343.37-.179 0-.325-.148-.341-.336l-.002-.034v-.89c0-.204.154-.369.343-.369zm1.579-.697c.2 0 .362.156.362.348a.354.354 0 0 1-.33.348l-.032.001h-.875a.355.355 0 0 1-.361-.349c0-.182.144-.33.328-.347l.033-.001h.875zm-2.283 0c.2 0 .361.156.361.348a.354.354 0 0 1-.328.348l-.033.001h-.875a.356.356 0 0 1-.362-.349c0-.182.145-.33.33-.347l.032-.001h.875zm.704-1.628c.178 0 .325.147.341.335l.002.034v.89c0 .204-.154.369-.343.369-.179 0-.325-.147-.341-.336l-.002-.033v-.89c0-.204.154-.37.343-.37z" fill="#F4D77D"/>
        <g transform="translate(.941 15.61)">
            <mask id="sugt7au19d" fill="#fff">
                <use xlink:href="#10jwl61urc"/>
            </mask>
            <path fill="#F4D77D" mask="url(#sugt7au19d)" d="M-91.49 130.452h199.615V-448.96H-91.49z"/>
            <path fill="#F4D77D" mask="url(#sugt7au19d)" d="M-2.773 6.776h9.427v-9.6h-9.427z"/>
        </g>
        <path d="M36.626 11.685c.082.083.092.21.027.29l-.012.015-.343.349c-.079.08-.213.073-.3-.015-.081-.083-.092-.21-.026-.29l.012-.015.343-.349c.079-.08.213-.073.3.015zm.956.335c.078.08.072.216-.015.304-.082.083-.206.094-.285.027l-.014-.012-.343-.35c-.078-.08-.072-.216.015-.304.081-.083.206-.094.285-.027l.013.012.344.35zm-.941-.959c.078.08.072.216-.015.305-.082.083-.206.093-.285.027l-.014-.012-.343-.35c-.078-.08-.072-.216.015-.304.082-.084.205-.094.285-.028l.014.013.343.35zm.926-.334c.082.083.092.21.027.29l-.012.014-.343.35c-.08.08-.213.073-.3-.015-.08-.084-.091-.21-.026-.291l.012-.014.343-.35c.078-.08.212-.073.299.016z" fill="#F4D77D"/>
        <g transform="translate(35.929 10.656)">
            <mask id="6iepmrijif" fill="#fff">
                <use xlink:href="#2buaxactxe"/>
            </mask>
            <path fill="#F4D77D" mask="url(#6iepmrijif)" d="M-103.944 132.451H95.67v-579.413h-199.615z"/>
        </g>
        <g transform="translate(35.929 10.656)">
            <mask id="imvhgd6imh" fill="#fff">
                <use xlink:href="#qnd314mdxg"/>
            </mask>
            <path fill="#F4D77D" mask="url(#imvhgd6imh)" d="M.854-4.721 6.343.869.853 6.46-4.634.87z"/>
        </g>
        <path d="M5.892 7.384c.081.083.092.21.026.29l-.012.014-.343.35c-.078.08-.212.073-.299-.015-.082-.084-.092-.21-.027-.291l.013-.014.343-.35c.078-.08.212-.072.299.016zm.955.334c.079.08.072.216-.015.305-.081.083-.205.094-.285.027l-.013-.012-.343-.35c-.079-.08-.072-.216.014-.304.082-.084.206-.094.286-.028l.013.013.343.35zm-.94-.958c.078.08.071.216-.015.304-.082.084-.206.094-.286.028l-.013-.013-.343-.35c-.079-.079-.072-.215.014-.304.082-.083.206-.094.286-.027l.013.012.343.35zm.925-.335c.082.083.093.21.028.291l-.013.014-.343.35c-.078.079-.212.072-.299-.016-.081-.083-.092-.21-.027-.29l.013-.014.342-.35c.08-.08.213-.073.3.015z" fill="#F4D77D"/>
        <g transform="translate(5.195 6.355)">
            <mask id="5kw09spq7j" fill="#fff">
                <use xlink:href="#i6j93gizgi"/>
            </mask>
            <path fill="#F4D77D" mask="url(#5kw09spq7j)" d="M-103.944 132.451H95.67v-579.413h-199.615z"/>
        </g>
        <g transform="translate(5.195 6.355)">
            <mask id="0b444stf2l" fill="#fff">
                <use xlink:href="#afhu22993k"/>
            </mask>
            <path fill="#F4D77D" mask="url(#0b444stf2l)" d="M.854-4.721 6.343.869.853 6.46-4.634.87z"/>
        </g>
        <path d="M37.348 27.264a.362.362 0 0 1 .008.483l-.022.025-.618.63c-.141.143-.365.15-.498.014a.362.362 0 0 1-.008-.483l.022-.025.618-.63a.348.348 0 0 1 .498-.014zm1.6.644a.364.364 0 0 1 .014.508.346.346 0 0 1-.473.008l-.025-.022-.618-.63a.364.364 0 0 1-.014-.508.346.346 0 0 1 .474-.008l.024.023.619.63zm-1.614-1.644c.141.144.148.37.014.507a.346.346 0 0 1-.474.009l-.024-.023-.619-.63a.364.364 0 0 1-.013-.507.346.346 0 0 1 .473-.009l.025.023.618.63zm1.628-.644a.362.362 0 0 1 .009.483l-.023.025-.618.629a.348.348 0 0 1-.498.014.362.362 0 0 1-.008-.483l.022-.024.618-.63a.348.348 0 0 1 .498-.014z" fill="#F4D77D"/>
        <g transform="translate(36.121 25.522)">
            <mask id="onmmwd98nn" fill="#fff">
                <use xlink:href="#k49zup5jom"/>
            </mask>
            <path fill="#F4D77D" mask="url(#onmmwd98nn)" d="M-114.142 124.325H85.473V-455.09h-199.615z"/>
        </g>
        <g transform="translate(36.121 25.522)">
            <mask id="ff5u0kun5p" fill="#fff">
                <use xlink:href="#cv1h4wt9eo"/>
            </mask>
            <path fill="#F4D77D" mask="url(#ff5u0kun5p)" d="m1.469-5.293 6.665 6.789L1.47 8.284l-6.666-6.788z"/>
        </g>
        <path d="M18.897 5.896c.116 0 .21.082.221.187v.512c0 .113-.098.205-.221.205-.115 0-.21-.082-.22-.186l-.002-.019v-.494c0-.113.1-.205.222-.205zm.908-.451c.11 0 .2.1.2.225 0 .118-.08.215-.181.226h-.504c-.11 0-.201-.1-.201-.226 0-.117.08-.214.182-.224l.019-.001h.485zm-1.33 0c.11 0 .2.1.2.225 0 .118-.08.215-.182.226h-.504c-.11 0-.2-.1-.2-.226 0-.117.08-.214.182-.224l.018-.001h.485zm.422-.904c.116 0 .21.082.221.186v.513c0 .113-.098.205-.221.205-.115 0-.21-.082-.22-.187l-.002-.018v-.494c0-.113.1-.205.222-.205z" fill="#F4D77D"/>
        <g transform="translate(17.788 4.541)">
            <mask id="0au6xhuqsr" fill="#fff">
                <use xlink:href="#00pmolz84q"/>
            </mask>
            <path fill="#F4D77D" mask="url(#0au6xhuqsr)" d="M-120.878 123.111H78.737v-579.413h-199.615z"/>
            <path fill="#F4D77D" mask="url(#0au6xhuqsr)" d="M-2.772 5.083H4.99v-7.907h-7.763z"/>
        </g>
        <g>
            <path d="M2.679 27.4c.531-.726 2.12-.437 3.548.646 1.427 1.083 2.154 2.55 1.622 3.277-.531.727-2.12.439-3.547-.645-1.429-1.083-2.155-2.55-1.623-3.278" fill="#F4D77D"/>
            <path d="M3.66 27.24c-.365 0-.645.106-.79.306-.396.54.142 1.85 1.574 2.938.661.501 1.375.841 2.01.957.568.103 1.007.007 1.204-.263.198-.27.162-.725-.098-1.25-.29-.586-.814-1.186-1.476-1.687-.906-.687-1.793-1-2.423-1m3.218 4.727c-.16 0-.33-.017-.51-.05-.705-.128-1.49-.499-2.21-1.045-1.557-1.181-2.291-2.77-1.672-3.618.62-.847 2.325-.585 3.882.596.72.546 1.294 1.206 1.617 1.858.35.705.369 1.33.054 1.76-.24.328-.643.499-1.161.499" fill="#073B4C"/>
        </g>
        <g transform="translate(4.235 28.463)">
            <mask id="cb1wpf5j3t" fill="#fff">
                <use xlink:href="#8xtov9ja9s"/>
            </mask>
            <path fill="#073B4C" mask="url(#cb1wpf5j3t)" d="M1.712 3.087-1.225.858l1.57-2.146L3.282.94z"/>
        </g>
    </g>
</svg>
