<svg xmlns="http://www.w3.org/2000/svg" width="31" height="24" viewBox="0 0 31 24">
    <g fill="none" fill-rule="evenodd">
        <g>
            <g>
                <g fill="#200E32" fill-rule="nonzero" opacity=".4">
                    <path d="M8.529 0l.255.005C13.36.155 17.016 3.932 17 8.553v.102c-.052 2.756-1.431 5.47-3.72 7.892-1.128 1.176-2.389 2.217-3.756 3.102l.01-.007-.048.04c-.547.394-1.27.422-1.843.085l-.129-.084-.06-.048-.414-.278c-1.717-1.184-3.246-2.62-4.533-4.256l-.317-.413C.842 12.92.077 10.776 0 8.526l.005-.285C.155 3.651 3.92-.016 8.529 0zm-.005 1.518l-.24.003C4.534 1.635 1.525 4.712 1.512 8.5l.019.357c.13 1.78.775 3.487 1.864 4.915 1.353 1.811 3.012 3.37 4.903 4.604l.082.062c.068.06.17.06.238 0l.085-.064c1.269-.821 2.439-1.788 3.483-2.875 2.046-2.167 3.256-4.548 3.3-6.858l-.003-.332c-.114-3.76-3.182-6.779-6.96-6.791zM8.5 5.4c1.788 0 3.238 1.455 3.238 3.248 0 1.794-1.45 3.249-3.238 3.249s-3.238-1.455-3.238-3.249c0-1.793 1.45-3.248 3.238-3.248zm0 1.518c-.953 0-1.725.775-1.725 1.73 0 .956.772 1.731 1.725 1.731.953 0 1.725-.775 1.725-1.73 0-.956-.772-1.731-1.725-1.731z" transform="translate(-16 -99) translate(16 99) translate(3.5 2)"/>
                </g>
            </g>
        </g>
    </g>
</svg>
