<svg width="28" height="22" viewBox="0 0 28 22" xmlns="http://www.w3.org/2000/svg">
    <g fill-rule="nonzero" fill="none">
        <path d="M27.732 21.734v.099h.057c.011 0 .022-.004.031-.013a.056.056 0 0 0 .012-.038.054.054 0 0 0-.012-.037.04.04 0 0 0-.03-.012h-.058zm.052-.036a.103.103 0 0 1 .062.016c.015.01.023.027.022.044a.049.049 0 0 1-.018.04.09.09 0 0 1-.05.018l.07.072h-.053l-.064-.071h-.02v.07h-.045v-.19h.097-.001zm-.014.255a.181.181 0 0 0 .124-.046.148.148 0 0 0 0-.225.18.18 0 0 0-.124-.046.18.18 0 0 0-.126.046.151.151 0 0 0 0 .226.188.188 0 0 0 .126.047m0-.364c.061 0 .12.021.163.06.02.018.038.04.05.065a.184.184 0 0 1 0 .159.212.212 0 0 1-.123.109.251.251 0 0 1-.254-.044.211.211 0 0 1-.049-.068.184.184 0 0 1 0-.158.222.222 0 0 1 .123-.11.251.251 0 0 1 .09-.016m-21.217-.73c0-.363.262-.66.69-.66.41 0 .685.284.685.66 0 .374-.276.659-.685.659-.428 0-.69-.298-.69-.66m1.841 0v-1.03H7.9v.251c-.157-.186-.395-.302-.718-.302-.638 0-1.138.453-1.138 1.082s.5 1.081 1.138 1.081c.323 0 .561-.116.718-.301v.25h.494v-1.03zm16.71 0c0-.362.262-.66.69-.66.41 0 .685.285.685.66 0 .375-.275.66-.685.66-.428 0-.69-.298-.69-.66m1.842 0V19h-.495v1.078c-.157-.186-.395-.302-.718-.302-.638 0-1.138.453-1.138 1.082s.5 1.081 1.138 1.081c.323 0 .561-.116.718-.301v.25h.495v-1.03zm-12.414-.68c.319 0 .524.18.576.5h-1.18c.053-.298.252-.5.604-.5m.01-.402c-.666 0-1.132.44-1.132 1.082 0 .655.484 1.081 1.165 1.081.343 0 .657-.077.933-.288l-.243-.332c-.19.138-.433.215-.661.215-.319 0-.61-.133-.68-.504h1.688c.005-.056.01-.112.01-.172-.005-.643-.443-1.082-1.08-1.082m5.97 1.082c0-.363.263-.66.69-.66.41 0 .686.285.686.66 0 .374-.276.659-.685.659-.428 0-.69-.297-.69-.66m1.84 0v-1.029h-.493v.251c-.158-.186-.395-.302-.719-.302-.637 0-1.137.453-1.137 1.082s.5 1.081 1.137 1.081c.324 0 .561-.116.719-.301v.25h.494v-1.031zm-4.633 0c0 .625.48 1.082 1.213 1.082.343 0 .571-.069.818-.245l-.238-.363c-.185.121-.38.186-.596.186-.394-.004-.685-.263-.685-.66 0-.396.29-.654.685-.659.215 0 .41.065.596.186l.238-.363c-.247-.176-.476-.245-.818-.245-.733 0-1.213.457-1.213 1.082m6.375-1.082a.688.688 0 0 0-.6.302v-.25h-.49v2.06h.496v-1.155c0-.34.161-.53.485-.53a.876.876 0 0 1 .309.052l.152-.422a1.15 1.15 0 0 0-.352-.057m-13.256.216c-.237-.142-.565-.216-.927-.216-.576 0-.947.25-.947.66 0 .335.276.543.785.607l.233.03c.271.035.4.1.4.216 0 .16-.18.25-.519.25-.342 0-.59-.1-.756-.216l-.233.35c.271.18.614.267.985.267.657 0 1.037-.28 1.037-.672 0-.362-.3-.552-.794-.616l-.233-.03c-.214-.026-.386-.065-.386-.203 0-.15.162-.241.433-.241.29 0 .571.099.71.176l.213-.362zm6.381-.215a.686.686 0 0 0-.599.301v-.25h-.49v2.06h.495v-1.155c0-.34.162-.53.485-.53a.876.876 0 0 1 .31.052l.152-.422a1.15 1.15 0 0 0-.353-.057m-4.22.052h-.808v-.625h-.5v.625h-.462v.41h.462v.939c0 .478.205.762.79.762.214 0 .461-.06.618-.159l-.143-.383a.988.988 0 0 1-.437.116c-.248 0-.328-.138-.328-.345v-.93H13v-.41zm-7.393 2.06v-1.293c0-.486-.343-.814-.895-.818-.29-.005-.59.077-.8.366-.156-.228-.403-.366-.751-.366-.243 0-.48.064-.666.306v-.255H2v2.06h.499v-1.142c0-.358.219-.548.557-.548.328 0 .494.194.494.543v1.146h.5v-1.142c0-.357.229-.547.557-.547.337 0 .499.194.499.543v1.146l.5.001z" fill="#231F20"/>
        <path d="M28 15v-1h-.12l-.14.686-.137-.686h-.12v1h.085v-.753l.13.65h.088l.13-.652V15H28zm-.761 0v-.829h.153v-.168H27v.168h.154V15h.084z" fill="#F79410"/>
        <path fill="#FF5F00" d="M18 16h-8V2h8z"/>
        <path d="M10.695 9c0-2.87 1.292-5.428 3.305-7.076A8.408 8.408 0 0 0 8.652 0C3.874 0 0 4.03 0 9s3.874 9 8.652 9A8.407 8.407 0 0 0 14 16.076C11.988 14.428 10.695 11.87 10.695 9" fill="#EB001B"/>
        <path d="M28 9c0 4.97-3.874 9-8.652 9A8.41 8.41 0 0 1 14 16.076c2.013-1.648 3.305-4.205 3.305-7.076 0-2.87-1.292-5.428-3.305-7.076A8.41 8.41 0 0 1 19.348 0C24.126 0 28 4.03 28 9" fill="#F79E1B"/>
    </g>
</svg>
