<svg xmlns="http://www.w3.org/2000/svg" width="24" height="24" viewBox="0 0 24 24">
    <g fill="none" fill-rule="evenodd">
        <g fill="#073B4C">
            <g>
                <g>
                    <path d="M12 0c6.627 0 12 5.373 12 12s-5.373 12-12 12S0 18.627 0 12 5.373 0 12 0zm0 1.8C6.367 1.8 1.8 6.367 1.8 12c0 5.633 4.567 10.2 10.2 10.2 5.633 0 10.2-4.567 10.2-10.2 0-5.633-4.567-10.2-10.2-10.2zm4.093 9.352c.462 0 .837.375.837.837 0 .424-.315.775-.723.83l-.114.008H7.907c-.462 0-.837-.375-.837-.838 0-.423.315-.774.723-.83l.114-.007h8.186z" transform="translate(-112.000000, -195.000000) translate(96.000000, 179.000000) translate(16.000000, 16.000000)"/>
                </g>
            </g>
        </g>
    </g>
</svg>
