<svg width="32" height="32" viewBox="0 0 32 32" xmlns="http://www.w3.org/2000/svg">
    <path d="M2.786 12.137V2.786h9.351v9.351H2.786zM.143 1.464C.143.734.735.143 1.464.143H13.46c.73 0 1.321.591 1.321 1.321V13.46c0 .73-.591 1.321-1.321 1.321H1.464c-.73 0-1.321-.591-1.321-1.321V1.464zm2.643 27.75v-9.351h9.351v9.351H2.786zM.143 18.541c0-.73.592-1.321 1.321-1.321H13.46c.73 0 1.321.591 1.321 1.321v11.995c0 .73-.591 1.321-1.321 1.321H1.464c-.73 0-1.321-.592-1.321-1.321V18.54zm19.72-15.755v9.351h9.351V2.786h-9.351zM18.54.143c-.73 0-1.321.591-1.321 1.321V13.46c0 .73.592 1.321 1.321 1.321h11.995c.73 0 1.321-.591 1.321-1.321V1.464c0-.73-.592-1.321-1.321-1.321H18.54zM7.461 6.242a1.22 1.22 0 1 0 0 2.44 1.22 1.22 0 0 0 0-2.44zm15.858 1.22a1.22 1.22 0 1 1 2.44 0 1.22 1.22 0 0 1-2.44 0zM7.462 23.318a1.22 1.22 0 1 0 0 2.44 1.22 1.22 0 0 0 0-2.44zm9.758 0a1.22 1.22 0 1 1 2.44 0 1.22 1.22 0 0 1-2.44 0zm1.423-5.998a1.321 1.321 0 0 0 0 2.643h4.625v3.965a1.321 1.321 0 1 0 2.643 0V22.2h4.625c.73 0 1.321-.592 1.321-1.322v-2.236a1.321 1.321 0 0 0-2.643 0v.915h-3.303v-.915c0-.73-.592-1.322-1.322-1.322h-5.946zm11.893 7.268c.73 0 1.321.592 1.321 1.322v4.625a1.321 1.321 0 1 1-2.643 0v-1.017H26.86a1.321 1.321 0 1 1 0-2.643h2.355v-.965c0-.73.592-1.322 1.322-1.322zm-8.59 7.268a1.321 1.321 0 0 0 0-2.643h-1.982v-1.321a1.321 1.321 0 1 0-2.643 0v2.643c0 .73.592 1.321 1.322 1.321h3.303z" fill="currentColor" fill-rule="evenodd"/>
</svg>
