<svg width="150" height="150" viewBox="0 0 150 150" xmlns="http://www.w3.org/2000/svg">
    <g fill="none" fill-rule="evenodd">
        <g fill-rule="nonzero">
            <path d="M81.535 91.842c13.717 0 24.858-11.138 24.858-24.864 0-13.727-11.141-24.865-24.858-24.865S56.676 53.251 56.676 66.978c.06 13.666 11.142 24.864 24.859 24.864z" fill="#FFF"/>
            <path d="M81.535 35.912c17.13 0 31.027 13.907 31.027 31.066 0 17.158-13.896 31.065-31.027 31.065-17.132 0-31.028-13.907-31.028-31.065 0-17.159 13.896-31.066 31.028-31.066zm0 55.93c13.717 0 24.858-11.138 24.858-24.864 0-13.727-11.141-24.865-24.858-24.865S56.676 53.251 56.676 66.978c.06 13.666 11.142 24.864 24.859 24.864zM26.547 114.117l23.3-23.359c1.977 2.71 4.373 5.057 7.069 7.104l-23.241 23.36c-.958.963-2.276 1.444-3.534 1.444s-2.576-.481-3.534-1.445c-1.977-1.986-1.977-5.177-.06-7.104z" fill="#E9F4FC"/>
            <path d="M82.018 35.25C99.653 35.25 114 49.61 114 67.213c0 17.664-14.347 31.964-31.982 31.964a31.868 31.868 0 0 1-21.76-8.592l-.537-.48-4.603 4.626.598.54c.777.721 1.554 1.322 2.33 1.923.24.18.36.42.42.721 0 .3-.06.6-.3.781l-23.194 23.312c-1.136 1.141-2.63 1.742-4.244 1.742-1.614 0-3.109-.6-4.244-1.742-1.136-1.142-1.734-2.644-1.734-4.266 0-1.622.598-3.124 1.734-4.206l23.254-23.311c.179-.18.418-.3.717-.3h.06c.299 0 .538.18.717.42.598.78 1.255 1.562 1.913 2.343l.538.6 4.663-4.626-.478-.54c-5.022-5.828-7.831-13.218-7.831-20.909 0-17.664 14.346-31.963 31.981-31.963zM50.335 92.448l-22.417 22.47c-.777.781-1.195 1.742-1.195 2.824 0 1.081.418 2.043 1.195 2.824.777.78 1.734 1.141 2.81 1.141s2.092-.42 2.81-1.141l22.417-22.47-.658-.542a31.02 31.02 0 0 1-4.424-4.446l-.538-.66zm31.743-55.275c-16.499 0-29.95 13.458-29.95 29.98 0 16.523 13.451 29.98 29.95 29.98s29.95-13.457 29.95-29.98c0-16.522-13.451-29.98-29.95-29.98zm0 4.265c14.227 0 25.765 11.596 25.765 25.775 0 14.18-11.538 25.775-25.765 25.775S56.313 81.393 56.313 67.213c0-14.179 11.538-25.775 25.765-25.775zm0 1.923c-13.092 0-23.792 10.694-23.792 23.792s10.64 23.793 23.792 23.793c13.092 0 23.792-10.695 23.792-23.793 0-13.098-10.7-23.792-23.792-23.792z" fill="#073B4C"/>
            <path d="M92.716 75.161a1.005 1.005 0 0 1-1.406.3c-5.565-3.632-12.727-3.578-18.287.172-.23.136-.478.189-.744.159a.886.886 0 0 1-.652-.425c-.203-.348-.208-.781-.013-1.084.066-.1.163-.252.279-.32 6.2-4.191 14.224-4.255 20.441-.197.584.31.707.891.382 1.395zM72.442 61.138c-.274 0-.64-.091-.914-.274-.548-.365-.822-1.186-.548-1.824a1.628 1.628 0 0 1 1.462-.912h.091c.64.09 1.188.547 1.37 1.094.183.639-.091 1.277-.548 1.642a1.545 1.545 0 0 1-.913.274zm19.673 0c-.274 0-.64-.091-.913-.274-.548-.365-.822-1.186-.548-1.824a1.628 1.628 0 0 1 1.461-.912h.092c.64.09 1.187.547 1.37 1.094.183.639-.091 1.277-.548 1.642a1.545 1.545 0 0 1-.914.274z" fill="#073B4C"/>
        </g>
        <path d="M28.085 34.411v3.407l.006.129c.062.72.63 1.283 1.323 1.283.733 0 1.328-.632 1.328-1.412V34.41l-.006-.127c-.06-.721-.63-1.284-1.322-1.284-.733 0-1.329.63-1.329 1.411zm4.061 4.82-.128.005c-.715.062-1.276.634-1.276 1.33 0 .739.629 1.335 1.404 1.335h3.393l.127-.004c.715-.061 1.276-.634 1.276-1.331 0-.738-.629-1.336-1.403-1.336h-3.393zm-8.857 0-.126.005c-.716.062-1.278.634-1.278 1.33 0 .739.63 1.335 1.404 1.335h3.392l.128-.004c.715-.061 1.276-.634 1.276-1.331 0-.738-.629-1.336-1.404-1.336H23.29zm4.796 4.082v3.408l.006.13c.062.719.63 1.283 1.323 1.283.733 0 1.328-.634 1.328-1.413v-3.408l-.006-.128c-.06-.72-.63-1.284-1.322-1.284-.733 0-1.329.633-1.329 1.412z" fill="#073B4C"/>
        <circle fill="#073B4C" cx="124.125" cy="90.375" r="3.375"/>
        <circle fill="#073B4C" cx="104.25" cy="28.5" r="2.25"/>
        <circle fill="#073B4C" cx="33.375" cy="75.375" r="4.125"/>
        <path d="M95.393 106.764v3.407l.006.127c.06.723.63 1.286 1.323 1.286.732 0 1.328-.633 1.328-1.413v-3.407l-.006-.129c-.062-.72-.631-1.283-1.322-1.283-.734 0-1.329.632-1.329 1.412zm4.061 4.82-.128.005c-.715.061-1.276.632-1.276 1.33 0 .737.629 1.335 1.404 1.335h3.392l.127-.006c.716-.06 1.277-.632 1.277-1.33 0-.737-.63-1.334-1.404-1.334h-3.392zm-8.858 0-.127.005c-.716.061-1.277.632-1.277 1.33 0 .737.63 1.335 1.404 1.335h3.393l.129-.006c.713-.06 1.275-.632 1.275-1.33 0-.737-.629-1.334-1.404-1.334h-3.393zm4.797 4.082v3.407l.006.129c.06.72.63 1.284 1.323 1.284.732 0 1.328-.631 1.328-1.413v-3.407l-.006-.127c-.062-.721-.631-1.285-1.322-1.285-.734 0-1.329.632-1.329 1.412z" fill="#073B4C"/>
    </g>
</svg>
