<svg width="200" height="200" xmlns="http://www.w3.org/2000/svg" xmlns:xlink="http://www.w3.org/1999/xlink"><defs><path d="M0 8.667a8.667 8.667 0 0 0 17.334 0A8.667 8.667 0 0 0 0 8.667z" id="a"/><path id="c" d="M0 0h92.862v40.998H0z"/><path id="e" d="M0 0h32.948v29.055H0z"/><path id="g" d="M0 0h101.924v101.924H0z"/></defs><g fill="none" fill-rule="evenodd"><path d="M101 125.962c-7.18 0-13 5.82-13 13s5.82 13 13 13c7.177-.007 12.993-5.823 13-13 0-7.18-5.82-13-13-13" fill="#003345"/><g transform="translate(92.333 130.295)"><mask id="b" fill="#fff"><use xlink:href="#a"/></mask><path fill="#FDCF63" mask="url(#b)" d="M-1 18.333h19.333V-1H-1z"/></g><g transform="translate(68.138 57.964)"><mask id="d" fill="#fff"><use xlink:href="#c"/></mask><path d="M33.362 4.35c19.744-.015 38.736 7.498 53.031 20.981a6.498 6.498 0 0 1 .249 9.251c-2.549 2.542-6.667 2.651-9.349.247-17.518-16.51-42.158-21.253-63.78-14.252l3.501 3.501c19.601-5.547 41.512-.905 57.247 13.927a11.08 11.08 0 0 0 7.875 2.99 11.073 11.073 0 0 0 7.703-3.4 10.828 10.828 0 0 0-.412-15.418C64.861-.953 29.339-5.989 0 7.064L3.335 10.4a77.453 77.453 0 0 1 30.027-6.05" fill="#003345" mask="url(#d)"/></g><g transform="translate(40 71.907)"><mask id="f" fill="#fff"><use xlink:href="#e"/></mask><path d="M15.568 22.886c-2.682 2.404-6.8 2.295-9.348-.249a6.497 6.497 0 0 1 .247-9.249A76.687 76.687 0 0 1 20.06 3.185L16.874 0a81.46 81.46 0 0 0-13.44 10.234 10.83 10.83 0 0 0-.412 15.416 11.102 11.102 0 0 0 7.995 3.405 11.032 11.032 0 0 0 7.583-2.993 59.256 59.256 0 0 1 14.348-9.988l-3.25-3.25a63.69 63.69 0 0 0-14.13 10.062" fill="#003345" mask="url(#f)"/></g><path d="M46.467 85.295a6.498 6.498 0 0 0-.247 9.25c2.548 2.543 6.666 2.652 9.348.248a63.69 63.69 0 0 1 14.13-10.062l-9.64-9.639a76.724 76.724 0 0 0-13.591 10.203m98.963 7.498c2.683 2.404 6.8 2.295 9.349-.247a6.497 6.497 0 0 0-.25-9.251c-14.293-13.482-33.285-20.996-53.03-20.981a77.45 77.45 0 0 0-30.026 6.049L81.65 78.542c21.62-7.002 46.26-2.26 63.78 14.25m-12.767 24.827a6.605 6.605 0 0 0 0-9.343 44.045 44.045 0 0 0-31.16-12.913c-.979 0-1.952.044-2.923.109l16.06 16.059a30.74 30.74 0 0 1 8.671 6.088 6.772 6.772 0 0 0 9.352 0m-64.321-7.343a6.605 6.605 0 0 0 2.967 11.055 6.617 6.617 0 0 0 6.387-1.712 30.637 30.637 0 0 1 18.077-8.813l-10.93-10.928a44.014 44.014 0 0 0-16.501 10.398" fill="#FDD068"/><path d="M127.989 123.96h-.009.009zm-30.413-11.351-1.803-1.803a30.645 30.645 0 0 0-18.077 8.813 6.614 6.614 0 0 1-11.064-2.96 6.605 6.605 0 0 1 1.71-6.383 44.018 44.018 0 0 1 16.503-10.398l-1.752-1.752-1.66-1.66a48.428 48.428 0 0 0-16.205 10.696c-.68.68-1.256 1.438-1.728 2.248a11.004 11.004 0 0 0 0 11.083 11.005 11.005 0 0 0 4.638 4.303c.647.32 1.319.6 2.032.79 2.628.705 5.369.382 7.736-.79a10.993 10.993 0 0 0 2.909-2.06 26.276 26.276 0 0 1 18.69-7.753c.139 0 .273-.016.404-.041l-2.333-2.333zm40.091-4.906a10.973 10.973 0 0 0-1.894-2.541 48.43 48.43 0 0 0-22.32-12.7 48.446 48.446 0 0 0-11.952-1.5c-2.332 0-4.646.173-6.927.503l.997.997 1.18 1.18 1.83 1.83c.97-.064 1.943-.11 2.922-.11a44.051 44.051 0 0 1 31.16 12.914 6.605 6.605 0 0 1 0 9.343 6.772 6.772 0 0 1-9.351 0 30.769 30.769 0 0 0-8.671-6.088l7.756 7.757 3.508 3.508 1.119 1.119c.319.027.639.046.96.045a11.01 11.01 0 0 0 4.916-1.164 11.006 11.006 0 0 0 4.767-4.613c.179-.33.348-.668.494-1.02a11.005 11.005 0 0 0-.494-9.46" fill="#003345"/><g transform="translate(44.038 48)"><mask id="h" fill="#fff"><use xlink:href="#g"/></mask><path d="M100.46 93.388 82.986 75.914l-1.12-1.118-3.507-3.509-7.756-7.756-16.06-16.06-1.83-1.828-1.18-1.18-.997-.998-9.422-9.423-3.501-3.5-10.178-10.179L24.1 17.03 8.536 1.464a5 5 0 0 0-7.071 0 5 5 0 0 0 0 7.072l13.37 13.37 3.187 3.187 9.639 9.638 3.249 3.25 6.48 6.481 2.005 2.005 1.66 1.659 1.752 1.752 10.928 10.928 1.803 1.803 2.333 2.333 9.854 9.854 25.664 25.663a5 5 0 0 0 7.07 0 5 5 0 0 0 0-7.07" fill="#003345" mask="url(#h)"/></g><g transform="translate(43 13)" fill="#052C50" fill-rule="nonzero"><path d="M70.661 13.12a2.617 2.617 0 0 1-2.61-2.623V2.624A2.617 2.617 0 0 1 70.66 0a2.617 2.617 0 0 1 2.61 2.624v7.873a2.617 2.617 0 0 1-2.61 2.624zm0 18.37a2.617 2.617 0 0 1-2.61-2.624v-7.873a2.617 2.617 0 0 1 2.61-2.624 2.617 2.617 0 0 1 2.61 2.624v7.873a2.617 2.617 0 0 1-2.61 2.624zM65.44 18.369h-7.83A2.617 2.617 0 0 1 55 15.745a2.617 2.617 0 0 1 2.61-2.624h7.83a2.617 2.617 0 0 1 2.61 2.624 2.617 2.617 0 0 1-2.61 2.624zm18.272 0h-7.83a2.617 2.617 0 0 1-2.61-2.624 2.617 2.617 0 0 1 2.61-2.624h7.83a2.617 2.617 0 0 1 2.61 2.624 2.617 2.617 0 0 1-2.61 2.624zM9.5 133c-.828 0-1.5-.716-1.5-1.6v-4.8c0-.884.672-1.6 1.5-1.6s1.5.716 1.5 1.6v4.8c0 .884-.672 1.6-1.5 1.6zm0 11c-.828 0-1.5-.716-1.5-1.6v-4.8c0-.884.672-1.6 1.5-1.6s1.5.716 1.5 1.6v4.8c0 .884-.672 1.6-1.5 1.6zm-3.1-8H1.6c-.884 0-1.6-.672-1.6-1.5s.716-1.5 1.6-1.5h4.8c.884 0 1.6.672 1.6 1.5s-.716 1.5-1.6 1.5zm10.827 0h-4.8c-.883 0-1.6-.672-1.6-1.5s.717-1.5 1.6-1.5h4.8c.884 0 1.6.672 1.6 1.5s-.716 1.5-1.6 1.5z"/><ellipse cx="21.763" cy="23.738" rx="2.61" ry="2.624"/><ellipse cx="114.678" cy="114.731" rx="2.61" ry="2.624"/><ellipse cx="123.39" cy="18.121" rx="2.61" ry="2.624"/></g></g></svg>