<svg xmlns="http://www.w3.org/2000/svg" width="24" height="24" viewBox="0 0 24 24">
    <g fill="none" fill-rule="evenodd">
        <g fill="currentColor">
            <g>
                <g>
                    <g>
                        <path d="M5.83 12.82c1.444-.126 2.896-.126 4.34 0l.46.04c.631.062 1.257.16 1.873.29 1.57.324 2.711.898 3.216 1.963.375.792.375 1.711 0 2.503-.506 1.068-1.661 1.646-3.204 1.95l-.467.098c-.625.12-1.255.201-1.88.244-1.175.1-2.354.118-3.492.056-.125 0-.21 0-.284-.002l-.144-.006c-.175-.009-.336-.027-.404-.047-.791-.054-1.577-.168-2.332-.339l-.256-.053C1.828 19.2.77 18.627.281 17.615c-.186-.392-.282-.821-.281-1.252-.002-.434.095-.863.287-1.263.51-1.024 1.707-1.64 3.204-1.948.775-.166 1.561-.277 2.34-.331zm4.214 1.443c-1.36-.12-2.728-.12-4.101.001-.723.05-1.442.152-2.157.305-1.107.228-1.953.663-2.205 1.169-.092.193-.14.405-.14.623 0 .22.049.436.14.628.258.535 1.057.935 2.227 1.165l.352.074c.59.117 1.199.198 1.874.25.086.016.178.027.287.032l.394.007c1.11.06 2.223.043 3.343-.052.721-.05 1.438-.154 2.162-.315l.224-.048c1.028-.233 1.739-.614 1.973-1.108.189-.398.189-.861 0-1.26-.25-.527-1.042-.926-2.208-1.166-.71-.151-1.43-.253-2.153-.304zM8.004 0c2.934 0 5.313 2.389 5.313 5.335 0 2.947-2.379 5.335-5.313 5.335-2.934 0-5.312-2.388-5.312-5.335C2.692 2.39 5.07 0 8.004 0zm0 1.448c-2.138 0-3.87 1.74-3.87 3.887 0 2.147 1.732 3.888 3.87 3.888s3.871-1.74 3.871-3.888c0-2.147-1.733-3.887-3.87-3.887z" transform="translate(-14 -293) translate(0 277) translate(6 8) translate(8 8) translate(4 2)"/>
                    </g>
                </g>
            </g>
        </g>
    </g>
</svg>
