<svg xmlns="http://www.w3.org/2000/svg" width="37" height="36" viewBox="0 0 37 36">
    <g fill="none" fill-rule="evenodd">
        <g fill="#FFF">
            <g>
                <g>
                    <path d="M7.875 21H14.5l-1.367 12.932c-.006.039-.008.154-.008.193 0 1.033.841 1.875 1.875 1.875.588 0 1.149-.282 1.521-.78L29.625 16.5c.241-.323.375-.721.375-1.125 0-1.033-.841-1.875-1.875-1.875h-8.109l1.35-11.403c.004-.043.007-.179.007-.222C21.375.842 20.533 0 19.5 0c-.588 0-1.149.282-1.533.797L6.377 17.999c-.244.32-.377.72-.377 1.126C6 20.159 6.842 21 7.875 21zM18.953 3.36l-1.319 11.133c-.037.319.063.638.276.878.213.24.52.379.842.379h8.655L15.523 32.724l1.347-12.732c.033-.317-.069-.634-.281-.871-.215-.236-.52-.37-.839-.37H8.582l10.37-15.392z" transform="translate(-568 -291) translate(558.408 281) translate(10 10)"/>
                </g>
            </g>
        </g>
    </g>
</svg>
