<svg xmlns="http://www.w3.org/2000/svg" width="21" height="20" viewBox="0 0 21 20">
    <g fill="none" fill-rule="evenodd">
        <g fill="#FFF">
            <g>
                <g>
                    <path d="M10.002 1.667l.286.004c3.931.131 7.462 2.897 9.509 7.381l.14.314c.083.19.084.405.002.595-2.068 4.783-5.8 7.706-9.941 7.706l-.286-.005C5.775 17.53 2.246 14.76.204 10.283l-.143-.322c-.081-.188-.081-.4 0-.588 2.068-4.783 5.8-7.706 9.941-7.706zm.007 1.49c-3.318 0-6.398 2.283-8.282 6.176l-.157.333.17.36c1.786 3.675 4.643 5.913 7.74 6.132l.267.014.257.003.255-.003c3.298-.12 6.34-2.505 8.16-6.482l.01-.024c-1.776-3.894-4.717-6.264-7.914-6.49l-.267-.015zm-.01 2.623c2.161 0 3.912 1.74 3.912 3.887 0 2.146-1.751 3.886-3.912 3.886-2.16 0-3.91-1.74-3.91-3.886 0-2.147 1.75-3.887 3.91-3.887zm0 1.49c-1.331 0-2.41 1.073-2.41 2.397 0 1.323 1.079 2.395 2.41 2.395 1.333 0 2.412-1.072 2.412-2.395 0-1.324-1.08-2.397-2.412-2.397z" transform="translate(-82 -113) translate(15.157 104) translate(67 9)"/>
                </g>
            </g>
        </g>
    </g>
</svg>
