<svg xmlns="http://www.w3.org/2000/svg" width="24" height="24" viewBox="0 0 24 24">
    <g fill="none" fill-rule="evenodd">
        <g fill="currentColor">
            <g>
                <g>
                    <g>
                        <path d="M10 0c5.523 0 10 4.478 10 10 0 5.523-4.477 10-10 10-5.522 0-10-4.478-10-10S4.478 0 10 0zm0 1.5c-4.694 0-8.5 3.806-8.5 8.5s3.806 8.5 8.5 8.5 8.5-3.806 8.5-8.5-3.806-8.5-8.5-8.5zm.005 11.546c.414 0 .75.336.75.75 0 .38-.282.694-.648.743l-.112.007c-.414 0-.75-.336-.75-.75 0-.38.282-.693.648-.743l.112-.007zm-.01-7.592c.38 0 .693.282.743.649l.007.101v4.42c0 .414-.336.75-.75.75-.38 0-.693-.283-.743-.649l-.007-.102V6.204c0-.414.336-.75.75-.75z" transform="translate(-14 -401) translate(0 385) translate(6 8) translate(8 8) translate(2 2)"/>
                    </g>
                </g>
            </g>
        </g>
    </g>
</svg>
