<svg xmlns="http://www.w3.org/2000/svg" width="20" height="20" viewBox="0 0 20 20">
    <g fill="none" fill-rule="evenodd">
        <g fill="currentColor">
            <g>
                <g>
                    <path d="M10 0c.86 0 1.57.64 1.683 1.469l.015.23V8.3h6.604C19.24 8.3 20 9.062 20 10c0 .86-.639 1.571-1.468 1.684l-.23.015h-6.604v6.602c0 .938-.76 1.699-1.698 1.699-.86 0-1.57-.64-1.683-1.469l-.015-.23v-6.602H1.698C.76 11.7 0 10.94 0 10c0-.86.639-1.571 1.468-1.684l.23-.015L8.302 8.3V1.7C8.302.76 9.062 0 10 0z" transform="translate(-307 -562) translate(289 544) translate(18 18)"/>
                </g>
            </g>
        </g>
    </g>
</svg>
