<svg xmlns="http://www.w3.org/2000/svg" width="25" height="24" viewBox="0 0 25 24">
    <g fill="none" fill-rule="evenodd">
        <g fill="#073B4C">
            <g>
                <g>
                    <path d="M5.383 19c.568 0 1.028.448 1.028 1s-.46 1-1.028 1c-.568 0-1.029-.448-1.029-1s.46-1 1.029-1zm4.411 0c.568 0 1.029.448 1.029 1s-.46 1-1.029 1c-.568 0-1.028-.448-1.028-1s.46-1 1.028-1zm8.823 0c.568 0 1.029.448 1.029 1s-.46 1-1.029 1c-.568 0-1.028-.448-1.028-1s.46-1 1.028-1zm-4.411 0c.568 0 1.028.448 1.028 1s-.46 1-1.028 1c-.568 0-1.029-.448-1.029-1s.46-1 1.029-1zM1 3c.552 0 1 .448 1 1v16c0 .552-.448 1-1 1s-1-.448-1-1V4c0-.552.448-1 1-1zm22 0c.552 0 1 .448 1 1v16c0 .552-.448 1-1 1s-1-.448-1-1V4c0-.552.448-1 1-1zM5.354 3c.553 0 1 .448 1 1v12c0 .552-.447 1-1 1-.552 0-1-.448-1-1V4c0-.552.448-1 1-1zm4.412 0c.552 0 1 .448 1 1v12c0 .552-.448 1-1 1-.553 0-1-.448-1-1V4c0-.552.447-1 1-1zm8.823 0c.552 0 1 .448 1 1v12c0 .552-.448 1-1 1-.553 0-1-.448-1-1V4c0-.552.447-1 1-1zm-4.412 0c.552 0 1 .448 1 1v12c0 .552-.448 1-1 1s-1-.448-1-1V4c0-.552.448-1 1-1z" transform="translate(-253 -154) translate(187 139) translate(66.5 15)"/>
                </g>
            </g>
        </g>
    </g>
</svg>
