<svg xmlns="http://www.w3.org/2000/svg" width="15" height="14" viewBox="0 0 15 14">
    <g fill="none" fill-rule="evenodd">
        <g fill="#2851E7">
            <g>
                <g>
                    <path d="M7 0c3.866 0 7 3.134 7 7s-3.134 7-7 7-7-3.134-7-7 3.134-7 7-7zm0 1.05C3.714 1.05 1.05 3.714 1.05 7S3.714 12.95 7 12.95s5.95-2.664 5.95-5.95S10.286 1.05 7 1.05zm0 3.07c.247 0 .452.184.484.422l.004.066v1.897h1.9c.27 0 .488.22.488.489 0 .247-.184.451-.422.484l-.066.004h-1.9v1.897c0 .27-.218.489-.488.489-.247 0-.452-.184-.484-.423l-.004-.066-.001-1.897H4.612c-.27 0-.488-.218-.488-.488 0-.247.184-.452.422-.484l.066-.005h1.899V4.608c0-.27.22-.488.489-.488z" transform="translate(-71 -403) translate(71.5 402) translate(0 1)"/>
                </g>
            </g>
        </g>
    </g>
</svg>
