<svg xmlns="http://www.w3.org/2000/svg" width="19" height="19" viewBox="0 0 19 19">
    <defs>
        <filter id="kgw24rczaa">
            <feColorMatrix in="SourceGraphic" values="0 0 0 0 0.027451 0 0 0 0 0.231373 0 0 0 0 0.298039 0 0 0 1.000000 0"/>
        </filter>
    </defs>
    <g fill="none" fill-rule="evenodd">
        <g>
            <g>
                <g>
                    <g filter="url(#kgw24rczaa)" transform="translate(-222 -580) translate(0 476) translate(187.965 92.71) translate(34.976 12)">
                        <path fill="currentColor" fill-rule="nonzero" d="M14.12 10.27c-1.273 0-2.396.628-3.097 1.584l-3.505-1.753c.108-.355.184-.725.184-1.115s-.076-.76-.184-1.116l3.505-1.753c.701.956 1.824 1.585 3.098 1.585 2.123 0 3.85-1.727 3.85-3.851 0-2.124-1.727-3.851-3.85-3.851-2.124 0-3.851 1.727-3.851 3.851 0 .39.075.76.184 1.116L6.949 6.719c-.701-.955-1.824-1.584-3.098-1.584C1.727 5.135 0 6.862 0 8.985c0 2.124 1.727 3.852 3.851 3.852 1.274 0 2.397-.629 3.098-1.585l3.505 1.753c-.109.356-.184.725-.184 1.116 0 2.123 1.727 3.85 3.85 3.85 2.124 0 3.852-1.727 3.852-3.85 0-2.124-1.728-3.851-3.851-3.851zm0-8.986c1.417 0 2.568 1.152 2.568 2.567 0 1.415-1.152 2.567-2.567 2.567-1.416 0-2.568-1.152-2.568-2.567 0-1.415 1.152-2.567 2.568-2.567zM3.852 11.554c-1.416 0-2.567-1.153-2.567-2.568S2.435 6.418 3.85 6.418c1.416 0 2.567 1.153 2.567 2.568s-1.151 2.567-2.567 2.567zm10.27 5.134c-1.416 0-2.568-1.152-2.568-2.567 0-1.416 1.152-2.568 2.568-2.568 1.416 0 2.567 1.152 2.567 2.568 0 1.415-1.151 2.567-2.567 2.567z"/>
                    </g>
                </g>
            </g>
        </g>
    </g>
</svg>
