<svg xmlns="http://www.w3.org/2000/svg" width="20" height="20" viewBox="0 0 20 20">
    <g fill="none" fill-rule="evenodd">
        <g fill="#ffffff">
            <g>
                <path d="M10 0c5.523 0 10 4.477 10 10s-4.477 10-10 10S0 15.523 0 10 4.477 0 10 0zm0 1.5c-4.695 0-8.5 3.805-8.5 8.5s3.805 8.5 8.5 8.5 8.5-3.805 8.5-8.5-3.805-8.5-8.5-8.5zm-.338 3.596c.38 0 .693.283.743.649l.007.101v4.42l3.404 2.032c.326.195.45.598.306.938l-.046.09c-.195.327-.598.452-.938.307l-.09-.047-3.77-2.249c-.195-.115-.325-.312-.358-.532l-.008-.112V5.846c0-.414.335-.75.75-.75z" transform="translate(-25 -291) translate(25 291)"/>
            </g>
        </g>
    </g>
</svg>
