<svg xmlns="http://www.w3.org/2000/svg" width="26" height="26" viewBox="0 0 26 26">
    <g fill="none" fill-rule="evenodd">
        <g fill="currentColor">
            <g>
                <g>
                    <g>
                        <g>
                            <path d="M18.444 1.083C22.617 1.083 26 4.421 26 8.54v8.922c0 4.118-3.383 7.456-7.556 7.456H7.556C3.383 24.917 0 21.579 0 17.46V8.539c0-4.118 3.383-7.456 7.556-7.456zm0 1.865H7.556c-3.13 0-5.666 2.503-5.666 5.591v8.922c0 3.088 2.536 5.591 5.666 5.591h10.888c3.13 0 5.666-2.503 5.666-5.591v-.348l-4.155.001c-2.394-.001-4.334-1.915-4.336-4.278 0-2.283 1.814-4.148 4.099-4.271l.237-.007h4.155V8.54c0-3.014-2.417-5.471-5.443-5.587l-.223-.004zm5.666 7.474l-4.154.001c-1.352 0-2.447 1.081-2.447 2.413 0 1.27.994 2.31 2.255 2.406l.191.008h4.155v-4.828zm-3.578 1.405c.522 0 .945.418.945.933 0 .472-.355.862-.816.924l-.129.008h-.392c-.522 0-.945-.417-.945-.932 0-.472.355-.862.817-.924l.128-.009h.392zM13.46 6.725c.522 0 .945.417.945.932 0 .472-.356.862-.817.924l-.128.008H6.659c-.522 0-.945-.417-.945-.932 0-.472.355-.862.816-.924l.129-.008h6.801z" transform="translate(-37 -200) translate(15 180) translate(15 6) translate(0 7) translate(7 7)"/>
                        </g>
                    </g>
                </g>
            </g>
        </g>
    </g>
</svg>
