<svg xmlns="http://www.w3.org/2000/svg" width="30" height="30" viewBox="0 0 30 30">
    <g fill="none" fill-rule="evenodd">
        <g fill="currentColor">
            <g>
                <g>
                    <path d="M18.75 0C22.202 0 25 2.798 25 6.25v17.5c0 3.452-2.798 6.25-6.25 6.25h-7.5C7.798 30 5 27.202 5 23.75V6.25C5 2.798 7.798 0 11.25 0h7.5zm0 2.5h-7.5c-1.997 0-3.63 1.561-3.744 3.53l-.006.22v17.5c0 1.997 1.561 3.63 3.53 3.744l.22.006h7.5c1.997 0 3.63-1.561 3.744-3.53l.006-.22V6.25c0-1.997-1.561-3.63-3.53-3.744l-.22-.006zm-3.748 21.067c.365.001.714.141.978.393.256.252.4.592.4.947 0 .356-.144.697-.402.952-.26.25-.612.39-.978.391-.318 0-.625-.109-.869-.304l-.017-.014h-.011l-.077-.075c-.256-.252-.402-.593-.404-.952.004-.354.149-.693.406-.947.226-.218.522-.354.836-.385l.138-.006zm-4.147-7.964l.123.004 2.457.265.09.016c.37.096.624.414.637.79l-.005.126-.02.104-.04.119c-.131.305-.415.503-.732.515l-.12-.004-.722-.077.034.042c.57.646 1.357 1.07 2.221 1.19l.262.026.243.008c1.303 0 2.496-.688 3.139-1.799.2-.345.644-.465.994-.269.35.197.474.64.273.987-.902 1.56-2.578 2.525-4.406 2.525-1.308 0-2.544-.494-3.474-1.357l-.208-.205-.092-.102-.052.512-.015.09c-.105.418-.48.69-.894.648-.415-.042-.726-.387-.744-.795l.004-.124.257-2.493.016-.09c.094-.377.41-.636.774-.652zm8.95-5.41l.071.134.05.147.014.086.263 2.444c.034.32-.12.622-.403.794l-.111.059-.149.048-.087.014-2.48.256c-.461.047-.873-.283-.92-.74-.033-.314.117-.61.39-.783l.124-.066.149-.048.086-.014.922-.095-.094-.086c-.518-.438-1.153-.723-1.833-.82l-.257-.027-.26-.01c-1.316 0-2.518.701-3.156 1.829-.197.347-.64.471-.992.278-.352-.194-.48-.635-.282-.984.895-1.583 2.584-2.567 4.43-2.567.958 0 1.882.266 2.677.754l.26.17.087.064-.032-.291c-.024-.222.043-.437.185-.607l.093-.097.11-.084.137-.07.134-.042.087-.015c.316-.034.615.111.787.37zM17.5 3.75c.69 0 1.25.56 1.25 1.25s-.56 1.25-1.25 1.25h-5c-.69 0-1.25-.56-1.25-1.25s.56-1.25 1.25-1.25h5z" transform="translate(-50 -461) translate(15 436) translate(35 25)"/>
                </g>
            </g>
        </g>
    </g>
</svg>
