<svg xmlns="http://www.w3.org/2000/svg" width="25" height="24" viewBox="0 0 25 24">
    <g fill="none" fill-rule="evenodd">
        <g fill="#073B4C">
            <g>
                <g>
                    <path d="M11.534 0c6.37 0 11.534 5.05 11.534 11.28 0 2.939-1.15 5.616-3.034 7.623l3.705 3.613c.347.34.348.89.002 1.229-.315.309-.809.337-1.157.085l-.1-.084-3.749-3.656c-1.973 1.545-4.477 2.468-7.201 2.468C5.164 22.558 0 17.508 0 11.28 0 5.05 5.164 0 11.534 0zm0 1.737c-5.389 0-9.757 4.272-9.757 9.542s4.368 9.542 9.757 9.542c5.389 0 9.757-4.272 9.757-9.542s-4.368-9.542-9.757-9.542z" transform="translate(-81 -154) translate(15 139) translate(66.5 15)" fill='#ffffff'/>
                </g>
            </g>
        </g>
    </g>
</svg>
