<svg xmlns="http://www.w3.org/2000/svg" width="24" height="24" viewBox="0 0 24 24">
    <g fill="none" fill-rule="evenodd">
        <g fill="currentColor">
            <g>
                <g>
                    <path d="M12.512 0c1.73 0 3.203 1.235 3.563 2.926l.035.199.225.081c1.226.464 2.349 1.147 3.313 2.008l.284.264.07.07.004-.074c.065-.774.64-1.402 1.383-1.532l.14-.018.146-.006c.281 0 .551.071.79.201l.145.09-.012-.177-.013-.13-.034-.263-.045-.256-.023-.104c-.091-.374.132-.753.501-.847.34-.087.683.099.81.422l.028.092.034.151.056.324c.096.626.116 1.229.048 1.784-.167 1.36-.85 2.259-1.986 2.533l-.183.038-.06.008.032.053c.721 1.278 1.154 2.695 1.263 4.173l.02.37.007.373c0 3.098-1.43 5.993-3.87 7.932l-.256.197-.26.188-.064.042-.293 1.876c-.062.395-.311.725-.66.894l-.12.05-.126.038-.14.023-.122.007h-1.576c-.358 0-.693-.165-.92-.449l-.08-.112-.066-.122-.221-.468-.19.033-.196.026-.196.023-.396.036-.395.021-.394.007c-.565 0-1.125-.043-1.68-.129l-.414-.073-.407-.088-.164-.043-.309.656c-.113.24-.3.433-.534.552l-.12.054-.128.04-.146.027-.137.009H6.896c-.492 0-.926-.31-1.103-.773l-.039-.119-.025-.12-.435-2.771-.22-.206c-.44-.425-.84-.887-1.197-1.381l-.259-.376-.203-.322-.204-.352-.059.004-.174-.008-.176-.022-.176-.037-.16-.047-.985-.335c-.775-.263-1.332-.944-1.456-1.759l-.019-.164-.006-.17v-1.565c0-.83.457-1.583 1.178-1.962l.148-.07.155-.06.613-.21.006-.03c.148-.912.422-1.797.815-2.634l.175-.356.19-.35.202-.34.068-.106-.097-.336c-.084-.274-.17-.538-.262-.792l-.14-.372-.144-.356-.151-.34-.159-.327c-.455-.905.332-1.943 1.31-1.72 1.009.23 1.837.475 2.508.747l.244.103.245.113.015-.01c.425-.258.868-.487 1.325-.683l.345-.142.323-.118.008-.05C9.197 1.443 10.516.19 12.134.02l.188-.015.19-.005zM4.005 4.574l.163.364c.273.642.517 1.35.732 2.122l.126.471-.031.164c-.783 1.081-1.306 2.317-1.526 3.625l-.05.328-.036.34-.027.35-.186-.003-.087.002-.079.012-.1.027-.985.335c-.255.086-.446.298-.513.55l-.021.111-.006.105v1.566c0 .276.137.528.349.673l.095.054.096.04.985.335c.08.027.164.04.248.04.161 0 .314-.049.441-.139l.09-.074.208-.2.11.266c.458 1.102 1.141 2.102 2.003 2.941l.264.247.255.221.065.118.476 3.036h1.283l.77-1.629.168.061c1.022.372 2.11.564 3.227.564.544 0 1.082-.045 1.607-.135l.392-.076.547-.13.632 1.345h1.284l.352-2.24.092-.137c2.63-1.612 4.257-4.407 4.257-7.47 0-3.488-2.112-6.596-5.31-8.027l-.315-.134-.016.08c-.07.262-.166.515-.29.756l-.087.156.122.045c.23.093.457.195.68.308l.33.178c.332.188.45.612.267.948-.184.339-.605.462-.94.272-.788-.446-1.64-.73-2.557-.849l-.347-.037-.356-.023-.34-.006-.344.006c-1.193.048-2.279.35-3.265.91-.334.189-.755.066-.94-.273-.183-.336-.064-.76.268-.948.327-.186.664-.348 1.01-.486l.12-.045-.107-.2c-.106-.213-.192-.438-.257-.671l-.029-.118-.16.065c-.494.21-.968.462-1.416.754l-.331.226-.113.081-.114-.08c-.525-.364-1.406-.706-2.638-1.02l-.195-.048zm2.872 6.175c.436 0 .787.359.787.799 0 .879-.702 1.595-1.568 1.595-.866 0-1.568-.716-1.568-1.595 0-.44.351-.799.787-.799.332 0 .615.208.73.502l.033.1.017.096.019-.096c.07-.279.284-.5.559-.575l.105-.02.1-.007zm14.798-5.433c-.163 0-.296.136-.296.305 0 .17.133.306.296.306.162 0 .295-.136.295-.306 0-.17-.133-.305-.295-.305zm-9.163-3.918c-1.25 0-2.266 1.035-2.266 2.315 0 .47.137.921.389 1.297l.114.157.012.012.122-.023c.264-.044.532-.078.804-.1l.444-.026c.126-.005.253-.007.381-.007.42 0 .832.025 1.235.076l.402.06.115.02c.255-.317.42-.688.484-1.08l.023-.199.007-.187c0-1.28-1.015-2.315-2.266-2.315z" transform="translate(-38 -55) translate(22 32) translate(16 23)"/>
                </g>
            </g>
        </g>
    </g>
</svg>
