<svg xmlns="http://www.w3.org/2000/svg" width="24" height="24" viewBox="0 0 24 24">
    <g fill="none" fill-rule="evenodd">
        <g fill="currentColor">
            <g>
                <g>
                    <g>
                        <path d="M14.525 0c1.514.017 2.955.658 3.988 1.773 1.032 1.116 1.566 2.609 1.478 4.086l-.002 6.237c.09 1.522-.444 3.015-1.476 4.13-1.033 1.116-2.474 1.757-3.996 1.774h-9.06C2.286 18 0 15.438 0 12.141V5.859C0 2.562 2.287 0 5.456 0zm-.017 1.528H5.456c-2.293 0-3.939 1.844-3.939 4.331v6.282c0 2.487 1.646 4.33 3.94 4.33h9.051c1.1-.012 2.145-.477 2.895-1.287.749-.81 1.136-1.893 1.07-3.043l.001-6.327c.065-1.105-.322-2.189-1.071-2.998-.75-.81-1.796-1.275-2.895-1.288zm1.516 4.11c.238.3.216.725-.036.998l-.082.077-4.107 3.31c-.998.784-2.376.823-3.416.115l-.161-.119-4.135-3.304c-.328-.263-.383-.744-.122-1.074.236-.3.652-.374.973-.187l.093.063L9.16 8.818c.463.364 1.097.392 1.58.089l.118-.083 4.1-3.305c.327-.263.804-.21 1.066.12z" transform="translate(-14 -511) translate(0 495) translate(6 8) translate(8 8) translate(2 3)"/>
                    </g>
                </g>
            </g>
        </g>
    </g>
</svg>
