<svg xmlns="http://www.w3.org/2000/svg" width="30" height="30" viewBox="0 0 30 30">
    <g fill="none" fill-rule="evenodd">
        <g fill="currentColor">
            <g>
                <path d="M25 3.75c2.761 0 5 2.239 5 5V20c0 2.761-2.239 5-5 5H5c-2.761 0-5-2.239-5-5V8.75c0-2.761 2.239-5 5-5h20zm0 2.125H5c-1.522 0-2.767 1.182-2.868 2.678l-.007.197V20c0 1.522 1.182 2.767 2.678 2.868l.197.007h20c1.522 0 2.767-1.182 2.868-2.678l.007-.197V8.75c0-1.522-1.182-2.767-2.678-2.868L25 5.875zM7.75 16.587c2.17 0 4 .352 4 1.712 0 1.361-1.843 1.701-4 1.701-2.169 0-4-.353-4-1.713s1.843-1.7 4-1.7zM25 16.25c.69 0 1.25.56 1.25 1.25s-.56 1.25-1.25 1.25H15c-.69 0-1.25-.56-1.25-1.25s.56-1.25 1.25-1.25h10zM7.75 10c1.47 0 2.647 1.177 2.647 2.646 0 1.468-1.177 2.646-2.647 2.646-1.47 0-2.647-1.178-2.647-2.646C5.103 11.177 6.281 10 7.75 10zM20 12.5c.69 0 1.25.56 1.25 1.25S20.69 15 20 15h-5c-.69 0-1.25-.56-1.25-1.25s.56-1.25 1.25-1.25h5z" transform="translate(-35 -412) translate(35 412)"/>
            </g>
        </g>
    </g>
</svg>
