<svg xmlns="http://www.w3.org/2000/svg" width="30" height="30" viewBox="0 0 30 30">
    <g fill="none" fill-rule="evenodd">
        <g fill="currentColor">
            <g>
                <g>
                    <path d="M19.394 0c.066 0 .13.005.193.016l.211.002c.315 0 .615.125.833.348l7.797 7.968c.207.21.322.492.322.784v13.843c0 3.774-3.118 7.039-6.895 7.039H9.557C5.586 30 2.5 26.888 2.5 22.96V6.783C2.5 3.065 5.728.018 9.557.018L19.2.016c.063-.01.127-.016.193-.016zm-1.155 2.281l-8.682.002c-2.573 0-4.748 2.053-4.748 4.499V22.96c0 2.69 2.067 4.774 4.748 4.774h12.298c2.467 0 4.586-2.22 4.586-4.774l-.002-12.416-1.347.005-1.747-.003c-2.724-.005-4.947-2.1-5.098-4.737l-.008-.284V2.28zm.862 17.061c.638 0 1.155.507 1.155 1.133 0 .573-.434 1.047-.998 1.122l-.157.01h-8.308c-.637 0-1.154-.507-1.154-1.132 0-.574.434-1.047.998-1.122l.156-.01h8.308zm-3.142-7.479c.637 0 1.154.507 1.154 1.133 0 .573-.434 1.047-.998 1.122l-.156.01h-5.167c-.637 0-1.154-.506-1.154-1.132 0-.573.434-1.047.998-1.122l.156-.01h5.167zm4.589-8.311v1.974c0 1.52 1.254 2.753 2.802 2.756h1.826l-4.628-4.73z" transform="translate(-195 -412) translate(172 279) translate(23 133)"/>
                </g>
            </g>
        </g>
    </g>
</svg>
