<svg xmlns="http://www.w3.org/2000/svg" xmlns:xlink="http://www.w3.org/1999/xlink" width="26" height="27" viewBox="0 0 26 27">
    <defs>
        <path id="ym11dsbeea" d="M0.093 0.183L24.788 0.183 24.788 25.431 0.093 25.431z"/>
    </defs>
    <g fill="none" fill-rule="evenodd">
        <g>
            <g>
                <g transform="translate(-37 -435) translate(37 435) translate(.242 .06)">
                    <mask id="gp18e5xr8b" fill="#fff">
                        <use xlink:href="#ym11dsbeea"/>
                    </mask>
                    <path fill="currentColor" d="M15.85 15.4c-.096-1.6-1.308-2.873-2.789-2.873H11.29c-.647 0-1.174-.579-1.174-1.29 0-.712.527-1.291 1.174-1.291h3.39c.447 0 .812-.4.812-.893 0-.492-.365-.892-.812-.892h-1.502V6.946c0-.492-.364-.893-.812-.893-.448 0-.812.4-.812.893v1.215h-.264c-.63 0-1.21.233-1.679.62L5.88 5.002c.054-.02.106-.044.155-.078 1.815-1.23 3.94-1.88 6.142-1.88 6.045 0 10.963 4.918 10.963 10.963 0 2.347-.722 4.553-2.143 6.557l-4.97-5.034c-.052-.054-.113-.095-.176-.128zm6.166 6.197c.047-.04.09-.084.127-.136 1.626-2.27 2.45-4.778 2.45-7.455 0-6.847-5.57-12.418-12.417-12.418-2.495 0-4.9.737-6.958 2.131-.127.086-.218.206-.27.339L1.339.399C1.055.113.595.111.31.392.024.674.021 1.135.303 1.421l8.44 8.552c-.16.386-.25.813-.25 1.263 0 1.697 1.254 3.077 2.797 3.077h1.771c.647 0 1.173.578 1.173 1.29 0 .711-.526 1.29-1.173 1.29h-3.39c-.448 0-.812.4-.812.893 0 .492.364.892.812.892h1.883v1.215c0 .492.364.893.812.893.448 0 .812-.4.812-.893v-1.21l.202-.024c.93-.117 1.71-.729 2.133-1.58l8.03 8.136c.142.144.33.216.517.216.185 0 .37-.07.511-.21.286-.282.29-.742.007-1.028l-2.562-2.596z" mask="url(#gp18e5xr8b)"/>
                </g>
                <path fill="currentColor" d="M3.157 7.261c-.332-.226-.784-.14-1.01.192C.742 9.515 0 11.928 0 14.43c0 6.848 5.57 12.419 12.418 12.419 2.779 0 5.408-.9 7.601-2.602.317-.246.375-.702.129-1.02-.246-.317-.703-.375-1.02-.129-1.937 1.502-4.257 2.296-6.71 2.296-6.045 0-10.963-4.918-10.963-10.964 0-2.208.655-4.337 1.894-6.157.226-.332.14-.784-.192-1.01" transform="translate(-37 -435) translate(37 435)"/>
            </g>
        </g>
    </g>
</svg>
