<svg xmlns="http://www.w3.org/2000/svg" width="30" height="30" viewBox="0 0 30 30">
    <g fill="none" fill-rule="evenodd">
        <g fill="currentColor">
            <g>
                <g>
                    <path d="M11.477 30c-3.474 0-6.31-2.811-6.47-6.34L5 23.348V6.652C5 3.084 7.737.171 11.172.008L11.477 0h7.121c3.476 0 6.312 2.81 6.471 6.34l.007.313v8.997c0 .62-.49 1.125-1.095 1.125-.555 0-1.013-.424-1.086-.973l-.01-.152V6.652c0-2.344-1.785-4.26-4.035-4.395l-.252-.007h-7.121c-2.282 0-4.148 1.833-4.279 4.144l-.007.258v16.695c0 2.345 1.785 4.262 4.034 4.396l.252.007 4.773-.001v.001h.195c.583 0 1.055.504 1.055 1.125 0 .57-.397 1.04-.912 1.115l-.143.01h-4.968zM25.4 18.974l.12.111 4.165 4.474.068.08.026.034c.098.137.168.299.2.475l.007.042c.005.031.009.063.01.094l.002.022.002.068-.001.04-.001.019v.02l.002-.079c0 .056-.004.11-.01.164l-.007.04c-.005.032-.012.064-.02.095l-.008.032c-.035.127-.09.245-.162.35l-.004.005c-.033.049-.064.087-.097.123l-.006.007-4.166 4.475c-.417.448-1.093.447-1.509-.004-.378-.41-.41-1.049-.1-1.499l.103-.128 2.333-2.509h-6.53c-.59 0-1.067-.515-1.067-1.15 0-.583.401-1.065.922-1.141l.145-.01 6.533-.001-2.335-2.506c-.38-.408-.416-1.047-.107-1.499l.103-.13c.378-.409.97-.447 1.39-.114zM15.233 4.75c.547 0 .992.49.992 1.091v1.484h1.835c.547 0 .992.49.992 1.091s-.445 1.09-.992 1.09h-4.142c-.791 0-1.434.708-1.434 1.577 0 .87.643 1.577 1.434 1.577h2.164c1.884 0 3.417 1.685 3.418 3.757 0 1.913-1.302 3.518-3.03 3.734l-.245.03v1.479c0 .6-.445 1.09-.992 1.09-.547 0-.992-.49-.992-1.09v-1.485H11.94c-.547 0-.992-.49-.992-1.09 0-.602.445-1.09.992-1.09h4.142c.79 0 1.433-.709 1.433-1.578 0-.869-.642-1.576-1.433-1.576h-2.164c-1.885 0-3.418-1.685-3.418-3.758 0-2.072 1.533-3.758 3.418-3.758h.323V5.841c0-.602.445-1.091.992-1.091z" transform="translate(-16 -435) translate(0 415) translate(16 20)"/>
                </g>
            </g>
        </g>
    </g>
</svg>
