<svg xmlns="http://www.w3.org/2000/svg" width="50" height="50" viewBox="0 0 50 50">
    <g fill="none" fill-rule="evenodd">
        <g fill="currentColor">
            <g>
                <g>
                    <path d="M35.897 0C44.375 0 50 6.042 50 14.733v20.534C50 43.958 44.375 50 35.897 50H14.103C5.625 50 0 43.958 0 35.267V14.733C0 6.05 5.64 0 14.103 0zm0 3.488H14.103c-6.48 0-10.615 4.436-10.615 11.245v20.534c0 6.818 4.121 11.245 10.615 11.245h21.794c6.494 0 10.615-4.427 10.615-11.245V14.733c0-6.818-4.121-11.245-10.615-11.245zM18.839 11.44c.883 0 1.612.656 1.728 1.507l.016.237v23.588c0 .963-.781 1.744-1.744 1.744-.883 0-1.613-.656-1.729-1.508l-.016-.236V13.184c0-.963.781-1.744 1.745-1.744zm12.5 0c.883 0 1.612.656 1.728 1.507l.016.237v23.588c0 .963-.781 1.744-1.744 1.744-.883 0-1.613-.656-1.729-1.508l-.016-.236V13.184c0-.963.781-1.744 1.745-1.744z" transform="translate(-155 -221) translate(82 81) translate(73 140)"/>
                </g>
            </g>
        </g>
    </g>
</svg>
