<svg width="20" height="20" viewBox="0 0 20 20" xmlns="http://www.w3.org/2000/svg">
    <path d="M18.418 1.879c.266.257.29.659.072.942l-.072.081-15.774 15.22a.77.77 0 0 1-1.06 0 .705.705 0 0 1-.074-.943l.073-.081 1.972-1.901c-1.419-1.25-2.608-2.92-3.494-4.91a.7.7 0 0 1 0-.573c1.026-2.292 2.45-4.161 4.158-5.457C5.947 2.937 7.943 2.23 10 2.23c1.855 0 3.656.576 5.27 1.662l2.087-2.014a.77.77 0 0 1 1.06 0zm-.37 4.65c.725.93 1.36 1.999 1.89 3.184a.7.7 0 0 1 0 .574c-2.077 4.643-5.803 7.482-9.938 7.482a9.021 9.021 0 0 1-2.77-.436.718.718 0 0 1-.473-.915.756.756 0 0 1 .948-.457c.745.24 1.516.36 2.295.36 3.305 0 6.381-2.217 8.273-5.998l.155-.322-.053-.114c-.38-.79-.81-1.515-1.285-2.167l-.241-.32a.707.707 0 0 1 .148-1.013.768.768 0 0 1 1.05.143zM10 3.68c-1.71 0-3.38.59-4.852 1.714-1.41 1.07-2.619 2.608-3.53 4.51L1.57 10l.046.097c.793 1.662 1.815 3.044 3.002 4.074l2.136-2.063A3.64 3.64 0 0 1 6.086 10c0-2.09 1.748-3.778 3.914-3.778.792 0 1.552.23 2.186.644l2.003-1.932C12.881 4.108 11.456 3.678 10 3.678zm3.137 6.14.101.011c.408.071.679.447.605.84-.287 1.542-1.544 2.757-3.14 3.037a.748.748 0 0 1-.873-.583.726.726 0 0 1 .604-.84c.981-.173 1.756-.922 1.933-1.87.067-.36.4-.61.77-.595zM10 7.67c-1.338 0-2.414 1.04-2.414 2.331 0 .376.09.734.26 1.054l3.248-3.133A2.48 2.48 0 0 0 10 7.67z" fill="#48464D" fill-rule="evenodd"/>
</svg>
