<svg xmlns="http://www.w3.org/2000/svg" width="24" height="24" viewBox="0 0 24 24">
    <g fill="none" fill-rule="evenodd">
        <g fill="currentColor">
            <g>
                <path d="M12 0c.56 0 1.024.41 1.097.943l.01.148v19.176l7.001-6.927c.432-.427 1.133-.429 1.566-.004.394.387.431.993.11 1.42l-.107.123-8.892 8.8-.038.035-.013.012.051-.047c-.04.04-.082.075-.126.108l-.016.01c-.026.02-.054.037-.082.054l-.012.006c-.047.027-.097.05-.147.07l-.059.02c-.024.008-.048.015-.073.02l-.04.01c-.025.005-.05.01-.076.013l-.05.005c-.027.003-.054.005-.08.005H11.987c-.028 0-.055-.001-.083-.004L12 24c-.05 0-.1-.003-.148-.01l-.056-.008-.078-.018-.037-.01c-.027-.008-.054-.017-.08-.027l-.04-.016c-.075-.032-.145-.072-.21-.118l-.01-.008-.02-.015c-.032-.024-.062-.05-.091-.078l-.014-.013-8.893-8.8c-.432-.427-.43-1.117.003-1.543.394-.386 1.009-.42 1.442-.102l.124.106 7.001 6.926V1.091C10.893.488 11.39 0 12 0z" transform="translate(-15 -39) translate(15 39) rotate(90 12 12)"/>
            </g>
        </g>
    </g>
</svg>
