<svg xmlns="http://www.w3.org/2000/svg" width="24" height="24" viewBox="0 0 24 24">
    <g fill="none" fill-rule="evenodd">
        <g fill="currentColor">
            <g>
                <path d="M19.007 4.129c.242-.188.59-.17.813.051.24.24.24.63 0 .87L12.87 12l6.95 6.95c.24.24.24.63 0 .87-.222.222-.571.239-.813.051l-.058-.051L12 12.87l-6.95 6.95-.057.051c-.242.188-.59.17-.813-.051-.24-.24-.24-.63 0-.87L11.13 12 4.18 5.05c-.24-.24-.24-.63 0-.87.222-.222.571-.239.813-.051l.058.051L12 11.13l6.95-6.95z" transform="translate(-282 -182) translate(282 182)"/>
            </g>
        </g>
    </g>
</svg>
