<svg xmlns="http://www.w3.org/2000/svg" width="30" height="30" viewBox="0 0 30 30">
    <g fill="none" fill-rule="evenodd">
        <g fill="currentColor">
            <g>
                <g>
                    <path d="M18.75 0C22.202 0 25 2.798 25 6.25v17.5c0 3.452-2.798 6.25-6.25 6.25h-7.5C7.798 30 5 27.202 5 23.75V6.25C5 2.798 7.798 0 11.25 0h7.5zm0 2.5h-7.5c-1.997 0-3.63 1.561-3.744 3.53l-.006.22v17.5c0 1.997 1.561 3.63 3.53 3.744l.22.006h7.5c1.997 0 3.63-1.561 3.744-3.53l.006-.22V6.25c0-1.997-1.561-3.63-3.53-3.744l-.22-.006zm-3.748 21.067c.365.001.714.141.978.393.256.252.4.592.4.947 0 .356-.144.697-.402.952-.26.25-.612.39-.978.391-.318 0-.625-.109-.869-.304l-.017-.014h-.011l-.077-.075c-.256-.252-.402-.593-.404-.952.004-.354.149-.693.406-.947.226-.218.522-.354.836-.385l.138-.006zM17.5 3.75c.69 0 1.25.56 1.25 1.25s-.56 1.25-1.25 1.25h-5c-.69 0-1.25-.56-1.25-1.25s.56-1.25 1.25-1.25h5z" transform="translate(-16 -297) translate(0 277) translate(16 20)"/>
                </g>
            </g>
        </g>
    </g>
</svg>
