<svg xmlns="http://www.w3.org/2000/svg" width="37" height="36" viewBox="0 0 37 36">
    <g fill="none" fill-rule="evenodd">
        <g fill="#073B4C">
            <g>
                <g>
                    <path d="M19.464 0c1.031 0 1.871.84 1.87 1.871 0 .044-.003.179-.008.222l-1.347 11.38h8.093c1.032 0 1.871.84 1.871 1.872 0 .404-.133.804-.377 1.126l-4.735 6.771L35.6 34.013c.438.44.438 1.15 0 1.589-.219.22-.506.33-.794.33-.287 0-.575-.112-.793-.33L.33 1.918C-.11 1.479-.11.768.33.329c.438-.438 1.15-.438 1.588 0l9.757 9.755L17.934.795c.383-.513.943-.795 1.53-.795zM8.802 14.343c.347-.513 1.045-.648 1.558-.304.515.346.651 1.044.304 1.56l-2.097 3.115h7.154c.319 0 .623.134.835.372.213.237.315.554.282.87l-1.344 12.709 4.802-6.856c.356-.508 1.057-.63 1.563-.275.508.355.632 1.056.276 1.563l-5.644 8.054c-.371.497-.932.779-1.518.779-1.032 0-1.872-.84-1.872-1.872 0-.039.002-.154.008-.193l1.365-12.906H7.862c-1.032 0-1.872-.84-1.872-1.871 0-.405.133-.804.377-1.126zm10.115-10.99l-5.623 8.35 9.926 9.925 4.135-5.909h-8.638c-.322 0-.627-.137-.84-.377-.213-.24-.313-.558-.276-.877l1.316-11.112z" transform="translate(-568 -291) translate(558.408 281) translate(10 10)"/>
                </g>
            </g>
        </g>
    </g>
</svg>
