<svg xmlns="http://www.w3.org/2000/svg" width="21" height="20" viewBox="0 0 21 20">
    <g fill="none" fill-rule="evenodd">
        <g fill="currentColor">
            <g>
                <g>
                    <path d="M10 0c5.523 0 10 4.477 10 10s-4.477 10-10 10C4.478 20 0 15.522 0 10S4.478 0 10 0zm0 1.5c-4.694 0-8.5 3.806-8.5 8.5s3.806 8.5 8.5 8.5 8.5-3.806 8.5-8.5-3.806-8.5-8.5-8.5zm.005 11.546c.414 0 .75.336.75.75 0 .38-.282.693-.648.743l-.112.007c-.414 0-.75-.336-.75-.75 0-.38.282-.694.648-.743l.112-.007zm-.01-7.592c.38 0 .694.282.743.648l.007.102v4.42c0 .413-.336.75-.75.75-.38 0-.693-.283-.743-.65l-.007-.1v-4.42c0-.414.336-.75.75-.75z" transform="translate(-137 -113) translate(15.157 104) translate(122 9)"/>
                </g>
            </g>
        </g>
    </g>
</svg>
