<svg xmlns="http://www.w3.org/2000/svg" width="15" height="15" viewBox="0 0 15 15">
    <g fill="none" fill-rule="evenodd">
        <g fill="currentColor">
            <g>
                <g>
                    <path d="M10.046 0c1.846 0 3.37 1.525 3.37 3.287v8.824c0 .106-.036.208-.103.291l-.043.047-1.48 1.41c-.097.094-.226.141-.354.141-.103 0-.206-.03-.293-.09l-.062-.05-1.124-1.072-1.123 1.072c-.095.09-.222.14-.355.14-.111 0-.218-.035-.306-.099l-.05-.041L7 12.788 5.876 13.86c-.094.09-.222.14-.355.14-.11 0-.218-.035-.305-.099l-.05-.041-1.123-1.072-1.124 1.072c-.18.171-.462.185-.659.043l-.05-.043-1.48-1.41c-.078-.075-.128-.172-.142-.276l-.005-.063V3.287C.583 1.453 2.092 0 4.033 0h6.013zm0 1.058H4.033c-1.31 0-2.32.973-2.32 2.229L1.71 7.579l.002 4.334.851.931 1.124-1.072c.094-.09.221-.14.355-.14.11 0 .218.035.305.099l.05.041 1.123 1.072 1.124-1.072c.18-.171.462-.185.658-.043l.052.043 1.124 1.072 1.123-1.072c.094-.09.222-.14.355-.14.111 0 .218.035.306.099l.05.041 1.123 1.072.852-.931V7.578l-.002.001.002-4.292c0-1.193-1.036-2.23-2.242-2.23zm.497 7.385c.298 0 .54.237.54.529 0 .267-.204.488-.467.523l-.073.005H3.46c-.298 0-.54-.236-.54-.528 0-.268.204-.49.467-.524l.073-.005h7.083zm0-2.333c.298 0 .54.236.54.528 0 .268-.204.489-.467.524l-.073.005H3.46c-.298 0-.54-.237-.54-.529 0-.267.204-.488.467-.523l.073-.005h7.083zM6.411 3.776c.298 0 .54.237.54.529 0 .268-.203.489-.466.524l-.074.005H3.46c-.298 0-.54-.237-.54-.529 0-.268.204-.489.467-.524l.073-.005H6.41z" transform="translate(-120 -424) translate(120.5 423.5) translate(0 1)"/>
                </g>
            </g>
        </g>
    </g>
</svg>
