<svg xmlns="http://www.w3.org/2000/svg" width="24" height="24" viewBox="0 0 24 24">
    <defs>
        <filter id="ckr2gk5mka">
            <feColorMatrix in="SourceGraphic" values="0 0 0 0 0.000000 0 0 0 0 0.234639 0 0 0 0 0.305337 0 0 0 1.000000 0"/>
        </filter>
    </defs>
    <g fill="none" fill-rule="evenodd">
        <g filter="url(#ckr2gk5mka)" transform="translate(-15 -511)">
            <g>
                <g fill="#003c4e">
                    <path d="M10 0c5.523 0 10 4.478 10 10 0 5.523-4.477 10-10 10-5.522 0-10-4.478-10-10S4.478 0 10 0zm0 1.5c-4.694 0-8.5 3.806-8.5 8.5s3.806 8.5 8.5 8.5 8.5-3.806 8.5-8.5-3.806-8.5-8.5-8.5zM10 14.313c.219.002.429.09.587.248.153.158.24.372.24.595 0 .224-.086.438-.242.598-.156.158-.366.246-.586.246-.191 0-.375-.068-.521-.19l-.01-.01h-.007l-.046-.047c-.154-.159-.241-.372-.243-.598.002-.223.09-.436.244-.595.135-.138.313-.223.501-.242l.083-.005zm.064-9.312l.146.008.123.011c1.43.165 2.553 1.345 2.658 2.819.102 1.403-.752 2.683-2.044 3.117l-.12.037v1.464c0 .168-.048.33-.139.469l-.048.066-.055.062c-.156.158-.366.247-.586.247-.22 0-.43-.09-.585-.249-.136-.139-.219-.32-.237-.514l-.005-.085V10.81c-.002-.655.425-1.226 1.036-1.402l.088-.023c.65-.146 1.095-.758 1.042-1.434-.046-.677-.575-1.217-1.241-1.265-.374-.028-.742.104-1.016.365-.248.234-.398.554-.421.896l-.004.103c0 .466-.372.843-.829.843-.457 0-.828-.377-.828-.844.003-.845.348-1.651.953-2.229.572-.546 1.331-.84 2.112-.82z" transform="translate(15 511) translate(2 2)"/>
                </g>
            </g>
        </g>
    </g>
</svg>
