<svg width="25" height="24" viewBox="0 0 25 24" xmlns="http://www.w3.org/2000/svg">
    <path d="M12.5 0c4.963 0 9 4.037 9 9 0 6.239-8.124 14.434-8.469 14.781a.753.753 0 0 1-1.062 0C11.624 23.435 3.5 15.239 3.5 9c0-4.963 4.037-9 9-9zm0 1.5C8.364 1.5 5 4.864 5 9c0 4.765 5.709 11.248 7.5 13.166C14.291 20.248 20 13.76 20 9c0-4.136-3.364-7.5-7.5-7.5zm0 3C14.981 4.5 17 6.519 17 9s-2.019 4.5-4.5 4.5A4.505 4.505 0 0 1 8 9c0-2.481 2.019-4.5 4.5-4.5zm0 1.5c-1.655 0-3 1.346-3 3 0 1.655 1.345 3 3 3s3-1.345 3-3c0-1.654-1.345-3-3-3z" fill="#48464D" fill-rule="evenodd"/>
</svg>
