<svg xmlns="http://www.w3.org/2000/svg" width="24" height="24" viewBox="0 0 24 24">
    <g fill="none" fill-rule="evenodd">
        <g fill="currentColor">
            <g>
                <g>
                    <path d="M12 0c6.627 0 12 5.373 12 12s-5.373 12-12 12S0 18.627 0 12 5.373 0 12 0zm0 1.8C6.367 1.8 1.8 6.367 1.8 12c0 5.633 4.567 10.2 10.2 10.2 5.633 0 10.2-4.567 10.2-10.2 0-5.633-4.567-10.2-10.2-10.2zm.006 8.552c.456 0 .832.339.892.778l.008.122v5.303c0 .497-.403.9-.9.9-.456 0-.832-.339-.892-.778l-.008-.122v-5.303c0-.497.403-.9.9-.9zm0-3.807c.497 0 .9.403.9.9 0 .456-.338.832-.778.892l-.134.008c-.497 0-.9-.403-.9-.9 0-.456.339-.832.778-.892l.134-.008z" transform="translate(-21 -588) translate(0 564) translate(21 24)"/>
                </g>
            </g>
        </g>
    </g>
</svg>
