<svg xmlns="http://www.w3.org/2000/svg" width="24" height="24" viewBox="0 0 24 24">
    <g fill="none" fill-rule="evenodd">
        <g fill="currentColor">
            <g>
                <g>
                    <path d="M6.507 20.445c1.003 0 1.818.797 1.818 1.778 0 .982-.815 1.777-1.818 1.777-1.004 0-1.817-.795-1.817-1.777 0-.98.813-1.778 1.817-1.778zm13.503 0c1.003 0 1.818.797 1.818 1.778 0 .982-.815 1.777-1.818 1.777-1.004 0-1.818-.795-1.818-1.777 0-.981.814-1.778 1.818-1.778zM.932 1.001l.122.012 2.496.422c.358.061.64.326.722.664l.02.13.283 3.288H21.49c1.467 0 2.607 1.221 2.502 2.628l-.02.177-1.138 7.696c-.21 1.41-1.4 2.472-2.836 2.562l-.197.006H6.708c-1.527 0-2.81-1.096-3.03-2.554l-.023-.192L2.557 3.054l-1.81-.306c-.45-.076-.763-.466-.746-.899l.012-.119C.091 1.291.49.985.932 1zM21.49 7.277H4.726l.723 8.416c.05.595.526 1.062 1.12 1.126l.139.007h13.094c.58 0 1.078-.384 1.223-.923l.028-.137 1.14-7.696c.056-.384-.218-.73-.597-.785l-.105-.008zm-3.613 2.577c.497 0 .9.394.9.88 0 .446-.339.814-.778.872l-.122.008H14.55c-.497 0-.9-.394-.9-.88 0-.445.34-.813.778-.872l.122-.008h3.328z" transform="translate(-227 -434) translate(202 300) translate(25 134)"/>
                </g>
            </g>
        </g>
    </g>
</svg>
