<svg width="24" height="25" viewBox="0 0 24 25" fill="none" xmlns="http://www.w3.org/2000/svg">
<path fill-rule="evenodd" clip-rule="evenodd" d="M17.6507 5.47925C17.3529 2.52466 14.9307 0.220999 11.9867 0.220999C10.4757 0.214442 9.02105 0.830226 7.94786 1.93222C7.0163 2.88879 6.43881 4.14332 6.3026 5.47925H6.30159C4.23891 5.47925 2.50593 7.04064 2.01907 9.75173L1.13805 16.7958C0.38811 21.9536 2.72857 24.2209 7.30908 24.2209H16.6849C20.9208 24.2209 23.4526 21.6653 22.9327 17.0788L22.0232 9.79895C21.4401 7.05413 19.7517 5.47925 17.7335 5.47925H17.6507ZM15.9528 5.47925C15.6651 3.48675 13.9986 1.95827 11.9832 1.95827C10.9167 1.95364 9.89232 2.38726 9.13662 3.16325C8.52306 3.79329 8.12762 4.60688 8.00057 5.47925H15.9528ZM6.30159 7.21653H17.7335C18.9171 7.21653 19.9569 8.18645 20.3651 10.0968L21.2261 17.0177C21.7385 20.6998 20.0329 22.4836 16.6849 22.4836H7.30908C3.68371 22.4836 2.22063 21.0663 2.80655 17.0355L3.6828 10.0209C4.01763 8.16357 5.06876 7.21653 6.30159 7.21653ZM15.3176 10.4406C15.7828 10.4406 16.1599 10.8295 16.1599 11.3093C16.1599 11.749 15.843 12.1125 15.4319 12.17L15.3176 12.1779H15.2662C14.801 12.1779 14.4238 11.789 14.4238 11.3093C14.4238 10.8695 14.7407 10.5061 15.1519 10.4486L15.2662 10.4406H15.3176ZM9.61126 11.3093C9.61126 10.8295 9.23413 10.4406 8.7689 10.4406H8.7175L8.6032 10.4486C8.19204 10.5061 7.87514 10.8695 7.87514 11.3093C7.87514 11.789 8.25228 12.1779 8.7175 12.1779H8.7689L8.88321 12.17C9.29436 12.1125 9.61126 11.749 9.61126 11.3093Z" fill="#052C50"/>
</svg>
