<svg xmlns="http://www.w3.org/2000/svg" width="18" height="18" viewBox="0 0 18 18">
    <g fill="none" fill-rule="evenodd">
        <g fill="currentColor">
            <g>
                <path d="M4.035.299C5.616-.237 7.328-.044 8.76.81l.237.15.241-.15C10.596 0 12.206-.216 13.722.223l.239.075c3.305 1.12 4.785 4.92 3.673 8.554-.557 1.691-1.471 3.224-2.678 4.488-1.643 1.679-3.453 3.162-5.396 4.42l-.207.135c-.21.137-.474.139-.686.006l-.22-.14C6.5 16.502 4.69 15.02 3.041 13.335 1.841 12.077.927 10.545.364 8.838-.744 5.216.73 1.418 4.034.298zM8.437 2.23C7.264 1.386 5.79 1.16 4.438 1.617 1.878 2.484.718 5.474 1.613 8.4c.492 1.492 1.299 2.845 2.352 3.948 1.573 1.609 3.307 3.029 5.165 4.23L9 16.495l.421-.28c1.47-.998 2.855-2.132 4.135-3.385l.475-.475c1.06-1.11 1.866-2.462 2.354-3.94.898-2.937-.267-5.93-2.828-6.797-1.42-.48-2.969-.205-4.166.738-.23.182-.544.185-.778.009zm4.046 1.544c1.19.4 2.033 1.52 2.138 2.837.03.381-.238.716-.6.748-.363.032-.681-.25-.712-.632-.06-.76-.546-1.405-1.226-1.634-.347-.116-.538-.506-.427-.87.11-.364.48-.565.827-.449z" transform="translate(-322 -290) translate(322 290)"/>
            </g>
        </g>
    </g>
</svg>
