<svg width="24" height="24" viewBox="0 0 24 24" xmlns="http://www.w3.org/2000/svg">
    <path d="M12.713 0c.821 0 1.607.337 2.18.934.572.598.882 1.406.857 2.16l.01.176a1.319 1.319 0 0 0 .971 1.116c.338.09.697.038 1.038-.164l.19-.1a3.014 3.014 0 0 1 3.922 1.253l.71 1.251a.874.874 0 0 1 .05.102l.065.134c.635 1.376.183 3.013-1.023 3.845l-.298.19a1.354 1.354 0 0 0-.518 1.444c.09.344.312.637.648.834l.193.126a3.074 3.074 0 0 1 1.19 1.727c.208.79.096 1.632-.315 2.349l-.764 1.291-.115.183c-.897 1.31-2.64 1.71-3.97.931l-.157-.082a1.335 1.335 0 0 0-.503-.12 1.306 1.306 0 0 0-.937.39 1.379 1.379 0 0 0-.386.994l-.01.206c-.128 1.594-1.443 2.83-3.027 2.83h-1.43a3.047 3.047 0 0 1-3.037-3.03l-.01-.177a1.284 1.284 0 0 0-.17-.506 1.309 1.309 0 0 0-.797-.623c-.336-.09-.694-.042-1.041.162l-.206.104a2.995 2.995 0 0 1-2.077.154 3.036 3.036 0 0 1-1.818-1.457l-.738-1.294-.098-.192c-.672-1.44-.146-3.172 1.191-3.956l.122-.078c.358-.25.572-.664.572-1.107a1.37 1.37 0 0 0-.695-1.186l-.18-.117c-1.29-.911-1.685-2.68-.885-4.089l.752-1.254c.836-1.473 2.689-1.982 4.114-1.152l.154.084c.157.073.328.112.493.114.725 0 1.316-.592 1.327-1.35l.01-.233c.059-.72.367-1.398.87-1.912A3.004 3.004 0 0 1 11.284 0zm0 1.737h-1.43a1.328 1.328 0 0 0-1.31 1.187h.001l-.016.366c-.12 1.595-1.432 2.847-3.037 2.847a2.944 2.944 0 0 1-1.238-.293l-.223-.119c-.635-.37-1.444-.147-1.82.514L2.89 7.493c-.345.608-.172 1.38.361 1.758l.302.194a3.112 3.112 0 0 1-.002 5.11l-.18.116c-.594.349-.823 1.102-.547 1.695l.065.128.728 1.276c.171.314.458.545.798.643.3.087.622.063.873-.05l.126-.063a2.977 2.977 0 0 1 2.3-.314c.777.211 1.439.73 1.832 1.426.21.362.344.764.396 1.226l.023.424c.073.675.635 1.2 1.32 1.2h1.43c.691 0 1.266-.54 1.32-1.2l.006-.132a3.098 3.098 0 0 1 .887-2.188 3.014 3.014 0 0 1 2.174-.9c.405.011.805.104 1.213.29l.366.19c.574.256 1.255.069 1.6-.434l.084-.133.746-1.263a1.354 1.354 0 0 0-.351-1.746l-.315-.203a3.073 3.073 0 0 1-1.23-1.754 3.111 3.111 0 0 1 1.224-3.339l.186-.119c.593-.352.822-1.105.548-1.7l-.082-.16-.015-.034-.677-1.194c-.32-.565-.986-.809-1.552-.616l-.128.052-.12.062a2.987 2.987 0 0 1-2.297.327 3.03 3.03 0 0 1-1.848-1.417 3.059 3.059 0 0 1-.397-1.226l-.015-.302a1.358 1.358 0 0 0-.375-.978 1.318 1.318 0 0 0-.952-.408zm-.71 6.341c2.134 0 3.863 1.756 3.863 3.922 0 2.166-1.73 3.922-3.862 3.922-2.133 0-3.863-1.756-3.863-3.922 0-2.166 1.73-3.922 3.863-3.922zm0 1.737c-1.187 0-2.15.979-2.15 2.185s.963 2.185 2.15 2.185c1.189 0 2.152-.979 2.152-2.185s-.963-2.185-2.151-2.185z" fill="currentColor" fill-rule="evenodd"/>
</svg>
