<svg width="24" height="24" viewBox="0 0 24 24" xmlns="http://www.w3.org/2000/svg">
    <path d="M12 1a1.825 1.825 0 0 1 1.62.973l2.714 5.256c.012.012.024.024.035.024l6.074.845a1.86 1.86 0 0 1 1.2.671c.541.7.459 1.676-.192 2.282l-4.404 4.11s-.008.008-.008.012c0 .003 0 0 .008.011l1.056 5.801c.144.944-.523 1.826-1.5 1.98a1.839 1.839 0 0 1-1.139-.185l-5.425-2.733a.087.087 0 0 0-.048.012l-5.463 2.756a1.852 1.852 0 0 1-.816.185 1.83 1.83 0 0 1-1.607-.926 1.676 1.676 0 0 1-.193-1.1l1.07-5.778a.047.047 0 0 0-.014-.035l-4.44-4.122A1.663 1.663 0 0 1 0 9.83c0-.48.2-.939.553-1.273.28-.244.625-.403.996-.464l6.06-.845c.024 0 .05-.01.05-.035l2.71-5.241c.213-.416.589-.731 1.043-.88A1.88 1.88 0 0 1 12 1zm0 1.69h-.022l-.012.009a.062.062 0 0 0-.024.025L9.228 7.97a1.812 1.812 0 0 1-1.355.961l-6.036.835-.073.023a.074.074 0 0 0-.01.048l4.44 4.11c.422.401.614.977.515 1.54l-1.056 5.767v.023c.006.023.028.04.053.04a.053.053 0 0 0 .02 0l5.434-2.75a1.9 1.9 0 0 1 .866-.21c.292-.001.58.068.84.198l5.4 2.72h.01c.011.006.023.011.035.012.005.003.01.003.015 0h.025l.024-.022-1.057-5.767a1.643 1.643 0 0 1 .517-1.55l4.404-4.122.012-.025-.012-.01a.041.041 0 0 1-.017 0 .072.072 0 0 0-.03-.007l-6.075-.853a1.807 1.807 0 0 1-1.355-.96L12.05 2.736a.031.031 0 0 0-.01-.027.043.043 0 0 0-.029-.01l-.01-.01z" fill="#48464D" fill-rule="evenodd"/>
</svg>
