<svg xmlns="http://www.w3.org/2000/svg" width="24" height="25" viewBox="0 0 24 25">
    <g fill="none" fill-rule="evenodd">
        <g fill="currentColor">
            <g>
                <path d="M15.855 0c.409 0 .747.315.8.724l.007.113.001.947C19.98 2.018 22.01 4.223 22 7.783v10.186C22 21.743 19.72 24 16.054 24H6.946C3.285 24 1 21.705 1 17.885V7.783c0-3.559 2.037-5.765 5.347-6V.838c0-.462.362-.837.808-.837.409 0 .747.315.8.724l.008.113-.001.925h7.085V.837c0-.462.362-.837.808-.837zm4.529 9.939H2.615v7.946c0 2.798 1.46 4.348 4.089 4.437l.242.004h9.108c2.79 0 4.33-1.525 4.33-4.357V9.94zm-4.09 7.024c.446 0 .807.375.807.837 0 .424-.303.775-.698.83l-.11.008c-.455 0-.817-.375-.817-.838 0-.423.304-.774.698-.83l.12-.007zm-4.78 0c.447 0 .809.375.809.837 0 .424-.304.775-.698.83l-.11.008c-.456 0-.818-.375-.818-.838 0-.423.304-.774.698-.83l.12-.007zm-4.788 0c.446 0 .808.375.808.837 0 .424-.304.775-.698.83l-.12.008c-.446 0-.808-.375-.808-.838 0-.423.304-.774.699-.83l.12-.007zm9.568-4.338c.446 0 .807.375.807.837 0 .424-.303.774-.698.83l-.11.007c-.455 0-.817-.375-.817-.837 0-.424.304-.774.698-.83l.12-.007zm-4.78 0c.447 0 .809.375.809.837 0 .424-.304.774-.698.83l-.11.007c-.456 0-.818-.375-.818-.837 0-.424.304-.774.698-.83l.12-.007zm-4.788 0c.446 0 .808.375.808.837 0 .424-.304.774-.698.83l-.12.007c-.446 0-.808-.375-.808-.837 0-.424.304-.774.699-.83l.12-.007zm8.321-9.188H7.962v1.074c0 .462-.36.837-.807.837-.409 0-.747-.315-.8-.724l-.008-.113V3.462c-2.408.208-3.732 1.706-3.732 4.32v.483h17.769V7.78c.008-2.617-1.308-4.111-3.721-4.318v1.049c0 .462-.362.837-.808.837-.41 0-.747-.315-.8-.724l-.008-.113V3.437z" transform="translate(-19 -329) translate(19 329)"/>
            </g>
        </g>
    </g>
</svg>
