<svg xmlns="http://www.w3.org/2000/svg" width="20" height="20" viewBox="0 0 20 20">
    <g fill="none" fill-rule="evenodd">
        <g fill="currentColor">
            <g>
                <g>
                    <path d="M17 9.324c0 .356.031.708.091 1.053.055.312.133.617.234.915.031.09.064.182.1.271.386.987 1.028 1.879 1.883 2.59.028.017.055.036.08.057.389.317.612.778.612 1.266 0 .92-.785 1.667-1.75 1.667h-4.576C13.326 18.771 11.81 20 10 20c-1.81 0-3.326-1.229-3.675-2.857H1.75c-.965 0-1.75-.748-1.75-1.667 0-.488.223-.95.612-1.266.025-.021.052-.04.08-.058.855-.71 1.497-1.602 1.884-2.589.035-.09.068-.18.099-.271.1-.298.18-.603.234-.914.06-.346.091-.698.091-1.054V6.667C3 3.052 6.037.1 9.808.002 9.873 0 9.938 0 10 0H10 10c.062 0 .126 0 .191.002C13.962.1 17 3.052 17 6.667v2.657zm-4.879 7.819H7.878c.31.831 1.145 1.428 2.122 1.428.977 0 1.812-.597 2.121-1.428zM4.5 9.323c0 1.215-.295 2.394-.844 3.457-.074.144-.153.285-.237.425-.074.123-.15.244-.232.364-.136.2-.282.395-.437.584-.34.413-.725.797-1.153 1.143l-.043.033c-.028.032-.054.08-.054.147 0 .13.114.238.25.238h16.5c.136 0 .25-.108.25-.238 0-.067-.026-.115-.054-.147-.015-.01-.028-.021-.043-.033-.428-.346-.813-.73-1.153-1.142-.155-.19-.3-.384-.437-.585-.081-.12-.158-.24-.232-.364-.084-.14-.163-.281-.237-.425-.55-1.063-.844-2.242-.844-3.456V6.667c0-2.754-2.244-5.019-5.08-5.223-.057.005-.115.003-.173-.007l-.083-.006L10 1.429l-.165.002-.082.006c-.058.01-.116.012-.173.008-2.836.203-5.08 2.468-5.08 5.222z" transform="translate(-325.000000, -42.000000) translate(15.000000, 40.000000) translate(310.000000, 2.000000)"/>
                </g>
            </g>
        </g>
    </g>
</svg>
