<svg xmlns="http://www.w3.org/2000/svg" width="25" height="24" viewBox="0 0 25 24">
    <g fill="none" fill-rule="evenodd">
        <g fill="currentColor" fill-rule="nonzero">
            <g>
                <path d="M8.372 0c2.854 0 5.182 2.256 5.297 5.082l.004.219.001 1.576c1.776.617 3.051 2.305 3.051 4.292v4.289c0 2.508-2.033 4.542-4.542 4.542h-7.64C2.032 20 0 17.966 0 15.458v-4.29c0-1.986 1.276-3.675 3.052-4.291v-1.6C3.065 2.35 5.448-.012 8.372 0zm3.811 8.127h-7.64c-1.681 0-3.043 1.361-3.043 3.042v4.289c0 1.68 1.362 3.042 3.042 3.042h7.641c1.68 0 3.042-1.362 3.042-3.042v-4.29c0-1.68-1.362-3.041-3.042-3.041zm-3.82 3.326c.38 0 .693.282.743.648l.007.102v2.22c0 .415-.336.75-.75.75-.38 0-.694-.281-.743-.648l-.007-.101v-2.221c0-.415.336-.75.75-.75zM8.369 1.5c-2.033-.01-3.7 1.58-3.81 3.585l-.007.196v1.345h7.621V5.3c0-2.099-1.702-3.801-3.804-3.801z" transform="translate(-83 -491) translate(84 491) translate(3.5 2)"/>
            </g>
        </g>
    </g>
</svg>
