<svg xmlns="http://www.w3.org/2000/svg" width="30" height="30" viewBox="0 0 30 30">
    <g fill="none" fill-rule="evenodd">
        <g fill="currentColor">
            <g>
                <g>
                    <path d="M19.392 0c.066 0 .13.005.193.016l.212.002c.27 0 .529.092.734.259l.099.089 7.798 7.968c.177.18.287.413.315.66l.007.124v14.048c0 3.668-2.969 6.705-6.66 6.83l-.237.004H9.557c-3.917 0-6.93-2.813-7.053-6.591l-.004-.243V6.782c0-3.64 3.095-6.637 6.818-6.76l.239-.004 9.642-.002c.063-.01.128-.016.193-.016zm-1.155 2.281l-8.68.002c-2.502 0-4.627 1.94-4.743 4.296l-.005.203v16.384c0 2.564 1.901 4.46 4.521 4.564l.227.005h12.296c2.445 0 4.47-1.95 4.583-4.355l.005-.214-.001-12.621-1.349.005-1.746-.003c-2.726-.005-4.949-2.1-5.1-4.737l-.007-.284-.001-3.245zm5.424 18.969c.74 0 1.339.56 1.339 1.25s-.6 1.25-1.34 1.25H7.59c-.74 0-1.34-.56-1.34-1.25s.6-1.25 1.34-1.25h16.07zm0-3.75c.74 0 1.339.56 1.339 1.25S24.4 20 23.66 20H7.59c-.74 0-1.34-.56-1.34-1.25s.6-1.25 1.34-1.25h16.07zM15.722 7.187c.408 0 .726.35.726.768v.305h.452c.367 0 .661.284.716.645l.01.123c0 .416-.319.766-.726.766h-1.726c-.15 0-.285.149-.285.345 0 .196.135.344.285.344h.902c.964 0 1.736.849 1.736 1.878 0 .83-.5 1.552-1.217 1.793l-.147.041v.35c0 .376-.258.697-.607.757l-.119.01c-.407 0-.726-.35-.726-.766l-.001-.307h-.645c-.367 0-.661-.283-.716-.644l-.01-.122c0-.417.319-.767.726-.767h1.726c.15 0 .285-.149.285-.345 0-.196-.135-.344-.285-.344h-.902c-.965 0-1.736-.848-1.736-1.878 0-.909.6-1.676 1.404-1.844l.153-.025.001-.315c0-.376.258-.697.607-.757zm4.824-3.636l.001 1.975c0 1.52 1.254 2.753 2.803 2.756h1.827l-4.631-4.731z" transform="translate(-280 -461) translate(245 436) translate(35 25)"/>
                </g>
            </g>
        </g>
    </g>
</svg>
