<svg xmlns="http://www.w3.org/2000/svg" width="24" height="24" viewBox="0 0 24 24">
    <g fill="none" fill-rule="evenodd">
        <g fill="currentColor">
            <g>
                <g>
                    <g>
                        <path d="M7.885.102c.399-.136.833-.136 1.23 0l6.642 2.268c.745.253 1.243.935 1.243 1.702v6.642c0 2.02-.751 3.966-2.106 5.482-.638.717-1.453 1.313-2.437 1.83l-3.591 1.886c-.225.117-.495.117-.72 0L4.55 18.026c-.987-.518-1.801-1.114-2.44-1.83C.753 14.679 0 12.731 0 10.71V4.072c0-.767.498-1.449 1.242-1.702zm.728 1.388c-.073-.025-.153-.025-.226 0L1.743 3.758c-.138.047-.23.172-.23.314v6.638c0 1.666.621 3.271 1.74 4.522.507.57 1.178 1.06 2.015 1.5l3.237 1.696 3.232-1.695c.73-.384 1.335-.808 1.816-1.29l.198-.21c1.116-1.25 1.735-2.854 1.735-4.52V4.073c0-.142-.091-.267-.23-.314zm3.642 5.75c.269.261.293.67.074.958l-.074.082-3.934 3.822c-.269.262-.69.285-.986.072l-.084-.072-1.91-1.856c-.295-.287-.295-.753 0-1.04.27-.261.69-.285.986-.071l.085.071 1.373 1.336 3.4-3.302c.295-.287.775-.287 1.07 0z" transform="translate(-14 -456) translate(0 440) translate(6 8) translate(8 8) translate(3.5 2)"/>
                    </g>
                </g>
            </g>
        </g>
    </g>
</svg>
