<svg xmlns="http://www.w3.org/2000/svg" width="14" height="14" viewBox="0 0 14 14">
    <g fill="none" fill-rule="evenodd">
        <g fill="currentColor">
            <g>
                <path d="M6.534.027c.286 0 .517.23.517.515 0 .26-.195.477-.447.51l-.07.005H3.96c-1.735 0-2.86 1.15-2.924 2.935l-.003.164V9.87c0 1.826 1.07 3.027 2.771 3.096l.156.003h6.075c1.74 0 2.861-1.147 2.925-2.935l.003-.164V7.102c0-.285.232-.516.517-.516.261 0 .477.194.511.446l.005.07V9.87c0 2.38-1.51 4.053-3.8 4.127l-.161.003H3.96C1.635 14 .072 12.381.002 10.035L0 9.87V4.156C0 1.78 1.514.104 3.8.03l.16-.002h2.574zM9.48.63c.842-.84 2.208-.84 3.05 0l.838.837c.843.84.843 2.205 0 3.045l-5.17 5.161c-.376.377-.888.588-1.421.588H4.198c-.29 0-.523-.238-.516-.528l.065-2.598c.013-.515.223-1.005.588-1.369zm-.424 1.88l-3.99 3.985c-.178.177-.28.416-.287.666L4.727 9.23h2.05c.227 0 .446-.078.62-.22l.072-.066 4.016-4.01L9.056 2.51zM11.8 1.36c-.439-.439-1.151-.439-1.59 0l-.424.421 2.429 2.424.423-.422c.408-.406.437-1.049.087-1.49l-.087-.097z" transform="translate(-327 -375) translate(327 375)"/>
            </g>
        </g>
    </g>
</svg>
