<svg xmlns="http://www.w3.org/2000/svg" width="24" height="24" viewBox="0 0 24 24">
    <g fill="none" fill-rule="evenodd">
        <g fill="currentColor">
            <g>
                <path d="M12 0c6.627 0 12 5.373 12 12s-5.373 12-12 12S0 18.627 0 12 5.373 0 12 0zm0 1.8C6.367 1.8 1.8 6.367 1.8 12c0 5.633 4.567 10.2 10.2 10.2 5.633 0 10.2-4.567 10.2-10.2 0-5.633-4.567-10.2-10.2-10.2zm.186 3c.438 0 .794.392.794.873V6.86h1.468c.437 0 .793.392.793.873 0 .48-.356.872-.793.872h-3.314c-.632 0-1.147.566-1.147 1.261 0 .696.515 1.262 1.147 1.262h1.732c1.507 0 2.733 1.348 2.734 3.006 0 1.53-1.042 2.814-2.424 2.987l-.196.024v1.183c0 .48-.356.872-.794.872-.437 0-.793-.391-.793-.872V17.14H9.552c-.438 0-.793-.391-.793-.872s.355-.873.793-.873h3.314c.632 0 1.146-.566 1.146-1.261 0-.696-.514-1.261-1.146-1.261h-1.732c-1.508 0-2.734-1.349-2.734-3.007 0-1.657 1.226-3.006 2.734-3.006h.259V5.673c0-.481.356-.873.793-.873z" transform="translate(-18 -393) translate(18 393)"/>
            </g>
        </g>
    </g>
</svg>
