<svg xmlns="http://www.w3.org/2000/svg" width="21" height="20" viewBox="0 0 21 20">
    <g fill="none" fill-rule="evenodd">
        <g fill="#FFF">
            <g>
                <path d="M18.418 1.879c.266.257.29.659.072.942l-.072.081-15.774 15.22c-.293.282-.768.282-1.06 0-.267-.258-.291-.66-.074-.943l.073-.081 1.972-1.901c-1.419-1.25-2.608-2.92-3.494-4.91-.081-.184-.081-.39 0-.573 1.026-2.292 2.45-4.161 4.158-5.457C5.947 2.937 7.943 2.23 10 2.23c1.855 0 3.656.576 5.27 1.662l2.087-2.014c.293-.283.768-.283 1.06 0zm-.37 4.65c.725.93 1.36 1.999 1.89 3.184.082.183.083.39 0 .574-2.077 4.643-5.803 7.482-9.938 7.482-.941 0-1.872-.147-2.77-.436-.392-.126-.605-.536-.473-.915.13-.38.556-.584.948-.457.745.24 1.516.36 2.295.36 3.305 0 6.381-2.217 8.273-5.998l.155-.322-.053-.114c-.38-.79-.81-1.515-1.285-2.167l-.241-.32c-.25-.32-.183-.773.148-1.013.33-.24.801-.177 1.05.143zM10 3.68c-1.71 0-3.38.59-4.852 1.714-1.41 1.07-2.619 2.608-3.53 4.51L1.57 10l.046.097c.793 1.662 1.815 3.044 3.002 4.074l2.136-2.063c-.431-.613-.668-1.34-.668-2.108 0-2.09 1.748-3.778 3.914-3.778.792 0 1.552.23 2.186.644l2.003-1.932C12.881 4.108 11.456 3.678 10 3.678zm3.137 6.14l.101.011c.408.071.679.447.605.84-.287 1.542-1.544 2.757-3.14 3.037-.408.072-.799-.19-.873-.583-.074-.393.197-.77.604-.84.981-.173 1.756-.922 1.933-1.87.067-.36.4-.61.77-.595zM10 7.67c-1.338 0-2.414 1.04-2.414 2.331 0 .376.09.734.26 1.054l3.248-3.133c-.332-.163-.706-.252-1.094-.252z" transform="translate(-94 -114) translate(94.157 114)"/>
            </g>
        </g>
    </g>
</svg>
