<svg xmlns="http://www.w3.org/2000/svg" width="24" height="24" viewBox="0 0 24 24">
    <g fill="none" fill-rule="evenodd">
        <g fill="currentColor">
            <g>
                <path d="M22.945 2.763l-.043.166-5.478 18.445c-.544 1.83-2.93 2.195-4.006.686l-.104-.157-4.594-7.612L1.082 9.59c-1.623-1-1.357-3.413.376-4.066l.178-.059L20.102.092c1.669-.483 3.21 1.013 2.843 2.67zm-2.264-.989l-.086.017L2.13 7.164c-.384.112-.479.605-.198.86l.078.06 7.223 4.445 6.186-6.227c.313-.315.804-.345 1.152-.09l.099.086c.315.313.345.804.09 1.152l-.086.1-6.195 6.234 4.35 7.205c.207.343.692.309.863-.028l.036-.09 5.478-18.446c.106-.356-.185-.687-.525-.65z" transform="translate(-26 -358) translate(26 358)"/>
            </g>
        </g>
    </g>
</svg>
