<svg xmlns="http://www.w3.org/2000/svg" width="21" height="20" viewBox="0 0 21 20">
    <g fill="none" fill-rule="evenodd">
        <g fill="currentColor">
            <g>
                <g>
                    <path d="M.586 13.765c.324 0 .586.263.586.586v3.304c0 .647.526 1.173 1.173 1.173h3.3c.323 0 .585.262.585.586 0 .324-.262.586-.585.586h-3.3C1.052 20 0 18.948 0 17.655v-3.304c0-.323.262-.586.586-.586zm18.828 0c.324 0 .586.263.586.586v3.304C20 18.948 18.948 20 17.655 20h-3.297c-.324 0-.586-.262-.586-.586 0-.324.262-.586.586-.586h3.297c.647 0 1.173-.526 1.173-1.173v-3.304c0-.323.262-.586.586-.586zM8.627 10.637c.402 0 .728.326.728.728v5.57c0 .4-.326.727-.728.727h-5.57c-.4 0-.727-.326-.727-.728v-5.57c0-.4.327-.727.728-.727zm8.457 3.893c.324 0 .586.263.586.586v1.818c0 .402-.327.728-.728.728H15.01c-.324 0-.586-.262-.586-.586 0-.323.262-.586.586-.586h1.488v-1.374c0-.323.262-.586.586-.586zm-3.641 1.96c.323 0 .586.263.586.586 0 .324-.263.586-.586.586H11.22c-.324 0-.586-.262-.586-.586 0-.323.262-.586.586-.586zm-5.26-4.681H3.502v4.681h4.681V11.81zm-1.435.733c.381 0 .691.31.691.692v1.832c0 .381-.31.691-.691.691H4.916c-.382 0-.692-.31-.692-.691v-1.832c0-.382.31-.692.692-.692zm6.187.035c.324 0 .586.263.586.586 0 .324-.262.586-.586.586h-.976v1.367c0 .324-.263.586-.586.586-.324 0-.586-.262-.586-.586v-1.8c0-.407.331-.739.739-.739zm2.282-1.798c.407 0 .739.331.739.739v3.556c0 .346-.282.628-.629.628h-2.032c-.324 0-.586-.262-.586-.586 0-.323.262-.586.586-.586h1.489v-2.58H11.22c-.324 0-.586-.262-.586-.585 0-.324.262-.586.586-.586zm-8.95 2.934h-.871v.873h.872v-.873zm10.806-2.934c.323 0 .586.262.586.586v1.798c0 .324-.263.586-.586.586-.324 0-.586-.262-.586-.586v-1.798c0-.324.262-.586.586-.586zM8.616 2.34c.402 0 .728.327.728.728v5.57c0 .401-.326.728-.728.728h-5.57c-.4 0-.727-.327-.727-.728v-5.57c0-.401.327-.728.728-.728zm8.315 0c.401 0 .728.327.728.728v5.57c0 .401-.327.728-.728.728h-5.57c-.4 0-.727-.327-.727-.728v-5.57c0-.401.326-.728.727-.728zM8.172 3.513H3.491v4.682h4.681V3.513zm8.315 0h-4.681v4.682h4.681V3.513zm-9.74.733c.382 0 .693.31.693.692V6.77c0 .382-.31.692-.692.692H4.916c-.382 0-.692-.31-.692-.692V4.938c0-.381.31-.692.692-.692zm8.315 0c.382 0 .692.31.692.692V6.77c0 .382-.31.692-.692.692H13.23c-.381 0-.692-.31-.692-.692V4.938c0-.381.31-.692.692-.692zM6.268 5.418h-.872v.872h.872v-.872zm8.314 0h-.872v.872h.872v-.872zM5.645 0c.323 0 .585.262.585.586 0 .324-.262.586-.585.586h-3.3c-.647 0-1.173.526-1.173 1.173V5.66c0 .323-.262.586-.586.586C.262 6.246 0 5.983 0 5.66V2.345C0 1.052 1.052 0 2.345 0zm12.01 0C18.948 0 20 1.052 20 2.345V5.66c0 .323-.262.586-.586.586-.324 0-.586-.263-.586-.586V2.345c0-.647-.526-1.173-1.173-1.173h-3.297c-.324 0-.586-.262-.586-.586 0-.324.262-.586.586-.586z" transform="translate(-96 -503) translate(15 485) translate(81.5 18)"/>
                </g>
            </g>
        </g>
    </g>
</svg>
