<svg xmlns="http://www.w3.org/2000/svg" width="25" height="24" viewBox="0 0 25 24">
    <g fill="none" fill-rule="evenodd">
        <g fill="currentColor">
            <g>
                <g>
                    <path d="M12.074 0c3.936 0 7.334 2.962 7.885 6.964.463 3.359-.704 6.057-3.365 8.06-.373.28-.578.575-.549 1.062.03.505-.129.972-.433 1.372-.104.136-.08.215.007.342.897 1.302.313 3.044-1.177 3.477-.251.073-.216.22-.217.391-.008 1.263-.869 2.248-2.033 2.327-1.26.085-2.333-.915-2.338-2.217-.002-.31-.067-.444-.374-.55-1.363-.468-1.891-2.173-1.06-3.38.126-.182.119-.283-.005-.453-.29-.398-.417-.863-.395-1.359.017-.388-.095-.684-.413-.92-.326-.243-.37-.707-.14-1.028.227-.316.642-.405.975-.188.638.415.98 1.02 1.033 1.793.01.142 0 .286.005.428.017.43.311.748.73.75 1.216.008 2.433.008 3.65 0 .42-.002.71-.317.728-.75.009-.205-.005-.413.024-.614.098-.693.444-1.223 1.011-1.613 1.608-1.106 2.57-2.64 2.904-4.6.6-3.524-1.835-7.077-5.28-7.688-3.725-.66-7.194 1.921-7.719 5.758-.22 1.609.12 3.103.95 4.482.07.114.147.222.18.355.085.357-.079.716-.4.87-.337.161-.714.048-.934-.293-.568-.88-.96-1.837-1.159-2.874C3.255 5.141 6.493.597 11.19.04c.295-.035.59-.041.885-.04zm.543 21.376h-.573v.001h-.599c-.073 0-.124.007-.141.107-.061.35.074.72.342.895.254.166.562.159.807-.02.247-.18.376-.564.313-.885-.02-.105-.08-.098-.149-.098zm-.583-2.999c-.581 0-1.163-.003-1.744.001-.484.003-.808.307-.808.747 0 .439.33.748.808.749 1.163.002 2.326.002 3.489 0 .478-.001.808-.311.809-.749 0-.437-.33-.745-.81-.747-.58-.003-1.162-.001-1.744-.001zM3.01 13.792c-.002.287-.107.515-.318.666-.223.16-.45.315-.684.453-.338.199-.733.053-.916-.32-.176-.36-.082-.814.232-1.049.22-.165.448-.32.684-.455.467-.267 1 .114 1.002.705zm19.022-.717c.259.144.506.317.748.494.192.142.282.362.288.625.006.575-.513.978-.967.733-.26-.14-.51-.312-.747-.496-.3-.233-.375-.68-.198-1.03.178-.352.553-.505.876-.326zM1.388 8.007c.35.042.618.478.618.996 0 .513-.273.956-.624.982-.254.02-.51.021-.764-.002-.351-.031-.62-.479-.618-.992.002-.518.27-.947.625-.984.126-.014.254-.002.381-.002.128 0 .256-.012.382.002zm22.028.034c.329.036.582.454.584.951.002.497-.248.933-.576.963-.244.022-.49.023-.735-.004-.326-.037-.57-.484-.562-.981.01-.487.255-.89.576-.928l.126-.008.253.005c.111 0 .223-.01.334.002zM1.9 2.04c.323.133.622.335.886.585.222.209.275.568.17.87-.11.311-.377.514-.757.504-.353-.156-.784-.347-1.08-.775-.175-.253-.143-.629.025-.89.175-.27.479-.409.756-.295zm21.166.84c-.004.177-.08.392-.25.536-.25.211-.518.396-.806.529-.316.146-.68-.014-.851-.348-.177-.345-.115-.79.177-1.029.239-.193.494-.37.762-.504.46-.23.972.18.968.816z" transform="translate(-30 -154) translate(15 125) translate(15.5 29)"/>
                </g>
            </g>
        </g>
    </g>
</svg>
