<svg xmlns="http://www.w3.org/2000/svg" width="30" height="30" viewBox="0 0 30 30">
    <g fill="none" fill-rule="evenodd">
        <g fill="currentColor" fill-rule="nonzero">
            <g>
                <g>
                    <path d="M11.477 30c-3.474 0-6.31-2.811-6.47-6.34L5 23.348V6.652C5 3.084 7.737.171 11.172.008L11.477 0h7.121c3.476 0 6.312 2.81 6.471 6.34l.007.313v8.997c0 .62-.49 1.125-1.095 1.125-.555 0-1.013-.424-1.086-.973l-.01-.152V6.652c0-2.344-1.785-4.26-4.035-4.395l-.252-.007h-7.121c-2.282 0-4.148 1.833-4.279 4.144l-.007.258v16.695c0 2.345 1.785 4.262 4.034 4.396l.252.007 4.773-.001-.001.001h.196c.583 0 1.055.504 1.055 1.125 0 .57-.397 1.04-.912 1.115l-.143.01h-4.968zm7.274-5.574v-.012l-.002-.036.001-.004c0-.023 0-.046.002-.068l.001-.022.005-.047.006-.047.007-.042c.024-.132.07-.256.132-.368l.068-.107.025-.034.069-.08 4.165-4.474.12-.11c.386-.309.92-.3 1.298.026l.09.088.104.13c.283.413.277.985-.019 1.391l-.088.107-2.335 2.506h6.533l.145.011c.52.076.922.558.922 1.14 0 .594-.416 1.082-.95 1.145l-.117.006h-6.53l2.333 2.509.103.128c.31.45.278 1.09-.1 1.5-.386.417-.997.449-1.416.092l-.093-.09-4.166-4.474c-.039-.043-.07-.081-.103-.13l-.004-.005c-.072-.105-.127-.223-.162-.35l-.009-.032c-.007-.031-.014-.063-.019-.094l-.006-.041-.008-.081-.001-.024-.001-.007zM15.233 4.75c.547 0 .992.49.992 1.091v1.484h1.835c.547 0 .992.49.992 1.091s-.445 1.09-.992 1.09h-4.142c-.791 0-1.434.708-1.434 1.577 0 .87.643 1.577 1.434 1.577h2.164c1.884 0 3.417 1.685 3.418 3.757 0 1.913-1.302 3.518-3.03 3.734l-.245.03v1.479c0 .6-.445 1.09-.992 1.09-.547 0-.992-.49-.992-1.09v-1.485H11.94c-.547 0-.992-.49-.992-1.09 0-.602.445-1.09.992-1.09h4.142c.79 0 1.433-.709 1.433-1.578 0-.869-.642-1.576-1.433-1.576h-2.164c-1.885 0-3.418-1.685-3.418-3.758 0-2.072 1.533-3.758 3.418-3.758h.323V5.841c0-.602.445-1.091.992-1.091z" transform="translate(-16 -366) translate(0 346) translate(16 20)"/>
                </g>
            </g>
        </g>
    </g>
</svg>
