<svg width="18" height="18" viewBox="0 0 18 18" fill="none" xmlns="http://www.w3.org/2000/svg">
<g id="Icon-wrapper">
<path id="Icon" fill-rule="evenodd" clip-rule="evenodd" d="M16.5 9C16.5 13.1421 13.1421 16.5 9 16.5C4.85786 16.5 1.5 13.1421 1.5 9C1.5 4.85786 4.85786 1.5 9 1.5C13.1421 1.5 16.5 4.85786 16.5 9ZM17.75 9C17.75 13.8325 13.8325 17.75 9 17.75C4.16751 17.75 0.25 13.8325 0.25 9C0.25 4.16751 4.16751 0.25 9 0.25C13.8325 0.25 17.75 4.16751 17.75 9ZM9.56868 5.56249L9.5687 9.59139L12.7692 11.5952C13.0617 11.7784 13.1504 12.1641 12.9672 12.4566C12.7841 12.7492 12.3984 12.8379 12.1058 12.6547L8.75869 10.559C8.48495 10.3876 8.3187 10.0874 8.3187 9.76444L8.31869 5.56249C8.31868 5.21731 8.59851 4.93749 8.94368 4.93749C9.28886 4.93749 9.56868 5.21731 9.56868 5.56249Z" fill="#7E85A1"/>
</g>
</svg>
