<svg width="86" height="129" viewBox="0 0 86 129" xmlns="http://www.w3.org/2000/svg">
    <g fill="none" fill-rule="evenodd">
        <path d="M58.501 2.567H48.218l-.885 3.22c-.692 2.52-2.961 4.262-5.548 4.262h-17.57c-2.587 0-4.856-1.743-5.548-4.262l-.886-3.22H7.499c-2.664 0-4.835 2.133-4.932 4.801l-.004.187v113.89c0 2.692 2.11 4.886 4.75 4.984l.186.004H58.5c2.664 0 4.835-2.133 4.932-4.801l.004-.187V7.555c0-2.692-2.11-4.886-4.75-4.984l-.186-.004z" fill="#FFF" fill-rule="nonzero"/>
        <path d="M7.425 0h51.15C62.675 0 66 3.354 66 7.49v114.02c0 4.136-3.324 7.49-7.425 7.49H7.425C3.325 129 0 125.646 0 121.51V7.49C0 3.354 3.324 0 7.425 0zm51.15 2.497H48.262l-.887 3.224c-.694 2.521-2.97 4.266-5.564 4.266H24.189c-2.594 0-4.87-1.745-5.564-4.266l-.888-3.224H7.425c-2.672 0-4.849 2.135-4.947 4.806l-.003.187v114.02c0 2.695 2.117 4.891 4.764 4.99l.186.003h51.15c2.672 0 4.849-2.135 4.947-4.806l.003-.187V7.49c0-2.695-2.117-4.891-4.764-4.99l-.186-.003zM42.487 118.18c.684 0 1.238.559 1.238 1.248 0 .649-.49 1.182-1.118 1.243l-.12.005H23.512a1.243 1.243 0 0 1-1.237-1.248c0-.649.49-1.182 1.118-1.243l.12-.005h18.974zM45.694 2.497H20.306l.704 2.555a3.306 3.306 0 0 0 3.01 2.434l.17.004h17.62a3.303 3.303 0 0 0 3.13-2.273l.05-.165.703-2.555z" fill="#052C50" fill-rule="nonzero"/>
        <path d="M46.136 2.567H19.864l.729 2.628a3.417 3.417 0 0 0 3.114 2.502l.176.004h18.235a3.416 3.416 0 0 0 3.239-2.337l.051-.17.728-2.627z" fill="#FFD166" fill-rule="nonzero"/>
        <g transform="translate(13.261 62.41)">
            <circle stroke="#073B4C" stroke-width="2" fill="#E9F4FC" cx="19.485" cy="19.485" r="18.485"/>
            <path d="M18.749 17.273a1.364 1.364 0 0 1 0 1.93c-.349.348-.54.811-.54 1.304s.191.956.54 1.304l5.897 5.899c.72.719 1.89.72 2.609 0l.453-.455c.349-.348.54-.811.54-1.304s-.191-.956-.54-1.304l-2.948-2.95a1.364 1.364 0 0 1 1.928-1.93l2.95 2.95a4.544 4.544 0 0 1 1.339 3.234c0 1.222-.476 2.37-1.34 3.234l-.453.454a4.56 4.56 0 0 1-3.234 1.338c-1.17 0-2.34-.446-3.232-1.337l-5.898-5.899a4.543 4.543 0 0 1-1.34-3.234c0-1.222.476-2.37 1.34-3.234a1.364 1.364 0 0 1 1.929 0zM16.252 9.33l5.899 5.899a4.543 4.543 0 0 1 1.339 3.234c0 1.222-.476 2.37-1.34 3.234a1.36 1.36 0 0 1-1.928 0 1.364 1.364 0 0 1 0-1.93c.349-.348.54-.811.54-1.304 0-.492-.19-.955-.539-1.304l-5.898-5.899c-.72-.72-1.89-.72-2.609 0l-.453.454c-.349.349-.54.813-.54 1.305 0 .493.191.955.54 1.304l2.948 2.95a1.364 1.364 0 0 1-1.929 1.93l-2.949-2.95a4.543 4.543 0 0 1-1.339-3.234c0-1.222.476-2.37 1.339-3.234l.453-.454a4.577 4.577 0 0 1 6.466-.001z" fill="#073B4C" fill-rule="nonzero"/>
        </g>
        <path d="M42.843 44.365c-.26.45-.802.624-1.247.298-4.936-3.61-11.288-3.557-16.22.17a.946.946 0 0 1-.66.159.786.786 0 0 1-.578-.423c-.18-.345-.184-.776-.011-1.077.058-.1.144-.25.246-.318 5.5-4.167 12.618-4.23 18.132-.196.518.307.627.886.338 1.387zM25.379 32c-.241 0-.562-.09-.803-.273-.482-.363-.722-1.182-.482-1.818.241-.545.723-.909 1.285-.909h.08c.562.09 1.043.545 1.204 1.09.16.637-.08 1.274-.482 1.637-.24.182-.481.273-.802.273zm17.286 0c-.24 0-.561-.09-.802-.273-.482-.363-.723-1.182-.482-1.818.241-.545.723-.909 1.284-.909h.08c.563.09 1.044.545 1.205 1.09.16.637-.08 1.274-.482 1.637-.24.182-.481.273-.803.273z" fill="#073B4C" fill-rule="nonzero"/>
        <g transform="translate(42 43)">
            <ellipse fill="#C33" cx="22.05" cy="22.021" rx="21.401" ry="21.373"/>
            <path d="M30.77 11.862a1.04 1.04 0 0 1 1.352.1l.073.081c.296.365.31.89.008 1.294l-.081.092-8.603 8.59 8.603 8.594a1.036 1.036 0 0 1-1.366 1.555l-.102-.088-8.605-8.593-8.628 8.615-.103.086a1.038 1.038 0 0 1-1.34-.108c-.366-.365-.406-.94-.081-1.375l.08-.092 8.602-8.594-8.601-8.59a1.036 1.036 0 0 1-.076-1.383l.076-.084a1.046 1.046 0 0 1 1.376-.081l.092.08 5.41 5.402 3.188 3.194 8.632-8.616z" fill="#FFF"/>
            <path d="M22 0C9.85 0 0 9.85 0 22s9.85 22 22 22 22-9.85 22-22S34.15 0 22 0zm0 1.943c11.076 0 20.054 8.98 20.054 20.057 0 11.077-8.978 20.057-20.054 20.057-11.076 0-20.054-8.98-20.054-20.057C1.946 10.923 10.924 1.943 22 1.943z" fill="#073B4C" fill-rule="nonzero"/>
        </g>
    </g>
</svg>
