<svg width="106" height="125" viewBox="0 0 106 125" xmlns="http://www.w3.org/2000/svg">
    <g fill="none" fill-rule="evenodd">
        <g fill-rule="nonzero">
            <path d="M68.724 2.488H58.78l-.856 3.12c-.67 2.44-2.865 4.13-5.366 4.13H35.563c-2.502 0-4.696-1.69-5.366-4.13l-.857-3.12h-9.944c-2.577 0-4.677 2.066-4.77 4.652l-.004.18v110.36c0 2.608 2.041 4.734 4.595 4.83l.179.002h49.328c2.577 0 4.677-2.066 4.77-4.652l.004-.18V7.32c0-2.608-2.041-4.734-4.595-4.829l-.179-.003z" fill="#FFF"/>
            <path d="M19.324 0h49.472c3.966 0 7.181 3.25 7.181 7.258v110.484c0 4.008-3.215 7.258-7.181 7.258H19.324c-3.966 0-7.181-3.25-7.181-7.258V7.258C12.143 3.25 15.358 0 19.324 0zm49.472 2.42h-9.974l-.859 3.123c-.672 2.443-2.873 4.134-5.382 4.134H35.54c-2.51 0-4.71-1.69-5.382-4.134l-.86-3.124h-9.973c-2.584 0-4.69 2.07-4.784 4.658l-.003.181v110.484c0 2.612 2.047 4.74 4.608 4.835l.18.004h49.47c2.585 0 4.69-2.07 4.785-4.658l.003-.181V7.258c0-2.612-2.047-4.74-4.608-4.835l-.18-.004zm-15.56 112.096c.661 0 1.197.542 1.197 1.21 0 .629-.475 1.145-1.082 1.204l-.115.005H34.884a1.203 1.203 0 0 1-1.197-1.21c0-.628.475-1.145 1.081-1.203l.116-.006h18.352zm3.1-112.097H31.783l.681 2.477a3.2 3.2 0 0 0 2.91 2.358l.166.004H52.58a3.195 3.195 0 0 0 3.027-2.203l.049-.16.68-2.476z" fill="#052C50"/>
            <path d="M56.765 2.488h-25.41l.705 2.546a3.306 3.306 0 0 0 3.012 2.424l.17.005h17.636a3.304 3.304 0 0 0 3.133-2.266l.05-.163.704-2.546z" fill="#FFD166"/>
            <path d="M36.678 30.794c-.226 0-.528-.075-.755-.227-.453-.302-.68-.983-.453-1.512.227-.454.68-.757 1.208-.757h.075c.529.076.982.454 1.133.908.15.53-.076 1.059-.453 1.361a1.273 1.273 0 0 1-.755.227zm16.257 0c-.226 0-.528-.075-.755-.227-.453-.302-.68-.983-.453-1.512.227-.454.68-.757 1.208-.757h.076c.528.076.98.454 1.132.908.15.53-.076 1.059-.453 1.361a1.273 1.273 0 0 1-.755.227z" fill="#073B4C"/>
        </g>
        <g stroke="#073B4C">
            <g stroke-width="1.139">
                <path d="M3.79 18.135a.217.217 0 0 1-.216-.217v-1.381a.217.217 0 0 1 .434 0v1.381c0 .12-.097.217-.217.217zM3.79 21.89a.217.217 0 0 1-.216-.217V20.29a.217.217 0 0 1 .434 0v1.382c0 .12-.097.216-.217.216zM6.364 19.33H4.98a.217.217 0 1 1 0-.433h1.384a.217.217 0 1 1 0 .433zM2.602 19.33H1.217a.217.217 0 1 1 0-.433h1.385a.217.217 0 1 1 0 .433z"/>
            </g>
            <path d="M84.811 1.041c.794 0 1.513.322 2.033.843.52.52.842 1.24.842 2.034 0 .794-.323 1.514-.843 2.035a2.868 2.868 0 0 1-4.065 0 2.87 2.87 0 0 1-.842-2.034c0-.795.322-1.515.842-2.035a2.865 2.865 0 0 1 2.033-.843z" stroke-width="2.082"/>
            <g stroke-width="1.139">
                <path d="M102.21 40.176a.217.217 0 0 1-.218-.217v-1.381a.217.217 0 0 1 .434 0v1.381c0 .12-.097.217-.217.217zM102.21 43.93a.217.217 0 0 1-.218-.216v-1.382a.217.217 0 0 1 .434 0v1.382c0 .12-.097.216-.217.216zM104.783 41.37h-1.384a.217.217 0 1 1 0-.432h1.384a.217.217 0 1 1 0 .433zM101.02 41.37h-1.384a.217.217 0 1 1 0-.432h1.384a.217.217 0 1 1 0 .433z"/>
            </g>
        </g>
        <path d="M35.667 38.557c3.442 2.209 6.857 3.24 10.244 3.096 3.387-.144 6.575-1.176 9.565-3.096" stroke="#073B4C" stroke-width="1.18" stroke-linecap="round"/>
        <g transform="translate(25.261 58.41)">
            <circle stroke="#073B4C" stroke-width="2" fill="#E9F4FC" cx="19.485" cy="19.485" r="18.485"/>
            <path d="M18.749 17.273a1.364 1.364 0 0 1 0 1.93c-.349.348-.54.811-.54 1.304s.191.956.54 1.304l5.897 5.899c.72.719 1.89.72 2.609 0l.453-.455c.349-.348.54-.811.54-1.304s-.191-.956-.54-1.304l-2.948-2.95a1.364 1.364 0 0 1 1.928-1.93l2.95 2.95a4.544 4.544 0 0 1 1.339 3.234c0 1.222-.476 2.37-1.34 3.234l-.453.454a4.56 4.56 0 0 1-3.234 1.338c-1.17 0-2.34-.446-3.232-1.337l-5.898-5.899a4.543 4.543 0 0 1-1.34-3.234c0-1.222.476-2.37 1.34-3.234a1.364 1.364 0 0 1 1.929 0zM16.252 9.33l5.899 5.899a4.543 4.543 0 0 1 1.339 3.234c0 1.222-.476 2.37-1.34 3.234a1.36 1.36 0 0 1-1.928 0 1.364 1.364 0 0 1 0-1.93c.349-.348.54-.811.54-1.304 0-.492-.19-.955-.539-1.304l-5.898-5.899c-.72-.72-1.89-.72-2.609 0l-.453.454c-.349.349-.54.813-.54 1.305 0 .493.191.955.54 1.304l2.948 2.95a1.364 1.364 0 0 1-1.929 1.93l-2.949-2.95a4.543 4.543 0 0 1-1.339-3.234c0-1.222.476-2.37 1.339-3.234l.453-.454a4.577 4.577 0 0 1 6.466-.001z" fill="#073B4C" fill-rule="nonzero"/>
        </g>
        <g transform="translate(53 38)">
            <circle stroke="#073B4C" stroke-width="1.986" fill="#72EFD3" cx="25" cy="25" r="24.007"/>
            <path d="M33.756 18.117a1.243 1.243 0 0 1 1.757 0c.439.44.48 1.133.085 1.64l-.085.094-12.018 12.035a1.249 1.249 0 0 1-1.66.086l-.095-.085-7.249-7.239a1.226 1.226 0 0 1-.003-1.734 1.249 1.249 0 0 1 1.662-.088l.095.085 6.37 6.36z" fill="#073B4C"/>
        </g>
    </g>
</svg>
