<svg width="30" height="30" xmlns="http://www.w3.org/2000/svg">
    <g fill="none" fill-rule="evenodd">
        <circle fill="#FFD166" cx="15" cy="15" r="15"/>
        <path d="M21.8 6.273c.26 0 .473.21.473.469s-.212.47-.473.47h-1.794v3.178a3.457 3.457 0 0 1-1.556 2.888L15.851 15l2.598 1.721a3.457 3.457 0 0 1 1.557 2.89v3.178H21.8c.26 0 .473.21.473.47 0 .258-.212.468-.473.468H8.2a.471.471 0 0 1-.473-.469c0-.259.212-.47.473-.47h1.794V19.61c0-1.164.582-2.244 1.556-2.888L14.149 15l-2.598-1.721a3.457 3.457 0 0 1-1.557-2.89V7.212H8.2a.471.471 0 0 1-.473-.47c0-.258.212-.468.473-.468zm-6.8 9.29-2.926 1.94a2.522 2.522 0 0 0-1.135 2.107v3.179h8.122V19.61c0-.85-.424-1.638-1.135-2.108L15 15.564zm-.712 3.162c.41-.35 1.014-.35 1.424 0 .015.012.69.579 1.354 1.159l.282.248c.37.327.705.634.88.819l.016.018a.58.58 0 0 1-.43.976h-5.629a.58.58 0 0 1-.43-.976l.018-.018c.196-.208.595-.57 1.019-.943l.284-.248c.615-.534 1.199-1.024 1.212-1.035zM19.061 7.21H10.94v3.179c0 .85.424 1.638 1.135 2.108L15 14.436l2.926-1.938a2.522 2.522 0 0 0 1.135-2.108V7.21z" fill="#FFF"/>
    </g>
</svg>
