<svg width="130" height="130" viewBox="0 0 130 130" xmlns="http://www.w3.org/2000/svg">
    <g fill="none" fill-rule="evenodd">
        <g transform="translate(36.4 9.533)" fill-rule="nonzero">
            <path d="M49.996 2.13h-8.802l-.758 2.75a4.936 4.936 0 0 1-4.75 3.641h-15.04a4.936 4.936 0 0 1-4.749-3.64l-.758-2.75H6.338c-2.28 0-4.14 1.821-4.223 4.1l-.003.16v97.285c0 2.3 1.807 4.173 4.067 4.257l.159.003h43.658c2.28 0 4.139-1.821 4.222-4.1l.003-.16V6.39c0-2.3-1.807-4.174-4.067-4.258l-.158-.003z" fill="#FFF"/>
            <path d="M6.338 0h43.658c3.5 0 6.337 2.861 6.337 6.391v97.285c0 3.53-2.837 6.39-6.337 6.39H6.337c-3.5 0-6.337-2.86-6.337-6.39V6.39C0 2.861 2.837 0 6.338 0zm43.658 2.13h-8.802l-.758 2.75a4.936 4.936 0 0 1-4.75 3.641h-15.04a4.936 4.936 0 0 1-4.749-3.64l-.758-2.75H6.338c-2.28 0-4.14 1.821-4.223 4.1l-.003.16v97.285c0 2.3 1.807 4.173 4.067 4.257l.159.003h43.658c2.28 0 4.139-1.821 4.222-4.1l.003-.16V6.39c0-2.3-1.807-4.174-4.067-4.258l-.158-.003zm-13.731 98.705a1.06 1.06 0 0 1 1.056 1.065c0 .554-.42 1.01-.955 1.06l-.101.006H20.069a1.06 1.06 0 0 1-1.056-1.066c0-.553.418-1.008.954-1.06l.102-.005h16.196zM39 2.13h-21.67l.602 2.18A2.822 2.822 0 0 0 20.5 6.388l.146.004h15.04c1.216 0 2.29-.787 2.671-1.94l.043-.14.6-2.18z" fill="#052C50"/>
            <path d="M39.433 2.13H16.9l.625 2.18c.339 1.183 1.419 2.015 2.671 2.077l.151.004h15.64c1.265 0 2.38-.787 2.778-1.94l.044-.14.624-2.18z" fill="#FFD166"/>
            <ellipse fill="#E9F4FC" cx="28.519" cy="51.483" rx="17.252" ry="17.398"/>
            <path d="m20.123 30.535.045.004.055.015 7.596 2.404.046.02c.084.05.115.146.08.226l-.023.038-.04.041-5.608 5.551-.039.03a.224.224 0 0 1-.29-.053l-.02-.04-.015-.05-.743-2.98-.585.289-.27.136c-5.794 2.993-9.416 8.994-9.231 15.475.267 9.349 8.253 16.735 17.796 16.474 4.42-.12 8.617-1.89 11.743-4.939a1.32 1.32 0 0 1 .63-.341l.12-.022.122-.011h.118l.061.004.135.018.115.027.097.032.11.046.102.053.044.028.074.05.054.042.084.074a1.235 1.235 0 0 1-.004 1.785 19.864 19.864 0 0 1-4.45 3.268l-.389.204-.3.15-.433.207c-.581.268-1.178.51-1.785.723l-.234.08-.32.105-.42.128a20.348 20.348 0 0 1-4.758.805l-.442.017-.36.007h-.45l-.547-.014-.38-.018-.396-.026-.5-.044-.428-.048-.325-.042-.48-.073-.348-.06-.346-.065-.354-.074-.371-.084-.53-.133a20.09 20.09 0 0 1-2.837-.987l-.456-.205-.34-.162c-6.536-3.181-10.837-9.627-11.045-16.91-.218-7.64 4.178-14.694 11.136-18.037l.276-.13.673-.305-.617-2.474-.005-.043c.001-.098.09-.185.202-.186zm24.972 27.442c.055 0 .108.001.158.006.645.07 1.123.55 1.177 1.149a1.215 1.215 0 0 1-.079.555 1.303 1.303 0 0 1-.85.77l-.102.026-.106.017-.1.01h-.087l-.09-.004-.14-.018-.09-.02-.105-.031-.113-.046-.082-.04-.07-.04-.08-.054-.102-.083a1.242 1.242 0 0 1-.424-.93c0-.65.515-1.193 1.173-1.26l.112-.007zM28.59 42.547l.083.005c.446.044.815.385.916.845l.017.1.011.184-.002 1.407 1.812.001.096.005c.446.044.816.385.916.845l.018.1.01.184-.004.096a1.08 1.08 0 0 1-.8.94l-.094.019-.179.01h-4.14l-.101.003c-.736.057-1.306.73-1.306 1.53 0 .693.428 1.298 1.038 1.48l.109.027.207.024 2.236.003.147.003c1.851.083 3.338 1.72 3.339 3.728 0 1.731-1.106 3.218-2.649 3.624l-.15.036-.505.08v1.435l-.004.102-.013.1c-.075.427-.385.771-.786.869l-.094.018-.14.008-.18-.012-.088-.018c-.35-.09-.648-.402-.742-.801l-.02-.102-.012-.202-.001-1.407-2.28.002-.096-.005c-.445-.043-.814-.385-.915-.844l-.018-.1-.01-.185.004-.096a1.08 1.08 0 0 1 .8-.94l.094-.018.178-.011h4.14l.102-.003c.735-.057 1.305-.73 1.305-1.53 0-.692-.427-1.298-1.037-1.479l-.109-.027-.207-.024-2.236-.003-.147-.003c-1.852-.083-3.338-1.72-3.338-3.729 0-1.897 1.332-3.48 3.06-3.704l.153-.017.557-.023.002-1.43.004-.102c.042-.473.369-.864.8-.97l.094-.018.155-.01zm18.373 9.178.1.006.049.006.091.017.106.026.081.027.103.043.11.058.054.033.049.034.047.036.067.056.038.037a1.285 1.285 0 0 1 .269.385l.037.092.027.085.014.058c.028.126.036.255.024.386a1.29 1.29 0 0 1-1.11 1.134l-.11.012-.1.003-.138-.009-.125-.02-.095-.023-.1-.032-.08-.033-.095-.047-.064-.037-.095-.065-.06-.048-.063-.057-.056-.058-.066-.078-.048-.066-.067-.108-.051-.104-.041-.112a1.22 1.22 0 0 1-.05-.238L45.61 53l.005-.113.016-.117c.106-.577.612-1.012 1.219-1.044l.114-.001zm-.543-6.47.137.012.093.016.1.025.102.035.096.04.109.058.09.059.075.056.037.031.106.106.054.064.09.132.061.114.046.114.025.081c.042.15.054.304.038.455a1.283 1.283 0 0 1-.962 1.093l-.115.024-.116.015-.136.005-.04-.002-.14-.014-.134-.027-.155-.05-.095-.042-.08-.041-.11-.07-.066-.05-.098-.088-.075-.08-.067-.087-.065-.105-.048-.09a1.222 1.222 0 0 1-.073-.198c-.183-.67.226-1.363.925-1.547l.105-.023.105-.015.101-.005h.08zm-2.865-5.867.12.007.106.016.106.024.079.023.11.043.082.039.08.045.055.036.07.052.054.044.126.128.066.083.072.108c.173.292.212.623.122.942a1.25 1.25 0 0 1-.38.61 1.289 1.289 0 0 1-.653.316l-.126.015-.126.004-.092-.004-.073-.009-.122-.022-.078-.02-.079-.026-.08-.032-.092-.045-.08-.045-.081-.056-.042-.032-.108-.097-.11-.125-.054-.076-.038-.065-.052-.1a1.24 1.24 0 0 1 .429-1.54c.2-.14.432-.22.67-.237l.12-.004zm-4.469-4.49.113.032.033.011.119.05.091.046.084.053.098.071c.156.127.28.29.361.475.17.39.131.837-.116 1.195a1.317 1.317 0 0 1-.975.56l-.12.005-.101-.003-.09-.01-.119-.021-.083-.022-.083-.029-.083-.034-.08-.04-.076-.045-.099-.07a1.237 1.237 0 0 1-.275-1.694 1.334 1.334 0 0 1 1.401-.53zm-6.357-2.644.1.006.109.016c.627.116 1.073.634 1.073 1.245 0 .692-.58 1.267-1.312 1.267-.732 0-1.313-.576-1.313-1.267 0-.678.56-1.232 1.244-1.266h.099z" fill="#073B4C"/>
        </g>
        <g transform="translate(78.897 56.707)">
            <ellipse stroke="#073B4C" stroke-width="1.986" fill="#7ADEFF" cx="22.869" cy="22.844" rx="21.875" ry="21.851"/>
            <path d="M30.616 12.912c.297 0 .538.24.538.534a.537.537 0 0 1-.538.534h-2.044v3.617a3.933 3.933 0 0 1-1.773 3.288l-2.96 1.959 2.96 1.959a3.933 3.933 0 0 1 1.773 3.288v3.617h2.044c.297 0 .538.24.538.534a.537.537 0 0 1-.538.534H15.121a.537.537 0 0 1-.538-.534c0-.294.241-.534.538-.534h2.045v-3.617c0-1.325.662-2.554 1.772-3.288l2.96-1.959-2.96-1.959a3.933 3.933 0 0 1-1.772-3.288V13.98H15.12a.537.537 0 0 1-.538-.534c0-.295.241-.534.538-.534zM22.87 23.486l-3.334 2.206a2.87 2.87 0 0 0-1.293 2.399v3.617h9.254v-3.617a2.87 2.87 0 0 0-1.294-2.4l-3.333-2.205zm-.811 3.597a1.252 1.252 0 0 1 1.622 0c.028.025 2.27 1.902 2.865 2.533l.02.021c.396.423.092 1.11-.49 1.11h-6.413c-.582 0-.886-.687-.49-1.11l.02-.02c.596-.632 2.837-2.51 2.866-2.534zm5.438-13.103h-9.254v3.617a2.87 2.87 0 0 0 1.293 2.4l3.334 2.205 3.334-2.206a2.87 2.87 0 0 0 1.293-2.399V13.98z" fill="#073B4C"/>
        </g>
    </g>
</svg>
