<svg width="70" height="70" xmlns="http://www.w3.org/2000/svg">
    <g fill="none" fill-rule="evenodd">
        <circle fill="#FFD166" cx="35" cy="35" r="35"/>
        <path d="M47.468 19c.477 0 .865.386.865.86 0 .475-.388.86-.865.86h-3.29v5.828a6.337 6.337 0 0 1-2.853 5.296L36.561 35l4.763 3.155a6.338 6.338 0 0 1 2.853 5.297v5.828h3.29c.478 0 .866.385.866.86 0 .474-.388.86-.865.86H22.532a.864.864 0 0 1-.865-.86c0-.475.388-.86.865-.86h3.29v-5.828a6.337 6.337 0 0 1 2.853-5.296L33.439 35l-4.763-3.155a6.338 6.338 0 0 1-2.853-5.297V20.72h-3.29a.864.864 0 0 1-.866-.86c0-.474.388-.86.865-.86zM35 36.034l-5.365 3.554a4.624 4.624 0 0 0-2.08 3.864v5.828h14.891v-5.828a4.625 4.625 0 0 0-2.082-3.865L35 36.034zm-1.305 5.795c.751-.64 1.859-.64 2.61 0 .046.04 3.653 3.063 4.611 4.081l.032.034c.637.68.149 1.789-.788 1.789H29.84c-.937 0-1.425-1.108-.788-1.79l.032-.033c.958-1.018 4.565-4.042 4.611-4.081zm8.75-21.109h-14.89v5.828c0 1.558.777 3.002 2.081 3.865L35 33.966l5.365-3.554a4.624 4.624 0 0 0 2.08-3.864V20.72z" fill="#FFF"/>
    </g>
</svg>
