<svg xmlns="http://www.w3.org/2000/svg" width="40" height="40" viewBox="0 0 40 40">
    <g fill="none" fill-rule="evenodd">
        <g fill="#FFF">
            <g>
                <path d="M35.584 0c.597 0 1.083.482 1.083 1.075s-.486 1.076-1.083 1.076h-4.112v7.284c0 2.668-1.333 5.143-3.566 6.62L21.951 20l5.954 3.944c2.234 1.478 3.567 3.953 3.567 6.621v7.284h4.112c.597 0 1.083.483 1.083 1.076 0 .593-.486 1.075-1.083 1.075H4.416c-.597 0-1.083-.482-1.083-1.075s.486-1.076 1.083-1.076h4.112v-7.284c0-2.668 1.333-5.143 3.566-6.62L18.049 20l-5.954-3.944c-2.234-1.478-3.567-3.953-3.567-6.621V2.15H4.416c-.597 0-1.083-.483-1.083-1.076C3.333.482 3.82 0 4.416 0zM20 21.292l-6.706 4.443c-1.629 1.077-2.601 2.883-2.601 4.83v7.284h18.614v-7.284c0-1.947-.972-3.753-2.602-4.831L20 21.292zm-1.631 7.244c.939-.8 2.323-.8 3.262 0 .03.026 1.288 1.08 2.648 2.26l.391.34c1.11.967 2.216 1.96 2.725 2.501l.04.043c.796.851.186 2.236-.985 2.236h-12.9c-1.17 0-1.782-1.385-.985-2.236l.04-.043c.449-.477 1.364-1.306 2.335-2.16l.39-.342c1.5-1.309 3.006-2.57 3.039-2.6zM29.307 2.15H10.693v7.284c0 1.947.973 3.753 2.602 4.831L20 18.708l6.706-4.443c1.629-1.077 2.601-2.883 2.601-4.83V2.15z" transform="translate(-160 -136) translate(160 136)"/>
            </g>
        </g>
    </g>
</svg>
