<svg width="130" height="130" viewBox="0 0 130 130" xmlns="http://www.w3.org/2000/svg">
    <g fill="none" fill-rule="evenodd">
        <g transform="translate(8.667 30.333)">
            <rect fill="#FFF" width="112.667" height="69.333" rx="8.673"/>
            <path d="M104 0c4.786 0 8.667 3.869 8.667 8.641v52.051c0 4.772-3.88 8.641-8.667 8.641H8.667C3.88 69.333 0 65.464 0 60.692V8.642C0 3.868 3.88 0 8.667 0H104zm0 2.019H8.667c-3.597 0-6.526 2.85-6.64 6.408l-.003.214v52.051c0 3.586 2.859 6.506 6.428 6.62l.215.003H104c3.596 0 6.525-2.85 6.639-6.409l.003-.214V8.642c0-3.587-2.858-6.507-6.427-6.62L104 2.019z" fill="#073B4C" fill-rule="nonzero"/>
            <path d="M26.764 13.546v-.895a.599.599 0 0 1 .527-.639h51.782c1.179 0 2.295 1.754 2.794 3.035H26.764v-1.501z" fill="#FED168"/>
            <path fill="#FFF" fill-rule="nonzero" d="M69.415 16.301h3.078V26.31h-3.078z"/>
            <path fill="#FFF" d="M68.268 16.3V26.31h-10.57V16.3h4.226zM56.59 26.309H46.024L45.981 16.3h10.573zM44.873 26.309h-10.57l-.04-10.008h10.57zM26.803 26.309 26.764 16.3h6.352l.04 10.008zM84.749 25.205a24.5 24.5 0 0 1 .986 5.715H79.91a1.888 1.888 0 0 1-1.077-.504c-1.446-1.183-3.12-2.389-4.58-3.548a4.52 4.52 0 0 0-.612-.555V16.289h8.43c.217.749 2.387 7.935 2.678 8.916z"/>
            <path d="M85.735 38.362a.54.54 0 0 1-.53.532H27.29a.535.535 0 0 1-.527-.532V27.57h45.253c.39.008.767.147 1.07.394l1.678 1.352 2.311 1.865.59.473c.635.509 1.423.787 2.236.788h5.825l.008 5.92z" fill="#E8F2FB"/>
            <path d="M85.857 30.932H79.91a1.888 1.888 0 0 1-1.077-.504c-1.446-1.183-3.12-2.389-4.58-3.548a4.52 4.52 0 0 0-.612-.556V16.29h8.43c.217.749 2.387 7.935 2.678 8.928a24.5 24.5 0 0 1 .986 5.715h.122z" fill="#FFF"/>
            <path d="m88.848 22.276-1.419-4.442a.924.924 0 0 0-.884-.646h-3.078l-.432-1.474-.299-1.021a.43.43 0 0 0-.02-.067 4.977 4.977 0 0 0-4.634-3.217h-50.17a2.39 2.39 0 0 0-2.386 2.393v24.777c0 1.317.452 1.648 1.765 1.648h57.937c1.313 0 1.64-.454 1.64-1.774V31.4c.004-2.3-.403-4.584-1.204-6.74l-1.65-5.613h1.855l1.214 3.792a.929.929 0 0 0 1.584.355.932.932 0 0 0 .181-.927v.008zm-62.084-8.474v-.745a.535.535 0 0 1 .527-.532h51.782c1.179 0 2.295 1.458 2.794 2.522H26.764v-1.245zM72.493 16.3v10.008h-3.078V16.3h3.078zm-4.225 0v10.008h-10.57V16.3h10.57zm-11.69 10.008H46.024L45.965 16.3H56.55l.028 10.008zm-11.721 0H34.303l-.04-10.008h10.57l.024 10.008zm-18.081 0L26.764 16.3h6.352l.04 10.008h-6.38zm58.96 12.053a.54.54 0 0 1-.531.532H27.29a.535.535 0 0 1-.527-.532V27.57h45.253c.39.008.767.147 1.07.394l1.678 1.352 2.311 1.865.59.473c.635.509 1.423.787 2.236.788h5.825l.008 5.92zm-.987-13.157a24.5 24.5 0 0 1 .986 5.715H79.91a1.888 1.888 0 0 1-1.077-.504c-1.446-1.183-3.12-2.389-4.58-3.548a4.52 4.52 0 0 0-.612-.555V16.289h8.43c.217.749 2.387 7.935 2.678 8.916z" fill="#073B4B"/>
            <path d="M38.497 34.578c-6.332.115-6.328 9.547 0 9.65 6.317-.103 6.313-9.535 0-9.65" fill="#FED168"/>
            <path d="M38.54 44.76c-3.636-.036-5.306-2.783-5.322-5.318-.015-2.534 1.608-5.305 5.22-5.396 3.616.04 5.287 2.783 5.303 5.317.015 2.535-1.588 5.306-5.2 5.396zm-.082-9.65c-2.893.08-4.194 2.294-4.178 4.336.015 2.042 1.352 4.233 4.249 4.261 2.88-.07 4.186-2.294 4.17-4.336-.016-2.041-1.348-4.225-4.241-4.26z" fill="#073B4B" fill-rule="nonzero"/>
            <path d="M38.497 37.207c-2.877.052-2.877 4.336 0 4.391 2.877-.05 2.877-4.336 0-4.39" fill="#073B4B"/>
            <path d="M73.64 34.578c-6.324.115-6.32 9.539 0 9.65 6.325-.115 6.325-9.535 0-9.65" fill="#FED168"/>
            <path d="M73.692 44.76c-3.636-.036-5.303-2.783-5.322-5.318-.02-2.534 1.607-5.305 5.224-5.396 3.62.04 5.286 2.783 5.306 5.317.02 2.535-1.592 5.306-5.208 5.396zm-.083-9.65c-2.893.08-4.194 2.294-4.178 4.336.016 2.042 1.352 4.233 4.253 4.261 2.881-.07 4.182-2.294 4.17-4.336-.011-2.041-1.352-4.225-4.245-4.26z" fill="#073B4B" fill-rule="nonzero"/>
            <path d="M73.64 37.207c-2.877.052-2.877 4.336 0 4.391 2.878-.05 2.878-4.336 0-4.39" fill="#073B4B"/>
            <path d="M37.675 55.291c.582 0 1.054.59 1.054 1.317 0 .681-.414 1.242-.946 1.31l-.108.006H9.855c-.581 0-1.053-.59-1.053-1.316 0-.682.415-1.243.946-1.31l.108-.007h27.82zm33.45 0c.581 0 1.053.59 1.053 1.317 0 .681-.415 1.242-.946 1.31l-.108.006h-27.82c-.581 0-1.053-.59-1.053-1.316 0-.682.415-1.243.946-1.31l.108-.007h27.82zm32.788 0c.582 0 1.054.59 1.054 1.317 0 .681-.415 1.242-.946 1.31l-.108.006h-27.82c-.582 0-1.053-.59-1.053-1.316 0-.682.414-1.243.946-1.31l.107-.007h27.82z" fill="#073B4C" fill-rule="nonzero"/>
        </g>
        <g transform="translate(71.933 78)">
            <ellipse stroke="#073B4C" stroke-width="1.986" fill="#7ADEFF" cx="22.869" cy="22.844" rx="21.875" ry="21.851"/>
            <path d="M30.616 12.912c.297 0 .538.24.538.534a.537.537 0 0 1-.538.534h-2.044v3.617a3.933 3.933 0 0 1-1.773 3.288l-2.96 1.959 2.96 1.959a3.933 3.933 0 0 1 1.773 3.288v3.617h2.044c.297 0 .538.24.538.534a.537.537 0 0 1-.538.534H15.121a.537.537 0 0 1-.538-.534c0-.294.241-.534.538-.534h2.045v-3.617c0-1.325.662-2.554 1.772-3.288l2.96-1.959-2.96-1.959a3.933 3.933 0 0 1-1.772-3.288V13.98H15.12a.537.537 0 0 1-.538-.534c0-.295.241-.534.538-.534zM22.87 23.486l-3.334 2.206a2.87 2.87 0 0 0-1.293 2.399v3.617h9.254v-3.617a2.87 2.87 0 0 0-1.294-2.4l-3.333-2.205zm-.811 3.597a1.252 1.252 0 0 1 1.622 0c.028.025 2.27 1.902 2.865 2.533l.02.021c.396.423.092 1.11-.49 1.11h-6.413c-.582 0-.886-.687-.49-1.11l.02-.02c.596-.632 2.837-2.51 2.866-2.534zm5.438-13.103h-9.254v3.617a2.87 2.87 0 0 0 1.293 2.4l3.334 2.205 3.334-2.206a2.87 2.87 0 0 0 1.293-2.399V13.98z" fill="#073B4C"/>
        </g>
    </g>
</svg>
