<svg width="130" height="130" viewBox="0 0 130 130" xmlns="http://www.w3.org/2000/svg">
    <g fill="none" fill-rule="evenodd">
        <g fill-rule="nonzero">
            <path d="m80.96 17.34 21.285 20.06-.099 68.767c-.005 3.537-2.904 6.409-6.475 6.414l-60.615.086c-3.57.005-6.461-2.858-6.456-6.395l.12-82.454c.004-3.537 2.903-6.408 6.474-6.413l45.766-.065z" fill="#FFF"/>
            <path d="m83.64 48.957-39.602.056c-2.838.004-5.154 2.237-5.257 5.024l-.003.187-.049 33.621c-.004 2.812 2.244 5.099 5.057 5.193l.189.003 39.602-.056c2.838-.004 5.154-2.237 5.257-5.024l.003-.187.049-33.622c.004-2.81-2.244-5.098-5.057-5.192l-.189-.003z" fill="#E9F4FC"/>
            <path d="m80.96 17.34 21.285 20.06-.099 68.767c-.005 3.537-2.904 6.409-6.475 6.414l-60.615.086c-3.57.005-6.461-2.858-6.456-6.395l.12-82.454c.004-3.537 2.903-6.408 6.474-6.413l45.766-.065zm-.811 2.002-44.958.064c-2.395.004-4.35 1.883-4.448 4.232l-.003.177-.12 82.454c-.003 2.372 1.889 4.304 4.26 4.393l.18.003 60.614-.086c2.395-.003 4.35-1.882 4.448-4.232l.004-.177.098-67.908-20.075-18.92zm3.494 27.613c4.017-.005 7.27 3.216 7.263 7.195l-.048 33.621c-.006 3.98-3.267 7.21-7.284 7.215l-39.602.057c-4.017.005-7.27-3.216-7.263-7.195l.048-33.621c.006-3.98 3.267-7.21 7.284-7.215l39.602-.057zm-24.047 2.036-15.558.022c-2.838.004-5.154 2.237-5.257 5.024l-.003.187-.049 33.621c-.004 2.812 2.244 5.099 5.057 5.193l.189.003 15.558-.022.063-44.028zm14.548-.02-12.527.017-.064 44.028L74.08 93l.064-44.029zm9.496-.014-7.476.01-.063 44.029 7.476-.01c2.838-.005 5.154-2.238 5.257-5.025l.003-.187.049-33.622c.004-2.81-2.244-5.098-5.057-5.192l-.189-.003zM63.86 35.176c.557-.001 1.009.446 1.008.999 0 .518-.399.945-.908.997l-.104.005-26.67.038c-.558 0-1.01-.447-1.009-1 0-.517.399-.944.908-.996l.104-.005 26.67-.038zm-10.498-6.39c.558 0 1.01.447 1.009 1-.001.518-.4.945-.909.997l-.103.005-16.164.023c-.558 0-1.01-.447-1.009-1 .001-.518.4-.944.909-.996l.103-.006 16.164-.022z" fill="#073B4C"/>
            <path d="m81.243 17.333 21.024 19.82v1.78H86.09c-3.573 0-6.47-2.866-6.47-6.4v-15.2h1.622zm17.859 19.6-17.459-16.46v12.06c0 2.37 1.896 4.303 4.27 4.396l.178.003h13.011z" fill="#073B4C"/>
            <path d="M99.084 36.927 81.66 20.48l-.018 12.068c-.003 2.372 1.888 4.304 4.26 4.393l.18.003 13-.018z" fill="#E9F4FC"/>
        </g>
        <g transform="translate(78.897 56.707)">
            <ellipse stroke="#073B4C" stroke-width="1.986" fill="#7ADEFF" cx="22.869" cy="22.844" rx="21.875" ry="21.851"/>
            <path d="M30.616 12.912c.297 0 .538.24.538.534a.537.537 0 0 1-.538.534h-2.044v3.617a3.933 3.933 0 0 1-1.773 3.288l-2.96 1.959 2.96 1.959a3.933 3.933 0 0 1 1.773 3.288v3.617h2.044c.297 0 .538.24.538.534a.537.537 0 0 1-.538.534H15.121a.537.537 0 0 1-.538-.534c0-.294.241-.534.538-.534h2.045v-3.617c0-1.325.662-2.554 1.772-3.288l2.96-1.959-2.96-1.959a3.933 3.933 0 0 1-1.772-3.288V13.98H15.12a.537.537 0 0 1-.538-.534c0-.295.241-.534.538-.534zM22.87 23.486l-3.334 2.206a2.87 2.87 0 0 0-1.293 2.399v3.617h9.254v-3.617a2.87 2.87 0 0 0-1.294-2.4l-3.333-2.205zm-.811 3.597a1.252 1.252 0 0 1 1.622 0c.028.025 2.27 1.902 2.865 2.533l.02.021c.396.423.092 1.11-.49 1.11h-6.413c-.582 0-.886-.687-.49-1.11l.02-.02c.596-.632 2.837-2.51 2.866-2.534zm5.438-13.103h-9.254v3.617a2.87 2.87 0 0 0 1.293 2.4l3.334 2.205 3.334-2.206a2.87 2.87 0 0 0 1.293-2.399V13.98z" fill="#073B4C"/>
        </g>
    </g>
</svg>
