<svg width="76" height="17" viewBox="0 0 76 17" xmlns="http://www.w3.org/2000/svg">
    <path d="M0 3.696h1.91l.038 1.866h.078c.688-1.256 1.949-2.107 3.457-2.107 2.827 0 4.45 2.329 4.45 5.174 0 2.809-1.661 5.23-4.468 5.23-1.777 0-2.694-.924-3.19-1.904h-.077V17H.004L0 3.696zm4.947 8.13c1.642 0 2.75-1.275 2.75-3.123 0-1.7-.918-3.307-2.674-3.307-1.719 0-2.75 1.497-2.75 3.233 0 1.737.918 3.197 2.674 3.197m11.363-8.37c2.827 0 4.603 2.069 4.603 4.896v1.183h-7.582c.172 1.404 1.528 2.365 3.227 2.365 1.28 0 2.197-.628 2.865-1.293l1.3 1.256c-1.109 1.349-2.675 1.977-4.317 1.977-2.674 0-5.234-1.848-5.234-5.118 0-2.938 2.293-5.267 5.138-5.267m2.464 4.416c-.038-1.386-.898-2.476-2.559-2.476-1.433 0-2.712.997-2.884 2.476h5.443zm3.878-4.176h2.006v1.81h.057c.496-1.275 1.222-1.81 2.674-1.81h.668v2.123h-1.413c-1.26 0-1.796.72-1.796 2.05v5.714h-2.194l-.002-9.887zm7.219 6.671c.84.998 1.87 1.738 3.208 1.738.935 0 1.719-.352 1.719-1.11 0-.794-.974-1.184-2.12-1.515-1.566-.48-3.495-1.164-3.495-3.049 0-1.626 1.68-3.011 3.8-3.011 2.197 0 3.476 1.22 4.068 2.513l-1.602.794c-.436-.94-1.399-1.546-2.463-1.552-.919 0-1.605.462-1.605 1.146 0 .831.84 1.108 2.006 1.46 1.604.48 3.61 1.071 3.61 3.03 0 1.958-1.93 3.049-3.992 3.049-1.82.001-3.516-.89-4.507-2.366l1.373-1.127zm13.578-6.948c3.075 0 5.329 2.366 5.329 5.211 0 2.864-2.426 5.23-5.367 5.23s-5.366-2.366-5.366-5.23c0-2.845 2.463-5.21 5.404-5.21m-.04 8.5c1.834 0 3.266-1.46 3.266-3.29 0-1.81-1.432-3.27-3.265-3.27-1.853 0-3.266 1.442-3.266 3.27 0 1.812 1.413 3.29 3.266 3.29m6.799-8.223h2.005v1.866h.038c.688-1.184 1.662-2.143 3.38-2.143 2.235 0 3.457 1.626 3.457 3.917v6.246h-2.194V7.669c0-1.35-.515-2.366-1.888-2.366-1.719 0-2.598 1.627-2.598 3.16v5.119h-2.194l-.006-9.886zM65.3 7.816h2.005v-.628c0-1.016-.63-1.792-1.872-1.792-1.184 0-2.253.794-2.788 1.922l-1.853-.869c.86-1.904 2.598-2.994 4.66-2.994 2.348 0 4.05 1.333 4.05 3.733v4.324c0 .222.038.314.286.314h.765v1.756H69.16c-.878 0-1.47-.5-1.47-1.571v-.48h-.096c-.688 1.44-2.082 2.27-3.629 2.27-1.642 0-3.19-.923-3.19-2.863s1.95-3.123 4.527-3.123m-.898 4.231c1.378 0 2.731-1.108 2.903-2.753H65.42c-1.432 0-2.444.499-2.444 1.515 0 .776.592 1.238 1.432 1.238M72.085 0h2.194v11.456c0 .259.019.37.343.37H76v1.756h-2.127c-1.394 0-1.795-.869-1.795-2.107L72.085 0z" fill="#00AFE3" fill-rule="nonzero"/>
</svg>
