<svg width="150" height="150" viewBox="0 0 150 150" xmlns="http://www.w3.org/2000/svg">
    <g fill="none" fill-rule="evenodd">
        <g fill-rule="nonzero">
            <path d="M104.473 3H92.438l-1.036 3.763c-.81 2.943-3.467 4.98-6.494 4.98H64.342c-3.027 0-5.683-2.037-6.494-4.98L56.812 3H44.777c-3.118 0-5.66 2.493-5.773 5.61L39 8.83v133.092c0 3.146 2.47 5.71 5.56 5.825l.217.004h59.696c3.118 0 5.66-2.492 5.773-5.61l.004-.219V8.83c0-3.146-2.47-5.71-5.56-5.825L104.473 3z" fill="#FFF"/>
            <path d="M44.69 0h59.87c4.8 0 8.69 3.919 8.69 8.753v133.244c0 4.834-3.89 8.753-8.69 8.753H44.69c-4.8 0-8.69-3.919-8.69-8.753V8.753C36 3.92 39.89 0 44.69 0zm59.87 2.918H92.49l-1.04 3.767c-.813 2.947-3.476 4.986-6.513 4.986H64.313c-3.037 0-5.7-2.04-6.513-4.986l-1.04-3.767H44.69c-3.126 0-5.675 2.495-5.79 5.616l-.003.22v133.243c0 3.15 2.477 5.716 5.576 5.831l.218.004h59.868c3.127 0 5.676-2.495 5.79-5.616l.004-.22V8.754c0-3.15-2.477-5.716-5.576-5.831l-.218-.004zM85.73 138.106c.8 0 1.448.654 1.448 1.46 0 .758-.574 1.38-1.309 1.452l-.14.006H63.52c-.8 0-1.448-.653-1.448-1.459 0-.758.574-1.381 1.309-1.452l.14-.007H85.73zM89.482 2.918H59.767l.824 2.986a3.869 3.869 0 0 0 3.522 2.844l.2.005h20.624a3.865 3.865 0 0 0 3.664-2.657l.058-.192.823-2.986z" fill="#052C50"/>
            <path d="M90 3H59.25l.853 3.07a3.998 3.998 0 0 0 3.645 2.925l.206.005h21.343a3.997 3.997 0 0 0 3.79-2.732l.061-.197L90 3z" fill="#FFD166"/>
            <path d="M93.505 77.905h-37.76a4.841 4.841 0 0 0-4.836 4.63l-.004.21v37.76a4.841 4.841 0 0 0 4.63 4.836l.21.004h37.76a4.841 4.841 0 0 0 4.836-4.63l.004-.21v-37.76a4.841 4.841 0 0 0-4.63-4.836l-.21-.004z" fill="#E9F4FC"/>
            <path d="M66.88 107.918c.267 0 .484.217.484.484v9.682a.484.484 0 0 1-.484.484h-9.682a.484.484 0 0 1-.484-.484v-9.682c0-.267.216-.484.484-.484h9.682zm25.172 0c.268 0 .484.217.484.484v9.682a.484.484 0 0 1-.484.484H82.37a.484.484 0 0 1-.484-.484v-9.682c0-.267.217-.484.484-.484h9.682zM66.88 84.682c.267 0 .484.217.484.484v9.682a.484.484 0 0 1-.484.484h-9.682a.484.484 0 0 1-.484-.484v-9.682c0-.267.216-.484.484-.484h9.682zm25.172 0c.268 0 .484.217.484.484v9.682a.484.484 0 0 1-.484.484H82.37a.484.484 0 0 1-.484-.484v-9.682c0-.267.217-.484.484-.484h9.682z" fill="#FFD166"/>
            <path d="M93.505 75a7.745 7.745 0 0 1 7.745 7.745v37.76a7.745 7.745 0 0 1-7.745 7.745h-37.76A7.745 7.745 0 0 1 48 120.505v-37.76A7.745 7.745 0 0 1 55.745 75h37.76zm0 2.905h-37.76a4.841 4.841 0 0 0-4.836 4.63l-.004.21v37.76a4.841 4.841 0 0 0 4.63 4.836l.21.004h37.76a4.841 4.841 0 0 0 4.836-4.63l.004-.21v-37.76a4.841 4.841 0 0 0-4.63-4.836l-.21-.004zM66.88 105.014a3.389 3.389 0 0 1 3.383 3.202l.005.186v9.682a3.389 3.389 0 0 1-3.203 3.384l-.185.005h-9.682a3.389 3.389 0 0 1-3.384-3.203l-.005-.186v-9.682a3.389 3.389 0 0 1 3.203-3.383l.186-.005h9.682zm25.172 0a3.389 3.389 0 0 1 3.384 3.202l.005.186v9.682a3.389 3.389 0 0 1-3.203 3.384l-.186.005H82.37a3.389 3.389 0 0 1-3.383-3.203l-.005-.186v-9.682a3.389 3.389 0 0 1 3.203-3.383l.185-.005h9.682zM74.625 81.777c.755 0 1.375.576 1.446 1.313l.006.14v16.942H93.02a1.452 1.452 0 0 1 .14 2.899l-.14.006H76.077v16.943a1.452 1.452 0 0 1-2.898.14l-.006-.14v-16.944l-12.103.001a1.452 1.452 0 0 1-.14-2.898l.14-.006h12.102V83.23c0-.803.65-1.453 1.453-1.453zm-7.745 26.141h-9.682a.484.484 0 0 0-.477.397l-.007.087v9.682c0 .238.17.435.397.476l.087.008h9.682a.484.484 0 0 0 .476-.397l.008-.087v-9.682a.484.484 0 0 0-.484-.484zm25.172 0H82.37a.484.484 0 0 0-.476.397l-.008.087v9.682c0 .238.172.435.397.476l.087.008h9.682a.484.484 0 0 0 .477-.397l.007-.087v-9.682a.484.484 0 0 0-.484-.484zm-28.561 2.905c.535 0 .968.433.968.968v2.904a.968.968 0 0 1-.968.969h-2.905a.968.968 0 0 1-.968-.969v-2.904c0-.535.434-.968.968-.968h2.905zm25.173 0c.534 0 .968.433.968.968v2.904a.968.968 0 0 1-.968.969h-2.905a.968.968 0 0 1-.968-.969v-2.904c0-.535.433-.968.968-.968h2.905zm-26.141 1.936h-.968v.968h.968v-.968zm25.172 0h-.968v.968h.968v-.968zm-32.434-12.586a1.452 1.452 0 1 1 0 2.904 1.452 1.452 0 0 1 0-2.904zM66.88 81.777a3.389 3.389 0 0 1 3.383 3.203l.005.186v9.682a3.389 3.389 0 0 1-3.203 3.383l-.185.005h-9.682a3.389 3.389 0 0 1-3.384-3.202l-.005-.186v-9.682a3.389 3.389 0 0 1 3.203-3.384l.186-.005h9.682zm25.172 0a3.389 3.389 0 0 1 3.384 3.203l.005.186v9.682a3.389 3.389 0 0 1-3.203 3.383l-.186.005H82.37a3.389 3.389 0 0 1-3.383-3.202l-.005-.186v-9.682a3.389 3.389 0 0 1 3.203-3.384l.185-.005h9.682zM66.88 84.682h-9.682a.484.484 0 0 0-.477.397l-.007.087v9.682c0 .237.17.435.397.476l.087.008h9.682a.484.484 0 0 0 .476-.397l.008-.087v-9.682a.484.484 0 0 0-.484-.484zm25.172 0H82.37a.484.484 0 0 0-.476.397l-.008.087v9.682c0 .237.172.435.397.476l.087.008h9.682a.484.484 0 0 0 .477-.397l.007-.087v-9.682a.484.484 0 0 0-.484-.484zm-28.561 2.904c.535 0 .968.434.968.969v2.904a.968.968 0 0 1-.968.968h-2.905a.968.968 0 0 1-.968-.968v-2.904c0-.535.434-.969.968-.969h2.905zm25.173 0c.534 0 .968.434.968.969v2.904a.968.968 0 0 1-.968.968h-2.905a.968.968 0 0 1-.968-.968v-2.904c0-.535.433-.969.968-.969h2.905zm-26.141 1.937h-.968v.968h.968v-.968zm25.172 0h-.968v.968h.968v-.968z" fill="#052C50"/>
        </g>
        <path d="M75 43.5c1.168 0 2.223.246 2.987.628.452.226.809.503 1.057.801.305.369.456.776.456 1.196-1.123 1.276-1.715 1.187-2.464 1.027-.573-.122-1.276-.277-2.036-.277s-1.463.155-2.036.277c-.657.14-1.183.219-1.519.156-1.135-1.665-.788-2.017-.489-2.379.248-.298.605-.575 1.057-.8.764-.383 1.819-.629 2.987-.629z" stroke="#073B4C" stroke-width="1.5"/>
        <ellipse fill="#7ADEFF" cx="112.442" cy="65.976" rx="23.192" ry="23.226"/>
        <path d="M65.783 34.128c.64.09 1.188.547 1.37 1.094.183.639-.091 1.277-.548 1.642a1.545 1.545 0 0 1-.913.274c-.274 0-.64-.091-.914-.274-.548-.365-.822-1.186-.548-1.824a1.628 1.628 0 0 1 1.462-.912h.091zm19.674 0c.64.09 1.187.547 1.37 1.094.183.639-.091 1.277-.548 1.642a1.545 1.545 0 0 1-.914.274c-.274 0-.64-.091-.913-.274-.548-.365-.822-1.186-.548-1.824a1.628 1.628 0 0 1 1.461-.912h.092zM112.442 40.5C98.39 40.5 87 51.907 87 65.976c0 14.069 11.39 25.476 25.442 25.476s25.443-11.407 25.443-25.476c0-14.07-11.39-25.476-25.443-25.476zm0 2.25c12.81 0 23.193 10.399 23.193 23.226s-10.384 23.226-23.193 23.226c-12.808 0-23.192-10.399-23.192-23.226S99.634 42.75 112.442 42.75z" fill="#073B4C" fill-rule="nonzero"/>
        <path d="M122.363 53.226c.38 0 .689.307.689.685a.688.688 0 0 1-.689.686h-2.618v4.644a5.052 5.052 0 0 1-2.27 4.22l-3.79 2.515 3.79 2.514a5.053 5.053 0 0 1 2.27 4.221v4.644h2.618c.38 0 .689.307.689.685a.688.688 0 0 1-.689.686h-19.841a.688.688 0 0 1-.69-.686c0-.378.31-.685.69-.685h2.618V72.71c0-1.701.848-3.279 2.27-4.22l3.79-2.515-3.79-2.515a5.053 5.053 0 0 1-2.27-4.22v-4.644h-2.618a.688.688 0 0 1-.69-.686c0-.378.31-.685.69-.685zm-9.92 13.574-4.27 2.832a3.686 3.686 0 0 0-1.656 3.08v4.643h11.85V72.71c0-1.241-.62-2.393-1.656-3.08l-4.269-2.831zm-1.039 4.617a1.6 1.6 0 0 1 2.077 0c.037.032 2.907 2.442 3.67 3.253l.024.027c.507.542.119 1.425-.627 1.425h-8.212c-.745 0-1.134-.883-.627-1.425l.026-.027c.61-.65 2.568-2.321 3.346-2.98l.169-.143c.094-.079.15-.125.154-.13zm6.963-16.82h-11.85v4.644c0 1.24.62 2.392 1.657 3.08l4.268 2.831 4.27-2.832a3.686 3.686 0 0 0 1.655-3.08v-4.643z" fill="#073B4C"/>
    </g>
</svg>
