<svg width="150" height="150" viewBox="0 0 150 150" xmlns="http://www.w3.org/2000/svg">
    <g fill="none" fill-rule="evenodd">
        <g fill-rule="nonzero">
            <path d="M104.473 3H92.438l-1.036 3.763c-.81 2.943-3.467 4.98-6.494 4.98H64.342c-3.027 0-5.683-2.037-6.494-4.98L56.812 3H44.777c-3.118 0-5.66 2.493-5.773 5.61L39 8.83v133.092c0 3.146 2.47 5.71 5.56 5.825l.217.004h59.696c3.118 0 5.66-2.492 5.773-5.61l.004-.219V8.83c0-3.146-2.47-5.71-5.56-5.825L104.473 3z" fill="#FFF"/>
            <path d="M44.69 0h59.87c4.8 0 8.69 3.919 8.69 8.753v133.244c0 4.834-3.89 8.753-8.69 8.753H44.69c-4.8 0-8.69-3.919-8.69-8.753V8.753C36 3.92 39.89 0 44.69 0zm59.87 2.918H92.49l-1.04 3.767c-.813 2.947-3.476 4.986-6.513 4.986H64.313c-3.037 0-5.7-2.04-6.513-4.986l-1.04-3.767H44.69c-3.126 0-5.675 2.495-5.79 5.616l-.003.22v133.243c0 3.15 2.477 5.716 5.576 5.831l.218.004h59.868c3.127 0 5.676-2.495 5.79-5.616l.004-.22V8.754c0-3.15-2.477-5.716-5.576-5.831l-.218-.004zM85.73 138.106c.8 0 1.448.654 1.448 1.46 0 .758-.574 1.38-1.309 1.452l-.14.006H63.52c-.8 0-1.448-.653-1.448-1.459 0-.758.574-1.381 1.309-1.452l.14-.007H85.73zM89.482 2.918H59.767l.824 2.986a3.869 3.869 0 0 0 3.522 2.844l.2.005h20.624a3.865 3.865 0 0 0 3.664-2.657l.058-.192.823-2.986z" fill="#052C50"/>
            <path d="M90 3H59.25l.853 3.07a3.998 3.998 0 0 0 3.645 2.925l.206.005h21.343a3.997 3.997 0 0 0 3.79-2.732l.061-.197L90 3z" fill="#FFD166"/>
            <path d="M93.505 77.905h-37.76a4.841 4.841 0 0 0-4.836 4.63l-.004.21v37.76a4.841 4.841 0 0 0 4.63 4.836l.21.004h37.76a4.841 4.841 0 0 0 4.836-4.63l.004-.21v-37.76a4.841 4.841 0 0 0-4.63-4.836l-.21-.004z" fill="#E9F4FC"/>
            <path d="M66.88 107.918c.267 0 .484.217.484.484v9.682a.484.484 0 0 1-.484.484h-9.682a.484.484 0 0 1-.484-.484v-9.682c0-.267.216-.484.484-.484h9.682zm25.172 0c.268 0 .484.217.484.484v9.682a.484.484 0 0 1-.484.484H82.37a.484.484 0 0 1-.484-.484v-9.682c0-.267.217-.484.484-.484h9.682zM66.88 84.682c.267 0 .484.217.484.484v9.682a.484.484 0 0 1-.484.484h-9.682a.484.484 0 0 1-.484-.484v-9.682c0-.267.216-.484.484-.484h9.682zm25.172 0c.268 0 .484.217.484.484v9.682a.484.484 0 0 1-.484.484H82.37a.484.484 0 0 1-.484-.484v-9.682c0-.267.217-.484.484-.484h9.682z" fill="#FFD166"/>
            <path d="M93.505 75a7.745 7.745 0 0 1 7.745 7.745v37.76a7.745 7.745 0 0 1-7.745 7.745h-37.76A7.745 7.745 0 0 1 48 120.505v-37.76A7.745 7.745 0 0 1 55.745 75h37.76zm0 2.905h-37.76a4.841 4.841 0 0 0-4.836 4.63l-.004.21v37.76a4.841 4.841 0 0 0 4.63 4.836l.21.004h37.76a4.841 4.841 0 0 0 4.836-4.63l.004-.21v-37.76a4.841 4.841 0 0 0-4.63-4.836l-.21-.004zM66.88 105.014a3.389 3.389 0 0 1 3.383 3.202l.005.186v9.682a3.389 3.389 0 0 1-3.203 3.384l-.185.005h-9.682a3.389 3.389 0 0 1-3.384-3.203l-.005-.186v-9.682a3.389 3.389 0 0 1 3.203-3.383l.186-.005h9.682zm25.172 0a3.389 3.389 0 0 1 3.384 3.202l.005.186v9.682a3.389 3.389 0 0 1-3.203 3.384l-.186.005H82.37a3.389 3.389 0 0 1-3.383-3.203l-.005-.186v-9.682a3.389 3.389 0 0 1 3.203-3.383l.185-.005h9.682zM74.625 81.777c.755 0 1.375.576 1.446 1.313l.006.14v16.942H93.02a1.452 1.452 0 0 1 .14 2.899l-.14.006H76.077v16.943a1.452 1.452 0 0 1-2.898.14l-.006-.14v-16.944l-12.103.001a1.452 1.452 0 0 1-.14-2.898l.14-.006h12.102V83.23c0-.803.65-1.453 1.453-1.453zm-7.745 26.141h-9.682a.484.484 0 0 0-.477.397l-.007.087v9.682c0 .238.17.435.397.476l.087.008h9.682a.484.484 0 0 0 .476-.397l.008-.087v-9.682a.484.484 0 0 0-.484-.484zm25.172 0H82.37a.484.484 0 0 0-.476.397l-.008.087v9.682c0 .238.172.435.397.476l.087.008h9.682a.484.484 0 0 0 .477-.397l.007-.087v-9.682a.484.484 0 0 0-.484-.484zm-28.561 2.905c.535 0 .968.433.968.968v2.904a.968.968 0 0 1-.968.969h-2.905a.968.968 0 0 1-.968-.969v-2.904c0-.535.434-.968.968-.968h2.905zm25.173 0c.534 0 .968.433.968.968v2.904a.968.968 0 0 1-.968.969h-2.905a.968.968 0 0 1-.968-.969v-2.904c0-.535.433-.968.968-.968h2.905zm-26.141 1.936h-.968v.968h.968v-.968zm25.172 0h-.968v.968h.968v-.968zm-32.434-12.586a1.452 1.452 0 1 1 0 2.904 1.452 1.452 0 0 1 0-2.904zM66.88 81.777a3.389 3.389 0 0 1 3.383 3.203l.005.186v9.682a3.389 3.389 0 0 1-3.203 3.383l-.185.005h-9.682a3.389 3.389 0 0 1-3.384-3.202l-.005-.186v-9.682a3.389 3.389 0 0 1 3.203-3.384l.186-.005h9.682zm25.172 0a3.389 3.389 0 0 1 3.384 3.203l.005.186v9.682a3.389 3.389 0 0 1-3.203 3.383l-.186.005H82.37a3.389 3.389 0 0 1-3.383-3.202l-.005-.186v-9.682a3.389 3.389 0 0 1 3.203-3.384l.185-.005h9.682zM66.88 84.682h-9.682a.484.484 0 0 0-.477.397l-.007.087v9.682c0 .237.17.435.397.476l.087.008h9.682a.484.484 0 0 0 .476-.397l.008-.087v-9.682a.484.484 0 0 0-.484-.484zm25.172 0H82.37a.484.484 0 0 0-.476.397l-.008.087v9.682c0 .237.172.435.397.476l.087.008h9.682a.484.484 0 0 0 .477-.397l.007-.087v-9.682a.484.484 0 0 0-.484-.484zm-28.561 2.904c.535 0 .968.434.968.969v2.904a.968.968 0 0 1-.968.968h-2.905a.968.968 0 0 1-.968-.968v-2.904c0-.535.434-.969.968-.969h2.905zm25.173 0c.534 0 .968.434.968.969v2.904a.968.968 0 0 1-.968.968h-2.905a.968.968 0 0 1-.968-.968v-2.904c0-.535.433-.969.968-.969h2.905zm-26.141 1.937h-.968v.968h.968v-.968zm25.172 0h-.968v.968h.968v-.968z" fill="#052C50"/>
        </g>
        <g fill="#073B4C" fill-rule="nonzero">
            <path d="M85.584 49.766c.584.31.707.891.382 1.395a1.005 1.005 0 0 1-1.406.3 16.437 16.437 0 0 0-11.527-2.488c1.397 2.689.971 4.598-1.475 5.254-2.373.637-3.626-.704-3.72-3.53-.533.28-1.055.592-1.565.936-.23.136-.478.189-.744.159a.886.886 0 0 1-.652-.425c-.203-.348-.208-.781-.013-1.084.066-.1.163-.252.279-.32 6.2-4.191 14.224-4.255 20.441-.197zm-15.068-.197.704 1.66a.375.375 0 0 1-.658.352l-.032-.06-.723-1.706c-.158.058-.316.12-.473.184l-.004.09c-.09 2.206.434 2.96 1.61 2.742l.128-.027.101-.025c1.351-.363 1.57-1.296.452-3.28l-.12-.209c-.331.08-.66.174-.985.279zM66.29 33.907a.75.75 0 0 1 .99 1.123l-.594.595.594.595a.75.75 0 0 1-.99 1.123l-.07-.063-.595-.594-.595.594-.07.063a.75.75 0 0 1-.99-1.123l.594-.595-.594-.595a.75.75 0 0 1 .99-1.123l.07.063.595.594.595-.594zM85.79 33.907a.75.75 0 0 1 .99 1.123l-.594.595.594.595a.75.75 0 0 1-.99 1.123l-.07-.063-.595-.594-.595.594-.07.063a.75.75 0 0 1-.99-1.123l.594-.595-.594-.595a.75.75 0 0 1 .99-1.123l.07.063.595.594.595-.594z"/>
        </g>
        <ellipse fill="#FFD166" cx="112.442" cy="65.976" rx="23.192" ry="23.226"/>
        <path d="M112.442 40.5C98.39 40.5 87 51.907 87 65.976c0 14.069 11.39 25.476 25.442 25.476s25.443-11.407 25.443-25.476c0-14.07-11.39-25.476-25.443-25.476zm0 2.25c12.81 0 23.193 10.399 23.193 23.226s-10.384 23.226-23.193 23.226c-12.808 0-23.192-10.399-23.192-23.226S99.634 42.75 112.442 42.75z" fill="#073B4C" fill-rule="nonzero"/>
        <path d="M112.44 61.658c3.754 0 7.198 1.56 9.217 4.178.228.297.276.692.127 1.034-.15.343-.474.58-.852.625a1.075 1.075 0 0 1-.979-.409c-1.614-2.093-4.425-3.344-7.512-3.344-.355 0-.707.017-1.053.05l.924.926.13.195.388.324 1.699 1.7c1.435.392 2.684 1.184 3.533 2.278.295.382.28.898-.003 1.261l6.833 6.843a.797.797 0 0 1-.562 1.358.791.791 0 0 1-.463-.15l-.098-.083-23.825-23.86a.797.797 0 0 1 0-1.125.794.794 0 0 1 1.034-.077l.09.077 4.38 4.386c2.111-.928 4.501-1.432 6.993-1.432 5.104 0 9.782 2.118 12.518 5.657a1.03 1.03 0 0 1-.21 1.461 1.082 1.082 0 0 1-1.493-.206c-2.332-3.023-6.375-4.828-10.815-4.828-1.904 0-3.736.333-5.39.952l2.52 2.522a13.182 13.182 0 0 1 2.87-.313zm0 10.394c.984 0 1.782.78 1.782 1.743 0 .963-.797 1.743-1.781 1.743-.984 0-1.781-.78-1.781-1.743 0-.963.797-1.743 1.78-1.743zm-2.24-5.072 1.78 1.783c-1.415.114-2.71.747-3.45 1.709a1.082 1.082 0 0 1-1.494.205 1.03 1.03 0 0 1-.21-1.462c.814-1.055 2.004-1.83 3.373-2.235zm-3.812-3.818 1.551 1.555c-1.207.569-2.242 1.37-3.007 2.36a1.08 1.08 0 0 1-1.49.208 1.028 1.028 0 0 1-.214-1.459c.835-1.079 1.915-1.98 3.16-2.664zm-3.725-3.73 1.505 1.508a11.275 11.275 0 0 0-2.542 2.388 1.08 1.08 0 0 1-1.49.204 1.026 1.026 0 0 1-.209-1.462 13.272 13.272 0 0 1 2.736-2.637z" fill="#073B4C"/>
    </g>
</svg>
