<svg xmlns="http://www.w3.org/2000/svg" width="182" height="179" viewBox="0 0 182 179">
    <g fill="none" fill-rule="evenodd">
        <g>
            <g transform="translate(-80 -81) translate(80 81)">
                <ellipse cx="100.5" cy="109" fill="#00D576" rx="70.5" ry="70"/>
                <g fill-rule="nonzero" transform="translate(64 29)">
                    <g fill="#DCDCDC">
                        <path d="M65.166.175H8.146C3.872.175.372 3.675.372 7.949v7.775H72.94V7.949c0-4.274-3.5-7.774-7.774-7.774zM.372 105.656v15.549c0 4.274 3.5 7.774 7.774 7.774h57.015c4.275 0 7.775-3.5 7.775-7.774v-15.549H.37z" transform="translate(.875 1.313)"/>
                    </g>
                    <path fill="#FFF" d="M1.247 17.036H73.526V107.052H1.247z"/>
                    <circle cx="37.529" cy="118.632" r="3.889" fill="#FFF"/>
                    <g fill="#225C58">
                        <path d="M66.04.328H9.022C4.095.328.083 4.336.083 9.266v113.256c0 4.926 4.008 8.938 8.938 8.938h57.015c4.927 0 8.938-4.008 8.938-8.938V9.262c0-4.926-4.007-8.934-8.933-8.934zm6.611 105.481H21.7c-.639 0-1.164.521-1.164 1.164 0 .639.52 1.164 1.164 1.164h50.951v14.39c0 3.644-2.966 6.614-6.61 6.614H9.02c-3.649 0-6.615-2.966-6.615-6.615v-14.39h6.615c.639 0 1.164-.52 1.164-1.163s-.52-1.164-1.164-1.164H2.406V18.2h70.245v87.61zm0-89.932H2.406V9.262c0-3.645 2.966-6.615 6.615-6.615h57.015c3.645 0 6.61 2.966 6.61 6.615v6.615h.005z"/>
                        <path d="M45.303 7.32H37.53c-1.072 0-1.943.87-1.943 1.942s.87 1.942 1.943 1.942h7.774c1.072 0 1.943-.87 1.943-1.942s-.867-1.943-1.943-1.943zM37.529 124.464c3.215 0 5.832-2.616 5.832-5.832 0-3.215-2.617-5.831-5.832-5.831-3.216 0-5.832 2.616-5.832 5.831 0 3.216 2.616 5.832 5.832 5.832zm0-9.72c2.143 0 3.89 1.745 3.89 3.888 0 2.144-1.746 3.89-3.89 3.89s-3.89-1.746-3.89-3.89c0-2.143 1.746-3.889 3.89-3.889z"/>
                        <circle cx="29.751" cy="9.257" r="1.942" transform="rotate(-13.286 29.751 9.257)"/>
                    </g>
                    <g transform="translate(18 42)">
                        <circle cx="20.026" cy="20.107" r="17.749" fill="#EBC712"/>
                        <path fill="#225C58" d="M17.365 27.497c-.287 0-.555-.112-.756-.318l-7.1-7.181c-.29-.284-.402-.694-.303-1.077.099-.38.393-.68.769-.78.088-.023.18-.036.27-.036.288 0 .57.12.77.331l5.852 5.915c.13.133.31.209.498.209s.368-.076.498-.209l11.115-11.243c.024-.018.044-.039.065-.06.201-.208.482-.33.77-.33.09 0 .182.012.27.036.376.099.67.398.77.78.098.382-.014.792-.295 1.068L18.124 27.179c-.206.204-.475.318-.759.318z"/>
                        <path fill="#225C58" d="M20.026 39.602C9.276 39.602.53 30.857.53 20.105.53 9.352 9.277.608 20.026.608c10.75 0 19.497 8.744 19.497 19.497 0 10.752-8.747 19.497-19.497 19.497zm0-37.025C10.361 2.577 2.5 10.44 2.5 20.105c0 9.663 7.864 17.527 17.527 17.527 9.664 0 17.528-7.864 17.528-17.527 0-9.664-7.862-17.528-17.528-17.528z"/>
                    </g>
                </g>
                <path fill="#00D576" fill-rule="nonzero" d="M24 38c5.523 0 10 4.477 10 10-.004 5.521-4.479 9.996-10 10-5.523 0-10-4.477-10-10s4.477-10 10-10zm0 1.538c-4.673 0-8.462 3.789-8.462 8.462s3.789 8.462 8.462 8.462 8.462-3.789 8.462-8.461c-.004-4.673-3.79-8.46-8.463-8.463z"/>
                <path fill="#00D576" d="M42.5 21c.782 0 1.425.633 1.494 1.442l.006.145v3.826C44 27.29 43.328 28 42.5 28c-.782 0-1.425-.633-1.494-1.442L41 26.413v-3.826c0-.877.672-1.587 1.5-1.587zm6.915-3c.875 0 1.585.671 1.585 1.5 0 .783-.634 1.425-1.44 1.494l-.145.006h-3.83C44.71 21 44 20.329 44 19.5c0-.783.634-1.425 1.44-1.494l.145-.006h3.83zm-10 0c.875 0 1.585.671 1.585 1.5 0 .783-.634 1.425-1.44 1.494l-.145.006h-3.83C34.71 21 34 20.329 34 19.5c0-.783.634-1.425 1.44-1.494l.145-.006h3.83zm3.085-7c.782 0 1.425.633 1.494 1.442l.006.145v3.826C44 17.29 43.328 18 42.5 18c-.782 0-1.425-.633-1.494-1.442L41 16.413v-3.826c0-.877.672-1.587 1.5-1.587zM5 28c.521 0 .95.362.996.824l.004.083v2.186c0 .501-.448.907-1 .907-.521 0-.95-.362-.996-.824L4 31.093v-2.186c0-.501.448-.907 1-.907zm4.094-2c.5 0 .906.447.906 1 0 .522-.362.95-.823.996L9.094 28H6.906c-.5 0-.906-.447-.906-1 0-.522.362-.95.823-.996L6.906 26h2.188zm-6 0c.5 0 .906.447.906 1 0 .522-.362.95-.823.996L3.094 28H.906C.406 28 0 27.553 0 27c0-.522.362-.95.823-.996L.906 26h2.188zM5 22c.521 0 .95.362.996.824l.004.083v2.186c0 .501-.448.907-1 .907-.521 0-.95-.362-.996-.824L4 25.093v-2.186c0-.501.448-.907 1-.907z"/>
                <path fill="#00D576" fill-rule="nonzero" d="M157 0c5.523 0 10 4.477 10 10-.004 5.521-4.479 9.996-10 10-5.523 0-10-4.477-10-10s4.477-10 10-10zm0 1.538c-4.673 0-8.462 3.789-8.462 8.462s3.789 8.462 8.462 8.462 8.462-3.789 8.462-8.461c-.004-4.673-3.79-8.46-8.463-8.463z"/>
                <path fill="#00D576" d="M169.5 43c.782 0 1.425.633 1.494 1.442l.006.145v3.826c0 .877-.672 1.587-1.5 1.587-.782 0-1.425-.633-1.494-1.442l-.006-.145v-3.826c0-.877.672-1.587 1.5-1.587zm6.915-3c.875 0 1.585.671 1.585 1.5 0 .783-.634 1.425-1.44 1.494l-.145.006h-3.83c-.875 0-1.585-.671-1.585-1.5 0-.783.634-1.425 1.44-1.494l.145-.006h3.83zm-10 0c.875 0 1.585.671 1.585 1.5 0 .783-.634 1.425-1.44 1.494l-.145.006h-3.83c-.875 0-1.585-.671-1.585-1.5 0-.783.634-1.425 1.44-1.494l.145-.006h3.83zm3.085-7c.782 0 1.425.633 1.494 1.442l.006.145v3.826c0 .877-.672 1.587-1.5 1.587-.782 0-1.425-.633-1.494-1.442l-.006-.145v-3.826c0-.877.672-1.587 1.5-1.587z" transform="rotate(45 169.5 41.5)"/>
                <path fill="#00D576" d="M132 16c.521 0 .95.362.996.824l.004.083v2.186c0 .501-.448.907-1 .907-.521 0-.95-.362-.996-.824l-.004-.083v-2.186c0-.501.448-.907 1-.907zm4.094-2c.5 0 .906.447.906 1 0 .522-.362.95-.823.996l-.083.004h-2.188c-.5 0-.906-.447-.906-1 0-.522.362-.95.823-.996l.083-.004h2.188zm-6 0c.5 0 .906.447.906 1 0 .522-.362.95-.823.996l-.083.004h-2.188c-.5 0-.906-.447-.906-1 0-.522.362-.95.823-.996l.083-.004h2.188zM132 10c.521 0 .95.362.996.824l.004.083v2.186c0 .501-.448.907-1 .907-.521 0-.95-.362-.996-.824l-.004-.083v-2.186c0-.501.448-.907 1-.907z" transform="rotate(45 132 15)"/>
            </g>
        </g>
    </g>
</svg>
