<svg width="133" height="131" viewBox="0 0 133 131" xmlns="http://www.w3.org/2000/svg">
    <g fill="none" fill-rule="evenodd">
        <g transform="translate(17.333 11.267)" fill-rule="nonzero">
            <path d="M92.571 23.115 84.8 18.982l-1.96 2.074a4.936 4.936 0 0 1-5.903.984l-13.28-7.06a4.936 4.936 0 0 1-2.484-5.445l.621-2.785-7.77-4.132c-2.014-1.07-4.51-.334-5.654 1.64l-.077.139L2.62 90.294c-1.08 2.03-.364 4.534 1.592 5.669l.138.077 38.548 20.496c2.014 1.07 4.51.335 5.653-1.639l.078-.14L94.301 28.86c1.08-2.03.365-4.533-1.591-5.668l-.139-.077z" fill="#FFF"/>
            <path d="m55.023.738 38.548 20.496c3.09 1.643 4.253 5.502 2.596 8.618L50.494 115.75c-1.657 3.117-5.505 4.311-8.596 2.668L3.35 97.921C.26 96.278-.902 92.419.755 89.303L46.427 3.405C48.084.29 51.933-.905 55.023.738zm37.548 22.377L84.8 18.982l-1.96 2.074a4.936 4.936 0 0 1-5.903.984l-13.28-7.06a4.936 4.936 0 0 1-2.484-5.445l.621-2.785-7.77-4.132c-2.014-1.07-4.51-.334-5.654 1.64l-.077.139L2.62 90.294c-1.08 2.03-.364 4.534 1.592 5.669l.138.077 38.548 20.496c2.014 1.07 4.51.335 5.653-1.639l.078-.14L94.301 28.86c1.08-2.03.365-4.533-1.591-5.668l-.139-.077zM34.108 103.82c.515.274.709.917.433 1.436-.26.489-.844.694-1.34.488l-.093-.043-14.3-7.604a1.06 1.06 0 0 1-.433-1.436c.26-.489.844-.694 1.34-.488l.093.043 14.3 7.604zm48.755-85.867L63.731 7.78l-.493 2.207a2.822 2.822 0 0 0 1.293 3.04l.126.071 13.28 7.061c1.074.571 2.39.38 3.27-.459l.103-.103 1.553-1.644z" fill="#052C50"/>
            <path d="M83.245 18.156 63.35 7.577l-.472 2.22c-.256 1.202.308 2.444 1.384 3.086l.132.075L78.202 20.3c1.117.594 2.471.423 3.363-.409l.105-.103 1.575-1.632z" fill="#FFD166"/>
            <ellipse fill="#E9F4FC" transform="rotate(28 50.439 56.608)" cx="50.439" cy="56.608" rx="17.252" ry="17.398"/>
            <path d="m52.86 34.17.038.025.042.039 5.577 5.689.032.04a.178.178 0 0 1-.036.236l-.038.022-.054.019-7.558 2.268-.049.009a.224.224 0 0 1-.23-.184v-.045l.01-.052.744-2.98-.653-.019-.301-.006c-6.522-.077-12.537 3.52-15.416 9.33-4.154 8.38-.57 18.65 7.978 22.9 3.96 1.969 8.496 2.377 12.687 1.153a1.32 1.32 0 0 1 .717-.006l.116.037.113.047.105.056.052.032.11.08.089.077.07.074.076.092.065.095.026.045.042.079.028.063.04.105a1.235 1.235 0 0 1-.842 1.574 19.864 19.864 0 0 1-5.464.796l-.439-.002-.335-.008-.48-.022c-.639-.036-1.279-.102-1.915-.2l-.245-.038-.332-.058-.43-.083a20.348 20.348 0 0 1-4.58-1.524l-.397-.192-.321-.163-.398-.212-.476-.269-.328-.194-.337-.21-.42-.273-.356-.243-.267-.19-.39-.289-.279-.216-.275-.22-.278-.232-.288-.249-.404-.366a20.09 20.09 0 0 1-2.043-2.203l-.306-.395-.224-.302c-4.278-5.878-5.05-13.589-1.814-20.116 3.394-6.848 10.587-11.013 18.3-10.698l.305.015.738.046.617-2.474.015-.04c.047-.086.166-.121.266-.07zm9.165 35.954c.05.025.095.051.138.08.536.363.733 1.012.499 1.566a1.215 1.215 0 0 1-.33.453c-.3.257-.713.365-1.112.282l-.103-.026-.101-.035-.092-.038-.078-.04-.078-.046-.115-.082-.07-.059-.078-.078-.078-.093-.053-.074-.044-.07-.044-.083-.052-.121a1.242 1.242 0 0 1 .063-1.021c.305-.573 1.014-.811 1.627-.562l.101.047zm-7.328-21.372.071.043c.373.248.539.723.412 1.176l-.031.097-.077.168-.663 1.24 1.6.852.083.05c.373.248.539.723.412 1.176l-.032.096-.077.168-.049.083a1.08 1.08 0 0 1-1.148.454l-.092-.028-.162-.074-3.655-1.945-.091-.044c-.677-.295-1.496.032-1.871.738-.326.612-.232 1.347.22 1.793l.085.076.171.118 1.973 1.052.128.072c1.596.943 2.14 3.086 1.198 4.86-.812 1.528-2.487 2.322-4.04 1.956l-.15-.04-.482-.166-.673 1.268-.053.088-.058.082c-.267.342-.702.5-1.102.398l-.091-.028-.128-.059-.153-.095-.07-.057c-.266-.244-.383-.659-.279-1.056l.031-.099.084-.184.66-1.243-2.014-1.068-.083-.05c-.373-.247-.538-.722-.412-1.175l.032-.097.077-.167.05-.083a1.08 1.08 0 0 1 1.147-.455l.091.028.163.074 3.655 1.945.091.044c.676.295 1.495-.032 1.87-.738.326-.611.233-1.346-.22-1.792l-.084-.076-.171-.118-1.973-1.052-.128-.072c-1.597-.943-2.14-3.086-1.198-4.86.891-1.675 2.81-2.447 4.441-1.834l.144.058.502.24.673-1.26.052-.09c.26-.398.731-.59 1.161-.48l.092.028.14.064zm11.914 16.73.086.052.04.028.073.057.08.073.06.062.07.086.07.104.032.053.028.054.024.053.033.082.017.05a1.285 1.285 0 0 1 .056.466l-.01.1-.017.086-.014.059a1.222 1.222 0 0 1-.16.351 1.29 1.29 0 0 1-1.512.481l-.104-.042-.09-.045-.117-.071-.1-.076-.074-.065-.073-.077-.056-.066-.061-.086-.04-.063-.053-.102-.03-.07-.029-.08-.022-.078-.022-.1-.011-.08-.008-.127.003-.116.016-.118a1.22 1.22 0 0 1 .069-.233l.052-.113.057-.097.07-.096c.364-.46 1.014-.606 1.565-.35l.102.053zm2.558-5.968.115.074.075.058.076.07.074.077.066.082.07.102.052.094.039.085.018.045.044.142.018.083.018.159v.129l-.013.122-.016.084a1.22 1.22 0 0 1-.18.418c-.291.429-.83.64-1.363.514l-.113-.032-.11-.042-.122-.06-.034-.02-.118-.078-.105-.087-.114-.117-.064-.08-.05-.075-.064-.113-.036-.076-.045-.124-.028-.106-.019-.107-.009-.123v-.103c.004-.07.014-.139.03-.208.152-.679.838-1.098 1.542-.932l.104.029.099.036.093.043.07.037zm.225-6.525.103.062.085.063.083.071.059.058.077.09.054.072.049.077.032.058.038.08.026.063.052.172.02.105.011.129c.016.34-.104.65-.334.89a1.25 1.25 0 0 1-.62.36c-.24.059-.488.05-.727-.029l-.118-.046-.113-.055-.08-.047-.06-.042-.097-.076-.06-.055-.057-.06-.056-.066-.06-.082-.049-.078-.046-.087-.022-.049-.05-.136-.037-.161-.012-.093-.004-.076.001-.112a1.24 1.24 0 0 1 1.102-1.159c.242-.03.485.009.703.105l.107.054zm-1.838-6.063.085.08.023.026.082.1.059.084.05.086.052.108c.078.185.112.388.096.59-.032.424-.277.8-.664 1-.35.182-.76.191-1.124.037l-.107-.051-.088-.052-.075-.05-.095-.075-.063-.059-.06-.063-.057-.07-.052-.073-.046-.075-.054-.108a1.237 1.237 0 0 1 .552-1.626 1.334 1.334 0 0 1 1.486.19zm-4.372-5.32.085.053.09.065c.499.397.649 1.063.362 1.603-.325.61-1.107.846-1.753.503-.646-.344-.888-1.125-.564-1.735.318-.598 1.072-.825 1.692-.533l.088.045z" fill="#073B4C"/>
        </g>
        <g transform="translate(68.497 67.974)">
            <ellipse stroke="#073B4C" stroke-width="1.986" fill="#72EFD3" cx="22.869" cy="22.844" rx="21.875" ry="21.851"/>
            <path d="M30.879 16.555a1.138 1.138 0 0 1 1.607 0c.4.402.438 1.035.077 1.497l-.078.087-10.993 10.997a1.143 1.143 0 0 1-1.519.079l-.087-.078-6.63-6.615a1.12 1.12 0 0 1-.003-1.584 1.143 1.143 0 0 1 1.52-.08l.087.077 5.827 5.812z" fill="#073B4C"/>
        </g>
        <g transform="matrix(-1 0 0 1 132.876 1.045)" fill="#073B4C">
            <ellipse cx="32.787" cy="4.7" rx="2.734" ry="2.731"/>
            <path d="m3.567 16.945 1.595 1.595.063.058c.366.308.896.306 1.22-.019.345-.344.327-.918-.038-1.284L4.812 15.7l-.062-.057c-.366-.31-.897-.306-1.221.019-.344.343-.328.918.038 1.283zm4.16.353-.058.063c-.306.364-.301.895.024 1.22.346.347.92.33 1.284-.032l1.59-1.59.058-.062c.306-.364.301-.895-.026-1.221-.345-.346-.92-.33-1.282.032l-1.59 1.59zM3.574 21.45l-.057.062c-.306.364-.302.895.024 1.22.346.347.92.33 1.284-.032l1.59-1.59.057-.062c.307-.363.302-.895-.025-1.221-.345-.346-.92-.33-1.283.033l-1.59 1.59zm4.16-.337L9.33 22.71l.063.058c.366.307.897.305 1.221-.02.344-.343.326-.918-.038-1.283L8.98 19.868l-.063-.058c-.365-.308-.896-.305-1.221.02-.343.343-.326.919.039 1.283zM126.331 3.567l-1.595 1.595-.058.063c-.307.366-.305.896.02 1.22.343.345.918.327 1.283-.038l1.595-1.595.057-.062c.31-.366.306-.897-.019-1.221-.343-.344-.917-.328-1.283.038zm-.353 4.16-.063-.058c-.364-.306-.894-.301-1.22.024-.346.346-.33.92.033 1.284l1.59 1.59.062.058c.363.306.894.301 1.22-.026.346-.345.331-.92-.032-1.282l-1.59-1.59zm-4.151-4.152-.062-.057c-.365-.306-.896-.302-1.221.024-.346.346-.33.92.033 1.284l1.59 1.59.061.057c.364.307.895.302 1.222-.025.345-.345.33-.92-.033-1.283l-1.59-1.59zm.336 4.16-1.596 1.595-.057.063c-.308.366-.306.897.019 1.221.344.344.919.326 1.284-.038l1.595-1.596.058-.063c.308-.365.306-.896-.019-1.221-.343-.343-.92-.326-1.284.039z"/>
            <ellipse cx="100.426" cy="28.833" rx="5.469" ry="5.463"/>
            <path d="M77.635 2.768v2.926l.005.11c.052.62.544 1.104 1.142 1.104.632 0 1.147-.543 1.147-1.214V2.768l-.005-.11c-.054-.619-.545-1.103-1.142-1.103-.634 0-1.147.543-1.147 1.213zm3.506 4.14-.11.005c-.618.052-1.102.543-1.102 1.142 0 .633.543 1.146 1.212 1.146h2.928l.11-.004c.618-.053 1.102-.543 1.102-1.142 0-.634-.544-1.147-1.212-1.147h-2.928zm-7.647 0-.11.005c-.618.052-1.103.543-1.103 1.142 0 .633.545 1.146 1.213 1.146h2.929l.11-.004c.616-.053 1.102-.543 1.102-1.142 0-.634-.543-1.147-1.212-1.147h-2.93zm4.141 3.507v2.926l.005.11c.052.619.544 1.104 1.142 1.104.632 0 1.147-.542 1.147-1.214v-2.926l-.005-.11c-.054-.619-.545-1.104-1.142-1.104-.634 0-1.147.544-1.147 1.214z"/>
        </g>
    </g>
</svg>
