<svg width="150" height="151" viewBox="0 0 150 151" xmlns="http://www.w3.org/2000/svg">
    <defs>
        <clipPath id="xq4clmb9pa">
            <path d="M360 0v640H0V0h360z"/>
        </clipPath>
        <clipPath id="2x9t04a8mb">
            <path d="m17.812 0 1.036 3.763c.81 2.943 3.467 4.98 6.494 4.98h20.566c3.027 0 5.683-2.037 6.494-4.98L53.437 0h12.036l.217.004c3.09.115 5.56 2.679 5.56 5.825v133.092l-.004.219c-.114 3.118-2.655 5.61-5.773 5.61H5.777l-.217-.004c-3.09-.115-5.56-2.679-5.56-5.825V5.83l.004-.219C.118 2.493 2.659 0 5.777 0h12.035z"/>
        </clipPath>
        <clipPath id="3xpe3z35hc">
            <path d="M68.56 0c4.8 0 8.69 3.919 8.69 8.753v133.244c0 4.834-3.89 8.753-8.69 8.753H8.69c-4.8 0-8.69-3.919-8.69-8.753V8.753C0 3.92 3.89 0 8.69 0h59.87zm-47.8 2.918H8.69c-3.126 0-5.675 2.495-5.79 5.616l-.003.22v133.243c0 3.15 2.477 5.716 5.576 5.831l.218.004h59.868c3.127 0 5.676-2.495 5.79-5.616l.004-.22V8.754c0-3.15-2.477-5.716-5.576-5.831l-.218-.004H56.49L55.45 6.685c-.813 2.947-3.476 4.986-6.513 4.986H28.313c-3.037 0-5.7-2.04-6.513-4.986l-1.04-3.767zm28.97 135.188c.8 0 1.448.654 1.448 1.46 0 .758-.574 1.38-1.309 1.452l-.14.006H27.52c-.8 0-1.448-.653-1.448-1.459 0-.758.574-1.381 1.309-1.452l.14-.007H49.73zM53.482 2.918H23.767l.824 2.986a3.869 3.869 0 0 0 3.522 2.844l.2.005h20.624a3.865 3.865 0 0 0 3.664-2.657l.058-.192.823-2.986z"/>
        </clipPath>
        <clipPath id="rb83d8o1sd">
            <path d="m30.75 0-.852 3.07-.06.198A3.997 3.997 0 0 1 26.047 6H4.704l-.206-.005A3.998 3.998 0 0 1 .853 3.07L0 0h30.75z"/>
        </clipPath>
        <clipPath id="4rjtcqsh1e">
            <path d="m42.6 0 .21.004a4.841 4.841 0 0 1 4.63 4.837V42.6l-.004.21a4.841 4.841 0 0 1-4.836 4.63H4.84l-.21-.004A4.841 4.841 0 0 1 0 42.6V4.84l.004-.21A4.841 4.841 0 0 1 4.841 0H42.6z"/>
        </clipPath>
        <clipPath id="xib6wqq9qf">
            <path d="M10.166 23.236c.267 0 .484.217.484.484v9.682a.484.484 0 0 1-.484.484H.484A.484.484 0 0 1 0 33.402V23.72c0-.267.217-.484.484-.484h9.682zm25.173 0c.267 0 .484.217.484.484v9.682a.484.484 0 0 1-.484.484h-9.682a.484.484 0 0 1-.484-.484V23.72c0-.267.216-.484.484-.484h9.682zM10.166 0c.267 0 .484.217.484.484v9.682a.484.484 0 0 1-.484.484H.484A.484.484 0 0 1 0 10.166V.484C0 .217.217 0 .484 0h9.682zm25.173 0c.267 0 .484.217.484.484v9.682a.484.484 0 0 1-.484.484h-9.682a.484.484 0 0 1-.484-.484V.484c0-.267.216-.484.484-.484h9.682z"/>
        </clipPath>
        <clipPath id="rsdioo4bsg">
            <path d="M45.505 0a7.745 7.745 0 0 1 7.745 7.745v37.76a7.745 7.745 0 0 1-7.745 7.745H7.745A7.745 7.745 0 0 1 0 45.505V7.745A7.745 7.745 0 0 1 7.745 0h37.76zm0 2.905H7.745a4.841 4.841 0 0 0-4.836 4.63l-.004.21v37.76a4.841 4.841 0 0 0 4.63 4.836l.21.004h37.76a4.841 4.841 0 0 0 4.836-4.63l.004-.21V7.745a4.841 4.841 0 0 0-4.63-4.836l-.21-.004zM18.88 30.014a3.389 3.389 0 0 1 3.388 3.388v9.682a3.389 3.389 0 0 1-3.388 3.389H9.198a3.389 3.389 0 0 1-3.389-3.389v-9.682a3.389 3.389 0 0 1 3.389-3.388h9.682zm25.172 0a3.389 3.389 0 0 1 3.389 3.388v9.682a3.389 3.389 0 0 1-3.389 3.389H34.37a3.389 3.389 0 0 1-3.388-3.389v-9.682a3.389 3.389 0 0 1 3.388-3.388h9.682zM26.625 6.777c.755 0 1.375.576 1.446 1.313l.006.14v16.942H45.02a1.452 1.452 0 0 1 .14 2.899l-.14.006H28.077V45.02a1.452 1.452 0 0 1-2.898.14l-.006-.14V28.076l-12.103.001a1.452 1.452 0 0 1-.14-2.898l.14-.006h12.102V8.23c0-.803.65-1.453 1.453-1.453zM18.88 32.918H9.198a.484.484 0 0 0-.484.484v9.682c0 .267.216.484.484.484h9.682a.484.484 0 0 0 .484-.484v-9.682a.484.484 0 0 0-.484-.484zm25.172 0H34.37a.484.484 0 0 0-.484.484v9.682c0 .267.217.484.484.484h9.682a.484.484 0 0 0 .484-.484v-9.682a.484.484 0 0 0-.484-.484zm-28.561 2.905c.535 0 .968.433.968.968v2.904a.968.968 0 0 1-.968.969h-2.905a.968.968 0 0 1-.968-.969v-2.904c0-.535.434-.968.968-.968h2.905zm25.173 0c.534 0 .968.433.968.968v2.904a.968.968 0 0 1-.968.969h-2.905a.968.968 0 0 1-.968-.969v-2.904c0-.535.433-.968.968-.968h2.905zm-26.141 1.936h-.968v.968h.968v-.968zm25.172 0h-.968v.968h.968v-.968zM7.261 25.173a1.452 1.452 0 1 1 0 2.904 1.452 1.452 0 0 1 0-2.904zM18.88 6.777a3.389 3.389 0 0 1 3.388 3.389v9.682a3.389 3.389 0 0 1-3.388 3.388H9.198a3.389 3.389 0 0 1-3.389-3.388v-9.682a3.389 3.389 0 0 1 3.389-3.389h9.682zm25.172 0a3.389 3.389 0 0 1 3.389 3.389v9.682a3.389 3.389 0 0 1-3.389 3.388H34.37a3.389 3.389 0 0 1-3.388-3.388v-9.682a3.389 3.389 0 0 1 3.388-3.389h9.682zM18.88 9.682H9.198a.484.484 0 0 0-.484.484v9.682c0 .267.216.484.484.484h9.682a.484.484 0 0 0 .484-.484v-9.682a.484.484 0 0 0-.484-.484zm25.172 0H34.37a.484.484 0 0 0-.484.484v9.682c0 .267.217.484.484.484h9.682a.484.484 0 0 0 .484-.484v-9.682a.484.484 0 0 0-.484-.484zm-28.561 2.904c.535 0 .968.434.968.969v2.904a.968.968 0 0 1-.968.968h-2.905a.968.968 0 0 1-.968-.968v-2.904c0-.535.434-.969.968-.969h2.905zm25.173 0c.534 0 .968.434.968.969v2.904a.968.968 0 0 1-.968.968h-2.905a.968.968 0 0 1-.968-.968v-2.904c0-.535.433-.969.968-.969h2.905zm-26.141 1.937h-.968v.968h.968v-.968zm25.172 0h-.968v.968h.968v-.968z"/>
        </clipPath>
        <clipPath id="mod008eokh">
            <path d="M20.863 2.995c.584.31.707.892.381 1.396a1.005 1.005 0 0 1-1.406.3c-5.565-3.632-12.727-3.579-18.286.172-.23.136-.479.189-.744.159a.886.886 0 0 1-.652-.426c-.203-.347-.208-.78-.013-1.083.065-.1.163-.252.278-.32 6.2-4.191 14.225-4.255 20.442-.198z"/>
        </clipPath>
        <clipPath id="jk4wn5t0oi">
            <path d="M1.66 0c.64.091 1.188.547 1.37 1.095.183.638-.09 1.277-.547 1.642a1.545 1.545 0 0 1-.914.273c-.274 0-.64-.091-.913-.273C.108 2.372-.167 1.55.108.912A1.628 1.628 0 0 1 1.569 0h.091zm19.674 0c.64.091 1.188.547 1.37 1.095.183.638-.09 1.277-.548 1.642a1.545 1.545 0 0 1-.913.273c-.274 0-.64-.091-.914-.273-.548-.365-.822-1.186-.548-1.825A1.628 1.628 0 0 1 21.243 0h.091z"/>
        </clipPath>
        <clipPath id="ipqnk8vckj">
            <path d="M24.75 0C38.419 0 49.5 11.081 49.5 24.75S38.419 49.5 24.75 49.5 0 38.419 0 24.75 11.081 0 24.75 0z"/>
        </clipPath>
        <clipPath id="tjaufgp6dk">
            <path d="m23.648.352.085.094c.342.423.357 1.03.009 1.498l-.094.106-9.95 9.948 9.95 9.952A1.2 1.2 0 0 1 22.8 24a1.22 1.22 0 0 1-.731-.25l-.118-.102-9.95-9.95-9.979 9.976-.12.1a1.199 1.199 0 0 1-1.55-.126c-.422-.422-.468-1.089-.093-1.592l.094-.107 9.948-9.951L.352 2.05A1.201 1.201 0 0 1 .264.45L.352.351C.774-.071 1.44-.117 1.944.258l.106.094 6.256 6.255 3.687 3.697L21.975.328l.109-.092a1.201 1.201 0 0 1 1.564.116z"/>
        </clipPath>
        <clipPath id="pe6pgwxy9l">
            <path d="M25.442 0c14.052 0 25.443 11.407 25.443 25.476 0 14.069-11.39 25.476-25.443 25.476C11.39 50.952 0 39.545 0 25.476 0 11.406 11.39 0 25.442 0zm0 2.25C12.634 2.25 2.25 12.649 2.25 25.476s10.384 23.226 23.192 23.226c12.81 0 23.193-10.399 23.193-23.226S38.25 2.25 25.442 2.25z"/>
        </clipPath>
    </defs>
    <g clip-path="url(#xq4clmb9pa)" transform="translate(-105 -82)">
        <g clip-path="url(#2x9t04a8mb)" transform="translate(144 85)">
            <path fill="#FFF" d="M0 0h71.25v144.75H0V0z"/>
        </g>
        <g clip-path="url(#3xpe3z35hc)" transform="translate(141 82)">
            <path fill="#052B50" d="M0 0h77.25v150.75H0V0z"/>
        </g>
        <g clip-path="url(#rb83d8o1sd)" transform="translate(164.25 85)">
            <path fill="#FFD166" d="M0 0h30.75v6H0V0z"/>
        </g>
        <g clip-path="url(#4rjtcqsh1e)" transform="translate(155.905 159.905)">
            <path fill="#E9F4FC" d="M0 0h47.44v47.44H0V0z"/>
        </g>
        <g clip-path="url(#xib6wqq9qf)" transform="translate(161.714 166.682)">
            <path fill="#FFD166" d="M0 0h35.823v33.886H0V0z"/>
        </g>
        <g clip-path="url(#rsdioo4bsg)" transform="translate(153 157)">
            <path fill="#052B50" d="M0 0h53.25v53.25H0V0z"/>
        </g>
        <g>
            <g clip-path="url(#mod008eokh)" transform="translate(169.721 128.77)">
                <path fill="#063B4C" d="M0 0h21.42v5.03H0V0z"/>
            </g>
        </g>
        <g>
            <g clip-path="url(#jk4wn5t0oi)" transform="translate(169.122 116.128)">
                <path fill="#063B4C" d="M0 0h22.762v3.01H0V0z"/>
            </g>
        </g>
        <g>
            <g clip-path="url(#ipqnk8vckj)" transform="translate(192.75 123.25)">
                <path fill="#C33" d="M0 0h49.5v49.5H0V0z"/>
            </g>
            <g clip-path="url(#tjaufgp6dk)" transform="translate(205.5 136)">
                <path fill="#FFF" d="M0 0h24v24H0V0z"/>
            </g>
            <g clip-path="url(#pe6pgwxy9l)" transform="translate(192 122.5)">
                <path fill="#063B4C" d="M0 0h50.885v50.952H0V0z"/>
            </g>
        </g>
    </g>
</svg>
