<svg width="116" height="108" viewBox="0 0 116 108" xmlns="http://www.w3.org/2000/svg" xmlns:xlink="http://www.w3.org/1999/xlink">
    <defs>
        <path d="M2.514.57v1.376l.003.052c.025.29.256.52.537.52.297 0 .538-.257.538-.572V.57L3.59.518A.551.551 0 0 0 3.054 0c-.297 0-.54.255-.54.57zm1.648 1.947-.052.002a.551.551 0 0 0-.518.537c0 .298.255.54.57.54h1.376l.052-.002a.553.553 0 0 0 .517-.538c0-.298-.255-.539-.57-.539H4.163zm-3.592 0-.053.002A.551.551 0 0 0 0 3.056c0 .298.256.54.57.54h1.374l.053-.002a.552.552 0 0 0 .517-.538c0-.298-.255-.539-.57-.539H.57zm1.944 1.65v1.376l.003.052a.552.552 0 0 0 .537.518c.297 0 .538-.255.538-.57V4.166l-.002-.052a.55.55 0 0 0-.536-.519c-.297 0-.54.256-.54.571z" id="zv9xzvgk4a"/>
        <path d="M2.517.518 2.516.57v1.376c0 .316.24.57.538.57.28 0 .512-.227.536-.518l.002-.052V.57c0-.315-.241-.57-.538-.57a.552.552 0 0 0-.537.518zm1.645 1.999c-.314 0-.57.24-.57.54 0 .281.229.512.519.536l.051.002h1.376c.315 0 .57-.24.57-.539a.552.552 0 0 0-.518-.537l-.052-.002H4.162zm-3.592 0c-.314 0-.57.24-.57.54 0 .281.228.512.518.536l.052.002h1.376c.314 0 .57-.24.57-.539a.553.553 0 0 0-.518-.537l-.052-.002H.57zm1.947 1.597-.001.052v1.376c0 .316.24.57.538.57.28 0 .512-.227.536-.517l.002-.053V4.166c0-.315-.241-.57-.538-.57a.553.553 0 0 0-.537.518z" id="1bf8os5kuc"/>
        <path d="m2.19.069-.02.02-.557.557c-.127.127-.117.344.024.484.132.134.333.15.462.044l.022-.02.555-.556c.127-.127.117-.344-.024-.485A.377.377 0 0 0 2.388 0a.313.313 0 0 0-.198.069zM.113.113C-.02.245-.037.447.069.576l.02.022.556.556c.126.127.343.117.484-.024.132-.133.149-.333.043-.463l-.02-.022L.597.09A.306.306 0 0 0 .376 0a.374.374 0 0 0-.263.113zm1.524 1.525c-.133.133-.15.334-.044.464l.02.022.555.556c.128.127.344.116.484-.025.133-.132.15-.333.044-.462l-.02-.022-.555-.556a.308.308 0 0 0-.22-.09.377.377 0 0 0-.264.113zm-.971-.043-.021.02-.556.556c-.127.127-.117.344.024.484.132.133.332.15.461.045l.022-.02.557-.556c.126-.128.116-.345-.024-.486a.38.38 0 0 0-.265-.112.309.309 0 0 0-.198.069z" id="uipe67n7ke"/>
    </defs>
    <g fill="none" fill-rule="evenodd">
        <path d="M12.13 58.532C5.584 35.87 6.464 23.226 14.77 20.604c3.431-1.083 4.382 3.888 5.288 7.25 2.619 9.724 3.1 16.005 2.872 16.253-.21.228-3.81 5.037-10.8 14.425z" fill="#FFF"/>
        <g transform="translate(69.163 19.377)">
            <mask id="4nr3nmwhbb" fill="#fff">
                <use xlink:href="#zv9xzvgk4a"/>
            </mask>
            <path fill="#073B4C" mask="url(#4nr3nmwhbb)" d="M-2.204 8.319H8.31V-2.206H-2.204z"/>
        </g>
        <g transform="translate(38.46 3.951)">
            <mask id="099jdii05d" fill="#fff">
                <use xlink:href="#1bf8os5kuc"/>
            </mask>
            <path fill="#073B4C" mask="url(#099jdii05d)" d="M-2.203 8.319H8.311V-2.206H-2.203z"/>
        </g>
        <g transform="translate(79.344)">
            <mask id="nyyfq9xsdf" fill="#fff">
                <use xlink:href="#uipe67n7ke"/>
            </mask>
            <path fill="#215B58" mask="url(#nyyfq9xsdf)" d="m1.382-4.277-5.656 5.662 5.656 5.662L7.04 1.385z"/>
        </g>
        <path d="M47.469 29.507h17.14c11.36 0 21.173 9.352 24.426 20.442 1.468 4.971 1.608 10.301-.022 15.287l-10.1 26.342c0 2.7-10.461 4.198-12.82.407l-.388-.892v-.007l-2.873-6.708-.71.302H51.36l-2.634 6.898c-.913 2.805-9.623 4.922-13.024.02l-2.051-4.36-1.623-3.452c-1.138-.351-10.425-.302-17.78-8.775v-.134h4.609a7.371 7.371 0 0 0 7.37-7.376 7.32 7.32 0 0 0-2.158-5.21 7.336 7.336 0 0 0-5.212-2.16H8.369c-1.138 0-2.22.26-3.189.725-.563-7.174 1.01-13.348 3.912-18.207 2.27-3.803 5.353-6.807 8.865-8.853 3.148-1.85 6.639-2.925 10.201-3.143l.126-.063h.386c.843-5.78 2.642-9.767 4.714-9.767 5.95 0 11.163 3.467 14.085 8.684z" fill="#E9F4FC"/>
        <path d="m32.028 83.786 1.623 3.453h-.007l-1.18 4.036-.091.303c-.794 3.516-12.027 4.41-13.208-.492l-4.917-16.075c7.356 8.473 16.642 8.424 17.78 8.775M28.284 30.59l-.126.063c-3.562.218-7.053 1.294-10.2 3.144-.492-7.461-2.241-12.974-4.335-12.974 6.358 0 11.88 3.95 14.661 9.767" fill="#E9F4FC"/>
        <path d="M5.18 60.862v-.007C4.617 53.683 6.19 47.51 9.092 42.65c2.27-3.805 5.353-6.807 8.865-8.854 3.148-1.849 6.64-2.925 10.2-3.143" stroke="#073B4C" stroke-width="1.5" stroke-linecap="round" stroke-linejoin="round"/>
        <path d="M5.18 60.855A7.362 7.362 0 0 0 1 67.501c0 2.039.828 3.881 2.156 5.217a7.351 7.351 0 0 0 5.213 2.158h10.488a7.37 7.37 0 0 0 7.37-7.375c0-2.04-.823-3.882-2.158-5.211a7.34 7.34 0 0 0-5.212-2.159H8.37c-1.138 0-2.22.26-3.19.724zM47.476 29.507H64.61M89.014 65.236c1.629-4.986 1.489-10.316.02-15.287C85.782 38.86 75.97 29.507 64.61 29.507M30.77 81.107l1.258 2.68 1.623 3.452 2.051 4.36M49.97 39.211c0-3.565-.913-6.891-2.502-9.704-2.921-5.218-8.135-8.684-14.084-8.684" stroke="#073B4C" stroke-width="1.5" stroke-linecap="round" stroke-linejoin="round"/>
        <path d="M37.852 38.065c0-9.528-1.995-17.242-4.468-17.242M28.158 38.065c0-2.68.182-5.218.512-7.475.844-5.78 2.641-9.767 4.714-9.767M28.284 30.59c-2.782-5.816-8.303-9.767-14.66-9.767" stroke="#073B4C" stroke-width="1.5" stroke-linecap="round" stroke-linejoin="round"/>
        <path d="M17.957 33.81v-.014a53.748 53.748 0 0 0-.419-4.082c-.761-5.304-2.226-8.891-3.915-8.891M8.903 42.537c-1.911-11.638 1.833-21.714 4.72-21.714M6.823 65.236v4.121M14.824 65.236v4.121M36.7 63.865c0 3.312-2.163 5.998-4.847 5.998M14.248 75.01c7.356 8.474 16.642 8.424 17.78 8.776.007 0 .014.008.022.008M48.726 91.578c-.913 2.805-9.623 4.922-13.024.02M48.726 91.578l2.634-6.899.682-1.779M14.248 75.011l4.918 16.075M32.373 91.578c-.794 3.516-12.027 4.41-13.208-.492M32.464 91.276l1.18-4.037M65.705 91.093l.387.893.14.33M62.123 82.725l.709 1.653 2.873 6.708" stroke="#073B4C" stroke-width="1.5" stroke-linecap="round" stroke-linejoin="round"/>
        <path d="M78.912 91.578c0 2.7-10.46 4.198-12.82.408a2.99 2.99 0 0 1-.387-.893v-.007M78.912 91.578l10.102-26.342M62.123 84.68H51.368M93.137 47.08c.196 0 .387-.021.57-.056 1.805-.317 3.399-1.667 4.01-3.404.612-1.737.21-3.79-1.004-5.169M93.137 47.08c.077-.204.133-.423.168-.64.1-.562.071-1.174-.217-1.666-.288-.493-.885-.838-1.44-.704-.9.218-1.117 1.56-.513 2.271.485.563 1.25.767 2.002.739zM89.02 49.95h.015c1.791.048 3.505-1.196 4.102-2.87" stroke="#073B4C" stroke-width="1.5" stroke-linecap="round" stroke-linejoin="round"/>
        <path d="M26.194 52.402c0 1.601-.448 2.9-1.001 2.9-.553 0-1.001-1.299-1.001-2.9 0-1.602.448-2.9 1-2.9.554 0 1.002 1.298 1.002 2.9M14.133 52.402c0 1.601-.448 2.9-1.001 2.9-.553 0-1.001-1.299-1.001-2.9 0-1.602.448-2.9 1-2.9.554 0 1.002 1.298 1.002 2.9M68.555 34.818H52.157a1.01 1.01 0 0 1 0-2.02h16.398a1.01 1.01 0 0 1 0 2.02" fill="#073B4C"/>
        <g transform="translate(69.577 62.087)">
            <ellipse stroke="#073B4C" stroke-width="1.986" fill="#72EFD3" cx="22.869" cy="22.844" rx="21.875" ry="21.851"/>
            <path d="M30.879 16.555a1.138 1.138 0 0 1 1.607 0c.4.402.438 1.035.077 1.497l-.078.087-10.993 10.997a1.143 1.143 0 0 1-1.519.079l-.087-.078-6.63-6.615a1.12 1.12 0 0 1-.003-1.584 1.143 1.143 0 0 1 1.52-.08l.087.077 5.827 5.812z" fill="#073B4C"/>
        </g>
    </g>
</svg>
