<?xml version="1.0" encoding="UTF-8"?>
<svg width="116px" height="91px" viewBox="0 0 116 91" version="1.1" xmlns="http://www.w3.org/2000/svg" xmlns:xlink="http://www.w3.org/1999/xlink">
    <title>BFFFE9BF-96BB-4A73-8E19-799EBA79B798</title>
    <g id="Metas-de-ahorro-V2" stroke="none" stroke-width="1" fill="none" fill-rule="evenodd">
        <g id="02--Metas-de-ahorro---Nueva-meta---Error" transform="translate(-122.000000, -99.000000)">
            <g id="Group-3" transform="translate(122.000000, 100.000000)">
                <g id="Group-2" transform="translate(0.000000, -0.000000)">
                    <path d="M9.90358877,23.5905502 C8.39913127,9.42791919 10.0333377,1.59338699 14.806208,0.086953551 C16.7778518,-0.535344985 17.324122,2.32070526 17.844554,4.2527821 C19.3493602,9.83929742 19.6263165,13.4481547 19.4951147,13.5907875 C19.3744035,13.7220157 16.1772281,17.0552699 9.90358877,23.5905502 Z" id="Path-19" fill="#FFFFFF"></path>
                    <g id="Group" transform="translate(0.000000, 0.368618)">
                        <path d="M5.95827704,40.3183437 C3.45239972,41.5216161 1.72369311,44.0799058 1.72369311,47.050685 C1.72369311,49.1166946 2.56278125,50.9832273 3.90788438,52.3368197 C5.26081615,53.6904122 7.13186172,54.5232277 9.18937132,54.5232277 L15.1455449,54.5232277 L19.8149743,54.5232277 C23.9356871,54.5232277 27.2806526,51.1827041 27.2806526,47.050685 C27.2806526,44.9846755 26.4479697,43.1181428 25.0957496,41.7716745 C23.7428178,40.4180821 21.8781775,39.5845541 19.8149743,39.5845541 L9.18937132,39.5845541 C8.03642578,39.5845541 6.94041583,39.8481484 5.95827704,40.3183437 Z" id="Stroke-36" stroke="#FFFFFF" stroke-width="2.64900662" fill="#FFFFFF" stroke-linecap="round" stroke-linejoin="round"></path>
                        <g id="Group-91">
                            <g id="Group-7" transform="translate(5.562482, 0.000071)" fill="#E9F4FC">
                                <path d="M47.0430877,64.6622191 L44.366154,71.6474563 C43.4381504,74.4885466 34.5864232,76.6318253 31.1313942,71.6688178 L29.0469552,67.254091 L27.3979641,63.7572001 C26.2415288,63.4011738 16.8044454,63.4517295 9.33044675,54.8714943 L9.33044675,54.7362043 L14.013296,54.7362043 C18.1471953,54.7362043 21.5015716,51.395965 21.5015716,47.2660592 C21.5015716,45.2018184 20.6663683,43.3362403 19.3100553,41.9897486 C17.9537423,40.6375605 16.083458,39.8044588 14.013296,39.8044588 L3.3555309,39.8044588 C2.19909557,39.8044588 1.09976817,40.0679183 0.114656592,40.5371611 C-0.456422581,33.2749354 1.1425991,27.0231126 4.09079534,22.1021163 C6.39724135,18.2499111 9.53032446,15.210158 13.0995693,13.1380846 C16.2976127,11.265386 19.845442,10.1752333 23.4646563,9.95520901 L23.5931491,9.89041221 L23.985766,9.89041221 C24.8423848,4.0373389 26.6698381,0 28.7756926,0 C34.8219933,0 40.1187527,3.51041989 43.0883644,8.79385103 L43.0955029,8.79385103 L60.5062792,8.79385103 C72.049217,8.79385103 82.021687,18.2648642 85.3268077,29.4932235 C86.8187521,34.5281482 86.9615219,39.9255078 85.3061061,44.9739615 L75.0402441,71.6474563 C75.0402441,74.3810266 64.411033,75.8976989 62.0125005,72.0604468 L61.6198836,71.1554278 L61.6198836,71.1483073 L58.7002413,64.3553244 L57.9792538,64.6622191 L47.0502261,64.6622191 L47.0430877,64.6622191 Z" id="Fill-1"></path>
                                <path d="M27.3982496,63.7575561 L29.0472407,67.253735 L29.0401023,67.253735 L27.840836,71.3409176 L27.7473218,71.6471002 C26.9406724,75.2073638 15.5269413,76.1116708 14.3269612,71.1486633 L9.33001844,54.8718503 C16.8040171,63.4513735 26.2418143,63.4015298 27.3982496,63.7575561" id="Fill-3"></path>
                                <path d="M23.5934346,9.89048342 L23.464228,9.95528022 C19.8457276,10.1753045 16.2971844,11.2654572 13.0998548,13.1381559 C12.6001606,5.58256449 10.8219628,7.12052716e-05 8.69540671,7.12052716e-05 C15.1557399,7.12052716e-05 20.7665927,4.00180746 23.5934346,9.89048342" id="Fill-5"></path>
                            </g>
                            <path d="M5.67692422,40.5449225 L5.67692422,40.5370899 C5.10584504,33.2748642 6.70486673,27.0230414 9.65306296,22.1027571 C11.959509,18.2498399 15.0925921,15.2100868 18.6618369,13.1380134 C21.8598803,11.2653148 25.4084235,10.1758741 29.0269239,9.95513781" id="Stroke-8" stroke="#073B4C" stroke-width="1.5" stroke-linecap="round" stroke-linejoin="round"></path>
                            <path d="M5.67692422,40.5373035 C3.16417585,41.7406726 1.43023672,44.2969418 1.43023672,47.2662016 C1.43023672,49.3318666 2.27186465,51.1974447 3.62103919,52.5496328 C4.97806608,53.903245 6.85477501,54.7356346 8.91779853,54.7356346 L14.8927144,54.7356346 L19.5762774,54.7356346 C23.709463,54.7356346 27.0638393,51.3961074 27.0638393,47.2662016 C27.0638393,45.2019608 26.228636,43.3363827 24.8730368,41.989891 C23.5160099,40.6377029 21.6457256,39.8046012 19.5762774,39.8046012 L8.91779853,39.8046012 C7.7613632,39.8046012 6.66203579,40.0680607 5.67692422,40.5373035 Z" id="Stroke-10" stroke="#073B4C" stroke-width="1.5" stroke-linecap="round" stroke-linejoin="round"></path>
                            <line x1="48.6577705" y1="8.79392224" x2="66.0692606" y2="8.79392224" id="Stroke-12" stroke="#073B4C" stroke-width="1.5" stroke-linecap="round" stroke-linejoin="round"></line>
                            <path d="M90.868231,44.9737479 C92.5236467,39.9252942 92.3808769,34.5279346 90.8889326,29.4937219 C87.5838119,18.2646506 77.6120557,8.79363742 66.0691179,8.79363742" id="Stroke-14" stroke="#073B4C" stroke-width="1.5" stroke-linecap="round" stroke-linejoin="round"></path>
                            <polyline id="Stroke-16" stroke="#073B4C" stroke-width="1.5" stroke-linecap="round" stroke-linejoin="round" points="31.6829418 61.0449913 32.9607314 63.7579122 34.6097225 67.254091 36.6941615 71.6688178"></polyline>
                            <path d="M51.1925054,18.6208194 C51.1925054,15.0107121 50.2637879,11.6419907 48.6504892,8.79377983 C45.6808775,3.51034868 40.3841182,0.000640847444 34.3385313,0.000640847444" id="Stroke-18" stroke="#073B4C" stroke-width="1.5" stroke-linecap="round" stroke-linejoin="round"></path>
                            <path d="M38.8786107,17.4602446 C38.8786107,7.81121829 36.8505658,0 34.3385313,0" id="Stroke-20" stroke="#073B4C" stroke-width="1.5" stroke-linecap="round" stroke-linejoin="round"></path>
                            <path d="M29.0269239,17.4602446 C29.0269239,14.7466117 29.2132385,12.1761014 29.5480337,9.89041221 C30.4053663,4.0373389 32.2321058,0 34.3379602,0" id="Stroke-22" stroke="#073B4C" stroke-width="1.5" stroke-linecap="round" stroke-linejoin="round"></path>
                            <path d="M29.1559164,9.89055462 C26.3290745,4.00187867 20.7182216,0.000142410543 14.2578885,0.000142410543" id="Stroke-24" stroke="#073B4C" stroke-width="1.5" stroke-linecap="round" stroke-linejoin="round"></path>
                            <path d="M18.6621938,13.1517561 L18.6621938,13.137515 C18.1624996,5.5826357 16.3850156,0.000142410543 14.2577457,0.000142410543" id="Stroke-26" stroke="#073B4C" stroke-width="1.5" stroke-linecap="round" stroke-linejoin="round"></path>
                            <path d="M9.46089482,21.9884727 C7.51851178,10.2040002 11.3233268,0.000284821086 14.2579599,0.000284821086" id="Stroke-28" stroke="#073B4C" stroke-width="1.5" stroke-linecap="round" stroke-linejoin="round"></path>
                            <line x1="7.34790188" y1="44.9737479" x2="7.34790188" y2="49.1463768" id="Stroke-30" stroke="#073B4C" stroke-width="1.5" stroke-linecap="round" stroke-linejoin="round"></line>
                            <line x1="15.4784275" y1="44.9737479" x2="15.4784275" y2="49.1463768" id="Stroke-32" stroke="#073B4C" stroke-width="1.5" stroke-linecap="round" stroke-linejoin="round"></line>
                            <path d="M14.8928571,54.8715655 C22.3668558,63.4518007 31.8039392,63.401245 32.9610883,63.7572713 C32.967513,63.7572713 32.9746515,63.7643919 32.98179,63.7643919" id="Stroke-34" stroke="#073B4C" stroke-width="1.5" stroke-linecap="round" stroke-linejoin="round"></path>
                            <path d="M49.9286358,71.6471714 C49.0006322,74.4882618 40.148905,76.6315404 36.693876,71.668533" id="Stroke-36" stroke="#073B4C" stroke-width="1.5" stroke-linecap="round" stroke-linejoin="round"></path>
                            <polyline id="Stroke-38" stroke="#073B4C" stroke-width="1.5" stroke-linecap="round" stroke-linejoin="round" points="49.9286358 71.6471714 52.6055694 64.6619343 53.2980029 62.8604409"></polyline>
                            <line x1="14.8928571" y1="54.8715655" x2="19.8897999" y2="71.1483785" id="Stroke-40" stroke="#073B4C" stroke-width="1.5" stroke-linecap="round" stroke-linejoin="round"></line>
                            <path d="M33.3100177,71.6471714 C32.5033684,75.207435 21.0896373,76.111742 19.8896571,71.1487345" id="Stroke-42" stroke="#073B4C" stroke-width="1.5" stroke-linecap="round" stroke-linejoin="round"></path>
                            <line x1="33.4033892" y1="71.3412024" x2="34.6026554" y2="67.2540198" id="Stroke-44" stroke="#073B4C" stroke-width="1.5" stroke-linecap="round" stroke-linejoin="round"></line>
                            <polyline id="Stroke-46" stroke="#073B4C" stroke-width="1.5" stroke-linecap="round" stroke-linejoin="round" points="67.1822939 71.1555702 67.5749109 72.0605892 67.7176807 72.394542"></polyline>
                            <polyline id="Stroke-48" stroke="#073B4C" stroke-width="1.5" stroke-linecap="round" stroke-linejoin="round" points="63.5419498 62.6825702 64.2629372 64.355894 67.1825795 71.1488769"></polyline>
                            <path d="M80.6025117,71.6471714 C80.6025117,74.3814539 69.9733006,75.8981261 67.5747681,72.060162 C67.3963059,71.789582 67.2678131,71.4833993 67.1821512,71.1558551 L67.1821512,71.1487345" id="Stroke-50" stroke="#073B4C" stroke-width="1.5" stroke-linecap="round" stroke-linejoin="round"></path>
                            <line x1="80.6025117" y1="71.6471714" x2="90.8683737" y2="44.9736767" id="Stroke-52" stroke="#073B4C" stroke-width="1.5" stroke-linecap="round" stroke-linejoin="round"></line>
                            <line x1="63.5419498" y1="64.6622903" x2="52.6122082" y2="64.6622903" id="Stroke-54" stroke="#073B4C" stroke-width="1.5" stroke-linecap="round" stroke-linejoin="round"></line>
                            <path d="M95.0579533,26.5883332 C95.257831,26.5883332 95.4512841,26.5676837 95.6368848,26.531369 C97.4714767,26.2116573 99.0912,24.8438041 99.7129624,23.0850338 C100.334011,21.3262636 99.9264033,19.2470697 98.6921584,17.8514464" id="Stroke-56" stroke="#073B4C" stroke-width="1.5" stroke-linecap="round" stroke-linejoin="round"></path>
                            <path d="M95.0579533,26.5883332 C95.1364767,26.3818379 95.1935846,26.1611016 95.2292771,25.9403652 C95.3299298,25.3707231 95.3013758,24.7512372 95.0086977,24.2535124 C94.7160197,23.7550755 94.1085342,23.4054576 93.5453074,23.5414596 C92.6315807,23.7614839 92.4095737,25.1215046 93.0234838,25.8406779 C93.5167534,26.41032 94.2948488,26.6168153 95.0579533,26.5883332 Z" id="Stroke-58" stroke="#073B4C" stroke-width="1.5" stroke-linecap="round" stroke-linejoin="round"></path>
                            <path d="M90.8752267,29.4935083 L90.8895037,29.4935083 C92.7091047,29.543352 94.45161,28.2830187 95.0576678,26.5883332" id="Stroke-60" stroke="#073B4C" stroke-width="1.5" stroke-linecap="round" stroke-linejoin="round"></path>
                            <path d="M33.9555513,29.6993627 C34.4316886,31.2502135 34.382433,32.6401404 33.8449047,32.8039126 C33.3080903,32.9683967 32.4864502,31.8440655 32.0103129,30.2932147 C31.5341756,28.7416518 31.5841451,27.3517249 32.1216733,27.1879528 C32.6584878,27.0234686 33.4794141,28.1477999 33.9555513,29.6993627" id="Fill-62" fill="#073B4C"></path>
                            <path d="M17.751037,34.6468474 C18.2264604,36.1976982 18.1772049,37.5876251 17.6403904,37.7513972 C17.1028622,37.9158814 16.281222,36.7915502 15.8050847,35.2406994 C15.3296613,33.6891365 15.3796308,32.2992096 15.9164452,32.1354375 C16.4539735,31.9709533 17.2748998,33.0952845 17.751037,34.6468474" id="Fill-64" fill="#073B4C"></path>
                            <path d="M70.0773798,14.1725548 L53.4154311,14.1725548 C52.848635,14.1725548 52.3896301,13.7139929 52.3896301,13.1493351 C52.3896301,12.5839652 52.848635,12.1254033 53.4154311,12.1254033 L70.0773798,12.1254033 C70.6441759,12.1254033 71.1031808,12.5839652 71.1031808,13.1493351 C71.1031808,13.7139929 70.6441759,14.1725548 70.0773798,14.1725548" id="Fill-66" fill="#073B4C"></path>
                            <path d="M30.6776996,53.6330922 C30.6776996,53.5262843 33.3303624,53.4394139 36.6090707,53.4394139" id="Stroke-68" stroke="#073B4C" stroke-width="1.5" stroke-linecap="round" stroke-linejoin="round"></path>
                            <path d="M16.4599698,31.6637738 C16.4599698,33.2089281 15.0129979,34.4585807 13.2233786,34.4585807" id="Stroke-70" stroke="#073B4C" stroke-width="1.5" stroke-linecap="round" stroke-linejoin="round"></path>
                            <path d="M32.8749982,27.5173484 C31.7221321,28.5491128 29.8232938,28.309151 28.6275968,26.9811727" id="Stroke-72" stroke="#073B4C" stroke-width="1.5" stroke-linecap="round" stroke-linejoin="round"></path>
                            <path d="M43.3645804,30.2208706 C42.6828546,30.2208706 42.0867908,30.023632 41.6856076,29.6654695 C40.9125092,28.9740663 41.0260112,27.9857371 41.1081038,27.2644277 L41.1245223,27.1148967 C41.4229112,25.3425974 40.7882995,23.8195167 39.9273976,22.0080546 C39.7860555,21.7125527 39.8660066,21.3593746 40.119423,21.1521672 C40.2507712,21.0446473 40.4106734,20.9905313 40.5720032,20.9905313 C40.7219115,20.9905313 40.8718198,21.0375267 40.9988849,21.1315177 C41.9904211,21.8692043 42.9062894,22.67596 43.7936036,23.4563698 C44.184079,23.8002913 44.5745544,24.1449248 44.9714544,24.4817257 C45.7352728,25.1325419 47.1579738,26.3451677 46.6725565,27.984313 C46.4212817,28.8330799 45.6260539,29.6191861 44.6459393,29.9880294 C44.2411869,30.1404086 43.7971729,30.2208706 43.3645804,30.2208706" id="Fill-74" fill="#FFFFFF"></path>
                            <path d="M40.5718605,19.923947 C40.2506284,19.923947 39.9301103,20.031467 39.6667,20.2465069 C39.1598672,20.6609216 39.0013928,21.3665658 39.2812215,21.9575696 C40.0885847,23.6551033 40.6846486,25.0749364 40.4262353,26.5994412 C40.4219522,26.6272113 40.4176691,26.6542693 40.4148137,26.6820393 L40.399109,26.826586 C40.3105918,27.6034356 40.1613973,28.9036438 41.2100415,29.8407052 C41.7411451,30.3163564 42.5063912,30.5776797 43.3637238,30.5776797 C43.882692,30.5776797 44.4123679,30.4815526 44.8977852,30.2992671 C46.0963376,29.8485378 47.0393321,28.9036438 47.3569949,27.8320045 C47.9737604,25.7485382 46.2583813,24.2881181 45.4345996,23.5860341 C45.0426966,23.2520814 44.6565043,22.9110082 44.2688843,22.570647 C43.3708623,21.7795564 42.4414309,20.9614078 41.42491,20.2059199 C41.1714936,20.017938 40.8709632,19.923947 40.5718605,19.923947 M40.5718605,21.3480525 C41.9688629,22.3862253 43.206677,23.5611123 44.5073098,24.6690663 C45.3896272,25.4202819 46.3183447,26.3139081 45.9878326,27.4282706 C45.8036596,28.0477565 45.1933187,28.6665303 44.3938078,28.9670165 C44.0625819,29.0916257 43.7042297,29.1535743 43.3637238,29.1535743 C42.8840173,29.1535743 42.4407171,29.0296771 42.162316,28.7804587 C41.6247877,28.2998231 41.7589913,27.5293821 41.8346593,26.8365548 C42.1758791,24.8178853 41.3799375,23.0484343 40.5718605,21.3480525" id="Fill-76" fill="#073B4C"></path>
                            <path d="M4.12373164,36.2788722 C3.69113916,36.2788722 3.2471251,36.1984103 2.84237274,36.046031 C1.84798113,35.6722033 1.07131345,34.9046105 0.815755525,34.0423146 C0.330338227,32.4031693 1.75303922,31.1905435 2.51685761,30.5397273 C2.91375764,30.2029264 3.30423302,29.8582929 3.69470841,29.5143714 C4.58202267,28.7339617 5.4978909,27.9272059 6.48942711,27.1895193 C6.61649223,27.0955284 6.76640051,27.0485329 6.91630879,27.0485329 C7.07763866,27.0485329 7.23754083,27.1026489 7.36888904,27.2101688 C7.62230542,27.4173762 7.70225651,27.7705543 7.56091441,28.0660562 C6.70001256,29.8782304 6.06468698,31.4013111 6.3580789,33.1301751 L6.38020822,33.3224294 C6.46230085,34.0437388 6.57580284,35.0320679 5.80270441,35.7234711 C5.40152129,36.0816336 4.8054574,36.2788722 4.12373164,36.2788722" id="Fill-78" fill="#FFFFFF"></path>
                            <path d="M6.91645156,26.3365514 C6.61734885,26.3365514 6.31681843,26.4305423 6.0641159,26.6185242 C5.04616727,27.3747242 4.11673592,28.1928728 3.21800007,28.9846754 C2.83109393,29.3243246 2.44490164,29.6653978 2.0537124,29.9993505 C1.22921685,30.7007225 -0.486162221,32.1618546 0.131317135,34.2446088 C0.448266077,35.3155361 1.39126056,36.2611421 2.59052683,36.7118715 C3.07523027,36.894157 3.60562006,36.9909961 4.12387441,36.9909961 C4.98192086,36.9909961 5.74716696,36.7289607 6.27827059,36.2533095 C7.32691472,35.3169602 7.17772028,34.016752 7.08920301,33.2399024 L7.07349834,33.0953557 C7.06992909,33.0675857 7.06635985,33.0398156 7.0613629,33.0127576 C6.80294958,31.4868287 7.39972731,30.0677076 8.20709049,28.370886 C8.48691929,27.7798822 8.32915867,27.074238 7.8223259,26.6591112 C7.55820178,26.4440713 7.2376836,26.3365514 6.91645156,26.3365514 L6.91645156,26.3365514 Z M6.91645156,27.7606568 C6.10837453,29.4610387 5.31243293,31.2312017 5.65365274,33.2491591 C5.72932073,33.9426985 5.86352434,34.7124275 5.32599607,35.193063 C5.04688112,35.4422815 4.60358091,35.5668907 4.12387441,35.5668907 C3.78336845,35.5668907 3.42573012,35.5042301 3.0945042,35.3796209 C2.29499335,35.0791346 1.68393864,34.4603608 1.50047945,33.8408749 C1.16996738,32.7265124 2.09868489,31.8328863 2.98028836,31.0816707 C4.28092118,29.9737166 5.51873529,28.7988297 6.91645156,27.7606568 L6.91645156,27.7606568 Z" id="Fill-80" fill="#073B4C"></path>
                        </g>
                    </g>
                </g>
                <g id="tick" transform="translate(70.186667, 43.351982)">
                    <ellipse id="Oval" stroke="#073B4C" stroke-width="1.9864339" fill="#CC3333" cx="22.8686508" cy="22.8439898" rx="21.8754338" ry="21.8507729"></ellipse>
                    <g id="Fintech/icons/Light-outline/Close" transform="translate(12.925759, 12.911820)" fill="#FFFFFF">
                        <path d="M18.2980724,0.195269838 C18.6920554,-0.0967326566 19.2442038,-0.0584019027 19.5941764,0.29117695 L19.6643862,0.369096597 C19.9478429,0.719062067 19.9603156,1.22219247 19.6718127,1.60889162 L19.5941672,1.69709766 L11.3503017,9.93046782 L19.5942644,18.1672228 C19.982795,18.5555589 19.982795,19.184865 19.595231,19.571989 C19.4066756,19.7617502 19.1533512,19.864339 18.890793,19.864339 C18.683548,19.864339 18.4802183,19.7995929 18.2848279,19.6574163 L18.1875548,19.5730461 L9.94211703,11.3370683 L1.67456625,19.5947236 L1.57545397,19.6772636 C1.40542207,19.7995929 1.20209238,19.864339 0.9948474,19.864339 C0.732289166,19.864339 0.478964794,19.7617502 0.29146399,19.5730464 C-0.0585002289,19.2234759 -0.0968671649,18.6719946 0.213758224,18.2554482 L0.291446063,18.1671528 L8.53393233,9.93046782 L0.29146399,1.69708851 C-0.0712467531,1.33478582 -0.0954274693,0.762436786 0.218921841,0.371930699 L0.29146399,0.29117695 C0.641436566,-0.0584019027 1.193585,-0.0967326566 1.61051747,0.213628196 L1.69879354,0.291157181 L6.88234547,5.4681502 L9.93733542,8.52864358 L18.2081997,0.271337254 Z" id="Combined-Shape"></path>
                    </g>
                </g>
            </g>
        </g>
    </g>
</svg>