<?xml version="1.0" encoding="UTF-8"?>
<svg width="115px" height="111px" viewBox="0 0 115 111" version="1.1" xmlns="http://www.w3.org/2000/svg" xmlns:xlink="http://www.w3.org/1999/xlink">
    <title>1560802A-8BD4-4BB8-8FA4-F37715478048</title>
    <defs>
        <path d="M2.52739889,0.570362359 L2.52739889,1.94668682 L2.52951742,1.99872975 C2.5549397,2.28988883 2.7858588,2.51704918 3.06903481,2.51704918 L3.06903481,2.51704918 C3.36774667,2.51704918 3.61067073,2.26175752 3.61067073,1.94668682 L3.61067073,1.94668682 L3.61067073,0.570362359 L3.6085522,0.518319431 C3.58383609,0.227160348 3.35150465,0 3.06903481,0 L3.06903481,0 C2.76961678,0 2.52739889,0.25529166 2.52739889,0.570362359 L2.52739889,0.570362359 Z M4.18337833,2.51704918 L4.13112141,2.51915903 C3.8394713,2.54377393 3.61067073,2.77515397 3.61067073,3.05646709 L3.61067073,3.05646709 C3.61067073,3.35465901 3.86701211,3.59588501 4.18337833,3.59588501 L4.18337833,3.59588501 L5.5660682,3.59588501 L5.61832512,3.59377516 C5.90997523,3.56916026 6.1387758,3.3384835 6.1387758,3.05646709 L6.1387758,3.05646709 C6.1387758,2.75897847 5.88172824,2.51704918 5.5660682,2.51704918 L5.5660682,2.51704918 L4.18337833,2.51704918 Z M0.572001426,2.51704918 L0.519744505,2.51915903 C0.228094396,2.54377393 0,2.77515397 0,3.05646709 L0,3.05646709 C0,3.35465901 0.25634138,3.59588501 0.572001426,3.59588501 L0.572001426,3.59588501 L1.95469129,3.59588501 L2.00694821,3.59377516 C2.29789215,3.56916026 2.52739889,3.3384835 2.52739889,3.05646709 L2.52739889,3.05646709 C2.52739889,2.75897847 2.27105751,2.51704918 1.95469129,2.51704918 L1.95469129,2.51704918 L0.572001426,2.51704918 Z M2.52739889,4.16624737 L2.52739889,5.54327511 L2.52951742,5.59531804 C2.5549397,5.88577384 2.7858588,6.11363747 3.06903481,6.11363747 L3.06903481,6.11363747 C3.36774667,6.11363747 3.61067073,5.85834581 3.61067073,5.54327511 L3.61067073,5.54327511 L3.61067073,4.16624737 L3.6085522,4.11490772 C3.58383609,3.82374864 3.35150465,3.59588501 3.06903481,3.59588501 L3.06903481,3.59588501 C2.76961678,3.59588501 2.52739889,3.85117667 2.52739889,4.16624737 L2.52739889,4.16624737 Z" id="path-1"></path>
        <path d="M2.53022359,0.519022714 L2.52739889,0.571065642 L2.52739889,1.9473901 C2.52739889,2.2624608 2.76961678,2.51704918 3.06903481,2.51704918 L3.06903481,2.51704918 C3.35150465,2.51704918 3.58383609,2.28988883 3.6085522,1.99872975 L3.6085522,1.99872975 L3.61067073,1.9473901 L3.61067073,0.571065642 C3.61067073,0.255994943 3.36774667,0 3.06903481,0 L3.06903481,0 C2.78727115,0 2.5549397,0.227863631 2.53022359,0.519022714 L2.53022359,0.519022714 Z M4.18337833,2.51704918 C3.86771828,2.51704918 3.61067073,2.75897847 3.61067073,3.05717038 L3.61067073,3.05717038 C3.61067073,3.3384835 3.8394713,3.56916026 4.13112141,3.59447844 L4.13112141,3.59447844 L4.18337833,3.59658829 L5.5660682,3.59658829 C5.88243442,3.59658829 6.1387758,3.35536229 6.1387758,3.05717038 L6.1387758,3.05717038 C6.1387758,2.77515397 5.90997523,2.54518049 5.61832512,2.52056559 L5.61832512,2.52056559 L5.5660682,2.51704918 L4.18337833,2.51704918 Z M0.572001426,2.51704918 C0.25634138,2.51704918 0,2.75897847 0,3.05717038 L0,3.05717038 C0,3.3384835 0.22880057,3.56916026 0.519744505,3.59447844 L0.519744505,3.59447844 L0.572001426,3.59658829 L1.95539747,3.59658829 C2.27105751,3.59658829 2.52739889,3.35536229 2.52739889,3.05717038 L2.52739889,3.05717038 C2.52739889,2.77515397 2.29859832,2.54518049 2.00694821,2.52056559 L2.00694821,2.52056559 L1.95539747,2.51704918 L0.572001426,2.51704918 Z M2.53022359,4.11561101 L2.52739889,4.16765394 L2.52739889,5.54327511 C2.52739889,5.85834581 2.76961678,6.11434075 3.06903481,6.11434075 L3.06903481,6.11434075 C3.35150465,6.11434075 3.58383609,5.88718041 3.6085522,5.59531804 L3.6085522,5.59531804 L3.61067073,5.54327511 L3.61067073,4.16765394 C3.61067073,3.85117667 3.36774667,3.59658829 3.06903481,3.59658829 L3.06903481,3.59658829 C2.78727115,3.59658829 2.5549397,3.82445192 2.53022359,4.11561101 L2.53022359,4.11561101 Z" id="path-3"></path>
        <path d="M2.20264069,0.0689217154 L2.18074928,0.0893169169 L1.62145899,0.64561362 C1.49364139,0.772204526 1.50423401,0.989518914 1.64546893,1.13017548 L1.64546893,1.13017548 C1.77893593,1.26309593 1.98019569,1.27997472 2.11013182,1.17448229 L2.11013182,1.17448229 L2.13202323,1.15479037 L2.69060734,0.597790389 C2.81842494,0.4704962 2.8085385,0.253181812 2.6665974,0.113228532 L2.6665974,0.113228532 C2.59174289,0.0386805546 2.4942908,0 2.40107575,0 L2.40107575,0 C2.32904594,0 2.25842848,0.0232083327 2.20264069,0.0689217154 L2.20264069,0.0689217154 Z M0.113070049,0.113228532 C-0.0196907756,0.245445701 -0.036638966,0.447287867 0.0699933986,0.575988622 L0.0699933986,0.575988622 L0.0897662874,0.598493672 L0.648350396,1.15479037 C0.776167998,1.28208456 0.993669775,1.27012876 1.1349047,1.13017548 L1.1349047,1.13017548 C1.26766552,0.997255025 1.28461371,0.796116141 1.17868752,0.667415387 L1.17868752,0.667415387 L1.15820846,0.64561362 L0.599624348,0.0893169169 C0.540305682,0.029537878 0.460507952,0.000703282811 0.378591699,0.000703282811 L0.378591699,0.000703282811 C0.285376652,0.000703282811 0.188630731,0.0386805546 0.113070049,0.113228532 L0.113070049,0.113228532 Z M1.64546893,1.63935223 C1.51270811,1.77086612 1.49505374,1.97270828 1.60168611,2.10140904 L1.60168611,2.10140904 L1.62145899,2.12461737 L2.1800431,2.68021079 C2.30786071,2.80820826 2.52606866,2.79625245 2.6665974,2.65629918 L2.6665974,2.65629918 C2.8000644,2.52337872 2.81701259,2.32223984 2.7110864,2.19353909 L2.7110864,2.19353909 L2.69060734,2.17173732 L2.13202323,1.61544062 C2.07270456,1.55566158 1.99290683,1.5261237 1.91028441,1.5261237 L1.91028441,1.5261237 C1.81706936,1.5261237 1.72032344,1.56410097 1.64546893,1.63935223 L1.64546893,1.63935223 Z M0.670241808,1.59504541 L0.648350396,1.61544062 L0.0890601128,2.17173732 C-0.0387574898,2.29903151 -0.0274586962,2.51564261 0.113070049,2.65629918 L0.113070049,2.65629918 C0.247243223,2.78851634 0.447796809,2.80539513 0.577732936,2.70060599 L0.577732936,2.70060599 L0.599624348,2.68091407 L1.15820846,2.12391409 C1.28602606,1.9966199 1.27613962,1.77930551 1.1349047,1.63935223 L1.1349047,1.63935223 C1.06005019,1.56410097 0.962598093,1.5261237 0.87008922,1.5261237 L0.87008922,1.5261237 C0.797353236,1.5261237 0.726735776,1.54862875 0.670241808,1.59504541 L0.670241808,1.59504541 Z" id="path-5"></path>
        <path d="M1.8433644,0.104085856 C1.34621749,0.445178019 1.4987512,1.52964011 2.18303439,2.51986231 L2.18303439,2.51986231 L2.96971289,3.65918046 C3.25712595,4.07552389 3.32138784,4.52984458 3.11236016,4.67331428 L3.11236016,4.67331428 C2.90333248,4.81678397 2.49940061,4.59384332 2.21269372,4.17820318 L2.21269372,4.17820318 L0.707835648,1.99872975 C0.508694411,1.7103838 0.229755444,1.55777143 0.0842834768,1.65623102 L0.0842834768,1.65623102 C-0.059069967,1.7553939 -0.0152871418,2.07046459 0.183147921,2.35740398 L0.183147921,2.35740398 L0.850482918,3.32371456 L0.493864745,3.56705041 C0.349805126,3.66551001 0.393587951,3.98058071 0.592729189,4.26822338 L0.592729189,4.26822338 C0.790458077,4.55727261 1.07010322,4.70988498 1.21557519,4.61072211 L1.21557519,4.61072211 L1.57219336,4.36668297 L1.68871217,4.53687741 C2.37370153,5.52850617 3.33551133,6.05807813 3.83336443,5.71628268 L3.83336443,5.71628268 C4.33051135,5.3758938 4.17797763,4.29213499 3.49369444,3.30050623 L3.49369444,3.30050623 L2.70772212,2.16189136 C2.41960288,1.74554794 2.35534099,1.29122724 2.56436867,1.14775755 L2.56436867,1.14775755 C2.77339635,1.00569442 3.17732822,1.2272285 3.46403511,1.64286865 L3.46403511,1.64286865 L4.96959936,3.82304536 C5.16803442,4.10998474 5.44767956,4.2633004 5.59173918,4.1648408 L5.59173918,4.1648408 C5.7357988,4.06567793 5.69201597,3.75131051 5.49358091,3.46296456 L5.49358091,3.46296456 L4.65676401,2.25331812 L5.01338218,2.00857571 C5.1574418,1.91011611 5.11365898,1.5957487 4.91451774,1.30740274 L4.91451774,1.30740274 C4.71678885,1.01976008 4.43714371,0.86574114 4.29237792,0.964904016 L4.29237792,0.964904016 L3.93787827,1.20823987 L3.84113235,1.08305553 C3.31291375,0.405794182 2.67735661,0 2.2049258,0 L2.2049258,0 C2.0686341,0 1.9464659,0.0337575749 1.8433644,0.104085856 L1.8433644,0.104085856 Z" id="path-7"></path>
        <path d="M2.17713629,0.575285339 L2.17713629,1.35663254 L1.98858767,1.35663254 C0.892604694,1.35663254 0,2.24558201 0,3.33778022 L0,3.33778022 C0,4.42997842 0.892604694,5.31822461 1.98858767,5.31822461 L1.98858767,5.31822461 L3.24840316,5.31822461 C3.70812282,5.31822461 4.08239536,5.6909645 4.08239536,6.14880161 L4.08239536,6.14880161 C4.08239536,6.60804529 3.70812282,6.98078518 3.24840316,6.98078518 L3.24840316,6.98078518 L0.837523075,6.98078518 C0.519744505,6.98078518 0.260578427,7.23818669 0.260578427,7.55536723 L0.260578427,7.55536723 C0.260578427,7.8718445 0.519744505,8.12994929 0.837523075,8.12994929 L0.837523075,8.12994929 L2.17713629,8.12994929 L2.17713629,8.91270306 C2.17713629,9.22918032 2.43559619,9.48728511 2.75408094,9.48728511 L2.75408094,9.48728511 C3.07256568,9.48728511 3.33102559,9.22918032 3.33102559,8.91270306 L3.33102559,8.91270306 L3.33102559,8.13416899 L3.47437903,8.1172902 C4.47926549,8.00335838 5.23769701,7.15730916 5.23769701,6.14880161 L5.23769701,6.14880161 C5.23699083,5.05730669 4.34438614,4.1690605 3.24840316,4.1690605 L3.24840316,4.1690605 L1.98858767,4.1690605 C1.52886801,4.1690605 1.1538893,3.79561733 1.1538893,3.33778022 L1.1538893,3.33778022 C1.1538893,2.87994311 1.52886801,2.50720322 1.98858767,2.50720322 L1.98858767,2.50720322 L4.39876158,2.50720322 C4.71724633,2.50720322 4.9764124,2.24839515 4.9764124,1.93191788 L4.9764124,1.93191788 C4.9764124,1.61473733 4.71724633,1.35663254 4.39876158,1.35663254 L4.39876158,1.35663254 L3.33102559,1.35663254 L3.33102559,0.575285339 C3.33102559,0.257401509 3.07256568,0 2.75408094,0 L2.75408094,0 C2.43559619,0 2.17713629,0.257401509 2.17713629,0.575285339 L2.17713629,0.575285339 Z" id="path-9"></path>
    </defs>
    <g id="Metas-de-ahorro-V2" stroke="none" stroke-width="1" fill="none" fill-rule="evenodd">
        <g id="04--Metas-de-ahorro---Agregar-dinero---Exito" transform="translate(-122.000000, -78.000000)">
            <g id="Group-2" transform="translate(123.000000, 79.000000)">
                <g id="Group">
                    <path d="M8.30124714,42.1684935 C7.01821566,30.0903183 8.4118996,23.4088723 12.482299,22.1241557 C14.1637563,21.5934471 15.4868066,23.5770839 15.9306414,25.2247977 C17.2139703,29.9890898 17.149667,33.567901 17.0377755,33.689541 C16.9348305,33.8014551 14.0226544,36.6277726 8.30124714,42.1684935 Z" id="Path-19" fill="#FFFFFF"></path>
                    <path d="M4.83646097,62.5183417 C2.55434348,63.6141691 0.98,65.9440189 0.98,68.6495253 C0.98,70.5310526 1.7441626,72.2309151 2.96915609,73.4636399 C4.20127917,74.6963646 5.90525159,75.4548148 7.77903792,75.4548148 L13.2033609,75.4548148 L17.4558383,75.4548148 C21.2085961,75.4548148 24.2548762,72.4125798 24.2548762,68.6495253 C24.2548762,66.7679981 23.4965469,65.0681355 22.265072,63.8418988 C21.0329489,62.609174 19.3348098,61.8500751 17.4558383,61.8500751 L7.77903792,61.8500751 C6.7290435,61.8500751 5.73090066,62.090132 4.83646097,62.5183417 Z" id="Stroke-36" stroke="#FFFFFF" stroke-width="2.64900662" fill="#FFFFFF" stroke-linecap="round" stroke-linejoin="round"></path>
                    <g id="Group-100">
                        <g id="Group-3" transform="translate(78.521746, 21.384835)">
                            <mask id="mask-2" fill="white">
                                <use xlink:href="#path-1"></use>
                            </mask>
                            <g id="Clip-2"></g>
                            <polygon id="Fill-1" fill="#073B4C" mask="url(#mask-2)" points="-2.21526972 8.31983565 8.35404552 8.31983565 8.35404552 -2.20619818 -2.21526972 -2.20619818"></polygon>
                        </g>
                        <g id="Group-6" transform="translate(25.787451, 7.621590)">
                            <mask id="mask-4" fill="white">
                                <use xlink:href="#path-3"></use>
                            </mask>
                            <g id="Clip-5"></g>
                            <polygon id="Fill-4" fill="#073B4C" mask="url(#mask-4)" points="-2.21526972 8.32053893 8.35404552 8.32053893 8.35404552 -2.20549489 -2.21526972 -2.20549489"></polygon>
                        </g>
                        <g id="Group-9" transform="translate(88.755546, 2.005877)">
                            <mask id="mask-6" fill="white">
                                <use xlink:href="#path-5"></use>
                            </mask>
                            <g id="Clip-8"></g>
                            <polygon id="Fill-7" fill="#215B58" mask="url(#mask-6)" points="1.39025743 -4.27813966 -4.29586045 1.38469353 1.39025743 7.04752672 7.07637531 1.38469353"></polygon>
                        </g>
                        <g id="Group-88">
                            <g id="Group-14" transform="translate(17.696352, 10.360874)">
                                <path d="M0.745720377,2.33560221 C0.745720377,1.45790527 1.46107525,0.741260082 2.3466182,0.741260082 L2.42288505,0.741260082 C3.27029457,0.784160334 3.94751601,1.48322345 3.94751601,2.33560221 C3.94751601,3.21822214 3.23216114,3.93064763 2.3466182,3.93064763 C1.46107525,3.93064763 0.745720377,3.21822214 0.745720377,2.33560221 M2.3466182,0 C1.04796311,0 0,1.0471881 0,2.33560221 C0,3.62964259 1.04796311,4.67683069 2.3466182,4.67683069 C3.64103624,4.67683069 4.69253022,3.62964259 4.69253022,2.33560221 C4.69253022,1.0471881 3.64103624,0 2.3466182,0" id="Fill-10" fill="#073B4C"></path>
                                <path d="M2.34633573,0.741541395 C1.46079278,0.741541395 0.745437908,1.45818658 0.745437908,2.33588353 C0.745437908,3.21780017 1.46079278,3.93022566 2.34633573,3.93022566 C3.23258485,3.93022566 3.94793972,3.21780017 3.94793972,2.33588353 C3.94793972,1.48350476 3.27071828,0.784441647 2.42260258,0.741541395 L2.34633573,0.741541395 Z" id="Fill-12" fill="#F4D77D"></path>
                            </g>
                            <g id="Group-21" transform="translate(4.087432, 21.830643)" fill="#E9F4FC">
                                <path d="M27.1040882,62.9722242 C25.9600853,62.6205828 16.6244571,62.6698126 9.2301029,54.195958 L9.2301029,54.061631 L13.8633144,54.061631 C17.9520654,54.061631 21.2703798,50.7639379 21.2703798,46.6841943 C21.2703798,44.6446741 20.4441555,42.8020732 19.10313,41.4728686 C17.7613982,40.1366313 15.9105146,39.3137904 13.8633144,39.3137904 L3.3194215,39.3137904 C2.17541865,39.3137904 1.08861594,39.5740051 0.113388816,40.038875 C-0.451550864,32.864687 1.13098641,26.689864 4.04748751,21.8301798 C6.32843147,18.0254197 9.42853796,15.0224021 12.959411,12.9758492 C16.122367,11.1262154 19.6327609,10.0501927 23.21236,9.832175 L23.3401776,9.76958283 L23.7285736,9.76958283 C24.5759831,3.98789485 26.3830839,0.000281313124 28.4670052,0.000281313124 C34.4475979,0.000281313124 39.6874134,3.46816885 42.6250997,8.68652731 L42.6321615,8.68652731 L59.8564661,8.68652731 C71.2753094,8.68652731 81.1405686,18.0394854 84.4094508,29.1302553 C85.8853557,34.1024648 86.0265906,39.4333485 84.3889717,44.4196236 L74.2334748,70.7645977 C74.2334748,73.4652037 63.7192412,74.9631961 61.3457884,71.1725017 L60.9573923,70.2800358 L60.9573923,70.2722997 L58.0698444,63.5629817 L57.3566081,63.8660966 L46.5443688,63.8660966 L46.5380132,63.8660966 L43.8898584,70.7645977 C42.9718315,73.5706961 34.2145602,75.6875774 30.7966752,70.7856962 L28.7353515,66.4253428 L27.1040882,62.9722242 Z" id="Fill-15"></path>
                                <path d="M27.1040882,62.9722242 L28.7353515,66.4253428 L28.7282898,66.4253428 L27.5419164,70.4621861 L27.4494076,70.7645977 C26.6514303,74.2810118 15.3604046,75.1748842 14.1733251,70.2722997 L9.2301029,54.195958 C16.6244571,62.6698126 25.9600853,62.6205828 27.1040882,62.9722242" id="Fill-17"></path>
                                <path d="M23.340107,9.76930152 L23.2122894,9.83259697 C19.6326903,10.0499114 16.1222964,11.1266373 12.9593403,12.9762711 C12.4650181,5.51373723 10.7059372,0 8.60224306,0 C14.9931232,0 20.5436555,3.9524494 23.340107,9.76930152" id="Fill-19"></path>
                            </g>
                            <path d="M4.20103269,61.8761293 C3.63609301,54.6956118 5.21792412,48.5207887 8.13442522,43.6611045 C10.4160753,39.8556412 13.5154757,36.8533269 17.0463487,34.8067739 C20.2100109,32.9571402 23.7204048,31.8811175 27.3000039,31.6630998" id="Stroke-22" stroke="#073B4C" stroke-width="1.5" stroke-linecap="round" stroke-linejoin="round"></path>
                            <path d="M4.20103269,61.8693075 C1.7152981,63.0571521 0,65.5819374 0,68.5146268 C0,70.5548502 0.832579853,72.3974511 2.16724985,73.7329852 C3.50968776,75.0699258 5.36622078,75.8920634 7.40706538,75.8920634 L13.3177468,75.8920634 L17.9509583,75.8920634 C22.0397093,75.8920634 25.3580237,72.5943703 25.3580237,68.5146268 C25.3580237,66.4758099 24.5317994,64.6332089 23.1907739,63.3033011 C21.8483359,61.9677671 19.9981585,61.1449262 17.9509583,61.1449262 L7.40706538,61.1449262 C6.26306253,61.1449262 5.17625982,61.4051408 4.20103269,61.8693075 Z" id="Stroke-24" stroke="#073B4C" stroke-width="1.5" fill="#FFFFFF" stroke-linecap="round" stroke-linejoin="round"></path>
                            <line x1="46.7197347" y1="30.5168895" x2="63.9440394" y2="30.5168895" id="Stroke-26" stroke="#073B4C" stroke-width="1.5" stroke-linecap="round" stroke-linejoin="round"></line>
                            <path d="M88.4764744,66.2504077 C90.1140933,61.2641326 89.9728584,55.9332489 88.4969534,50.9610394 C85.227365,39.8702695 75.3628121,30.5166081 63.9439688,30.5166081" id="Stroke-28" stroke="#073B4C" stroke-width="1.5" stroke-linecap="round" stroke-linejoin="round"></path>
                            <polyline id="Stroke-30" stroke="#073B4C" stroke-width="1.5" stroke-linecap="round" stroke-linejoin="round" points="29.9273971 82.1237118 31.1914496 84.8032193 32.8227129 88.2563379 34.8847428 92.6166913"></polyline>
                            <path d="M49.2272195,40.2220516 C49.2272195,36.6564077 48.3084863,33.32988 46.7125317,30.5167488 C43.7748454,25.2983903 38.5350299,21.8312061 32.5544372,21.8312061" id="Stroke-32" stroke="#073B4C" stroke-width="1.5" stroke-linecap="round" stroke-linejoin="round"></path>
                            <path d="M37.0457077,39.0757709 C37.0457077,29.5455856 35.0394656,21.8305731 32.5544372,21.8305731" id="Stroke-34" stroke="#073B4C" stroke-width="1.5" stroke-linecap="round" stroke-linejoin="round"></path>
                            <path d="M27.2999332,39.0757709 C27.2999332,36.3955601 27.4842448,33.8574125 27.8154407,31.5998747 C28.6635564,25.8181867 30.4706572,21.8305731 32.5538723,21.8305731" id="Stroke-36" stroke="#073B4C" stroke-width="1.5" stroke-linecap="round" stroke-linejoin="round"></path>
                            <path d="M27.427539,31.599945 C24.6310876,25.7830929 19.0805552,21.8306435 12.6896751,21.8306435" id="Stroke-38" stroke="#073B4C" stroke-width="1.5" stroke-linecap="round" stroke-linejoin="round"></path>
                            <path d="M17.0466311,34.8203473 L17.0466311,34.8062816 C16.5523089,27.344451 14.7939342,21.8307138 12.6895339,21.8307138" id="Stroke-40" stroke="#073B4C" stroke-width="1.5" stroke-linecap="round" stroke-linejoin="round"></path>
                            <path d="M7.9442524,43.5482276 C6.02275131,31.9088971 9.78666193,21.8308544 12.6897457,21.8308544" id="Stroke-42" stroke="#073B4C" stroke-width="1.5" stroke-linecap="round" stroke-linejoin="round"></path>
                            <line x1="5.8540462" y1="66.2504077" x2="5.8540462" y2="70.371645" id="Stroke-44" stroke="#073B4C" stroke-width="1.5" stroke-linecap="round" stroke-linejoin="round"></line>
                            <line x1="13.8970924" y1="66.2504077" x2="13.8970924" y2="70.371645" id="Stroke-46" stroke="#073B4C" stroke-width="1.5" stroke-linecap="round" stroke-linejoin="round"></line>
                            <path d="M35.8871576,64.8788656 C35.8871576,68.1913276 33.7121398,70.877868 31.015259,70.877868" id="Stroke-48" stroke="#073B4C" stroke-width="1.5" stroke-linecap="round" stroke-linejoin="round"></path>
                            <path d="M13.3178174,76.0262498 C20.7121716,84.5008077 30.0470937,84.4508746 31.1918027,84.802516 C31.1981583,84.802516 31.20522,84.8095488 31.2122818,84.8095488" id="Stroke-50" stroke="#073B4C" stroke-width="1.5" stroke-linecap="round" stroke-linejoin="round"></path>
                            <path d="M47.9769374,92.5953115 C47.0589104,95.4014099 38.3023454,97.5182912 34.8844603,92.61641" id="Stroke-52" stroke="#073B4C" stroke-width="1.5" stroke-linecap="round" stroke-linejoin="round"></path>
                            <polyline id="Stroke-54" stroke="#073B4C" stroke-width="1.5" stroke-linecap="round" stroke-linejoin="round" points="47.9769374 92.5953115 50.6250921 85.6961071 51.3100815 83.9168016"></polyline>
                            <line x1="13.3178174" y1="76.0262498" x2="18.2610396" y2="92.1025916" id="Stroke-56" stroke="#073B4C" stroke-width="1.5" stroke-linecap="round" stroke-linejoin="round"></line>
                            <path d="M31.5369808,92.5953115 C30.7390035,96.1117255 19.4479779,97.005598 18.2608984,92.1030135" id="Stroke-58" stroke="#073B4C" stroke-width="1.5" stroke-linecap="round" stroke-linejoin="round"></path>
                            <line x1="31.6294191" y1="92.2931109" x2="32.8157924" y2="88.2562675" id="Stroke-60" stroke="#073B4C" stroke-width="1.5" stroke-linecap="round" stroke-linejoin="round"></line>
                            <polyline id="Stroke-62" stroke="#073B4C" stroke-width="1.5" stroke-linecap="round" stroke-linejoin="round" points="65.0451068 92.1104683 65.4335029 93.0036375 65.5747378 93.3334771"></polyline>
                            <polyline id="Stroke-64" stroke="#073B4C" stroke-width="1.5" stroke-linecap="round" stroke-linejoin="round" points="61.4438988 83.7411216 62.1571352 85.3938362 65.0453893 92.1031542"></polyline>
                            <path d="M78.3210481,92.5953115 C78.3210481,95.2959175 67.8061083,96.7939099 65.4333616,93.0032155 C65.256818,92.7359681 65.1297065,92.4342597 65.0449656,92.1107496 L65.0449656,92.1030135" id="Stroke-66" stroke="#073B4C" stroke-width="1.5" stroke-linecap="round" stroke-linejoin="round"></path>
                            <line x1="78.3210481" y1="92.5953115" x2="88.476545" y2="66.2503374" id="Stroke-68" stroke="#073B4C" stroke-width="1.5" stroke-linecap="round" stroke-linejoin="round"></line>
                            <line x1="61.4438988" y1="85.6963884" x2="50.6316595" y2="85.6963884" id="Stroke-70" stroke="#073B4C" stroke-width="1.5" stroke-linecap="round" stroke-linejoin="round"></line>
                            <path d="M92.6210837,48.0914346 C92.8188126,48.0914346 93.0101859,48.0710394 93.1937913,48.035172 C95.00866,47.719398 96.6109702,46.369095 97.2260483,44.6312832 C97.8404202,42.8941746 97.4371945,40.8405888 96.2162186,39.4621545" id="Stroke-72" stroke="#073B4C" stroke-width="1.5" stroke-linecap="round" stroke-linejoin="round"></path>
                            <path d="M92.6210837,48.0914346 C92.6987629,47.8874826 92.7552569,47.6694649 92.7905656,47.4521505 C92.8901362,46.888821 92.8618893,46.2769649 92.5723577,45.7853703 C92.2828261,45.2930723 91.6825777,44.9477604 91.1246997,45.0820874 C90.2207963,45.2994018 90.001176,46.642672 90.6084861,47.3529876 C91.0964528,47.9156139 91.8661831,48.1195659 92.6210837,48.0914346 Z" id="Stroke-74" stroke="#073B4C" stroke-width="1.5" stroke-linecap="round" stroke-linejoin="round"></path>
                            <path d="M88.4833243,50.9608285 L88.4974478,50.9608285 C90.2974868,51.0100583 92.021259,49.7652477 92.6208012,48.0914346" id="Stroke-76" stroke="#073B4C" stroke-width="1.5" stroke-linecap="round" stroke-linejoin="round"></path>
                            <path d="M25.3262458,53.4140899 C25.3262458,55.0161681 24.8750003,56.3151315 24.319947,56.3151315 C23.7641876,56.3151315 23.3129421,55.0161681 23.3129421,53.4140899 C23.3129421,51.8127149 23.7641876,50.5137516 24.319947,50.5137516 C24.8750003,50.5137516 25.3262458,51.8127149 25.3262458,53.4140899" id="Fill-78" fill="#073B4C"></path>
                            <path d="M13.2019341,53.4140899 C13.2019341,55.0161681 12.7513947,56.3151315 12.1956353,56.3151315 C11.6398759,56.3151315 11.1893365,55.0161681 11.1893365,53.4140899 C11.1893365,51.8127149 11.6398759,50.5137516 12.1956353,50.5137516 C12.7513947,50.5137516 13.2019341,51.8127149 13.2019341,53.4140899" id="Fill-80" fill="#073B4C"></path>
                            <path d="M67.9091392,35.8285735 L51.4263178,35.8285735 C50.8656152,35.8285735 50.4115449,35.3756594 50.4115449,34.8179561 C50.4115449,34.2595496 50.8656152,33.8073387 51.4263178,33.8073387 L67.9091392,33.8073387 C68.4698418,33.8073387 68.9239121,34.2595496 68.9239121,34.8179561 C68.9239121,35.3756594 68.4698418,35.8285735 67.9091392,35.8285735" id="Fill-82" fill="#88E0FF"></path>
                            <path d="M41.143427,0.452252588 C43.3149139,-1.03519056 47.4982922,1.26665408 50.486117,5.59395322 C53.475354,9.92054907 54.1377458,14.6346537 51.9662589,16.1220969 C49.794772,17.60954 45.6113937,15.3076954 42.6228628,10.9810995 C39.6336257,6.65380041 38.9719401,1.93969573 41.143427,0.452252588" id="Fill-84" fill="#F4D77D"></path>
                            <path d="M41.143427,0.452252588 C43.3149139,-1.03519056 47.4982922,1.26665408 50.486117,5.59395322 C53.475354,9.92054907 54.1377458,14.6346537 51.9662589,16.1220969 C49.794772,17.60954 45.6113937,15.3076954 42.6228628,10.9810995 C39.6336257,6.65380041 38.9719401,1.93969573 41.143427,0.452252588 Z" id="Stroke-86" stroke="#073B4C" stroke-width="1.5" stroke-linecap="round" stroke-linejoin="round"></path>
                        </g>
                        <g id="Group-91" transform="translate(43.716408, 5.376779)">
                            <mask id="mask-8" fill="white">
                                <use xlink:href="#path-7"></use>
                            </mask>
                            <g id="Clip-90"></g>
                            <polygon id="Fill-89" fill="#073B4C" mask="url(#mask-8)" points="2.70609791 9.55803536 -3.44256433 0.656584832 2.97091339 -3.73682289 9.11957563 5.16462765"></polygon>
                        </g>
                        <g id="Group-96" transform="translate(51.001907, 22.085654)">
                            <path d="M16.7589356,11.6948899 C17.1233217,10.7419416 17.3316432,9.71163233 17.3316432,8.63138993 C17.3316432,3.86383576 13.4512138,0 8.66546851,0 C3.87972325,0 0,3.86383576 0,8.63138993 C0,9.71163233 0.208321507,10.7419416 0.5727076,11.6948899 L16.7589356,11.6948899 Z" id="Fill-92" fill="#F4D77D"></path>
                            <path d="M16.7589356,11.6948899 C17.1233217,10.7419416 17.3316432,9.71163233 17.3316432,8.63138993 C17.3316432,3.86383576 13.4512138,0 8.66546851,0 C3.87972325,0 0,3.86383576 0,8.63138993 C0,9.71163233 0.208321507,10.7419416 0.5727076,11.6948899 L16.7589356,11.6948899 Z" id="Stroke-94" stroke="#073B4C" stroke-width="1.5" stroke-linecap="round" stroke-linejoin="round"></path>
                        </g>
                        <g id="Group-99" transform="translate(57.049233, 25.973120)">
                            <mask id="mask-10" fill="white">
                                <use xlink:href="#path-9"></use>
                            </mask>
                            <g id="Clip-98"></g>
                            <polygon id="Fill-97" fill="#073B4C" mask="url(#mask-10)" points="-2.30424772 7.80714248 7.54194473 7.80714248 7.54194473 -2.29551509 -2.30424772 -2.29551509"></polygon>
                        </g>
                    </g>
                </g>
                <g id="tick" transform="translate(67.576667, 64.086667)">
                    <ellipse id="Oval" stroke="#073B4C" stroke-width="1.9864339" fill="#72EFD3" cx="22.8686508" cy="22.8439898" rx="21.8754338" ry="21.8507729"></ellipse>
                    <g id="Fintech/icons/Light-outline/Tick" transform="translate(12.925759, 12.911820)" fill="#073B4C">
                        <path d="M17.9527986,3.64285865 C18.3957016,3.19983734 19.1172267,3.20003777 19.5598806,3.64330166 C19.9608834,4.04485709 19.9978833,4.67791784 19.6372253,5.14063051 L19.5594379,5.22760228 L8.56603277,16.2239422 C8.16108508,16.628998 7.51623296,16.6673242 7.0474785,16.3026802 L6.9604745,16.2250221 L0.329859902,9.61057961 C-0.108940717,9.17284922 -0.110094294,8.4654232 0.327257209,8.026281 C0.731958877,7.61992231 1.37778982,7.58087522 1.84721454,7.94592312 L1.93432585,8.02366495 L7.76117769,13.835326 Z" id="Combined-Shape"></path>
                    </g>
                </g>
            </g>
        </g>
    </g>
</svg>