<svg width="125" height="111" viewBox="0 0 125 111" xmlns="http://www.w3.org/2000/svg" xmlns:xlink="http://www.w3.org/1999/xlink">
    <defs>
        <path d="M4.696 1.062v2.563l.004.097c.046.542.478.966 1.002.966.556 0 1.007-.475 1.007-1.063V1.062L6.705.965C6.658.424 6.227 0 5.702 0c-.555 0-1.006.475-1.006 1.062zm3.076 3.626-.097.004c-.542.047-.966.477-.966 1 0 .556.477 1.006 1.063 1.006h2.57l.096-.004c.54-.047.967-.477.967-1.001 0-.555-.477-1.005-1.064-1.005h-2.57zm-6.709 0-.097.004c-.54.047-.966.477-.966 1 0 .556.476 1.006 1.063 1.006h2.57l.096-.004c.542-.047.967-.477.967-1.001 0-.555-.476-1.005-1.063-1.005h-2.57zM4.696 7.76v2.564l.004.096c.046.542.478.966 1.002.966.556 0 1.007-.475 1.007-1.062V7.76l-.004-.097c-.047-.541-.478-.965-1.003-.965-.555 0-1.006.475-1.006 1.062z" id="l1952vr1sa"/>
        <path d="M4.696 1.062v2.563l.005.097c.045.542.477.966 1.002.966.555 0 1.006-.476 1.006-1.063V1.062L6.705.965C6.658.423 6.227 0 5.703 0c-.556 0-1.007.475-1.007 1.062zm3.076 3.626-.096.004c-.542.047-.967.475-.967 1 0 .556.476 1.006 1.063 1.006h2.57l.097-.005c.54-.046.966-.476.966-1 0-.556-.477-1.005-1.064-1.005H7.772zm-6.71 0-.095.004c-.542.047-.967.475-.967 1 0 .556.477 1.006 1.063 1.006h2.57l.097-.005c.541-.046.966-.476.966-1 0-.556-.476-1.005-1.063-1.005h-2.57zM4.697 7.76v2.563l.005.097c.045.542.477.966 1.002.966.555 0 1.006-.476 1.006-1.063V7.76l-.004-.097c-.047-.541-.478-.965-1.002-.965-.556 0-1.007.475-1.007 1.062z" id="86bud6wo7c"/>
        <path d="M.205.204C-.05.458-.07.85.16 1.08L1.17 2.087l.04.036c.234.191.598.16.839-.08.254-.253.273-.646.043-.876L1.082.16l-.04-.036A.564.564 0 0 0 .683 0a.682.682 0 0 0-.478.204zM3.935.16 2.926 1.167l-.036.04c-.191.233-.16.598.08.837.253.254.646.273.878.043l1.008-1.006.036-.04c.191-.234.16-.598-.08-.837A.681.681 0 0 0 4.334 0a.558.558 0 0 0-.4.16zM2.97 2.964c-.255.255-.274.647-.044.877L3.935 4.85l.039.034c.234.192.598.161.838-.079.255-.253.274-.647.044-.876L3.848 2.921l-.04-.036a.562.562 0 0 0-.36-.125.68.68 0 0 0-.478.204zm-1.8-.042L.161 3.927l-.037.04c-.192.234-.16.598.08.837.254.254.647.273.878.044L2.091 3.84l.035-.04c.193-.233.162-.597-.078-.837a.682.682 0 0 0-.479-.204.559.559 0 0 0-.4.162z" id="6k1gunpsxe"/>
        <path d="M3.935.16 2.926 1.168l-.036.04c-.191.233-.16.598.08.837.253.254.646.273.878.043l1.008-1.006.036-.04c.191-.234.16-.598-.08-.837A.681.681 0 0 0 4.334 0a.557.557 0 0 0-.4.16zM.205.205C-.05.458-.07.85.16 1.08L1.17 2.087l.04.036c.234.191.598.16.839-.08.254-.253.273-.646.043-.876L1.082.16l-.04-.036A.564.564 0 0 0 .683 0a.684.684 0 0 0-.478.204zm2.765 2.76c-.255.255-.274.647-.044.877L3.935 4.85l.039.034c.234.192.598.161.838-.079.255-.253.274-.647.044-.876L3.848 2.921l-.04-.036a.562.562 0 0 0-.36-.125.68.68 0 0 0-.478.204zm-1.8-.042L.161 3.927l-.037.04c-.192.234-.16.598.08.837.254.254.647.273.878.044L2.091 3.84l.035-.04c.193-.233.162-.597-.078-.837a.679.679 0 0 0-.478-.204.561.561 0 0 0-.4.162z" id="le62wuji8g"/>
        <path d="M3.934.16 2.926 1.168l-.036.04c-.192.233-.162.598.079.837.255.254.648.273.879.043l1.007-1.006.036-.04c.193-.234.162-.598-.079-.837A.68.68 0 0 0 4.334 0a.562.562 0 0 0-.4.16zM.204.205C-.05.458-.07.851.161 1.08L1.17 2.087l.039.036c.233.191.598.161.839-.08.254-.252.273-.646.043-.876L1.083.16l-.04-.035A.565.565 0 0 0 .683 0a.681.681 0 0 0-.479.204zm2.765 2.76c-.255.255-.274.647-.043.877L3.934 4.85l.04.034c.234.192.598.162.838-.079.255-.253.275-.647.044-.876L3.848 2.922l-.04-.037a.564.564 0 0 0-.36-.125.682.682 0 0 0-.48.204zm-1.8-.042L.161 3.927l-.036.04c-.191.234-.16.598.08.837.254.254.647.273.878.044L2.09 3.84l.037-.04c.191-.233.16-.597-.08-.837a.682.682 0 0 0-.478-.204.562.562 0 0 0-.4.162z" id="276sonyxxi"/>
        <path d="M3.934.16 2.926 1.168l-.036.04c-.192.233-.162.598.079.837.255.254.648.273.879.043l1.007-1.006.036-.04c.193-.234.162-.598-.079-.837A.68.68 0 0 0 4.334 0a.561.561 0 0 0-.4.16zM.204.205C-.05.458-.07.851.161 1.08L1.17 2.087l.039.036c.233.191.598.161.839-.08.254-.252.273-.646.043-.876L1.083.16l-.04-.035A.564.564 0 0 0 .683 0a.68.68 0 0 0-.479.204zm2.765 2.76c-.255.255-.274.647-.043.877L3.934 4.85l.04.034c.234.192.598.162.838-.079.255-.253.275-.647.044-.876L3.848 2.922l-.04-.037a.564.564 0 0 0-.36-.125.685.685 0 0 0-.48.204zm-1.8-.042L.161 3.927l-.036.04c-.191.234-.16.598.08.837.254.254.647.273.878.044L2.09 3.84l.037-.04c.191-.233.16-.597-.08-.837a.68.68 0 0 0-.478-.204.562.562 0 0 0-.4.162z" id="3h8zfxx11k"/>
        <path d="M.283.283C-.11.676-.091 1.33.323 1.744l1.818 1.814.07.065c.417.35 1.021.346 1.393-.025.393-.392.374-1.047-.04-1.461L1.747.323 1.675.258A1.083 1.083 0 0 0 .978 0a.976.976 0 0 0-.695.283zm6.6.04L5.069 2.137l-.065.071c-.352.416-.346 1.02.024 1.39.392.393 1.048.375 1.464-.04l1.816-1.812.065-.072c.351-.415.346-1.02-.024-1.39A.976.976 0 0 0 7.653 0c-.274 0-.554.11-.77.324zM5.028 5.019c-.394.394-.374 1.048.04 1.462l1.817 1.814.072.065c.415.349 1.02.346 1.392-.024.393-.394.375-1.048-.04-1.462L6.49 5.06l-.072-.065a1.088 1.088 0 0 0-.698-.258.975.975 0 0 0-.694.282zM2.14 5.06.324 6.873l-.065.07c-.35.417-.347 1.02.024 1.392.393.391 1.05.373 1.465-.042L3.563 6.48l.066-.07c.35-.417.346-1.02-.025-1.392a.975.975 0 0 0-.695-.282 1.09 1.09 0 0 0-.769.324z" id="no2ozubshm"/>
        <path d="M.283.283C-.11.676-.091 1.33.323 1.744l1.818 1.814.07.065c.417.35 1.021.346 1.393-.025.393-.392.374-1.047-.04-1.461L1.747.323 1.675.258A1.082 1.082 0 0 0 .978 0a.974.974 0 0 0-.695.283zm6.6.04L5.069 2.137l-.065.071c-.352.416-.346 1.02.024 1.39.392.393 1.048.375 1.464-.04l1.816-1.812.065-.072c.351-.415.346-1.02-.024-1.39a.975.975 0 0 0-.695-.282c-.274 0-.554.108-.77.323zM5.028 5.019c-.394.394-.374 1.048.04 1.462l1.817 1.814.072.065c.415.349 1.02.346 1.392-.024.393-.394.375-1.048-.04-1.462L6.49 5.06l-.072-.065a1.09 1.09 0 0 0-.698-.259.976.976 0 0 0-.694.283zM2.14 5.06.324 6.873l-.065.07c-.35.417-.347 1.02.024 1.392.393.391 1.05.373 1.465-.042L3.563 6.48l.066-.07c.35-.417.346-1.02-.025-1.392a.978.978 0 0 0-.695-.282 1.09 1.09 0 0 0-.769.324z" id="5z86n2yxio"/>
        <path d="M2.607.59v1.423l.003.053c.03.302.31.536.648.536.36 0 .652-.263.652-.589V.59L3.908.536C3.877.236 3.598 0 3.258 0c-.359 0-.651.264-.651.59zM4.5 2.602l-.054.003c-.3.03-.537.309-.537.648 0 .36.265.65.591.65h1.425l.055-.002c.3-.03.536-.308.536-.648 0-.359-.265-.651-.59-.651H4.5zm-3.911 0-.053.003c-.302.03-.537.309-.537.648 0 .36.265.65.59.65h1.427l.053-.002c.3-.03.537-.308.537-.648 0-.359-.265-.651-.59-.651H.59zm2.017 1.892v1.423l.003.053c.03.301.31.537.648.537.36 0 .652-.265.652-.59V4.494l-.002-.055c-.031-.3-.31-.535-.65-.535-.359 0-.651.264-.651.59z" id="7b5fjng17q"/>
        <path d="M1.187.266c-.358.48.134 1.452 1.095 2.166l1.105.822c.402.3.608.708.458.91-.15.2-.6.12-1.004-.18L.728 2.411c-.279-.207-.59-.263-.694-.124-.104.14.038.422.317.63l.937.695-.257.344c-.103.14.039.421.318.63.28.206.59.262.695.122l.256-.343.165.123c.961.716 2.034.906 2.393.426.357-.48-.133-1.451-1.096-2.166l-1.104-.821c-.403-.3-.609-.708-.459-.909.15-.201.601-.122 1.004.178l2.114 1.571c.279.208.59.264.694.126.104-.14-.039-.422-.317-.63l-1.175-.873.257-.343c.104-.14-.039-.422-.318-.629-.28-.208-.59-.263-.695-.124l-.255.342-.13-.087C2.83.19 2.272 0 1.843 0c-.29 0-.524.087-.657.266z" id="sqv1yuc1js"/>
    </defs>
    <g fill="none" fill-rule="evenodd">
        <path d="M27.225 35.854c0-.363.016-4.36-1.171-8.024-.333-1.025-.98-2.331-1.94-3.917-.808.13-1.232.215-1.274.255-1.72 1.62-2.848 4.026-3.401 6.658-.574 2.728-.675 6.994-.304 12.797 2.17-2.59 3.638-4.243 4.405-4.956 2.115-1.965 3.685-2.479 3.685-2.813z" fill="#FFF"/>
        <path d="M41.895 85.974c-1.135-.35-10.397-.3-17.738-8.728v-.134h4.602c4.056 0 7.342-3.28 7.342-7.329 0-2.03-.819-3.862-2.15-5.19a7.319 7.319 0 0 0-5.192-2.148H18.3c-1.142 0-2.22.259-3.18.721-.56-7.135 1.01-13.269 3.896-18.109 2.269-3.776 5.337-6.757 8.84-8.806 3.133-1.825 6.62-2.902 10.173-3.12l.133-.062.371.05c.84-5.786 2.634-9.773 4.716-9.773 5.933 0 11.131 3.45 14.046 8.64h17.094c11.33 0 21.11 9.301 24.36 20.331 1.464 4.945 1.604 10.247-.022 15.206L88.652 93.724c0 2.686-10.43 4.176-12.786.406l-.385-.888v-.008l-2.865-6.672-.707.301H61.175l-2.627 6.861c-.91 2.79-9.598 4.896-12.989.021l-3.656-7.756.013-.007c-.006 0-.013-.008-.021-.008" fill="#E9F4FC"/>
        <path d="m41.916 85.982-.014.007-.007-.015c.007 0 .014.008.021.008" fill="#E9F4FC"/>
        <path d="m41.895 85.974.008.015-15.75 7.595-.287.127c-3.188 1.65-11.09-6.33-8.12-10.374l3.39-5.231v-.994h3.02v.134c7.342 8.428 16.604 8.379 17.739 8.728M38.16 33.069l-.132.063c-3.552.217-7.04 1.294-10.173 3.12-.482-7.422-2.234-12.905-4.315-12.905 6.34 0 11.84 3.937 14.62 9.722" fill="#E9F4FC"/>
        <path d="M15.119 63.166a7.318 7.318 0 0 1 3.18-.72h10.46c2.025 0 3.86.818 5.192 2.147a7.303 7.303 0 0 1 2.15 5.19c0 4.05-3.285 7.33-7.342 7.33H18.3a7.328 7.328 0 0 1-5.199-2.147 7.333 7.333 0 0 1 2.018-11.8" fill="#FFF"/>
        <path d="m15.119 63.173-.7-.007c-.536-6.783.845-13.187 3.993-18.467 2.265-3.768 5.407-6.897 9.089-9.052 3.228-1.88 6.853-2.991 10.484-3.213a.693.693 0 0 1 .742.655.7.7 0 0 1-.656.74c-3.413.21-6.824 1.256-9.862 3.026-3.479 2.035-6.45 4.996-8.594 8.562-2.998 5.028-4.312 11.148-3.798 17.694l-.698.062z" fill="#073B4C"/>
        <path d="M18.3 63.145c-1.01 0-1.978.219-2.877.65v.001a6.675 6.675 0 0 0-3.772 5.987c0 1.77.69 3.435 1.946 4.688a6.615 6.615 0 0 0 4.703 1.942h10.46c3.661 0 6.64-2.974 6.64-6.63 0-1.776-.69-3.444-1.945-4.696a6.601 6.601 0 0 0-4.696-1.942H18.3zm10.46 14.667H18.3a8.008 8.008 0 0 1-5.694-2.352 7.97 7.97 0 0 1-2.356-5.677 8.076 8.076 0 0 1 4.565-7.247 7.977 7.977 0 0 1 3.485-.79h10.46c2.147 0 4.167.835 5.686 2.352a7.976 7.976 0 0 1 2.356 5.685c0 4.427-3.608 8.029-8.043 8.029zM74.388 32.684H57.301a.7.7 0 1 1 0-1.399h17.087a.7.7 0 1 1 0 1.4" fill="#073B4C"/>
        <path d="M98.727 68.223a.7.7 0 0 1-.666-.918c1.51-4.607 1.515-9.722.015-14.79-3.387-11.49-13.349-19.831-23.688-19.831a.7.7 0 1 1 0-1.399c10.947 0 21.474 8.763 25.031 20.835 1.582 5.34 1.573 10.742-.027 15.621a.701.701 0 0 1-.665.482M45.56 94.445a.701.701 0 0 1-.635-.402l-4.918-10.436a.7.7 0 0 1 1.268-.595l4.918 10.435a.7.7 0 0 1-.633.998M59.788 42.336a.7.7 0 0 1-.7-.699c0-3.31-.832-6.53-2.404-9.308-2.913-5.188-7.936-8.283-13.436-8.283a.7.7 0 1 1 0-1.399c6.014 0 11.494 3.362 14.657 8.996 1.69 2.986 2.584 6.442 2.584 9.994a.7.7 0 0 1-.701.7" fill="#073B4C"/>
        <path d="M47.703 41.196a.7.7 0 0 1-.7-.699c0-10.042-2.224-16.452-3.755-16.452a.7.7 0 1 1 0-1.398c3.384 0 5.156 8.98 5.156 17.85a.7.7 0 0 1-.701.7" fill="#073B4C"/>
        <path d="M38.028 41.196a.7.7 0 0 1-.7-.699c0-2.613.171-5.13.51-7.478.945-6.495 2.967-10.372 5.41-10.372a.7.7 0 1 1 0 1.398c-1.295 0-3.106 2.871-4.023 9.174-.33 2.282-.496 4.73-.496 7.278a.7.7 0 0 1-.7.7" fill="#073B4C"/>
        <path d="M38.162 33.768a.7.7 0 0 1-.632-.396c-2.766-5.752-8.126-9.326-13.99-9.326a.7.7 0 1 1 0-1.399c6.407 0 12.251 3.878 15.252 10.119a.698.698 0 0 1-.63 1.002" fill="#073B4C"/>
        <path d="m27.855 36.266-.7-.015c-.543-8.312-2.478-12.205-3.615-12.205a.7.7 0 1 1 0-1.4c3.046 0 4.588 7.005 5.015 13.56l-.7.06z" fill="#073B4C"/>
        <path d="M18.824 45.644a.7.7 0 0 1-.69-.586c-1.502-9.124.439-17.914 3.183-21.14.717-.844 1.464-1.271 2.223-1.271a.7.7 0 1 1 0 1.399c-.314 0-.735.283-1.155.777-2.082 2.448-4.434 10.5-2.87 20.009a.698.698 0 0 1-.69.812M16.758 72.322a.7.7 0 0 1-.7-.7v-4.099a.7.7 0 1 1 1.4 0v4.1a.7.7 0 0 1-.7.699M24.738 72.322a.7.7 0 0 1-.7-.7v-4.099a.7.7 0 1 1 1.4 0v4.1a.7.7 0 0 1-.7.699M41.72 72.825a.7.7 0 1 1 0-1.399c2.28 0 4.133-2.363 4.133-5.267a.7.7 0 0 1 1.402 0c0 3.676-2.483 6.666-5.535 6.666M41.916 86.681a.72.72 0 0 1-.237-.042c-.114-.03-.472-.077-.817-.12-2.942-.378-10.758-1.38-17.234-8.814a.698.698 0 0 1 .069-.987.702.702 0 0 1 .988.069c6.126 7.032 13.558 7.985 16.356 8.344.525.067.842.107 1.06.175a.7.7 0 0 1-.186 1.375M51.869 97.367c-2.941 0-5.442-1.149-6.885-3.222a.7.7 0 0 1 1.15-.798c2.095 3.01 6.108 2.678 7.288 2.504 2.52-.37 4.18-1.483 4.46-2.344a.701.701 0 0 1 1.332.434c-.507 1.554-2.752 2.878-5.588 3.294-.6.088-1.187.132-1.757.132" fill="#073B4C"/>
        <path d="M58.548 94.424a.7.7 0 0 1-.654-.95l3.307-8.63a.701.701 0 0 1 .904-.404.697.697 0 0 1 .404.903l-3.306 8.63a.7.7 0 0 1-.655.45M17.745 84.037a.7.7 0 0 1-.587-1.079l3.39-5.232a.7.7 0 1 1 1.177.76l-3.39 5.232a.701.701 0 0 1-.59.32" fill="#073B4C"/>
        <path d="M24.87 94.637c-1.97 0-4.343-1.7-5.981-3.61-1.996-2.326-3.491-5.676-1.708-8.103a.7.7 0 0 1 1.13.828c-1.3 1.769.072 4.534 1.641 6.364 1.922 2.241 4.43 3.576 5.592 2.973a.7.7 0 0 1 .644 1.243c-.406.21-.851.305-1.318.305" fill="#073B4C"/>
        <path d="M26.154 94.284a.7.7 0 0 1-.306-1.33l15.75-7.595a.708.708 0 0 1 .94.317.694.694 0 0 1-.309.931l-15.771 7.607a.695.695 0 0 1-.304.07M76.007 95.158a.7.7 0 0 1-.645-.425l-.524-1.213a.7.7 0 0 1 1.286-.556l.527 1.22a.699.699 0 0 1-.644.974" fill="#073B4C"/>
        <path d="M75.481 93.934a.7.7 0 0 1-.643-.424l-3.573-8.316a.7.7 0 0 1 1.287-.552l3.573 8.317a.7.7 0 0 1-.644.975" fill="#073B4C"/>
        <path d="M81.9 97.092c-2.676 0-5.438-.685-6.628-2.592a3.646 3.646 0 0 1-.469-1.081.703.703 0 0 1 .678-.88c.343 0 .628.243.69.566.066.243.162.459.28.64 1.28 2.045 5.84 2.408 9.142 1.465 1.62-.463 2.359-1.095 2.359-1.486a.7.7 0 1 1 1.401 0c0 1.203-1.198 2.21-3.374 2.83-1.148.328-2.6.538-4.08.538" fill="#073B4C"/>
        <path d="M88.652 94.424a.7.7 0 0 1-.654-.95l10.074-26.201a.702.702 0 0 1 .905-.403c.362.14.543.543.403.904l-10.073 26.2a.702.702 0 0 1-.655.45M71.909 87.562H61.182a.7.7 0 1 1 0-1.399h10.727a.7.7 0 1 1 0 1.4M102.84 50.164a.7.7 0 1 1 0-1.4c.132 0 .276-.014.427-.043 1.565-.272 2.955-1.449 3.47-2.928.526-1.489.18-3.275-.857-4.448a.7.7 0 1 1 1.05-.927c1.385 1.567 1.829 3.858 1.13 5.836-.687 1.973-2.469 3.483-4.54 3.843-.226.043-.46.067-.68.067" fill="#073B4C"/>
        <path d="M101.599 47.141a.335.335 0 0 0-.08.01c-.156.036-.235.188-.275.309-.092.28-.039.624.125.816.247.29.614.415.943.463l.003-.023c.086-.485.038-.906-.13-1.192-.13-.223-.382-.383-.586-.383zm1.102 3.025c-1.008 0-1.855-.346-2.4-.983-.48-.565-.632-1.412-.388-2.157.21-.641.675-1.091 1.277-1.236.81-.195 1.741.235 2.204 1.027.34.58.446 1.317.304 2.13a3.91 3.91 0 0 1-.204.766.698.698 0 0 1-.63.45c-.054.002-.11.003-.163.003z" fill="#073B4C"/>
        <path d="m98.85 53.018-.121-.001a.706.706 0 0 1-.688-.71.693.693 0 0 1 .692-.69h.014c1.429.051 2.931-.986 3.433-2.388a.697.697 0 0 1 .894-.423c.365.13.555.53.425.893-.694 1.94-2.636 3.319-4.65 3.319M39.213 58.29a.7.7 0 0 1-.58-.307c-.85-1.252-1.858-1.948-3-2.068-2.326-.24-4.562 1.886-4.584 1.907a.701.701 0 0 1-.975-1.004c.11-.107 2.735-2.606 5.698-2.295 1.575.163 2.928 1.063 4.02 2.676a.699.699 0 0 1-.579 1.091M22.093 57.915a.7.7 0 0 1-.616-.364c-.684-1.253-1.48-1.933-2.365-2.02-1.737-.167-3.44 1.841-3.456 1.861a.703.703 0 0 1-.988.09.698.698 0 0 1-.09-.984c.088-.107 2.178-2.595 4.667-2.36 1.376.134 2.541 1.057 3.462 2.743a.699.699 0 0 1-.614 1.034" fill="#073B4C"/>
        <path d="M75.479 6.698c.524 0 .955.424 1.002.966l.004.097v2.563c0 .587-.45 1.062-1.006 1.062-.524 0-.956-.424-1.003-.966l-.004-.096V7.76c0-.588.452-1.063 1.007-1.063zm4.638-2.01c.587 0 1.064.45 1.064 1.005 0 .524-.426.954-.966 1l-.098.005h-2.569c-.586 0-1.063-.45-1.063-1.005 0-.525.425-.954.966-1l.097-.005h2.57zm-6.708 0c.587 0 1.063.45 1.063 1.005 0 .524-.425.954-.966 1l-.097.005H70.84c-.587 0-1.064-.45-1.064-1.005 0-.525.426-.954.967-1l.097-.005h2.57zM75.48 0c.524 0 .955.424 1.002.966l.004.096v2.563c0 .588-.45 1.063-1.006 1.063-.524 0-.956-.424-1.003-.966l-.004-.097V1.062c0-.586.452-1.062 1.007-1.062z" fill="#F4D77D"/>
        <g transform="translate(69.776)">
            <mask id="01qk64lx0b" fill="#fff">
                <use xlink:href="#l1952vr1sa"/>
            </mask>
            <path fill="#F4D77D" mask="url(#01qk64lx0b)" d="M-268.824 375.738h586.525v-1668.86h-586.525z"/>
            <path fill="#073B4C" mask="url(#01qk64lx0b)" d="M-8.146 19.519h27.697V-8.132H-8.146z"/>
        </g>
        <path d="M5.703 50.953c.524 0 .955.424 1.002.966l.005.097v2.563c0 .587-.452 1.062-1.007 1.062-.525 0-.956-.423-1.003-.965l-.004-.097v-2.563c0-.587.451-1.063 1.007-1.063zm4.638-2.01c.587 0 1.065.45 1.065 1.005 0 .525-.426.955-.967 1l-.098.005H7.772c-.587 0-1.062-.45-1.062-1.005 0-.525.424-.954.966-1l.096-.004h2.57zm-6.708 0c.587 0 1.063.45 1.063 1.005 0 .525-.425.955-.966 1l-.097.005h-2.57c-.586 0-1.063-.45-1.063-1.005 0-.525.425-.954.967-1l.096-.004h2.57zm2.07-4.688c.524 0 .955.424 1.002.966l.005.097v2.562c0 .588-.452 1.064-1.007 1.064-.525 0-.956-.424-1.003-.966l-.004-.098v-2.562c0-.587.451-1.063 1.007-1.063z" fill="#F4D77D"/>
        <g transform="translate(0 44.256)">
            <mask id="1glk4f6a6d" fill="#fff">
                <use xlink:href="#86bud6wo7c"/>
            </mask>
            <path fill="#F4D77D" mask="url(#1glk4f6a6d)" d="M-268.824 375.737H317.7v-1668.861h-586.524z"/>
            <path fill="#073B4C" mask="url(#1glk4f6a6d)" d="M-8.146 19.518H19.55V-8.134H-8.146z"/>
        </g>
        <path d="M104.852 32.953c.24.24.271.604.078.838l-.035.04-1.008 1.005c-.231.23-.625.212-.878-.042-.24-.24-.272-.603-.08-.838l.037-.04 1.007-1.006c.23-.23.625-.21.879.043zm2.809.964c.23.23.21.623-.045.877-.24.24-.604.27-.838.079l-.04-.036-1.008-1.006c-.23-.23-.211-.624.043-.878.24-.24.605-.27.839-.079l.039.036 1.01 1.007zm-2.766-2.76c.23.23.211.622-.043.877-.241.239-.605.27-.839.079l-.04-.037-1.008-1.006c-.23-.23-.211-.623.044-.877.24-.24.604-.27.838-.08l.04.036 1.008 1.008zm2.721-.964c.24.24.272.603.08.838l-.036.04-1.008 1.005c-.231.23-.625.21-.879-.042-.24-.24-.27-.605-.079-.838l.036-.04 1.008-1.006c.23-.23.624-.211.878.043z" fill="#F4D77D"/>
        <g transform="translate(102.804 29.99)">
            <mask id="3s5a9amxjf" fill="#fff">
                <use xlink:href="#6k1gunpsxe"/>
            </mask>
            <path fill="#F4D77D" mask="url(#3s5a9amxjf)" d="M-305.416 381.495h586.523v-1668.861h-586.523z"/>
        </g>
        <g transform="translate(102.804 29.99)">
            <mask id="8reddicmfh" fill="#fff">
                <use xlink:href="#le62wuji8g"/>
            </mask>
            <path fill="#073B4C" mask="url(#8reddicmfh)" d="M2.508-13.598 18.637 2.503 2.508 18.607-13.62 2.503z"/>
        </g>
        <path d="M14.546 20.564c.24.24.27.604.079.838l-.036.04-1.008 1.005c-.23.23-.624.211-.879-.042-.24-.24-.27-.603-.079-.838l.037-.04 1.007-1.006c.231-.23.625-.21.879.043zm2.808.964c.23.23.212.623-.044.877-.24.24-.604.27-.838.079l-.04-.036-1.008-1.007c-.23-.23-.211-.623.043-.877.24-.24.605-.27.84-.079l.038.036 1.01 1.007zm-2.765-2.76c.23.23.21.622-.043.877-.24.24-.605.27-.838.079l-.04-.037-1.008-1.006c-.23-.23-.212-.623.042-.877.241-.24.605-.27.839-.08l.04.036 1.008 1.008zm2.721-.964c.241.24.272.603.08.838l-.037.04-1.008 1.005c-.23.23-.623.212-.878-.042-.24-.24-.27-.605-.079-.838l.036-.04 1.008-1.006c.23-.23.624-.211.878.043z" fill="#F4D77D"/>
        <g transform="translate(12.498 17.6)">
            <mask id="uf1x1wpoij" fill="#fff">
                <use xlink:href="#276sonyxxi"/>
            </mask>
            <path fill="#F4D77D" mask="url(#uf1x1wpoij)" d="M-305.416 381.495h586.523v-1668.861h-586.523z"/>
        </g>
        <g transform="translate(12.498 17.6)">
            <mask id="s0aonu7oql" fill="#fff">
                <use xlink:href="#3h8zfxx11k"/>
            </mask>
            <path fill="#073B4C" mask="url(#s0aonu7oql)" d="M2.509-13.598 18.637 2.504 2.509 18.607-13.62 2.504z"/>
        </g>
        <path d="M106.973 77.826c.37.37.375.975.024 1.39l-.066.072-1.814 1.813c-.416.414-1.073.433-1.465.04-.371-.37-.375-.974-.024-1.39l.065-.071 1.816-1.812c.416-.416 1.07-.434 1.464-.042zm4.704 1.854c.414.415.432 1.07.04 1.462-.372.37-.977.374-1.393.024l-.071-.064-1.817-1.815c-.414-.414-.433-1.068-.04-1.46.372-.371.976-.375 1.392-.026l.071.066 1.818 1.813zm-4.745-4.735c.415.414.435 1.068.04 1.46-.37.371-.976.376-1.391.026l-.072-.066-1.817-1.814c-.414-.414-.433-1.068-.04-1.46.371-.371.977-.376 1.392-.026l.072.066 1.816 1.814zm4.784-1.855c.372.371.377.975.025 1.39l-.065.072-1.816 1.812c-.416.416-1.071.433-1.464.042-.37-.371-.376-.975-.025-1.392l.066-.07 1.816-1.812c.415-.416 1.071-.433 1.463-.042z" fill="#F4D77D"/>
        <g transform="translate(103.369 72.808)">
            <mask id="oe9ty53jnn" fill="#fff">
                <use xlink:href="#no2ozubshm"/>
            </mask>
            <path fill="#F4D77D" mask="url(#oe9ty53jnn)" d="M-335.38 358.087h586.524v-1668.86h-586.523z"/>
        </g>
        <g transform="translate(103.369 72.808)">
            <mask id="fdfijrntpp" fill="#fff">
                <use xlink:href="#5z86n2yxio"/>
            </mask>
            <path fill="#F4D77D" mask="url(#fdfijrntpp)" d="M4.315-15.245 23.9 4.308 4.315 23.861-15.269 4.308z"/>
        </g>
        <path d="M52.759 16.28c.34 0 .62.236.65.537l.002.054v1.422c0 .326-.292.59-.652.59-.34 0-.62-.235-.649-.536l-.003-.054v-1.422c0-.326.293-.59.652-.59zm2.668-1.3c.326 0 .59.291.59.65 0 .34-.236.618-.536.648l-.054.002h-1.426c-.325 0-.59-.29-.59-.65 0-.34.236-.618.536-.648l.054-.003h1.426zm-3.91 0c.326 0 .59.291.59.65 0 .34-.236.618-.536.648l-.053.002H50.09c-.325 0-.589-.29-.589-.65 0-.34.236-.618.536-.648l.053-.003h1.428zm1.242-2.603c.34 0 .62.235.65.536l.002.054v1.423c0 .326-.292.59-.652.59-.34 0-.62-.236-.649-.537l-.003-.053v-1.423c0-.326.293-.59.652-.59z" fill="#F4D77D"/>
        <g transform="translate(49.5 12.377)">
            <mask id="ll8uvm6ebr" fill="#fff">
                <use xlink:href="#7b5fjng17q"/>
            </mask>
            <path fill="#F4D77D" mask="url(#ll8uvm6ebr)" d="M-355.173 354.592h586.524v-1668.86h-586.524z"/>
            <path fill="#073B4C" mask="url(#ll8uvm6ebr)" d="M-8.146 14.64h22.81V-8.134h-22.81z"/>
        </g>
        <g>
            <path d="M5.105 78.218c1.561-2.094 6.23-1.261 10.425 1.859s6.33 7.347 4.768 9.44c-1.562 2.094-6.23 1.262-10.424-1.858-4.197-3.121-6.33-7.348-4.77-9.441" fill="#F4D77D"/>
            <path d="M7.991 77.758c-1.076 0-1.897.304-2.324.878-1.164 1.559.417 5.332 4.625 8.462 1.943 1.445 4.04 2.424 5.905 2.757 1.67.298 2.96.022 3.54-.756.58-.777.474-2.09-.289-3.602-.853-1.688-2.393-3.414-4.337-4.86-2.661-1.978-5.268-2.88-7.12-2.88m9.455 13.615c-.468 0-.969-.046-1.496-.14-2.074-.37-4.38-1.44-6.495-3.013C4.88 84.817 2.722 80.24 4.543 77.8c1.82-2.439 6.83-1.685 11.406 1.717 2.115 1.573 3.8 3.473 4.75 5.351 1.027 2.032 1.084 3.832.16 5.068-.705.946-1.89 1.437-3.413 1.437" fill="#073B4C"/>
        </g>
        <g transform="translate(9.68 81.277)">
            <mask id="k8lml4flbt" fill="#fff">
                <use xlink:href="#sqv1yuc1js"/>
            </mask>
            <path fill="#073B4C" mask="url(#k8lml4flbt)" d="M5.031 8.892-3.6 2.472 1.013-3.71l8.631 6.42z"/>
        </g>
        <g transform="translate(78.577 65.087)">
            <ellipse stroke="#073B4C" stroke-width="1.986" fill="#72EFD3" cx="22.869" cy="22.844" rx="21.875" ry="21.851"/>
            <path d="M30.879 16.555a1.138 1.138 0 0 1 1.607 0c.4.402.438 1.035.077 1.497l-.078.087-10.993 10.997a1.143 1.143 0 0 1-1.519.079l-.087-.078-6.63-6.615a1.12 1.12 0 0 1-.003-1.584 1.143 1.143 0 0 1 1.52-.08l.087.077 5.827 5.812z" fill="#073B4C"/>
        </g>
    </g>
</svg>
