<svg width="32" height="32" viewBox="0 0 32 32" xmlns="http://www.w3.org/2000/svg">
    <path d="M26.164 4c.077 0 .153.035.19.035h.039l.115.035c0 .035.038.035.038.035l.114.07c0 .034.038.034.038.034l.114.105 5.073 7.326v.034c.039.035.076.07.076.105v.035a.29.29 0 0 1 .039.175v.209c0 .07 0 .104-.039.14v.035a.43.43 0 0 1-.076.102L16.63 27.79l-.153.14h-.037c-.039 0-.039.035-.076.035 0 .023-.018.031-.029.034h-.62c0-.022-.017-.03-.028-.033-.048 0-.048-.036-.086-.036h-.077l-.114-.104L.153 12.546l-.114-.139v-.034c0-.07-.039-.106-.039-.14v-.21c0-.069 0-.105.039-.175v-.034l.076-.105v-.035L5.188 4.35l.114-.105.01-.024.028-.01.076-.055a.19.19 0 0 0 .039-.05c0-.024.016-.031.027-.034l.125-.036h.038A.324.324 0 0 1 5.77 4L26.164 4zm-6.8 8.756h-6.689a.508.508 0 0 0-.476.67l3.344 10.071a.5.5 0 0 0 .952 0l3.344-10.07a.507.507 0 0 0-.475-.671zm-9.35 0H3.702c-.448 0-.672.55-.353.87l9.453 9.454c.375.376.997-.016.828-.524l-3.14-9.454a.503.503 0 0 0-.476-.346zm18.322 0h-6.312a.503.503 0 0 0-.475.346l-3.141 9.454c-.169.508.453.9.829.524l9.452-9.454c.32-.32.096-.87-.353-.87zM5.425 6.616 2.69 10.56c-.234.337.004.8.41.8H8.57a.509.509 0 0 0 .412-.8L6.246 6.616a.499.499 0 0 0-.821 0zm20.367.03-2.73 3.913a.51.51 0 0 0 .41.802h5.46a.509.509 0 0 0 .41-.802l-2.73-3.914a.498.498 0 0 0-.82 0zM15.61 6.613l-3.267 4.711h6.408a.508.508 0 0 0 .41-.8l-2.73-3.912a.498.498 0 0 0-.82.001zM13.676 5.43h-5.46a.508.508 0 0 0-.41.801l2.73 3.914c.2.287.62.287.82 0l2.73-3.914a.508.508 0 0 0-.41-.801zm10.146 0h-5.46a.509.509 0 0 0-.41.801l2.73 3.914c.2.287.62.287.82 0l2.73-3.914a.509.509 0 0 0-.41-.801z" fill="#073B4C" fill-rule="evenodd"/>
</svg>
