<svg width="24" height="26" viewBox="0 0 24 26" xmlns="http://www.w3.org/2000/svg">
    <path d="M22.192 0C23.189 0 24 .754 24 1.68v9.64c0 .926-.811 1.68-1.808 1.68h-4.194v2.087c.01 1.368-.03 4.08-.427 5.915l.727-.002c.94.001 1.7.787 1.702 1.757v1.485c0 .97-.762 1.757-1.702 1.758H7.702c-.94-.001-1.7-.788-1.702-1.758v-1.485c0-.586.28-1.105.707-1.424a4.7 4.7 0 0 1-.591-1.613c-.238-1.373-.11-2.62.382-3.726l-.71-.021-.056-.01c-.875-.163-1.552-.812-1.702-1.632-.083-.46.009-.93.256-1.331H1.81C.81 13 0 12.246 0 11.32V1.68C0 .755.811 0 1.809 0h20.383zm-3.894 22.508-1.29.003c-.042.06-.088.113-.135.16a1.1 1.1 0 0 1-.784.329H8.332l-.195-.134a4.935 4.935 0 0 1-.452-.353l.017-.003a.246.246 0 0 0-.241.25v1.482c0 .138.108.25.241.25h10.596a.245.245 0 0 0 .242-.25v-1.485a.246.246 0 0 0-.242-.249zM9.343 8.462a.8.8 0 0 0-.648.574l-.027.809v5.494l-.163.197c-.876 1.069-1.19 2.394-.922 3.941.095.56.332 1.083.685 1.524l7.787.001c.258-1.078.468-3.293.45-5.912v-1.63h-1.613v1.625a1.94 1.94 0 0 1-.606 1.313c-.292.272-.831.594-1.729.572-1.003-.022-1.55-.414-1.825-.739-.49-.57-.472-1.251-.448-1.48V9.832l-.019-.771a.804.804 0 0 0-.922-.6zM22.192 1.4H1.809c-.192 0-.353.126-.353.28v9.638c0 .152.161.28.353.28H7.18v-1.79l.032-.946.011-.057a2.24 2.24 0 0 1 .904-1.375 3.498 3.498 0 0 1 5.382-3.797 3.5 3.5 0 0 1-1.73 6.355v4.862l-.01.056s-.022.248.116.402c.149.167.467.208.709.213.213.005.502-.02.66-.168a.518.518 0 0 0 .143-.28L13.396 13H12v-1.4h10.192c.19 0 .352-.127.352-.28V1.68c0-.15-.161-.28-.352-.28zM7.18 13.298h-.461l-.74.017c-.39.082-.643.434-.577.801.05.273.266.494.552.565l.776.023.45-.001v-1.405zm3.083-8.408a2.031 2.031 0 0 0-.734 2.113c.458.007.906.15 1.285.41.4.277.695.668.848 1.115l-.161.006a2.031 2.031 0 1 0-1.238-3.644z" fill="#073B4C" fill-rule="evenodd"/>
</svg>
