<svg width="31" height="21" viewBox="0 0 31 21" xmlns="http://www.w3.org/2000/svg" xmlns:xlink="http://www.w3.org/1999/xlink">
    <defs>
        <path id="kpgzvof20a" d="M0 0h7.373v4.186H0z"/>
        <path id="pmdlu83g8c" d="M0 0h7.379v4.167H0z"/>
        <path id="7y0ku9ulde" d="M0 0h30.096v20.064H0z"/>
    </defs>
    <g fill="none" fill-rule="evenodd">
        <g transform="translate(21.36 12)">
            <mask id="zcrl63ugyb" fill="#fff">
                <use xlink:href="#kpgzvof20a"/>
            </mask>
            <path d="M5.076 1.59a2.482 2.482 0 0 0-.624-.172c-.77-.107-1.462.074-2.065.548a2.414 2.414 0 0 0-.889 1.399c-.04.18-.053.37-.066.555-.013.196-.11.287-.312.262a45.42 45.42 0 0 1-.912-.126C.076 4.037-.005 3.935 0 3.798c.03-.796.271-1.525.757-2.171C1.44.72 2.361.19 3.506.038a4.047 4.047 0 0 1 2.533.475c.076.04.119.038.178-.024.122-.128.254-.247.38-.371.079-.077.167-.12.279-.082.111.037.15.125.166.232.103.707.208 1.413.313 2.12.005.038.012.076.016.114a.236.236 0 0 1-.274.26l-1.47-.203-.841-.115c-.18-.024-.284-.145-.239-.292a.365.365 0 0 1 .093-.139c.141-.142.287-.279.436-.423" fill="#073B4C" mask="url(#zcrl63ugyb)"/>
        </g>
        <g transform="translate(22.117 15.705)">
            <mask id="damnfw0m3d" fill="#fff">
                <use xlink:href="#pmdlu83g8c"/>
            </mask>
            <path d="M2.294 2.575c.386.155.76.222 1.15.203a2.609 2.609 0 0 0 1.72-.725c.414-.391.667-.867.753-1.423.018-.12.025-.244.032-.367.011-.184.134-.285.323-.259l.872.12c.167.024.243.122.234.306-.083 1.652-1.177 3.04-2.807 3.55a4.12 4.12 0 0 1-1.678.162A4.132 4.132 0 0 1 1.3 3.64c-.016-.008-.033-.016-.057-.03l-.335.326-.157.152c-.072.068-.157.095-.254.062a.226.226 0 0 1-.16-.193l-.11-.73-.213-1.45C.007 1.736 0 1.698 0 1.66c-.004-.15.118-.258.272-.238.336.044.67.092 1.006.138.427.06.854.117 1.28.178a.467.467 0 0 1 .172.052c.13.078.139.242.023.358-.125.126-.254.247-.382.37-.019.018-.042.03-.077.056" fill="#073B4C" mask="url(#damnfw0m3d)"/>
        </g>
        <g>
            <mask id="yjlcidbaqf" fill="#fff">
                <use xlink:href="#7y0ku9ulde"/>
            </mask>
            <path d="m1.881 5.016.007-.206a3.135 3.135 0 0 1 3.128-2.93H25.08l.206.008a3.135 3.135 0 0 1 2.93 3.128v.94H1.88v-.94zm17.335 13.167h-14.2l-.206-.007a3.135 3.135 0 0 1-2.929-3.128v-7.21h26.334v3.178h1.881v-6A5.016 5.016 0 0 0 25.08 0H5.016A5.016 5.016 0 0 0 0 5.016v10.032a5.016 5.016 0 0 0 5.016 5.016h14.2v-1.881z" fill="#073B4C" mask="url(#yjlcidbaqf)"/>
        </g>
    </g>
</svg>
