<svg fill="none" width="24" height="25" viewBox="0 0 24 25" xmlns="http://www.w3.org/2000/svg">
    <path d="M19.623 3.464c.057 0 .115.026.143.026h.029l.086.026c0 .026.028.026.028.026l.086.052c0 .027.029.027.029.027l.085.078 3.805 5.495v.025c.029.027.057.053.057.08v.025c.029.053.029.079.029.131v.157c0 .052 0 .079-.029.105v.026a.323.323 0 0 1-.057.077L12.472 21.307l-.115.104h-.028c-.029 0-.029.027-.057.027 0 .017-.013.023-.022.025h-.464c0-.017-.013-.023-.022-.024-.036-.001-.036-.028-.064-.028h-.057l-.086-.078L.115 9.873.029 9.77v-.026c0-.052-.029-.079-.029-.105v-.157c0-.052 0-.078.029-.131v-.026l.057-.078v-.027l3.805-5.494.085-.078.008-.019.021-.007.057-.041c.01-.009.02-.02.029-.038 0-.017.012-.023.02-.025l.094-.027h.029a.243.243 0 0 1 .093-.025l15.296-.001zm-5.1 6.567H9.506a.38.38 0 0 0-.357.502l2.508 7.554a.375.375 0 0 0 .714 0l2.508-7.554a.38.38 0 0 0-.356-.502zm-7.013 0H2.777c-.337 0-.505.413-.265.652l7.09 7.09c.281.282.747-.012.62-.392l-2.355-7.09a.377.377 0 0 0-.357-.26zm13.742 0h-4.734a.377.377 0 0 0-.357.26l-2.355 7.09c-.126.38.34.674.621.393l7.09-7.091c.24-.24.072-.652-.265-.652zM4.07 5.425 2.018 8.384c-.175.252.003.6.308.6h4.101a.382.382 0 0 0 .308-.6l-2.05-2.958a.374.374 0 0 0-.616 0zm15.275.023-2.048 2.935a.382.382 0 0 0 .308.601h4.095a.382.382 0 0 0 .308-.601L19.96 5.448a.374.374 0 0 0-.616 0zm-7.637-.024-2.45 3.534h4.805a.381.381 0 0 0 .308-.6l-2.047-2.935a.374.374 0 0 0-.616.001zm-1.45-.888H6.162a.381.381 0 0 0-.307.601l2.047 2.936c.15.214.466.214.616 0l2.047-2.936a.381.381 0 0 0-.308-.6zm7.61 0H13.77a.382.382 0 0 0-.308.601l2.048 2.936c.15.214.466.214.616 0l2.047-2.936a.382.382 0 0 0-.307-.6z" fill="currentColor"/>
</svg>
