<svg width="130" height="130" viewBox="0 0 130 130" xmlns="http://www.w3.org/2000/svg">
    <g fill="none" fill-rule="evenodd">
        <g fill-rule="nonzero">
            <path d="M98.599 20.14H31.085a8.656 8.656 0 0 0-8.647 8.281l-.008.375V96.31a8.656 8.656 0 0 0 8.28 8.647l.375.008H98.6a8.656 8.656 0 0 0 8.647-8.28l.008-.375V28.796a8.656 8.656 0 0 0-8.28-8.647l-.375-.008z" fill="#E9F4FC"/>
            <path d="M31.152 29.512H52.79c.597 0 1.082.485 1.082 1.082v21.639c0 .598-.485 1.082-1.082 1.082H31.15a1.082 1.082 0 0 1-1.081-1.082V30.594c0-.597.484-1.082 1.082-1.082zm0 42.113H52.79c.597 0 1.082.484 1.082 1.082v21.639c0 .597-.485 1.082-1.082 1.082H31.15a1.082 1.082 0 0 1-1.081-1.082v-21.64c0-.597.484-1.081 1.082-1.081zm45.774-42.113h21.64c.597 0 1.081.485 1.081 1.082v21.639c0 .598-.484 1.082-1.082 1.082H76.926a1.082 1.082 0 0 1-1.082-1.082V30.594c0-.597.485-1.082 1.082-1.082zm0 42.113h21.64c.597 0 1.081.484 1.081 1.082v21.639c0 .597-.484 1.082-1.082 1.082H76.926a1.082 1.082 0 0 1-1.082-1.082v-21.64c0-.597.485-1.081 1.082-1.081z" fill="#FFD166"/>
            <path d="M50.993 27.065a6.059 6.059 0 0 1 6.059 6.06v17.31a6.059 6.059 0 0 1-6.059 6.06H33.682a6.059 6.059 0 0 1-6.06-6.06v-17.31a6.059 6.059 0 0 1 6.06-6.06zm1.265 3.662H32.284a.999.999 0 0 0-1 .999V51.7c0 .552.448 1 1 1h19.974a.999.999 0 0 0 .999-1V31.726a.999.999 0 0 0-.999-.999zm-7.324 6.725c.956 0 1.731.775 1.731 1.731v5.193c0 .957-.775 1.732-1.73 1.732H39.74a1.731 1.731 0 0 1-1.731-1.732v-5.193c0-.956.775-1.731 1.73-1.731h5.194zm-1.731 3.462h-1.731v1.731h1.73v-1.73zm7.79 27.698a6.059 6.059 0 0 1 6.059 6.059v17.311a6.059 6.059 0 0 1-6.059 6.059H33.682a6.059 6.059 0 0 1-6.06-6.059V74.671a6.059 6.059 0 0 1 6.06-6.059zm1.265 3.662H32.284a.999.999 0 0 0-1 .999v19.974c0 .552.448.999 1 .999h19.974a.999.999 0 0 0 .999-.999V73.273a.999.999 0 0 0-.999-.999zm-7.324 6.725c.956 0 1.731.775 1.731 1.73v5.194c0 .956-.775 1.731-1.73 1.731H39.74a1.731 1.731 0 0 1-1.731-1.73V80.73c0-.956.775-1.731 1.73-1.731h5.194zm-1.731 3.462h-1.731v1.731h1.73v-1.731zm52.799-55.396a6.059 6.059 0 0 1 6.059 6.06v17.31a6.059 6.059 0 0 1-6.06 6.06h-17.31a6.059 6.059 0 0 1-6.06-6.06v-17.31a6.059 6.059 0 0 1 6.06-6.06zm1.265 3.662H77.293a.999.999 0 0 0-1 .999V51.7c0 .552.448 1 1 1h19.974a.999.999 0 0 0 .999-1V31.726a.999.999 0 0 0-.999-.999zm-7.324 6.725c.956 0 1.731.775 1.731 1.731v5.193c0 .957-.775 1.732-1.731 1.732H84.75a1.731 1.731 0 0 1-1.731-1.732v-5.193c0-.956.775-1.731 1.73-1.731h5.194zm-1.731 3.462H86.48v1.731h1.73v-1.73zm7.79 27.698a6.059 6.059 0 0 1 6.059 6.059v17.311A6.059 6.059 0 0 1 96 98.041h-17.31a6.059 6.059 0 0 1-6.06-6.059V74.671a6.059 6.059 0 0 1 6.06-6.059zm1.265 3.662H77.293a.999.999 0 0 0-1 .999v19.974c0 .552.448.999 1 .999h19.974a.999.999 0 0 0 .999-.999V73.273a.999.999 0 0 0-.999-.999zm-7.324 6.725c.956 0 1.731.775 1.731 1.73v5.194c0 .956-.775 1.731-1.731 1.731H84.75a1.731 1.731 0 0 1-1.731-1.73V80.73c0-.956.775-1.731 1.73-1.731h5.194zm-1.731 3.462H86.48v1.731h1.73v-1.731z" fill="#052C50"/>
            <path d="M64.39 25.933c.953 0 1.734.747 1.803 1.695l.005.136V61.18h32.998c.998 0 1.808.82 1.808 1.832 0 .965-.738 1.756-1.673 1.826l-.135.005H66.197v33.415a1.82 1.82 0 0 1-1.807 1.831 1.818 1.818 0 0 1-1.803-1.694l-.005-.137V64.841H39.527a1.82 1.82 0 0 1-1.808-1.83c0-.965.738-1.756 1.674-1.826l.134-.005h23.053V27.763a1.82 1.82 0 0 1 1.809-1.83zM30.488 64.842a1.82 1.82 0 0 0 1.808-1.831 1.82 1.82 0 0 0-1.808-1.831 1.82 1.82 0 0 0-1.808 1.83 1.82 1.82 0 0 0 1.808 1.832z" fill="#052C50"/>
            <path d="m99.103 17.13-.44-.01H31.085c-6.26 0-11.4 4.937-11.666 11.172l-.01.44V96.31c0 6.26 4.936 11.4 11.172 11.666l.44.01h67.578c6.26 0 11.4-4.936 11.666-11.172l.01-.44V28.796c0-6.26-4.937-11.4-11.172-11.666zm-.504 3.01.375.009a8.656 8.656 0 0 1 8.277 8.399l.003.248V96.31l-.008.375a8.656 8.656 0 0 1-8.399 8.277l-.248.003H31.085l-.375-.008a8.656 8.656 0 0 1-8.277-8.399l-.003-.248V28.796l.008-.375a8.656 8.656 0 0 1 8.399-8.277l.248-.003H98.6z" fill="#052C50"/>
        </g>
        <g transform="translate(85.599 75.986)">
            <circle stroke="#073B4C" stroke-width="2.6" fill="#C33" cx="21.972" cy="21.972" r="20.672"/>
            <path d="M30.293 12.542a.976.976 0 0 1 1.271.094l.069.076c.278.344.29.838.007 1.217l-.076.087-8.084 8.082 8.084 8.086a.976.976 0 0 1-1.284 1.463l-.095-.083-8.086-8.085-8.107 8.106-.097.081a.974.974 0 0 1-1.335-1.395l.076-.087 8.082-8.086-8.082-8.082a.976.976 0 0 1-.071-1.3l.07-.08a.982.982 0 0 1 1.294-.076l.087.076 5.083 5.082 2.996 3.004 8.11-8.106z" fill="#FFF"/>
        </g>
    </g>
</svg>
