<svg width="106" height="125" viewBox="0 0 106 125" xmlns="http://www.w3.org/2000/svg">
    <defs>
        <clipPath id="olkyxxc4ra">
            <path d="M360 0v640H0V0h360z"/>
        </clipPath>
        <clipPath id="f3yk5h46lb">
            <path d="m14.718 0 .857 3.12c.67 2.44 2.864 4.13 5.366 4.13h16.994c2.502 0 4.696-1.69 5.366-4.13L44.157 0h9.945l.18.003c2.553.096 4.594 2.222 4.594 4.83v110.359l-.003.18c-.094 2.586-2.194 4.653-4.77 4.653H4.772l-.178-.003C2.04 119.926 0 117.8 0 115.192V4.833l.003-.18C.097 2.066 2.197 0 4.773 0h9.945z"/>
        </clipPath>
        <clipPath id="jlfeelcbmc">
            <path d="M56.653 0c3.966 0 7.181 3.25 7.181 7.258v110.484c0 4.008-3.215 7.258-7.181 7.258H7.18C3.215 125 0 121.75 0 117.742V7.258C0 3.25 3.215 0 7.181 0h49.472zM17.155 2.42H7.18c-2.584 0-4.69 2.068-4.784 4.657l-.003.181v110.484c0 2.612 2.047 4.74 4.608 4.835l.18.004h49.47c2.585 0 4.69-2.07 4.785-4.658l.003-.181V7.258c0-2.612-2.047-4.74-4.608-4.835l-.18-.004H46.68l-.859 3.124c-.671 2.443-2.873 4.134-5.382 4.134H23.396c-2.51 0-4.71-1.69-5.382-4.134l-.86-3.124zm23.938 112.096c.661 0 1.197.542 1.197 1.21 0 .629-.475 1.145-1.082 1.204l-.115.005H22.741a1.203 1.203 0 0 1-1.197-1.21c0-.628.475-1.145 1.082-1.203l.115-.006h18.352zM44.194 2.42H19.639l.681 2.477a3.2 3.2 0 0 0 2.911 2.358l.165.004h17.042a3.195 3.195 0 0 0 3.028-2.203l.048-.16.68-2.476z"/>
        </clipPath>
        <clipPath id="0jgnfdeafd">
            <path d="m25.41 0-.704 2.546-.05.164a3.304 3.304 0 0 1-3.133 2.265H3.887l-.17-.004A3.306 3.306 0 0 1 .705 2.546L0 0h25.41z"/>
        </clipPath>
        <clipPath id="bb3w1ty1ge">
            <path d="M1.372 0c.529.076.981.454 1.132.908.151.53-.075 1.059-.453 1.361a1.273 1.273 0 0 1-.754.227c-.227 0-.529-.076-.755-.227-.453-.302-.68-.983-.453-1.513C.315.303.769 0 1.297 0h.075zM17.63 0c.529.076.981.454 1.132.908.151.53-.075 1.059-.452 1.361a1.273 1.273 0 0 1-.755.227c-.227 0-.529-.076-.755-.227-.453-.302-.68-.983-.453-1.513.226-.453.68-.756 1.208-.756h.075z"/>
        </clipPath>
        <clipPath id="qg5pdu272f">
            <path d="M3.916 0a3.917 3.917 0 0 1 3.916 3.919 3.92 3.92 0 0 1-3.916 3.918A3.917 3.917 0 0 1 0 3.92 3.917 3.917 0 0 1 3.916 0z"/>
        </clipPath>
        <clipPath id="4a2q7f1jig">
            <path d="m33.02 0 .162.003a3.752 3.752 0 0 1 3.59 3.75v29.266l-.004.163a3.752 3.752 0 0 1-3.749 3.59H3.752l-.163-.004A3.752 3.752 0 0 1 0 33.019V3.752l.003-.163A3.752 3.752 0 0 1 3.753 0h29.266z"/>
        </clipPath>
        <clipPath id="efvmvidlah">
            <path d="M9.825 17.798c.258 0 .467.204.467.457V27.4c0 .252-.209.457-.467.457H.468A.463.463 0 0 1 0 27.4v-9.145c0-.253.21-.457.468-.457h9.357zm19.793 0c.258 0 .468.204.468.457V27.4c0 .252-.21.457-.468.457H20.26a.463.463 0 0 1-.468-.457v-9.145c0-.253.21-.457.468-.457h9.357zM9.825 0c.258 0 .467.205.467.457v9.145c0 .253-.209.458-.467.458H.468A.463.463 0 0 1 0 9.602V.457C0 .205.21 0 .468 0h9.357zm19.793 0c.258 0 .468.205.468.457v9.145c0 .253-.21.458-.468.458H20.26a.463.463 0 0 1-.468-.458V.457c0-.252.21-.457.468-.457h9.357z"/>
        </clipPath>
        <clipPath id="9aszu9j82i">
            <path d="M10.145 17.611c1.453 0 2.63 1.15 2.63 2.568v7.338c0 1.419-1.177 2.569-2.63 2.569H2.63c-1.452 0-2.63-1.15-2.63-2.569V20.18c0-1.418 1.178-2.568 2.63-2.568h7.515zm19.54 0c1.452 0 2.63 1.15 2.63 2.568v7.338c0 1.419-1.178 2.569-2.63 2.569h-7.516c-1.453 0-2.63-1.15-2.63-2.569V20.18c0-1.418 1.177-2.568 2.63-2.568h7.515zm-18.99 1.552H2.022c-.24 0-.433.19-.433.424v8.467c0 .233.194.423.433.423h8.671c.24 0 .434-.19.434-.423v-8.467a.429.429 0 0 0-.434-.424zm19.538 0h-8.67c-.24 0-.434.19-.434.424v8.467c0 .233.194.423.433.423h8.671c.24 0 .434-.19.434-.423v-8.467a.429.429 0 0 0-.434-.424zm-22.718 2.85c.415 0 .751.33.751.735v2.201a.743.743 0 0 1-.751.734H5.26a.743.743 0 0 1-.751-.734v-2.201c0-.406.336-.734.751-.734h2.255zm19.539 0c.415 0 .751.33.751.735v2.201a.743.743 0 0 1-.751.734h-2.255a.743.743 0 0 1-.751-.734v-2.201c0-.406.336-.734.751-.734h2.255zm-20.29 1.469h-.752v.733h.751v-.733zm19.538 0h-.751v.733h.751v-.733zM10.145 0c1.453 0 2.63 1.15 2.63 2.568v7.338c0 1.419-1.177 2.569-2.63 2.569H2.63c-1.452 0-2.63-1.15-2.63-2.569V2.568C0 1.15 1.178 0 2.63 0h7.515zm19.54 0c1.452 0 2.63 1.15 2.63 2.568v7.338c0 1.419-1.178 2.569-2.63 2.569h-7.516c-1.453 0-2.63-1.15-2.63-2.569V2.568C19.539 1.15 20.716 0 22.169 0h7.515zm-18.99 1.552H2.022c-.24 0-.433.19-.433.424v8.467c0 .233.194.423.433.423h8.671c.24 0 .434-.19.434-.423V1.976a.429.429 0 0 0-.434-.424zm19.538 0h-8.67c-.24 0-.434.19-.434.424v8.467c0 .233.194.423.433.423h8.671c.24 0 .434-.19.434-.423V1.976a.429.429 0 0 0-.434-.424zM7.515 4.402c.415 0 .751.33.751.735v2.201a.743.743 0 0 1-.751.734H5.26a.743.743 0 0 1-.751-.734V5.137c0-.406.336-.734.751-.734h2.255zm19.539 0c.415 0 .751.33.751.735v2.201a.743.743 0 0 1-.751.734h-2.255a.743.743 0 0 1-.751-.734V5.137c0-.406.336-.734.751-.734h2.255zM6.764 5.87h-.752v.734h.751V5.87zm19.538 0h-.751v.734h.751V5.87z"/>
        </clipPath>
        <clipPath id="o4kwxvsc2j">
            <path d="M15.405 0c.411 0 .748.325.778.738l.002.06v14.561H30.42c.43 0 .78.357.78.798a.79.79 0 0 1-.722.796l-.058.002H16.185v14.561a.79.79 0 0 1-.78.798.788.788 0 0 1-.778-.738l-.002-.06V16.955H4.68a.79.79 0 0 1-.78-.798.79.79 0 0 1 .722-.796l.058-.002h9.945V.798c0-.44.35-.798.78-.798zM.78 15.36c.43 0 .78.356.78.797a.79.79 0 0 1-.78.798.79.79 0 0 1-.78-.798c0-.44.35-.798.78-.798z"/>
        </clipPath>
        <clipPath id="h0sbn2kt4k">
            <path d="m34.016 0 .189.005A5.012 5.012 0 0 1 39 5.012v29.004l-.005.189A5.012 5.012 0 0 1 33.988 39H4.984l-.189-.005A5.012 5.012 0 0 1 0 33.988V4.984l.005-.189A5.012 5.012 0 0 1 5.012 0h29.004zm-.028 1.297H5.012l-.107.001A3.715 3.715 0 0 0 1.3 4.85l-.003.162v28.976l.001.107A3.715 3.715 0 0 0 4.85 37.7l.162.003h28.976l.107-.001A3.715 3.715 0 0 0 37.7 34.15l.003-.162V5.012l-.001-.107A3.715 3.715 0 0 0 34.15 1.3l-.162-.003z"/>
        </clipPath>
        <clipPath id="nlylwk4sxl">
            <path d="M25 0c13.807 0 25 11.193 25 25S38.807 50 25 50 0 38.807 0 25 11.193 0 25 0z"/>
        </clipPath>
        <clipPath id="kug1076qem">
            <path d="M21.383.364c.438.44.479 1.132.084 1.639l-.085.095L9.364 14.132a1.249 1.249 0 0 1-1.66.086l-.095-.085L.361 6.894a1.226 1.226 0 0 1-.003-1.733 1.249 1.249 0 0 1 1.661-.088l.096.085 6.37 6.36L19.626.363a1.243 1.243 0 0 1 1.757.001z"/>
        </clipPath>
    </defs>
    <g clip-path="url(#olkyxxc4ra)" transform="translate(-127 -62)">
        <g clip-path="url(#f3yk5h46lb)" transform="translate(141.622 64.488)">
            <path fill="#FFF" d="M0 0h58.876v120.025H0V0z"/>
        </g>
        <g clip-path="url(#jlfeelcbmc)" transform="translate(139.143 62)">
            <path fill="#052B50" d="M0 0h63.834v125H0V0z"/>
        </g>
        <g clip-path="url(#0jgnfdeafd)" transform="translate(158.355 64.488)">
            <path fill="#FFD166" d="M0 0h25.41v4.975H0V0z"/>
        </g>
        <g clip-path="url(#bb3w1ty1ge)" transform="translate(162.381 90.298)">
            <path fill="#063B4C" d="M0 0h18.809v2.496H0V0z"/>
        </g>
        <path d="M130.79 80.135a.217.217 0 0 1-.216-.217v-1.381a.217.217 0 0 1 .434 0v1.381c0 .12-.097.217-.217.217zM130.79 83.89a.217.217 0 0 1-.216-.217V82.29a.217.217 0 0 1 .434 0v1.382c0 .12-.097.216-.217.216zM133.364 81.33h-1.384a.217.217 0 1 1 0-.433h1.384a.217.217 0 1 1 0 .433zM129.602 81.33h-1.385a.217.217 0 1 1 0-.433h1.385a.217.217 0 1 1 0 .433z" stroke="#063B4C" stroke-width="1.139" fill="none" stroke-miterlimit="10"/>
        <g>
            <g clip-path="url(#qg5pdu272f)" transform="translate(207.895 62)">
                <path d="M3.916 7.837A3.917 3.917 0 0 1 0 3.92a3.917 3.917 0 1 1 7.832 0 3.92 3.92 0 0 1-3.916 3.918z" stroke="#063B4C" stroke-width="4.164" fill="none" stroke-miterlimit="5"/>
            </g>
        </g>
        <g>
            <path d="M229.21 102.176a.217.217 0 0 1-.218-.217v-1.381a.217.217 0 0 1 .434 0v1.381c0 .12-.097.217-.217.217zM229.21 105.93a.217.217 0 0 1-.218-.216v-1.382a.217.217 0 0 1 .434 0v1.382c0 .12-.097.216-.217.216zM231.783 103.37h-1.384a.217.217 0 1 1 0-.432h1.384a.217.217 0 1 1 0 .433zM228.02 103.37h-1.384a.217.217 0 1 1 0-.432h1.384a.217.217 0 1 1 0 .433z" stroke="#063B4C" stroke-width="1.139" fill="none" stroke-miterlimit="10"/>
        </g>
        <g>
            <path d="M162.667 100.557c3.442 2.209 6.857 3.24 10.244 3.096 3.387-.144 6.575-1.176 9.565-3.096" stroke="#063B4C" stroke-width="1.18" fill="none" stroke-linecap="round" stroke-miterlimit="10"/>
        </g>
        <g>
            <g clip-path="url(#4a2q7f1jig)" transform="translate(154.114 120.114)">
                <path fill="#E9F4FC" d="M0 0h36.771v36.771H0V0z"/>
            </g>
            <g clip-path="url(#efvmvidlah)" transform="translate(157.457 124.571)">
                <path fill="#FFD166" d="M0 0h30.086v27.857H0V0z"/>
            </g>
            <g clip-path="url(#9aszu9j82i)" transform="translate(156.343 123.457)">
                <path fill="#052B50" d="M0 0h32.314v30.086H0V0z"/>
            </g>
            <g clip-path="url(#o4kwxvsc2j)" transform="translate(156.343 122.343)">
                <path fill="#052B50" d="M0 0h31.2v32.314H0V0z"/>
            </g>
            <g clip-path="url(#h0sbn2kt4k)" transform="translate(153 119)">
                <path fill="#052B50" d="M0 0h39v39H0V0z"/>
            </g>
        </g>
        <g>
            <g clip-path="url(#nlylwk4sxl)" transform="translate(180 100)">
                <path fill="#71EFD3" d="M0 0h50v50H0V0z"/>
                <path d="M25 50c13.807 0 25-11.193 25-25S38.807 0 25 0 0 11.193 0 25s11.193 25 25 25z" stroke="#063B4C" stroke-width="3.973" fill="none" stroke-miterlimit="5"/>
            </g>
            <g clip-path="url(#kug1076qem)" transform="translate(194.13 117.754)">
                <path fill="#063B4C" d="M0 0h21.74v14.493H0V0z"/>
            </g>
        </g>
    </g>
</svg>
