<svg width="89" height="129" viewBox="0 0 89 129" xmlns="http://www.w3.org/2000/svg">
    <g fill="none" fill-rule="evenodd">
        <g fill-rule="nonzero">
            <path d="M58.501 2.567H48.218l-.885 3.22c-.692 2.52-2.961 4.262-5.548 4.262h-17.57c-2.587 0-4.856-1.743-5.548-4.262l-.886-3.22H7.499c-2.664 0-4.835 2.133-4.932 4.801l-.004.187v113.89c0 2.692 2.11 4.886 4.75 4.984l.186.004H58.5c2.664 0 4.835-2.133 4.932-4.801l.004-.187V7.555c0-2.692-2.11-4.886-4.75-4.984l-.186-.004z" fill="#FFF"/>
            <path d="M7.425 0h51.15C62.675 0 66 3.354 66 7.49v114.02c0 4.136-3.324 7.49-7.425 7.49H7.425C3.325 129 0 125.646 0 121.51V7.49C0 3.354 3.324 0 7.425 0zm51.15 2.497H48.262l-.887 3.224c-.694 2.521-2.97 4.266-5.564 4.266H24.189c-2.594 0-4.87-1.745-5.564-4.266l-.888-3.224H7.425c-2.672 0-4.849 2.135-4.947 4.806l-.003.187v114.02c0 2.695 2.117 4.891 4.764 4.99l.186.003h51.15c2.672 0 4.849-2.135 4.947-4.806l.003-.187V7.49c0-2.695-2.117-4.891-4.764-4.99l-.186-.003zM42.487 118.18c.684 0 1.238.559 1.238 1.248 0 .649-.49 1.182-1.118 1.243l-.12.005H23.512a1.243 1.243 0 0 1-1.237-1.248c0-.649.49-1.182 1.118-1.243l.12-.005h18.974zM45.694 2.497H20.306l.704 2.555a3.306 3.306 0 0 0 3.01 2.434l.17.004h17.62a3.303 3.303 0 0 0 3.13-2.273l.05-.165.703-2.555z" fill="#052C50"/>
            <path d="M46.136 2.567H19.864l.729 2.628a3.417 3.417 0 0 0 3.114 2.502l.176.004h18.235a3.416 3.416 0 0 0 3.239-2.337l.051-.17.728-2.627z" fill="#FFD166"/>
            <path d="M49.13 66.665H16.87a4.139 4.139 0 0 0-4.132 3.962l-.004.18v32.311a4.14 4.14 0 0 0 3.956 4.139l.18.004h32.26a4.139 4.139 0 0 0 4.132-3.963l.004-.18v-32.31a4.14 4.14 0 0 0-3.956-4.14l-.18-.003z" fill="#E9F4FC"/>
            <path d="M18.11 72.464h8.273c.228 0 .413.186.413.414v8.285a.414.414 0 0 1-.413.414H18.11a.414.414 0 0 1-.414-.414v-8.285c0-.228.185-.414.414-.414zm0 19.884h8.273c.228 0 .413.185.413.414v8.285a.414.414 0 0 1-.413.414H18.11a.414.414 0 0 1-.414-.414v-8.285c0-.229.185-.414.414-.414zm21.507-19.884h8.272c.229 0 .414.186.414.414v8.285a.414.414 0 0 1-.414.414h-8.272a.414.414 0 0 1-.413-.414v-8.285c0-.228.185-.414.413-.414zm0 19.884h8.272c.229 0 .414.185.414.414v8.285a.414.414 0 0 1-.414.414h-8.272a.414.414 0 0 1-.413-.414v-8.285c0-.229.185-.414.413-.414z" fill="#FFD166"/>
            <path d="M49.13 64.18c3.655 0 6.618 2.967 6.618 6.627v32.311c0 3.66-2.963 6.628-6.618 6.628H16.87c-3.655 0-6.618-2.967-6.618-6.628v-32.31c0-3.661 2.963-6.629 6.618-6.629h32.26zm0 2.485H16.87a4.139 4.139 0 0 0-4.132 3.962l-.004.18v32.311a4.14 4.14 0 0 0 3.956 4.139l.18.004h32.26a4.139 4.139 0 0 0 4.132-3.963l.004-.18v-32.31a4.14 4.14 0 0 0-3.956-4.14l-.18-.003zM26.383 89.862a2.897 2.897 0 0 1 2.895 2.9v8.285c0 1.602-1.297 2.9-2.895 2.9H18.11a2.897 2.897 0 0 1-2.895-2.9v-8.285c0-1.601 1.296-2.9 2.895-2.9h8.272zm21.506 0a2.897 2.897 0 0 1 2.895 2.9v8.285c0 1.602-1.296 2.9-2.895 2.9h-8.272a2.897 2.897 0 0 1-2.895-2.9v-8.285c0-1.601 1.297-2.9 2.895-2.9h8.272zM33 69.98c.645 0 1.175.492 1.235 1.123l.006.12V85.72h14.476a1.242 1.242 0 0 1 .119 2.48l-.12.005H34.242v14.5a1.242 1.242 0 0 1-2.476.119l-.006-.12v-14.5l-10.34.001a1.242 1.242 0 0 1-.12-2.48l.12-.005h10.34V71.22c0-.686.556-1.242 1.241-1.242zm-6.617 22.369H18.11a.414.414 0 0 0-.414.414v8.285c0 .229.185.414.414.414h8.272a.414.414 0 0 0 .413-.414v-8.285a.414.414 0 0 0-.413-.414zm21.506 0h-8.272a.414.414 0 0 0-.413.414v8.285c0 .229.185.414.413.414h8.272a.414.414 0 0 0 .414-.414v-8.285a.414.414 0 0 0-.414-.414zm-24.402 2.485c.457 0 .828.371.828.829v2.485c0 .458-.37.829-.828.829h-2.481a.828.828 0 0 1-.827-.829v-2.485c0-.458.37-.829.827-.829h2.481zm21.507 0c.457 0 .827.371.827.829v2.485c0 .458-.37.829-.827.829h-2.481a.828.828 0 0 1-.828-.829v-2.485c0-.458.37-.829.828-.829h2.481zM22.66 96.49h-.827v.829h.827v-.829zm21.507 0h-.827v.829h.827v-.829zm-27.71-10.77a1.242 1.242 0 1 1-.003 2.483 1.242 1.242 0 0 1 .002-2.483zm9.926-15.741a2.897 2.897 0 0 1 2.895 2.9v8.284c0 1.602-1.297 2.9-2.895 2.9H18.11a2.897 2.897 0 0 1-2.895-2.9v-8.285c0-1.601 1.296-2.9 2.895-2.9h8.272zm21.506 0a2.897 2.897 0 0 1 2.895 2.9v8.284c0 1.602-1.296 2.9-2.895 2.9h-8.272a2.897 2.897 0 0 1-2.895-2.9v-8.285c0-1.601 1.297-2.9 2.895-2.9h8.272zm-21.506 2.485H18.11a.414.414 0 0 0-.414.414v8.285c0 .229.185.414.414.414h8.272a.414.414 0 0 0 .413-.414v-8.285a.414.414 0 0 0-.413-.414zm21.506 0h-8.272a.414.414 0 0 0-.413.414v8.285c0 .229.185.414.413.414h8.272a.414.414 0 0 0 .414-.414v-8.285a.414.414 0 0 0-.414-.414zM23.487 74.95c.457 0 .828.37.828.828v2.486c0 .457-.37.828-.828.828h-2.481a.828.828 0 0 1-.827-.828v-2.486c0-.458.37-.828.827-.828h2.481zm21.507 0c.457 0 .827.37.827.828v2.486c0 .457-.37.828-.827.828h-2.481a.828.828 0 0 1-.828-.828v-2.486c0-.458.37-.828.828-.828h2.481zM22.66 76.607h-.827v.828h.827v-.828zm21.507 0h-.827v.828h.827v-.828z" fill="#052C50"/>
        </g>
        <g transform="translate(43.067 39.067)">
            <ellipse stroke="#073B4C" stroke-width="1.986" fill="#FFD166" cx="22.869" cy="22.844" rx="21.875" ry="21.851"/>
            <path d="m25.228 14.331.09.168 7.284 14.02c.12.317.188.656.206 1.007.077 1.643-1.028 3.052-2.531 3.235l-.175.015H15.689l-.031-.003-.083.002a2.639 2.639 0 0 1-.69-.137l-.223-.086c-1.386-.62-2.08-2.316-1.568-3.941l.064-.188 7.237-13.914c.257-.51.64-.93 1.1-1.209 1.31-.796 2.944-.327 3.733 1.031zm-3.01.405a1.358 1.358 0 0 0-.44.433l-.081.143-7.2 13.827c-.274.743.052 1.59.726 1.893.092.04.187.07.286.087l.15.018h14.404c.73-.042 1.291-.725 1.254-1.523a2.288 2.288 0 0 0-.031-.27l-.022-.107-7.247-13.935c-.354-.702-1.158-.956-1.8-.566zm.641 12.373c.412 0 .747.332.747.747v.01a.75.75 0 0 1-.747.753.75.75 0 0 1-.746-.752c0-.415.334-.758.746-.758zm-.01-7.576c.378 0 .69.356.74.817l.006.128v3.904c0 .522-.334.945-.746.945-.378 0-.69-.355-.74-.816l-.006-.129v-3.904c0-.522.334-.945.746-.945z" fill="#073B4C"/>
        </g>
        <path d="M42.843 44.365c-.26.45-.802.624-1.247.298-4.936-3.61-11.288-3.557-16.22.17a.946.946 0 0 1-.66.159.786.786 0 0 1-.578-.423c-.18-.345-.184-.776-.011-1.077.058-.1.144-.25.246-.318 5.5-4.167 12.618-4.23 18.132-.196.518.307.627.886.338 1.387zM25.379 32c-.241 0-.562-.09-.803-.273-.482-.363-.722-1.182-.482-1.818.241-.545.723-.909 1.285-.909h.08c.562.09 1.043.545 1.204 1.09.16.637-.08 1.274-.482 1.637-.24.182-.481.273-.802.273zm17.286 0c-.24 0-.561-.09-.802-.273-.482-.363-.723-1.182-.482-1.818.241-.545.723-.909 1.284-.909h.08c.563.09 1.044.545 1.205 1.09.16.637-.08 1.274-.482 1.637-.24.182-.481.273-.803.273z" fill="#073B4C" fill-rule="nonzero"/>
    </g>
</svg>
