<svg xmlns="http://www.w3.org/2000/svg" width="140" height="140" viewBox="0 0 140 140">
    <g fill="none" fill-rule="evenodd">
        <g>
            <g>
                <g fill-rule="nonzero">
                    <path fill="#E9F4FC" d="M85.282 3.254H12.575c-5.013 0-9.101 3.956-9.313 8.917l-.008.404v72.707c0 5.012 3.956 9.1 8.917 9.312l.404.01h72.707c5.012 0 9.1-3.957 9.312-8.918l.01-.404V12.575c0-5.013-3.957-9.101-8.918-9.313l-.404-.008z" transform="translate(-110.000000, -140.000000) translate(110.000000, 140.000000) translate(20.901408, 18.436620)"/>
                    <path fill="#FFD166" d="M35.95 58.698c.644 0 1.165.521 1.165 1.165v23.303c0 .644-.521 1.166-1.165 1.166H12.647c-.644 0-1.166-.522-1.166-1.166V59.863c0-.644.522-1.165 1.166-1.165H35.95zm49.296 0c.643 0 1.165.521 1.165 1.165v23.303c0 .644-.522 1.166-1.165 1.166H61.942c-.643 0-1.165-.522-1.165-1.166V59.863c0-.644.522-1.165 1.165-1.165h23.304zM35.95 13.346c.644 0 1.165.521 1.165 1.165v23.303c0 .644-.521 1.166-1.165 1.166H12.647c-.644 0-1.166-.522-1.166-1.166V14.511c0-.644.522-1.165 1.166-1.165H35.95zm49.296 0c.643 0 1.165.521 1.165 1.165v23.303c0 .644-.522 1.166-1.165 1.166H61.942c-.643 0-1.165-.522-1.165-1.166V14.511c0-.644.522-1.165 1.165-1.165h23.304z" transform="translate(-110.000000, -140.000000) translate(110.000000, 140.000000) translate(20.901408, 18.436620)"/>
                    <path fill="#052C50" d="M34.014 55.453c3.525 0 6.398 2.796 6.52 6.291l.005.234v18.643c0 3.525-2.796 6.398-6.29 6.52l-.235.005H15.371c-3.525 0-6.397-2.796-6.52-6.291l-.005-.234V61.978c0-3.525 2.796-6.397 6.291-6.52l.234-.005h18.643zm48.471 0c3.526 0 6.398 2.796 6.521 6.291l.004.234v18.643c0 3.525-2.795 6.398-6.29 6.52l-.235.005H63.843c-3.526 0-6.398-2.796-6.521-6.291l-.004-.234V61.978c0-3.525 2.795-6.397 6.29-6.52l.235-.005h18.642zm-47.109 3.944h-21.51c-.555 0-1.011.42-1.07.958l-.006.117v21.511c0 .555.42 1.011.958 1.07l.118.006h21.51c.555 0 1.011-.42 1.07-.958l.006-.118v-21.51c0-.595-.482-1.076-1.076-1.076zm48.472 0H62.337c-.555 0-1.011.42-1.07.958l-.006.117v21.511c0 .555.42 1.011.959 1.07l.117.006h21.51c.555 0 1.011-.42 1.07-.958l.006-.118v-21.51c0-.595-.481-1.076-1.075-1.076zm-56.359 7.242c1.03 0 1.864.835 1.864 1.864v5.593c0 1.03-.834 1.864-1.864 1.864h-5.593c-1.03 0-1.864-.834-1.864-1.864v-5.593c0-1.03.835-1.864 1.864-1.864h5.593zm48.471 0c1.03 0 1.865.835 1.865 1.864v5.593c0 1.03-.835 1.864-1.865 1.864h-5.593c-1.03 0-1.864-.834-1.864-1.864v-5.593c0-1.03.835-1.864 1.864-1.864h5.593zm-50.335 3.728H23.76v1.865h1.864v-1.865zm48.471 0h-1.864v1.865h1.864v-1.865zM34.014 10.711c3.525 0 6.398 2.795 6.52 6.29l.005.235v18.642c0 3.526-2.796 6.398-6.29 6.521l-.235.004H15.371c-3.525 0-6.397-2.795-6.52-6.29l-.005-.235V17.236c0-3.526 2.796-6.398 6.291-6.521l.234-.004h18.643zm48.471 0c3.526 0 6.398 2.795 6.521 6.29l.004.235v18.642c0 3.526-2.795 6.398-6.29 6.521l-.235.004H63.843c-3.526 0-6.398-2.795-6.521-6.29l-.004-.235V17.236c0-3.526 2.795-6.398 6.29-6.521l.235-.004h18.642zm-47.109 3.943h-21.51c-.555 0-1.011.42-1.07.959l-.006.117v21.51c0 .555.42 1.012.958 1.07l.118.006h21.51c.555 0 1.011-.42 1.07-.958l.006-.117V15.73c0-.594-.482-1.076-1.076-1.076zm48.472 0H62.337c-.555 0-1.011.42-1.07.959l-.006.117v21.51c0 .555.42 1.012.959 1.07l.117.006h21.51c.555 0 1.011-.42 1.07-.958l.006-.117V15.73c0-.594-.481-1.076-1.075-1.076zm-56.359 7.242c1.03 0 1.864.835 1.864 1.865v5.592c0 1.03-.834 1.865-1.864 1.865h-5.593c-1.03 0-1.864-.835-1.864-1.865v-5.592c0-1.03.835-1.865 1.864-1.865h5.593zm48.471 0c1.03 0 1.865.835 1.865 1.865v5.592c0 1.03-.835 1.865-1.865 1.865h-5.593c-1.03 0-1.864-.835-1.864-1.865v-5.592c0-1.03.835-1.865 1.864-1.865h5.593zm-50.335 3.729H23.76v1.864h1.864v-1.864zm48.471 0h-1.864v1.864h1.864v-1.864z" transform="translate(-110.000000, -140.000000) translate(110.000000, 140.000000) translate(20.901408, 18.436620)"/>
                    <path fill="#052C50" d="M48.442 9.492c1.026 0 1.867.804 1.941 1.824l.006.148v35.985h35.536c1.075 0 1.947.883 1.947 1.972 0 1.04-.794 1.891-1.802 1.967l-.145.005H50.389v35.986c0 1.089-.872 1.972-1.947 1.972-1.027 0-1.868-.805-1.942-1.825l-.006-.147V51.393H21.668c-1.076 0-1.947-.883-1.947-1.972 0-1.04.794-1.89 1.801-1.966l.146-.006h24.826V11.464c0-1.09.872-1.972 1.948-1.972zm-36.51 37.957c1.075 0 1.947.883 1.947 1.972 0 1.09-.872 1.972-1.947 1.972-1.076 0-1.947-.883-1.947-1.972s.871-1.972 1.947-1.972z" transform="translate(-110.000000, -140.000000) translate(110.000000, 140.000000) translate(20.901408, 18.436620)"/>
                    <path fill="#052C50" d="M85.825.012L85.35 0H12.575C5.833 0 .298 5.317.012 12.032L0 12.506v72.776c0 6.742 5.317 12.276 12.032 12.563l.474.012h72.776c6.742 0 12.276-5.317 12.563-12.032l.012-.474V12.575C97.857 5.833 92.54.298 85.825.012zm-.543 3.242l.404.008c4.872.208 8.775 4.156 8.913 9.045l.004.268v72.707l-.009.404c-.207 4.872-4.155 8.775-9.045 8.913l-.267.004H12.575l-.404-.009c-4.872-.207-8.776-4.155-8.914-9.045l-.003-.267V12.575l.008-.404c.208-4.872 4.156-8.776 9.045-8.914l.268-.003h72.707z" transform="translate(-110.000000, -140.000000) translate(110.000000, 140.000000) translate(20.901408, 18.436620)"/>
                </g>
                <g transform="translate(-110.000000, -140.000000) translate(110.000000, 140.000000) translate(92.183099, 81.830986)">
                    <circle cx="23.662" cy="23.662" r="23.662" fill="#C33"/>
                    <g fill="#FFF">
                        <path d="M7.876 6.513l.091.081L18.93 17.557 29.892 6.594l.092-.08c.38-.297.931-.27 1.281.08.38.38.38.994 0 1.373L20.303 18.93l10.962 10.962c.38.38.38.994 0 1.373-.35.35-.9.377-1.281.08l-.092-.08L18.93 20.303 7.967 31.265l-.091.08c-.381.297-.932.27-1.282-.08-.379-.38-.379-.994 0-1.373L17.557 18.93 6.594 7.967c-.379-.38-.379-.994 0-1.373.35-.35.9-.377 1.282-.08z" transform="translate(4.732394, 4.732394)"/>
                    </g>
                </g>
            </g>
        </g>
    </g>
</svg>
