<svg width="133" height="130" viewBox="0 0 133 130" xmlns="http://www.w3.org/2000/svg">
    <g fill="none" fill-rule="evenodd">
        <g fill-rule="nonzero">
            <path d="m110.09 34.979-7.747-4.248-2.013 2.036c-1.574 1.593-4.012 1.955-5.96.887l-13.237-7.258a4.895 4.895 0 0 1-2.4-5.47l.679-2.768-7.746-4.247c-2.007-1.1-4.534-.407-5.722 1.543l-.08.138-47.587 84.937a4.206 4.206 0 0 0 1.496 5.68l.138.079 38.423 21.068c2.007 1.1 4.534.406 5.722-1.543l.08-.138 47.587-84.937a4.206 4.206 0 0 0-1.496-5.68l-.138-.08z" fill="#FFF"/>
            <path d="m72.708 12.051 38.423 21.068c3.08 1.69 4.178 5.556 2.452 8.638l-47.587 84.937c-1.727 3.082-5.624 4.21-8.704 2.522L18.87 108.148c-3.08-1.69-4.178-5.557-2.452-8.638l47.587-84.937c1.727-3.082 5.624-4.211 8.704-2.522zm37.381 22.928-7.746-4.248-2.013 2.036c-1.574 1.593-4.012 1.955-5.96.887l-13.237-7.258a4.895 4.895 0 0 1-2.4-5.47l.679-2.768-7.746-4.247c-2.007-1.1-4.534-.407-5.722 1.543l-.08.138-47.587 84.937a4.206 4.206 0 0 0 1.496 5.68l.138.079 38.423 21.068c2.007 1.1 4.534.406 5.722-1.543l.08-.138 47.587-84.937a4.206 4.206 0 0 0-1.496-5.68l-.138-.08zm-60.366 79.55c.513.282.696.927.408 1.44-.27.484-.862.679-1.358.465l-.092-.044-14.254-7.816a1.051 1.051 0 0 1-.408-1.44c.27-.483.862-.678 1.358-.465l.092.045 14.254 7.816zm50.69-84.856L81.342 19.216l-.538 2.194a2.798 2.798 0 0 0 1.245 3.053l.126.073 13.237 7.258a2.86 2.86 0 0 0 3.3-.405l.106-.102 1.595-1.614z" fill="#052C50"/>
            <path d="m100.744 29.826-19.803-10.89-.516 2.21c-.28 1.196.263 2.446 1.333 3.106l.13.076 13.746 7.558c1.112.611 2.477.463 3.39-.354l.106-.101 1.614-1.605z" fill="#FFD166"/>
            <path d="M87.869 58.432 63.872 45.13c-1.655-.917-3.739-.34-4.73 1.283l-.077.133-13.499 24.352c-.93 1.679-.383 3.772 1.215 4.75l.131.077L70.91 89.027c1.654.917 3.738.34 4.729-1.283l.078-.133 13.498-24.352c.93-1.679.384-3.772-1.214-4.75l-.132-.077z" fill="#E9F4FC"/>
            <path d="m62.372 50.012 6.153 3.41c.17.095.23.311.135.484l-3.461 6.244a.354.354 0 0 1-.481.141l-6.153-3.41a.354.354 0 0 1-.135-.483l3.461-6.244a.354.354 0 0 1 .481-.142zm-8.307 14.986 6.153 3.41c.17.095.23.31.135.483l-3.461 6.244a.354.354 0 0 1-.48.142l-6.154-3.41a.354.354 0 0 1-.134-.484l3.46-6.244a.354.354 0 0 1 .481-.141zM78.37 58.88l6.153 3.41c.17.095.23.311.135.484l-3.461 6.244a.354.354 0 0 1-.481.141l-6.153-3.41a.354.354 0 0 1-.135-.483l3.461-6.244a.354.354 0 0 1 .481-.142zm-8.307 14.986 6.154 3.41c.17.095.23.31.134.483l-3.46 6.244a.354.354 0 0 1-.482.142l-6.153-3.41a.354.354 0 0 1-.134-.484l3.46-6.244a.354.354 0 0 1 .481-.141z" fill="#FFD166"/>
            <path d="M88.907 56.558c2.719 1.507 3.683 4.965 2.154 7.724L77.563 88.634c-1.53 2.759-4.973 3.773-7.692 2.266L45.874 77.6c-2.719-1.507-3.683-4.965-2.154-7.724L57.22 45.523c1.529-2.759 4.973-3.773 7.691-2.266l23.997 13.301zm-1.038 1.874L63.872 45.13c-1.655-.917-3.739-.34-4.73 1.283l-.077.133-13.499 24.352c-.93 1.679-.383 3.772 1.215 4.75l.131.077L70.91 89.027c1.654.917 3.738.34 4.729-1.283l.078-.133 13.498-24.352c.93-1.679.384-3.772-1.214-4.75l-.132-.077zm-26.612 8.103c1.142.633 1.576 2.053 1.017 3.233l-.075.146-3.461 6.244c-.642 1.16-2.056 1.615-3.22 1.066l-.145-.074-6.153-3.41c-1.142-.634-1.576-2.053-1.017-3.234l.075-.146 3.46-6.244c.643-1.158 2.057-1.614 3.222-1.065l.144.074 6.153 3.41zm15.998 8.868c1.142.633 1.576 2.053 1.017 3.233l-.075.146-3.46 6.244c-.643 1.159-2.057 1.615-3.222 1.066l-.144-.074-6.153-3.41c-1.142-.634-1.576-2.053-1.017-3.234l.075-.146 3.46-6.244c.643-1.159 2.057-1.614 3.222-1.065l.144.073 6.153 3.411zm-2.769-21.125c.48.266.668.856.45 1.356l-.046.093-6.058 10.926 10.769 5.97c.51.282.69.93.404 1.448-.27.486-.858.684-1.351.47l-.092-.046-10.768-5.97-6.056 10.929a1.063 1.063 0 0 1-1.443.425 1.061 1.061 0 0 1-.45-1.356l.047-.093 6.057-10.928-7.692-4.262c-.51-.282-.69-.93-.404-1.448.27-.487.858-.684 1.351-.47l.091.045 7.692 4.263 6.057-10.927a1.063 1.063 0 0 1 1.442-.425zm-14.268 14.13-6.153-3.41a.353.353 0 0 0-.44.082l-.04.06-3.461 6.243a.356.356 0 0 0 .076.442l.058.041 6.153 3.41a.353.353 0 0 0 .44-.081l.041-.06 3.461-6.244a.354.354 0 0 0-.135-.483zm15.999 8.868-6.154-3.41a.353.353 0 0 0-.44.082l-.04.06-3.461 6.243a.356.356 0 0 0 .076.442l.058.041 6.153 3.41a.353.353 0 0 0 .44-.081l.041-.06 3.461-6.244a.354.354 0 0 0-.134-.483zm-19.19-8.188c.34.188.46.62.269.965l-1.039 1.874a.709.709 0 0 1-.961.283l-1.846-1.023a.709.709 0 0 1-.27-.966l1.04-1.873a.709.709 0 0 1 .96-.283l1.847 1.023zm15.998 8.868c.34.188.46.62.269.965l-1.038 1.874a.709.709 0 0 1-.962.283l-1.846-1.023a.709.709 0 0 1-.269-.966l1.038-1.873a.709.709 0 0 1 .962-.283l1.846 1.023zm-17.306-7.96-.615-.341-.346.624.615.341.346-.624zm15.998 8.868-.615-.341-.346.624.615.341.346-.624zM55.604 59.32c.51.283.69.931.403 1.449a1.063 1.063 0 0 1-1.442.425c-.51-.283-.69-.931-.404-1.449a1.063 1.063 0 0 1 1.443-.425zm13.96-7.77c1.141.633 1.576 2.052 1.017 3.233l-.075.146-3.461 6.244c-.643 1.159-2.057 1.614-3.221 1.065l-.144-.073-6.154-3.411c-1.141-.633-1.576-2.053-1.017-3.233l.075-.146 3.461-6.244c.643-1.159 2.057-1.615 3.221-1.066l.144.074 6.153 3.41zm15.998 8.868c1.141.633 1.576 2.052 1.017 3.233l-.075.146-3.461 6.244c-.643 1.158-2.057 1.614-3.221 1.065l-.144-.074-6.153-3.41c-1.142-.633-1.577-2.053-1.018-3.233l.075-.146 3.461-6.244c.643-1.16 2.057-1.615 3.221-1.066l.144.074 6.154 3.41zm-17.037-6.995-6.153-3.41a.353.353 0 0 0-.44.081l-.04.06-3.462 6.244a.356.356 0 0 0 .076.442l.059.04 6.153 3.411a.353.353 0 0 0 .44-.082l.04-.06 3.462-6.243a.354.354 0 0 0-.135-.483zm15.998 8.868-6.153-3.41a.353.353 0 0 0-.44.081l-.04.06-3.462 6.244a.356.356 0 0 0 .076.442l.059.04 6.153 3.411a.353.353 0 0 0 .44-.082l.04-.06 3.462-6.243a.354.354 0 0 0-.135-.483zm-19.19-8.189c.34.189.46.621.27.966l-1.039 1.873a.709.709 0 0 1-.961.283l-1.846-1.023a.709.709 0 0 1-.27-.965l1.039-1.874a.709.709 0 0 1 .961-.283l1.846 1.023zm15.998 8.868c.34.189.46.62.27.966l-1.039 1.873a.709.709 0 0 1-.961.283l-1.846-1.023a.709.709 0 0 1-.27-.965l1.039-1.874a.709.709 0 0 1 .961-.283l1.846 1.023zm-17.305-7.96-.616-.341-.346.624.616.341.346-.624zm15.998 8.868-.616-.341-.346.624.616.341.346-.624z" fill="#052C50"/>
        </g>
        <g transform="translate(69.333 67.6)">
            <ellipse stroke="#073B4C" stroke-width="1.986" fill="#72EFD3" cx="22.869" cy="22.844" rx="21.875" ry="21.851"/>
            <path d="M30.879 16.555a1.138 1.138 0 0 1 1.607 0c.4.402.438 1.035.077 1.497l-.078.087-10.993 10.997a1.143 1.143 0 0 1-1.519.079l-.087-.078-6.63-6.615a1.12 1.12 0 0 1-.003-1.584 1.143 1.143 0 0 1 1.52-.08l.087.077 5.827 5.812z" fill="#073B4C"/>
        </g>
        <ellipse fill="#073B4C" cx="24.121" cy="7.479" rx="2.734" ry="2.731"/>
        <path d="m3.567 27.524 1.595 1.595.063.058c.366.308.896.305 1.22-.02.345-.343.327-.918-.038-1.283l-1.595-1.595-.062-.057c-.366-.31-.897-.306-1.221.019-.344.343-.328.918.038 1.283zm4.16.353-.058.063c-.306.364-.301.894.024 1.22.346.346.92.33 1.284-.033l1.59-1.59.058-.061c.306-.364.301-.895-.026-1.222-.345-.345-.92-.33-1.282.033l-1.59 1.59zm-4.152 4.151-.057.062c-.306.365-.302.896.024 1.222.346.346.92.33 1.284-.033l1.59-1.59.057-.062c.307-.364.302-.895-.025-1.221-.345-.346-.92-.33-1.283.033l-1.59 1.59zm4.16-.336 1.595 1.596.063.057c.366.308.897.306 1.221-.018.344-.344.326-.92-.038-1.285L8.98 30.447l-.063-.058c-.365-.308-.896-.305-1.221.019-.343.343-.326.92.039 1.284zM128.064 6.346 126.47 7.94l-.057.063c-.308.366-.306.897.019 1.222.344.343.918.326 1.284-.04l1.595-1.594.057-.063c.309-.366.305-.896-.02-1.22-.343-.344-.917-.328-1.283.038zm-.353 4.16-.062-.058c-.364-.306-.895-.302-1.22.024-.347.346-.331.92.032 1.283l1.59 1.59.062.058c.363.307.895.302 1.221-.025.345-.345.33-.92-.032-1.282l-1.59-1.59zm-4.15-4.152-.063-.057c-.365-.306-.895-.302-1.221.024-.346.346-.33.92.033 1.283l1.59 1.59.062.058c.363.306.894.302 1.22-.025.346-.345.331-.92-.032-1.283l-1.59-1.59zm.335 4.16-1.595 1.595-.058.063c-.308.366-.306.897.019 1.221.344.344.92.326 1.284-.039l1.596-1.595.057-.063c.309-.366.306-.897-.019-1.221-.343-.344-.919-.326-1.284.039z" fill="#073B4C"/>
        <ellipse fill="#073B4C" cx="88.029" cy="6.215" rx="4.338" ry="4.333"/>
        <path d="M45.569 17.68v2.926l.004.11c.053.62.544 1.104 1.142 1.104.633 0 1.147-.543 1.147-1.214V17.68l-.005-.11c-.053-.619-.545-1.103-1.142-1.103-.633 0-1.146.543-1.146 1.213zm3.505 4.14-.11.005c-.617.052-1.102.543-1.102 1.142 0 .633.543 1.147 1.212 1.147h2.928l.11-.005c.618-.053 1.103-.543 1.103-1.142 0-.634-.545-1.147-1.213-1.147h-2.928zm-7.647 0-.11.005c-.618.052-1.102.543-1.102 1.142 0 .633.544 1.147 1.212 1.147h2.93l.11-.005c.616-.053 1.102-.543 1.102-1.142 0-.634-.544-1.147-1.213-1.147h-2.93zm4.142 3.507v2.926l.004.11c.053.619.544 1.104 1.142 1.104.633 0 1.147-.542 1.147-1.214v-2.926l-.005-.11c-.053-.619-.545-1.103-1.142-1.103-.633 0-1.146.543-1.146 1.213z" fill="#073B4C"/>
    </g>
</svg>
