<svg width="130" height="131" viewBox="0 0 130 131" xmlns="http://www.w3.org/2000/svg">
    <g fill="none" fill-rule="evenodd">
        <g fill-rule="nonzero">
            <path d="M90.543 2.6h-10.43l-.898 3.261c-.703 2.551-3.005 4.317-5.628 4.317H55.763c-2.623 0-4.925-1.766-5.628-4.317L49.237 2.6h-10.43c-2.703 0-4.905 2.16-5.004 4.862l-.003.19v115.346c0 2.727 2.14 4.949 4.82 5.049l.187.003h51.736c2.703 0 4.905-2.16 5.004-4.862l.003-.19V7.652c0-2.727-2.14-4.949-4.82-5.048l-.187-.004z" fill="#FFF"/>
            <path d="M38.732 0h51.886c4.16 0 7.532 3.396 7.532 7.586v115.478c0 4.19-3.372 7.586-7.532 7.586H38.732c-4.16 0-7.532-3.396-7.532-7.586V7.586C31.2 3.396 34.572 0 38.732 0zm51.886 2.529h-10.46l-.901 3.265a5.865 5.865 0 0 1-5.645 4.32H55.738a5.865 5.865 0 0 1-5.645-4.32l-.901-3.265h-10.46c-2.71 0-4.919 2.162-5.018 4.868l-.003.19v115.477c0 2.73 2.147 4.954 4.833 5.054l.188.003h51.886c2.71 0 4.919-2.162 5.018-4.868l.003-.19V7.587c0-2.73-2.147-4.954-4.833-5.054l-.188-.003zM74.3 119.692a1.26 1.26 0 0 1 1.255 1.265c0 .657-.497 1.197-1.134 1.258l-.12.006H55.05a1.26 1.26 0 0 1-1.254-1.264c0-.658.497-1.198 1.134-1.259l.12-.006H74.3zM77.551 2.53H51.798l.714 2.588a3.353 3.353 0 0 0 3.053 2.465l.173.004h17.874a3.35 3.35 0 0 0 3.175-2.303l.05-.166.714-2.588z" fill="#052C50"/>
            <path d="M78 2.6H51.35l.74 2.661a3.465 3.465 0 0 0 3.158 2.534l.179.005h18.497c1.496 0 2.816-.96 3.285-2.368l.053-.17L78 2.6z" fill="#FFD166"/>
            <path d="M81.037 67.517H48.313a4.196 4.196 0 0 0-4.192 4.014l-.004.182v32.724a4.196 4.196 0 0 0 4.014 4.192l.182.004h32.724a4.196 4.196 0 0 0 4.192-4.014l.004-.182V71.713a4.196 4.196 0 0 0-4.014-4.192l-.182-.004z" fill="#E9F4FC"/>
            <path d="M49.571 73.39h8.391a.42.42 0 0 1 .42.42v8.391a.42.42 0 0 1-.42.42h-8.39a.42.42 0 0 1-.42-.42v-8.39a.42.42 0 0 1 .42-.42zm0 20.14h8.391a.42.42 0 0 1 .42.419v8.39a.42.42 0 0 1-.42.42h-8.39a.42.42 0 0 1-.42-.42v-8.39a.42.42 0 0 1 .42-.42zm21.817-20.14h8.39a.42.42 0 0 1 .42.42v8.391a.42.42 0 0 1-.42.42h-8.39a.42.42 0 0 1-.42-.42v-8.39a.42.42 0 0 1 .42-.42zm0 20.14h8.39a.42.42 0 0 1 .42.419v8.39a.42.42 0 0 1-.42.42h-8.39a.42.42 0 0 1-.42-.42v-8.39a.42.42 0 0 1 .42-.42z" fill="#FFD166"/>
            <path d="M81.037 65a6.713 6.713 0 0 1 6.713 6.713v32.724a6.713 6.713 0 0 1-6.713 6.713H48.313a6.713 6.713 0 0 1-6.713-6.713V71.713A6.713 6.713 0 0 1 48.313 65h32.724zm0 2.517H48.313a4.196 4.196 0 0 0-4.192 4.014l-.004.182v32.724a4.196 4.196 0 0 0 4.014 4.192l.182.004h32.724a4.196 4.196 0 0 0 4.192-4.014l.004-.182V71.713a4.196 4.196 0 0 0-4.014-4.192l-.182-.004zM57.962 91.012a2.937 2.937 0 0 1 2.932 2.764l.005.173v8.39a2.937 2.937 0 0 1-2.764 2.932l-.173.005h-8.39a2.937 2.937 0 0 1-2.932-2.764l-.005-.172v-8.391a2.937 2.937 0 0 1 2.764-2.932l.172-.005h8.391zm21.817 0a2.937 2.937 0 0 1 2.931 2.764l.005.173v8.39a2.937 2.937 0 0 1-2.764 2.932l-.172.005h-8.391a2.937 2.937 0 0 1-2.932-2.764l-.005-.172v-8.391a2.937 2.937 0 0 1 2.764-2.932l.173-.005h8.39zM64.675 70.874c.654 0 1.192.499 1.253 1.137l.006.121v14.684h14.684a1.259 1.259 0 0 1 .12 2.512l-.12.006-14.685-.001v14.685a1.259 1.259 0 0 1-2.51.12l-.007-.12V89.333H52.928a1.259 1.259 0 0 1-.121-2.51l.12-.007h10.49V72.132c0-.695.563-1.258 1.258-1.258zm-6.713 22.655h-8.39a.42.42 0 0 0-.413.344l-.007.076v8.39a.42.42 0 0 0 .344.413l.075.007h8.391a.42.42 0 0 0 .413-.344l.007-.075v-8.391a.42.42 0 0 0-.42-.42zm21.817 0h-8.391a.42.42 0 0 0-.413.344l-.007.076v8.39a.42.42 0 0 0 .344.413l.076.007h8.39a.42.42 0 0 0 .413-.344l.007-.075v-8.391a.42.42 0 0 0-.42-.42zm-24.754 2.517a.84.84 0 0 1 .84.84v2.517a.84.84 0 0 1-.84.839h-2.517a.84.84 0 0 1-.839-.84v-2.517a.84.84 0 0 1 .84-.839h2.516zm21.817 0a.84.84 0 0 1 .839.84v2.517a.84.84 0 0 1-.84.839h-2.516a.84.84 0 0 1-.84-.84v-2.517a.84.84 0 0 1 .84-.839h2.517zm-22.656 1.679h-.839v.839h.84v-.84zm21.817 0h-.84v.839h.84v-.84zm-28.11-10.909a1.259 1.259 0 1 1 0 2.518 1.259 1.259 0 0 1 0-2.518zm10.07-15.942a2.937 2.937 0 0 1 2.931 2.764l.005.172v8.391a2.937 2.937 0 0 1-2.764 2.932l-.173.005h-8.39a2.937 2.937 0 0 1-2.932-2.764l-.005-.173v-8.39a2.937 2.937 0 0 1 2.764-2.932l.172-.005h8.391zm21.816 0a2.937 2.937 0 0 1 2.931 2.764l.005.172v8.391a2.937 2.937 0 0 1-2.764 2.932l-.172.005h-8.391a2.937 2.937 0 0 1-2.932-2.764l-.005-.173v-8.39a2.937 2.937 0 0 1 2.764-2.932l.173-.005h8.39zM57.962 73.39h-8.39a.42.42 0 0 0-.413.344l-.007.075v8.391a.42.42 0 0 0 .344.413l.075.007h8.391a.42.42 0 0 0 .413-.344l.007-.076v-8.39a.42.42 0 0 0-.42-.42zm21.817 0h-8.391a.42.42 0 0 0-.413.344l-.007.075v8.391a.42.42 0 0 0 .344.413l.076.007h8.39a.42.42 0 0 0 .413-.344l.007-.076v-8.39a.42.42 0 0 0-.42-.42zm-24.754 2.517a.84.84 0 0 1 .84.84v2.517a.84.84 0 0 1-.84.839h-2.517a.84.84 0 0 1-.839-.84v-2.517a.84.84 0 0 1 .84-.839h2.516zm21.817 0a.84.84 0 0 1 .839.84v2.517a.84.84 0 0 1-.84.839h-2.516a.84.84 0 0 1-.84-.84v-2.517a.84.84 0 0 1 .84-.839h2.517zm-22.656 1.678h-.839v.84h.84v-.84zm21.817 0h-.84v.84h.84v-.84z" fill="#052C50"/>
        </g>
        <path d="M74.503 44.34a.87.87 0 0 1-1.218.26c-4.823-3.148-11.03-3.102-15.848.149-.2.117-.415.163-.645.137a.768.768 0 0 1-.565-.368c-.176-.302-.18-.677-.011-.939.056-.087.141-.218.24-.277 5.375-3.633 12.33-3.688 17.717-.172.506.269.613.773.33 1.21zM56.933 32.186a1.53 1.53 0 0 1-.792-.237c-.475-.316-.713-1.028-.475-1.581a1.41 1.41 0 0 1 1.267-.79h.079c.554.078 1.03.474 1.187.948.159.553-.079 1.107-.475 1.423a1.339 1.339 0 0 1-.791.237zm17.05 0a1.53 1.53 0 0 1-.791-.237c-.475-.316-.713-1.028-.475-1.581a1.41 1.41 0 0 1 1.266-.79h.08c.554.078 1.029.474 1.187.948.158.553-.08 1.107-.475 1.423a1.339 1.339 0 0 1-.792.237z" fill="#073B4C" fill-rule="nonzero"/>
        <g transform="translate(75.4 35.1)">
            <circle fill="#C33" cx="22.1" cy="22.1" r="21.45"/>
            <path d="M30.84 11.904c.411-.305.989-.265 1.355.1l.073.082c.297.367.31.894.008 1.299l-.081.092-8.623 8.621 8.623 8.625a1.04 1.04 0 0 1-1.37 1.56l-.101-.088-8.625-8.624-8.647 8.647-.104.086a1.04 1.04 0 0 1-1.343-.109c-.366-.366-.406-.944-.081-1.38l.08-.092 8.622-8.625-8.621-8.621a1.041 1.041 0 0 1-.076-1.388l.076-.084c.366-.366.943-.406 1.38-.081l.092.08 5.422 5.422 3.195 3.204 8.651-8.646z" fill="#FFF"/>
            <path d="M22.05 0C9.871 0 0 9.886 0 22.079c0 12.193 9.871 22.08 22.05 22.08s22.05-9.887 22.05-22.08C44.1 9.886 34.229 0 22.05 0zm0 1.95c11.1 0 20.1 9.012 20.1 20.129s-9 20.13-20.1 20.13c-11.1 0-20.1-9.013-20.1-20.13 0-11.117 9-20.129 20.1-20.129z" fill="#073B4C" fill-rule="nonzero"/>
        </g>
    </g>
</svg>
