<svg width="85" height="85" viewBox="0 0 85 85" xmlns="http://www.w3.org/2000/svg">
    <g fill="none" fill-rule="evenodd">
        <circle stroke="#FFF" stroke-width="3" fill="#C33" cx="42.5" cy="42.5" r="41"/>
        <path d="M53.924 30.256a1.301 1.301 0 0 1 1.695.125l.092.102c.37.458.386 1.117.01 1.623l-.102.115L44.84 42.998l10.779 10.78a1.3 1.3 0 0 1-.92 2.222c-.27 0-.537-.085-.792-.27l-.127-.111-10.781-10.78-10.81 10.808-.13.108a1.299 1.299 0 0 1-1.678-.136c-.457-.458-.508-1.18-.102-1.725l.102-.115 10.777-10.781L30.38 32.22a1.301 1.301 0 0 1-.095-1.734l.095-.106c.458-.457 1.18-.508 1.725-.101l.115.101 6.777 6.776 3.995 4.006 10.814-10.808z" fill="#FFF"/>
    </g>
</svg>
