<svg xmlns="http://www.w3.org/2000/svg" width="30" height="30" viewBox="0 0 30 30">
    <g fill="none" fill-rule="evenodd">
        <g fill="currentColor">
            <g>
                <g>
                    <path d="M9.047.006l.086.02 5.599 1.757c.353.111.48.52.276.8l-.058.068-4.136 4.06c-.274.269-.732.172-.88-.158l-.03-.087-.434-1.727C5.274 6.798 2.573 11.067 2.708 15.75c.19 6.594 5.876 11.808 12.674 11.623 3.16-.085 6.148-1.342 8.366-3.488.492-.476 1.276-.513 1.813-.085.576.46.653 1.275.201 1.827-.032.04-.068.078-.106.116-.373.36-.764.7-1.17 1.019l-.309.235c-.46.342-.94.657-1.437.944-1.513.876-3.18 1.49-4.925 1.808l-.387.066c-.648.1-1.306.161-1.97.18l-.32.005h-.16c-.117 0-.234-.002-.35-.005l-.074-.002-.2-.008-.2-.01c-.026 0-.053-.002-.08-.004l.048.002-.141-.008-.174-.013-.192-.016c-.084-.007-.167-.016-.251-.025l-.089-.01-.017-.001c-.123-.014-.246-.03-.368-.047l-.103-.015c-.113-.016-.227-.034-.34-.053l-.031-.005c-.257-.044-.511-.094-.763-.15l-.107-.024c-.378-.087-.75-.188-1.116-.302l-.082-.026c-.252-.08-.5-.166-.745-.258l-.038-.015c-.635-.24-1.25-.52-1.839-.84l-.127-.07-.061-.034.038.022-.038-.022-.048-.027-.123-.069C3.08 25.498.155 21.018.006 15.824-.161 10.019 3.246 4.735 8.51 2.275l.305-.139L8.441.65c-.093-.37.236-.699.606-.643zm6.125 8.744c.591 0 1.066.455 1.142 1.03l.01.159v.662h.942c.591 0 1.066.455 1.141 1.03l.01.16c0 .593-.425 1.097-.993 1.177l-.158.01h-3.068c-.346 0-.645.32-.645.73 0 .364.236.657.532.717l.113.012h1.604c1.634 0 2.947 1.4 2.948 3.106 0 1.484-.993 2.755-2.364 3.045l-.063.01v.714c0 .593-.425 1.097-.992 1.177l-.159.011-.158-.011c-.51-.072-.906-.487-.98-1.002l-.013-.175-.001-.664h-1.287c-.59 0-1.066-.454-1.14-1.028l-.011-.16c0-.593.426-1.097.993-1.177l.158-.011h3.069c.345 0 .644-.32.644-.73 0-.364-.236-.656-.531-.717l-.113-.011h-1.604c-1.635 0-2.948-1.401-2.948-3.106 0-1.624 1.19-2.972 2.717-3.097l.053-.002.001-.67c0-.594.426-1.098.993-1.178l.158-.011zm13.503 6.685c.032 0 .063.002.094.005h.007l.036.004c.074.009.146.023.216.043.07.02.137.044.201.074l.021.01.044.022.073.041c.05.03.097.064.142.1l.05.043.035.031c.28.267.44.65.4 1.061-.063.633-.58 1.118-1.208 1.18l-.136.007-.132-.006-.02-.002-.048-.006c-.029-.004-.058-.01-.086-.015l-.044-.01c-.028-.006-.055-.014-.082-.022l-.051-.017c-.03-.01-.059-.022-.088-.034l-.018-.009-.02-.008-.075-.039-.044-.024c-.154-.092-.287-.213-.392-.354l-.032-.045-.041-.065-.008-.013h.001c-.131-.224-.195-.488-.168-.766.062-.625.566-1.106 1.184-1.177l.135-.01h.054zm-.348-4.71l.052.004c.026.002.053.005.079.01l.054.01.072.015.05.014c.023.006.045.013.067.021l.066.025.057.025.039.019c.026.013.052.026.077.041l.031.019c.024.015.048.03.071.047.014.01.029.02.043.032.02.015.04.03.058.046l.03.027c.053.049.102.1.146.157.035.044.067.09.096.14.014.022.026.045.038.069.042.082.074.163.097.248.194.7-.235 1.418-.955 1.606-.079.02-.157.033-.235.04l-.116.004c-.048 0-.096-.002-.143-.007l-.036-.004c-.033-.005-.065-.01-.097-.017-.025-.005-.05-.01-.075-.017l-.06-.017c-.023-.007-.047-.015-.07-.024l-.058-.023c-.022-.01-.043-.019-.064-.03l-.03-.014-.031-.016-.058-.034-.062-.04-.044-.032c-.023-.017-.044-.034-.065-.052l-.049-.044-.043-.042c-.019-.02-.038-.04-.056-.062l-.036-.043-.053-.074.01.014-.04-.06-.01-.018-.007-.013c-.055-.092-.098-.194-.128-.303-.193-.7.234-1.417.956-1.605.108-.028.217-.043.325-.045h.04l.067.002zm-2.953-4.031c.303-.21.666-.282 1.007-.227l.03.005.02.004c.037.007.073.015.108.025l.05.016c.027.008.054.018.08.028l.04.017c.03.012.058.026.086.04l.046.025.06.036.068.046.031.024c.024.018.047.037.07.057.069.061.133.13.19.207.031.043.06.088.086.133.176.307.206.644.125.95l-.018.063-.01.029c-.064.189-.173.364-.323.511l-.043.04-.035.03c-.189.16-.426.271-.697.306l-.034.004-.074.006-.075.002-.142-.007c-.075-.008-.149-.022-.221-.041-.062-.017-.123-.038-.183-.063-.217-.093-.408-.24-.553-.435l-.054-.082-.022-.033c-.34-.577-.182-1.321.387-1.716zm-2.734-3.54c.095-.003.19.005.285.023l.03.006.016.004c.043.009.087.021.13.035l.034.012c.038.014.077.03.115.047l.05.026.12.07c.614.4.78 1.205.376 1.803l-.01.016c-.232.334-.595.53-.978.57l-.144.008c-.05 0-.1-.003-.147-.008l-.025-.002c-.038-.005-.077-.011-.114-.019l-.041-.009c-.034-.008-.067-.017-.1-.027l-.025-.01c-.127-.043-.243-.104-.347-.178l-.036-.028c-.028-.02-.055-.043-.081-.067l-.01-.009c-.096-.089-.179-.191-.244-.302l-.005-.01c-.236-.405-.255-.928.055-1.375.235-.337.603-.535.991-.572l.102-.004h.003zm-4.307-1.895c.703.072 1.219.635 1.219 1.304 0 .71-.592 1.31-1.352 1.31-.759 0-1.351-.6-1.351-1.31 0-.773.694-1.38 1.484-1.304zm7.831 20.709l.036.056-.037-.056-.008-.014-.007-.013h.002c-.113-.189-.176-.408-.176-.642 0-.721.601-1.297 1.324-1.31h.04c.04 0 .08.002.12.006.716.076 1.22.644 1.22 1.304 0 .378-.17.727-.444.97-.237.21-.554.341-.908.341-.048 0-.096-.002-.142-.007l-.04-.005c-.033-.004-.066-.01-.099-.016l-.043-.01c-.03-.007-.06-.015-.09-.025l-.04-.013c-.033-.011-.063-.023-.093-.036l-.031-.014c-.03-.013-.058-.028-.086-.043l-.04-.023-.065-.041-.055-.04c-.067-.05-.13-.106-.186-.167l-.04-.047-.039-.047-.037-.052-.036-.056z" transform="translate(-16 -297) translate(0 277) translate(16 20)"/>
                </g>
            </g>
        </g>
    </g>
</svg>