<svg width="30" height="30" viewBox="-18 0 105 50" xmlns="http://www.w3.org/2000/svg">
    <g transform="translate(10)" style="mix-blend-mode:darken" fill="none" fill-rule="evenodd" opacity="1">
        <rect fill="#FFF"  fill-rule="nonzero" x=".641" y=".641" width="48.718" height="48.718" rx="6.41"/>
        <path d="M42.949 0H7.05A7.051 7.051 0 0 0 0 7.051V42.95A7.051 7.051 0 0 0 7.051 50H42.95A7.051 7.051 0 0 0 50 42.949V7.05A7.051 7.051 0 0 0 42.949 0zM7.05 1.282H42.95a5.77 5.77 0 0 1 5.769 5.77v35.897a5.77 5.77 0 0 1-5.77 5.769H7.052a5.77 5.77 0 0 1-5.769-5.77V7.052a5.77 5.77 0 0 1 5.77-5.769z" fill="#073B4C" fill-rule="nonzero"/>
        <path d="m6.354 23.995-.054.013a1.006 1.006 0 0 0 .461 1.957l.054-.012a1.005 1.005 0 1 0-.46-1.958z" fill="#073B4C" fill-rule="nonzero"/>
        <rect fill="#E9F4FC" x="5.769" y="5.769" width="15.385" height="15.385" rx="5.128"/>
        <rect fill="#E9F4FC" x="28.846" y="5.769" width="15.385" height="15.385" rx="5.128"/>
        <path d="M17.308 5.77a3.846 3.846 0 0 1 3.846 3.845v1.282H19.87V9.615A2.564 2.564 0 0 0 17.5 7.058l-.191-.007H9.615a2.564 2.564 0 0 0-2.557 2.373l-.007.191v7.693a2.564 2.564 0 0 0 2.373 2.557l.191.007h7.693a2.564 2.564 0 0 0 2.557-2.373l.007-.191v-1.283h1.281v1.283a3.846 3.846 0 0 1-3.845 3.846H9.615a3.846 3.846 0 0 1-3.846-3.846V9.615A3.846 3.846 0 0 1 9.615 5.77h7.693z" fill="#073B4C" fill-rule="nonzero"/>
        <path stroke="#073B4C" stroke-width="1.282" stroke-linecap="round" d="M20.513 10.256v1.282M20.513 15.385v1.282"/>
        <path d="M40.385 5.77a3.846 3.846 0 0 1 3.846 3.845v7.693a3.846 3.846 0 0 1-3.846 3.846h-7.693a3.846 3.846 0 0 1-3.846-3.846V9.615a3.846 3.846 0 0 1 3.846-3.846h7.693zm0 1.281h-7.693a2.564 2.564 0 0 0-2.557 2.373l-.007.191v7.693a2.564 2.564 0 0 0 2.373 2.557l.191.007h7.693a2.564 2.564 0 0 0 2.557-2.373l.007-.191V9.615a2.564 2.564 0 0 0-2.373-2.557l-.191-.007z" fill="#073B4C" fill-rule="nonzero"/>
        <path fill="#FFD166" fill-rule="nonzero" d="M11.426 11.3h4.172v4.172h-4.172zM34.502 11.3h4.173v4.172h-4.173z"/>
        <rect stroke="#073B4C" stroke-width="1.282" x="11.538" y="11.538" width="3.846" height="3.846" rx="1.282"/>
        <path d="M37.82 10.897c.709 0 1.283.574 1.283 1.282v2.565c0 .708-.574 1.282-1.282 1.282h-2.565a1.282 1.282 0 0 1-1.282-1.282v-2.565c0-.708.574-1.282 1.282-1.282h2.565zm0 1.282h-2.564v2.565h2.565v-2.565z" fill="#073B4C" fill-rule="nonzero"/>
        <rect fill="#E9F4FC" x="28.846" y="28.846" width="15.385" height="15.385" rx="5.128"/>
        <path d="M40.385 28.846a3.846 3.846 0 0 1 3.846 3.846v7.693a3.846 3.846 0 0 1-3.846 3.846h-7.693a3.846 3.846 0 0 1-3.846-3.846v-7.693a3.846 3.846 0 0 1 3.846-3.846h7.693zm0 1.282h-7.693a2.564 2.564 0 0 0-2.557 2.373l-.007.191v7.693a2.564 2.564 0 0 0 2.373 2.557l.191.007h7.693a2.564 2.564 0 0 0 2.557-2.373l.007-.191v-7.693a2.564 2.564 0 0 0-2.373-2.557l-.191-.007z" fill="#073B4C" fill-rule="nonzero"/>
        <path fill="#FFD166" fill-rule="nonzero" d="M34.502 34.376h4.173v4.173h-4.173z"/>
        <path d="M37.82 33.974c.709 0 1.283.574 1.283 1.282v2.565c0 .708-.574 1.282-1.282 1.282h-2.565a1.282 1.282 0 0 1-1.282-1.282v-2.565c0-.708.574-1.282 1.282-1.282h2.565zm0 1.282h-2.564v2.565h2.565v-2.565z" fill="#073B4C" fill-rule="nonzero"/>
        <rect fill="#E9F4FC" x="5.769" y="28.846" width="15.385" height="15.385" rx="5.128"/>
        <path d="M17.308 28.846a3.846 3.846 0 0 1 3.846 3.846v7.693a3.846 3.846 0 0 1-3.846 3.846H9.615a3.846 3.846 0 0 1-3.846-3.846v-7.693a3.846 3.846 0 0 1 3.846-3.846h7.693zm0 1.282H9.615a2.564 2.564 0 0 0-2.557 2.373l-.007.191v7.693a2.564 2.564 0 0 0 2.373 2.557l.191.007h7.693a2.564 2.564 0 0 0 2.557-2.373l.007-.191v-7.693a2.564 2.564 0 0 0-2.373-2.557l-.191-.007z" fill="#073B4C" fill-rule="nonzero"/>
        <path fill="#FFD166" fill-rule="nonzero" d="M11.426 34.376h4.172v4.173h-4.172z"/>
        <path d="M14.744 33.974c.708 0 1.282.574 1.282 1.282v2.565c0 .708-.574 1.282-1.282 1.282h-2.565a1.282 1.282 0 0 1-1.282-1.282v-2.565c0-.708.574-1.282 1.282-1.282h2.565zm0 1.282h-2.565v2.565h2.565v-2.565z" fill="#073B4C" fill-rule="nonzero"/>
        <path stroke="#073B4C" stroke-width="1.282" stroke-linecap="round" d="M25 4.487v39.744M45.513 25H9.615"/>
    </g>
</svg>

