<svg xmlns="http://www.w3.org/2000/svg" width="171" height="138" viewBox="0 0 171 138">
    <g fill="none" fill-rule="evenodd">
        <g>
            <g>
                <g>
                    <g fill-rule="nonzero">
                        <path fill="#E9F4FC" d="M25.7 51.44l25.72-28.947c1.191-1.332 3.228-1.453 4.56-.262L96.99 58.683c1.332 1.19 1.453 3.228.263 4.56L71.534 92.19c-1.191 1.332-3.229 1.453-4.56.262L25.963 56c-1.332-1.19-1.453-3.228-.263-4.56z" transform="translate(-94 -166) translate(40 125) translate(54 41) rotate(3 -656.528 602.953)"/>
                        <path fill="#FFF" d="M89.527 71.916l7.727-8.694c1.17-1.332 1.049-3.369-.263-4.56l-14.524-12.91 16.643-5.325c6.414-1.917 13.374-.364 18.397 4.074l20.9 18.56c.665.585.726 1.613.14 2.28l-19.285 21.705c-4.74 5.326-12.89 5.81-18.236 1.07l-2.42-2.14-19.347-.382c-.585.04-1.19 0-1.775-.142-2.239-.504-4.055-2.158-4.76-4.357-.162-.504-.263-1.029-.303-1.553-.101-1.715.484-3.39 1.614-4.66.343-.383.726-.726 1.15-1.029.968-.666 2.118-1.07 3.288-1.13l11.054-.807z" transform="translate(-94 -166) translate(40 125) translate(54 41) rotate(3 -656.528 602.953)"/>
                        <g>
                            <path fill="#FFD166" d="M12.366 6.718l-.242-3.228c0-.504-.565-.504-.565-.504l-3.248.12.585.525-3.812 4.297 2.965 2.643 3.813-4.297.504.444z" transform="translate(-94 -166) translate(40 125) translate(54 41) rotate(3 -656.528 602.953) translate(48.213 29.25)"/>
                            <g fill="#073B4C">
                                <path d="M.02 4.156l.968-1.09c.061.343.162.666.323.948.162.283.363.545.605.747.142.12.263.222.404.282.12.06.242.101.363.121.1.02.202 0 .303-.02.08-.02.161-.08.221-.161.081-.101.142-.202.142-.323.02-.121 0-.262-.04-.404-.041-.14-.102-.302-.182-.484-.08-.181-.162-.363-.262-.565-.243-.504-.364-.948-.343-1.351.02-.404.161-.767.464-1.09.221-.262.484-.423.746-.524.262-.1.545-.121.827-.08.282.04.565.14.847.282.283.161.565.343.807.565.263.222.464.443.646.645.161.202.302.424.423.626l-.907 1.028c-.04-.14-.081-.262-.142-.383-.06-.141-.12-.262-.201-.383-.081-.121-.162-.242-.242-.343-.081-.101-.182-.202-.283-.283-.12-.1-.242-.201-.383-.262-.121-.06-.242-.1-.343-.12-.1-.021-.222-.021-.303 0-.08.02-.181.08-.242.16-.08.081-.12.182-.14.283-.021.1 0 .222.02.343.02.12.08.282.14.424.061.16.142.322.222.524.121.262.222.504.303.726.08.242.121.464.121.666 0 .222-.02.424-.1.625-.082.202-.203.404-.384.605-.242.283-.504.464-.767.545-.262.101-.544.121-.827.08-.282-.04-.565-.14-.847-.302-.282-.161-.545-.363-.807-.585-.262-.242-.504-.504-.706-.746C.282 4.66.121 4.398.02 4.156zM9.925 9.481c-1.311 1.473-2.663 1.614-4.035.384-1.33-1.19-1.371-2.502-.08-3.954L8.33 3.066l1.11.989-2.542 2.864c-.706.787-.746 1.473-.12 2.018.604.544 1.25.423 1.936-.343l2.582-2.905 1.11.988-2.482 2.804zM9.118 12.568l4.378-4.922 1.795 1.593c.545.484.888.968 1.009 1.432.12.464.02.888-.323 1.251-.242.262-.525.424-.888.464-.363.04-.706-.02-1.069-.202l-.02.02c.303.364.484.727.504 1.13.02.404-.12.767-.383 1.07-.403.443-.888.665-1.432.645-.565-.02-1.11-.282-1.675-.787l-1.896-1.694zM13.88 9.44l-1.029 1.17.484.424c.222.201.464.302.686.322.222 0 .424-.08.605-.282.323-.363.222-.787-.322-1.271l-.424-.363zm-1.775 1.997l-1.15 1.291.605.525c.262.222.504.343.767.363.262 0 .464-.081.645-.303.182-.202.242-.424.202-.645-.04-.242-.202-.485-.444-.706l-.625-.525zM16.582 19.205L13.637 16.582 18.014 11.66 20.859 14.182 20.052 15.089 18.317 13.556 17.349 14.646 18.963 16.078 18.156 16.986 16.542 15.553 15.533 16.683 17.369 18.317z" transform="translate(-94 -166) translate(40 125) translate(54 41) rotate(3 -656.528 602.953) translate(48.213 29.25)"/>
                            </g>
                        </g>
                        <path fill="#073B4C" d="M69.112 94.127c-1.008 0-1.977-.363-2.723-1.029L25.378 56.646c-.828-.727-1.312-1.735-1.372-2.825-.06-1.089.302-2.138 1.029-2.965l25.72-28.948c.787-.868 1.896-1.372 3.066-1.372 1.009 0 1.977.363 2.724 1.029l26.124 23.219 16.178-5.185c1.876-.564 3.853-.867 5.83-.867 4.963 0 9.724 1.816 13.415 5.124l20.9 18.559c.504.444.786 1.049.826 1.715.04.665-.181 1.29-.625 1.795l-19.285 21.706c-2.623 2.945-6.375 4.62-10.309 4.62-3.368 0-6.616-1.23-9.138-3.47l-2.179-1.937-19.043-.383H78.876c-.222 0-.444-.02-.645-.04l-.384-.04-5.628 6.334c-.807.928-1.916 1.412-3.107 1.412zM53.842 22.27c-.666 0-1.312.282-1.756.787l-25.74 28.968c-.868.968-.767 2.461.202 3.328l41.011 36.453c.424.383.989.585 1.574.585.665 0 1.31-.282 1.755-.787l5.043-5.668-.767-.464c-.847-.505-1.573-1.17-2.158-1.977 0-.02-1.13-1.614-1.433-3.914-.1-1.836 1.231-4.498 1.816-5.225 1.836-2.3 4.176-2.44 5.063-2.48l10.672-.767 7.504-8.433c.868-.968.767-2.46-.201-3.328L55.395 22.876c-.424-.383-.989-.605-1.554-.605zM98.624 85.15c.202 0 .404.08.565.222l2.421 2.138c2.199 1.957 5.043 3.026 7.988 3.026 3.43 0 6.718-1.473 8.998-4.035l19.79-22.27-21.445-19.064c-3.369-3.026-7.726-4.68-12.265-4.68-1.795 0-3.59.262-5.305.787l-15.17 4.861 13.374 11.902c1.695 1.493 1.836 4.096.343 5.79l-6.314 7.101 15.574-1.13.12 1.735-28.726 2.058c-3.066.242-5.366 2.824-5.265 5.89.142 2.502 1.937 4.6 4.378 5.144.383.101.787.142 1.19.142h.303l19.446.383z" transform="translate(-94 -166) translate(40 125) translate(54 41) rotate(3 -656.528 602.953)"/>
                        <path fill="#073B4C" d="M40.265 60.095c-.262 0-.524-.1-.726-.282l-6.92-6.153c-.443-.404-.484-1.09-.08-1.533.202-.222.504-.363.807-.363.262 0 .524.1.726.282l6.92 6.153c.443.403.484 1.09.08 1.533-.202.242-.484.363-.807.363zM54.75 72.965c-.263 0-.525-.1-.727-.282l-6.92-6.153c-.443-.403-.483-1.09-.08-1.533.202-.222.504-.363.807-.363.262 0 .524.1.726.282l6.92 6.153c.221.202.342.464.363.747.02.282-.081.564-.263.786-.222.242-.524.363-.827.363zM69.213 85.836c-.262 0-.524-.101-.726-.283l-6.92-6.152c-.221-.202-.342-.464-.362-.747-.02-.282.08-.565.262-.787.202-.221.504-.363.807-.363.262 0 .524.101.726.283l6.92 6.152c.443.404.483 1.09.08 1.534-.182.222-.464.363-.787.363zM117.205 53.942c-.263 0-.505-.1-.706-.302-3.39-3.37-7.464-5.326-12.104-5.79-3.49-.363-6.012.303-6.052.303-.545.14-1.09-.182-1.23-.706-.142-.525.18-1.09.705-1.23.444-.122 11.156-2.886 20.093 6.01.403.384.403 1.03 0 1.433-.182.181-.444.282-.706.282z" transform="translate(-94 -166) translate(40 125) translate(54 41) rotate(3 -656.528 602.953)"/>
                        <path fill="#FFD166" d="M34.576 29.997c0 2.522-2.057 4.6-4.6 4.6-2.54 0-4.598-2.058-4.598-4.6s2.057-4.6 4.599-4.6c2.542 0 4.6 2.058 4.6 4.6zM32.277 15.452c0 1.271-1.03 2.3-2.3 2.3-6.738 0-12.225 5.487-12.225 12.245 0 1.271-1.029 2.3-2.3 2.3-1.27 0-2.3-1.029-2.3-2.3 0-4.498 1.756-8.715 4.923-11.902 3.187-3.187 7.403-4.922 11.902-4.922 1.27-.02 2.3 1.009 2.3 2.28z" transform="translate(-94 -166) translate(40 125) translate(54 41) rotate(3 -656.528 602.953)"/>
                        <path fill="#FFD166" d="M32.277 3.207c0 1.271-1.03 2.3-2.3 2.3-13.496 0-24.49 10.974-24.49 24.49 0 1.271-1.029 2.3-2.3 2.3-1.27 0-2.3-1.029-2.3-2.3 0-3.913.767-7.726 2.28-11.317 1.493-3.47 3.59-6.576 6.274-9.24 2.663-2.682 5.77-4.78 9.24-6.233 3.59-1.512 7.382-2.28 11.316-2.28 1.25-.02 2.28 1.01 2.28 2.28z" transform="translate(-94 -166) translate(40 125) translate(54 41) rotate(3 -656.528 602.953)"/>
                        <path fill="#073B4C" d="M24.833 29.997c0 2.844 2.32 5.164 5.164 5.164s5.164-2.32 5.164-5.164-2.32-5.164-5.164-5.164c-2.864 0-5.164 2.3-5.164 5.164zm9.179 0c0 2.22-1.796 4.015-4.015 4.015-2.219 0-4.014-1.796-4.014-4.015 0-2.219 1.795-4.014 4.014-4.014 2.199-.02 4.015 1.795 4.015 4.014z" transform="translate(-94 -166) translate(40 125) translate(54 41) rotate(3 -656.528 602.953)"/>
                        <g fill="#073B4C">
                            <path d="M29.997 24.49c-3.046 0-5.507 2.461-5.507 5.507s2.461 5.507 5.507 5.507 5.507-2.46 5.507-5.507c0-3.046-2.48-5.507-5.507-5.507zm0 9.179c-2.017 0-3.671-1.655-3.671-3.672 0-2.017 1.654-3.671 3.671-3.671s3.672 1.654 3.672 3.671-1.655 3.672-3.672 3.672zM33.205 15.452c0-1.775-1.433-3.207-3.208-3.207-4.74 0-9.199 1.856-12.547 5.205-3.35 3.348-5.205 7.806-5.205 12.547 0 1.775 1.432 3.208 3.207 3.208 1.776 0 3.208-1.433 3.208-3.208 0-6.253 5.084-11.317 11.317-11.317 1.775-.02 3.228-1.452 3.228-3.228zM14.08 29.997c0-4.256 1.654-8.25 4.66-11.256 3.005-3.006 7-4.66 11.256-4.66.767 0 1.372.625 1.372 1.371 0 .747-.625 1.372-1.372 1.372-7.262 0-13.153 5.91-13.153 13.153 0 .767-.625 1.372-1.371 1.372-.747 0-1.392-.605-1.392-1.352z" transform="translate(-94 -166) translate(40 125) translate(54 41) rotate(3 -656.528 602.953)"/>
                            <path d="M29.997 6.415c1.775 0 3.208-1.432 3.208-3.208C33.205 1.432 31.752 0 29.997 0c-4.055 0-7.968.787-11.68 2.36-3.57 1.513-6.778 3.672-9.522 6.435-2.763 2.744-4.922 5.951-6.435 9.522C.787 22.009 0 25.942 0 29.997c0 1.775 1.432 3.208 3.207 3.208 1.776 0 3.208-1.433 3.208-3.208 0-13.011 10.57-23.582 23.582-23.582zM3.207 31.369c-.766 0-1.371-.625-1.371-1.372 0-3.792.746-7.484 2.219-10.954 1.412-3.369 3.45-6.374 6.031-8.957 2.583-2.582 5.588-4.62 8.957-6.031 3.47-1.473 7.162-2.22 10.954-2.22.363 0 .706.142.968.404.263.262.404.605.404.968 0 .767-.625 1.372-1.372 1.372-14 0-25.398 11.398-25.398 25.398 0 .767-.625 1.392-1.392 1.392z" transform="translate(-94 -166) translate(40 125) translate(54 41) rotate(3 -656.528 602.953)"/>
                        </g>
                    </g>
                    <path fill="#FFD166" d="M8.5 28c.783 0 1.425.634 1.494 1.44l.006.145v3.83C10 34.29 9.329 35 8.5 35c-.783 0-1.425-.634-1.494-1.44L7 33.414v-3.83C7 28.71 7.671 28 8.5 28zm29.99 1.378l.092.083 2.321 2.32c.53.531.486 1.436-.1 2.022-.553.554-1.391.624-1.93.183l-.091-.083-2.321-2.321c-.53-.53-.486-1.435.1-2.021.553-.554 1.391-.624 1.93-.183zm-4.05.183c.552.552.623 1.39.182 1.93l-.084.092-2.319 2.32c-.531.53-1.437.486-2.022-.1-.553-.552-.624-1.391-.183-1.93l.084-.092 2.32-2.32c.53-.53 1.436-.486 2.021.1zM5.412 25C6.29 25 7 25.672 7 26.5c0 .782-.633 1.425-1.442 1.494L5.413 28H1.587C.71 28 0 27.328 0 26.5c0-.782.633-1.425 1.442-1.494L1.587 25h3.826zm10 0c.877 0 1.587.672 1.587 1.5 0 .782-.633 1.425-1.442 1.494l-.145.006h-3.826C10.71 28 10 27.328 10 26.5c0-.782.633-1.425 1.442-1.494l.145-.006h3.826zm16.713-1.986l.092.083 2.321 2.321c.53.53.486 1.435-.1 2.021-.553.554-1.391.624-1.93.183l-.091-.083-2.321-2.32c-.53-.531-.486-1.436.1-2.022.553-.554 1.391-.624 1.93-.183zm8.677.183c.553.552.624 1.391.183 1.93l-.084.092-2.32 2.32c-.53.53-1.436.486-2.021-.1-.553-.552-.624-1.39-.183-1.93l.084-.092 2.319-2.32c.531-.53 1.437-.486 2.022.1zM8.5 18c.783 0 1.425.634 1.494 1.44l.006.145v3.83C10 24.29 9.329 25 8.5 25c-.783 0-1.425-.634-1.494-1.44L7 23.414v-3.83C7 18.71 7.671 18 8.5 18zM53 8c1.657 0 3 1.343 3 3-.001 1.656-1.344 2.999-3 3-1.657 0-3-1.343-3-3s1.343-3 3-3zM24.5 0C27.538 0 30 2.462 30 5.5c-.002 3.037-2.463 5.498-5.5 5.5-3.038 0-5.5-2.463-5.5-5.5C19 2.462 21.462 0 24.5 0z" transform="translate(-94 -166) translate(40 125) translate(54 41)"/>
                </g>
            </g>
        </g>
    </g>
</svg>
