<svg width="99" height="120" xmlns="http://www.w3.org/2000/svg">
    <g fill="none" fill-rule="evenodd">
        <path d="M79.636 48.337 8.68 60.848a8.168 8.168 0 0 0-6.623 9.458l7.202 40.845a8.168 8.168 0 0 0 9.458 6.623l70.955-12.511a8.168 8.168 0 0 0 6.623-9.458L89.094 54.96a8.168 8.168 0 0 0-9.458-6.623zM93.08 96.372a4.913 4.913 0 0 1-3.974 5.675l-70.955 12.51a4.913 4.913 0 0 1-5.675-3.973L5.274 69.74a4.913 4.913 0 0 1 3.974-5.675l70.955-12.511a4.913 4.913 0 0 1 5.675 3.974l7.202 40.845z" fill="#073B4C" fill-rule="nonzero"/>
        <path d="M93.08 96.372a4.913 4.913 0 0 1-3.974 5.675l-70.955 12.51a4.913 4.913 0 0 1-5.675-3.973L5.274 69.74a4.913 4.913 0 0 1 3.974-5.675l70.955-12.511a4.913 4.913 0 0 1 5.675 3.974l7.202 40.845z" fill="#E9F4FC" fill-rule="nonzero"/>
        <path d="m50.076 99.06-14.289 2.519c-.677.119-1.1.935-.943 1.824.157.888.833 1.511 1.51 1.392l14.29-2.52c.676-.12 1.099-.936.942-1.824-.157-.889-.833-1.511-1.51-1.392zM68.787 95.76 54.5 98.28c-.678.119-1.1.935-.943 1.824.156.888.833 1.51 1.51 1.391l14.288-2.519c.678-.12 1.1-.936.943-1.824-.156-.889-.832-1.512-1.51-1.392zM87.499 92.46 73.21 94.98c-.677.12-1.1.936-.943 1.824.157.889.833 1.512 1.51 1.392l14.289-2.52c.677-.119 1.1-.935.943-1.824-.157-.888-.833-1.51-1.51-1.392zM31.365 102.358l-14.289 2.52c-.677.12-1.1.936-.943 1.824.157.889.833 1.511 1.51 1.392l14.289-2.52c.677-.119 1.1-.935.943-1.824-.157-.888-.833-1.511-1.51-1.392z" fill="#073B4C" fill-rule="nonzero"/>
        <path d="M47.231 67.964c5.548-.978 10.838 2.726 11.816 8.274.978 5.548-2.725 10.838-8.274 11.816-5.548.978-10.838-2.725-11.816-8.274-.978-5.548 2.726-10.838 8.274-11.816z" fill="#FFD166" fill-rule="nonzero"/>
        <path d="M46.918 66.191c6.528-1.15 12.75 3.207 13.902 9.734 1.15 6.528-3.207 12.75-9.734 13.902-6.527 1.15-12.75-3.207-13.902-9.734-1.15-6.527 3.207-12.75 9.734-13.902zm.313 1.773c-5.548.978-9.252 6.268-8.274 11.816.978 5.549 6.268 9.252 11.816 8.274 5.549-.978 9.252-6.268 8.274-11.816-.978-5.548-6.268-9.252-11.816-8.274zm.35 4.32a.9.9 0 0 1 1.013.612l.03.119.92 5.223 4.447 1.692a.9.9 0 0 1 .557 1.044l-.036.117a.9.9 0 0 1-1.044.557l-.117-.035-4.924-1.873a.9.9 0 0 1-.533-.554l-.034-.13-1.01-5.729a.9.9 0 0 1 .73-1.042z" fill="#073B4C"/>
        <g fill="#FFD166">
            <path d="M45.44 37.56c.552.553.623 1.392.182 1.931l-.084.092-2.319 2.32c-.531.53-1.437.486-2.022-.1-.553-.552-.624-1.391-.183-1.93l.084-.092 2.32-2.32c.53-.53 1.436-.486 2.021.1zm6.463 2.222c.53.53.486 1.435-.1 2.021-.553.554-1.391.624-1.93.183l-.091-.083-2.321-2.321c-.53-.53-.486-1.435.1-2.021.553-.554 1.391-.624 1.93-.183l.091.083 2.321 2.32zm-6.364-6.364c.53.53.486 1.435-.1 2.021-.553.554-1.391.624-1.93.183l-.091-.083-2.321-2.32c-.53-.531-.486-1.436.1-2.022.553-.554 1.391-.624 1.93-.183l.091.083 2.321 2.321zm6.264-2.221c.553.552.624 1.391.183 1.93l-.084.092-2.32 2.32c-.53.53-1.436.486-2.021-.1-.553-.552-.624-1.39-.183-1.93l.084-.092 2.319-2.32c.531-.53 1.437-.486 2.022.1z"/>
            <path d="M54 11a3 3 0 1 1 0 6 3 3 0 0 1 0-6zM16.5 30a5.5 5.5 0 1 1 0 11 5.5 5.5 0 0 1 0-11z" fill-rule="nonzero"/>
            <path d="M26 8.5c0 .782-.633 1.425-1.442 1.494l-.145.006h-3.826C19.71 10 19 9.328 19 8.5c0-.782.633-1.425 1.442-1.494L20.587 7h3.826C25.29 7 26 7.672 26 8.5zm3 6.915C29 16.29 28.329 17 27.5 17c-.783 0-1.425-.634-1.494-1.44L26 15.414v-3.83c0-.875.671-1.585 1.5-1.585.783 0 1.425.634 1.494 1.44l.006.145v3.83zm0-10C29 6.29 28.329 7 27.5 7c-.783 0-1.425-.634-1.494-1.44L26 5.414v-3.83C26 .71 26.671 0 27.5 0c.783 0 1.425.634 1.494 1.44l.006.145v3.83zM36 8.5c0 .782-.633 1.425-1.442 1.494l-.145.006h-3.826C29.71 10 29 9.328 29 8.5c0-.782.633-1.425 1.442-1.494L30.587 7h3.826C35.29 7 36 7.672 36 8.5zM73.118 25c0 .46-.373.838-.849.879l-.085.003h-2.25c-.516 0-.934-.395-.934-.882 0-.46.372-.838.848-.879l.085-.003h2.251c.516 0 .934.395.934.882zm1.764 4.068c0 .514-.394.932-.882.932-.46 0-.838-.373-.879-.848l-.003-.084v-2.253c0-.515.394-.933.882-.933.46 0 .838.373.879.848l.003.085v2.253zm0-5.883c0 .515-.394.933-.882.933-.46 0-.838-.373-.879-.848l-.003-.085v-2.253c0-.514.394-.932.882-.932.46 0 .838.373.879.848l.003.084v2.253zM79 25c0 .46-.372.838-.848.879l-.085.003h-2.251c-.516 0-.934-.395-.934-.882 0-.46.373-.838.849-.879l.085-.003h2.25c.516 0 .934.395.934.882z"/>
        </g>
    </g>
</svg>
