<svg xmlns="http://www.w3.org/2000/svg" width="30" height="30" viewBox="0 0 30 30">
    <g fill="none" fill-rule="evenodd">
        <g fill="#EF476F">
            <g>
                <g>
                    <path d="M15 0c8.283 0 15 6.717 15 15 0 8.284-6.716 15-15 15-8.284 0-15-6.716-15-15C0 6.717 6.717 0 15 0zm0 2.25C7.96 2.25 2.25 7.96 2.25 15c0 7.042 5.709 12.75 12.75 12.75S27.75 22.042 27.75 15c0-7.04-5.71-12.75-12.75-12.75zm4.358 8.379c.374.375.406.963.093 1.373l-.093.107-2.879 2.877 2.875 2.875c.409.409.409 1.071 0 1.48-.374.375-.962.406-1.373.094l-.107-.094L15 16.466l-2.877 2.878c-.408.41-1.071.41-1.48 0-.374-.374-.406-.962-.093-1.372l.093-.108 2.877-2.878-2.873-2.874c-.409-.408-.409-1.07 0-1.48.374-.374.962-.405 1.373-.093l.107.093 2.873 2.874 2.879-2.877c.408-.409 1.071-.409 1.48 0z" transform="translate(-16 -573) translate(0 553) translate(16 20)"/>
                </g>
            </g>
        </g>
    </g>
</svg>
