<?xml version="1.0" encoding="UTF-8"?><svg id="Capa_1" xmlns="http://www.w3.org/2000/svg" viewBox="0 0 85 85"><defs><style>.cls-1,.cls-2{fill:#fff;}.cls-3{fill:#c33;}.cls-2{fill-rule:evenodd;stroke:#fff;}</style></defs><ellipse id="Oval" class="cls-3" cx="42.6" cy="42.54" rx="41.34" ry="41.29"/><path id="Oval-2" class="cls-1" d="M42.5,0C19.03,0,0,19.03,0,42.5s19.03,42.5,42.5,42.5,42.5-19.03,42.5-42.5S65.97,0,42.5,0Zm0,3.75c21.4,0,38.74,17.35,38.74,38.75s-17.35,38.75-38.74,38.75S3.76,63.9,3.76,42.5,21.1,3.75,42.5,3.75Z"/><path id="Combined-Shape" class="cls-2" d="M30.79,29.37l.1,.09,11.61,11.59,11.61-11.59,.1-.09c.4-.31,.99-.28,1.36,.09,.4,.4,.4,1.05,0,1.45l-11.61,11.59,11.61,11.59c.4,.4,.4,1.05,0,1.45-.37,.37-.95,.4-1.36,.09l-.1-.09-11.61-11.59-11.61,11.59-.1,.09c-.4,.31-.99,.28-1.36-.09-.4-.4-.4-1.05,0-1.45l11.61-11.59-11.61-11.59c-.4-.4-.4-1.05,0-1.45,.37-.37,.95-.4,1.36-.09Z"/></svg>