<?xml version="1.0" encoding="UTF-8"?>
<svg width="250px" height="250px" viewBox="0 0 250 250" version="1.1" xmlns="http://www.w3.org/2000/svg" xmlns:xlink="http://www.w3.org/1999/xlink">
    <title>Fintech/illustrations/standards/large/timeout service</title>
    <g id="Fintech/illustrations/standards/large/timeout-service" stroke="none" stroke-width="1" fill="none" fill-rule="evenodd">
        <g id="Group-4" transform="translate(0.000000, 48.955197)">
            <g id="Group-42" transform="translate(0.000000, 56.087149)">
                <g id="Group-34" transform="translate(0.000000, 10.219465)">
                    <path d="M41.4233153,-1.67355152e-15 L104.835188,1.67355152e-15 C119.238977,-9.72381627e-16 124.462139,1.49973351 129.727949,4.31591953 C134.993759,7.13210555 139.126398,11.2647441 141.942584,16.5305541 C144.75877,21.7963641 146.258503,27.0195261 146.258503,41.4233153 L146.258503,82.9135127 C146.258503,97.3173019 144.75877,102.540464 141.942584,107.806274 C139.126398,113.072084 134.993759,117.204722 129.727949,120.020909 C124.462139,122.837095 119.238977,124.336828 104.835188,124.336828 L41.4233153,124.336828 C27.0195261,124.336828 21.7963641,122.837095 16.5305541,120.020909 C11.2647441,117.204722 7.13210555,113.072084 4.31591953,107.806274 C1.49973351,102.540464 6.48254418e-16,97.3173019 -1.11570101e-15,82.9135127 L1.11570101e-15,41.4233153 C-6.48254418e-16,27.0195261 1.49973351,21.7963641 4.31591953,16.5305541 C7.13210555,11.2647441 11.2647441,7.13210555 16.5305541,4.31591953 C21.7963641,1.49973351 27.0195261,9.72381627e-16 41.4233153,-1.67355152e-15 Z" id="Rectangle-Copy-10" fill="#E9F4FC"></path>
                    <path d="M122.973568,0 C135.833483,0 146.258503,10.4785871 146.258503,23.4045794 L146.258503,100.932249 C146.258503,113.858241 135.833483,124.336828 122.973568,124.336828 L23.2849359,124.336828 C10.4250209,124.336828 0,113.858241 0,100.932249 L0,23.4045794 C0,10.4785871 10.4250209,0 23.2849359,0 L122.973568,0 Z M122.973568,3.65696553 L23.2849359,3.65696553 C12.5428881,3.65696553 3.8143989,12.3223314 3.64090332,23.0780165 L3.63827123,23.4045794 L3.63827123,100.932249 C3.63827123,111.729492 12.25934,120.50283 22.9600423,120.677217 L23.2849359,120.679863 L122.973568,120.679863 C133.715615,120.679863 142.444105,112.014497 142.6176,101.258812 L142.620232,100.932249 L142.620232,23.4045794 C142.620232,12.6073365 133.999163,3.83399819 123.298461,3.65961115 L122.973568,3.65696553 Z" id="Rectangle-Copy-10" fill="#073B4C" fill-rule="nonzero"></path>
                    <g id="Group-33">
                        <path d="M17.8921569,0 L128.366347,0 C138.247912,-1.81521411e-15 146.258503,8.01059149 146.258503,17.8921569 L146.258503,35.8382622 L146.258503,35.8382622 L0,35.8382622 L0,17.8921569 C-1.21014274e-15,8.01059149 8.01059149,1.81521411e-15 17.8921569,0 Z" id="Rectangle-Copy-9" fill="#FF008D"></path>
                        <path d="M128.430974,0 C138.276847,0 146.258503,8.02266826 146.258503,17.9191311 L146.258503,35.8382622 L0,35.8382622 L0,17.9191311 C0,8.02266826 7.98165662,0 17.827529,0 L128.430974,0 Z M128.430974,3.65696553 L17.827529,3.65696553 C10.0743855,3.65696553 3.77360398,9.90721787 3.64042225,17.6682569 L3.63827123,17.9191311 L3.63827123,32.1812967 L142.620232,32.1812967 L142.620232,17.9191311 C142.620232,10.1261501 136.401931,3.79299366 128.680566,3.65912761 L128.430974,3.65696553 Z" id="Rectangle-Copy-11" fill="#073B4C" fill-rule="nonzero"></path>
                    </g>
                </g>
                <g id="Group-31" transform="translate(44.217687, 0.000000)">
                    <rect id="Rectangle-Copy-13" fill="#E9F4FC" x="0" y="0" width="15.3061224" height="28.9551517" rx="7.65306122"></rect>
                    <path d="M7.65306122,0 C11.8797302,0 15.3061224,3.65641777 15.3061224,8.16683767 L15.3061224,20.7883141 C15.3061224,25.298734 11.8797302,28.9551517 7.65306122,28.9551517 C3.42639222,28.9551517 0,25.298734 0,20.7883141 L0,8.16683767 C0,3.65641777 3.42639222,0 7.65306122,0 Z M7.65306122,3.71219894 C5.40000213,3.71219894 3.56384154,5.61698382 3.48154346,7.99983455 L3.47866419,8.16683767 L3.47866419,20.7883141 C3.47866419,23.2485431 5.3476054,25.2429528 7.65306122,25.2429528 C9.90612032,25.2429528 11.7422809,23.3381679 11.824579,20.9553172 L11.8274583,20.7883141 L11.8274583,8.16683767 C11.8274583,5.70660863 9.95851704,3.71219894 7.65306122,3.71219894 Z" id="Rectangle-Copy-12" fill="#073B4C" fill-rule="nonzero"></path>
                </g>
                <g id="Group-31-Copy" transform="translate(86.734694, 0.000000)">
                    <rect id="Rectangle-Copy-13" fill="#E9F4FC" x="0" y="0" width="15.3061224" height="28.9551517" rx="7.65306122"></rect>
                    <path d="M7.65306122,0 C11.8797302,0 15.3061224,3.65641777 15.3061224,8.16683767 L15.3061224,20.7883141 C15.3061224,25.298734 11.8797302,28.9551517 7.65306122,28.9551517 C3.42639222,28.9551517 0,25.298734 0,20.7883141 L0,8.16683767 C0,3.65641777 3.42639222,0 7.65306122,0 Z M7.65306122,3.71219894 C5.40000213,3.71219894 3.56384154,5.61698382 3.48154346,7.99983455 L3.47866419,8.16683767 L3.47866419,20.7883141 C3.47866419,23.2485431 5.3476054,25.2429528 7.65306122,25.2429528 C9.90612032,25.2429528 11.7422809,23.3381679 11.824579,20.9553172 L11.8274583,20.7883141 L11.8274583,8.16683767 C11.8274583,5.70660863 9.95851704,3.71219894 7.65306122,3.71219894 Z" id="Rectangle-Copy-12" fill="#073B4C" fill-rule="nonzero"></path>
                </g>
                <g id="Group-35" transform="translate(15.306122, 54.503815)">
                    <rect id="Rectangle" fill="#FFFFFF" x="0" y="0" width="115.646259" height="66.4265246" rx="18.707483"></rect>
                    <path d="M106.190904,0 C111.412952,0 115.646259,4.24859544 115.646259,9.48950351 L115.646259,56.9370211 C115.646259,62.1779291 111.412952,66.4265246 106.190904,66.4265246 L9.45535447,66.4265246 C4.23330639,66.4265246 0,62.1779291 0,56.9370211 L0,9.48950351 C0,4.24859544 4.23330639,0 9.45535447,0 L106.190904,0 Z M106.190904,2.91984723 L9.45535447,2.91984723 C5.9046487,2.91984723 3.01422778,5.75707277 2.9121307,9.2957992 L2.90933984,9.48950351 L2.90933984,56.9370211 C2.90933984,60.5005506 5.7363553,63.4014106 9.26234723,63.5038764 L9.45535447,63.5066773 L106.190904,63.5066773 C109.74161,63.5066773 112.632031,60.6694518 112.734128,57.1307254 L112.736919,56.9370211 L112.736919,9.48950351 C112.736919,5.92597398 109.909903,3.02511399 106.383911,2.92264817 L106.190904,2.91984723 Z" id="Rectangle" fill="#073B4C" fill-rule="nonzero"></path>
                </g>
                <g id="Group-41" transform="translate(27.210884, 63.020036)">
                    <ellipse id="Oval-Copy-8" fill="#E9F4FC" cx="5.0902676" cy="5.03902572" rx="5.0902676" ry="5.03902572"></ellipse>
                    <ellipse id="Oval-Copy-9" fill="#E9F4FC" cx="18.9024011" cy="5.03902572" rx="5.0902676" ry="5.03902572"></ellipse>
                    <ellipse id="Oval-Copy-3" fill="#B5EDFF" cx="32.7145346" cy="5.03902572" rx="5.0902676" ry="5.03902572"></ellipse>
                    <ellipse id="Oval-Copy-10" fill="#B5EDFF" cx="32.7145346" cy="18.7121174" rx="5.0902676" ry="5.03902572"></ellipse>
                    <ellipse id="Oval-Copy-4" fill="#B5EDFF" cx="46.5266681" cy="5.03902572" rx="5.0902676" ry="5.03902572"></ellipse>
                    <ellipse id="Oval-Copy-11" fill="#B5EDFF" cx="46.5266681" cy="18.7121174" rx="5.0902676" ry="5.03902572"></ellipse>
                    <ellipse id="Oval-Copy-5" fill="#B5EDFF" cx="60.3388015" cy="5.03902572" rx="5.0902676" ry="5.03902572"></ellipse>
                    <ellipse id="Oval-Copy-12" fill="#B5EDFF" cx="60.3388015" cy="18.7121174" rx="5.0902676" ry="5.03902572"></ellipse>
                    <ellipse id="Oval-Copy-6" fill="#B5EDFF" cx="74.150935" cy="5.03902572" rx="5.0902676" ry="5.03902572"></ellipse>
                    <ellipse id="Oval-Copy-13" fill="#B5EDFF" cx="74.150935" cy="18.7121174" rx="5.0902676" ry="5.03902572"></ellipse>
                    <ellipse id="Oval-Copy-7" fill="#B5EDFF" cx="87.9630685" cy="5.03902572" rx="5.0902676" ry="5.03902572"></ellipse>
                    <ellipse id="Oval-Copy-14" fill="#B5EDFF" cx="87.9630685" cy="18.7121174" rx="5.0902676" ry="5.03902572"></ellipse>
                    <ellipse id="Oval-Copy-8" fill="#B5EDFF" cx="5.0902676" cy="18.7121174" rx="5.0902676" ry="5.03902572"></ellipse>
                    <ellipse id="Oval-Copy-9" fill="#B5EDFF" cx="18.9024011" cy="18.7121174" rx="5.0902676" ry="5.03902572"></ellipse>
                    <ellipse id="Oval-Copy-10" fill="#B5EDFF" cx="32.7145346" cy="32.3852092" rx="5.0902676" ry="5.03902572"></ellipse>
                    <ellipse id="Oval-Copy-11" fill="#B5EDFF" cx="46.5266681" cy="32.3852092" rx="5.0902676" ry="5.03902572"></ellipse>
                    <ellipse id="Oval-Copy-12" fill="#B5EDFF" cx="60.3388015" cy="32.3852092" rx="5.0902676" ry="5.03902572"></ellipse>
                    <ellipse id="Oval-Copy-13" fill="#B5EDFF" cx="74.150935" cy="32.3852092" rx="5.0902676" ry="5.03902572"></ellipse>
                    <ellipse id="Oval-Copy-14" fill="#B5EDFF" cx="87.9630685" cy="32.3852092" rx="5.0902676" ry="5.03902572"></ellipse>
                    <ellipse id="Oval-Copy-8" fill="#B5EDFF" cx="5.0902676" cy="32.3852092" rx="5.0902676" ry="5.03902572"></ellipse>
                    <ellipse id="Oval-Copy-9" fill="#B5EDFF" cx="18.9024011" cy="32.3852092" rx="5.0902676" ry="5.03902572"></ellipse>
                    <ellipse id="Oval-Copy-10" fill="#B5EDFF" cx="5.0902676" cy="46.0583009" rx="5.0902676" ry="5.03902572"></ellipse>
                    <ellipse id="Oval-Copy-11" fill="#B5EDFF" cx="18.9024011" cy="46.0583009" rx="5.0902676" ry="5.03902572"></ellipse>
                    <ellipse id="Oval-Copy-12" fill="#B5EDFF" cx="32.7145346" cy="46.0583009" rx="5.0902676" ry="5.03902572"></ellipse>
                    <ellipse id="Oval-Copy-13" fill="#B5EDFF" cx="46.5266681" cy="46.0583009" rx="5.0902676" ry="5.03902572"></ellipse>
                    <ellipse id="Oval-Copy-14" fill="#B5EDFF" cx="60.3388015" cy="46.0583009" rx="5.0902676" ry="5.03902572"></ellipse>
                    <ellipse id="Oval-Copy-15" fill="#B5EDFF" cx="73.8308075" cy="46.0583009" rx="5.0902676" ry="5.03902572"></ellipse>
                    <ellipse id="Oval-Copy-16" fill="#B5EDFF" cx="88.4471474" cy="46.0583009" rx="5.0902676" ry="5.03902572"></ellipse>
                </g>
            </g>
            <g id="Fintech/illustrations/succes/QR-pay-Copy-3" transform="translate(124.149660, 27.234358)" fill-rule="nonzero">
                <g id="Group">
                    <path d="M89.4501438,0.0113858291 L125.813954,34.395835 L125.644312,152.265838 C125.635587,158.328286 120.683207,163.249916 114.582862,163.258606 L11.0298763,163.406138 C4.92953133,163.414817 -0.00870219578,158.507277 1.15140429e-05,152.44483 L0.203428367,11.1155356 C0.212153622,5.05308791 5.16453358,0.131458022 11.2648786,0.122767549 L89.4501438,0.0113858291 Z" id="Path" fill="#FFFFFF"></path>
                    <path d="M94.0292618,54.2038495 L26.3746448,54.3002294 C21.5258651,54.3071369 17.5696948,58.1341393 17.3933419,62.9119553 L17.3872165,63.2318534 L17.3042651,120.861274 C17.2973394,125.679932 21.1369511,129.600582 25.9441486,129.762157 L26.2660303,129.767328 L93.9206473,129.670948 C98.769427,129.664041 102.725597,125.837038 102.90195,121.059222 L102.908076,120.739324 L102.991027,63.1099034 C102.997953,58.2912459 99.1583411,54.3705962 94.3511435,54.2090208 L94.0292618,54.2038495 Z" id="Path" fill="#E9F4FC"></path>
                    <path d="M89.4501438,0.0113858291 L125.813954,34.395835 L125.644312,152.265838 C125.635587,158.328286 120.683207,163.249916 114.582862,163.258606 L11.0298763,163.406138 C4.92953133,163.414817 -0.00870219578,158.507277 1.15140429e-05,152.44483 L0.203428367,11.1155356 C0.212153622,5.05308791 5.16453358,0.131458022 11.2648786,0.122767549 L89.4501438,0.0113858291 Z M88.0645003,3.44367543 L11.2599416,3.55309022 C7.16824674,3.55891919 3.82774856,6.77964011 3.66166121,10.8070849 L3.65519454,11.1106182 L3.4517813,152.439912 C3.44593693,156.506188 6.6772379,159.816724 10.7293999,159.970247 L11.0348134,159.975804 L114.587799,159.828284 C118.679493,159.822455 122.019992,156.601734 122.186079,152.574289 L122.192546,152.270756 L122.360069,35.8730469 L88.0645003,3.44367543 Z M94.0341988,50.7735139 C100.897087,50.7637501 106.4526,56.2847324 106.442797,63.104986 L106.359842,120.734407 C106.350026,127.554661 100.778598,133.091494 93.9157103,133.101271 L26.2610933,133.197664 C19.3982052,133.207428 13.8426924,127.686445 13.8524954,120.866192 L13.9354503,63.2367708 C13.9452662,56.4165172 19.5166937,50.8796835 26.3795818,50.8699067 L94.0341988,50.7735139 Z M52.9532443,54.2623659 L26.3746448,54.3002294 C21.5258651,54.3071369 17.5696948,58.1341393 17.3933419,62.9119553 L17.3872165,63.2318534 L17.3042651,120.861274 C17.2973394,125.679932 21.1369511,129.600582 25.9441486,129.762157 L26.2660303,129.767328 L52.8446299,129.729465 L52.9532443,54.2623659 Z M77.8059608,54.226961 L56.4050105,54.2574485 L56.296396,129.724547 L77.6973463,129.69406 L77.8059608,54.226961 Z M94.0292618,54.2038495 L81.257727,54.2220437 L81.1491125,129.689142 L93.9206473,129.670948 C98.769427,129.664041 102.725597,125.837038 102.90195,121.059222 L102.908076,120.739324 L102.991027,63.1099034 C102.997953,58.2912459 99.1583411,54.3705962 94.3511435,54.2090208 L94.0292618,54.2038495 Z M60.2360188,30.5828113 C61.1891977,30.5814552 61.9607967,31.3482583 61.9594351,32.2955157 C61.9581552,33.1835696 61.2779695,33.914956 60.407556,34.0040292 L60.2310817,34.0131357 L14.6677682,34.0780464 C13.7145893,34.0794025 12.9429904,33.3125994 12.9443519,32.365342 C12.9456318,31.4772881 13.6258176,30.7459017 14.496231,30.6568285 L14.6727053,30.647722 L60.2360188,30.5828113 Z M42.3026331,19.6313489 C43.255812,19.6299928 44.027411,20.3967959 44.0260495,21.3440534 C44.0247696,22.2321072 43.3445838,22.9634936 42.4741704,23.0525668 L42.2976961,23.0616734 L14.6835667,23.1010139 C13.7303878,23.10237 12.9587888,22.3355669 12.9601503,21.3883094 C12.9614303,20.5002556 13.641616,19.7688692 14.5120295,19.679796 L14.6885037,19.6706894 L42.3026331,19.6313489 Z" id="Shape" fill="#073B4C"></path>
                    <path d="M89.9338376,0 L125.85034,33.9721012 L125.85034,37.0215827 L98.2169472,37.0215827 C92.1123466,37.0215827 87.16359,32.1104339 87.16359,26.0522248 L87.16359,0 L89.9338376,0 Z M120.443867,33.5936583 L90.6177641,5.38184118 L90.6177641,26.0522248 C90.6177641,30.1156577 93.8560938,33.4284861 97.911312,33.5876702 L98.2169472,33.5936583 L120.443867,33.5936583 Z" id="Path" fill="#073B4C"></path>
                    <path d="M120.412428,33.5843706 L90.6477495,5.39527528 L90.6179713,26.080121 C90.6121269,30.1463969 93.8434279,33.4569329 97.8955898,33.6104554 L98.2010034,33.6160127 L120.412428,33.5843706 Z" id="Path" fill="#E9F4FC"></path>
                </g>
            </g>
        </g>
        <g id="tick" transform="translate(85.000000, 137.000000)">
            <circle id="Oval" stroke="#073B4C" stroke-width="2.084706" fill="#FFD166" cx="40" cy="40" r="38.957647"></circle>
            <g id="Iconly/Light-outline/Tick" transform="translate(25.507246, 22.608696)" fill="#073B4C">
                <path d="M28.0444589,0 C28.5633912,0 28.9855072,0.41946017 28.9855072,0.935111821 C28.9855072,1.45069545 28.5633912,1.87008759 28.0444589,1.87008759 L28.0444589,1.87008759 L24.4682836,1.87008759 L24.4682836,8.20423547 C24.4682836,10.5245318 23.309296,12.6765952 21.3679045,13.9607583 L21.3679045,13.9607583 L16.1891945,17.3913384 L21.3667405,20.8211702 C23.3089536,22.1059455 24.4682836,24.2580088 24.4682836,26.5784413 L24.4682836,26.5784413 L24.4682836,32.9125891 L28.0444589,32.9125891 C28.5633912,32.9125891 28.9855072,33.3320493 28.9855072,33.8476329 C28.9855072,34.3631485 28.5633912,34.7826087 28.0444589,34.7826087 L28.0444589,34.7826087 L0.941116797,34.7826087 C0.422184516,34.7826087 0,34.3631485 0,33.8475649 C0,33.3320493 0.422184516,32.9125891 0.941116797,32.9125891 L0.941116797,32.9125891 L4.51729216,32.9125891 L4.51729216,26.5784413 C4.51729216,24.2580088 5.67627972,22.1060816 7.61767118,20.8219185 L7.61767118,20.8219185 L12.7963812,17.3913384 L7.61883517,13.9614385 C5.67662207,12.6767312 4.51729216,10.5245318 4.51729216,8.20416744 L4.51729216,8.20416744 L4.51729216,1.87001956 L0.941116797,1.87001956 C0.422184516,1.87001956 0,1.45055939 0,0.935043793 C0,0.41946017 0.422184516,0 0.941116797,0 L0.941116797,0 Z M14.4927879,18.5150236 L8.66121873,22.3781252 C7.24505877,23.3150058 6.39938881,24.8852263 6.39938881,26.5784413 L6.39938881,26.5784413 L6.39938881,32.9125891 L22.5861869,32.9125891 L22.5861869,26.5784413 C22.5861869,24.8851582 21.7401746,23.3147336 20.3231245,22.3773769 L20.3231245,22.3773769 L14.4927879,18.5150236 Z M13.0744232,24.8138106 C13.8906511,24.118225 15.0948287,24.118225 15.9111252,24.8138106 C15.9615874,24.8569403 19.8820287,28.1436413 20.9235906,29.2499794 C20.9350935,29.2622925 20.946528,29.2744695 20.9578939,29.2865784 C21.650534,30.0270624 21.1194826,31.2310205 20.1016112,31.2310205 L20.1016112,31.2310205 L8.88380022,31.2310205 C7.86592882,31.2310205 7.33487739,30.0270624 8.02765439,29.2865784 C8.0389519,29.2744014 8.05045482,29.2622925 8.06195773,29.2499794 C9.10351966,28.1436413 13.023961,24.8568722 13.0744232,24.8138106 Z M22.5861184,1.87008759 L6.39938881,1.87008759 L6.39938881,8.20423547 C6.39938881,9.89738243 7.24540112,11.467875 8.66245119,12.4052998 L8.66245119,12.4052998 L14.4927879,16.2675851 L20.3242885,12.4045515 C21.74038,11.467671 22.5861184,9.89738243 22.5861184,8.20423547 L22.5861184,8.20423547 L22.5861184,1.87008759 Z" id="Combined-Shape"></path>
            </g>
        </g>
    </g>
</svg>