<svg width="107" height="128" viewBox="0 0 107 128" xmlns="http://www.w3.org/2000/svg">
    <defs>
        <clipPath id="f7ajh8ph8a">
            <path d="M360 0v640H0V0h360z"/>
        </clipPath>
        <clipPath id="a5i6s7cqtb">
            <path d="m85.675 6.99 5.397 102.044a6.99 6.99 0 0 1-6.614 7.36l-71.331 3.697a7.02 7.02 0 0 1-7.36-6.627L.37 11.42a6.99 6.99 0 0 1 6.614-7.36L78.315.364a7.02 7.02 0 0 1 7.36 6.627z"/>
        </clipPath>
        <clipPath id="funi7ejobc">
            <path d="M63.447 0c1.785 0 2.605.71 2.73.828l.016.017 16.801 15.55s1.01.88 1.01 2.295v92.002c0 2.302-1.885 4.168-4.213 4.168H4.213c-2.327 0-4.213-1.866-4.213-4.168V4.167C0 1.866 1.886 0 4.213 0h59.234z"/>
        </clipPath>
        <clipPath id="j6kws2npid">
            <path d="M85.005 0v116.857H0V0h85.005z"/>
        </clipPath>
        <clipPath id="46lxq92f4e">
            <path d="M63.803 0c2.09 0 3.083.88 3.274 1.07L83.75 16.665c.148.135 1.255 1.205 1.255 2.878v92.349a4.972 4.972 0 0 1-4.968 4.965H4.968A4.972 4.972 0 0 1 0 111.892V4.966A4.972 4.972 0 0 1 4.968 0h58.835zm0 1.565H4.968a3.405 3.405 0 0 0-3.402 3.4v106.927c0 1.875 1.526 3.4 3.402 3.4h75.07a3.405 3.405 0 0 0 3.401-3.4v-92.25H67.557c-2.824 0-3.443-2.288-3.443-3.17V1.573a5.785 5.785 0 0 0-.31-.008zm1.877.41v14.497c.007.372.164 1.605 1.877 1.605H82.92c-.123-.162-.22-.251-.222-.254a.504.504 0 0 1-.013-.012L65.995 2.202l-.037-.037c-.005-.004-.093-.087-.278-.19z"/>
        </clipPath>
        <clipPath id="tjr1dd358f">
            <path d="M24.836 0a1.999 1.999 0 0 1 1.995 1.85l.006.15-.002 4.57a2.003 2.003 0 0 1-2 2.001L2 8.576a1.999 1.999 0 0 1-1.995-1.85L0 6.579l.002-4.572c0-1.104.896-2 2-2L24.836 0z"/>
        </clipPath>
        <clipPath id="ffbn9bc5hg">
            <path d="M37.718 0a1.999 1.999 0 0 1 1.995 1.85l.005.15-.002 4.568a2.003 2.003 0 0 1-2 2L2 8.576a1.999 1.999 0 0 1-1.995-1.85L0 6.579l.002-4.57c0-1.104.896-1.999 2-2L37.718 0z"/>
        </clipPath>
        <clipPath id="dwjufy4tch">
            <path d="M37.718 0a1.999 1.999 0 0 1 1.995 1.85l.005.15-.002 4.568a2.003 2.003 0 0 1-2 2L2 8.576a1.999 1.999 0 0 1-1.995-1.85L0 6.579l.002-4.57c0-1.104.896-1.999 2-2L37.718 0z"/>
        </clipPath>
        <clipPath id="lt8fijkmxi">
            <path d="M15.556.028c8.605 0 15.583 6.966 15.583 15.556s-6.977 15.555-15.583 15.555c-8.607 0-15.584-6.964-15.584-15.555C-.028 6.994 6.95.028 15.556.028zm0 2.334c-7.315 0-13.247 5.92-13.247 13.222S8.24 28.806 15.556 28.806c7.315 0 13.246-5.92 13.246-13.222S22.87 2.362 15.556 2.362zm-3.1 8.588.112.098 2.985 2.985 2.985-2.984a1.086 1.086 0 0 1 1.635 1.427l-.097.111-2.985 2.984 2.987 2.987a1.086 1.086 0 0 1-1.424 1.632l-.11-.098-2.987-2.986-2.984 2.984a1.086 1.086 0 0 1-1.635-1.426l.097-.111 2.984-2.985-2.986-2.986a1.086 1.086 0 0 1 1.424-1.632z"/>
        </clipPath>
    </defs>
    <g clip-path="url(#f7ajh8ph8a)" transform="translate(-126 -138)">
        <g clip-path="url(#a5i6s7cqtb)" transform="translate(126 138)">
            <path fill="#E9F4FC" d="M.36.354h90.723V120.1H.359V.354z"/>
        </g>
        <g clip-path="url(#a5i6s7cqtb)" transform="translate(126 138)">
            <path d="M6.99 4.067 78.316.363a7.02 7.02 0 0 1 7.36 6.627l5.397 102.044a6.99 6.99 0 0 1-6.614 7.36c-.002 0-.004 0-.007-.007l-71.324 3.704a7.02 7.02 0 0 1-7.36-6.627L.37 11.42a6.99 6.99 0 0 1 6.614-7.36c.002 0 .004 0 .007.007z" stroke="rgba(7, 59, 76, 0.395915)" stroke-width="2" fill="none" stroke-linecap="round" stroke-linejoin="round" stroke-dasharray="4.0 4.0"/>
        </g>
        <g clip-path="url(#funi7ejobc)" transform="rotate(3 -2711.811 2900.108)">
            <path fill="#FFF" d="M0 0h84.005v114.86H0V0z"/>
        </g>
        <g clip-path="url(#j6kws2npid)" transform="rotate(3 -2692.24 2881.512)">
            <g clip-path="url(#46lxq92f4e)">
                <path fill="#063B4C" d="M0 0h85.005v116.857H0V0z"/>
            </g>
        </g>
        <g clip-path="url(#tjr1dd358f)" transform="rotate(3 -4169.884 2986.395)">
            <path fill="#DFF8F1" d="M0 0h26.837v8.576H0V0z"/>
            <path d="M2.002.005 24.836 0a1.999 1.999 0 0 1 2 2l-.001 4.57a2.003 2.003 0 0 1-2 2.001L2 8.576a1.999 1.999 0 0 1-2-2l.002-4.57c0-1.104.896-2 2-2z" stroke="#063B4C" stroke-width="3" fill="none" stroke-miterlimit="5"/>
        </g>
        <g clip-path="url(#tjr1dd358f)" transform="rotate(3 -4415.532 2979.963)">
            <path fill="#DFF8F1" d="M0 0h26.837v8.576H0V0z"/>
            <path d="M2.002.005 24.836 0a1.999 1.999 0 0 1 2 2l-.001 4.57a2.003 2.003 0 0 1-2 2.001L2 8.576a1.999 1.999 0 0 1-2-2l.002-4.57c0-1.104.896-2 2-2z" stroke="#063B4C" stroke-width="3" fill="none" stroke-miterlimit="5"/>
        </g>
        <g clip-path="url(#ffbn9bc5hg)" transform="rotate(3 -4184.912 3560.306)">
            <path fill="#FFFDE7" d="M0 0h39.718v8.576H0V0z"/>
            <path d="M2.002.008 37.718 0a1.999 1.999 0 0 1 2 2l-.002 4.568a2.003 2.003 0 0 1-2 2L2 8.576a1.999 1.999 0 0 1-2-2L.002 2.01c0-1.105.896-2 2-2z" stroke="#063B4C" stroke-width="3" fill="none" stroke-miterlimit="5"/>
        </g>
        <g>
            <g clip-path="url(#dwjufy4tch)" transform="rotate(3 -4430.56 3553.874)">
                <path fill="#FFFDE7" d="M0 0h39.718v8.576H0V0z"/>
                <path d="M2.002.008 37.718 0a1.999 1.999 0 0 1 2 2l-.002 4.568a2.003 2.003 0 0 1-2 2L2 8.576a1.999 1.999 0 0 1-2-2L.002 2.01c0-1.105.896-2 2-2z" stroke="#063B4C" stroke-width="3" fill="none" stroke-miterlimit="5"/>
            </g>
        </g>
        <g>
            <g clip-path="url(#lt8fijkmxi)" transform="rotate(2 -4895.59 5007.351)">
                <path fill="#C33" d="M-.028.028h31.167V31.14H-.028V.03z"/>
            </g>
        </g>
    </g>
</svg>
