<svg width="107" height="129" viewBox="0 0 107 129" xmlns="http://www.w3.org/2000/svg" xmlns:xlink="http://www.w3.org/1999/xlink">
    <defs>
        <path d="M6.99 4.08 78.062.365A7.006 7.006 0 0 1 85.42 6.99l5.383 102.443a6.997 6.997 0 0 1-6.623 7.356l-71.072 3.715a7.006 7.006 0 0 1-7.357-6.625L.367 11.436A6.997 6.997 0 0 1 6.99 4.08z" id="45gxhn6xta"/>
        <path id="q04r1gub8c" d="M0 0h85.16v116.873H0z"/>
        <mask id="zk19neioqb" maskContentUnits="userSpaceOnUse" maskUnits="objectBoundingBox" x="0" y="0" width="91.171" height="120.869" fill="#fff">
            <use xlink:href="#45gxhn6xta"/>
        </mask>
    </defs>
    <g fill="none" fill-rule="evenodd">
        <use stroke-opacity=".396" stroke="#073B4C" mask="url(#zk19neioqb)" stroke-width="2" fill="#E9F4FC" stroke-linecap="round" stroke-linejoin="round" stroke-dasharray="4" xlink:href="#45gxhn6xta"/>
        <path d="m105.162 30.969-4.815 91.888c-.12 2.299-2.106 4.064-4.434 3.942l-75.611-3.963c-2.328-.122-4.118-2.085-3.997-4.383L21.88 12.059c.12-2.298 2.106-4.063 4.434-3.94l59.26 3.105c1.948.102 2.703.988 2.703.988l15.994 16.412s.965.93.891 2.345" fill="#FFF"/>
        <g transform="rotate(3 -120.166 407.272)">
            <mask id="62l0sp595d" fill="#fff">
                <use xlink:href="#q04r1gub8c"/>
            </mask>
            <path d="M65.8 16.475c.007.37.164 1.605 1.88 1.605h15.39c-.123-.162-.22-.252-.223-.254a.504.504 0 0 1-.013-.012L66.115 2.202a.686.686 0 0 1-.037-.037c-.005-.004-.093-.087-.279-.19v14.5zM4.976 1.565a3.409 3.409 0 0 0-3.408 3.401v106.941a3.409 3.409 0 0 0 3.408 3.401h75.205a3.409 3.409 0 0 0 3.409-3.401V19.645H67.68c-2.83 0-3.45-2.289-3.45-3.17V1.574a5.805 5.805 0 0 0-.31-.009H4.976zm75.205 115.308H4.977c-2.745 0-4.977-2.227-4.977-4.966V4.967C0 2.227 2.232 0 4.977 0h58.942c2.093 0 3.089.88 3.28 1.07l16.703 15.597c.148.136 1.257 1.205 1.257 2.879v92.361c0 2.739-2.232 4.966-4.977 4.966z" fill="#073B4C" mask="url(#62l0sp595d)"/>
        </g>
        <path d="M62.873 22.67c.508.026.96.248 1.286.588.324.337.525.791.536 1.288-.035.593-.268 1.1-.635 1.452-.365.35-.858.542-1.39.514L30.423 24.83a1.917 1.917 0 0 1-1.328-.634 1.92 1.92 0 0 1 .143-2.717c.366-.33.858-.52 1.388-.492zM51.625 31.744c.509.026.961.248 1.289.589.324.338.526.793.536 1.29-.034.594-.268 1.102-.636 1.455-.365.35-.86.543-1.393.515l-21.5-1.121a1.92 1.92 0 0 1-1.288-.59 1.92 1.92 0 0 1-.537-1.29c.035-.594.269-1.102.636-1.455.366-.35.86-.543 1.393-.515z" stroke="#073B4C" stroke-width="1.5" fill="#E9F4FC"/>
        <path d="M51.46 47.84a1.245 1.245 0 0 1 1.183 1.194l-.242 4.684a1.249 1.249 0 0 1-1.314 1.185L28.234 53.71a1.245 1.245 0 0 1-1.183-1.312l.242-4.566a1.249 1.249 0 0 1 1.315-1.184zM50.787 60.69a1.245 1.245 0 0 1 1.183 1.194l-.242 4.684a1.249 1.249 0 0 1-1.314 1.184L27.56 66.559a1.245 1.245 0 0 1-1.183-1.194l.242-4.684a1.249 1.249 0 0 1 1.314-1.184zM50.113 73.539a1.245 1.245 0 0 1 1.183 1.312l-.241 4.566A1.249 1.249 0 0 1 49.74 80.6l-22.852-1.193a1.245 1.245 0 0 1-1.183-1.194l.241-4.684a1.249 1.249 0 0 1 1.315-1.184zM49.44 86.388a1.245 1.245 0 0 1 1.183 1.312l-.242 4.566a1.249 1.249 0 0 1-1.314 1.184l-22.853-1.193a1.245 1.245 0 0 1-1.183-1.312l.242-4.566a1.249 1.249 0 0 1 1.314-1.184zM48.767 99.237a1.245 1.245 0 0 1 1.183 1.194l-.242 4.684a1.249 1.249 0 0 1-1.315 1.184l-22.852-1.193a1.245 1.245 0 0 1-1.183-1.312l.242-4.566a1.249 1.249 0 0 1 1.314-1.184z" stroke="#073B4C" stroke-width="1.5" fill="#DFF8F1"/>
        <path d="M94.417 50.092a1.245 1.245 0 0 1 1.183 1.194l-.241 4.681a1.249 1.249 0 0 1-1.315 1.184l-35.74-1.865a1.245 1.245 0 0 1-1.183-1.312l.242-4.563a1.249 1.249 0 0 1 1.315-1.185zM93.744 62.94a1.245 1.245 0 0 1 1.183 1.194l-.241 4.682A1.249 1.249 0 0 1 93.37 70l-35.74-1.865a1.245 1.245 0 0 1-1.183-1.194l.242-4.681a1.249 1.249 0 0 1 1.314-1.184zM93.07 75.79a1.245 1.245 0 0 1 1.183 1.312l-.24 4.563a1.249 1.249 0 0 1-1.315 1.184l-35.74-1.865a1.245 1.245 0 0 1-1.183-1.194l.241-4.681a1.249 1.249 0 0 1 1.315-1.184zM92.397 88.64a1.245 1.245 0 0 1 1.183 1.312l-.241 4.562a1.249 1.249 0 0 1-1.315 1.185l-35.74-1.866a1.245 1.245 0 0 1-1.183-1.312l.242-4.563a1.249 1.249 0 0 1 1.314-1.184zM91.724 101.488a1.245 1.245 0 0 1 1.183 1.194l-.242 4.682a1.249 1.249 0 0 1-1.314 1.184l-35.74-1.866a1.245 1.245 0 0 1-1.183-1.312l.242-4.563a1.249 1.249 0 0 1 1.314-1.184z" stroke="#073B4C" stroke-width="1.5" fill="#FFFDE7"/>
    </g>
</svg>
