<svg width="130" height="131" viewBox="0 0 130 131" xmlns="http://www.w3.org/2000/svg">
    <defs>
        <clipPath id="qoly8hwrma">
            <path d="M360 0v640H0V0h360z"/>
        </clipPath>
        <clipPath id="hzw3ic2epb">
            <path d="m97.268 0 .213.003c3.549.114 6.39 3.034 6.39 6.62v43.796l-.003.215c-.113 3.558-3.025 6.408-6.6 6.408H6.604l-.214-.003C2.842 56.926 0 54.005 0 50.419V6.623l.003-.215C.116 2.85 3.028 0 6.603 0h90.665z"/>
        </clipPath>
        <clipPath id="id5g2o1zsc">
            <path d="M99.28 0c4.76 0 8.617 3.869 8.617 8.641v43.797c0 4.773-3.858 8.641-8.617 8.641H8.617C3.857 61.08 0 57.211 0 52.438V8.641C0 3.87 3.858 0 8.617 0H99.28zm0 2.019H8.617c-3.576 0-6.488 2.85-6.6 6.408l-.004.214v43.797c0 3.586 2.842 6.506 6.39 6.62l.214.003H99.28c3.576 0 6.488-2.85 6.6-6.409l.004-.214V8.641c0-3.586-2.842-6.506-6.39-6.619l-.214-.003z"/>
        </clipPath>
        <clipPath id="il3s57enbd">
            <path d="M18.12 0c10.008 0 18.12 8.13 18.12 18.159 0 10.029-8.112 18.158-18.12 18.158C8.113 36.317 0 28.187 0 18.16 0 8.129 8.113 0 18.12 0z"/>
        </clipPath>
        <clipPath id="wta5p8nbre">
            <path d="m5.21 0 .09.005c.48.046.88.41.988.9l.02.107.01.197-.002 1.498 1.957.002.104.005c.481.047.88.411.99.9l.018.107.012.197-.005.102c-.046.476-.399.89-.865 1.003l-.101.019-.193.012-4.47-.002-.109.005c-.794.06-1.41.777-1.41 1.63 0 .738.462 1.384 1.12 1.577l.118.03.224.025 2.414.003.159.003c1.999.088 3.604 1.833 3.605 3.974 0 1.845-1.194 3.43-2.86 3.862l-.162.038-.546.085.002 1.53-.005.11-.014.106a1.153 1.153 0 0 1-.85.926l-.1.019-.152.01-.194-.014-.096-.02c-.377-.095-.7-.427-.8-.853l-.021-.109-.014-.215-.001-1.5-2.462.003-.104-.005a1.14 1.14 0 0 1-.988-.9l-.019-.107-.011-.197.005-.103c.046-.475.398-.89.864-1.002l.101-.019.193-.012 4.47.002.11-.005c.793-.06 1.408-.778 1.408-1.63 0-.738-.461-1.384-1.12-1.577l-.117-.029-.223-.025-2.415-.003-.158-.004C1.605 10.573 0 8.828 0 6.687c0-2.022 1.438-3.709 3.304-3.948l.166-.018.6-.025.003-1.523.005-.11C4.123.56 4.475.142 4.94.03l.101-.02L5.21 0z"/>
        </clipPath>
        <clipPath id="lcebzgvgpf">
            <path d="M18.12 0c10.008 0 18.12 8.13 18.12 18.159 0 10.029-8.112 18.158-18.12 18.158C8.113 36.317 0 28.187 0 18.16 0 8.129 8.113 0 18.12 0zm0 1.898c-8.961 0-16.226 7.28-16.226 16.26 0 8.981 7.265 16.261 16.226 16.261 8.961 0 16.226-7.28 16.226-16.26S27.08 1.899 18.12 1.899z"/>
        </clipPath>
        <clipPath id="wipmds2ezg">
            <path d="M22.869 0c12.63 0 22.868 10.228 22.868 22.844 0 12.616-10.238 22.844-22.868 22.844C10.239 45.688 0 35.46 0 22.844 0 10.228 10.239 0 22.869 0z"/>
        </clipPath>
        <clipPath id="noscb9ikmh">
            <path d="m12.302 1.42.09.167 7.285 14.02c.118.317.187.657.205 1.007.077 1.643-1.027 3.052-2.53 3.235l-.176.015H2.764l-.032-.003-.083.002a2.639 2.639 0 0 1-.69-.136l-.222-.087C.35 19.02-.343 17.324.168 15.699l.065-.187L7.469 1.597c.257-.51.64-.93 1.1-1.208 1.31-.797 2.944-.327 3.733 1.03zm-3.01.404a1.358 1.358 0 0 0-.44.433l-.081.143-7.199 13.827c-.275.744.05 1.591.725 1.893.092.04.188.07.286.088l.15.018.03-.002 14.374.002c.73-.043 1.292-.726 1.254-1.524a2.288 2.288 0 0 0-.031-.27l-.022-.107-7.247-13.934c-.354-.703-1.158-.957-1.8-.567zm.642 12.373c.412 0 .746.332.746.747v.011a.75.75 0 0 1-.746.752.75.75 0 0 1-.747-.752c0-.415.335-.758.747-.758zm-.01-7.576c.377 0 .69.356.739.817l.007.128v3.905c0 .521-.335.944-.747.944-.378 0-.69-.355-.74-.816l-.006-.128V7.566c0-.522.334-.945.746-.945z"/>
        </clipPath>
    </defs>
    <g clip-path="url(#qoly8hwrma)" transform="translate(-115 -59)">
        <g clip-path="url(#hzw3ic2epb)" transform="translate(124.813 91.352)">
            <path fill="#E9F4FC" d="M0 0h103.871v57.042H0V0z"/>
        </g>
        <g clip-path="url(#id5g2o1zsc)" transform="translate(122.8 89.333)">
            <path fill="#063B4C" d="M0 0h107.897v61.08H0V0z"/>
        </g>
        <g clip-path="url(#hzw3ic2epb)" transform="translate(133.05 99.606)">
            <path fill="#FFF" d="M0 0h103.871v57.042H0V0z"/>
        </g>
        <g clip-path="url(#id5g2o1zsc)" transform="translate(131.036 97.587)">
            <path fill="#063B4C" d="M0 0h107.897v61.08H0V0z"/>
        </g>
        <g clip-path="url(#il3s57enbd)" transform="translate(167.277 110.794)">
            <path fill="#FFD166" d="M0 0h36.24v36.317H0V0z"/>
        </g>
        <g clip-path="url(#wta5p8nbre)" transform="translate(180.455 119.873)">
            <path fill="#063B4C" d="M0 0h9.884v18.984H0V0z"/>
        </g>
        <g clip-path="url(#lcebzgvgpf)" transform="translate(167.277 110.794)">
            <path fill="#063B4C" d="M0 0h36.24v36.317H0V0z"/>
        </g>
        <g>
            <g clip-path="url(#wipmds2ezg)" transform="translate(186.964 143.44)">
                <path fill="#FFD166" d="M0 0h45.737v45.688H0V0z"/>
            </g>
            <path d="M209.832 189.129c12.63 0 22.869-10.228 22.869-22.844 0-12.617-10.239-22.844-22.869-22.844-12.63 0-22.868 10.227-22.868 22.844 0 12.616 10.238 22.844 22.868 22.844z" stroke="#063B4C" stroke-width="1.733" fill="none" stroke-miterlimit="10"/>
            <g clip-path="url(#noscb9ikmh)" transform="translate(199.89 156.352)">
                <path fill="#063B4C" d="M0 0h19.886v19.864H0V0z"/>
            </g>
        </g>
    </g>
</svg>
