<svg xmlns="http://www.w3.org/2000/svg" width="104" height="155" viewBox="0 0 104 155">
    <g fill="none" fill-rule="evenodd">
        <g>
            <g>
                <g fill-rule="nonzero">
                    <path fill="#052C50" d="M9 0h62c4.97 0 9 4.03 9 9v137c0 4.97-4.03 9-9 9H9c-4.97 0-9-4.03-9-9V9c0-4.97 4.03-9 9-9zm62 3H58.5l-1.076 3.874c-.842 3.03-3.6 5.126-6.745 5.126H29.321c-3.145 0-5.903-2.097-6.745-5.126L21.499 3H9C5.762 3 3.122 5.566 3.004 8.775L3 9v137c0 3.238 2.566 5.878 5.775 5.996L9 152h62c3.238 0 5.878-2.566 5.996-5.775L77 146V9c0-3.238-2.566-5.878-5.775-5.996L71 3zM51.5 142c.828 0 1.5.672 1.5 1.5 0 .78-.595 1.42-1.356 1.493L51.5 145h-23c-.828 0-1.5-.672-1.5-1.5 0-.78.595-1.42 1.356-1.493L28.5 142h23zM55.386 3H24.613l.854 3.07c.462 1.665 1.937 2.837 3.647 2.925l.207.005h21.358c1.728 0 3.252-1.108 3.794-2.732l.06-.197L55.386 3z" transform="translate(-140 -116) translate(140 116)"/>
                    <path fill="#E9F4FC" d="M56 3H24l.888 3.07c.48 1.665 2.014 2.837 3.793 2.925l.214.005h22.21c1.797 0 3.382-1.108 3.946-2.732l.062-.197L56 3z" transform="translate(-140 -116) translate(140 116)"/>
                    <g>
                        <path fill="#E9F4FC" d="M47 3H8C5.311 3 3.118 5.122 3.005 7.783L3 8v39c0 2.689 2.122 4.882 4.783 4.995L8 52h39c2.689 0 4.882-2.122 4.995-4.783L52 47V8c0-2.689-2.122-4.882-4.783-4.995L47 3z" transform="translate(-140 -116) translate(140 116) translate(13 44)"/>
                        <path fill="#FFD166" d="M19.5 34c.276 0 .5.224.5.5v10c0 .276-.224.5-.5.5h-10c-.276 0-.5-.224-.5-.5v-10c0-.276.224-.5.5-.5h10zm26 0c.276 0 .5.224.5.5v10c0 .276-.224.5-.5.5h-10c-.276 0-.5-.224-.5-.5v-10c0-.276.224-.5.5-.5h10zm-26-24c.276 0 .5.224.5.5v10c0 .276-.224.5-.5.5h-10c-.276 0-.5-.224-.5-.5v-10c0-.276.224-.5.5-.5h10zm26 0c.276 0 .5.224.5.5v10c0 .276-.224.5-.5.5h-10c-.276 0-.5-.224-.5-.5v-10c0-.276.224-.5.5-.5h10z" transform="translate(-140 -116) translate(140 116) translate(13 44)"/>
                        <path fill="#052C50" d="M47 0c4.418 0 8 3.582 8 8v39c0 4.418-3.582 8-8 8H8c-4.418 0-8-3.582-8-8V8c0-4.418 3.582-8 8-8h39zm0 3H8C5.311 3 3.118 5.122 3.005 7.783L3 8v39c0 2.689 2.122 4.882 4.783 4.995L8 52h39c2.689 0 4.882-2.122 4.995-4.783L52 47V8c0-2.689-2.122-4.882-4.783-4.995L47 3zM19.5 31c1.869 0 3.395 1.464 3.495 3.308L23 34.5v10c0 1.869-1.464 3.395-3.308 3.495L19.5 48h-10c-1.869 0-3.395-1.464-3.495-3.308L6 44.5v-10c0-1.869 1.464-3.395 3.308-3.495L9.5 31h10zm26 0c1.869 0 3.395 1.464 3.495 3.308L49 34.5v10c0 1.869-1.464 3.395-3.308 3.495L45.5 48h-10c-1.869 0-3.395-1.464-3.495-3.308L32 44.5v-10c0-1.869 1.464-3.395 3.308-3.495L35.5 31h10zm-18-24c.78 0 1.42.595 1.493 1.356L29 8.5V26h17.5c.828 0 1.5.672 1.5 1.5 0 .78-.595 1.42-1.356 1.493L46.5 29H29v17.5c0 .828-.672 1.5-1.5 1.5-.78 0-1.42-.595-1.493-1.356L26 46.5V29H13.5c-.828 0-1.5-.672-1.5-1.5 0-.78.595-1.42 1.356-1.493L13.5 26H26V8.5c0-.828.672-1.5 1.5-1.5zm-8 27h-10c-.245 0-.45.177-.492.41L9 34.5v10c0 .245.177.45.41.492L9.5 45h10c.245 0 .45-.177.492-.41L20 44.5v-10c0-.276-.224-.5-.5-.5zm26 0h-10c-.245 0-.45.177-.492.41L35 34.5v10c0 .245.177.45.41.492l.09.008h10c.245 0 .45-.177.492-.41L46 44.5v-10c0-.276-.224-.5-.5-.5zM16 37c.552 0 1 .448 1 1v3c0 .552-.448 1-1 1h-3c-.552 0-1-.448-1-1v-3c0-.552.448-1 1-1h3zm26 0c.552 0 1 .448 1 1v3c0 .552-.448 1-1 1h-3c-.552 0-1-.448-1-1v-3c0-.552.448-1 1-1h3zm-27 2h-1v1h1v-1zm26 0h-1v1h1v-1zM7.5 26c.828 0 1.5.672 1.5 1.5S8.328 29 7.5 29 6 28.328 6 27.5 6.672 26 7.5 26zm12-19c1.869 0 3.395 1.464 3.495 3.308L23 10.5v10c0 1.869-1.464 3.395-3.308 3.495L19.5 24h-10c-1.869 0-3.395-1.464-3.495-3.308L6 20.5v-10c0-1.869 1.464-3.395 3.308-3.495L9.5 7h10zm26 0c1.869 0 3.395 1.464 3.495 3.308L49 10.5v10c0 1.869-1.464 3.395-3.308 3.495L45.5 24h-10c-1.869 0-3.395-1.464-3.495-3.308L32 20.5v-10c0-1.869 1.464-3.395 3.308-3.495L35.5 7h10zm-26 3h-10c-.245 0-.45.177-.492.41L9 10.5v10c0 .245.177.45.41.492L9.5 21h10c.245 0 .45-.177.492-.41L20 20.5v-10c0-.276-.224-.5-.5-.5zm26 0h-10c-.245 0-.45.177-.492.41L35 10.5v10c0 .245.177.45.41.492l.09.008h10c.245 0 .45-.177.492-.41L46 20.5v-10c0-.276-.224-.5-.5-.5zM16 13c.552 0 1 .448 1 1v3c0 .552-.448 1-1 1h-3c-.552 0-1-.448-1-1v-3c0-.552.448-1 1-1h3zm26 0c.552 0 1 .448 1 1v3c0 .552-.448 1-1 1h-3c-.552 0-1-.448-1-1v-3c0-.552.448-1 1-1h3zm-27 2h-1v1h1v-1zm26 0h-1v1h1v-1z" transform="translate(-140 -116) translate(140 116) translate(13 44)"/>
                    </g>
                </g>
                <g transform="translate(-140 -116) translate(140 116) translate(56 77)">
                    <circle cx="24" cy="24" r="24" fill="#C33"/>
                    <g fill="#FFF">
                        <path d="M7.988 6.606l.093.082L19.2 17.808l11.12-11.12.092-.082c.386-.3.945-.273 1.3.082.384.385.384 1.008 0 1.393L20.592 19.2l11.12 11.12c.384.384.384 1.007 0 1.392-.355.355-.914.382-1.3.082l-.093-.082L19.2 20.592 8.08 31.712l-.092.082c-.386.3-.945.273-1.3-.082-.384-.385-.384-1.008 0-1.393L17.808 19.2 6.688 8.08c-.384-.384-.384-1.007 0-1.392.355-.355.914-.382 1.3-.082z" transform="translate(4.8 4.8)"/>
                    </g>
                </g>
            </g>
        </g>
    </g>
</svg>
