<svg xmlns="http://www.w3.org/2000/svg" width="20" height="20" viewBox="0 0 20 20">
    <g fill="none" fill-rule="evenodd" opacity=".4">
        <g fill="#200E32" fill-rule="nonzero">
            <g>
                <g>
                    <g>
                        <path d="M8.01 0c4.423 0 8.01 3.507 8.01 7.833 0 2.041-.8 3.9-2.108 5.294l2.573 2.51c.242.235.242.617.002.852-.22.215-.562.235-.804.06l-.069-.058-2.604-2.54c-1.37 1.073-3.109 1.714-5 1.714C3.586 15.665 0 12.16 0 7.833 0 3.507 3.586 0 8.01 0zm0 1.206c-3.743 0-6.776 2.967-6.776 6.627 0 3.66 3.033 6.626 6.776 6.626 3.742 0 6.776-2.967 6.776-6.626 0-3.66-3.034-6.627-6.776-6.627z" transform="translate(-25 -245) translate(15 228) translate(10 16) translate(0 1) translate(1.667 1.667)"/>
                    </g>
                </g>
            </g>
        </g>
    </g>
</svg>
