<svg xmlns="http://www.w3.org/2000/svg" xmlns:xlink="http://www.w3.org/1999/xlink" width="101" height="76" viewBox="0 0 101 76">
    <defs>
        <path id="k4aryf7qta" d="M0 0L12.743 0 12.743 22.592 0 22.592z"/>
    </defs>
    <g fill="none" fill-rule="evenodd">
        <g>
            <g>
                <path fill="#FFF" d="M8.862 2.347l.027-.36c.04-.502-.113-.982-.43-1.352C8.142.267 7.689.04 7.182.002c-.512-.02-.997.12-1.363.436-.362.316-.583.773-.62 1.284l-.028.386C2.691 2.49.757 4.532.584 7.041c-.191 2.446 1.325 4.714 3.697 5.52l2.963.961c.74.255 1.221.977 1.168 1.756-.032.456-.237.87-.577 1.161-.336.286-.766.43-1.225.388l-1.472-.107c-.417-.028-.794-.21-1.059-.516-.258-.297-.384-.682-.354-1.081.082-1.03-.667-1.902-1.702-1.986-.511-.05-.987.113-1.364.43-.376.318-.606.769-.647 1.28-.166 2.511 1.462 4.743 3.853 5.397l-.028.379c-.056 1.044.696 1.886 1.738 1.962.053.004.106.006.16.006.426 0 .831-.148 1.157-.423.382-.322.614-.78.656-1.299l.027-.382c2.479-.364 4.411-2.405 4.588-4.94.186-2.466-1.332-4.735-3.696-5.517l-2.974-.968c-.738-.238-1.226-.97-1.158-1.751.031-.454.234-.867.573-1.16.338-.293.77-.447 1.225-.406l1.47.103c.856.062 1.479.775 1.419 1.62-.04.5.112.98.43 1.35.317.369.769.593 1.29.634 1.077.066 1.908-.691 1.99-1.72v-.006c.168-2.48-1.5-4.744-3.87-5.379" transform="translate(-44 -398) translate(44 398)"/>
                <g transform="translate(-44 -398) translate(44 398) translate(88.257 53.408)">
                    <mask id="v1udcoittb" fill="#fff">
                        <use xlink:href="#k4aryf7qta"/>
                    </mask>
                    <path fill="#FFF" d="M6.133 5.746l1.472.104c.854.06 1.477.774 1.417 1.62-.04.499.113.98.43 1.349s.769.594 1.292.634c1.075.057 1.907-.69 1.988-1.72v-.006c.168-2.48-1.498-4.744-3.87-5.379l.029-.36c.04-.502-.114-.983-.432-1.352C8.142.27 7.692.042 7.184.003 6.67-.024 6.186.121 5.821.44c-.364.316-.585.773-.621 1.282l-.029.388C2.691 2.49.76 4.534.584 7.042c-.191 2.446 1.327 4.714 3.697 5.52l2.964.962c.74.254 1.22.977 1.167 1.756-.032.455-.237.869-.575 1.16-.338.287-.766.425-1.227.389l-1.472-.107c-.417-.028-.792-.21-1.057-.517-.259-.297-.385-.682-.355-1.08.08-1.033-.666-1.903-1.702-1.986-.515-.041-.988.111-1.363.429-.378.318-.608.77-.65 1.28-.165 2.512 1.463 4.742 3.854 5.396l-.028.38c-.054 1.045.696 1.887 1.738 1.962.053.005.107.006.16.006.426 0 .833-.147 1.159-.422.38-.322.613-.781.654-1.3l.028-.381c2.48-.365 4.412-2.405 4.588-4.94.186-2.467-1.333-4.735-3.697-5.517l-2.974-.968c-.738-.239-1.225-.97-1.157-1.752.032-.454.235-.867.574-1.16.336-.293.77-.442 1.223-.406" mask="url(#v1udcoittb)"/>
                </g>
                <path fill="#FFF" d="M63.638 62.4c-.69 6.53-6.199 11.001-13.483 11.001h-.035c-5.952-.01-11.342-3.085-13.76-11.344l.003-.007c-7.336-3.666-14.162-10.782-14.162-21.39 0-.905.738-1.637 1.642-1.637.453 0 1.195.082 2.828.258 7.787.901 15.615 1.362 23.45 1.379 8.707-.007 17.405-.547 26.048-1.617.473-.075.953.066 1.311.382.36.31.56.76.56 1.235 0 11.718-6.246 18.489-14.402 21.74M37.236 26.548l-3.34-1.084c-2.726-.93-4.47-3.54-4.253-6.35.2-2.858 2.377-5.185 5.18-5.66l.026-.34c.044-.614.31-1.16.75-1.538.436-.378 1.013-.57 1.62-.515.605.049 1.144.319 1.524.762.377.441.558 1.011.509 1.607l-.02.306c2.676.765 4.546 3.341 4.354 6.164v.006c-.095 1.232-1.094 2.157-2.367 2.057-.626-.049-1.163-.318-1.543-.757-.38-.442-.563-1.015-.514-1.614.062-.883-.59-1.63-1.486-1.693l-1.663-.121c-.99-.08-1.826.661-1.894 1.654-.073.828.441 1.6 1.22 1.854l3.355 1.091c2.719.902 4.465 3.511 4.254 6.347-.2 2.882-2.377 5.213-5.184 5.669l-.025.335c-.049.617-.326 1.165-.78 1.548-.39.33-.876.505-1.387.505-.061 0-.125-.002-.186-.007-1.243-.092-2.139-1.1-2.074-2.34l.024-.335c-2.697-.782-4.527-3.322-4.34-6.18.102-1.248 1.147-2.15 2.403-2.04.599.045 1.14.316 1.517.757.379.445.56 1.016.511 1.613-.03.413.1.817.372 1.13.277.317.671.51 1.11.539l1.664.12c.482.046.936-.106 1.29-.408.36-.31.576-.743.607-1.227.06-.823-.447-1.585-1.234-1.855m23.2-12.912l-.007-.343c-.013-.61.199-1.175.596-1.591.4-.42.958-.657 1.571-.67.615.015 1.17.208 1.589.612.417.405.65.958.658 1.56l.007.306c2.736.51 4.841 2.901 4.917 5.727v.011c.016 1.23-.913 2.203-2.162 2.265h-.03c-1.255 0-2.226-.947-2.246-2.167-.01-.432-.183-.83-.489-1.119-.304-.29-.698-.443-1.147-.43l-1.67.034c-.992.027-1.755.828-1.731 1.826.008.83.592 1.552 1.39 1.73l3.445.775c2.793.641 4.777 3.076 4.827 5.92.073 2.888-1.877 5.41-4.627 6.129l.007.333c.01.617-.213 1.189-.63 1.615-.401.41-.942.637-1.523.642h-.05c-1.219 0-2.179-.91-2.23-2.135l-.009-.333c-2.76-.53-4.82-2.892-4.9-5.754-.009-.605.21-1.164.618-1.583.412-.424.973-.662 1.578-.67h.04c1.22 0 2.185.945 2.206 2.167.008.42.178.807.476 1.092.307.293.744.441 1.155.44l1.666-.04c.484-.005.923-.19 1.246-.525.331-.34.506-.794.494-1.28-.022-.825-.6-1.54-1.405-1.732l-3.424-.767c-2.804-.67-4.785-3.107-4.832-5.927-.071-2.864 1.877-5.383 4.627-6.118M50.12 3.012c-19.954 0-36.13 16.122-36.13 36.01 0 19.893 16.176 36.013 36.13 36.013 19.954 0 36.127-16.12 36.127-36.012C86.23 19.148 70.063 3.037 50.12 3.013" transform="translate(-44 -398) translate(44 398)"/>
                <path fill="#FFF" d="M57.71 45.29H42.878c-1.494 0-2.706 1.153-2.706 2.575v12.167c0 5.112 4.355 9.258 9.727 9.258 5.943 0 10.761-4.587 10.761-10.242v-10.95c0-1.551-1.32-2.808-2.95-2.808" transform="translate(-44 -398) translate(44 398)"/>
            </g>
        </g>
    </g>
</svg>
