<svg xmlns="http://www.w3.org/2000/svg" xmlns:xlink="http://www.w3.org/1999/xlink" width="74" height="57" viewBox="0 0 74 57">
    <defs>
        <path id="4gaoj73yda" d="M0 0L74 0 74 57 0 57z"/>
    </defs>
    <g fill="none" fill-rule="evenodd">
        <g>
            <g transform="translate(-228 -259) translate(228 259)">
                <mask id="5lobokdvgb" fill="#fff">
                    <use xlink:href="#4gaoj73yda"/>
                </mask>
                <path fill="#FFF" d="M57.178 36.16c-1.416 0-2.565-1.183-2.565-2.642 0-1.46 1.15-2.643 2.565-2.643 1.416 0 2.565 1.183 2.565 2.643 0 1.46-1.15 2.642-2.565 2.642m-1.901 5.672c-2.722 9.291-11 6.276-10.7-.311.023-.516.435-.926.937-.926h8.864c.625 0 1.079.622.899 1.237M38.666 36.16c-1.416 0-2.565-1.183-2.565-2.642 0-1.46 1.15-2.643 2.565-2.643s2.564 1.183 2.564 2.643c0 1.46-1.149 2.642-2.564 2.642m33.022-19.01c-4.095 2.324-11.085 5.894-14.195 5.14C51.445 20.842 41.725 6.243 38.238.727c-.613-.97-1.983-.97-2.595.002-3.486 5.515-13.183 20.113-19.124 21.56-3.112.756-10.114-2.823-14.208-5.147-1.194-.678-2.59.437-2.263 1.799l8.394 34.988C8.874 55.733 10.445 57 12.248 57H61.764c1.726 0 3.231-1.212 3.652-2.938l8.535-35.107c.33-1.365-1.067-2.485-2.263-1.805" mask="url(#5lobokdvgb)"/>
            </g>
        </g>
    </g>
</svg>
