<svg xmlns="http://www.w3.org/2000/svg" width="81" height="61" viewBox="0 0 81 61">
    <g fill="none" fill-rule="evenodd">
        <g fill="#FFF">
            <g>
        <path id="9ywwwerkwa" d="M13.86 0c-.181 0-.272 0-.451.081h-.09c-.093 0-.184.083-.275.083 0 0-.09 0-.09.08-.092.163-.18.163-.272.245 0 0-.089 0-.089.08l-.271.245L.272 17.906v.083c-.09.081-.09.161-.18.243v.082C0 18.476 0 18.559 0 18.722V19.21c0 .081.092.163.092.326v.082c.09.082.18.243.27.325l36.233 35.652.09.08.091.082.092.081h.181c.09 0 .09.082.182.082 0 0 .09 0 .09.08H38.769s.092 0 .092-.08c.09 0 .09-.082.182-.082h.089l.092-.08.09-.083.09-.08.092-.083 36.14-35.651c.09-.081.184-.161.272-.325v-.08c.092-.083.092-.165.092-.326V18.64c0-.164 0-.244-.092-.408v-.082c0-.08-.088-.161-.182-.244v-.08L63.68.732 63.41.49s-.09 0-.09-.082c-.092-.08-.18-.08-.274-.163 0 0-.089 0-.089-.08-.091 0-.183-.083-.273-.083h-.09c-.09 0-.272-.081-.453-.081H13.86zm35.26 14.339l-6.485-9.134c-.558-.784.006-1.869.974-1.869h12.968c.967 0 1.532 1.085.975 1.87l-6.484 9.133c-.238.334-.606.5-.975.5-.367 0-.736-.166-.974-.5zm-24.096 0L18.54 5.205c-.559-.784.006-1.869.973-1.869H32.48c.968 0 1.532 1.085.975 1.87l-6.484 9.133c-.237.334-.606.5-.974.5-.369 0-.737-.166-.974-.5zM37.072 6.1c.474-.673 1.474-.673 1.95-.005l6.483 9.127c.557.787-.01 1.87-.975 1.87H29.313l-.054.082v-.082h.054L37.073 6.1zM6.39 15.307l6.494-9.204c.474-.673 1.477-.673 1.95 0l6.495 9.204c.554.786-.011 1.867-.976 1.867H7.367c-.967 0-1.532-1.081-.977-1.867zm48.383-.003l6.484-9.131c.475-.67 1.473-.67 1.948 0l6.484 9.13c.558.787-.007 1.87-.974 1.87h-12.97c-.966 0-1.53-1.083-.972-1.87zM43.72 43.299l7.458-22.061c.163-.482.619-.808 1.13-.808h14.99c1.066 0 1.596 1.285.839 2.029l-22.45 22.06c-.248.243-.541.35-.826.35-.742 0-1.431-.715-1.141-1.57zm-6.805 2.194l-7.942-23.5c-.26-.767.315-1.563 1.13-1.563h15.886c.814 0 1.388.796 1.13 1.563l-7.943 23.5c-.183.539-.657.808-1.13.808-.474 0-.948-.27-1.131-.808zm-6.511-.974l-22.45-22.06c-.757-.744-.227-2.029.84-2.029h14.988c.511 0 .967.326 1.13.808l7.459 22.06c.29.856-.4 1.57-1.142 1.57-.284 0-.578-.106-.825-.35z"/>
        <path id="3onktsk3zc" d="M13.86 0c-.181 0-.272 0-.451.081h-.09c-.093 0-.184.083-.275.083 0 0-.09 0-.09.08-.092.163-.18.163-.272.245 0 0-.089 0-.089.08l-.271.245L.272 17.906v.083c-.09.081-.09.161-.18.243v.082C0 18.476 0 18.559 0 18.722V19.21c0 .081.092.163.092.326v.082c.09.082.18.243.27.325l36.233 35.652.09.08.091.082.092.081h.181c.09 0 .09.082.182.082 0 0 .09 0 .09.08H38.769s.092 0 .092-.08c.09 0 .09-.082.182-.082h.089l.092-.08.09-.083.09-.08.092-.083 36.14-35.651c.09-.081.184-.161.272-.325v-.08c.092-.083.092-.165.092-.326V18.64c0-.164 0-.244-.092-.408v-.082c0-.08-.088-.161-.182-.244v-.08L63.68.732 63.41.49s-.09 0-.09-.082c-.092-.08-.18-.08-.274-.163 0 0-.089 0-.089-.08-.091 0-.183-.083-.273-.083h-.09c-.09 0-.272-.081-.453-.081H13.86zm35.26 14.339l-6.485-9.134c-.558-.784.006-1.869.974-1.869h12.968c.967 0 1.532 1.085.975 1.87l-6.484 9.133c-.238.334-.606.5-.973.5-.37 0-.738-.166-.976-.5zm-24.096 0L18.54 5.205c-.559-.784.006-1.869.973-1.869H32.48c.968 0 1.532 1.085.975 1.87l-6.484 9.133c-.239.334-.606.5-.975.5-.368 0-.736-.166-.973-.5zm4.235 2.753h.054L37.073 6.1c.473-.673 1.473-.673 1.949-.005l6.483 9.127c.557.787-.01 1.87-.975 1.87H29.313l-.054.082v-.082zm-22.87-1.785l6.495-9.204c.474-.673 1.477-.673 1.95 0l6.495 9.204c.554.786-.011 1.867-.976 1.867H7.367c-.967 0-1.532-1.081-.977-1.867zm48.384-.003l6.484-9.131c.475-.67 1.473-.67 1.948 0l6.484 9.13c.558.787-.007 1.87-.974 1.87h-12.97c-.966 0-1.53-1.083-.972-1.87zM43.72 43.299l7.458-22.061c.163-.482.619-.808 1.13-.808h14.99c1.066 0 1.596 1.285.839 2.029l-22.45 22.06c-.248.243-.54.35-.826.35-.742 0-1.43-.716-1.141-1.57zm-6.805 2.194l-7.942-23.5c-.26-.767.315-1.563 1.13-1.563h15.886c.814 0 1.388.796 1.13 1.563l-7.943 23.5c-.183.539-.657.808-1.13.808-.474 0-.95-.27-1.131-.808zm-6.511-.974l-22.45-22.06c-.757-.744-.227-2.029.84-2.029h14.988c.511 0 .967.326 1.13.808l7.459 22.06c.29.855-.4 1.57-1.142 1.57-.286 0-.577-.106-.825-.35z"/>
     </g>
        </g>
    </g>
</svg>
