<svg xmlns="http://www.w3.org/2000/svg" xmlns:xlink="http://www.w3.org/1999/xlink" width="24" height="24" viewBox="0 0 24 24">
    <defs>
        <path id="7b5pbo1aya" d="M0 0L24 0 24 24 0 24z"/>
    </defs>
    <g fill="none" fill-rule="evenodd">
        <g>
            <g transform="translate(-17 -458) translate(17 458)">
                <mask id="7l5islgn1b" fill="#fff">
                    <use xlink:href="#7b5pbo1aya"/>
                </mask>
                <path fill="currentColor" d="M14.06 11.599c-.221 0-.437.03-.642.086l-.642.175 1.458 1.459-.913.913-1.453-1.455-.18.635c-.021.077-.019.168-.033.25h-.053v.397c0 1.354 1.106 2.458 2.46 2.458 1.353 0 2.457-1.105 2.457-2.458 0-1.354-1.104-2.46-2.458-2.46zm-.004-3.095c-1.13 0-2.182.341-3.06.923l-.393.26 1.293 1.294.259-.155c.54-.325 1.197-.52 1.9-.52 2.072 0 3.743 1.674 3.743 3.748 0 2.074-1.67 3.746-3.743 3.746s-3.746-1.672-3.746-3.746c0-.696.189-1.345.518-1.904l.153-.258-1.29-1.291-.26.388c-.579.861-.923 1.92-.923 3.054v.39h.079c.206 2.875 2.546 5.17 5.47 5.17 3.06 0 5.548-2.489 5.548-5.55 0-3.06-2.489-5.549-5.548-5.549zm.003-3.094c-1.996 0-3.836.68-5.299 1.82l-.345.268 1.278 1.278.268-.202c1.126-.85 2.55-1.361 4.097-1.361 3.782 0 6.84 3.06 6.84 6.843s-3.058 6.843-6.84 6.843-6.84-3.06-6.84-6.843c0-1.54.507-2.957 1.362-4.1l.2-.266L7.504 8.41l-.268.342c-1.136 1.449-1.819 3.298-1.819 5.303 0 4.763 3.867 8.632 8.628 8.632h.94l-.157-.157c4.387-.407 7.87-3.988 7.87-8.482 0-4.767-3.873-8.638-8.637-8.638zM3.818.002c.137.012.263.064.378.178l3.093 3.094c.116.117.188.276.188.457v2.846l.619-.47c1.64-1.242 3.714-1.99 5.966-1.99 5.493 0 9.938 4.446 9.938 9.941C24 19.554 19.555 24 14.062 24s-9.937-4.446-9.937-9.942c0-2.252.746-4.325 2.007-5.99l.001-.002-.307-.234-.306-.235.095-.125H3.739c-.18 0-.34-.072-.456-.188L.19 4.189C.072 4.071 0 3.912 0 3.733c0-.089.017-.17.048-.246l.002-.002c.101-.24.325-.399.595-.399h2.448V.636c0-.36.277-.592.586-.63.048-.007.094-.007.14-.004h-.001z" mask="url(#7l5islgn1b)"/>
            </g>
        </g>
    </g>
</svg>
