<svg width="131" height="126" viewBox="0 0 131 126" xmlns="http://www.w3.org/2000/svg">
    <g transform="translate(.725)" fill="none" fill-rule="evenodd">
        <g fill-rule="nonzero">
            <path d="m46.614 13.828-8.098 2.17-.016 2.729c-.012 2.134-1.43 3.99-3.468 4.535L21.196 26.97c-2.037.546-4.193-.352-5.271-2.194l-1.38-2.356-8.096 2.17c-2.098.562-3.357 2.704-2.869 4.831l.037.149 24.095 89.924c.57 2.126 2.696 3.412 4.796 2.933l.146-.036 40.165-10.763c2.098-.562 3.357-2.704 2.869-4.831l-.037-.148-24.095-89.925c-.57-2.125-2.696-3.412-4.796-2.933l-.146.037z" fill="#FFF"/>
            <path d="M5.847 22.578 46.13 11.785c3.23-.865 6.557 1.081 7.432 4.347l24.122 90.027c.876 3.266-1.033 6.616-4.262 7.48l-40.282 10.794c-3.23.866-6.557-1.08-7.432-4.347L1.585 30.059c-.876-3.266 1.033-6.615 4.262-7.48zm40.81-8.822-8.121 2.176-.017 2.733c-.014 2.138-1.437 3.996-3.48 4.543l-13.876 3.718c-2.043.548-4.205-.35-5.285-2.194l-1.382-2.358-8.12 2.176c-2.104.563-3.367 2.709-2.88 4.839l.038.148 24.122 90.027c.57 2.128 2.702 3.415 4.808 2.934l.147-.036 40.281-10.794c2.104-.563 3.367-2.709 2.88-4.838l-.038-.149-24.122-90.026c-.57-2.128-2.702-3.416-4.808-2.935l-.147.036zm11.806 94.736a1.015 1.015 0 0 1 1.238.724 1.016 1.016 0 0 1-.618 1.218l-.092.03-14.943 4.003a1.015 1.015 0 0 1-1.239-.724 1.016 1.016 0 0 1 .618-1.217l.092-.03 14.944-4.004zm-21.95-92.018-19.994 5.358 1.096 1.869a2.697 2.697 0 0 0 2.884 1.286l.135-.032 13.877-3.718a2.693 2.693 0 0 0 1.984-2.456l.004-.14.014-2.167z" fill="#073B4C"/>
            <path d="m36.876 16.437-20.69 5.544 1.13 1.92a2.787 2.787 0 0 0 2.982 1.319l.14-.034 14.36-3.847a2.785 2.785 0 0 0 2.056-2.53l.005-.144.017-2.228z" fill="#FFD166"/>
        </g>
        <path d="M121.483 75.249h-53.04c-1.22 0-2.209.983-2.209 2.195v5.897h57.457v-5.897a2.201 2.201 0 0 0-2.208-2.195" fill="#E9F4FC"/>
        <path fill="#FFF" d="M70.909 79.717h24.793V54.1H70.909z"/>
        <path fill="#F4D77D" d="M75.602 78.798h5.041V53.797h-5.04z"/>
        <path d="M122.768 69.766 97.14 107.152a2.077 2.077 0 0 1-2.875.542L75.444 94.942a2.05 2.05 0 0 1-.545-2.86l25.627-37.386a2.077 2.077 0 0 1 2.876-.542l18.821 12.752a2.05 2.05 0 0 1 .545 2.86" fill="#E9F4FC"/>
        <path d="M99.557 61.444 80.862 88.719c-.267.39-.293.898-.06 1.31.644 1.133.901 2.45.732 3.74-.061.464.15.922.539 1.185l9.757 6.61c.388.264.894.292 1.305.066a6.1 6.1 0 0 1 3.77-.692c.47.066.937-.143 1.205-.534l18.695-27.274c.267-.39.293-.9.06-1.31a6.006 6.006 0 0 1-.732-3.742 1.239 1.239 0 0 0-.539-1.184l-9.756-6.61a1.255 1.255 0 0 0-1.307-.066 6.1 6.1 0 0 1-3.769.692 1.253 1.253 0 0 0-1.205.534" fill="#FFF"/>
        <path d="M101.697 71.74c3.698 0 6.695 2.98 6.695 6.657s-2.997 6.657-6.695 6.657c-3.698 0-6.696-2.98-6.696-6.657 0-3.676 2.998-6.657 6.696-6.657" fill="#F4D77D"/>
        <path d="M122.248 116.46H66.879a3.175 3.175 0 0 1-3.184-3.165V81.964a3.175 3.175 0 0 1 3.184-3.166h55.369a3.175 3.175 0 0 1 3.184 3.166v31.331a3.175 3.175 0 0 1-3.184 3.166" fill="#FFF"/>
        <path d="M122.248 78.798H66.879a3.175 3.175 0 0 0-3.184 3.166v3.469h61.737v-3.47a3.175 3.175 0 0 0-3.184-3.165M66.88 116.46h55.368a3.175 3.175 0 0 0 3.184-3.165v-3.47H63.695v3.47a3.175 3.175 0 0 0 3.184 3.166" fill="#E9F4FC"/>
        <path d="M127.328 91.577h-11.61c-3.362 0-6.087 2.71-6.087 6.052 0 3.343 2.725 6.052 6.087 6.052h11.61a1.15 1.15 0 0 0 1.153-1.147v-9.81a1.15 1.15 0 0 0-1.153-1.147" fill="#FFD166"/>
        <path d="M115.935 94.82a2.818 2.818 0 0 1 2.826 2.81 2.818 2.818 0 0 1-2.826 2.81 2.818 2.818 0 0 1-2.827-2.81 2.818 2.818 0 0 1 2.827-2.81" fill="#E9F4FC"/>
        <path d="M76.136 102.208a2.835 2.835 0 0 0-1.328-.329H58.214a2.827 2.827 0 0 0-2.836 2.82 2.827 2.827 0 0 0 2.836 2.818h12.912a11.63 11.63 0 0 1 5.01-5.309M70.137 113.688H58.792a2.827 2.827 0 0 0-2.835 2.819 2.827 2.827 0 0 0 2.835 2.819h13.64a11.425 11.425 0 0 1-2.295-5.638M70.056 112.346c0-1.63.344-3.182.96-4.589H60.854a2.827 2.827 0 0 0-2.835 2.819c0 1.557 1.27 2.819 2.835 2.819h9.253c-.032-.346-.05-.696-.05-1.05" fill="#F4D77D"/>
        <path d="M81.649 100.44c-6.604 0-11.976 5.34-11.976 11.906 0 6.565 5.372 11.906 11.976 11.906 6.603 0 11.975-5.34 11.975-11.906 0-6.565-5.372-11.906-11.975-11.906" fill="#F4D77D"/>
        <path d="M93.143 53.08c2.074 0 3.762 1.651 3.762 3.68v1.988l3.045-4.442a2.752 2.752 0 0 1 1.772-1.154 2.754 2.754 0 0 1 2.073.43l18.82 12.752a2.731 2.731 0 0 1 1.16 1.761 2.718 2.718 0 0 1-.431 2.06l-3.017 4.401h1.156a2.9 2.9 0 0 1 2.905 2.888v1.301l.096.068a3.863 3.863 0 0 1 1.646 3.15v8.922h1.198c.493 0 .958.191 1.308.54.35.347.543.809.543 1.3v9.809c0 1.015-.83 1.84-1.851 1.84h-1.198v8.92c0 2.128-1.742 3.86-3.882 3.86H93.797l-.058.14a13.049 13.049 0 0 1-12.09 8.052c-4.12 0-8.05-1.973-10.513-5.28l-.068-.09H58.634c-1.936 0-3.511-1.567-3.511-3.492a3.514 3.514 0 0 1 2.77-3.412l.354-.076-.222-.284a3.44 3.44 0 0 1-.74-2.136c0-.76.246-1.486.712-2.1l.271-.356-.45-.006c-1.91-.026-3.464-1.59-3.464-3.489 0-1.925 1.576-3.491 3.512-3.491h5.132v-19.17c0-1.5.888-2.877 2.264-3.507l.132-.06v-.953a2.9 2.9 0 0 1 2.905-2.888h1.59V56.76c0-2.03 1.688-3.68 3.763-3.68h19.491zM81.65 100.594a11.811 11.811 0 0 0-6.039 1.654 11.858 11.858 0 0 0-4.329 4.458l-.071.135-.037.07a11.372 11.372 0 0 0-.343.708l-.02.044-.078.178a11.62 11.62 0 0 0-.904 4.505c0 .133.005.265.01.397l.001.031c.004.128.011.255.02.382l.002.023a11.585 11.585 0 0 0 2.175 5.994l.038.052c.085.117.173.233.262.347l.047.059c.092.115.185.227.28.338l.027.031a11.893 11.893 0 0 0 8.959 4.098c4.486 0 8.66-2.598 10.631-6.62.049-.098.094-.2.14-.3l.079-.174c.054-.124.105-.25.154-.375l.037-.094c.054-.14.106-.283.154-.426l.014-.04a11.666 11.666 0 0 0 .612-3.723 11.765 11.765 0 0 0-.184-2.05l-.02-.113c-.023-.12-.047-.239-.073-.357l-.046-.199c-.024-.098-.046-.193-.072-.288a11.239 11.239 0 0 0-.1-.35l-.015-.054a2.707 2.707 0 0 0-.028-.096c-1.554-4.931-6.088-8.245-11.283-8.245zm.191 5.07c.45 0 .814.363.814.81v1.102h1.507c.45 0 .815.363.815.81 0 .446-.366.81-.815.81h-3.4c-.65 0-1.178.524-1.178 1.17 0 .645.528 1.17 1.177 1.17h1.777a2.802 2.802 0 0 1 2.807 2.79c0 1.42-1.07 2.612-2.488 2.772l-.202.023v1.097c0 .446-.365.81-.814.81a.813.813 0 0 1-.815-.81v-1.102h-1.889a.813.813 0 0 1-.814-.81c0-.446.365-.81.814-.81h3.401c.65 0 1.177-.525 1.177-1.17 0-.645-.528-1.17-1.177-1.17H80.76a2.801 2.801 0 0 1-2.806-2.79 2.801 2.801 0 0 1 2.806-2.79h.265v-1.102c0-.447.366-.81.815-.81zm-13.154 8.403H58.634a2.426 2.426 0 0 0-2.43 2.417 2.426 2.426 0 0 0 2.43 2.416h11.72l-.185-.335a12.823 12.823 0 0 1-1.454-4.304l-.029-.194zm53.562-34.577H66.88a2.483 2.483 0 0 0-2.487 2.473v2.777h10.567c.384 0 .696.311.696.693a.696.696 0 0 1-.696.693H64.392v15.008h10.65l.054-.031a13.106 13.106 0 0 1 6.553-1.758c5.897 0 11.088 3.956 12.625 9.62l.045.168h7.741c.384 0 .697.31.697.692a.695.695 0 0 1-.697.693h-7.465l.03.254c.067.548.1 1.063.1 1.574 0 1.057-.13 2.113-.388 3.141l-.07.281h27.981a2.483 2.483 0 0 0 2.488-2.473v-2.777h-14.953a.695.695 0 0 1-.697-.693c0-.381.312-.692.697-.692h14.953v-4.759h-9.018c-3.74 0-6.784-3.026-6.784-6.745 0-.675.1-1.342.3-1.983l.009-.03c.087-.277.2-.566.334-.85l.027-.058.012-.022a6.837 6.837 0 0 1 6.102-3.801h9.018v-4.76H82.732a.696.696 0 0 1-.697-.692c0-.382.313-.693.697-.693h42.004v-2.777a2.483 2.483 0 0 0-2.488-2.473zm-52.983 28.67h-8.469a2.426 2.426 0 0 0-2.43 2.416 2.426 2.426 0 0 0 2.43 2.416h7.794l-.01-.326c-.004-.107-.008-.213-.008-.32 0-1.326.202-2.635.6-3.892l.093-.294zm4.189-5.951H57.866a2.426 2.426 0 0 0-2.43 2.416 2.426 2.426 0 0 0 2.43 2.416h11.848l.06-.131a12.996 12.996 0 0 1 3.23-4.306l.45-.395zm53.874-9.939h-11.61a5.399 5.399 0 0 0-5.062 3.518 5.302 5.302 0 0 0-.328 1.841 5.293 5.293 0 0 0 .652 2.553 5.399 5.399 0 0 0 4.738 2.806h11.61a.456.456 0 0 0 .457-.454v-9.81a.456.456 0 0 0-.457-.454zm-11.393 1.857c1.943 0 3.523 1.57 3.523 3.502 0 1.932-1.58 3.503-3.523 3.503s-3.523-1.571-3.523-3.503c0-1.931 1.58-3.502 3.523-3.502zm0 1.385c-1.174 0-2.13.95-2.13 2.117 0 1.168.956 2.117 2.13 2.117s2.13-.95 2.13-2.117a2.126 2.126 0 0 0-2.13-2.117zm5.548-19.57h-2.105l-1.483 2.163h4.353c.158 0 .323.01.49.032l.256.032v-.725c0-.828-.678-1.502-1.51-1.502zM102.24 54.489a1.366 1.366 0 0 0-1.137.597L85.324 78.105h1.97l11.688-17.051a1.983 1.983 0 0 1 1.877-.83 5.418 5.418 0 0 0 3.336-.612 1.947 1.947 0 0 1 2.035.099l9.757 6.61a1.92 1.92 0 0 1 .838 1.847 5.335 5.335 0 0 0 .647 3.31c.365.645.33 1.427-.091 2.042l-3.143 4.585h1.97l5.984-8.73a1.362 1.362 0 0 0-.361-1.896l-18.822-12.752a1.372 1.372 0 0 0-.77-.238zm2.889 6.27a.539.539 0 0 0-.26.065 6.825 6.825 0 0 1-4.203.772.556.556 0 0 0-.533.238L88.98 78.104h5.33l.014-.21c.263-3.84 3.501-6.846 7.373-6.846 3.872 0 7.11 3.007 7.373 6.846l.014.21h3.467l3.678-5.365c.119-.173.13-.4.029-.58a6.725 6.725 0 0 1-.815-4.17.551.551 0 0 0-.24-.522l-9.758-6.611a.564.564 0 0 0-.317-.098zm-30.2-6.338h-1.276c-1.331 0-2.414 1.05-2.414 2.34v21.344h3.69V54.42zm5.041 0h-3.693v23.684h3.693V54.42zm13.174 0H81.317v23.684h2.32l11.92-17.39V56.76c0-1.29-1.083-2.34-2.414-2.34zm8.554 18.013c-3.074 0-5.697 2.382-5.973 5.424l-.022.247h11.99l-.022-.247c-.276-3.042-2.9-5.424-5.973-5.424zM69.89 75.942H68.3c-.834 0-1.512.673-1.512 1.502v.66h3.102v-2.162z" stroke="#073B4C" stroke-width=".8" fill="#073B4C"/>
        <g fill-rule="nonzero">
            <path d="M47.05 39.16 19.527 47.05a3.67 3.67 0 0 0-2.557 4.386l.04.154 7.893 27.523a3.67 3.67 0 0 0 4.386 2.557l.154-.04 27.523-7.892a3.67 3.67 0 0 0 2.557-4.387l-.04-.154-7.893-27.522a3.67 3.67 0 0 0-4.386-2.558l-.154.041z" fill="#E9F4FC"/>
            <path d="m21.533 50.797 8.663-2.484c.24-.068.495.091.571.356l2.755 9.606c.076.265-.057.536-.296.604l-8.663 2.484c-.24.069-.495-.09-.571-.356l-2.754-9.605c-.076-.265.056-.536.295-.605zm4.751 16.57 8.664-2.484c.239-.069.494.09.57.356l2.755 9.605c.076.265-.056.536-.296.605l-8.663 2.484c-.24.068-.495-.091-.57-.356l-2.755-9.606c-.076-.265.056-.536.295-.604zM39.86 46.542l8.664-2.484a.447.447 0 0 1 .555.301l2.441 8.514a.447.447 0 0 1-.311.55l-8.663 2.484a.447.447 0 0 1-.556-.301l-2.44-8.514a.447.447 0 0 1 .31-.55zm4.954 16.551 8.733-2.504c.24-.069.492.07.562.312l2.503 8.732a.454.454 0 0 1-.311.562l-8.732 2.504a.454.454 0 0 1-.562-.312l-2.504-8.732a.454.454 0 0 1 .311-.562z" fill="#FFD166"/>
            <path d="M29.212 48.555c1.34-.384 2.73.37 3.106 1.683l1.948 6.794c.377 1.313-.403 2.69-1.742 3.073L25.6 62.091c-1.339.384-2.73-.37-3.106-1.683l-1.948-6.794c-.377-1.314.403-2.69 1.742-3.073zm.919 1.292-7.99 2.291a.412.412 0 0 0-.288.507l2.248 7.84c.062.216.291.34.512.277l7.99-2.291c.221-.064.35-.29.287-.507l-2.247-7.84a.412.412 0 0 0-.512-.277zm-2.173 3.48c.382-.11.78.105.887.48l.584 2.039a.714.714 0 0 1-.497.878l-2.078.595a.714.714 0 0 1-.887-.48l-.584-2.039a.714.714 0 0 1 .497-.878l2.078-.595zm-.303 1.557-.693.199.195.679.693-.199-.195-.679zm6.233 9.977c1.339-.384 2.73.37 3.106 1.683l1.948 6.794c.376 1.313-.403 2.69-1.742 3.073l-6.925 1.986c-1.338.383-2.729-.37-3.105-1.683L25.22 69.92c-.376-1.314.404-2.69 1.742-3.073zm.918 1.292-7.99 2.291a.412.412 0 0 0-.287.507l2.248 7.84c.062.216.291.34.512.276l7.99-2.29c.22-.064.35-.29.287-.507l-2.248-7.84a.412.412 0 0 0-.512-.277zm-2.173 3.48c.383-.11.78.105.888.48l.584 2.038a.714.714 0 0 1-.498.878l-2.077.596a.714.714 0 0 1-.887-.48l-.585-2.039a.714.714 0 0 1 .498-.878l2.077-.596zm-.303 1.557-.692.198.195.68.692-.199-.195-.68zm14.887-27.798c1.339-.383 2.73.37 3.106 1.683l1.948 6.794c.376 1.314-.403 2.69-1.742 3.073l-6.925 1.986c-1.338.384-2.729-.37-3.105-1.683l-1.949-6.794c-.376-1.313.404-2.69 1.742-3.073zm.918 1.293-7.99 2.29a.412.412 0 0 0-.287.507l2.248 7.84c.062.216.291.34.512.277l7.99-2.291c.22-.063.35-.29.287-.507l-2.248-7.84a.412.412 0 0 0-.512-.276zm-2.173 3.479c.383-.11.78.105.888.48l.584 2.039a.714.714 0 0 1-.498.878l-2.077.596a.714.714 0 0 1-.887-.481l-.585-2.038a.714.714 0 0 1 .498-.878l2.077-.596zm-.303 1.557-.692.199.195.68.692-.2-.195-.679zm6.234 9.977c1.338-.384 2.729.37 3.105 1.683l1.948 6.794c.377 1.314-.403 2.69-1.741 3.073l-6.925 1.986c-1.339.384-2.73-.37-3.106-1.683l-1.948-6.794c-.377-1.313.403-2.69 1.742-3.073zm.918 1.292-7.99 2.291a.412.412 0 0 0-.287.507l2.247 7.84c.063.216.292.34.512.277l7.99-2.291c.221-.064.35-.29.288-.507l-2.248-7.84a.412.412 0 0 0-.512-.277zm-2.173 3.48c.382-.11.78.105.887.48l.585 2.039a.714.714 0 0 1-.498.878l-2.077.595a.714.714 0 0 1-.888-.48l-.584-2.039a.714.714 0 0 1 .497-.878l2.078-.595zm-.303 1.557-.692.199.194.679.693-.199-.195-.679z" fill="#052C50"/>
            <path d="M33.797 46.058a.756.756 0 0 1 .914.474l.017.054 3.847 13.418 13.148-3.77a.757.757 0 0 1 .932.529.759.759 0 0 1-.457.924l-.053.018-13.148 3.77 3.848 13.418a.757.757 0 0 1-.51.942.756.756 0 0 1-.913-.475l-.018-.054-3.848-13.418-9.184 2.634a.757.757 0 0 1-.932-.529.759.759 0 0 1 .457-.924l.053-.018 9.184-2.634L33.288 47a.757.757 0 0 1 .51-.942zM24.77 65.555a.757.757 0 0 0 .51-.942.757.757 0 0 0-.932-.529.757.757 0 0 0-.51.942.757.757 0 0 0 .932.529z" fill="#052C50"/>
            <path d="m46.777 38.203-.178.046-27.146 7.784a4.88 4.88 0 0 0-3.399 5.831l.047.178 7.783 27.146a4.88 4.88 0 0 0 5.832 3.4l.178-.047 27.146-7.784a4.88 4.88 0 0 0 3.399-5.832l-.047-.178-7.783-27.145a4.88 4.88 0 0 0-5.832-3.4zm.144 1.267.152-.04a3.617 3.617 0 0 1 4.292 2.42l.03.1 7.776 27.12.04.151a3.617 3.617 0 0 1-2.42 4.292l-.1.03-27.12 7.777-.15.04a3.617 3.617 0 0 1-4.293-2.42l-.03-.1-7.777-27.12-.04-.152a3.617 3.617 0 0 1 2.421-4.292l.1-.03 27.12-7.776z" fill="#052C50"/>
        </g>
        <path d="m96.887 43.6-3.684 4.365a.431.431 0 0 1-.71-.075l-2.698-5.035a.436.436 0 0 1 .427-.642l1.923.202.01-.106c.623-8.309-5.396-15.855-13.67-16.724-5.169-.543-10.008 1.563-13.187 5.232a1.26 1.26 0 0 1-2.028-.148l-.013-.02a1.279 1.279 0 0 1 .111-1.512c3.707-4.283 9.355-6.744 15.385-6.11 9.712 1.02 16.763 9.893 15.932 19.655l1.918.202c.346.037.51.449.284.716z" fill="#073B4C" fill-rule="nonzero"/>
        <path d="M115.601 36.305a.492.492 0 0 0-.984 0 5.418 5.418 0 0 1-5.411 5.412.492.492 0 0 0 0 .983 5.418 5.418 0 0 1 5.411 5.412.492.492 0 0 0 .984 0 5.418 5.418 0 0 1 5.411-5.412.492.492 0 0 0 0-.983 5.418 5.418 0 0 1-5.411-5.412zM65.03.763a.763.763 0 0 0-1.525 0c0 4.623-3.764 8.387-8.388 8.387a.763.763 0 0 0 0 1.525c4.624 0 8.388 3.764 8.388 8.388a.763.763 0 0 0 1.525 0c0-4.624 3.763-8.388 8.387-8.388a.763.763 0 0 0 0-1.525c-4.624 0-8.387-3.764-8.387-8.387z" fill="#72EFD3"/>
        <path d="M108.714 7.077c1.048 0 1.996.425 2.683 1.112a3.782 3.782 0 0 1 1.111 2.682 3.787 3.787 0 0 1-1.112 2.683 3.786 3.786 0 0 1-2.682 1.112 3.783 3.783 0 0 1-2.683-1.11 3.783 3.783 0 0 1-1.112-2.684c0-1.048.425-1.997 1.112-2.683a3.783 3.783 0 0 1 2.683-1.112z" stroke="#72EFD3" stroke-width="2.643"/>
        <circle fill="#72EFD3" cx="25.576" cy="5.756" r="1.919"/>
    </g>
</svg>
