<svg xmlns="http://www.w3.org/2000/svg" width="55" height="19" viewBox="0 0 55 19">
    <defs>
        <filter id="2dz3lytuoa" color-interpolation-filters="auto">
            <feColorMatrix in="SourceGraphic" values="0 0 0 0 0.000000 0 0 0 0 0.694118 0 0 0 0 0.921569 0 0 0 1.000000 0"/>
        </filter>
    </defs>
    <g fill="none" fill-rule="evenodd">
        <g>
            <g>
                <g filter="url(#2dz3lytuoa)" transform="translate(-43.000000, -362.000000) translate(15.000000, 307.000000) translate(16.000000, 51.000000)">
                    <g>
                        <path fill="currentColor" fill-rule="nonzero" d="M53.676 1.391c.698.047 1.258.578 1.324 1.254.009.894-.216 1.78-.654 2.573-.414 1.023-.817 2.051-1.306 3.042-.243.477-.5.95-.776 1.41-.248.402-.518.791-.809 1.166-.289.356-.52.753-.688 1.176-.144.489-.192 1-.14 1.505.04.53.114 1.043.12 1.585.005.542-.031 1.084-.013 1.626.018.401.143.792.362 1.133.212.357.398.813.026 1.139-.85-.04-1.594-.568-1.89-1.342-.075-.202-.13-.41-.163-.622-.057-.274-.142-.54-.215-.81-.114-.524-.173-1.058-.176-1.593-.007-.128-.022-.256-.044-.383-.01-.108-.003-.193-.132-.193-.167.028-.324.095-.458.195-.271.22-.558.423-.858.605-.376.182-.791.274-1.21.268-.442-.05-.848-.256-1.144-.577-.183-.109-.339-.256-.455-.431-.041-.085-.075-.174-.114-.25-.039-.078-.119-.28-.22-.23-.416.236-.8.523-1.143.852-.5.509-1.218.758-1.936.67-.478-.077-.87-.409-1.014-.858-.06-.205-.135-.406-.225-.601-.131-.441-.06-.916.193-1.303.202-.492.395-.986.62-1.468.177-.368.347-.94.776-1.1.091-.038.137-.175.2-.252.069-.085.148-.162.236-.23.197-.148.422-.257.663-.32.461-.131.946-.165 1.422-.099.442.083.846.302 1.15.625.272.23.447.55.492.898.036.313-.183.6-.502.657-.504.101-.685-.483-.962-.766-.53-.542-1.251.323-1.523.727-.432.72-.767 1.49-.998 2.292.624.012.962-.59 1.223-1.056.262-.466.564-1.204 1.174-1.309.367-.01.715.158.929.447.118.132.232.257.351.383.063.064.063.208.063.294.046.3.143 1.213.618 1.178.137-.024.263-.091.359-.19.1-.112.243-.18.395-.191.205-.05.393-.152.543-.296.202-.163.392-.341.566-.532.35-.323.675-.67.973-1.039.128-.192.233-.398.316-.613.048-.113.103-.224.165-.33.052-.106-.016-.294 0-.425.05-.25.12-.497.212-.737.08-.273.147-.552.21-.827.098-.528.247-1.045.447-1.545.214-.477.457-.92.646-1.423.167-.436.31-.887.496-1.316.25-.56.59-1.08 1.006-1.538.358-.477.892-.802 1.492-.905zM2.853.011c.521-.035 1.045.01 1.552.136.246.059.497.098.75.118.265.062.525.146.775.251.503.14.984.344 1.433.605.419.263.823.547 1.21.853 1.311 1.045 2.25 2.949 1.034 4.4-.315.356-.676.67-1.072.939-.392.301-.829.551-1.293.742-.468.194-.962.31-1.443.467-.376.08-.693.323-.859.66-.115.328-.17.672-.165 1.019-.018.467-.075.932-.168 1.391-.11.534-.251 1.059-.367 1.595-.11.544-.19 1.093-.238 1.645-.047.49-.064.98-.126 1.468-.024.327-.127.644-.3.926-.045.048-.093.094-.145.136-.249.199-.57.294-.891.264-.322-.03-.618-.183-.823-.425-.176-.234-.116-.446-.027-.661l.08-.187c.026-.063.05-.127.066-.192.047-.214.072-.432.075-.65.012-.269.045-.544.08-.795.068-.549.135-1.12.236-1.65.101-.53.244-1.046.323-1.578.032-.368.088-.734.169-1.096.112-.326.191-.662.237-1.003.06-.285-.054-.578-.293-.753-.382-.223-.82-.354-1.197-.584-.608-.293-.872-.997-.6-1.6.158-.229.45-.33.722-.251.325.073.488.366.646.617.124.18.398.591.677.431.237-.174.396-.428.445-.712.076-.326.131-.657.165-.99.044-.294.143-.562.202-.848.15-.66.018-1.493.517-2.03.23-.278.615-.386.962-.27.323.15.576.413.711.735.11.214.168.45.168.69-.036.307-.114.608-.233.895-.068.33-.088.668-.06 1.004-.061.311-.164.614-.305.9.403-.022.788-.173 1.094-.429.343-.222.671-.466.983-.73.347-.27.576-.656.641-1.083.01-.44-.16-.867-.474-1.187-.275-.35-.628-.633-1.034-.83-.42-.14-.853-.235-1.293-.283-.554-.113-1.117-.18-1.683-.203-.538.008-1.074.074-1.598.195-.578.177-1.2.16-1.766-.05-.34-.214-.452-.645-.258-.99C.167.84.274.661.41.505c.174-.148.4-.226.632-.22C1.65.234 2.237.036 2.853.011zM25 7.672c.368-.201.814-.216 1.195-.04.343.166.564.502.574.874-.022.35-.36.591-.632.772-.336.191-.633.442-.874.74-.251.336-.361.753-.307 1.166.163.65.494 1.249.962 1.74.47.51.701 1.186.636 1.867-.142.697-.671 1.26-1.374 1.464-.653.207-1.346.268-2.027.181-.322.006-.632-.115-.859-.336-.078-.15-.164-.294-.258-.434-.12-.14-.216-.298-.287-.467-.053-.155-.048-.324.013-.477.328-.308.79-.092 1.15.04.31.133.666.128.972-.015.279-.118.649-.324.705-.642.018-.432-.13-.856-.414-1.189-.588-.696-1.004-1.512-1.217-2.388-.036-.193-.036-.391 0-.585.06-.196.16-.378.295-.536.058-.078.094-.17.103-.266.002-.106.132-.197.202-.274.176-.19.32-.406.426-.64.176-.025.233-.17.35-.276.075-.058.163-.097.258-.115.136-.045.274-.106.408-.163zm-14.935.443c.811-.451 1.822-.391 2.57.153.786.45 1.25 1.287 1.203 2.172-.114.178-.273.326-.46.43-.2.117-.391.248-.572.39-.243.162-.503.297-.776.402-.313.15-.608.318-.913.472-.127.07-.253.128-.385.185-.138.045-.27.108-.39.185-.095.089-.17.196-.22.314-.105.24-.107.51-.006.75.1.242.296.434.544.534.387.111.723-.251.948-.502.336-.386.646-.787.962-1.184.423-.56.88-1.094 1.368-1.601.235-.236.473-.472.69-.723.18-.27.4-.513.655-.72.528-.288 1.188-.21 1.631.191.244.193.393.474.414.778-.005.173.03.344.102.502.097.138.151.3.158.467.765-.298 1.042-1.131 1.608-1.65.295-.266.58-.552.88-.818.282-.272.642-.456 1.034-.526.518-.037 1.037.049 1.513.25.122.045.183.298.22.414.063.143.055.307-.023.444-.11.148-.342.187-.504.25-.201.068-.403.14-.6.222-.358.175-.683.409-.96.69-.63.783-1.145 1.645-1.535 2.563-.103.195-.23.378-.377.544-.162.16-.308.333-.437.519-.23.379-.31.83-.546 1.206-.175.334-.55.521-.93.467-.355-.072-.652-.303-.803-.622-.15-.457-.184-.942-.1-1.415-.012-.508-.082-1.012-.208-1.505-.018-.101-.034-.204-.047-.307-1 .747-1.88 1.633-2.614 2.629-.386.433-.88.764-1.435.96-.66.171-1.361.089-1.96-.23-.662-.384-1.169-.978-1.435-1.68-.101-.195-.188-.398-.258-.605-.031-.212-.094-.419-.187-.613-.11-.116-.236-.22-.372-.307-.17-.131-.312-.293-.419-.476-.093-.169-.137-.359-.126-.55.005-.122.015-.172.134-.23.104-.048.215-.078.329-.088.2-.012.4-.012.6 0 .128.002.152-.088.207-.193.057-.118.105-.24.144-.364.285-.892.88-1.66 1.684-2.174zm21.189-.551c.256-.049.52-.049.776 0 .854.213 1.57.78 1.955 1.55.172.404.323.817.452 1.236.04.078.06.164.057.25-.013.084-.02.168-.018.251-.012.158.064.31.2.399.171-.408.384-.799.635-1.166.153-.15.32-.285.5-.404.154-.123.322-.228.501-.314.665-.178 1.374.073 1.764.625.076.165.13.34.158.519.082.266.18.526.258.792.16.527.096 1.058.202 1.595.082.486.262.953.53 1.372.29.32.536.676.73 1.059.007.014.013.03.016.045-.864.181-1.753-.17-2.24-.885-.351-.695-.623-1.425-.812-2.177-.073-.165-.176-.316-.302-.447-.075-.07-.117-.153-.205-.07-.07.065-.132.14-.183.22-.181.32-.298.67-.344 1.033-.126.701-.235 1.502-.967 1.85-.673.325-1.49.066-1.836-.58-.16-.426-.238-.877-.228-1.33-.051-.542-.1-1.086-.137-1.633.035-.649-.101-1.296-.395-1.88-.155-.24-.43-.38-.721-.367-.101.005-.17.022-.152.14.025.081.066.157.119.223.11.194-.057.35-.176.49-.579.647-.206 1.542-.08 2.277.143.64.136 1.302-.02 1.939-.072.278-.239.525-.474.7-.148.097-.323.162-.481.25-.178.112-.373.196-.577.25-.47.057-.946-.018-1.373-.218-.418-.159-.771-.446-1.006-.817-.197-.333-.301-.71-.303-1.094-.03-.42.037-.841.2-1.231.1-.186.245-.344.333-.537.093-.235.201-.463.326-.684.167-.404.4-.78.69-1.112.422-.502.811-1.031 1.164-1.582.205-.24.489-.405.804-.467.217-.035.44-.04.66-.07zm-1.702 3.4c-.262.374-.453.789-.563 1.227-.171.469-.271.96-.297 1.456.005.143.028.316.196.361.15.027.303-.015.414-.116.123-.124.212-.277.259-.443.191-.493.31-1.009.354-1.533.013-.268.06-.956-.363-.951zM12.045 9.1c-.256-.193-.623-.163-.84.07-.265.217-.482.483-.637.783-.169.251-.354.493-.553.723-.082.1-.146.214-.186.336-.021.071-.031.145-.031.219l.004.049c.015.067.069.058.163.05.393-.071.76-.245 1.058-.502.417-.276 1.06-.453 1.213-.975.078-.266.005-.552-.191-.753zm41.279-5.726c-.386.328-.711.718-.962 1.153-.093.216-.17.438-.233.665-.091.242-.206.477-.341.7-.185.405-.318.831-.395 1.268-.087.304-.153.614-.197.926-.008.056-.008.112 0 .168.014.073.06.04.12 0 .129-.108.219-.253.258-.414.142-.4.4-.73.577-1.119.264-.577.501-1.17.76-1.756.135-.313.266-.632.372-.955.043-.132.078-.266.106-.402.013-.047.018-.096.016-.145.004-.09.004-.09-.081-.09z" transform="translate(12.000000, 4.000000)"/>
                    </g>
                </g>
            </g>
        </g>
    </g>
</svg>
