<svg width="60" height="14" viewBox="0 0 60 14" xmlns="http://www.w3.org/2000/svg">
    <path d="M0 3.044h1.508l.03 1.536H1.6c.543-1.034 1.538-1.734 2.729-1.734 2.231 0 3.513 1.917 3.513 4.26 0 2.314-1.312 4.307-3.528 4.307-1.402 0-2.126-.76-2.518-1.567h-.06V14H.002L0 3.044zm3.905 6.695c1.297 0 2.172-1.05 2.172-2.571 0-1.4-.726-2.725-2.111-2.725-1.358 0-2.172 1.233-2.172 2.664 0 1.43.725 2.632 2.111 2.632m8.972-6.893c2.231 0 3.633 1.704 3.633 4.032v.974h-5.986C10.66 9.01 11.731 9.8 13.072 9.8c1.01 0 1.735-.517 2.262-1.065L16.36 9.77c-.875 1.11-2.111 1.628-3.408 1.628-2.11 0-4.132-1.522-4.132-4.215 0-2.42 1.81-4.337 4.057-4.337m1.945 3.636c-.03-1.142-.709-2.04-2.02-2.04a2.276 2.276 0 0 0-2.278 2.04h4.298zm3.061-3.44h1.583v1.492h.046c.392-1.05.964-1.491 2.11-1.491h.528V4.79h-1.116c-.995 0-1.417.594-1.417 1.689v4.705h-1.732l-.002-8.142zm5.699 5.495c.663.822 1.477 1.43 2.533 1.43.739 0 1.357-.289 1.357-.913 0-.654-.77-.975-1.674-1.247-1.236-.396-2.759-.96-2.759-2.511 0-1.34 1.327-2.48 3-2.48 1.735 0 2.745 1.004 3.212 2.07l-1.265.653a2.144 2.144 0 0 0-1.945-1.278c-.725 0-1.266.38-1.266.944 0 .684.663.912 1.583 1.201 1.267.396 2.85.883 2.85 2.496s-1.523 2.511-3.151 2.511a4.228 4.228 0 0 1-3.559-1.948l1.084-.928zm10.72-5.722c2.428 0 4.207 1.948 4.207 4.292 0 2.358-1.915 4.306-4.237 4.306s-4.237-1.948-4.237-4.306c0-2.344 1.945-4.292 4.267-4.292m-.031 7c1.447 0 2.578-1.202 2.578-2.708 0-1.491-1.13-2.694-2.578-2.694-1.463 0-2.578 1.188-2.578 2.694 0 1.491 1.115 2.709 2.578 2.709m5.367-6.772h1.584v1.537h.03c.543-.976 1.311-1.765 2.669-1.765 1.764 0 2.729 1.339 2.729 3.226v5.143h-1.733v-4.87c0-1.11-.407-1.948-1.49-1.948-1.357 0-2.051 1.34-2.051 2.603v4.215h-1.732l-.006-8.141zm11.915 3.393h1.583V5.92c0-.837-.497-1.477-1.477-1.477-.935 0-1.78.655-2.202 1.583l-1.462-.715c.678-1.568 2.05-2.465 3.679-2.465 1.853 0 3.197 1.097 3.197 3.074v3.56c0 .183.03.26.226.26h.604v1.445h-1.1c-.695 0-1.162-.411-1.162-1.294v-.395h-.075c-.543 1.187-1.644 1.87-2.865 1.87-1.297 0-2.518-.76-2.518-2.358s1.538-2.572 3.573-2.572m-.708 3.484c1.087 0 2.156-.912 2.291-2.267h-1.49c-1.13 0-1.93.411-1.93 1.248 0 .639.467 1.02 1.13 1.02M56.91 0h1.732v9.435c0 .213.015.304.271.304H60v1.446h-1.68c-1.1 0-1.417-.715-1.417-1.735L56.91 0z" fill="#00AFE3" fill-rule="nonzero"/>
</svg>
