<svg xmlns="http://www.w3.org/2000/svg" width="24" height="24" viewBox="0 0 24 24">
    <g fill="none" fill-rule="evenodd">
        <g fill="#00D576">
            <g>
                <path d="M17.208 0C21.276 0 24 2.856 24 7.104v9.805C24 21.144 21.276 24 17.208 24H6.804C2.736 24 0 21.144 0 16.91V7.103C0 2.856 2.736 0 6.804 0zm-.192 8.4c-.408-.408-1.08-.408-1.488 0l-4.956 4.956-2.1-2.1c-.408-.408-1.08-.408-1.488 0-.408.408-.408 1.068 0 1.488l2.856 2.844c.204.204.468.3.732.3.276 0 .54-.096.744-.3l5.7-5.7c.408-.408.408-1.068 0-1.488z" transform="translate(-19 -383) translate(19 383)"/>
            </g>
        </g>
    </g>
</svg>
