<svg xmlns="http://www.w3.org/2000/svg" xmlns:xlink="http://www.w3.org/1999/xlink" width="24" height="25" viewBox="0 0 24 25">
    <defs>
        <path id="ybi9i6tkqa" d="M0 12.033c0 6.628 5.372 12.001 12 12.001s12-5.373 12-12.001c0-6.628-5.372-12-12-12s-12 5.372-12 12zm15.149-3.331c.345-.347.907-.349 1.257-.006.348.342.351.9.007 1.246l-4.588 4.614c-.172.173-.398.261-.626.262-.228.002-.454-.082-.63-.254l-2.255-2.212c-.348-.343-.352-.9-.008-1.248.346-.347.908-.35 1.258-.008l1.622 1.59 3.963-3.984z"/>
    </defs>
    <g fill="none" fill-rule="evenodd">
        <g>
            <g>
                <g transform="translate(-78 -425) translate(78 425)">
                    <mask id="2anu5nw8cb" fill="#fff">
                        <use xlink:href="#ybi9i6tkqa"/>
                    </mask>
                    <path fill="#00D576" d="M-5 29.033L29 29.033 29 -4.967 -5 -4.967z" mask="url(#2anu5nw8cb)"/>
                </g>
                <path fill="#FFF" d="M16.406 8.695c-.35-.343-.912-.34-1.257.007l-3.963 3.984-1.622-1.59c-.35-.342-.911-.339-1.257.008-.345.347-.341.904.008 1.247l2.254 2.212c.175.172.403.257.63.255.228-.002.454-.089.627-.263l4.587-4.613c.345-.347.34-.904-.007-1.247" transform="translate(-78 -425) translate(78 425)"/>
            </g>
        </g>
    </g>
</svg>
