<svg width="80" height="80" viewBox="0 0 80 80" fill="none" xmlns="http://www.w3.org/2000/svg">
<path fill-rule="evenodd" clip-rule="evenodd" d="M18.3998 16.2927H45.0357C51.086 16.2927 53.28 16.9226 55.4919 18.1056C57.7038 19.2885 59.4397 21.0244 60.6226 23.2363C61.8055 25.4482 62.4355 27.6421 62.4355 33.6924V51.1203C62.4355 57.1705 61.8055 59.3645 60.6226 61.5764C59.4397 63.7883 57.7038 65.5242 55.4919 66.7071C53.28 67.8901 51.086 68.52 45.0357 68.52H18.3998C12.3495 68.52 10.1555 67.8901 7.94361 66.7071C5.73173 65.5242 3.99582 63.7883 2.81289 61.5764C1.62996 59.3645 1 57.1705 1 51.1203L1 33.6924C1 27.6421 1.62996 25.4482 2.81289 23.2363C3.99582 21.0244 5.73173 19.2885 7.94361 18.1056C10.1555 16.9226 12.3495 16.2927 18.3998 16.2927Z" fill="#E8E7FF"/>
<path d="M52.6547 16.2927C58.0565 16.2927 62.4355 20.6942 62.4355 26.1237V58.689C62.4355 64.1185 58.0565 68.52 52.6547 68.52H10.7808C5.379 68.52 1 64.1185 1 58.689V26.1237C1 20.6942 5.379 16.2927 10.7808 16.2927H52.6547ZM52.6547 17.8288H10.7808C6.26861 17.8288 2.60223 21.4686 2.52935 25.9865L2.52825 26.1237V58.689C2.52825 63.2243 6.1495 66.9095 10.6443 66.9828L10.7808 66.9839H52.6547C57.1669 66.9839 60.8333 63.344 60.9061 58.8262L60.9072 58.689V26.1237C60.9072 21.5883 57.286 17.9031 52.7912 17.8299L52.6547 17.8288Z" fill="#1E243D"/>
<path fill-rule="evenodd" clip-rule="evenodd" d="M8.51555 16.2927H54.9199C59.0707 16.2927 62.4355 19.6575 62.4355 23.8082V31.3464H1V23.8082C1 19.6575 4.36483 16.2927 8.51555 16.2927Z" fill="white"/>
<path d="M54.9471 16.2927C59.0828 16.2927 62.4355 19.6626 62.4355 23.8195V31.3464H1V23.8195C1 19.6626 4.35267 16.2927 8.48841 16.2927H54.9471ZM54.9471 17.8288H8.48841C5.23172 17.8288 2.58509 20.4542 2.52915 23.7142L2.52825 23.8195V29.8103H60.9072V23.8195C60.9072 20.5461 58.2953 17.8859 55.0519 17.8297L54.9471 17.8288Z" fill="#1E243D"/>
<path d="M26.0028 15.2146C26.0028 13.4392 24.5635 12 22.7881 12C21.0127 12 19.5735 13.4392 19.5735 15.2146V20.9479C19.5735 22.7233 21.0127 24.1625 22.7881 24.1625C24.5635 24.1625 26.0028 22.7233 26.0028 20.9479V15.2146Z" fill="#E8E7FF"/>
<path d="M22.7881 12C24.5635 12 26.0028 13.5359 26.0028 15.4305V20.7321C26.0028 22.6267 24.5635 24.1625 22.7881 24.1625C21.0127 24.1625 19.5735 22.6267 19.5735 20.7321V15.4305C19.5735 13.5359 21.0127 12 22.7881 12ZM22.7881 13.5593C21.8417 13.5593 21.0705 14.3594 21.0359 15.3603L21.0347 15.4305V20.7321C21.0347 21.7655 21.8197 22.6032 22.7881 22.6032C23.7345 22.6032 24.5058 21.8031 24.5404 20.8022L24.5416 20.7321V15.4305C24.5416 14.397 23.7565 13.5593 22.7881 13.5593Z" fill="#1E243D"/>
<path d="M43.8619 15.2146C43.8619 13.4392 42.4227 12 40.6473 12C38.8719 12 37.4326 13.4392 37.4326 15.2146V20.9479C37.4326 22.7233 38.8719 24.1625 40.6473 24.1625C42.4227 24.1625 43.8619 22.7233 43.8619 20.9479V15.2146Z" fill="#E8E7FF"/>
<path d="M40.6473 12C42.4227 12 43.8619 13.5359 43.8619 15.4305V20.7321C43.8619 22.6267 42.4227 24.1625 40.6473 24.1625C38.8719 24.1625 37.4326 22.6267 37.4326 20.7321V15.4305C37.4326 13.5359 38.8719 12 40.6473 12ZM40.6473 13.5593C39.7009 13.5593 38.9296 14.3594 38.895 15.3603L38.8938 15.4305V20.7321C38.8938 21.7655 39.6789 22.6032 40.6473 22.6032C41.5937 22.6032 42.3649 21.8031 42.3995 20.8022L42.4007 20.7321V15.4305C42.4007 14.397 41.6157 13.5593 40.6473 13.5593Z" fill="#1E243D"/>
<path d="M48.1483 34.8942H15.0239C10.6841 34.8942 7.42944 34.9498 7.42944 39.2897V54.9385C7.42944 59.2783 8.0309 62.7965 12.3708 62.7965H51.0312C55.371 62.7965 56.0063 59.2783 56.0063 54.9385V42.7522C56.0063 38.4124 52.4882 34.8942 48.1483 34.8942Z" fill="white"/>
<path d="M52.0347 34.8942C54.2282 34.8942 56.0063 36.6788 56.0063 38.8802V58.8104C56.0063 61.0119 54.2282 62.7965 52.0347 62.7965H11.4011C9.20763 62.7965 7.42944 61.0119 7.42944 58.8104V38.8802C7.42944 36.6788 9.20763 34.8942 11.4011 34.8942H52.0347ZM52.0347 36.1207H11.4011C9.90968 36.1207 8.69556 37.3124 8.65268 38.7989L8.6515 38.8802V58.8104C8.6515 60.3073 9.83898 61.5258 11.3201 61.5688L11.4011 61.57H52.0347C53.5261 61.57 54.7402 60.3782 54.7831 58.8918L54.7843 58.8104V38.8802C54.7843 37.3834 53.5968 36.1649 52.1157 36.1218L52.0347 36.1207Z" fill="#1E243D"/>
<path d="M14.5681 42.7047C15.749 42.7047 16.7062 41.757 16.7062 40.588C16.7062 39.4191 15.749 38.4714 14.5681 38.4714C13.3872 38.4714 12.4299 39.4191 12.4299 40.588C12.4299 41.757 13.3872 42.7047 14.5681 42.7047Z" fill="#F4F5FC"/>
<path d="M20.3698 42.7047C21.5507 42.7047 22.508 41.757 22.508 40.5881C22.508 39.4191 21.5507 38.4714 20.3698 38.4714C19.189 38.4714 18.2317 39.4191 18.2317 40.5881C18.2317 41.757 19.189 42.7047 20.3698 42.7047Z" fill="#F4F5FC"/>
<path d="M26.1716 42.7047C27.3525 42.7047 28.3098 41.757 28.3098 40.5881C28.3098 39.4191 27.3525 38.4714 26.1716 38.4714C24.9907 38.4714 24.0334 39.4191 24.0334 40.5881C24.0334 41.757 24.9907 42.7047 26.1716 42.7047Z" fill="#E3E5F6"/>
<path d="M26.1716 48.448C27.3525 48.448 28.3098 47.5003 28.3098 46.3314C28.3098 45.1624 27.3525 44.2147 26.1716 44.2147C24.9907 44.2147 24.0334 45.1624 24.0334 46.3314C24.0334 47.5003 24.9907 48.448 26.1716 48.448Z" fill="#E3E5F6"/>
<path d="M31.9734 42.7047C33.1542 42.7047 34.1115 41.757 34.1115 40.5881C34.1115 39.4191 33.1542 38.4714 31.9734 38.4714C30.7925 38.4714 29.8352 39.4191 29.8352 40.5881C29.8352 41.757 30.7925 42.7047 31.9734 42.7047Z" fill="#E3E5F6"/>
<path d="M31.9734 48.448C33.1542 48.448 34.1115 47.5003 34.1115 46.3314C34.1115 45.1624 33.1542 44.2147 31.9734 44.2147C30.7925 44.2147 29.8352 45.1624 29.8352 46.3314C29.8352 47.5003 30.7925 48.448 31.9734 48.448Z" fill="#E3E5F6"/>
<path d="M37.7751 42.7047C38.956 42.7047 39.9133 41.757 39.9133 40.5881C39.9133 39.4191 38.956 38.4714 37.7751 38.4714C36.5942 38.4714 35.637 39.4191 35.637 40.5881C35.637 41.757 36.5942 42.7047 37.7751 42.7047Z" fill="#E3E5F6"/>
<path d="M37.7751 48.448C38.956 48.448 39.9133 47.5003 39.9133 46.3314C39.9133 45.1624 38.956 44.2147 37.7751 44.2147C36.5942 44.2147 35.637 45.1624 35.637 46.3314C35.637 47.5003 36.5942 48.448 37.7751 48.448Z" fill="#E3E5F6"/>
<path d="M43.5769 42.7047C44.7577 42.7047 45.715 41.757 45.715 40.5881C45.715 39.4191 44.7577 38.4714 43.5769 38.4714C42.396 38.4714 41.4387 39.4191 41.4387 40.5881C41.4387 41.757 42.396 42.7047 43.5769 42.7047Z" fill="#E3E5F6"/>
<path d="M43.5769 48.448C44.7577 48.448 45.715 47.5003 45.715 46.3314C45.715 45.1624 44.7577 44.2147 43.5769 44.2147C42.396 44.2147 41.4387 45.1624 41.4387 46.3314C41.4387 47.5003 42.396 48.448 43.5769 48.448Z" fill="#E3E5F6"/>
<path d="M49.3786 42.7047C50.5595 42.7047 51.5168 41.757 51.5168 40.5881C51.5168 39.4191 50.5595 38.4714 49.3786 38.4714C48.1978 38.4714 47.2405 39.4191 47.2405 40.5881C47.2405 41.757 48.1978 42.7047 49.3786 42.7047Z" fill="#E3E5F6"/>
<path d="M49.3786 48.448C50.5595 48.448 51.5168 47.5003 51.5168 46.3314C51.5168 45.1624 50.5595 44.2147 49.3786 44.2147C48.1978 44.2147 47.2405 45.1624 47.2405 46.3314C47.2405 47.5003 48.1978 48.448 49.3786 48.448Z" fill="#E3E5F6"/>
<path d="M14.5681 48.448C15.749 48.448 16.7062 47.5003 16.7062 46.3314C16.7062 45.1624 15.749 44.2147 14.5681 44.2147C13.3872 44.2147 12.4299 45.1624 12.4299 46.3314C12.4299 47.5003 13.3872 48.448 14.5681 48.448Z" fill="#E3E5F6"/>
<path d="M20.3698 48.448C21.5507 48.448 22.508 47.5003 22.508 46.3314C22.508 45.1624 21.5507 44.2147 20.3698 44.2147C19.189 44.2147 18.2317 45.1624 18.2317 46.3314C18.2317 47.5003 19.189 48.448 20.3698 48.448Z" fill="#E3E5F6"/>
<path d="M26.1716 54.1914C27.3525 54.1914 28.3098 53.2437 28.3098 52.0747C28.3098 50.9058 27.3525 49.9581 26.1716 49.9581C24.9907 49.9581 24.0334 50.9058 24.0334 52.0747C24.0334 53.2437 24.9907 54.1914 26.1716 54.1914Z" fill="#E3E5F6"/>
<path d="M31.9734 54.1914C33.1542 54.1914 34.1115 53.2437 34.1115 52.0747C34.1115 50.9058 33.1542 49.9581 31.9734 49.9581C30.7925 49.9581 29.8352 50.9058 29.8352 52.0747C29.8352 53.2437 30.7925 54.1914 31.9734 54.1914Z" fill="#E3E5F6"/>
<path d="M37.7751 54.1914C38.956 54.1914 39.9133 53.2437 39.9133 52.0747C39.9133 50.9058 38.956 49.9581 37.7751 49.9581C36.5942 49.9581 35.637 50.9058 35.637 52.0747C35.637 53.2437 36.5942 54.1914 37.7751 54.1914Z" fill="#E3E5F6"/>
<path d="M43.5769 54.1914C44.7577 54.1914 45.715 53.2437 45.715 52.0747C45.715 50.9058 44.7577 49.9581 43.5769 49.9581C42.396 49.9581 41.4387 50.9058 41.4387 52.0747C41.4387 53.2437 42.396 54.1914 43.5769 54.1914Z" fill="#E3E5F6"/>
<path d="M49.3786 54.1914C50.5595 54.1914 51.5168 53.2437 51.5168 52.0747C51.5168 50.9058 50.5595 49.9581 49.3786 49.9581C48.1978 49.9581 47.2405 50.9058 47.2405 52.0747C47.2405 53.2437 48.1978 54.1914 49.3786 54.1914Z" fill="#E3E5F6"/>
<path d="M14.5681 54.1914C15.749 54.1914 16.7062 53.2437 16.7062 52.0747C16.7062 50.9058 15.749 49.9581 14.5681 49.9581C13.3872 49.9581 12.4299 50.9058 12.4299 52.0747C12.4299 53.2437 13.3872 54.1914 14.5681 54.1914Z" fill="#E3E5F6"/>
<path d="M20.3698 54.1914C21.5507 54.1914 22.508 53.2437 22.508 52.0747C22.508 50.9058 21.5507 49.9581 20.3698 49.9581C19.189 49.9581 18.2317 50.9058 18.2317 52.0747C18.2317 53.2437 19.189 54.1914 20.3698 54.1914Z" fill="#E3E5F6"/>
<path d="M14.5681 59.9347C15.749 59.9347 16.7062 58.9871 16.7062 57.8181C16.7062 56.6491 15.749 55.7015 14.5681 55.7015C13.3872 55.7015 12.4299 56.6491 12.4299 57.8181C12.4299 58.9871 13.3872 59.9347 14.5681 59.9347Z" fill="#E3E5F6"/>
<path d="M20.3698 59.9347C21.5507 59.9347 22.508 58.9871 22.508 57.8181C22.508 56.6491 21.5507 55.7015 20.3698 55.7015C19.189 55.7015 18.2317 56.6491 18.2317 57.8181C18.2317 58.9871 19.189 59.9347 20.3698 59.9347Z" fill="#E3E5F6"/>
<path d="M26.1716 59.9347C27.3525 59.9347 28.3098 58.9871 28.3098 57.8181C28.3098 56.6491 27.3525 55.7015 26.1716 55.7015C24.9907 55.7015 24.0334 56.6491 24.0334 57.8181C24.0334 58.9871 24.9907 59.9347 26.1716 59.9347Z" fill="#E3E5F6"/>
<path d="M31.9734 59.9347C33.1542 59.9347 34.1115 58.9871 34.1115 57.8181C34.1115 56.6491 33.1542 55.7015 31.9734 55.7015C30.7925 55.7015 29.8352 56.6491 29.8352 57.8181C29.8352 58.9871 30.7925 59.9347 31.9734 59.9347Z" fill="#E3E5F6"/>
<path d="M37.7751 59.9347C38.956 59.9347 39.9133 58.9871 39.9133 57.8181C39.9133 56.6491 38.956 55.7015 37.7751 55.7015C36.5942 55.7015 35.637 56.6491 35.637 57.8181C35.637 58.9871 36.5942 59.9347 37.7751 59.9347Z" fill="#E3E5F6"/>
<path d="M43.4424 59.9347C44.6232 59.9347 45.5805 58.9871 45.5805 57.8181C45.5805 56.6491 44.6232 55.7015 43.4424 55.7015C42.2615 55.7015 41.3042 56.6491 41.3042 57.8181C41.3042 58.9871 42.2615 59.9347 43.4424 59.9347Z" fill="#E3E5F6"/>
<path d="M49.582 59.9347C50.7629 59.9347 51.7202 58.9871 51.7202 57.8181C51.7202 56.6491 50.7629 55.7015 49.582 55.7015C48.4011 55.7015 47.4438 56.6491 47.4438 57.8181C47.4438 58.9871 48.4011 59.9347 49.582 59.9347Z" fill="#E3E5F6"/>
<path d="M61.9068 58.5896C70.9444 58.5896 78.2708 51.2632 78.2708 42.2256C78.2708 33.1879 70.9444 25.8615 61.9068 25.8615C52.8692 25.8615 45.5427 33.1879 45.5427 42.2256C45.5427 51.2632 52.8692 58.5896 61.9068 58.5896Z" fill="#FFECAB" stroke="#1E243D" stroke-width="1.75"/>
<path fill-rule="evenodd" clip-rule="evenodd" d="M67.5991 34.9205C67.8171 34.9205 67.9944 35.0967 67.9944 35.3133C67.9944 35.5298 67.8171 35.706 67.5991 35.706H66.0969V38.3666C66.0969 39.3413 65.6101 40.2452 64.7946 40.7846L62.6193 42.2257L64.7941 43.6663C65.61 44.206 66.0969 45.11 66.0969 46.0847V48.7453H67.5991C67.8171 48.7453 67.9944 48.9215 67.9944 49.1381C67.9944 49.3546 67.8171 49.5308 67.5991 49.5308H56.2144C55.9964 49.5308 55.8191 49.3546 55.8191 49.138C55.8191 48.9215 55.9964 48.7453 56.2144 48.7453H57.7166V46.0847C57.7166 45.11 58.2034 44.2061 59.0189 43.6667L61.1942 42.2257L59.0194 40.7849C58.2035 40.2453 57.7166 39.3413 57.7166 38.3666V35.706H56.2144C55.9964 35.706 55.8191 35.5298 55.8191 35.3132C55.8191 35.0967 55.9964 34.9205 56.2144 34.9205H67.5991ZM61.9067 42.6977L59.4572 44.3203C58.8624 44.7139 58.5071 45.3734 58.5071 46.0847V48.7453H65.3064V46.0847C65.3064 45.3734 64.951 44.7138 64.3558 44.32L61.9067 42.6977ZM61.311 45.3434C61.6538 45.0513 62.1596 45.0513 62.5025 45.3434C62.5237 45.3616 64.1705 46.7421 64.608 47.2068C64.6128 47.212 64.6176 47.2171 64.6224 47.2222C64.9133 47.5333 64.6903 48.039 64.2627 48.039H59.5507C59.1232 48.039 58.9001 47.5333 59.1911 47.2222C59.1958 47.2171 59.2007 47.212 59.2055 47.2068C59.643 46.7421 61.2898 45.3615 61.311 45.3434ZM65.3063 35.706H58.5071V38.3666C58.5071 39.0778 58.8625 39.7375 59.4577 40.1313L61.9067 41.7536L64.3563 40.131C64.9511 39.7374 65.3063 39.0778 65.3063 38.3666V35.706Z" fill="currentColor"/>
</svg>
