<svg width="131" height="131" viewBox="0 0 131 131" xmlns="http://www.w3.org/2000/svg">
    <g transform="translate(.57)" fill="none" fill-rule="evenodd">
        <path d="M121.814 17.792c4.759 0 8.616 3.869 8.616 8.641V96.23c0 4.772-3.858 8.641-8.616 8.641l-113.197-.004c-4.76 0-8.617-3.87-8.617-8.642V26.43c0-4.773 3.858-8.642 8.617-8.642l113.197.005zM99.28 19.806H8.617c-3.576 0-6.488 2.85-6.6 6.408l-.004.215v69.796c0 3.586 2.842 6.507 6.39 6.62l.214.003h113.197c3.575 0 6.487-2.85 6.6-6.408l.003-.215V26.43c0-3.586-2.841-6.507-6.39-6.62l-22.747-.003z" fill="#073B4C" fill-rule="nonzero"/>
        <path d="M99.28 19.806H8.617c-3.576 0-6.488 2.85-6.6 6.408l-.004.215v69.796c0 3.586 2.842 6.507 6.39 6.62l.214.003h113.197c3.575 0 6.487-2.85 6.6-6.408l.003-.215V26.43c0-3.586-2.841-6.507-6.39-6.62l-22.747-.003z" fill="#FFF" fill-rule="nonzero"/>
        <g transform="translate(10.83 38.133)">
            <rect stroke="#073B4C" stroke-width="1.733" fill="#E9F4FC" x=".867" y=".867" width="44.2" height="44.2" rx="6.933"/>
            <path d="M14.685 16.33c0-4.528 3.714-8.21 8.282-8.21 4.567 0 8.281 3.682 8.281 8.21 0 4.528-3.714 8.21-8.281 8.21-4.568 0-8.282-3.682-8.282-8.21z" fill="#FFD166"/>
            <path d="M22.967 26.593c-9.031 0-16.398 6.55-16.56 14.653l-.003.274v2.52c0 .045-.003.09-.009.132.113.012.227.02.343.024l.195.004H39c.182 0 .362-.01.54-.028l-.008-.065-.002-.067v-2.52c0-8.23-7.431-14.927-16.563-14.927z" fill="#FFD166" fill-rule="nonzero"/>
            <path d="M39 0a6.933 6.933 0 0 1 6.933 6.933V39A6.933 6.933 0 0 1 39 45.933H6.933A6.933 6.933 0 0 1 0 39V6.933A6.933 6.933 0 0 1 6.933 0H39zM22.967 26.593c-9.031 0-16.398 6.55-16.56 14.653l-.003.274v2.52c0 .045-.003.09-.009.132.113.012.227.02.343.024l.195.004H39c.182 0 .362-.01.54-.028l-.008-.065-.002-.067v-2.52c0-8.23-7.431-14.927-16.563-14.927zM39 1.733H6.933a5.2 5.2 0 0 0-5.196 5.005l-.004.195V39a5.198 5.198 0 0 0 2.6 4.504V41.52c0-7.749 5.731-14.287 13.53-16.317-3.118-1.769-5.248-5.063-5.248-8.873 0-5.66 4.644-10.263 10.352-10.263S33.318 10.67 33.318 16.33c0 3.81-2.13 7.104-5.248 8.873 7.692 2 13.373 8.39 13.527 15.999l.003.318v1.984a5.199 5.199 0 0 0 2.596-4.31L44.2 39V6.933a5.2 5.2 0 0 0-5.005-5.196L39 1.733zM22.967 8.12c-4.568 0-8.282 3.683-8.282 8.21 0 4.529 3.714 8.211 8.282 8.211 4.567 0 8.281-3.682 8.281-8.21 0-4.528-3.714-8.21-8.281-8.21z" fill="#073B4C" fill-rule="nonzero"/>
        </g>
        <g transform="translate(47.26 84.44)">
            <ellipse fill="#C33" cx="22.869" cy="22.844" rx="22.869" ry="22.844"/>
            <ellipse stroke="#073B4C" stroke-width="1.733" cx="22.869" cy="22.844" rx="22.869" ry="22.844"/>
            <path d="M31.224 13.107a.996.996 0 0 1 1.296.096l.07.078c.284.35.296.853.008 1.24l-.078.088-8.244 8.233 8.244 8.237a.993.993 0 0 1-1.31 1.49l-.097-.084-8.245-8.236-8.268 8.258-.099.082a.994.994 0 0 1-1.284-.104 1 1 0 0 1-.077-1.318l.077-.088 8.243-8.237-8.243-8.233a.993.993 0 0 1-.072-1.325l.072-.081c.35-.35.902-.388 1.32-.078l.088.078 5.183 5.177 3.055 3.06 8.271-8.257z" fill="#FFF"/>
        </g>
        <rect fill="#073B4C" x="65.43" y="72.8" width="54.6" height="2.6" rx="1.3"/>
        <rect fill="#073B4C" x="65.43" y="64.133" width="54.6" height="2.6" rx="1.3"/>
        <rect fill="#073B4C" x="65.43" y="55.467" width="54.6" height="2.6" rx="1.3"/>
        <rect fill="#073B4C" x="65.43" y="46.8" width="54.6" height="2.6" rx="1.3"/>
    </g>
</svg>
