<svg width="131" height="131" viewBox="0 0 131 131" xmlns="http://www.w3.org/2000/svg">
    <g fill="none" fill-rule="evenodd">
        <g transform="translate(2.6 4.333)" fill="#073B4C">
            <ellipse cx="54.83" cy="21.345" rx="2.734" ry="2.731"/>
            <path d="m20.409 21.457 1.595 1.595.063.058c.366.308.896.306 1.22-.019.345-.344.327-.918-.038-1.284l-1.595-1.595-.062-.057c-.366-.309-.897-.306-1.221.019-.344.343-.327.918.038 1.283zm4.16.353-.058.063c-.306.364-.301.895.025 1.22.346.347.92.331 1.283-.032l1.59-1.59.058-.062c.306-.364.301-.895-.025-1.221-.346-.346-.92-.33-1.283.032l-1.59 1.59zm-4.152 4.152-.056.062c-.307.364-.302.895.023 1.22.346.347.92.33 1.284-.032l1.59-1.59.058-.062c.306-.363.3-.895-.026-1.221-.345-.345-.92-.33-1.283.033l-1.59 1.59zm4.16-.337 1.596 1.596.062.058c.366.308.897.305 1.222-.02.344-.343.325-.918-.04-1.283l-1.595-1.596-.063-.058c-.365-.308-.896-.305-1.22.02-.344.343-.327.919.038 1.283zM119.773 8.079l-1.595 1.595-.058.063c-.307.366-.305.896.02 1.22.343.345.918.327 1.283-.038l1.595-1.595.057-.062c.31-.366.306-.897-.018-1.221-.344-.344-.918-.328-1.284.038zm-.353 4.16-.063-.058c-.364-.306-.894-.301-1.22.025-.346.346-.33.92.033 1.283l1.59 1.59.062.058c.363.306.894.301 1.22-.025.346-.346.331-.92-.031-1.283l-1.59-1.59zm-4.151-4.152-.062-.057c-.365-.306-.895-.302-1.221.024-.346.346-.33.92.033 1.284l1.59 1.59.062.058c.363.306.894.3 1.22-.026.346-.345.331-.92-.032-1.283l-1.59-1.59zm.336 4.16-1.595 1.595-.058.063c-.308.366-.306.897.019 1.222.344.343.919.325 1.284-.04l1.595-1.595.058-.063c.309-.365.306-.896-.019-1.221-.343-.343-.919-.326-1.284.039zM79.744 1.214V4.14l.005.11c.052.62.544 1.103 1.142 1.103.632 0 1.146-.543 1.146-1.213V1.214l-.004-.111C81.979.485 81.487 0 80.89 0c-.634 0-1.147.543-1.147 1.214zm3.506 4.14-.111.004c-.617.052-1.102.543-1.102 1.142 0 .634.543 1.147 1.213 1.147h2.928l.11-.005C86.904 7.59 87.39 7.1 87.39 6.5c0-.634-.544-1.147-1.212-1.147H83.25zm-7.648 0-.11.004c-.617.052-1.102.543-1.102 1.142 0 .634.544 1.147 1.212 1.147h2.93l.11-.005c.616-.052 1.102-.543 1.102-1.142 0-.634-.543-1.147-1.212-1.147h-2.93zm4.142 3.506v2.926l.005.111c.052.618.544 1.103 1.142 1.103.632 0 1.146-.542 1.146-1.214V8.86l-.004-.11c-.054-.618-.546-1.103-1.142-1.103-.634 0-1.147.543-1.147 1.213z"/>
            <ellipse cx="3.904" cy="12.715" rx="3.904" ry="3.9"/>
        </g>
        <g fill-rule="nonzero">
            <path d="m97.512 29.53-78.29 23.936c-3.088.944-4.842 4.2-3.99 7.334l.054.188L26.97 99.206c.957 3.13 4.19 4.928 7.284 4.09l.186-.054 78.29-23.936c3.088-.944 4.843-4.2 3.99-7.334l-.054-.188-11.684-38.219c-.957-3.129-4.19-4.927-7.284-4.089l-.186.054z" fill="#E9F4FC"/>
            <path d="M96.974 27.768c4.11-1.256 8.473 1.101 9.746 5.266l11.684 38.218c1.274 4.165-1.025 8.56-5.135 9.816l-78.29 23.936c-4.11 1.256-8.473-1.102-9.747-5.266L13.548 61.52c-1.273-4.165 1.026-8.56 5.135-9.816l78.29-23.936zm.538 1.762-78.29 23.936c-3.088.944-4.842 4.2-3.99 7.334l.054.188L26.97 99.206c.957 3.13 4.19 4.928 7.284 4.09l.186-.054 78.29-23.936c3.088-.944 4.843-4.2 3.99-7.334l-.054-.188-11.684-38.219c-.957-3.129-4.19-4.927-7.284-4.089l-.186.054z" fill="#073B4C"/>
        </g>
        <path d="M106.827 34.558 28.536 58.494c-3.088.944-4.842 4.2-3.99 7.334l.054.188 11.685 38.219c.957 3.129 4.19 4.927 7.284 4.089l.185-.054 78.291-23.936c3.088-.944 4.842-4.2 3.99-7.334l-.054-.188-11.685-38.218c-.956-3.13-4.19-4.928-7.284-4.09l-.185.054z" fill="#FFF" fill-rule="nonzero"/>
        <path d="M106.288 32.796c4.11-1.256 8.473 1.102 9.746 5.266L127.72 76.28c1.273 4.165-1.026 8.56-5.135 9.816l-78.291 23.936c-4.11 1.256-8.473-1.101-9.746-5.266L22.862 66.548c-1.273-4.165 1.026-8.56 5.135-9.816l78.291-23.936zm.539 1.762L28.536 58.494c-3.088.944-4.842 4.2-3.99 7.334l.054.188 11.685 38.219c.957 3.129 4.19 4.927 7.284 4.089l.185-.054 78.291-23.936c3.088-.944 4.842-4.2 3.99-7.334l-.054-.188-11.685-38.218c-.956-3.13-4.19-4.928-7.284-4.09l-.185.054z" fill="#073B4C" fill-rule="nonzero"/>
        <g transform="rotate(-17 231.646 -154.778)">
            <ellipse fill="#FFD166" cx="16.362" cy="16.57" rx="16.362" ry="16.57"/>
            <path d="m16.604 8.285.081.004c.435.043.795.375.893.822l.017.097.01.18-.002 1.367 1.767.002.094.005c.435.042.795.374.893.821l.017.098.01.179-.004.094a1.05 1.05 0 0 1-.78.914l-.092.018-.174.01h-4.036l-.099.003c-.717.055-1.273.71-1.273 1.488 0 .673.417 1.263 1.012 1.439l.106.027.202.023 2.18.003.143.003c1.805.08 3.255 1.672 3.256 3.626 0 1.683-1.078 3.13-2.582 3.524l-.147.035-.493.077.001 1.397-.004.1-.013.096c-.073.415-.376.75-.766.845l-.092.017-.137.009-.175-.012-.086-.018c-.34-.087-.632-.39-.723-.779l-.019-.099-.013-.197v-1.368l-2.223.002-.094-.004c-.434-.043-.794-.375-.892-.822l-.017-.097-.01-.18.004-.093a1.05 1.05 0 0 1 .78-.914l.092-.018.173-.011 4.037.001.099-.004c.717-.055 1.272-.71 1.272-1.488 0-.673-.417-1.262-1.01-1.438l-.107-.027-.202-.023-2.18-.002-.143-.004c-1.806-.08-3.255-1.672-3.255-3.626 0-1.846 1.298-3.384 2.983-3.603l.15-.016.543-.023.002-1.39.004-.1c.04-.46.359-.84.78-.943l.091-.017.15-.01z" fill="#073B4C" fill-rule="nonzero"/>
            <path d="M16.362 0C25.4 0 32.724 7.419 32.724 16.57S25.4 33.14 16.362 33.14C7.326 33.14 0 25.72 0 16.57S7.326 0 16.362 0zm0 1.732C8.27 1.732 1.711 8.375 1.711 16.57c0 8.194 6.56 14.837 14.651 14.837 8.092 0 14.652-6.643 14.652-14.837 0-8.195-6.56-14.838-14.652-14.838z" fill="#073B4C" fill-rule="nonzero"/>
        </g>
        <g transform="translate(76.297 84.44)">
            <ellipse stroke="#073B4C" stroke-width="1.033" fill="#72EFD3" cx="22.869" cy="22.844" rx="22.352" ry="22.328"/>
            <path d="M30.879 16.555a1.138 1.138 0 0 1 1.607 0c.4.402.438 1.035.077 1.497l-.078.087-10.993 10.997a1.143 1.143 0 0 1-1.519.079l-.087-.078-6.63-6.615a1.12 1.12 0 0 1-.003-1.584 1.143 1.143 0 0 1 1.52-.08l.087.077 5.827 5.812z" fill="#073B4C"/>
        </g>
    </g>
</svg>
