<svg width="85" height="85" viewBox="0 0 85 85" xmlns="http://www.w3.org/2000/svg">
    <g fill="none" fill-rule="evenodd">
        <circle stroke="#073B4C" stroke-width="3" fill="#FFD166" cx="42.5" cy="42.5" r="41"/>
        <path d="m46.559 30.144.136.252 10.99 21.174c.179.479.282.992.31 1.522.115 2.48-1.55 4.608-3.819 4.884l-.264.024H32.169l-.048-.005-.125.003a3.977 3.977 0 0 1-1.041-.206l-.335-.131c-2.092-.937-3.138-3.497-2.366-5.952l.097-.283 10.917-21.014a4.462 4.462 0 0 1 1.66-1.825c1.975-1.203 4.44-.494 5.63 1.557zm-4.542.611a2.05 2.05 0 0 0-.662.654l-.123.216-10.86 20.882c-.415 1.123.076 2.403 1.093 2.858.139.062.283.106.432.133l.226.027.046-.002 21.684.002c1.102-.064 1.949-1.095 1.892-2.3a3.458 3.458 0 0 0-.047-.409l-.033-.16L44.732 31.61c-.534-1.06-1.747-1.445-2.715-.855zm.969 18.687c.621 0 1.126.5 1.126 1.127v.017c0 .626-.505 1.135-1.126 1.135a1.131 1.131 0 0 1-1.126-1.135c0-.627.504-1.144 1.126-1.144zM42.97 38c.57 0 1.041.537 1.116 1.233l.01.194v5.896c0 .788-.504 1.427-1.126 1.427-.57 0-1.04-.537-1.115-1.233l-.01-.194v-5.896c0-.788.503-1.427 1.125-1.427z" fill="#073B4C"/>
    </g>
</svg>
