<svg xmlns="http://www.w3.org/2000/svg" width="30" height="30" viewBox="0 0 30 30">
    <g fill="none" fill-rule="evenodd">
        <g fill="#073B4C">
            <g>
                <g>
                    <path d="M21.25 0c3.452 0 6.25 2.798 6.25 6.25V7.5c1.318 0 2.398 1.02 2.493 2.313L30 10v2.5c0 1.318-1.02 2.398-2.313 2.493L27.5 15v6.25c0 2.044-.981 3.859-2.499 5L25 27.5l-.007.187c-.09 1.228-1.07 2.21-2.297 2.305L22.5 30H20l-.187-.007c-1.228-.09-2.21-1.07-2.305-2.297L17.5 27.5h-5c0 1.318-1.02 2.398-2.313 2.493L10 30H7.5c-1.318 0-2.398-1.02-2.493-2.313L5 27.5v-1.25c-1.518-1.14-2.5-2.955-2.5-5V15C1.12 15 0 13.88 0 12.5V10c0-1.38 1.12-2.5 2.5-2.5V6.25C2.5 2.798 5.298 0 8.75 0h12.5zm-15 26.98v.52l.008.146c.067.574.522 1.029 1.096 1.096l.146.008H10l.146-.008c.574-.067 1.029-.522 1.096-1.096l.008-.146h-2.5c-.889 0-1.734-.185-2.5-.52zm15 .52h-2.5l.008.146c.062.526.45.952.955 1.071l.141.025.146.008h2.5l.146-.008c.526-.062.952-.45 1.071-.955l.025-.141.008-.146v-.52c-.765.334-1.61.52-2.5.52zm0-25.625H8.75c-2.336 0-4.244 1.83-4.369 4.135l-.006.24v15c0 2.336 1.83 4.244 4.135 4.369l.24.006h12.5c2.336 0 4.244-1.83 4.369-4.135l.006-.24v-15c0-2.336-1.83-4.244-4.135-4.369l-.24-.006zM8.125 20C9.161 20 10 20.84 10 21.875c0 1.036-.84 1.875-1.875 1.875-1.036 0-1.875-.84-1.875-1.875 0-1.036.84-1.875 1.875-1.875zm13.75 0c1.036 0 1.875.84 1.875 1.875 0 1.036-.84 1.875-1.875 1.875-1.036 0-1.875-.84-1.875-1.875 0-1.036.84-1.875 1.875-1.875zm-13.75 1.25c-.345 0-.625.28-.625.625s.28.625.625.625.625-.28.625-.625-.28-.625-.625-.625zm13.75 0c-.345 0-.625.28-.625.625s.28.625.625.625.625-.28.625-.625-.28-.625-.625-.625zM21.25 7.5c1.38 0 2.5 1.12 2.5 2.5v6.25c0 1.38-1.12 2.5-2.5 2.5H8.75c-1.38 0-2.5-1.12-2.5-2.5V10c0-1.38 1.12-2.5 2.5-2.5h12.5zm0 1.875H8.75c-.307 0-.562.221-.615.513l-.01.112v6.25c0 .307.221.562.513.615l.112.01h12.5c.307 0 .562-.221.615-.513l.01-.112V10c0-.307-.221-.562-.513-.615l-.112-.01zM2.5 8.75l-.146.008c-.574.067-1.029.522-1.096 1.096L1.25 10v2.5c0 .641.483 1.17 1.104 1.242l.146.008v-5zm25 0v5l.146-.008c.574-.067 1.029-.522 1.096-1.096l.008-.146V10l-.008-.146c-.062-.526-.45-.952-.955-1.071l-.141-.025-.146-.008zm-5-5c.69 0 1.25.56 1.25 1.25s-.56 1.25-1.25 1.25h-15c-.69 0-1.25-.56-1.25-1.25s.56-1.25 1.25-1.25h15z" transform="translate(-165 -111) translate(15 111) translate(150)"/>
                </g>
            </g>
        </g>
    </g>
</svg>
