<svg xmlns="http://www.w3.org/2000/svg" width="182" height="179" viewBox="0 0 182 179">
    <g fill="none" fill-rule="evenodd">
        <g>
            <g transform="translate(-80 -53) translate(80 53)">
                <ellipse cx="100.5" cy="109" fill="#00D576" rx="70.5" ry="70"/>
                <path fill="#00D576" fill-rule="nonzero" d="M24 38c5.523 0 10 4.477 10 10-.004 5.521-4.479 9.996-10 10-5.523 0-10-4.477-10-10s4.477-10 10-10zm0 1.538c-4.673 0-8.462 3.789-8.462 8.462s3.789 8.462 8.462 8.462 8.462-3.789 8.462-8.461c-.004-4.673-3.79-8.46-8.463-8.463z"/>
                <path fill="#00D576" d="M42.5 21c.782 0 1.425.633 1.494 1.442l.006.145v3.826C44 27.29 43.328 28 42.5 28c-.782 0-1.425-.633-1.494-1.442L41 26.413v-3.826c0-.877.672-1.587 1.5-1.587zm6.915-3c.875 0 1.585.671 1.585 1.5 0 .783-.634 1.425-1.44 1.494l-.145.006h-3.83C44.71 21 44 20.329 44 19.5c0-.783.634-1.425 1.44-1.494l.145-.006h3.83zm-10 0c.875 0 1.585.671 1.585 1.5 0 .783-.634 1.425-1.44 1.494l-.145.006h-3.83C34.71 21 34 20.329 34 19.5c0-.783.634-1.425 1.44-1.494l.145-.006h3.83zm3.085-7c.782 0 1.425.633 1.494 1.442l.006.145v3.826C44 17.29 43.328 18 42.5 18c-.782 0-1.425-.633-1.494-1.442L41 16.413v-3.826c0-.877.672-1.587 1.5-1.587zM5 28c.521 0 .95.362.996.824l.004.083v2.186c0 .501-.448.907-1 .907-.521 0-.95-.362-.996-.824L4 31.093v-2.186c0-.501.448-.907 1-.907zm4.094-2c.5 0 .906.447.906 1 0 .522-.362.95-.823.996L9.094 28H6.906c-.5 0-.906-.447-.906-1 0-.522.362-.95.823-.996L6.906 26h2.188zm-6 0c.5 0 .906.447.906 1 0 .522-.362.95-.823.996L3.094 28H.906C.406 28 0 27.553 0 27c0-.522.362-.95.823-.996L.906 26h2.188zM5 22c.521 0 .95.362.996.824l.004.083v2.186c0 .501-.448.907-1 .907-.521 0-.95-.362-.996-.824L4 25.093v-2.186c0-.501.448-.907 1-.907z"/>
                <path fill="#00D576" fill-rule="nonzero" d="M157 0c5.523 0 10 4.477 10 10-.004 5.521-4.479 9.996-10 10-5.523 0-10-4.477-10-10s4.477-10 10-10zm0 1.538c-4.673 0-8.462 3.789-8.462 8.462s3.789 8.462 8.462 8.462 8.462-3.789 8.462-8.461c-.004-4.673-3.79-8.46-8.463-8.463z"/>
                <path fill="#00D576" d="M169.5 43c.782 0 1.425.633 1.494 1.442l.006.145v3.826c0 .877-.672 1.587-1.5 1.587-.782 0-1.425-.633-1.494-1.442l-.006-.145v-3.826c0-.877.672-1.587 1.5-1.587zm6.915-3c.875 0 1.585.671 1.585 1.5 0 .783-.634 1.425-1.44 1.494l-.145.006h-3.83c-.875 0-1.585-.671-1.585-1.5 0-.783.634-1.425 1.44-1.494l.145-.006h3.83zm-10 0c.875 0 1.585.671 1.585 1.5 0 .783-.634 1.425-1.44 1.494l-.145.006h-3.83c-.875 0-1.585-.671-1.585-1.5 0-.783.634-1.425 1.44-1.494l.145-.006h3.83zm3.085-7c.782 0 1.425.633 1.494 1.442l.006.145v3.826c0 .877-.672 1.587-1.5 1.587-.782 0-1.425-.633-1.494-1.442l-.006-.145v-3.826c0-.877.672-1.587 1.5-1.587z" transform="rotate(45 169.5 41.5)"/>
                <path fill="#00D576" d="M132 16c.521 0 .95.362.996.824l.004.083v2.186c0 .501-.448.907-1 .907-.521 0-.95-.362-.996-.824l-.004-.083v-2.186c0-.501.448-.907 1-.907zm4.094-2c.5 0 .906.447.906 1 0 .522-.362.95-.823.996l-.083.004h-2.188c-.5 0-.906-.447-.906-1 0-.522.362-.95.823-.996l.083-.004h2.188zm-6 0c.5 0 .906.447.906 1 0 .522-.362.95-.823.996l-.083.004h-2.188c-.5 0-.906-.447-.906-1 0-.522.362-.95.823-.996l.083-.004h2.188zM132 10c.521 0 .95.362.996.824l.004.083v2.186c0 .501-.448.907-1 .907-.521 0-.95-.362-.996-.824l-.004-.083v-2.186c0-.501.448-.907 1-.907z" transform="rotate(45 132 15)"/>
                <g>
                    <path fill="#FED168" d="M2.936 5.052V2.936c-.055-.756.496-1.422 1.25-1.51H126.98c2.796 0 5.443 4.148 6.627 7.177H2.937V5.052z" transform="translate(30 74)"/>
                    <path fill="#FFF" fill-rule="nonzero" d="M104.078 11.567H111.376V35.233000000000004H104.078z" transform="translate(30 74)"/>
                    <path fill="#FFF" d="M101.356 11.567L101.356 35.233 86.312 35.233 81.913 35.233 76.292 35.233 76.292 11.567 81.913 11.567 86.312 11.567zM73.664 35.233L58.62 35.233 54.22 35.233 48.609 35.233 48.506 11.567 52.449 11.567 58.526 11.567 73.58 11.567zM45.878 35.233L30.834 35.233 26.434 35.233 20.814 35.233 20.721 11.567 26.341 11.567 30.741 11.567 45.785 11.567zM3.029 35.233L2.936 11.567 17.999 11.567 18.092 35.233zM140.44 32.623c1.313 4.397 2.098 8.934 2.339 13.516h-13.814c-.957-.113-1.853-.531-2.554-1.193-3.43-2.796-7.4-5.649-10.859-8.39-.443-.48-.93-.92-1.454-1.313V11.539h19.994c.512 1.771 5.658 18.764 6.347 21.084z" transform="translate(30 74)"/>
                    <path fill="#E8F2FB" d="M142.779 63.737c-.01.69-.568 1.248-1.258 1.258H4.185c-.69-.01-1.244-.569-1.249-1.258V38.216H110.25c.925.018 1.818.347 2.535.932l3.98 3.197 5.48 4.41 1.399 1.118c1.506 1.204 3.376 1.861 5.304 1.864h13.813l.019 14z" transform="translate(30 74)"/>
                    <path fill="#FFF" d="M143.068 46.167h-14.103c-.957-.113-1.853-.531-2.554-1.193-3.43-2.797-7.4-5.649-10.859-8.39-.443-.48-.93-.92-1.454-1.313V11.539h19.994c.512 1.771 5.658 18.764 6.347 21.112 1.314 4.397 2.1 8.934 2.34 13.516h.289z" transform="translate(30 74)"/>
                    <path fill="#073B4B" d="M150.161 25.698l-3.365-10.505c-.29-.913-1.139-1.532-2.097-1.528h-7.298l-1.026-3.486-.708-2.415c-.011-.054-.027-.107-.047-.158C133.884 3.04 129.515.016 124.63 0H5.659C2.533 0 0 2.533 0 5.658V64.25c0 3.113 1.072 3.896 4.185 3.896h137.391c3.114 0 3.887-1.072 3.887-4.195V47.276c.012-5.44-.954-10.84-2.852-15.939l-3.915-13.273h4.4l2.88 8.967c.225.767.85 1.352 1.63 1.527.78.174 1.595-.089 2.126-.687.53-.598.695-1.437.43-2.192v.019zM2.936 5.658V3.896c.005-.69.56-1.248 1.25-1.258H126.98c2.796 0 5.443 3.449 6.627 5.965H2.937V5.658zm108.44 5.91v23.665h-7.298V11.567h7.298zm-10.02 0v23.665H76.292V11.567h25.064zm-27.72 23.665H48.609l-.14-23.666h25.102l.065 23.666zm-27.795 0H20.814l-.093-23.666h25.064l.056 23.666zm-42.877 0l-.028-23.666H18l.093 23.666H2.964zM142.78 63.737c-.01.69-.568 1.248-1.258 1.258H4.185c-.69-.01-1.244-.569-1.249-1.258V38.216H110.25c.925.018 1.818.347 2.535.932l3.98 3.197 5.48 4.41 1.399 1.118c1.506 1.204 3.376 1.861 5.304 1.864h13.813l.019 14zm-2.34-31.114c1.314 4.397 2.1 8.934 2.34 13.516h-13.814c-.957-.113-1.853-.531-2.554-1.193-3.43-2.796-7.4-5.649-10.859-8.39-.443-.48-.93-.92-1.454-1.313V11.539h19.994c.512 1.771 5.658 18.764 6.347 21.084z" transform="translate(30 74)"/>
                    <path fill="#FED168" d="M30.76 54.789c-15.017.27-15.008 22.575 0 22.818 14.978-.243 14.969-22.548 0-22.818" transform="translate(30 74)"/>
                    <path fill="#073B4B" fill-rule="nonzero" d="M30.862 78.865c-8.622-.084-12.584-6.58-12.62-12.574-.038-5.994 3.811-12.546 12.377-12.76 8.576.093 12.537 6.58 12.574 12.573.038 5.994-3.765 12.546-12.331 12.76zm-.196-22.818c-6.86.187-9.945 5.425-9.908 10.253.037 4.828 3.206 10.01 10.076 10.076 6.832-.168 9.927-5.425 9.89-10.253-.038-4.828-3.198-9.992-10.058-10.076z" transform="translate(30 74)"/>
                    <path fill="#073B4B" d="M30.76 61.006c-6.824.121-6.824 10.253 0 10.383 6.822-.12 6.822-10.253 0-10.383" transform="translate(30 74)"/>
                    <path fill="#FED168" d="M114.098 54.789c-14.997.27-14.988 22.557 0 22.818 14.998-.27 14.998-22.548 0-22.818" transform="translate(30 74)"/>
                    <path fill="#073B4B" fill-rule="nonzero" d="M114.22 78.865c-8.623-.084-12.575-6.58-12.621-12.574-.047-5.994 3.812-12.546 12.387-12.76 8.585.093 12.537 6.58 12.584 12.573.046 5.994-3.775 12.546-12.35 12.76zm-.196-22.818c-6.86.187-9.946 5.425-9.909 10.253.038 4.828 3.207 10.01 10.086 10.076 6.832-.168 9.917-5.425 9.89-10.253-.029-4.828-3.207-9.992-10.067-10.076z" transform="translate(30 74)"/>
                    <path fill="#073B4B" d="M114.098 61.006c-6.823.121-6.823 10.253 0 10.383 6.823-.12 6.823-10.253 0-10.383" transform="translate(30 74)"/>
                </g>
                <g>
                    <path fill="#FFF" d="M9.069 2.582c-3.577 0-6.487 2.91-6.487 6.486V44.05c0 3.577 2.91 6.487 6.487 6.487H72.9c3.577 0 6.487-2.91 6.487-6.487V9.068c0-3.576-2.91-6.486-6.487-6.486H9.07z" transform="rotate(-13 232.872 -213.418)"/>
                    <path fill="#073B4C" d="M72.902 0c5 0 9.069 4.068 9.069 9.069V44.05c0 5-4.069 9.069-9.07 9.069H9.07c-5 0-9.069-4.068-9.069-9.069V9.07C0 4.069 4.068 0 9.069 0zm0 2.582H9.069c-3.577 0-6.487 2.91-6.487 6.487V44.05c0 3.577 2.91 6.487 6.487 6.487h63.833c3.576 0 6.486-2.91 6.486-6.487V9.07c0-3.577-2.91-6.487-6.486-6.487zm-34.046 39.64c.552 0 1 .448 1 1s-.448 1-1 1h-12c-.552 0-1-.448-1-1s.448-1 1-1h12zm-16 0c.552 0 1 .448 1 1s-.448 1-1 1h-12c-.552 0-1-.448-1-1s.448-1 1-1h12zm32 0c.552 0 1 .448 1 1s-.448 1-1 1h-12c-.552 0-1-.448-1-1s.448-1 1-1h12zm16 0c.552 0 1 .448 1 1s-.448 1-1 1h-12c-.552 0-1-.448-1-1s.448-1 1-1h12z" transform="rotate(-13 232.872 -213.418)"/>
                    <g fill-rule="nonzero" transform="rotate(-13 232.872 -213.418) translate(26.117 8.222)">
                        <circle cx="14.498" cy="14.5" r="12.288" fill="#FFD166"/>
                        <path fill="#073B4C" d="M14.498.75c7.58 0 13.748 6.166 13.748 13.748 0 7.581-6.167 13.748-13.748 13.748C6.917 28.246.75 22.079.75 14.498.75 6.916 6.917.75 14.498.75zm0 1.863c-6.553 0-11.885 5.332-11.885 11.885 0 6.552 5.333 11.884 11.885 11.884s11.884-5.332 11.884-11.884c0-6.553-5.331-11.885-11.884-11.885zm6.775 6.52c.083 0 .168.012.251.034.347.092.62.367.71.719.08.308.011.633-.179.878l-.089.1-8.61 8.71c-.19.187-.439.292-.7.292-.223 0-.433-.073-.604-.207l-.098-.088-4.913-4.969c-.263-.258-.368-.633-.276-.986.091-.351.363-.627.71-.719.083-.022.168-.033.252-.033.23 0 .453.082.627.226l.083.077 4.052 4.096c.043.044.104.069.166.069.042 0 .083-.011.118-.032l.05-.038 7.737-7.823.1-.09c.173-.138.39-.216.613-.216z"/>
                    </g>
                </g>
            </g>
        </g>
    </g>
</svg>
