<svg xmlns="http://www.w3.org/2000/svg" width="184" height="178"><g fill="none" fill-rule="evenodd"><ellipse cx="90.5" cy="108" fill="#00D576" rx="70.5" ry="70"/><g fill-rule="nonzero"><g transform="translate(41.082 56.118)"><path fill="#E0E0E0" d="M112.37 13.523l-86.594 74.22-.089.076-4.18.766a10.184 10.184 0 01-11.859-8.178L.246 29.13c-1.014-5.532 2.646-10.84 8.178-11.858l2.541-.462L99.648.538c2.658-.494 5.403.09 7.628 1.626a10.155 10.155 0 014.23 6.552l.865 4.807z"/><path fill="#E0E0E0" d="M55.11 96.827l-16.992 3.126c-6.26 1.148-12.264-2.995-13.414-9.254L15.79 42.044c-1.148-6.256 8.5-11.126 8.5-11.126l9.67 52.272c2.947 12.65 16.94 12.689 21.15 13.637z"/><path fill="#FFF" d="M126.707 83.685l-88.59 16.268c-6.259 1.148-12.263-2.995-13.413-9.254L15.79 42.044c-1.148-6.26 2.995-12.264 9.254-13.413l88.581-16.255a11.515 11.515 0 0113.409 9.254l8.92 48.646a11.516 11.516 0 01-9.254 13.409h.008z"/><circle cx="76.489" cy="56.414" r="20.833" fill="#EBC712"/><path fill="#215B58" d="M79.348 68.413a1.52 1.52 0 01-1.787-1.182l-.424-2.02-3.443.707a1.517 1.517 0 11-.61-2.965l6.2-1.27a2.192 2.192 0 001.198-3.599 2.192 2.192 0 00-2.078-.692l-3.24.665a5.222 5.222 0 11-2.097-10.232l.483-.097-.423-2.02a1.517 1.517 0 112.964-.611l.424 2.02 2.749-.563a1.517 1.517 0 01.609 2.966l-6.2 1.27a2.193 2.193 0 00.88 4.294l3.24-.665a5.222 5.222 0 012.673 10.08l-.36.115.424 2.011c.166.82-.362 1.62-1.182 1.788z"/></g><path fill="#225C58" d="M151.268 144.822a1.812 1.812 0 01-.276-3.592l17.115-3.206a9.71 9.71 0 007.802-11.3l-4.388-24.14a1.81 1.81 0 011.783-2.149c.877 0 1.627.629 1.783 1.492l4.388 24.14c1.325 7.24-3.468 14.185-10.707 15.515-6.65 1.245-16.624 3.096-17.5 3.24zm-73.495 13.243a13.328 13.328 0 01-13.109-10.927l-.313-1.694-2.401.424c-6.52 1.197-12.776-3.116-13.977-9.636L38.58 84.956c-1.2-6.52 3.113-12.776 9.631-13.977l91.211-16.725a12.27 12.27 0 012.19-.199 12.002 12.002 0 0111.773 9.834l.555 3.02 1.072-.203a13.618 13.618 0 012.435-.225 13.342 13.342 0 0113.083 10.932l2.27 12.337c.09.472-.014.96-.288 1.355a1.813 1.813 0 01-3.274-.703l-2.262-12.329a9.716 9.716 0 00-9.529-7.958 9.91 9.91 0 00-1.77.161L67.1 86.531a9.721 9.721 0 00-7.806 11.309l8.924 48.642a9.703 9.703 0 0011.304 7.798l58.93-10.814a1.814 1.814 0 01.652 3.566l-58.917 10.813c-.797.145-1.605.219-2.414.22zm63.83-100.375c-.512 0-1.022.047-1.525.14L48.867 74.554a8.382 8.382 0 00-6.722 9.741l9.407 51.277a8.365 8.365 0 009.745 6.721l2.398-.423L55.74 98.5c-1.32-7.24 3.469-14.184 10.707-15.522l83.93-15.425-.554-3.024a8.378 8.378 0 00-8.221-6.861v.02z"/><path fill="#225C58" d="M117.606 134.924c-12.507 0-22.646-10.14-22.646-22.646 0-12.507 10.139-22.646 22.646-22.646 12.507 0 22.646 10.139 22.646 22.646-.014 12.5-10.145 22.632-22.646 22.646zm0-41.667a19.023 19.023 0 00-13.457 32.478 19.025 19.025 0 0032.477-13.457c-.02-10.496-8.524-19-19.02-19.021zM2.118 128.283a1.814 1.814 0 01-.424-3.554l16.035-3.921a1.812 1.812 0 01.847 3.519l-16.035 3.905c-.139.034-.28.05-.423.05zM22.9 156.918a1.813 1.813 0 01-.423-3.575l16.035-3.918a1.812 1.812 0 11.847 3.52l-16.035 3.918c-.138.036-.28.055-.424.055zM6.395 143.246a1.813 1.813 0 01-.466-3.566l24.938-6.412a1.811 1.811 0 01.902 3.507l-24.92 6.415c-.149.037-.3.056-.454.055zm24.582-21.731a1.812 1.812 0 01-.424-3.575l3.389-.796a1.81 1.81 0 012.221 1.549 1.813 1.813 0 01-1.374 1.975l-3.389.796c-.138.034-.28.051-.423.05zM3.96 161.953a1.812 1.812 0 01-.424-3.574l6.057-1.427a1.813 1.813 0 01.847 3.528l-6.056 1.427c-.14.03-.282.046-.424.046z"/></g><path fill="#00D576" fill-rule="nonzero" d="M24 44c5.523 0 10 4.477 10 10-.004 5.521-4.479 9.996-10 10-5.523 0-10-4.477-10-10s4.477-10 10-10zm0 1.538a8.463 8.463 0 108.462 8.463 8.469 8.469 0 00-8.463-8.463z"/><path fill="#00D576" d="M42.5 27c.782 0 1.425.633 1.494 1.442l.006.145v3.826C44 33.29 43.328 34 42.5 34c-.782 0-1.425-.633-1.494-1.442L41 32.413v-3.826c0-.877.672-1.587 1.5-1.587zm6.915-3c.875 0 1.585.671 1.585 1.5 0 .783-.634 1.425-1.44 1.494l-.145.006h-3.83C44.71 27 44 26.329 44 25.5c0-.783.634-1.425 1.44-1.494l.145-.006h3.83zm-10 0c.875 0 1.585.671 1.585 1.5 0 .783-.634 1.425-1.44 1.494l-.145.006h-3.83C34.71 27 34 26.329 34 25.5c0-.783.634-1.425 1.44-1.494l.145-.006h3.83zm3.085-7c.782 0 1.425.633 1.494 1.442l.006.145v3.826C44 23.29 43.328 24 42.5 24c-.782 0-1.425-.633-1.494-1.442L41 22.413v-3.826c0-.877.672-1.587 1.5-1.587zM5 34c.521 0 .95.362.996.824l.004.083v2.186c0 .501-.448.907-1 .907-.521 0-.95-.362-.996-.824L4 37.093v-2.186c0-.501.448-.907 1-.907zm4.094-2c.5 0 .906.447.906 1 0 .522-.362.95-.823.996L9.094 34H6.906c-.5 0-.906-.447-.906-1 0-.522.362-.95.823-.996L6.906 32h2.188zm-6 0c.5 0 .906.447.906 1 0 .522-.362.95-.823.996L3.094 34H.906C.406 34 0 33.553 0 33c0-.522.362-.95.823-.996L.906 32h2.188zM5 28c.521 0 .95.362.996.824l.004.083v2.186c0 .501-.448.907-1 .907-.521 0-.95-.362-.996-.824L4 31.093v-2.186c0-.501.448-.907 1-.907z"/><path fill="#00D576" fill-rule="nonzero" d="M152 0c5.523 0 10 4.477 10 10-.004 5.521-4.479 9.996-10 10-5.523 0-10-4.477-10-10s4.477-10 10-10zm0 1.538a8.463 8.463 0 108.462 8.463 8.469 8.469 0 00-8.463-8.463z"/><path fill="#00D576" d="M170.44 38.56c.552.554.56 1.456.036 2.077l-.098.106-2.706 2.706c-.62.62-1.597.647-2.182.061-.553-.553-.56-1.455-.037-2.076l.098-.106 2.706-2.706c.62-.62 1.597-.647 2.182-.061zm7.01 2.769c.619.619.647 1.595.06 2.181-.553.554-1.456.56-2.074.039l-.107-.099-2.708-2.708c-.619-.619-.647-1.595-.06-2.181.553-.554 1.456-.56 2.074-.039l.107.099 2.708 2.708zm-7.07-7.071c.618.619.646 1.595.06 2.181-.554.554-1.457.56-2.075.039l-.107-.099-2.708-2.708c-.619-.619-.647-1.595-.06-2.181.553-.554 1.456-.56 2.074-.039l.107.099 2.708 2.708zm7.13-2.768c.553.553.56 1.455.037 2.076l-.098.106-2.706 2.706c-.62.62-1.597.647-2.182.061-.553-.553-.56-1.455-.037-2.076l.098-.106 2.706-2.706c.62-.62 1.597-.647 2.182-.061zM129.293 25.707c.368.369.416.928.122 1.287l-.056.062-1.546 1.545c-.354.355-.958.325-1.349-.065-.368-.369-.415-.928-.121-1.287l.056-.062 1.545-1.546c.355-.354.959-.324 1.349.066zm4.309 1.48c.354.354.325.958-.066 1.349-.37.369-.928.415-1.287.122l-.061-.056-1.547-1.547c-.354-.354-.325-.957.066-1.348.37-.369.928-.416 1.286-.122l.062.056 1.547 1.547zm-4.243-4.242c.354.354.325.957-.066 1.348-.37.369-.928.416-1.286.122l-.062-.056-1.547-1.547c-.354-.353-.325-.957.066-1.348.37-.369.928-.415 1.287-.122l.061.056 1.547 1.547zm4.177-1.48c.368.368.415.927.121 1.286l-.056.062-1.545 1.546c-.355.354-.959.324-1.349-.066-.368-.369-.416-.928-.122-1.287l.056-.062 1.546-1.545c.354-.355.958-.325 1.349.065z"/></g></svg>