<svg xmlns="http://www.w3.org/2000/svg" width="154" height="155" viewBox="0 0 154 155">
    <g fill="none" fill-rule="evenodd">
        <g>
            <g transform="translate(-98 -62) translate(98 62.5)">
                <circle cx="85.5" cy="94" r="59.5" fill="#E9F4FC"/>
                <g fill-rule="nonzero" transform="translate(54 25.5)">
                    <g fill="#DCDCDC">
                        <path d="M54.74.148H6.842c-3.59 0-6.53 2.97-6.53 6.597v6.596h60.956V6.745c0-3.627-2.94-6.597-6.53-6.597zM.312 89.648v13.193c0 3.626 2.94 6.596 6.53 6.596h47.893c3.59 0 6.53-2.97 6.53-6.596V89.648H.313z" transform="translate(.735 1.114)"/>
                    </g>
                    <path fill="#FFF" d="M1.047 14.455H61.762V90.832H1.047z"/>
                    <ellipse cx="31.524" cy="100.658" fill="#FFF" rx="3.267" ry="3.3"/>
                    <g fill="#225C58">
                        <path d="M55.474.278H7.578C3.44.278.07 3.678.07 7.862v96.096c0 4.18 3.366 7.584 7.508 7.584H55.47c4.139 0 7.508-3.4 7.508-7.584v-96.1c0-4.18-3.366-7.58-7.504-7.58zm5.553 89.5H18.228c-.537 0-.978.441-.978.987 0 .542.438.987.978.987h42.8v12.21c0 3.092-2.493 5.612-5.554 5.612H7.578c-3.065 0-5.557-2.516-5.557-5.612v-12.21h5.557c.536 0 .977-.441.977-.987s-.437-.987-.977-.987H2.02V15.442h59.006v74.336zm0-76.307H2.021V7.86c0-3.093 2.492-5.613 5.557-5.613H55.47c3.062 0 5.553 2.517 5.553 5.613v5.612h.004z"/>
                        <path d="M38.055 6.21h-6.53c-.901 0-1.633.74-1.633 1.649s.732 1.648 1.632 1.648h6.53c.901 0 1.632-.739 1.632-1.648 0-.91-.727-1.649-1.631-1.649zM31.524 105.606c2.701 0 4.899-2.22 4.899-4.948 0-2.729-2.198-4.948-4.899-4.948s-4.899 2.22-4.899 4.948 2.198 4.948 4.9 4.948zm0-8.248c1.8 0 3.267 1.48 3.267 3.3 0 1.819-1.466 3.3-3.267 3.3-1.8 0-3.267-1.481-3.267-3.3 0-1.82 1.466-3.3 3.267-3.3z"/>
                        <ellipse cx="24.991" cy="7.854" rx="1.633" ry="1.647" transform="rotate(-13.286 24.991 7.854)"/>
                    </g>
                </g>
                <g transform="translate(69 59.5)">
                    <circle cx="17.5" cy="17.5" r="17.143" fill="#EF476F"/>
                    <g fill="#FFF">
                        <path d="M11.88 2.58c.15-.117.369-.106.507.033.15.15.15.393 0 .544L8.044 7.5l4.343 4.343c.15.15.15.394 0 .544-.138.139-.356.15-.507.032l-.037-.032L7.5 8.044l-4.343 4.343-.037.032c-.15.118-.369.107-.507-.032-.15-.15-.15-.393 0-.544L6.956 7.5 2.613 3.157c-.15-.15-.15-.394 0-.544.138-.139.356-.15.507-.032l.037.032L7.5 6.956l4.343-4.343z" transform="translate(10.357 9.643)"/>
                    </g>
                </g>
                <path fill="#437471" fill-rule="nonzero" d="M20.5 33.5c4.695 0 8.5 3.805 8.5 8.5-.004 4.693-3.807 8.496-8.5 8.5-4.694 0-8.5-3.806-8.5-8.5 0-4.695 3.805-8.5 8.5-8.5zm0 1.308c-3.972 0-7.192 3.22-7.192 7.192s3.22 7.192 7.192 7.192 7.192-3.22 7.192-7.191c-.003-3.972-3.222-7.19-7.193-7.193z"/>
                <path fill="#437471" d="M36 18.735c.644 0 1.173.522 1.23 1.188l.005.119v3.151c0 .722-.553 1.307-1.235 1.307-.644 0-1.173-.521-1.23-1.188l-.005-.119v-3.151c0-.722.553-1.307 1.235-1.307zm5.695-2.47c.72 0 1.305.552 1.305 1.235 0 .645-.522 1.173-1.187 1.23l-.118.005H38.54c-.72 0-1.306-.552-1.306-1.235 0-.645.522-1.173 1.187-1.23l.119-.005h3.154zm-8.236 0c.72 0 1.306.552 1.306 1.235 0 .645-.522 1.173-1.187 1.23l-.119.005h-3.154c-.72 0-1.305-.552-1.305-1.235 0-.645.522-1.173 1.187-1.23l.118-.005h3.154zM36 10.5c.644 0 1.173.521 1.23 1.188l.005.119v3.151c0 .722-.553 1.307-1.235 1.307-.644 0-1.173-.522-1.23-1.188l-.005-.119v-3.151c0-.722.553-1.307 1.235-1.307zM4 24.3c.417 0 .76.29.797.66l.003.065v1.75c0 .4-.359.725-.8.725-.417 0-.76-.29-.797-.66l-.003-.065v-1.75c0-.4.359-.725.8-.725zm3.275-1.6c.4 0 .725.358.725.8 0 .417-.29.76-.659.797l-.066.003h-1.75c-.4 0-.725-.358-.725-.8 0-.417.29-.76.659-.797l.066-.003h1.75zm-4.8 0c.4 0 .725.358.725.8 0 .417-.29.76-.659.797l-.066.003H.725c-.4 0-.725-.358-.725-.8 0-.417.29-.76.659-.797l.066-.003h1.75zM4 19.5c.417 0 .76.29.797.66l.003.065v1.75c0 .4-.359.725-.8.725-.417 0-.76-.29-.797-.66l-.003-.065v-1.75c0-.4.359-.725.8-.725z"/>
                <path fill="#437471" fill-rule="nonzero" d="M132.5.5c4.695 0 8.5 3.805 8.5 8.5-.004 4.693-3.807 8.496-8.5 8.5-4.694 0-8.5-3.806-8.5-8.5 0-4.695 3.805-8.5 8.5-8.5zm0 1.308c-3.972 0-7.192 3.22-7.192 7.192s3.22 7.192 7.192 7.192 7.192-3.22 7.192-7.191c-.003-3.972-3.222-7.19-7.193-7.193z"/>
                <path fill="#437471" d="M143.423 37.514c.662 0 1.206.538 1.264 1.225l.005.122v3.25c0 .744-.569 1.347-1.269 1.347-.661 0-1.206-.538-1.264-1.224l-.005-.123v-3.25c0-.744.569-1.347 1.27-1.347zm5.851-2.548c.74 0 1.341.57 1.341 1.274 0 .665-.536 1.21-1.219 1.269l-.122.005h-3.24c-.74 0-1.342-.57-1.342-1.274 0-.665.537-1.21 1.22-1.268l.122-.006h3.24zm-8.461 0c.74 0 1.34.57 1.34 1.274 0 .665-.535 1.21-1.218 1.269l-.122.005h-3.241c-.74 0-1.341-.57-1.341-1.274 0-.665.536-1.21 1.219-1.268l.122-.006h3.24zm2.61-5.944c.662 0 1.206.538 1.264 1.225l.005.123v3.25c0 .744-.569 1.346-1.269 1.346-.661 0-1.206-.537-1.264-1.224l-.005-.123v-3.25c0-.744.569-1.347 1.27-1.347z" transform="rotate(45 143.423 36.24)"/>
                <path fill="#437471" d="M111.692 14.587c.441 0 .804.307.843.7l.003.07v1.856c0 .426-.379.77-.846.77-.44 0-.803-.307-.842-.7l-.004-.07v-1.857c0-.425.38-.77.846-.77zm3.465-1.699c.423 0 .766.38.766.85 0 .443-.306.806-.697.845l-.07.004h-1.851c-.423 0-.767-.38-.767-.85 0-.443.307-.806.697-.845l.07-.004h1.852zm-5.077 0c.423 0 .766.38.766.85 0 .443-.306.806-.697.845l-.07.004h-1.851c-.423 0-.766-.38-.766-.85 0-.443.306-.806.696-.845l.07-.004h1.852zm1.612-3.396c.441 0 .804.307.843.7l.003.07v1.856c0 .426-.379.77-.846.77-.44 0-.803-.307-.842-.7l-.004-.07v-1.857c0-.425.38-.77.846-.77z" transform="rotate(45 111.692 13.737)"/>
            </g>
        </g>
    </g>
</svg>
