<svg xmlns="http://www.w3.org/2000/svg" xmlns:xlink="http://www.w3.org/1999/xlink" width="85" height="69" viewBox="0 0 85 69">
    <defs>
        <path id="a9gwhtet1a" d="M0 0L57 0 57 69 0 69z"/>
    </defs>
    <g fill="none" fill-rule="evenodd">
        <g>
            <g>
                <path fill="#FFF" d="M30.966 42.837c-.25-2.14-2.002-3.838-4.259-4.129l-2.946-.362c-.82-.102-1.473-.74-1.556-1.524-.119-.95.573-1.782 1.57-1.894l1.392-.15c.915-.103 1.716.497 1.823 1.36.096.844.854 1.409 1.741 1.32.885-.12 1.482-.833 1.39-1.663v-.004c-.277-2.196-2.239-3.89-4.543-3.986l-.058-.476c-.046-.405-.246-.762-.568-1.005-.32-.248-.733-.357-1.163-.315-.434.048-.815.242-1.067.548-.252.302-.365.699-.314 1.11l.06.493c-2.25.682-3.71 2.78-3.435 5.006.243 2.123 1.992 3.821 4.26 4.13l2.941.363c.821.114 1.463.74 1.56 1.524.057.46-.075.908-.374 1.262-.295.35-.72.568-1.203.615l-1.392.15c-.443.052-.88-.063-1.221-.32-.335-.253-.546-.617-.595-1.025-.044-.404-.246-.76-.566-1.005-.323-.246-.735-.357-1.162-.314-.43.042-.812.238-1.074.548-.26.306-.38.696-.333 1.103.283 2.224 2.202 3.895 4.53 4.005l.06.49c.109.772.766 1.308 1.563 1.308.064 0 .129-.003.195-.011.408-.038.774-.224 1.029-.522.267-.31.388-.711.342-1.13l-.059-.49c2.25-.663 3.71-2.763 3.432-5.01" transform="translate(-228 -121) translate(228 121)"/>
                <g transform="translate(-228 -121) translate(228 121)">
                    <mask id="1b1hd8xz7b" fill="#fff">
                        <use xlink:href="#a9gwhtet1a"/>
                    </mask>
                    <path fill="#FFF" d="M26.449 18.536L45.419.573c1.616-1.53 4.167.266 3.263 2.296L36.983 29.103l16.738 16.789c4.372 4.358 4.372 11.425 0 15.782-4.373 4.357-11.462 4.357-15.835 0-.379-.378-.783-.785-1.211-1.22-7.076 4.1-16.203 3.035-22.148-2.89C9.89 52.945 8.136 46.298 9.74 40.088c.28-1.085 1.389-1.74 2.478-1.459 1.089.28 1.745 1.385 1.465 2.47-1.248 4.836.115 10 3.723 13.596 4.954 4.938 12.751 5.534 18.377 1.505.821-.588 1.949-.487 2.651.237.863.888 1.64 1.678 2.331 2.368 2.784 2.773 7.294 2.773 10.077 0 2.783-2.775 2.783-7.27-.004-10.049L9.311 7.103C6.965 10.76 7.395 15.675 10.6 18.87l3.054 3.045c.806.802.795 2.107-.028 2.895-6.402 6.144-9.553 12.897-9.553 20.35 0 7.43 3.302 14.173 10.026 20.316.83.759.886 2.04.126 2.866-.76.828-2.048.883-2.876.125C3.822 61.59 0 53.791 0 45.16c0-8.003 3.14-15.295 9.34-21.806L7.72 21.74C2.43 16.466 2.43 7.913 7.72 2.637c.798-.792 2.09-.79 2.885.006L26.45 18.536z" mask="url(#1b1hd8xz7b)"/>
                </g>
                <g fill="#FFF">
                    <path d="M37.898 30.903c.68.192 1.14.796 1.1 1.504 0 .719-.458 1.312-1.139 1.505l-4.692 1.312s-.039 0-.039.039l-1.256 4.607c-.185.68-.798 1.13-1.528 1.13-.72 0-1.334-.45-1.52-1.13l-1.332-4.607-4.771-1.351c-.68-.193-1.138-.786-1.138-1.505 0-.708.457-1.312 1.138-1.504l4.692-1.313 1.334-4.645c.194-.68.798-1.13 1.528-1.13.72 0 1.334.45 1.52 1.13l1.333 4.609 4.77 1.349zM33.741 6.006c.652.145 1.07.708 1.07 1.35 0 .671-.418 1.198-1.07 1.39l-3.924 1.082-1.11 3.861c-.183.642-.72 1.054-1.41 1.054-.681 0-1.218-.412-1.412-1.054l-1.1-3.9-3.934-1.043c-.603-.192-1.021-.719-1.06-1.39 0-.642.419-1.168 1.06-1.35l3.973-1.091 1.06-3.862C26.08.412 26.617 0 27.297 0c.69 0 1.228.412 1.412 1.053l1.11 3.9 3.923 1.053zM21.465 17.857c.799.23 1.334.937 1.334 1.761 0 .824-.535 1.544-1.372 1.803l-6.29 1.723c-.116.038-.184.115-.223.23l-1.752 6.15c-.235.786-.954 1.313-1.802 1.313-.836 0-1.557-.527-1.791-1.313l-1.751-6.15c-.04-.115-.108-.192-.225-.23l-6.25-1.723C.536 21.198 0 20.48 0 19.656c0-.824.535-1.54 1.344-1.762L7.67 16.13c.106 0 .185-.115.224-.23l1.753-6.15c.233-.785.954-1.312 1.79-1.312.837 0 1.568.527 1.791 1.311l1.763 6.151c0 .115.106.193.223.23l6.25 1.726z" transform="translate(-228 -121) translate(228 121) translate(46 8)"/>
                </g>
            </g>
        </g>
    </g>
</svg>
