<?xml version="1.0" encoding="utf-8"?>
<!-- Generator: Adobe Illustrator 26.3.1, SVG Export Plug-In . SVG Version: 6.00 Build 0)  -->
<svg version="1.1" id="Capa_1" xmlns="http://www.w3.org/2000/svg" xmlns:xlink="http://www.w3.org/1999/xlink" x="0px" y="0px"
	 viewBox="0 0 17 22" style="enable-background:new 0 0 17 22;" xml:space="preserve">
<style type="text/css">
	.st0{fill:none;stroke:#48464D;stroke-width:1.5;stroke-linecap:round;stroke-linejoin:round;}
</style>
<g id="Profile" transform="translate(41.000000, 452.500000)">
	<circle id="Ellipse_736" class="st0" cx="-32.4" cy="-446.2" r="4.8"/>
	<path id="Path_33945" class="st0" d="M-40-434.8c0-0.3,0.1-0.7,0.2-1c0.5-0.9,1.7-1.4,2.8-1.6c0.8-0.2,1.6-0.3,2.3-0.3
		c1.5-0.1,2.9-0.1,4.4,0c0.8,0.1,1.6,0.2,2.3,0.3c1.1,0.2,2.4,0.7,2.8,1.6c0.3,0.6,0.3,1.3,0,1.9c-0.5,1-1.7,1.4-2.8,1.6
		c-0.8,0.2-1.6,0.3-2.3,0.3c-1.2,0.1-2.4,0.1-3.6,0.1c-0.3,0-0.5,0-0.8-0.1c-0.8-0.1-1.6-0.2-2.3-0.3c-1.1-0.2-2.4-0.6-2.8-1.6
		C-39.9-434.1-40-434.5-40-434.8z"/>
</g>
</svg>
