<svg width="25" height="8" viewBox="0 0 25 8" xmlns="http://www.w3.org/2000/svg">
    <path d="M12.767 2.558c-.015 1.114 1.037 1.736 1.83 2.106.813.379 1.087.622 1.084.961-.007.52-.65.749-1.252.758-1.05.015-1.66-.272-2.146-.489l-.378 1.695c.487.215 1.389.403 2.324.411 2.195 0 3.631-1.038 3.639-2.647.008-2.042-2.95-2.155-2.93-3.068.008-.276.284-.572.888-.647.299-.038 1.125-.067 2.06.346l.368-1.64A5.82 5.82 0 0 0 16.298 0c-2.066 0-3.52 1.052-3.531 2.558M21.692 0a.908.908 0 0 0-.847.557L17.857 7.6h2.09l.416-1.135h2.554l.241 1.135H25L23.393 0h-1.7zm.347 2.4.58 2.8h-1.587l1.007-2.8zM10.347 0 8.73 7.6h1.955L12.302 0h-1.955zM7.395 0l-2.11 5.173L4.432.774A.937.937 0 0 0 3.497 0H.048L0 .22c.708.15 1.512.39 2 .647.298.157.383.295.481.668L4.098 7.6H6.24L9.524 0H7.395z" fill="#FFF" fill-rule="evenodd"/>
</svg>
