<svg width="40" height="13" viewBox="0 0 40 13" xmlns="http://www.w3.org/2000/svg">
    <defs>
        <linearGradient x1="45.974%" y1="-2.677%" x2="54.877%" y2="100.645%" id="p28dazdhza">
            <stop stop-color="#222357" offset="0%"/>
            <stop stop-color="#254AA5" offset="100%"/>
        </linearGradient>
    </defs>
    <path d="M20.687 8.844c-.023-1.81 1.604-2.821 2.829-3.422 1.258-.617 1.681-1.012 1.676-1.563-.01-.844-1.004-1.216-1.935-1.231-1.623-.025-2.568.441-3.318.794L19.354.667C20.107.317 21.5.013 22.948 0c3.394 0 5.615 1.686 5.627 4.301.013 3.318-4.56 3.502-4.53 4.985.011.45.438.93 1.372 1.052.463.062 1.74.109 3.187-.562l.568 2.666a8.614 8.614 0 0 1-3.025.558c-3.195 0-5.442-1.71-5.46-4.156m13.944 3.926c-.62 0-1.142-.364-1.375-.922L28.406.196H31.8l.675 1.877h4.145L37.01.196H40L37.391 12.77h-2.76m.474-3.397.98-4.721h-2.682l1.702 4.721m-18.53 3.397L13.9.196h3.232l2.672 12.574h-3.23m-4.782 0L8.428 4.212l-1.36 7.277c-.16.812-.79 1.281-1.491 1.281h-5.5L0 12.405c1.13-.246 2.412-.644 3.189-1.07.476-.26.611-.487.768-1.104L6.534.196H9.95l5.237 12.574h-3.394" transform="matrix(1 0 0 -1 0 13)" fill="url(#p28dazdhza)" fill-rule="nonzero"/>
</svg>
