<svg width="25" height="24" viewBox="0 0 25 24" fill="none" xmlns="http://www.w3.org/2000/svg">
<path fill-rule="evenodd" clip-rule="evenodd" d="M7.74056 1H17.7917C21.6435 1 24.7661 4.08134 24.7661 7.88223V8.74154L24.7663 8.76069L24.7661 8.77984V14.9179L24.7663 14.9371L24.7661 14.9562V16.1178C24.7661 19.9187 21.6435 23 17.7917 23H7.74056C3.88874 23 0.766113 19.9187 0.766113 16.1178V7.88223C0.766113 4.08134 3.88874 1 7.74056 1ZM23.0218 7.88223V7.90007H19.1866L18.9669 7.90604C16.8583 8.01967 15.1838 9.7411 15.1838 11.8489C15.1851 14.0299 16.9761 15.7964 19.186 15.7977H23.0218V16.1178C23.0218 18.9681 20.6801 21.2788 17.7917 21.2788H7.74056C4.85208 21.2788 2.5104 18.9681 2.5104 16.1178V7.88223C2.5104 5.03195 4.85208 2.72123 7.74056 2.72123H17.7917C20.6801 2.72123 23.0218 5.03195 23.0218 7.88223ZM19.1871 9.6213H23.0218V14.0765H19.1866L19.0101 14.0697C17.8456 13.9802 16.9288 13.0203 16.9281 11.8484C16.9281 10.6191 17.9392 9.62206 19.1871 9.6213ZM20.5913 11.7782C20.5913 11.3029 20.2008 10.9176 19.7191 10.9176H19.3567L19.2383 10.9254C18.8126 10.9824 18.4845 11.3425 18.4845 11.7782C18.4845 12.2535 18.875 12.6388 19.3567 12.6388H19.7191L19.8375 12.6309C20.2632 12.574 20.5913 12.2139 20.5913 11.7782ZM14.0629 7.06809C14.0629 6.59278 13.6724 6.20748 13.1908 6.20748H6.91254L6.7942 6.21533C6.3685 6.27232 6.0404 6.63239 6.0404 7.06809C6.0404 7.54339 6.43087 7.9287 6.91254 7.9287H13.1908L13.3091 7.92085C13.7348 7.86386 14.0629 7.50378 14.0629 7.06809Z" fill="#052C50"/>
</svg>
