<svg xmlns="http://www.w3.org/2000/svg" width="100" height="108" viewBox="0 0 100 108">
    <g fill="none" fill-rule="evenodd">
        <g fill-rule="nonzero">
            <g transform="translate(-129 -125) translate(129 125)">
                <path fill="#84EFE9" d="M3.623 40.471L86.813 40.471 90.18 43.341 90.18 49.947 3.623 49.947 0.731 47.055z"/>
                <path fill="#FFF" d="M89.447 106.82H5.865c-2.655 0-4.807-2.153-4.807-4.808V54.44c0-2.655 2.152-4.808 4.807-4.808h83.582c2.655 0 4.808 2.153 4.808 4.808v47.572c0 2.655-2.153 4.808-4.808 4.808z"/>
                <path fill="#84EFE9" d="M89.447 49.632H5.865l-4.492-1.61s-.315 5.17-.315 6.418v5.27h93.197v-5.27c0-2.655-2.153-4.808-4.808-4.808zM5.865 106.82h83.582c2.655 0 4.808-2.153 4.808-4.808v-5.267H1.058v5.267c0 2.655 2.152 4.808 4.807 4.808z"/>
                <path fill="#F4D77D" d="M97.115 69.038H79.591c-2.437 0-4.774.968-6.498 2.69-1.723 1.724-2.692 4.06-2.692 6.498 0 5.075 4.115 9.19 9.19 9.19h17.524c.962-.001 1.742-.781 1.743-1.743V70.77c-.006-.958-.785-1.73-1.743-1.73z"/>
                <circle cx="79.918" cy="78.226" r="4.267" fill="#84EFE9"/>
                <path fill="#215B58" d="M79.918 83.546c-2.152 0-4.092-1.295-4.916-3.283-.824-1.987-.37-4.276 1.151-5.798 1.522-1.522 3.81-1.977 5.798-1.154 1.988.823 3.285 2.763 3.285 4.915-.004 2.935-2.382 5.314-5.318 5.32zm0-8.534c-1.775 0-3.214 1.439-3.214 3.214s1.44 3.214 3.214 3.214c1.775 0 3.214-1.439 3.214-3.214-.002-1.774-1.44-3.211-3.214-3.214zM2.108 44.817c.003 2.074 1.684 3.754 3.757 3.755h10.623v2.103H5.728s-1.315-.084-2.105-.451l-.2-.092C1.346 49.176.011 47.104 0 44.817h2.108z"/>
                <path fill="#215B58" d="M2.108 57.79V45.256C2.111 43.18 3.792 41.5 5.865 41.5h79.808c2.07.005 3.747 1.684 3.75 3.755v4.692h2.103v-4.69c-.003-1.903-.929-3.687-2.483-4.786l-.144-.103c-.751-.489-1.602-.804-2.49-.923-.21-.022-.503-.048-.74-.048H5.728s-1.316.086-2.106.452l-.2.093C1.346 40.897.011 42.97 0 45.255V57.79h2.108z"/>
                <path fill="#215B58" d="M99.091 68.805c-.522-.526-1.234-.821-1.976-.82h-1.807V54.44c-.005-1.903-.932-3.686-2.486-4.784l-.144-.103c-.751-.489-1.602-.804-2.49-.923-.246-.03-.493-.045-.74-.048H14.864v2.103h74.582c2.073.001 3.754 1.682 3.755 3.755v4.214H29.808c-.562.027-1.003.49-1.003 1.052 0 .561.441 1.024 1.003 1.051h63.394v7.226H79.589c-3.917.018-7.486 2.253-9.212 5.77l-.016.033-.041.089c-.197.418-.365.848-.505 1.288l-.015.046c-.954 3.106-.379 6.481 1.552 9.095 1.93 2.614 4.987 4.157 8.237 4.158h13.613v7.225H70.63c-.561.027-1.003.49-1.003 1.052s.442 1.025 1.003 1.052h22.572v4.216c.001.997-.394 1.954-1.098 2.66-.704.705-1.66 1.102-2.657 1.102H5.865c-2.073-.001-3.754-1.681-3.757-3.755v-4.218h56.866c.56-.027 1.002-.49 1.002-1.052s-.441-1.025-1.002-1.052H2.108V60.76H18.06c.388.02.754-.177.954-.51.2-.333.2-.749 0-1.082-.2-.333-.566-.53-.954-.51H2.108v-3.21H0v46.565c.004 3.237 2.629 5.858 5.865 5.858h83.582c3.235-.002 5.857-2.623 5.86-5.858v-13.55h1.808c1.543-.002 2.792-1.252 2.794-2.794V70.764c-.002-.735-.296-1.44-.818-1.959zm-1.286 16.868c0 .381-.309.69-.69.69H79.591c-2.985-.001-5.73-1.636-7.153-4.26-.063-.115-.123-.24-.18-.35-.116-.241-.22-.481-.31-.722-.658-1.806-.658-3.785 0-5.591.09-.24.194-.48.31-.721.057-.12.117-.24.18-.351 1.421-2.626 4.167-4.262 7.153-4.262h17.524c.38.001.689.31.69.69v14.877zM46.808 1.228v25.359c0 .574-.466 1.04-1.041 1.04s-1.041-.466-1.041-1.04V1.228c0-.574.466-1.04 1.04-1.04.576 0 1.042.466 1.042 1.04zM20.54 14.716l2.991 2.99 3.726 3.727 1.51 1.51 2.425 2.425.565.565 3.726 3.726 2.99 2.99c.263.263.366.647.27 1.006-.097.36-.378.64-.738.735-.359.096-.742-.007-1.005-.27l-2.988-2.99-3.724-3.726-.567-.565-2.423-2.426-1.51-1.51-3.726-3.725-2.992-2.988c-.407-.406-.408-1.066-.001-1.472.406-.407 1.065-.408 1.472-.002zM70.99 14.716l-2.988 2.99-3.726 3.727-1.51 1.51-2.43 2.425-.567.565-3.723 3.726-2.99 2.99c-.384.41-.373 1.05.024 1.447.397.396 1.036.407 1.446.024l2.99-2.99 3.727-3.726.565-.565 2.425-2.426 1.51-1.51 3.726-3.725 2.988-2.988c.407-.406.407-1.066 0-1.472-.405-.407-1.065-.408-1.471-.002h.004z"/>
            </g>
        </g>
    </g>
</svg>
