<svg width="130" height="130" viewBox="0 0 130 130" xmlns="http://www.w3.org/2000/svg">
    <g fill="none" fill-rule="evenodd">
        <g transform="translate(9.1 20.8)" fill-rule="nonzero">
            <path fill="#E9F4FC" d="M3.865 1.3h92.49l3.745 3.15v7.25H3.865L.65 8.526z"/>
            <path d="M99.935 74.75H6.665A5.36 5.36 0 0 1 1.3 69.395v-52.99a5.36 5.36 0 0 1 5.365-5.355h93.27a5.36 5.36 0 0 1 5.365 5.355v52.99a5.36 5.36 0 0 1-5.365 5.355z" fill="#FFF"/>
            <path d="M99.935 10.891H6.665L1.651 9.1S1.3 14.851 1.3 16.239V22.1h104v-5.861c0-2.953-2.402-5.348-5.365-5.348zM6.665 74.75h93.27c2.963 0 5.365-2.36 5.365-5.273V63.7H1.3v5.777c0 2.912 2.402 5.273 5.365 5.273z" fill="#E9F4FC"/>
            <path d="M109.2 33.15H89.585c-2.728 0-5.344 1.06-7.273 2.95a9.97 9.97 0 0 0-3.013 7.124c0 5.565 4.605 10.076 10.286 10.076h19.613c1.077-.001 1.95-.856 1.951-1.91V35.047c-.007-1.05-.879-1.898-1.95-1.898z" fill="#FFD166"/>
            <circle fill="#E9F4FC" cx="89.375" cy="43.225" r="4.875"/>
            <path d="M89.053 48.75A5.85 5.85 0 1 1 94.9 42.9a5.858 5.858 0 0 1-5.847 5.85zm0-9.384a3.534 3.534 0 1 0 0 7.068 3.534 3.534 0 0 0 0-7.068zM2.327 5.85c.003 2.3 1.859 4.165 4.147 4.166H18.2v2.334H6.323S4.872 12.257 4 11.849l-.22-.102A6.529 6.529 0 0 1 0 5.85h2.327z" fill="#073B4C"/>
            <path d="M2.366 20.15V6.417c.003-2.271 1.889-4.111 4.215-4.113h89.551c2.324.006 4.205 1.845 4.208 4.113v5.14h2.36V6.42c-.004-2.085-1.042-4.04-2.786-5.243l-.162-.113A6.876 6.876 0 0 0 96.957.053a8.986 8.986 0 0 0-.83-.053h-89.7S4.953.095 4.066.495L3.84.598C1.511 1.643.012 3.913 0 6.418V20.15h2.366z" fill="#073B4C"/>
            <path d="M110.885 32.365a3.108 3.108 0 0 0-2.21-.916h-2.024V16.3a6.568 6.568 0 0 0-2.781-5.35l-.161-.115a6.757 6.757 0 0 0-2.787-1.032 7.946 7.946 0 0 0-.829-.054H16.635v2.352h83.458c2.32.002 4.2 1.88 4.202 4.199v4.712h-70.94a1.178 1.178 0 0 0 0 2.352h70.94v8.08H89.062a11.543 11.543 0 0 0-10.308 6.452l-.019.038-.046.1c-.22.467-.408.948-.565 1.44l-.016.051a11.448 11.448 0 0 0 1.737 10.171 11.464 11.464 0 0 0 9.217 4.65h15.233v8.08H79.036a1.178 1.178 0 0 0 0 2.352h25.259v4.715a4.2 4.2 0 0 1-4.202 4.207H6.563a4.206 4.206 0 0 1-4.204-4.2v-4.717h63.634a1.178 1.178 0 0 0 0-2.352H2.359V23.368h17.85a1.178 1.178 0 1 0 0-2.352H2.36v-3.589H0V69.5a6.561 6.561 0 0 0 6.563 6.551h93.53a6.561 6.561 0 0 0 6.558-6.551V54.346h2.023a3.127 3.127 0 0 0 3.126-3.124V34.556a3.101 3.101 0 0 0-.915-2.19zm-1.439 18.863a.772.772 0 0 1-.772.771h-19.61a9.112 9.112 0 0 1-8.005-4.763c-.07-.13-.137-.269-.202-.393-.129-.268-.244-.537-.347-.806a9.134 9.134 0 0 1 0-6.253 10.401 10.401 0 0 1 .55-1.198 9.106 9.106 0 0 1 8.004-4.766h19.61c.426.001.77.346.772.771v16.637z" fill="#073B4C"/>
        </g>
        <g transform="translate(42.9 74.1)">
            <circle fill="#C33" cx="22.1" cy="22.1" r="21.45"/>
            <path d="M30.84 11.904c.411-.305.989-.265 1.355.1l.073.082c.297.367.31.894.008 1.299l-.081.092-8.623 8.621 8.623 8.625a1.04 1.04 0 0 1-1.37 1.56l-.101-.088-8.625-8.624-8.647 8.647-.104.086a1.04 1.04 0 0 1-1.343-.109c-.366-.366-.406-.944-.081-1.38l.08-.092 8.622-8.625-8.621-8.621a1.041 1.041 0 0 1-.076-1.388l.076-.084c.366-.366.943-.406 1.38-.081l.092.08 5.422 5.422 3.195 3.204 8.651-8.646z" fill="#FFF"/>
            <path d="M22.05 0C9.871 0 0 9.886 0 22.079c0 12.193 9.871 22.08 22.05 22.08s22.05-9.887 22.05-22.08C44.1 9.886 34.229 0 22.05 0zm0 1.95c11.1 0 20.1 9.012 20.1 20.129s-9 20.13-20.1 20.13c-11.1 0-20.1-9.013-20.1-20.13 0-11.117 9-20.129 20.1-20.129z" fill="#073B4C" fill-rule="nonzero"/>
        </g>
    </g>
</svg>
