<svg xmlns="http://www.w3.org/2000/svg" width="80" height="87" viewBox="0 0 80 87">
    <g fill="none" fill-rule="evenodd">
        <g fill-rule="nonzero">
            <g transform="translate(-140 -293) translate(140 293)">
                <path fill="#E9F4FC" d="M2.898 32.377L69.45 32.377 72.144 34.673 72.144 39.958 2.898 39.958 0.585 37.644z"/>
                <path fill="#FFF" d="M71.558 85.456H4.692c-2.124 0-3.846-1.722-3.846-3.846V43.552c0-2.124 1.722-3.846 3.846-3.846h66.866c2.124 0 3.846 1.722 3.846 3.846V81.61c0 2.124-1.722 3.846-3.846 3.846z"/>
                <path fill="#E9F4FC" d="M71.558 39.706H4.692l-3.594-1.289s-.252 4.137-.252 5.135v4.215h74.558v-4.215c0-2.124-1.722-3.846-3.846-3.846zM4.692 85.456h66.866c2.124 0 3.846-1.722 3.846-3.846v-4.214H.846v4.214c0 2.124 1.722 3.846 3.846 3.846z"/>
                <path fill="#FFD166" d="M77.692 55.23H63.673c-1.95 0-3.82.774-5.198 2.153-1.38 1.378-2.154 3.248-2.154 5.198 0 4.06 3.292 7.352 7.352 7.352h14.02c.769-.001 1.392-.625 1.394-1.395V56.615c-.006-.766-.628-1.384-1.395-1.384z"/>
                <circle cx="63.935" cy="62.581" r="3.413" fill="#E9F4FC"/>
                <path fill="#073B4C" d="M63.935 66.837c-1.722 0-3.274-1.036-3.934-2.626-.659-1.59-.295-3.421.922-4.639 1.217-1.217 3.047-1.582 4.638-.923 1.59.658 2.627 2.21 2.627 3.932-.003 2.348-1.905 4.251-4.253 4.256zm0-6.827c-1.42 0-2.572 1.15-2.572 2.57s1.152 2.572 2.572 2.572c1.42 0 2.57-1.151 2.57-2.571-.001-1.42-1.151-2.57-2.57-2.571zM1.687 35.854c.002 1.659 1.346 3.003 3.005 3.004h8.498v1.682H4.583s-1.052-.067-1.685-.361l-.16-.073C1.077 39.34.008 37.683 0 35.854h1.687z"/>
                <path fill="#073B4C" d="M1.687 46.233v-10.03c.002-1.658 1.346-3.002 3.005-3.003h63.846c1.657.004 2.998 1.347 3 3.004v3.754h1.683v-3.752c-.003-1.523-.743-2.95-1.986-3.83l-.116-.082c-.6-.39-1.281-.643-1.992-.738-.167-.018-.402-.039-.592-.039H4.583s-1.052.07-1.685.362l-.16.075c-1.661.763-2.73 2.421-2.738 4.25v10.029h1.687z"/>
                <path fill="#073B4C" d="M79.273 55.044c-.418-.42-.987-.657-1.58-.656h-1.447V43.552c-.004-1.522-.745-2.949-1.988-3.827l-.116-.083c-.6-.39-1.281-.643-1.992-.738-.197-.023-.394-.036-.592-.039H11.892v1.683h59.666c1.658.001 3.002 1.345 3.004 3.004v3.371H23.846c-.449.022-.802.392-.802.841 0 .45.353.82.802.842h50.716v5.78h-10.89c-3.134.015-5.99 1.803-7.37 4.616l-.014.027-.032.071c-.157.334-.292.679-.404 1.03l-.012.037c-.763 2.485-.303 5.185 1.242 7.276 1.544 2.092 3.99 3.326 6.59 3.326h10.89v5.781H56.504c-.45.021-.802.392-.802.841 0 .45.353.82.802.842h18.058v3.373c0 .797-.315 1.563-.879 2.127-.563.564-1.328.882-2.125.882H4.692c-1.659 0-3.003-1.345-3.005-3.003v-3.375h45.492c.449-.022.802-.392.802-.842 0-.45-.353-.82-.802-.841H1.687V48.608h12.761c.31.015.603-.143.763-.409.16-.266.16-.599 0-.865-.16-.267-.453-.424-.763-.409H1.687v-2.567H0V81.61c.003 2.589 2.103 4.686 4.692 4.686h66.866c2.587-.002 4.685-2.099 4.688-4.686V70.77h1.446c1.234-.002 2.234-1.002 2.235-2.235V56.612c-.002-.589-.237-1.153-.654-1.568zm-1.029 13.494c0 .305-.247.552-.552.552H63.673c-2.388 0-4.584-1.308-5.723-3.407-.05-.093-.098-.193-.144-.281-.093-.192-.175-.385-.248-.577-.526-1.445-.526-3.028 0-4.473.073-.192.155-.385.248-.577.046-.096.094-.192.144-.28 1.138-2.101 3.334-3.41 5.723-3.41h14.02c.304 0 .55.247.551.552v11.901zM37.446.983v20.286c0 .46-.373.833-.833.833-.46 0-.832-.373-.832-.833V.983c0-.46.373-.833.832-.833.46 0 .833.373.833.833zM16.433 11.773l2.392 2.392 2.98 2.981 1.208 1.208 1.94 1.94.453.452 2.98 2.98 2.393 2.393c.21.21.292.518.215.805-.077.287-.302.512-.59.588-.287.077-.594-.005-.804-.216l-2.39-2.392-2.98-2.98-.453-.453-1.939-1.94-1.207-1.208-2.981-2.98-2.394-2.391c-.326-.325-.326-.852-.001-1.178.325-.325.852-.326 1.178 0zM56.792 11.773l-2.39 2.392-2.98 2.981-1.209 1.208-1.944 1.94-.454.452-2.978 2.98-2.393 2.393c-.306.328-.297.84.02 1.157.317.318.83.327 1.157.02l2.392-2.392 2.981-2.98.452-.453 1.94-1.94 1.208-1.208 2.981-2.98 2.39-2.391c.326-.325.326-.852.001-1.178-.325-.325-.852-.326-1.178 0h.004z"/>
            </g>
        </g>
    </g>
</svg>
