<svg width="24" height="25" viewBox="0 0 24 25" xmlns="http://www.w3.org/2000/svg">
    <g transform="translate(0 .5)" fill="none" fill-rule="evenodd">
        <ellipse fill="#FFF" cx="12.5" cy="11.5" rx="8.5" ry="9"/>
        <path d="M12 0c6.636 0 12 5.377 12 12 0 6.625-5.364 12-12 12-6.624 0-12-5.375-12-12C0 5.377 5.376 0 12 0zm0 15.517c-.576 0-1.044.468-1.044 1.044 0 .576.468 1.056 1.056 1.056.576 0 1.044-.48 1.044-1.056 0-.576-.468-1.044-1.056-1.044zm0-9.121c-.576 0-1.056.481-1.056 1.056v5.304c0 .577.48 1.044 1.056 1.044.576 0 1.044-.467 1.044-1.044V7.452c0-.575-.468-1.056-1.044-1.056z" fill="#C33"/>
    </g>
</svg>
