<svg width="15" height="17" viewBox="0 0 15 17" xmlns="http://www.w3.org/2000/svg">
    <path d="M12.265 2.125c.035 0 .071.018.089.018h.018l.054.019c0 .019.017.019.017.019l.054.036c0 .02.018.02.018.02l.053.055 2.378 3.892v.018c.018.019.036.037.036.056v.018A.171.171 0 0 1 15 6.37v.111c0 .037 0 .056-.018.074v.019a.229.229 0 0 1-.036.055l-7.151 8.136-.072.074h-.017c-.018 0-.018.018-.036.018a.017.017 0 0 1-.013.018l-.291.001c0-.012-.008-.016-.013-.018-.023 0-.023-.019-.04-.019h-.036l-.054-.056L.072 6.665l-.054-.074v-.018c0-.037-.018-.056-.018-.075v-.11c0-.037 0-.056.018-.094v-.018l.036-.055V6.2l2.378-3.89.053-.057.005-.012.013-.006.036-.029a.1.1 0 0 0 .018-.026c0-.013.008-.017.013-.018l.058-.02h.018a.138.138 0 0 1 .058-.017l9.56-.001zM9.077 6.776H5.94c-.16 0-.274.182-.223.357l1.568 5.35c.072.245.374.245.446 0L9.3 7.133c.05-.175-.063-.357-.223-.357zm-4.383 0H1.735c-.21 0-.315.293-.165.463L6 12.26c.177.2.468-.008.389-.278L4.917 6.96c-.032-.11-.122-.184-.223-.184zm8.589 0h-2.959c-.101 0-.19.075-.223.184l-1.472 5.023c-.08.27.212.478.388.278l4.431-5.022c.15-.17.045-.463-.165-.463zM2.543 3.514 1.26 5.61c-.11.179.002.425.193.425h2.563c.19 0 .302-.246.193-.425L2.928 3.515c-.094-.153-.292-.153-.385 0zm9.547.016-1.28 2.08c-.11.178.002.425.192.425h2.56c.191 0 .303-.247.192-.426l-1.28-2.079c-.093-.152-.29-.152-.384 0zm-4.773-.016L5.786 6.017h3.003c.19 0 .302-.247.192-.426l-1.28-2.078c-.093-.152-.29-.152-.384 0zm-.906-.63H3.85c-.19 0-.302.248-.192.426l1.28 2.08c.094.152.29.152.385 0l1.279-2.08c.11-.178-.001-.425-.192-.425zm4.756 0h-2.56c-.19 0-.302.248-.192.426l1.28 2.08c.093.152.29.152.384 0l1.28-2.08c.11-.178-.002-.425-.192-.425z" fill="#FFF" fill-rule="evenodd"/>
</svg>
