<svg xmlns="http://www.w3.org/2000/svg" xmlns:xlink="http://www.w3.org/1999/xlink" width="95" height="76" viewBox="0 0 95 76">
    <defs>
        <path id="bn7tjzwypa" d="M0 0L95 0 95 76 0 76z"/>
    </defs>
    <g fill="none" fill-rule="evenodd">
        <g>
            <g>
                <g transform="translate(-223 -401) translate(223 401)">
                    <mask id="7elevqtsqb" fill="#fff">
                        <use xlink:href="#bn7tjzwypa"/>
                    </mask>
                    <path fill="#FFF" d="M91.22 23.463c-.208 1.266-1.039 2.783-2.23 4.063-.94 1.002-2.02 1.837-3.142 2.435l-.62.327c-1.042.553-1.017 2.06.042 2.577l.633.309c.083.044.208.14.36.281.443.415.65.987.65 1.752 0 2.1-3.433 3.355-5.22 3.409-.152.014-.29.014-.442.014-.111.014-.208.014-.319.014-.941 0-1.744-.056-2.464-.181l-.72-.116c-1.026-.165-1.875.803-1.58 1.806l.181.62v.041c.014.767-.346 1.49-1.094 2.185-.484.445-1.094.67-1.869.67-1.703 0-3.697-1.074-4.57-1.825-1.536-1.35-2.409-3.394-2.658-4.05l2.34-7.569c1.108-.626 2.465-.904 3.919-1.21l.11-.028c1.067-.209 2.174-.431 3.199-.82 3.06-1.128 5.428-2.394 7.45-3.966.636-.486 1.26-1.127 1.855-1.726 2.617-2.574 3.752-3.089 4.832-2.198 1.052.862 1.537 2.017 1.357 3.186zM58.99 33.48L52.662 55.07c-1.68 5.726-7.66 9.001-13.358 7.316L32.05 60.24c-5.7-1.687-8.959-7.698-7.28-13.425l6.328-21.59c1.678-5.728 7.659-9.003 13.358-7.317l7.254 2.147c5.699 1.688 8.958 7.698 7.28 13.425zm-37.167-3.56l-.111.098c-1.08.946-2.146 1.614-3.157 1.976-1.135.403-3.462.681-5.082.07-.747-.293-1.26-.738-1.536-1.35-.43-.933-.499-1.768-.194-2.476l.014-.015c.013-.028.013-.056.027-.084l.036-.043c.842-.986.331-2.518-.934-2.797l-.182-.04c-.83-.18-1.592-.417-2.409-.751l-.055-.014c-.208-.082-.402-.153-.568-.237l-.097-.042c-1.69-.695-4.5-3.157-3.67-5.176.305-.751.748-1.224 1.358-1.488l.083-.03c.069-.026.263-.082.415-.11l.16-.036c1.3-.296 1.835-1.864.99-2.9-.831-1.001-1.524-2.198-1.995-3.436-.623-1.656-.816-3.423-.54-4.716.277-1.169 1.219-2.116 2.548-2.546 1.412-.447 2.285.459 3.766 3.894l.014.028c.083.181.166.363.25.529.276.626.54 1.21.844 1.725 1.288 2.227 3.046 4.286 5.497 6.484.762.682 1.634 1.254 2.465 1.795l.346.237c1.55.974 2.907 1.894 3.683 3.172.124.224.25.46.36.75l-2.326 7.53zm70.463-12.425c-4.07-3.326-8.03.556-9.942 2.449-.54.542-1.052 1.056-1.481 1.377l-.028.027c-1.703 1.337-3.752 2.422-6.438 3.412-.762.29-1.717.485-2.631.666l-.138.03c-1.26.262-2.631.54-3.947 1.11l1.496-4.826c1.149-3.744-.596-7.528-3.919-8.503L37.621 5.11c-3.295-.946-6.923 1.294-8.072 5.01l-2.81 9.044-.056.167c-1.15-1.684-2.797-2.81-4.514-3.91l-.305-.195c-.72-.473-1.467-.974-2.035-1.474-2.16-1.935-3.683-3.702-4.777-5.595-.208-.361-.443-.862-.679-1.391-.069-.167-.152-.348-.235-.529-1.066-2.461-3.282-7.568-8.39-5.913C3.157 1.158 1.274 3.092.72 5.54.291 7.517.527 9.966 1.4 12.29c.346.878.761 1.74 1.246 2.546-.97.682-1.731 1.656-2.216 2.854-1.855 4.522 2.714 8.626 5.622 9.851.29.138.568.237.817.348.346.126.678.25 1.01.375-.166 1.057-.069 2.393.637 3.951.693 1.463 1.925 2.588 3.573 3.228 1.135.432 2.423.613 3.683.613 1.523 0 2.99-.265 4.07-.64.735-.265 1.468-.627 2.202-1.086l-7.698 24.837c-1.15 3.716.609 7.528 3.904 8.516l27.637 8.086c3.323.986 6.951-1.267 8.1-5.011l9.347-30.18c.609 1.196 1.578 2.742 2.99 3.98 1.177 1.015 3.988 2.754 7.062 2.754 1.745 0 3.295-.598 4.458-1.697 1.233-1.14 1.828-2.324 2.077-3.352.471.026.983.026 1.482.014.11-.014.221-.014.318-.014h.056c3.101-.099 8.89-2.256 8.89-7.056 0-1.279-.333-2.421-.956-3.38.72-.544 1.412-1.17 2.049-1.85 1.69-1.81 2.838-3.981 3.157-5.943.388-2.421-.596-4.857-2.63-6.54z" mask="url(#7elevqtsqb)"/>
                </g>
                <path fill="#FFF" d="M47.915 27.017l.399-1.395c.331-1.126-.3-2.206-1.477-2.54-1.195-.315-2.29.3-2.605 1.446l-.399 1.394c-3.998-.547-7.913 1.793-9.009 5.66-1.028 3.503.598 7.138 3.783 8.93l4.58 2.508c1.526.88 2.255 2.638 1.791 4.28-.564 1.993-2.655 3.156-4.71 2.576l-2.391-.65c-1.924-.513-3.02-2.372-2.488-4.216.331-1.11-.298-2.207-1.46-2.54-1.162-.315-2.323.3-2.655 1.43-1.063 3.783 1.06 7.717 4.779 9.094l-.4 1.378c-.299 1.13.332 2.226 1.527 2.54 1.129.333 2.256-.314 2.589-1.445l.397-1.378c3.95.583 7.915-1.808 9.01-5.659 1.028-3.536-.597-7.17-3.784-8.948l-4.595-2.505c-1.526-.83-2.29-2.639-1.791-4.283.564-1.991 2.654-3.137 4.711-2.59l2.407.63c1.924.516 3.02 2.392 2.488 4.25-.331 1.131.3 2.226 1.46 2.54 1.195.282 2.323-.314 2.655-1.445 1.061-3.766-1.062-7.716-4.812-9.062" transform="translate(-223 -401) translate(223 401)"/>
            </g>
        </g>
    </g>
</svg>
