<svg width="24" height="24" viewBox="0 0 24 24" fill="none" xmlns="http://www.w3.org/2000/svg">
<path fill-rule="evenodd" clip-rule="evenodd" d="M17.7704 8.25H16.8674V10.8003H17.7704V8.25ZM18.8038 11.1052L21.2051 8.73496L21.844 9.36417L19.4427 11.7344L18.8038 11.1052ZM2.23469 11.3285C2.7398 10.8154 3.35204 10.5589 4.05612 10.5739C4.62245 10.5589 5.17347 10.7399 5.61735 11.1172C6.07653 11.4643 6.36735 11.9019 6.52041 12.4603H5.47959C5.34184 12.2037 5.15816 11.9774 4.91327 11.8114C4.63775 11.6454 4.36224 11.5548 4.05612 11.5548C3.61224 11.5548 3.2449 11.7208 2.93878 12.0226C2.61735 12.3395 2.46429 12.7168 2.46429 13.1544C2.46429 13.577 2.61735 13.9391 2.93878 14.256C3.22959 14.5578 3.61224 14.7238 4.05612 14.7238C4.37755 14.7238 4.65306 14.6484 4.91327 14.4824C5.15816 14.3164 5.34184 14.09 5.47959 13.8335H6.52041C6.36735 14.3617 6.06122 14.8295 5.61735 15.1766C5.17347 15.5236 4.65306 15.6896 4.07143 15.6896C3.33673 15.6896 2.7551 15.4482 2.25 14.9502C1.7449 14.4522 1.5 13.8335 1.5 13.1393C1.5 12.415 1.7449 11.8265 2.23469 11.3285ZM17.1735 11.6001C17.7398 11.6001 18.2449 11.7963 18.6582 12.2037C19.0561 12.6112 19.2551 13.079 19.2551 13.6826C19.2551 14.256 19.0714 14.7389 18.6582 15.1464C18.2449 15.5538 17.7245 15.75 17.1735 15.75C16.6224 15.75 16.1173 15.5538 15.7194 15.1464C15.3061 14.7389 15.1071 14.256 15.1071 13.6826C15.1071 13.1092 15.3061 12.6112 15.7194 12.2037C16.1326 11.7963 16.6071 11.6001 17.1735 11.6001ZM17.1888 14.754C17.4796 14.754 17.7551 14.6635 17.9541 14.4371C18.1684 14.2108 18.2602 13.9542 18.2908 13.6675C18.2755 13.3657 18.1684 13.0941 17.9694 12.8979C17.7551 12.6715 17.4949 12.5659 17.1888 12.581C16.898 12.581 16.6224 12.6715 16.4235 12.8979C16.2092 13.0941 16.102 13.3506 16.102 13.6675C16.102 13.9542 16.2245 14.2108 16.4235 14.4371C16.6224 14.6484 16.898 14.754 17.1888 14.754ZM10.3929 11.5699C9.7194 11.5548 9.24491 11.7359 8.9847 12.083C8.81634 12.3094 8.7245 12.581 8.70919 12.9432H9.70409C9.7194 12.7772 9.78062 12.6715 9.85715 12.5961C9.9643 12.4603 10.1327 12.3999 10.3776 12.415C10.5765 12.3999 10.7449 12.4452 10.8674 12.5055C10.9745 12.5659 11.0357 12.6715 11.0357 12.8375C11.0357 12.9733 10.9592 13.079 10.8061 13.1393L10.0408 13.2752C9.68879 13.3355 9.39797 13.411 9.18368 13.5317C8.81634 13.758 8.61736 14.1051 8.64797 14.6031C8.63266 14.9502 8.75511 15.2369 8.9847 15.4482C9.18368 15.6142 9.4745 15.7047 9.81124 15.7198C10.3469 15.7047 10.7908 15.5689 11.0969 15.3124V15.7198H12.0918V12.8073C12.0918 12.3244 11.9235 11.9925 11.5867 11.8265C11.1888 11.6454 10.8214 11.5699 10.3929 11.5699ZM10.8061 13.8033L10.9898 13.6977V14.1051C10.9898 14.4371 10.898 14.6786 10.7143 14.7993C10.5306 14.9351 10.3163 14.9955 10.1021 14.9955C9.94899 14.9955 9.84185 14.9653 9.75001 14.8898C9.65817 14.7993 9.59695 14.6937 9.59695 14.4975C9.59695 14.3013 9.67348 14.1655 9.84185 14.0599C9.93368 13.9995 10.1021 13.9542 10.3163 13.924L10.8061 13.8033ZM7.02551 10.5739H8.0204V15.7047H7.02551V10.5739ZM14.3725 11.7208C14.1123 11.8265 13.8674 11.9925 13.6684 12.2792V11.7812H12.7194V15.7047H13.7143V13.8184C13.7143 13.5015 13.7449 13.2601 13.8521 13.1393C13.9286 12.9884 14.0357 12.8677 14.1888 12.7772C14.3572 12.6715 14.5408 12.6112 14.7245 12.6112L15.0306 12.6263V11.6303L14.7704 11.6152L14.3725 11.7208ZM19.8674 12.7168H22.5V13.6071H19.8674V12.7168Z" fill="#E30613"/>
</svg>
