<svg width="32" height="32" viewBox="0 0 32 32" fill="none" xmlns="http://www.w3.org/2000/svg">
<g id="Logos/Movistar">
<path id="Vector" d="M30 16.14C29.9794 17.5517 29.8834 19.0322 29.5543 20.4886C29.4549 20.9283 29.2458 21.313 28.9475 21.6359C28.5601 22.0515 28.0733 22.2439 27.5076 22.1031C26.9453 21.9622 26.6608 21.5432 26.5408 21.0073C26.3762 20.2757 26.5133 19.5406 26.5888 18.8124C26.7019 17.7063 26.7979 16.6002 26.7499 15.4873C26.7259 14.9034 26.6539 14.3091 26.2219 13.8729C25.6425 13.2889 24.8403 13.3611 24.1409 14.0172C23.5032 14.6114 23.0747 15.3499 22.7181 16.14C21.9982 17.7407 21.5114 19.4238 20.9937 21.0932C20.7125 21.9931 20.3971 22.8794 19.7629 23.5973C17.5516 26.091 13.4581 25.8197 11.6274 23.0064C10.6057 21.4367 9.7349 19.7741 8.7921 18.1528C8.5864 17.8025 8.36698 17.4624 8.08586 17.1636C7.78073 16.8441 7.44132 16.6964 6.99563 16.8098C6.52595 16.93 6.36139 17.2907 6.28253 17.7029C6.16597 18.328 6.24825 18.9463 6.37167 19.5646C6.63908 20.918 7.1602 22.1992 7.48932 23.532C7.59217 23.9442 7.65731 24.3598 7.62988 24.7858C7.5956 25.2735 7.39332 25.6754 6.93392 25.8678C6.40938 26.091 5.88827 26.0361 5.43573 25.6685C4.99689 25.3113 4.75691 24.8064 4.56492 24.298C3.57755 21.708 2.87473 19.0562 3.01872 16.2499C3.11472 14.4087 3.44041 12.6123 4.29751 10.9566C4.99347 9.60667 5.98769 8.59679 7.57503 8.35978C8.65496 8.19833 9.61491 8.45939 10.4514 9.17386C11.4285 10.0086 12.1108 11.0734 12.8102 12.1279C13.3381 12.918 13.7632 13.7801 14.3838 14.5049C14.9803 15.2057 15.6934 15.7312 16.6636 15.6968C17.7436 15.6591 18.4052 15.0099 18.8201 14.0755C19.54 12.4474 20.1297 10.7642 20.884 9.14638C21.4634 7.89949 22.3033 6.88618 23.5821 6.34346C25.502 5.52937 27.2573 6.18545 28.2892 8.06781C29.1326 9.6101 29.544 11.2932 29.784 13.0245C29.9211 14.0343 29.9726 15.0476 30 16.14Z" fill="#2AA9D3"/>
</g>
</svg>
