<svg width="32" height="7" viewBox="0 0 32 7" fill="none" xmlns="http://www.w3.org/2000/svg">
<g id="Group" opacity="0.9">
<path id="Vector" d="M4.96828 0.00740051H1.37809C0.616933 0.00740051 0 0.624562 0 1.38572V4.97591C0 5.73667 0.61699 6.35343 1.37809 6.35343H4.96828C5.72927 6.35343 6.34643 5.73667 6.34643 4.97591V1.38572C6.34643 0.624619 5.72921 0.00740051 4.96828 0.00740051ZM2.82289 3.85368L2.37702 4.76901C2.31998 4.88804 2.19999 4.95674 2.07766 4.95674C2.02881 4.95674 1.9787 4.94406 1.93167 4.92364C1.76601 4.84306 1.69685 4.64185 1.77829 4.47823L2.22251 3.5604C2.30389 3.39348 2.50368 3.32478 2.66832 3.40747C2.83495 3.48806 2.90365 3.68682 2.82289 3.85368ZM2.81328 2.49618C2.73389 2.57551 2.62327 2.62049 2.50891 2.62049C2.39585 2.62049 2.28461 2.57551 2.20482 2.49618C2.12486 2.41605 2.07806 2.30395 2.07806 2.19067C2.07806 2.07738 2.12486 1.96859 2.20482 1.8876C2.36434 1.72563 2.65495 1.72563 2.81322 1.8876C2.89335 1.96859 2.9393 2.07738 2.9393 2.19067C2.93936 2.30395 2.89341 2.41605 2.81328 2.49618ZM4.59424 3.79357C4.51388 4.16823 4.36522 4.51873 4.15088 4.83117C4.08707 4.92484 3.98459 4.97557 3.87887 4.97557C3.81608 4.97557 3.7513 4.95674 3.69466 4.9171C3.54356 4.81565 3.50568 4.61159 3.60856 4.46066C3.7732 4.21896 3.88802 3.9474 3.95143 3.65617C4.02059 3.33394 4.02059 2.99402 3.95143 2.67253C3.88802 2.38135 3.77314 2.1098 3.60856 1.86639C3.50562 1.7171 3.5435 1.51299 3.69648 1.4104C3.84548 1.30854 4.04988 1.34659 4.15088 1.49792C4.36522 1.81037 4.51388 2.15842 4.59424 2.53553C4.68279 2.94563 4.68279 3.38205 4.59424 3.79357Z" fill="#823F98"/>
<path id="Vector_2" d="M14.4931 4.82138C12.7812 5.34442 12.5908 4.92608 12.5908 3.94688V1.19883H11.2595V4.23243C11.2595 5.61074 11.897 6.32402 12.9998 6.32402C13.2281 6.32402 13.7036 6.21972 14.8352 5.82958L15.0066 6.20049H15.8241V1.19883H14.4931V4.82138H14.4931Z" fill="#823F98"/>
<path id="Vector_3" d="M28.5767 4.61233V2.33011H29.9176V1.19878H28.5767V0L27.2358 0.133361V4.59356C27.2358 6.34324 28.9475 6.50481 30.1648 6.2005L29.8795 5.20213C29.2613 5.32566 28.5767 5.27777 28.5767 4.61233Z" fill="#823F98"/>
<path id="Vector_4" d="M32 1.19883H30.6783V6.20049H32V1.19883Z" fill="#823F98"/>
<path id="Vector_5" d="M9.15709 4.61233V2.33011H10.498V1.19878H9.15709V0L7.81619 0.133361V4.59356C7.81619 6.34324 9.52783 6.50481 10.7453 6.2005L10.4599 5.20213C9.84193 5.32566 9.15709 5.27777 9.15709 4.61233Z" fill="#823F98"/>
<path id="Vector_6" d="M24.7725 1.0749C24.5444 1.0749 24.0597 1.1796 22.9185 1.56939L22.7471 1.19876H21.9296V6.20043H23.2609V2.57708C24.9914 2.045 25.1913 2.47278 25.1913 3.45198V6.20043H26.5226V3.16689C26.5226 1.78823 25.8854 1.0749 24.7725 1.0749Z" fill="#823F98"/>
<path id="Vector_7" d="M19.0668 5.1927C18.5821 5.16369 18.1447 5.04017 17.9068 4.60295L21.3398 3.75671C21.3015 2.29252 20.5697 1.08475 18.9338 1.08475C17.5741 1.08475 16.4328 2.15921 16.4328 3.73749C16.4328 5.24018 17.4408 6.32397 19.1051 6.32397C19.9039 6.32397 20.4839 6.14318 20.8739 5.99144L20.5598 4.98324C20.1036 5.14527 19.571 5.21152 19.0668 5.1927ZM18.8767 2.26346C19.4283 2.23479 19.8277 2.4823 20.0275 2.97718L17.6692 3.56608C17.7165 2.83404 18.2206 2.3015 18.8767 2.26346Z" fill="#823F98"/>
</g>
</svg>
