<svg width="32" height="32" viewBox="0 0 36 36" fill="none" xmlns="http://www.w3.org/2000/svg">
<path d="M22.5401 13C20.41 13 18.5064 14.1359 18.5064 16.2344C18.5064 18.6411 21.8825 18.8074 21.8825 20.0164C21.8825 20.5255 21.3154 20.9812 20.3468 20.9812C18.9723 20.9812 17.9449 20.3444 17.9449 20.3444L17.5053 22.4621C17.5053 22.4621 18.6888 23 20.2601 23C22.589 23 24.4215 21.8084 24.4215 19.6739C24.4215 17.1308 21.0314 16.9695 21.0314 15.8473C21.0314 15.4485 21.4969 15.0116 22.4627 15.0116C23.5524 15.0116 24.4415 15.4747 24.4415 15.4747L24.8717 13.4293C24.8717 13.4293 23.9043 13 22.5401 13ZM3.05158 13.1544L3 13.4631C3 13.4631 3.89614 13.6318 4.70327 13.9684C5.7425 14.3544 5.81654 14.579 5.99156 15.2769L7.8988 22.8408H10.4555L14.3942 13.1544H11.8434L9.31252 19.7402L8.27977 14.1577C8.18506 13.5188 7.70532 13.1544 7.11808 13.1544H3.05158ZM15.4199 13.1544L13.4189 22.8408H15.8513L17.8453 13.1544H15.4199ZM28.9862 13.1544C28.3997 13.1544 28.0889 13.4774 27.8609 14.042L24.2973 22.8408H26.8481L27.3416 21.3743H30.4492L30.7493 22.8408H33L31.0365 13.1544H28.9862ZM29.318 15.7713L30.0741 19.4062H28.0485L29.318 15.7713Z" fill="currentColor"/>
</svg>
