<svg width="96" height="96" viewBox="0 0 96 96" fill="none" xmlns="http://www.w3.org/2000/svg">
<path fill-rule="evenodd" clip-rule="evenodd" d="M22.0797 19.5512H54.0429C61.3032 19.5512 63.936 20.3071 66.5902 21.7267C69.2445 23.1462 71.3276 25.2293 72.7471 27.8835C74.1666 30.5378 74.9226 33.1706 74.9226 40.4309V61.3443C74.9226 68.6046 74.1666 71.2374 72.7471 73.8917C71.3276 76.5459 69.2445 78.629 66.5902 80.0485C63.936 81.4681 61.3032 82.224 54.0429 82.224H22.0797C14.8194 82.224 12.1866 81.4681 9.53233 80.0485C6.87807 78.629 4.79498 76.5459 3.37547 73.8917C1.95595 71.2374 1.2 68.6046 1.2 61.3443L1.2 40.4309C1.2 33.1706 1.95595 30.5378 3.37547 27.8835C4.79498 25.2293 6.87807 23.1462 9.53233 21.7267C12.1866 20.3071 14.8194 19.5512 22.0797 19.5512Z" fill="#E8E7FF"/>
<path d="M63.1857 19.5512C69.6678 19.5512 74.9226 24.833 74.9226 31.3484V70.4268C74.9226 76.9422 69.6678 82.224 63.1857 82.224H12.9369C6.4548 82.224 1.2 76.9422 1.2 70.4268V31.3484C1.2 24.833 6.4548 19.5512 12.9369 19.5512H63.1857ZM63.1857 21.3945H12.9369C7.52232 21.3945 3.12267 25.7623 3.03522 31.1838L3.03389 31.3484V70.4268C3.03389 75.8692 7.3794 80.2915 12.7732 80.3794L12.9369 80.3807H63.1857C68.6003 80.3807 72.9999 76.0129 73.0874 70.5914L73.0887 70.4268V31.3484C73.0887 25.906 68.7432 21.4837 63.3494 21.3958L63.1857 21.3945Z" fill="#1E243D"/>
<path fill-rule="evenodd" clip-rule="evenodd" d="M10.2187 19.5512H65.9039C70.8848 19.5512 74.9226 23.589 74.9226 28.5699V37.6157H1.2V28.5699C1.2 23.589 5.23779 19.5512 10.2187 19.5512Z" fill="white"/>
<path d="M65.9365 19.5512C70.8994 19.5512 74.9226 23.5951 74.9226 28.5835V37.6157H1.2V28.5835C1.2 23.5951 5.22321 19.5512 10.1861 19.5512H65.9365ZM65.9365 21.3945H10.1861C6.27806 21.3945 3.10211 24.545 3.03498 28.457L3.03389 28.5835V35.7724H73.0887V28.5835C73.0887 24.6553 69.9543 21.4631 66.0623 21.3956L65.9365 21.3945Z" fill="#1E243D"/>
<path d="M31.2034 18.2576C31.2034 16.1271 29.4763 14.4 27.3458 14.4C25.2153 14.4 23.4882 16.1271 23.4882 18.2576V25.1375C23.4882 27.2679 25.2153 28.995 27.3458 28.995C29.4763 28.995 31.2034 27.2679 31.2034 25.1375V18.2576Z" fill="#E8E7FF"/>
<path d="M27.3458 14.4C29.4763 14.4 31.2034 16.243 31.2034 18.5165V24.8785C31.2034 27.152 29.4763 28.995 27.3458 28.995C25.2153 28.995 23.4882 27.152 23.4882 24.8785V18.5165C23.4882 16.243 25.2153 14.4 27.3458 14.4ZM27.3458 16.2712C26.2101 16.2712 25.2846 17.2313 25.2431 18.4324L25.2416 18.5165V24.8785C25.2416 26.1186 26.1837 27.1239 27.3458 27.1239C28.4815 27.1239 29.407 26.1638 29.4485 24.9627L29.4499 24.8785V18.5165C29.4499 17.2764 28.5079 16.2712 27.3458 16.2712Z" fill="#1E243D"/>
<path d="M52.6343 18.2576C52.6343 16.1271 50.9072 14.4 48.7767 14.4C46.6462 14.4 44.9191 16.1271 44.9191 18.2576V25.1375C44.9191 27.2679 46.6462 28.995 48.7767 28.995C50.9072 28.995 52.6343 27.2679 52.6343 25.1375V18.2576Z" fill="#E8E7FF"/>
<path d="M48.7767 14.4C50.9072 14.4 52.6343 16.243 52.6343 18.5165V24.8785C52.6343 27.152 50.9072 28.995 48.7767 28.995C46.6462 28.995 44.9191 27.152 44.9191 24.8785V18.5165C44.9191 16.243 46.6462 14.4 48.7767 14.4ZM48.7767 16.2712C47.6411 16.2712 46.7155 17.2313 46.674 18.4324L46.6726 18.5165V24.8785C46.6726 26.1186 47.6146 27.1239 48.7767 27.1239C49.9124 27.1239 50.8379 26.1638 50.8794 24.9627L50.8809 24.8785V18.5165C50.8809 17.2764 49.9388 16.2712 48.7767 16.2712Z" fill="#1E243D"/>
<path d="M57.7779 41.873H18.0286C12.8208 41.873 8.91523 41.9398 8.91523 47.1476V65.9261C8.91523 71.134 9.63698 75.3558 14.8448 75.3558H61.2373C66.4452 75.3558 67.2075 71.134 67.2075 65.9261V51.3027C67.2075 46.0948 62.9857 41.873 57.7779 41.873Z" fill="white"/>
<path d="M62.4415 41.873C65.0737 41.873 67.2075 44.0146 67.2075 46.6563V70.5725C67.2075 73.2142 65.0737 75.3558 62.4415 75.3558H13.6813C11.0491 75.3558 8.91523 73.2142 8.91523 70.5725V46.6563C8.91523 44.0146 11.0491 41.873 13.6813 41.873H62.4415ZM62.4415 43.3448H13.6813C11.8915 43.3448 10.4346 44.7749 10.3831 46.5586L10.3817 46.6563V70.5725C10.3817 72.3687 11.8067 73.8309 13.584 73.8826L13.6813 73.884H62.4415C64.2312 73.884 65.6882 72.4539 65.7396 70.6702L65.741 70.5725V46.6563C65.741 44.8601 64.3161 43.3979 62.5388 43.3462L62.4415 43.3448Z" fill="#1E243D"/>
<path d="M17.4816 51.2456C18.8986 51.2456 20.0473 50.1084 20.0473 48.7057C20.0473 47.3029 18.8986 46.1657 17.4816 46.1657C16.0645 46.1657 14.9158 47.3029 14.9158 48.7057C14.9158 50.1084 16.0645 51.2456 17.4816 51.2456Z" fill="#F4F5FC"/>
<path d="M24.4437 51.2456C25.8608 51.2456 27.0095 50.1084 27.0095 48.7057C27.0095 47.3029 25.8608 46.1657 24.4437 46.1657C23.0267 46.1657 21.8779 47.3029 21.8779 48.7057C21.8779 50.1084 23.0267 51.2456 24.4437 51.2456Z" fill="#F4F5FC"/>
<path d="M31.4058 51.2456C32.8229 51.2456 33.9716 50.1084 33.9716 48.7057C33.9716 47.3029 32.8229 46.1657 31.4058 46.1657C29.9888 46.1657 28.84 47.3029 28.84 48.7057C28.84 50.1084 29.9888 51.2456 31.4058 51.2456Z" fill="#E3E5F6"/>
<path d="M31.4058 58.1376C32.8229 58.1376 33.9716 57.0004 33.9716 55.5976C33.9716 54.1948 32.8229 53.0576 31.4058 53.0576C29.9888 53.0576 28.84 54.1948 28.84 55.5976C28.84 57.0004 29.9888 58.1376 31.4058 58.1376Z" fill="#E3E5F6"/>
<path d="M38.3679 51.2456C39.785 51.2456 40.9337 50.1084 40.9337 48.7057C40.9337 47.3029 39.785 46.1657 38.3679 46.1657C36.9509 46.1657 35.8021 47.3029 35.8021 48.7057C35.8021 50.1084 36.9509 51.2456 38.3679 51.2456Z" fill="#E3E5F6"/>
<path d="M38.3679 58.1376C39.785 58.1376 40.9337 57.0004 40.9337 55.5976C40.9337 54.1948 39.785 53.0576 38.3679 53.0576C36.9509 53.0576 35.8021 54.1948 35.8021 55.5976C35.8021 57.0004 36.9509 58.1376 38.3679 58.1376Z" fill="#E3E5F6"/>
<path d="M45.3301 51.2456C46.7471 51.2456 47.8959 50.1084 47.8959 48.7057C47.8959 47.3029 46.7471 46.1657 45.3301 46.1657C43.913 46.1657 42.7643 47.3029 42.7643 48.7057C42.7643 50.1084 43.913 51.2456 45.3301 51.2456Z" fill="#E3E5F6"/>
<path d="M45.3301 58.1376C46.7471 58.1376 47.8959 57.0004 47.8959 55.5976C47.8959 54.1948 46.7471 53.0576 45.3301 53.0576C43.913 53.0576 42.7643 54.1948 42.7643 55.5976C42.7643 57.0004 43.913 58.1376 45.3301 58.1376Z" fill="#E3E5F6"/>
<path d="M52.2922 51.2456C53.7092 51.2456 54.8579 50.1084 54.8579 48.7057C54.8579 47.3029 53.7092 46.1657 52.2922 46.1657C50.8751 46.1657 49.7264 47.3029 49.7264 48.7057C49.7264 50.1084 50.8751 51.2456 52.2922 51.2456Z" fill="#E3E5F6"/>
<path d="M52.2922 58.1376C53.7092 58.1376 54.8579 57.0004 54.8579 55.5976C54.8579 54.1948 53.7092 53.0576 52.2922 53.0576C50.8751 53.0576 49.7264 54.1948 49.7264 55.5976C49.7264 57.0004 50.8751 58.1376 52.2922 58.1376Z" fill="#E3E5F6"/>
<path d="M59.2543 51.2456C60.6713 51.2456 61.82 50.1084 61.82 48.7057C61.82 47.3029 60.6713 46.1657 59.2543 46.1657C57.8372 46.1657 56.6885 47.3029 56.6885 48.7057C56.6885 50.1084 57.8372 51.2456 59.2543 51.2456Z" fill="#E3E5F6"/>
<path d="M59.2543 58.1376C60.6713 58.1376 61.82 57.0004 61.82 55.5976C61.82 54.1948 60.6713 53.0576 59.2543 53.0576C57.8372 53.0576 56.6885 54.1948 56.6885 55.5976C56.6885 57.0004 57.8372 58.1376 59.2543 58.1376Z" fill="#E3E5F6"/>
<path d="M17.4816 58.1376C18.8986 58.1376 20.0473 57.0004 20.0473 55.5976C20.0473 54.1948 18.8986 53.0576 17.4816 53.0576C16.0645 53.0576 14.9158 54.1948 14.9158 55.5976C14.9158 57.0004 16.0645 58.1376 17.4816 58.1376Z" fill="#E3E5F6"/>
<path d="M24.4437 58.1376C25.8608 58.1376 27.0095 57.0004 27.0095 55.5976C27.0095 54.1948 25.8608 53.0576 24.4437 53.0576C23.0267 53.0576 21.8779 54.1948 21.8779 55.5976C21.8779 57.0004 23.0267 58.1376 24.4437 58.1376Z" fill="#E3E5F6"/>
<path d="M31.4058 65.0296C32.8229 65.0296 33.9716 63.8924 33.9716 62.4897C33.9716 61.0869 32.8229 59.9497 31.4058 59.9497C29.9888 59.9497 28.84 61.0869 28.84 62.4897C28.84 63.8924 29.9888 65.0296 31.4058 65.0296Z" fill="#E3E5F6"/>
<path d="M38.3679 65.0296C39.785 65.0296 40.9337 63.8924 40.9337 62.4897C40.9337 61.0869 39.785 59.9497 38.3679 59.9497C36.9509 59.9497 35.8021 61.0869 35.8021 62.4897C35.8021 63.8924 36.9509 65.0296 38.3679 65.0296Z" fill="#E3E5F6"/>
<path d="M45.3301 65.0296C46.7471 65.0296 47.8959 63.8924 47.8959 62.4897C47.8959 61.0869 46.7471 59.9497 45.3301 59.9497C43.913 59.9497 42.7643 61.0869 42.7643 62.4897C42.7643 63.8924 43.913 65.0296 45.3301 65.0296Z" fill="#E3E5F6"/>
<path d="M52.2922 65.0296C53.7092 65.0296 54.8579 63.8924 54.8579 62.4897C54.8579 61.0869 53.7092 59.9497 52.2922 59.9497C50.8751 59.9497 49.7264 61.0869 49.7264 62.4897C49.7264 63.8924 50.8751 65.0296 52.2922 65.0296Z" fill="#E3E5F6"/>
<path d="M59.2543 65.0296C60.6713 65.0296 61.82 63.8924 61.82 62.4897C61.82 61.0869 60.6713 59.9497 59.2543 59.9497C57.8372 59.9497 56.6885 61.0869 56.6885 62.4897C56.6885 63.8924 57.8372 65.0296 59.2543 65.0296Z" fill="#E3E5F6"/>
<path d="M17.4816 65.0296C18.8986 65.0296 20.0473 63.8924 20.0473 62.4897C20.0473 61.0869 18.8986 59.9497 17.4816 59.9497C16.0645 59.9497 14.9158 61.0869 14.9158 62.4897C14.9158 63.8924 16.0645 65.0296 17.4816 65.0296Z" fill="#E3E5F6"/>
<path d="M24.4437 65.0296C25.8608 65.0296 27.0095 63.8924 27.0095 62.4897C27.0095 61.0869 25.8608 59.9497 24.4437 59.9497C23.0267 59.9497 21.8779 61.0869 21.8779 62.4897C21.8779 63.8924 23.0267 65.0296 24.4437 65.0296Z" fill="#E3E5F6"/>
<path d="M17.4816 71.9216C18.8986 71.9216 20.0473 70.7845 20.0473 69.3817C20.0473 67.9789 18.8986 66.8417 17.4816 66.8417C16.0645 66.8417 14.9158 67.9789 14.9158 69.3817C14.9158 70.7845 16.0645 71.9216 17.4816 71.9216Z" fill="#E3E5F6"/>
<path d="M24.4437 71.9216C25.8608 71.9216 27.0095 70.7845 27.0095 69.3817C27.0095 67.9789 25.8608 66.8417 24.4437 66.8417C23.0267 66.8417 21.8779 67.9789 21.8779 69.3817C21.8779 70.7845 23.0267 71.9216 24.4437 71.9216Z" fill="#E3E5F6"/>
<path d="M31.4058 71.9216C32.8229 71.9216 33.9716 70.7845 33.9716 69.3817C33.9716 67.9789 32.8229 66.8417 31.4058 66.8417C29.9888 66.8417 28.84 67.9789 28.84 69.3817C28.84 70.7845 29.9888 71.9216 31.4058 71.9216Z" fill="#E3E5F6"/>
<path d="M38.3679 71.9216C39.785 71.9216 40.9337 70.7845 40.9337 69.3817C40.9337 67.9789 39.785 66.8417 38.3679 66.8417C36.9509 66.8417 35.8021 67.9789 35.8021 69.3817C35.8021 70.7845 36.9509 71.9216 38.3679 71.9216Z" fill="#E3E5F6"/>
<path d="M45.3301 71.9216C46.7471 71.9216 47.8959 70.7845 47.8959 69.3817C47.8959 67.9789 46.7471 66.8417 45.3301 66.8417C43.913 66.8417 42.7643 67.9789 42.7643 69.3817C42.7643 70.7845 43.913 71.9216 45.3301 71.9216Z" fill="#E3E5F6"/>
<path d="M52.1308 71.9216C53.5478 71.9216 54.6966 70.7845 54.6966 69.3817C54.6966 67.9789 53.5478 66.8417 52.1308 66.8417C50.7138 66.8417 49.565 67.9789 49.565 69.3817C49.565 70.7845 50.7138 71.9216 52.1308 71.9216Z" fill="#E3E5F6"/>
<path d="M59.4981 71.9216C60.9152 71.9216 62.0639 70.7845 62.0639 69.3817C62.0639 67.9789 60.9152 66.8417 59.4981 66.8417C58.0811 66.8417 56.9323 67.9789 56.9323 69.3817C56.9323 70.7845 58.0811 71.9216 59.4981 71.9216Z" fill="#E3E5F6"/>
<path d="M74.2882 70.3075C85.1334 70.3075 93.9251 61.5158 93.9251 50.6707C93.9251 39.8255 85.1334 31.0338 74.2882 31.0338C63.4431 31.0338 54.6514 39.8255 54.6514 50.6707C54.6514 61.5158 63.4431 70.3075 74.2882 70.3075Z" fill="#FFECAB" stroke="#1E243D" stroke-width="1.75"/>
<path fill-rule="evenodd" clip-rule="evenodd" d="M81.119 41.9046C81.3806 41.9046 81.5934 42.116 81.5934 42.3759C81.5934 42.6358 81.3806 42.8472 81.119 42.8472H79.3164V46.04C79.3164 47.2095 78.7322 48.2943 77.7537 48.9416L75.1433 50.6708L77.7531 52.3996C78.7321 53.0472 79.3164 54.132 79.3164 55.3016V58.4944H81.119C81.3806 58.4944 81.5934 58.7058 81.5934 58.9657C81.5934 59.2255 81.3806 59.437 81.119 59.437H67.4574C67.1958 59.437 66.983 59.2255 66.983 58.9656C66.983 58.7058 67.1958 58.4944 67.4574 58.4944H69.26V55.3016C69.26 54.132 69.8442 53.0473 70.8228 52.4L73.4331 50.6708L70.8234 48.9419C69.8444 48.2943 69.26 47.2095 69.26 46.0399V42.8472H67.4574C67.1958 42.8472 66.983 42.6357 66.983 42.3759C66.983 42.116 67.1958 41.9046 67.4574 41.9046H81.119ZM74.2882 51.2372L71.3488 53.1844C70.635 53.6566 70.2087 54.4481 70.2087 55.3016V58.4944H78.3678V55.3016C78.3678 54.4481 77.9413 53.6565 77.227 53.184L74.2882 51.2372ZM73.5733 54.4121C73.9847 54.0615 74.5917 54.0615 75.0031 54.4121C75.0286 54.4339 77.0047 56.0905 77.5297 56.6482C77.5355 56.6544 77.5413 56.6605 77.547 56.6667C77.8961 57.0399 77.6285 57.6468 77.1154 57.6468H71.461C70.9479 57.6468 70.6802 57.0399 71.0294 56.6667C71.0351 56.6605 71.0409 56.6544 71.0467 56.6482C71.5717 56.0905 73.5478 54.4338 73.5733 54.4121ZM78.3677 42.8472H70.2087V46.04C70.2087 46.8934 70.6351 47.685 71.3494 48.1575L74.2882 50.1043L77.2276 48.1572C77.9414 47.6849 78.3677 46.8934 78.3677 46.04V42.8472Z" fill="#1E243D"/>
</svg>
