<svg width="80" height="80" viewBox="0 0 80 80" fill="none" xmlns="http://www.w3.org/2000/svg">
<path fill-rule="evenodd" clip-rule="evenodd" d="M37.5977 78.0826C37.2757 78.7016 36.7185 79.1545 36.039 79.3693C35.3706 79.5763 34.6557 79.5041 34.0337 79.1827L1.92901 62.3437C0.6394 61.6669 0.143377 60.0672 0.815353 58.7875L26.4029 10.3127C26.5055 10.1274 26.6193 9.95943 26.7553 9.80095C27.5408 8.91597 28.872 8.63896 29.97 9.21793L62.0661 26.0546C62.257 26.1536 62.4299 26.2724 62.5834 26.4118C63.4789 27.1916 63.7606 28.5089 63.1851 29.6077L37.5977 78.0826Z" fill="#5A50F9"/>
<path fill-rule="evenodd" clip-rule="evenodd" d="M26.369 9.46025C27.3046 8.40619 28.8435 8.10078 30.1107 8.71271L30.2102 8.76293L62.3065 25.5997L62.4401 25.6733C62.6179 25.7769 62.7807 25.8954 62.9228 26.0246C63.988 26.9523 64.301 28.4769 63.6916 29.7473L63.6416 29.847L38.0558 78.3193C37.6732 79.0544 37.0104 79.6015 36.1921 79.8602C35.4415 80.0927 34.6344 80.0332 33.9129 79.6964L33.7935 79.6376L1.68871 62.7986C0.180789 62.0072 -0.422536 60.1583 0.31224 58.6406L0.358901 58.5481L25.9513 10.0642C26.0501 9.88576 26.156 9.7253 26.2756 9.57368L26.369 9.46025ZM27.1472 10.1351C27.0663 10.2295 26.9927 10.3305 26.925 10.4398L26.8593 10.552L1.27233 59.0259C0.74508 60.03 1.1134 61.2778 2.08877 61.8443L2.16918 61.8887L34.271 78.7262C34.779 78.9887 35.3539 79.0431 35.8831 78.8792C36.4049 78.7142 36.8283 78.3821 37.091 77.9343L37.1414 77.8432L62.7279 29.3697C63.1822 28.5022 62.9781 27.4382 62.2361 26.7919C62.1408 26.7053 62.0348 26.6281 61.9167 26.5594L61.8259 26.5094L29.7288 9.67235C28.8653 9.21703 27.7876 9.41374 27.1472 10.1351Z" fill="#073B4C"/>
<path fill-rule="evenodd" clip-rule="evenodd" d="M9.58695 47.3845L9.6784 47.437L11.7205 48.5325L11.7174 48.5381L12.9837 49.2143C13.1944 49.3279 13.4046 49.4426 13.6139 49.5593C14.3359 49.9609 14.5176 50.2985 14.3087 51.0862C13.9735 52.355 13.6053 53.6178 13.1339 54.8435C12.8851 55.4866 12.7393 56.1598 12.5111 56.8078L12.3892 57.1294C12.3634 57.1913 12.3378 57.2664 12.4027 57.3212C12.4933 57.3982 12.5952 57.3563 12.6695 57.3012C12.8667 57.1484 13.0573 56.9892 13.2383 56.8206C13.991 56.1184 14.7793 55.4583 15.5715 54.8027L16.5221 54.0156C16.6801 53.884 16.8378 53.752 16.9949 53.6192C17.4055 53.2727 17.8161 52.9234 18.2184 52.5625C18.4763 52.3314 18.7214 52.2869 19.0362 52.4697C19.6333 52.8153 20.2467 53.1331 20.8612 53.4487C21.1213 53.5822 21.1486 53.6911 20.9066 53.8871L19.7919 54.793L17.5688 56.6127L16.9355 57.126L15.6656 58.1475C15.0316 58.6593 14.401 59.1755 13.7831 59.7086C13.6026 59.8644 13.4153 60.0126 13.226 60.1587L12.6566 60.5965C12.4678 60.7441 12.2816 60.8951 12.1026 61.0551C11.9441 61.195 11.756 61.2086 11.562 61.103C10.8701 60.7289 10.1776 60.356 9.48272 59.9877C9.23115 59.8544 9.20071 59.6754 9.26395 59.4022C9.62307 57.8245 10.0823 56.2709 10.4349 54.6893L10.5789 54.0096C10.7542 53.1329 11.0186 52.2657 11.278 51.4103C11.5673 50.4577 11.4316 49.7032 10.7771 49.0126L10.6993 48.9332C10.5962 48.8312 10.4964 48.7255 10.3974 48.6189L10.0998 48.2994C9.94932 48.1411 9.79447 47.9872 9.62619 47.8469L9.52126 47.7572C9.50461 47.7417 9.48878 47.7256 9.47438 47.7083L9.42897 47.6553L9.38483 47.5994C9.33775 47.5325 9.3126 47.4604 9.37699 47.3863C9.43504 47.3173 9.51282 47.3443 9.58695 47.3845ZM37.7925 62.3367C38.0026 62.4451 38.0181 62.6013 37.9451 62.8103C37.631 63.7031 37.3527 64.6061 37.0971 65.5153C36.7251 66.844 36.2499 68.1449 35.8535 69.4675L35.6627 70.1308C35.3903 71.1205 35.0381 72.0898 34.7353 73.0722C34.6657 73.3005 34.5489 73.2825 34.4053 73.2093L34.1266 73.0631L33.574 72.7643L33.5728 72.7666L33.0657 72.4923C32.9811 72.4469 32.8963 72.4022 32.8111 72.3585C32.6076 72.2547 32.5236 72.1132 32.5884 71.8814L32.606 71.8263C32.6855 71.6071 32.7311 71.3774 32.8002 71.1548L32.8572 70.9895C32.9873 70.6555 32.8688 70.4785 32.5946 70.336L31.8765 69.957L30.4469 69.1889C30.399 69.1631 30.3541 69.1396 30.3118 69.1183L30.1924 69.0614C29.8363 68.9032 29.6765 68.9572 29.3436 69.2872L29.2323 69.4007L29.068 69.5709L28.9734 69.666C28.6364 69.9974 28.506 70.0253 28.1171 69.8357L27.9852 69.7686L26.4383 68.9425C26.214 68.8222 26.1575 68.7248 26.4175 68.5051C27.8826 67.27 29.3271 66.0064 30.7898 64.7655C32.1046 63.65 33.4339 62.5509 34.7585 61.4479C35.1023 61.1613 35.4774 61.1198 35.8483 61.3077C36.4994 61.6425 37.1416 61.999 37.7925 62.3367ZM22.8495 54.4144L22.9078 54.4487C23.2567 54.6658 23.6192 54.8609 23.9854 55.0495L24.5362 55.3294C24.7763 55.4494 24.8355 55.5655 24.6406 55.791L24.2131 56.2906L23.3663 57.2971C23.0836 57.6322 22.7989 57.9657 22.5074 58.2935C22.3106 58.5146 22.1232 58.7442 21.9387 58.9764L21.3874 59.6748C21.2023 59.9062 21.0135 60.1342 20.8148 60.3528C20.4125 60.7961 20.0321 61.258 19.6563 61.7239L18.9058 62.6566C18.5287 63.1213 18.1448 63.5804 17.737 64.0191C17.5715 64.1974 17.4293 64.2185 17.2396 64.1121C16.9347 63.9446 16.6251 63.7805 16.3184 63.6165L16.3172 63.6188L15.891 63.3889L15.4655 63.1615C15.2364 63.0401 15.1394 62.9535 15.3444 62.7012L15.3837 62.6549C15.6036 62.4048 15.8166 62.1483 16.0269 61.8895L16.6541 61.1095C16.968 60.72 17.2855 60.334 17.6211 59.965C18.0548 59.4891 18.4676 58.9961 18.8756 58.4994L19.6901 57.505C19.9627 57.1745 20.238 56.8463 20.5208 56.5244C21.0593 55.9081 21.5882 55.2808 22.092 54.6345C22.328 54.3317 22.5265 54.2359 22.8495 54.4144ZM31.7508 58.9728C32.178 59.3535 32.2178 59.4731 31.8132 59.8788C31.4634 60.2283 31.1995 60.6409 30.8672 61.0012C30.7139 61.1669 30.5948 61.1785 30.4615 61.0243L30.4305 60.9858C29.8419 60.202 29.0249 59.7396 28.1319 59.3897C27.8886 59.296 27.6439 59.2898 27.3936 59.357C26.8014 59.5236 26.6298 59.8235 26.77 60.4195C26.8527 60.7658 27.031 61.0571 27.2251 61.3392L27.4459 61.6551C27.836 62.2175 28.1594 62.8092 28.4069 63.4503C28.9786 64.9334 27.9792 66.4816 26.8685 67.0567C25.8604 67.579 24.8366 67.6521 23.7495 67.3462C23.1251 67.171 22.5343 66.952 22.0181 66.6343C21.0889 66.199 20.349 65.5703 19.6327 64.9055C19.4652 64.7491 19.4485 64.608 19.5938 64.4396L20.4723 63.4233C20.6194 63.2544 20.7671 63.086 20.9158 62.9184C21.0365 62.7824 21.0988 62.8411 21.1485 62.9226L21.2 63.0123C21.2042 63.0192 21.2085 63.0257 21.2128 63.0317C21.9108 64.0072 22.8725 64.6139 23.9774 65.0261C24.2955 65.1463 24.6062 65.1273 24.9188 65.0226C25.4326 64.8526 25.6244 64.5148 25.4961 63.9839C25.4003 63.5893 25.2295 63.2283 24.9733 62.9045C24.4533 62.2438 24.0343 61.5221 23.7924 60.712C23.4466 59.5603 23.8722 58.6147 24.6993 57.8436C25.7111 56.8986 26.9423 56.7812 28.2241 57.0697C29.5729 57.3746 30.7252 58.0618 31.7508 58.9728ZM34.8162 64.4118C34.7129 64.3472 34.6376 64.39 34.5702 64.4556L34.4724 64.5604C34.4644 64.5688 34.4563 64.5769 34.4481 64.5845L34.0846 64.9237L33.0012 65.9513C32.6382 66.2918 32.2708 66.6272 31.8909 66.9477C31.6539 67.1474 31.6492 67.3441 31.9237 67.494C32.1521 67.6195 32.3834 67.7421 32.6152 67.8664L32.6115 67.8732L33.0255 68.0982L33.234 68.2076C33.5822 68.3837 33.7097 68.3499 33.8247 67.9785L34.0645 67.1386C34.2892 66.3579 34.5253 65.5811 34.8209 64.8202L34.8754 64.6906C34.9144 64.5894 34.9324 64.4846 34.8162 64.4118Z" fill="white"/>
<path fill-rule="evenodd" clip-rule="evenodd" d="M38.3867 22.3174L38.8634 21.3817C38.9782 21.3514 39.0997 21.3302 39.2207 21.3176C39.7494 21.2667 40.1949 21.8034 39.9782 22.2285L39.4977 23.1716C39.4539 23.2577 39.3234 23.2637 39.2437 23.1868C38.9845 22.9337 38.7099 22.6903 38.4251 22.4584C38.3787 22.4201 38.3631 22.3636 38.3867 22.3174ZM36.6003 26.1017C36.3429 25.9706 36.2283 25.6877 36.3387 25.4708C36.7848 24.5954 37.9767 24.3082 39.0023 24.8308C40.0276 25.3532 40.4943 26.4855 40.0482 27.3609C39.9377 27.5777 39.6415 27.6513 39.3838 27.52C39.1279 27.3896 39.0118 27.1059 39.1222 26.8891C39.3456 26.4507 39.1081 25.8843 38.5979 25.6244C38.0859 25.3635 37.4881 25.5043 37.2647 25.9427C37.1542 26.1595 36.858 26.233 36.6003 26.1017ZM28.3906 21.4084C28.2849 21.2205 28.3598 21.0109 28.5542 20.9376C30.951 20.0715 34.4619 21.4403 34.6126 21.4987C34.8264 21.5824 34.9445 21.8003 34.8795 21.986C34.8128 22.1712 34.5873 22.2519 34.3725 22.1695C34.3403 22.1531 31.0336 20.863 28.9296 21.6249C28.8212 21.6624 28.6947 21.6522 28.5837 21.5956C28.4988 21.5504 28.432 21.4857 28.3906 21.4084ZM26.5246 20.8741C26.291 21.117 26.0962 21.3906 25.9446 21.6883C25.1807 23.1875 25.6257 25.1905 27.1145 27.0641L26.6105 28.578C26.5297 28.9859 26.7973 29.4266 27.2436 29.6124L27.9629 29.9789C28.3736 30.2298 28.8882 30.1896 29.171 29.8846L29.5671 29.3276C30.6136 30.0585 31.7638 30.6446 32.9721 31.0626L32.7534 31.7206C32.6735 32.1273 32.945 32.5643 33.3915 32.7449L34.109 33.1105C34.516 33.3648 35.031 33.3285 35.3128 33.0247L36.2553 31.7166C37.6047 31.8117 38.9023 31.5295 39.9732 30.9093L41.1287 31.1976C41.5788 31.3092 42.0155 31.1389 42.1947 30.7827L43.1921 28.8251C43.4132 28.3912 43.1803 27.8288 42.6717 27.5696L41.5638 27.0052C41.3004 25.886 40.7307 24.81 39.9101 23.8813L41.1235 21.4998C41.1975 21.3545 41.119 21.1675 40.9507 21.0818C40.4034 20.8029 39.7982 20.6705 39.2112 20.6991L39.2815 20.5612C39.3555 20.416 39.2766 20.2288 39.1083 20.143C37.8123 19.4813 36.2967 19.6794 35.4664 20.6176C32.2392 19.1418 28.9807 19.1055 27.1204 20.3757C27.1161 20.3625 27.1092 20.3517 27.1053 20.3387C26.9238 20.5197 26.7374 20.6945 26.5258 20.8474L26.5246 20.8741Z" fill="white"/>
<path fill-rule="evenodd" clip-rule="evenodd" d="M26.6185 18.7988C26.4874 18.5893 26.3816 18.3788 26.3202 18.1764C26.2373 17.9042 26.3191 17.7179 26.586 17.6192C26.7702 17.5506 27.2426 17.4532 27.4753 17.6638C27.7424 17.9065 27.4783 18.1692 27.3331 18.2909C27.1401 18.453 26.9284 18.6033 26.7109 18.7452C26.6812 18.7644 26.6486 18.7804 26.6185 18.7988ZM24.5033 20.0818C25.2012 19.9599 25.9299 19.8573 26.5374 19.6147C26.6947 19.794 26.8646 19.9691 27.0432 20.1377C27.1188 20.2085 27.1947 20.2788 27.273 20.3471C27.4033 20.4614 27.6047 20.4841 27.7232 20.4353C27.7352 20.4302 27.7455 20.4242 27.7557 20.4175C27.7623 20.4135 27.7698 20.4102 27.7753 20.4056C27.8928 20.3074 27.8266 20.1381 27.6765 20.0069C27.6245 19.9615 27.5736 19.9133 27.5222 19.8658C27.3543 19.7092 27.1909 19.5425 27.0407 19.3679C27.1123 19.3269 27.1831 19.2845 27.2521 19.2406C27.5365 19.0605 27.8333 18.8693 28.0533 18.6389C28.2942 18.3863 28.4088 18.0371 28.1629 17.6376C27.9216 17.2459 27.4121 17.0088 26.9451 16.9819C26.006 16.9276 25.3426 17.382 25.6411 18.1895C25.7486 18.4799 25.9062 18.7698 26.1002 19.0536C25.5225 19.2814 24.8615 19.3975 24.1801 19.5163C23.7796 19.586 24.1014 20.1517 24.5033 20.0818Z" fill="white"/>
<path fill-rule="evenodd" clip-rule="evenodd" d="M53.8039 43.7893C54.1133 44.119 54.5468 44.332 55.0963 44.32H55.1003H55.1043C55.6542 44.332 56.0917 44.1149 56.4007 43.7853C56.4288 43.7571 56.4569 43.725 56.485 43.6928C56.5091 43.6643 56.5332 43.6365 56.5536 43.6084C56.8061 43.2908 56.9666 42.8887 56.9666 42.4505C56.9666 42.2294 56.9229 42.0203 56.8546 41.8274C56.8502 41.8234 56.8502 41.8153 56.8462 41.8113C56.8302 41.759 56.8061 41.7108 56.786 41.6585C56.6255 41.2681 56.3244 40.9389 55.8709 40.7495C55.8428 40.7379 55.8147 40.7258 55.7866 40.7137C55.7625 40.7057 55.7465 40.6936 55.7224 40.6856V38.7116H59.3186H62.9149V40.6856C61.9315 41.0032 61.5823 41.948 61.7393 42.7923C61.7469 42.8325 61.7589 42.8686 61.767 42.9088C61.791 42.9933 61.8151 43.0773 61.8472 43.1581C61.8512 43.1702 61.8557 43.1822 61.8593 43.1903C62.1202 43.8375 62.6981 44.3441 63.537 44.32C63.5454 44.32 63.549 44.316 63.557 44.316C63.5615 44.316 63.5651 44.32 63.5691 44.32C63.5811 44.32 63.5972 44.316 63.6052 44.316C63.6173 44.3119 63.6293 44.3119 63.6413 44.3119C63.8822 44.3039 64.0989 44.2597 64.2915 44.1753C64.3036 44.1668 64.3196 44.1592 64.3317 44.1511C64.4079 44.119 64.4806 44.0788 64.5488 44.0345C65.0782 43.7049 65.4354 43.1219 65.4354 42.4505C65.4354 41.96 65.2468 41.5218 64.9377 41.1922C64.8936 41.1439 64.8498 41.0997 64.8013 41.0555C64.7772 41.0313 64.7531 41.0153 64.729 40.9952C64.6608 40.9389 64.5926 40.8906 64.5123 40.8424C64.5003 40.8343 64.4842 40.8303 64.4722 40.8223C64.3758 40.77 64.2715 40.7218 64.1591 40.6856V38.7116H67.3259L67.6028 41.8636L67.7918 44.0426L67.8195 44.0386L69.7581 64.9122V65.8167C69.7581 66.3354 69.3407 66.7535 68.823 66.7535H59.3186H49.8147C49.2969 66.7535 48.8791 66.3354 48.8791 65.8167V64.9122L50.8181 44.0386L50.8458 44.0426L51.0349 41.8636L51.3114 38.7116H54.4782V40.6856C54.4541 40.6936 54.438 40.7057 54.4143 40.7137C54.3859 40.7258 54.3578 40.7379 54.3301 40.7495C53.8761 40.9389 53.5791 41.2681 53.4145 41.6585C53.3945 41.7108 53.3704 41.759 53.3543 41.8153C53.3503 41.8153 53.3503 41.8193 53.3503 41.8234C53.2781 42.0203 53.2339 42.2294 53.2339 42.4505C53.2339 42.8928 53.3945 43.2948 53.6514 43.6164C53.6674 43.6365 53.6835 43.6526 53.6995 43.6727C53.7316 43.7129 53.7677 43.7531 53.8039 43.7893Z" fill="#E9F4FC"/>
<path fill-rule="evenodd" clip-rule="evenodd" d="M71.0026 64.8839C71.2073 66.3513 70.5126 68.0198 68.8228 67.9997H59.3189V66.7534H68.8228C69.3406 66.7534 69.758 66.3353 69.758 65.8166V64.912L67.8194 44.0384L67.7917 44.0425L67.6027 41.8634L68.7951 41.7589C68.8389 42.3137 68.8995 42.9369 68.9958 43.6404L69.0319 43.6364C69.0359 43.6967 71.0026 64.7834 71.0026 64.8839Z" fill="#073B4C"/>
<path fill-rule="evenodd" clip-rule="evenodd" d="M64.5486 44.0347C65.4473 43.4357 65.6564 42.0125 64.938 41.1923C65.2466 41.522 65.4357 41.9602 65.4357 42.4507C65.4357 43.1217 65.078 43.705 64.5486 44.0347Z" fill="black"/>
<path fill-rule="evenodd" clip-rule="evenodd" d="M62.9471 42.4505C62.9511 42.1128 63.22 41.8354 63.5572 41.8273C64.3358 41.8354 64.3358 43.0616 63.5532 43.0696C63.22 43.0616 62.9471 42.7882 62.9471 42.4505Z" fill="#FFFFFE"/>
<path fill-rule="evenodd" clip-rule="evenodd" d="M63.557 44.3158C63.573 44.3202 63.5891 44.3158 63.6051 44.3158C63.5975 44.3158 63.5815 44.3202 63.569 44.3202C63.5654 44.3202 63.5614 44.3158 63.557 44.3158Z" fill="black"/>
<path fill-rule="evenodd" clip-rule="evenodd" d="M63.537 43.0735C62.7303 43.0856 62.7303 41.8152 63.537 41.8272H63.5571C63.2199 41.8353 62.951 42.1127 62.947 42.4504C62.947 42.7881 63.2199 43.0615 63.5531 43.0695C63.549 43.0695 63.5454 43.0735 63.537 43.0735Z" fill="black"/>
<mask id="mask0_1429_14508" style="mask-type:luminance" maskUnits="userSpaceOnUse" x="59" y="30" width="1" height="1">
<path fill-rule="evenodd" clip-rule="evenodd" d="M59.1001 30.4486H59.5014V30.7535H59.1001V30.4486Z" fill="white"/>
</mask>
<g mask="url(#mask0_1429_14508)">
<path fill-rule="evenodd" clip-rule="evenodd" d="M59.2827 30.5504H59.3188V30.5545C59.3068 30.5545 59.2943 30.5545 59.2827 30.5504Z" fill="#073B4C"/>
</g>
<path fill-rule="evenodd" clip-rule="evenodd" d="M59.2827 30.5504C59.2943 30.5545 59.3068 30.5545 59.3188 30.5545C59.6559 30.5621 60.0694 30.5782 60.4266 30.6103C64.211 30.6188 64.3756 34.623 64.1589 37.465C69.5697 37.4128 68.4218 36.9508 68.795 41.7592L67.6026 41.8637L67.326 38.7117H64.1589V40.6857C64.2716 40.7219 64.3756 40.7701 64.4723 40.8224C64.4844 40.8301 64.5004 40.8345 64.5121 40.8425C64.5923 40.8908 64.6606 40.939 64.7288 40.9949C64.7533 41.015 64.777 41.0311 64.8014 41.0556C64.8496 41.0994 64.8934 41.144 64.9379 41.1923C65.6564 42.0124 65.4472 43.4356 64.5486 44.0347C64.4804 44.0785 64.4081 44.1191 64.3319 44.1513C64.3198 44.1593 64.3038 44.1669 64.2913 44.1754C64.0991 44.2598 63.8823 44.304 63.6411 44.3117C63.6295 44.3117 63.6174 44.3117 63.6054 44.3157C63.5889 44.3157 63.5729 44.3201 63.5568 44.3157C63.5492 44.3157 63.5452 44.3201 63.5371 44.3201C62.6983 44.3442 62.1199 43.8377 61.8594 43.19C61.8554 43.1824 61.851 43.1703 61.8474 43.1578C61.8153 43.0774 61.7912 42.993 61.7667 42.9086C61.7591 42.8688 61.7471 42.8326 61.739 42.792C61.5821 41.9481 61.9317 41.0033 62.915 40.6857V38.7117H59.3188V37.465H62.915C63.0712 33.4085 62.9833 31.8128 59.3188 31.8004L59.2225 30.5545V30.5504H59.2582H59.2827ZM63.5532 43.0698C64.3359 43.0613 64.3359 41.8351 63.5568 41.8275H63.5371C62.7304 41.8154 62.7304 43.0859 63.5371 43.0734C63.5452 43.0734 63.5492 43.0698 63.5532 43.0698Z" fill="#073B4C"/>
<path fill-rule="evenodd" clip-rule="evenodd" d="M55.0962 44.3201C54.5467 44.3317 54.1132 44.1191 53.8038 43.7894C53.7676 43.7532 53.7319 43.7126 53.6998 43.6728C53.6833 43.6527 53.6673 43.6366 53.6512 43.6165C53.286 43.1096 53.1696 42.4221 53.3502 41.8235C53.3502 41.819 53.3502 41.8154 53.3542 41.8154C53.3703 41.7591 53.3904 41.7069 53.4148 41.6586C53.5794 41.2682 53.876 40.939 54.3299 40.7496C54.3576 40.738 54.3857 40.7259 54.4142 40.7134C54.4379 40.7058 54.454 40.6933 54.4781 40.6857V38.7117H51.3113L51.0347 41.8637L49.8423 41.7591C50.216 36.9508 49.0677 37.4127 54.4781 37.465C54.2613 34.623 54.4259 30.6188 58.2111 30.6103C58.568 30.5782 58.9011 30.5621 59.2222 30.5544L59.3189 31.8003C55.6545 31.8128 55.5658 33.4085 55.7227 37.465H59.3189V38.7117H55.7227V40.6857C55.7464 40.6933 55.7624 40.7058 55.7869 40.7134C55.8146 40.7259 55.8427 40.738 55.8712 40.7496C56.3247 40.939 56.6258 41.2682 56.7859 41.6586C56.8064 41.7109 56.8301 41.7591 56.8461 41.8114C56.8501 41.8154 56.8501 41.8235 56.8545 41.8275C57.0307 42.4185 56.9143 43.1055 56.5535 43.6081C56.533 43.6366 56.5094 43.6644 56.4849 43.6925C56.4572 43.7251 56.4287 43.7572 56.4006 43.7854C56.0915 44.1146 55.6545 44.3317 55.1046 44.3201H55.1006H55.0962ZM55.0163 43.0698C55.044 43.0734 55.0721 43.0734 55.1006 43.0734C55.1283 43.0734 55.1564 43.0734 55.1849 43.0698C55.3695 43.0497 55.506 42.9568 55.5898 42.8285C55.7387 42.6114 55.7424 42.2938 55.5939 42.0767C55.5818 42.0562 55.5658 42.0361 55.5501 42.0201C55.4815 41.9356 55.3855 41.8713 55.2607 41.8476C55.2567 41.8436 55.2531 41.8436 55.2491 41.8436C55.2286 41.8351 55.2049 41.8315 55.1804 41.8315C55.1564 41.8275 55.1367 41.8275 55.1122 41.8275H55.1006C55.0761 41.8275 55.0524 41.8275 55.0279 41.8315C55.0042 41.8315 54.9798 41.8351 54.9557 41.8436C54.7995 41.8713 54.6832 41.9602 54.6065 42.0723C54.462 42.2894 54.462 42.607 54.6065 42.8285C54.6832 42.9407 54.7951 43.0251 54.9521 43.0573C54.9717 43.0613 54.9918 43.0657 55.0163 43.0698Z" fill="#073B4C"/>
<path fill-rule="evenodd" clip-rule="evenodd" d="M56.9666 42.4505C56.9666 42.8887 56.8064 43.2907 56.5536 43.6083C56.9144 43.1058 57.0308 42.4183 56.8546 41.8273C56.9228 42.0203 56.9666 42.2294 56.9666 42.4505Z" fill="black"/>
<path fill-rule="evenodd" clip-rule="evenodd" d="M55.2608 41.8474C55.3856 41.8716 55.4815 41.9359 55.5502 42.0203C55.4699 41.9479 55.4374 41.9238 55.2608 41.8474Z" fill="black"/>
<path fill-rule="evenodd" clip-rule="evenodd" d="M55.1848 43.0696C55.3493 43.0455 55.4938 42.9571 55.5902 42.8284C55.5059 42.9571 55.3694 43.0495 55.1848 43.0696Z" fill="black"/>
<path fill-rule="evenodd" clip-rule="evenodd" d="M55.1804 41.8313C55.2049 41.8313 55.2286 41.8354 55.2491 41.8434C55.2246 41.8398 55.2049 41.8354 55.1804 41.8313Z" fill="black"/>
<path fill-rule="evenodd" clip-rule="evenodd" d="M54.6066 42.8286C54.4621 42.6071 54.4621 42.2895 54.6066 42.0724C54.6949 41.9602 54.8157 41.8798 54.9558 41.8436C54.9799 41.8396 55.0039 41.8352 55.028 41.8315C55.0521 41.8275 55.0762 41.8275 55.1003 41.8275H55.1123C55.1364 41.8275 55.1565 41.8275 55.1805 41.8315C55.2046 41.8352 55.2247 41.8396 55.2492 41.8436C55.2528 41.8436 55.2568 41.8436 55.2608 41.8476C55.4374 41.924 55.4695 41.9481 55.5502 42.0201C55.5659 42.0362 55.5819 42.0563 55.594 42.0768C55.7425 42.2939 55.7384 42.6115 55.5899 42.8286C55.4936 42.9568 55.3495 43.0457 55.1846 43.0698C55.1565 43.0734 55.1284 43.0734 55.1003 43.0734C55.0722 43.0734 55.0441 43.0734 55.0164 43.0698C54.9919 43.0658 54.9718 43.0614 54.9518 43.0573C54.8113 43.0175 54.6949 42.9371 54.6066 42.8286Z" fill="#FFFFFE"/>
<path fill-rule="evenodd" clip-rule="evenodd" d="M55.028 41.8313C55.0039 41.8354 54.9798 41.8398 54.9557 41.8434C54.9798 41.8354 55.0039 41.8313 55.028 41.8313Z" fill="black"/>
<path fill-rule="evenodd" clip-rule="evenodd" d="M54.952 43.0575C54.972 43.0615 54.9921 43.0659 55.0162 43.0695C54.9921 43.0659 54.972 43.0615 54.952 43.0575Z" fill="black"/>
<path fill-rule="evenodd" clip-rule="evenodd" d="M54.9519 43.0575C54.795 43.0253 54.683 42.9409 54.6068 42.8287C54.6947 42.9369 54.8111 43.0173 54.9519 43.0575Z" fill="black"/>
<path fill-rule="evenodd" clip-rule="evenodd" d="M54.6066 42.0724C54.6829 41.9602 54.7992 41.8714 54.9558 41.8437C54.8157 41.8798 54.6949 41.9602 54.6066 42.0724Z" fill="black"/>
<path fill-rule="evenodd" clip-rule="evenodd" d="M53.4147 41.6586C53.3902 41.7068 53.3705 41.7591 53.3545 41.8154C53.3705 41.7591 53.3946 41.7109 53.4147 41.6586Z" fill="#073B4C"/>
<path fill-rule="evenodd" clip-rule="evenodd" d="M53.3504 41.8235C53.1698 42.4221 53.2862 43.1096 53.6514 43.6166C53.3945 43.2946 53.234 42.8925 53.234 42.4507C53.234 42.2296 53.2781 42.0201 53.3504 41.8235Z" fill="black"/>
<path fill-rule="evenodd" clip-rule="evenodd" d="M48.8793 65.8168C48.8793 66.3354 49.2968 66.7535 49.8145 66.7535H59.3188V67.9998H49.8145C48.1248 68.0195 47.4304 66.3515 47.6347 64.8841C47.6347 64.7836 49.6018 43.6965 49.6058 43.6366L49.6415 43.6406C49.7383 42.937 49.7985 42.3139 49.8422 41.7591L51.0347 41.8636L50.8456 44.0426L50.8179 44.0386L48.8793 64.9122V65.8168Z" fill="#073B4C"/>
<path fill-rule="evenodd" clip-rule="evenodd" d="M73.3947 48.9117C73.6968 49.0656 73.8262 49.4246 73.701 49.7329L73.6778 49.7835L69.1054 58.7729C68.9428 59.0918 68.5528 59.2194 68.2339 59.0565C67.9324 58.902 67.803 58.5436 67.9277 58.2347L67.9514 58.1841L72.5243 49.1948C72.6864 48.8759 73.0764 48.7488 73.3947 48.9117ZM76.1685 54.6641C76.4985 55.6861 75.9412 56.7831 74.9219 57.1157C73.9015 57.4477 72.8059 56.8885 72.4738 55.8664C72.1428 54.8449 72.7011 53.7474 73.7215 53.4153C74.7414 53.0833 75.8375 53.6425 76.1685 54.6641ZM65.3318 52.7364C65.0002 51.7138 65.5586 50.6164 66.5789 50.2843C67.5988 49.9528 68.6944 50.5115 69.0265 51.5341C69.3564 52.5551 68.7986 53.652 67.7793 53.9852C66.7594 54.3172 65.6638 53.758 65.3318 52.7364ZM71.0603 47.1833L68.9701 45.9456L67.4825 47.9239C67.373 48.0694 67.2067 48.1627 67.0252 48.1795L64.564 48.4099L64.5177 50.8415C64.5145 51.027 64.4324 51.2015 64.2914 51.3217L62.418 52.9283L63.8125 54.8775C63.923 55.032 63.9604 55.2265 63.9151 55.411L63.3379 57.7624L65.6391 58.5035C65.8191 58.5615 65.9648 58.6959 66.038 58.8704L66.9626 61.0832L67.7603 60.8265L69.3106 60.3284C69.4869 60.2725 69.6785 60.2936 69.8374 60.3874L71.9286 61.6251L73.4163 59.6469C73.42 59.6421 73.4258 59.6405 73.4289 59.6363C73.5384 59.4982 73.6973 59.4081 73.8731 59.3917L76.3353 59.1614L76.3806 56.7298C76.3848 56.5443 76.4669 56.3693 76.6069 56.2491L78.4802 54.643L77.0857 52.6932C76.9757 52.5393 76.9379 52.3448 76.9831 52.1603L77.5614 49.8094L76.7805 49.5579L75.2597 49.0677C75.1881 49.0445 75.1287 49.0018 75.0702 48.957C75.0545 48.9454 75.0339 48.9412 75.0203 48.928C74.9518 48.8653 74.8971 48.7884 74.8608 48.7009L73.9362 46.488L71.5876 47.2423C71.4113 47.2987 71.2198 47.2771 71.0603 47.1833Z" fill="#FFD166"/>
<path fill-rule="evenodd" clip-rule="evenodd" d="M67.9278 58.235C67.8031 58.5439 67.9326 58.9023 68.2341 59.0567C68.5525 59.2191 68.9429 59.0921 69.105 58.7732L73.678 49.7838L73.7011 49.7327C73.8264 49.4243 73.6969 49.0653 73.3949 48.912C73.076 48.7491 72.6866 48.8756 72.524 49.195L67.9515 58.1838L67.9278 58.235Z" fill="#073B4C"/>
<path fill-rule="evenodd" clip-rule="evenodd" d="M66.9792 51.518C66.6392 51.6286 66.453 51.9945 66.5629 52.3355C66.674 52.6755 67.0387 52.8626 67.3791 52.7519C67.7191 52.6412 67.9054 52.2754 67.7949 51.9344C67.6844 51.5944 67.3191 51.4078 66.9792 51.518Z" fill="#FFFEFD"/>
<path fill-rule="evenodd" clip-rule="evenodd" d="M67.379 52.7518C67.039 52.8625 66.6738 52.6754 66.5628 52.3354C66.4528 51.9943 66.6391 51.6285 66.979 51.5178C67.3195 51.4077 67.6842 51.5943 67.7947 51.9343C67.9052 52.2753 67.7189 52.6411 67.379 52.7518ZM69.0266 51.5336C68.6946 50.5116 67.5989 49.9523 66.5786 50.2844C65.5587 50.6165 64.9999 51.7139 65.3314 52.7365C65.6635 53.7581 66.7591 54.3173 67.7794 53.9852C68.7982 53.6521 69.3566 52.5552 69.0266 51.5336Z" fill="#073B4C"/>
<path fill-rule="evenodd" clip-rule="evenodd" d="M73.7056 55.4661C73.8161 55.8066 74.1813 55.9927 74.5213 55.8825C74.8612 55.7713 75.0475 55.406 74.9375 55.065C74.8265 54.725 74.4618 54.5384 74.1213 54.6486C73.7814 54.7593 73.5951 55.1256 73.7056 55.4661Z" fill="#FFFEFD"/>
<path fill-rule="evenodd" clip-rule="evenodd" d="M74.1213 54.6487C74.4613 54.5385 74.8265 54.7251 74.9375 55.0651C75.0475 55.4061 74.8612 55.7714 74.5213 55.8826C74.1813 55.9928 73.8161 55.8062 73.7056 55.4662C73.5951 55.1252 73.7814 54.7594 74.1213 54.6487ZM72.4737 55.8668C72.8058 56.8884 73.9014 57.4482 74.9217 57.1161C75.9411 56.7829 76.4989 55.686 76.1689 54.664C75.8374 53.6424 74.7413 53.0831 73.7214 53.4152C72.701 53.7473 72.1427 54.8448 72.4737 55.8668Z" fill="#073B4C"/>
<mask id="mask1_1429_14508" style="mask-type:luminance" maskUnits="userSpaceOnUse" x="60" y="44" width="20" height="20">
<path fill-rule="evenodd" clip-rule="evenodd" d="M60.9009 44.4441H80V63.1269H60.9009V44.4441Z" fill="white"/>
</mask>
<g mask="url(#mask1_1429_14508)">
<path fill-rule="evenodd" clip-rule="evenodd" d="M66.9627 61.0832L66.0376 58.8704C65.965 58.6959 65.8187 58.5615 65.6387 58.5035L63.3375 57.7624L63.9153 55.4109C63.9606 55.227 63.9232 55.0325 63.8127 54.878L62.4176 52.9282L64.2916 51.3216C64.4321 51.2014 64.5147 51.027 64.5178 50.8414L64.5636 48.4098L67.0253 48.18C67.2069 48.1626 67.3727 48.0699 67.4821 47.9238L68.9698 45.9456L71.0605 47.1833C71.22 47.2776 71.4115 47.2992 71.5878 47.2423L73.9364 46.4885L74.861 48.7008C74.8973 48.7883 74.952 48.8653 75.0204 48.928C75.0341 48.9412 75.0546 48.9459 75.0699 48.957C75.1288 49.0018 75.1883 49.0445 75.2599 49.0677L76.7802 49.5579L77.5616 49.8093L76.9833 52.1602C76.938 52.3447 76.9754 52.5392 77.0854 52.6931L78.4804 54.6429L76.607 56.249C76.467 56.3698 76.3844 56.5448 76.3802 56.7298L76.3355 59.1613L73.8732 59.3917C73.6975 59.408 73.5386 59.4982 73.4291 59.6363C73.4254 59.6405 73.4201 59.6426 73.4165 59.6468L71.9288 61.625L69.8375 60.3879C69.6786 60.2936 69.4871 60.2725 69.3108 60.3284L67.7605 60.827L66.9627 61.0832ZM79.8791 54.3709L78.3115 52.1803L78.963 49.5315C79.0435 49.201 78.8561 48.8637 78.5325 48.7598L75.9403 47.9244L74.9015 45.438C74.772 45.1275 74.4268 44.9689 74.1064 45.0711L71.4694 45.9177L69.1303 44.534C68.8466 44.3664 68.4825 44.4386 68.2841 44.7027L66.6207 46.9144L63.8669 47.1717C63.539 47.2028 63.2865 47.4758 63.2801 47.8058L63.2286 50.5262L62.0893 51.5024C62.003 51.5936 62.0893 51.5024 61.8056 51.7507C61.7825 51.777 61.7556 51.7992 61.7325 51.8245C61.4767 52.0659 61.3031 52.2198 61.0394 52.4275C60.8647 52.6526 60.8516 52.9657 61.0194 53.2002L62.5866 55.3904L61.9356 58.0396C61.8546 58.3701 62.0424 58.707 62.3661 58.8113L63.4601 59.164C63.6432 59.2051 63.8216 59.2604 63.9937 59.3363L64.9583 59.6468L65.4993 60.9403C65.565 61.0563 65.6203 61.1791 65.6698 61.3035C65.8766 61.7352 66.0523 62.1796 66.2071 62.6318C66.6886 62.5106 67.1643 62.3741 67.6326 62.2017C67.7647 62.1527 69.2971 61.6735 69.4292 61.653L71.7688 63.0367C72.0525 63.2043 72.4166 63.1326 72.6145 62.869L74.2784 60.6562L74.5047 60.6351L75.8256 60.5118L77.0312 60.399C77.3595 60.3689 77.6121 60.0959 77.6184 59.7659L77.6416 58.581L77.6705 57.045L79.7744 55.2412C80.0291 55.0225 80.0744 54.644 79.8791 54.3709Z" fill="#073B4C"/>
</g>
</svg>
