<svg width="80" height="80" viewBox="0 0 80 80" fill="none" xmlns="http://www.w3.org/2000/svg">
<mask id="mask0_2024_29848" style="mask-type:luminance" maskUnits="userSpaceOnUse" x="0" y="1" width="80" height="78">
<ellipse cx="40" cy="40" rx="40" ry="39" fill="white"/>
</mask>
<g mask="url(#mask0_2024_29848)">
<rect x="0.0280316" y="1.10033" width="7.71674" height="18.0431" rx="3.85837" transform="matrix(0.733536 0.679651 -0.697977 0.71612 62.9582 14.3853)" fill="white" stroke="#1E243D" stroke-width="1.57666"/>
<rect width="8.1727" height="18.5409" rx="4.08635" transform="matrix(0.733536 0.679651 -0.697977 0.71612 61.4297 14.8646)" fill="#FFE5AA"/>
<rect x="0.0280316" y="1.10033" width="7.71674" height="18.0431" rx="3.85837" transform="matrix(0.733536 0.679651 -0.697977 0.71612 62.9582 14.3853)" stroke="#39405D" stroke-width="1.57666"/>
<path d="M26.4157 18.7431C26.4157 17.8724 27.1216 17.1665 27.9924 17.1665H56.3722C57.243 17.1665 57.9489 17.8724 57.9489 18.7431V64.7421C57.9489 66.4836 56.5371 67.8954 54.7955 67.8954H27.9924C27.1216 67.8954 26.4157 67.1895 26.4157 66.3187V18.7431Z" fill="#D3CCFE"/>
<rect x="27.2041" y="16.4176" width="29.9565" height="50.6895" rx="2.36498" stroke="#39405D" stroke-width="1.57666"/>
<rect x="29.9632" y="23.7096" width="24.4382" height="37.6427" rx="1.18249" fill="white" stroke="#1E243D" stroke-width="0.788328"/>
<rect x="0.0260005" y="1.10037" width="7.92689" height="10.476" rx="3.94164" transform="matrix(0.732281 0.681002 -0.6993 0.714829 60.8467 51.2818)" fill="white" stroke="#1E243D" stroke-width="1.57666"/>
<rect width="7.37061" height="9.94342" rx="3.6853" transform="matrix(0.732281 0.681002 -0.6993 0.714829 60.172 52.523)" fill="#FFE5AA"/>
<rect x="0.0260005" y="1.10037" width="7.92689" height="10.476" rx="3.94164" transform="matrix(0.732281 0.681002 -0.6993 0.714829 60.8467 51.2818)" stroke="#39405D" stroke-width="1.57666"/>
<rect x="0.0260005" y="1.10037" width="7.92689" height="10.476" rx="3.94164" transform="matrix(0.732281 0.681002 -0.6993 0.714829 60.8467 41.3709)" fill="white" stroke="#1E243D" stroke-width="1.57666"/>
<rect x="0.0260005" y="1.10037" width="6.82097" height="9.07342" rx="3.41048" transform="matrix(0.732281 0.681002 -0.6993 0.714829 59.866 32.835)" fill="white" stroke="#1E243D" stroke-width="1.57666"/>
<path d="M37.4522 20.241H46.9121" stroke="#1E243D" stroke-width="0.788328" stroke-linecap="round"/>
<path d="M40.6055 63.2836H43.7588" stroke="#1E243D" stroke-width="0.788328" stroke-linecap="round"/>
<rect x="29.5691" y="23.3155" width="25.2265" height="38.431" rx="1.57666" fill="#E7E3FF"/>
<rect x="29.9632" y="23.7096" width="24.4382" height="37.6427" rx="1.18249" stroke="#39405D" stroke-width="0.788328"/>
<path d="M20.4462 68.0197L15.0671 77.9263C14.4966 78.9769 15.2572 80.2553 16.4526 80.2553H37.2773C37.8687 80.2553 38.4103 79.9243 38.6802 79.3981L41.0007 74.8732C41.2457 74.3953 41.7191 74.0782 42.2519 74.0107C48.8195 73.1784 50.9523 70.4998 51.4889 67.9155C51.666 67.0629 50.9363 66.3494 50.0655 66.3494H37.4523C36.5815 66.3494 35.8819 65.6422 35.7823 64.7772C35.087 58.7388 30.6586 52.0725 27.7146 49.1532C27.3959 48.8372 27.204 48.4145 27.204 47.9657V34.0673C27.204 27.9184 19.3207 27.9184 19.3207 34.1381V43.0423C19.3207 43.253 19.2771 43.4634 19.1974 43.6585C15.2612 53.2981 18.1049 62.3251 20.4063 66.3833C20.6934 66.8896 20.7239 67.5082 20.4462 68.0197Z" fill="white" stroke="#1E243D" stroke-width="1.57666"/>
<path d="M20.4304 67.9869L15.0671 77.8643C14.4966 78.9149 15.2572 80.1933 16.4526 80.1933H37.2773C37.8687 80.1933 38.4103 79.8624 38.6802 79.3361L40.9934 74.8253C41.2424 74.3398 41.7256 74.0209 42.2679 73.9604C49.227 73.1834 51.0578 70.281 51.5063 67.9266C51.6693 67.0712 50.9363 66.3582 50.0655 66.3582H37.8601C37.1529 66.3582 36.5343 65.8848 36.3272 65.2086C34.0098 57.6455 30.4366 52.622 27.4794 48.3132C27.2997 48.0514 27.204 47.7414 27.204 47.4238V35.6134C27.204 27.3465 19.3207 28.4054 19.3207 32.5389V42.1918C19.3207 42.4153 19.2713 42.639 19.1817 42.8438C14.6381 53.2265 17.7366 62.0788 20.359 66.3106C20.6747 66.8202 20.7164 67.4601 20.4304 67.9869Z" fill="#FFECAB"/>
<path d="M20.4462 68.0197L15.0671 77.9263C14.4966 78.9769 15.2572 80.2553 16.4526 80.2553H37.2773C37.8687 80.2553 38.4103 79.9243 38.6802 79.3981L41.0007 74.8732C41.2457 74.3953 41.7191 74.0782 42.2519 74.0107C48.8195 73.1784 50.9523 70.4998 51.4889 67.9155C51.666 67.0629 50.9363 66.3494 50.0655 66.3494H37.4523C36.5815 66.3494 35.8819 65.6422 35.7823 64.7772C35.087 58.7388 30.6586 52.0725 27.7146 49.1532C27.3959 48.8372 27.204 48.4145 27.204 47.9657V34.0673C27.204 27.9184 19.3207 27.9184 19.3207 34.1381V43.0423C19.3207 43.253 19.2771 43.4634 19.1974 43.6585C15.2612 53.2981 18.1049 62.3251 20.4063 66.3833C20.6934 66.8896 20.7239 67.5082 20.4462 68.0197Z" stroke="#39405D" stroke-width="1.57666"/>
<rect width="6.69078" height="9.94342" rx="3.34539" transform="matrix(0.732281 0.681002 -0.6993 0.714829 60.172 43.2996)" fill="#FFE5AA"/>
<rect width="7.23294" height="7.99473" rx="3.61647" transform="matrix(0.732281 0.681002 -0.6993 0.714829 58.5955 34.0761)" fill="#FFE5AA"/>
<rect x="0.0260005" y="1.10037" width="7.92689" height="10.476" rx="3.94164" transform="matrix(0.732281 0.681002 -0.6993 0.714829 60.8467 41.3709)" stroke="#39405D" stroke-width="1.57666"/>
<rect x="0.0260005" y="1.10037" width="6.82097" height="9.07342" rx="3.41048" transform="matrix(0.732281 0.681002 -0.6993 0.714829 59.866 32.835)" stroke="#39405D" stroke-width="1.57666"/>
<path d="M42.6456 46.617C41.7626 46.617 40.9428 46.453 40.186 46.125C39.4292 45.7845 38.7859 45.3241 38.2561 44.7439C37.7264 44.1637 37.3354 43.4952 37.0831 42.7384L38.9751 41.9438C39.3157 42.8141 39.8139 43.4826 40.4698 43.9493C41.1257 44.4159 41.8824 44.6493 42.7401 44.6493C43.2447 44.6493 43.6861 44.5736 44.0645 44.4223C44.4429 44.2583 44.733 44.0312 44.9349 43.7411C45.1493 43.451 45.2565 43.1168 45.2565 42.7384C45.2565 42.2212 45.1114 41.8113 44.8213 41.5086C44.5312 41.2059 44.1024 40.9662 43.5348 40.7896L40.886 39.9572C39.8265 39.6292 39.0192 39.131 38.4643 38.4625C37.9093 37.7814 37.6318 36.9867 37.6318 36.0786C37.6318 35.284 37.8273 34.5902 38.2183 33.9974C38.6093 33.392 39.1454 32.919 39.8265 32.5784C40.5202 32.2379 41.3085 32.0676 42.1915 32.0676C43.0366 32.0676 43.806 32.2189 44.4997 32.5217C45.1934 32.8118 45.7862 33.2154 46.2782 33.7325C46.7827 34.2497 47.1485 34.8488 47.3755 35.5299L45.5214 36.3435C45.2439 35.5993 44.8087 35.0254 44.2159 34.6218C43.6357 34.2181 42.9609 34.0163 42.1915 34.0163C41.7248 34.0163 41.3149 34.0983 40.9617 34.2623C40.6085 34.4136 40.331 34.6407 40.1292 34.9434C39.94 35.2335 39.8454 35.5741 39.8454 35.9651C39.8454 36.4191 39.9905 36.8228 40.2806 37.1759C40.5707 37.5291 41.0121 37.794 41.605 37.9706L44.0645 38.7463C45.1871 39.0869 46.0322 39.5788 46.5998 40.222C47.1674 40.8527 47.4512 41.641 47.4512 42.587C47.4512 43.369 47.2431 44.0628 46.8268 44.6682C46.4232 45.2737 45.8619 45.753 45.143 46.1061C44.424 46.4467 43.5915 46.617 42.6456 46.617ZM41.7752 48.2819V30.4026H43.2888V48.2819H41.7752Z" fill="#39405D"/>
</g>
<path fill-rule="evenodd" clip-rule="evenodd" d="M22.8825 16.043C22.8825 14.735 21.7896 13.675 20.4412 13.675C19.0929 13.675 18 14.735 18 16.0428C18 17.3505 19.093 18.4107 20.4412 18.4107C21.7891 18.4097 22.8814 17.3502 22.8825 16.043ZM18.3756 16.0428C18.3756 14.9363 19.3004 14.0393 20.4411 14.0393C21.5816 14.0401 22.5059 14.9367 22.5069 16.043C22.5069 17.1493 21.582 18.0464 20.4412 18.0464C19.3004 18.0464 18.3756 17.1493 18.3756 16.0428Z" fill="#39405D"/>
<path fill-rule="evenodd" clip-rule="evenodd" d="M11.7389 24.9326C12.1747 24.9326 12.5332 25.275 12.5717 25.7124L12.5752 25.7905V27.8599C12.5752 28.334 12.2003 28.7179 11.7389 28.7179C11.3031 28.7179 10.9445 28.3754 10.906 27.938L10.9026 27.8599V25.7905C10.9026 25.3164 11.2774 24.9326 11.7389 24.9326ZM15.594 23.3103C16.0816 23.3103 16.4777 23.6732 16.4777 24.1214C16.4777 24.5447 16.1244 24.892 15.6744 24.9292L15.594 24.9326H13.4588C12.9712 24.9326 12.5751 24.5696 12.5751 24.1214C12.5751 23.6981 12.9284 23.3509 13.3785 23.3136L13.4588 23.3103H15.594ZM10.0189 23.3103C10.5065 23.3103 10.9026 23.6732 10.9026 24.1214C10.9026 24.5447 10.5493 24.892 10.0993 24.9292L10.0189 24.9326H7.88371C7.39609 24.9326 7 24.5696 7 24.1214C7 23.6981 7.3533 23.3509 7.80334 23.3136L7.88371 23.3103H10.0189ZM11.7389 19.525C12.1747 19.525 12.5332 19.8674 12.5717 20.3048L12.5752 20.383V22.4523C12.5752 22.9264 12.2003 23.3103 11.7389 23.3103C11.3031 23.3103 10.9445 22.9679 10.906 22.5305L10.9026 22.4523V20.383C10.9026 19.9089 11.2774 19.525 11.7389 19.525Z" fill="#39405D"/>
<path fill-rule="evenodd" clip-rule="evenodd" d="M67.7284 32.3884C67.9794 32.3884 68.1858 32.5856 68.208 32.8374L68.2099 32.8824V34.0739C68.2099 34.3468 67.9941 34.5679 67.7284 34.5679C67.4775 34.5679 67.2711 34.3707 67.2489 34.1189L67.2469 34.0739V32.8824C67.2469 32.6095 67.4628 32.3884 67.7284 32.3884ZM69.9481 31.4544C70.2289 31.4544 70.4569 31.6634 70.4569 31.9214C70.4569 32.1651 70.2535 32.3651 69.9944 32.3865L69.9481 32.3884H68.7188C68.438 32.3884 68.21 32.1795 68.21 31.9214C68.21 31.6777 68.4134 31.4778 68.6725 31.4563L68.7188 31.4544H69.9481ZM66.7381 31.4544C67.0189 31.4544 67.2469 31.6634 67.2469 31.9214C67.2469 32.1651 67.0435 32.3651 66.7844 32.3865L66.7381 32.3884H65.5088C65.2281 32.3884 65 32.1795 65 31.9214C65 31.6777 65.2034 31.4778 65.4625 31.4563L65.5088 31.4544H66.7381ZM67.7284 29.275C67.9794 29.275 68.1858 29.4721 68.208 29.724L68.2099 29.769V30.9604C68.2099 31.2334 67.9941 31.4544 67.7284 31.4544C67.4775 31.4544 67.2711 31.2573 67.2489 31.0054L67.2469 30.9604V29.769C67.2469 29.496 67.4628 29.275 67.7284 29.275Z" fill="#39405D"/>
<path fill-rule="evenodd" clip-rule="evenodd" d="M16.7284 7.03843C16.9794 7.03843 17.1858 7.23558 17.208 7.48743L17.2099 7.53241V8.72387C17.2099 8.99682 16.9941 9.21785 16.7284 9.21785C16.4775 9.21785 16.2711 9.0207 16.2489 8.76885L16.2469 8.72387V7.53241C16.2469 7.25946 16.4628 7.03843 16.7284 7.03843ZM18.9481 6.1044C19.2289 6.1044 19.4569 6.31336 19.4569 6.57142C19.4569 6.81514 19.2535 7.01507 18.9944 7.03653L18.9481 7.03843H17.7188C17.438 7.03843 17.21 6.82948 17.21 6.57142C17.21 6.3277 17.4134 6.12777 17.6725 6.10631L17.7188 6.1044H18.9481ZM15.7381 6.1044C16.0189 6.1044 16.2469 6.31336 16.2469 6.57142C16.2469 6.81514 16.0435 7.01507 15.7844 7.03653L15.7381 7.03843H14.5088C14.2281 7.03843 14 6.82948 14 6.57142C14 6.3277 14.2034 6.12777 14.4625 6.10631L14.5088 6.1044H15.7381ZM16.7284 3.92499C16.9794 3.92499 17.1858 4.12213 17.208 4.37398L17.2099 4.41897V5.61042C17.2099 5.88338 16.9941 6.1044 16.7284 6.1044C16.4775 6.1044 16.2711 5.90725 16.2489 5.6554L16.2469 5.61042V4.41897C16.2469 4.14601 16.4628 3.92499 16.7284 3.92499Z" fill="#39405D"/>
<path fill-rule="evenodd" clip-rule="evenodd" d="M30.2906 11.5233C30.4235 11.6526 30.4408 11.8484 30.3351 11.9741L30.3152 11.9955L29.7596 12.5361C29.6323 12.6599 29.415 12.6491 29.2744 12.5122C29.1415 12.383 29.1242 12.1872 29.2299 12.0615L29.2498 12.0401L29.8054 11.4995C29.9327 11.3756 30.15 11.3865 30.2906 11.5233ZM31.8423 12.0443C31.9697 12.1682 31.9595 12.3795 31.8191 12.5161C31.6865 12.6452 31.4854 12.6612 31.3562 12.5582L31.3342 12.5387L30.7764 11.996C30.649 11.872 30.6592 11.6607 30.7996 11.5241C30.9322 11.3951 31.1332 11.3791 31.2625 11.4821L31.2845 11.5015L31.8423 12.0443ZM30.313 10.5563C30.4404 10.6802 30.4302 10.8915 30.2898 11.0281C30.1572 11.1571 29.9562 11.1732 29.8269 11.0701L29.8049 11.0507L29.2471 10.5079C29.1197 10.384 29.1299 10.1727 29.2703 10.0361C29.4029 9.90707 29.6039 9.89105 29.7332 9.99409L29.7552 10.0135L30.313 10.5563ZM31.8151 10.04C31.9479 10.1693 31.9652 10.3651 31.8595 10.4907L31.8396 10.5122L31.284 11.0528C31.1567 11.1766 30.9394 11.1657 30.7988 11.0289C30.6659 10.8997 30.6486 10.7039 30.7543 10.5782L30.7742 10.5568L31.3298 10.0162C31.4571 9.8923 31.6744 9.90318 31.8151 10.04Z" fill="#39405D"/>
</svg>
