<svg width="80" height="80" viewBox="0 0 80 80" fill="none" xmlns="http://www.w3.org/2000/svg">
<mask id="mask0_6258_66713" style="mask-type:alpha" maskUnits="userSpaceOnUse" x="0" y="1" width="80" height="78">
<ellipse cx="40" cy="40" rx="40" ry="39" fill="#5A50F9"/>
</mask>
<g mask="url(#mask0_6258_66713)">
<rect x="0.0280316" y="1.10033" width="7.71674" height="18.0431" rx="3.85837" transform="matrix(0.733536 0.679651 -0.697977 0.71612 62.9582 14.3853)" fill="white" stroke="#1E243D" stroke-width="1.57666"/>
<rect width="8.1727" height="18.5409" rx="4.08635" transform="matrix(0.733536 0.679651 -0.697977 0.71612 61.4297 14.8646)" fill="#FFE5AA"/>
<rect x="0.0280316" y="1.10033" width="7.71674" height="18.0431" rx="3.85837" transform="matrix(0.733536 0.679651 -0.697977 0.71612 62.9582 14.3853)" stroke="#39405D" stroke-width="1.57666"/>
<path d="M26.4157 18.7431C26.4157 17.8724 27.1216 17.1665 27.9924 17.1665H56.3722C57.243 17.1665 57.9489 17.8724 57.9489 18.7431V64.7421C57.9489 66.4836 56.5371 67.8954 54.7955 67.8954H27.9924C27.1216 67.8954 26.4157 67.1895 26.4157 66.3187V18.7431Z" fill="#D3CCFE"/>
<rect x="27.2041" y="16.4176" width="29.9565" height="50.6895" rx="2.36498" stroke="#39405D" stroke-width="1.57666"/>
<rect x="29.9632" y="23.7096" width="24.4382" height="37.6427" rx="1.18249" fill="white" stroke="#1E243D" stroke-width="0.788328"/>
<rect x="0.0260005" y="1.10037" width="7.92689" height="10.476" rx="3.94164" transform="matrix(0.732281 0.681002 -0.6993 0.714829 60.8467 51.2818)" fill="white" stroke="#1E243D" stroke-width="1.57666"/>
<rect width="7.37061" height="9.94342" rx="3.6853" transform="matrix(0.732281 0.681002 -0.6993 0.714829 60.172 52.523)" fill="#FFE5AA"/>
<rect x="0.0260005" y="1.10037" width="7.92689" height="10.476" rx="3.94164" transform="matrix(0.732281 0.681002 -0.6993 0.714829 60.8467 51.2818)" stroke="#39405D" stroke-width="1.57666"/>
<rect x="0.0260005" y="1.10037" width="7.92689" height="10.476" rx="3.94164" transform="matrix(0.732281 0.681002 -0.6993 0.714829 60.8467 41.3709)" fill="white" stroke="#1E243D" stroke-width="1.57666"/>
<rect x="0.0260005" y="1.10037" width="6.82097" height="9.07342" rx="3.41048" transform="matrix(0.732281 0.681002 -0.6993 0.714829 59.866 32.835)" fill="white" stroke="#1E243D" stroke-width="1.57666"/>
<path d="M37.4522 20.241H46.9121" stroke="#1E243D" stroke-width="0.788328" stroke-linecap="round"/>
<path d="M40.6055 63.2836H43.7588" stroke="#1E243D" stroke-width="0.788328" stroke-linecap="round"/>
<rect x="29.5691" y="23.3155" width="25.2265" height="38.431" rx="1.57666" fill="#E7E3FF"/>
<rect x="29.9632" y="23.7096" width="24.4382" height="37.6427" rx="1.18249" stroke="#39405D" stroke-width="0.788328"/>
<path d="M20.4462 68.0197L15.0671 77.9263C14.4966 78.9769 15.2572 80.2553 16.4526 80.2553H37.2773C37.8687 80.2553 38.4103 79.9243 38.6802 79.3981L41.0007 74.8732C41.2457 74.3953 41.7191 74.0782 42.2519 74.0107C48.8195 73.1784 50.9523 70.4998 51.4889 67.9155C51.666 67.0629 50.9363 66.3494 50.0655 66.3494H37.4523C36.5815 66.3494 35.8819 65.6422 35.7823 64.7772C35.087 58.7388 30.6586 52.0725 27.7146 49.1532C27.3959 48.8372 27.204 48.4145 27.204 47.9657V34.0673C27.204 27.9184 19.3207 27.9184 19.3207 34.1381V43.0423C19.3207 43.253 19.2771 43.4634 19.1974 43.6585C15.2612 53.2981 18.1049 62.3251 20.4063 66.3833C20.6934 66.8896 20.7239 67.5082 20.4462 68.0197Z" fill="white" stroke="#1E243D" stroke-width="1.57666"/>
<path d="M20.4304 67.9869L15.0671 77.8643C14.4966 78.9149 15.2572 80.1933 16.4526 80.1933H37.2773C37.8687 80.1933 38.4103 79.8624 38.6802 79.3361L40.9934 74.8253C41.2424 74.3398 41.7256 74.0209 42.2679 73.9604C49.227 73.1834 51.0578 70.281 51.5063 67.9266C51.6693 67.0712 50.9363 66.3582 50.0655 66.3582H37.8601C37.1529 66.3582 36.5343 65.8848 36.3272 65.2086C34.0098 57.6455 30.4366 52.622 27.4794 48.3132C27.2997 48.0514 27.204 47.7414 27.204 47.4238V35.6134C27.204 27.3465 19.3207 28.4054 19.3207 32.5389V42.1918C19.3207 42.4153 19.2713 42.639 19.1817 42.8438C14.6381 53.2265 17.7366 62.0788 20.359 66.3106C20.6747 66.8202 20.7164 67.4601 20.4304 67.9869Z" fill="#FFECAB"/>
<path d="M20.4462 68.0197L15.0671 77.9263C14.4966 78.9769 15.2572 80.2553 16.4526 80.2553H37.2773C37.8687 80.2553 38.4103 79.9243 38.6802 79.3981L41.0007 74.8732C41.2457 74.3953 41.7191 74.0782 42.2519 74.0107C48.8195 73.1784 50.9523 70.4998 51.4889 67.9155C51.666 67.0629 50.9363 66.3494 50.0655 66.3494H37.4523C36.5815 66.3494 35.8819 65.6422 35.7823 64.7772C35.087 58.7388 30.6586 52.0725 27.7146 49.1532C27.3959 48.8372 27.204 48.4145 27.204 47.9657V34.0673C27.204 27.9184 19.3207 27.9184 19.3207 34.1381V43.0423C19.3207 43.253 19.2771 43.4634 19.1974 43.6585C15.2612 53.2981 18.1049 62.3251 20.4063 66.3833C20.6934 66.8896 20.7239 67.5082 20.4462 68.0197Z" stroke="#39405D" stroke-width="1.57666"/>
<rect width="6.69078" height="9.94342" rx="3.34539" transform="matrix(0.732281 0.681002 -0.6993 0.714829 60.172 43.2996)" fill="#FFE5AA"/>
<rect width="7.23294" height="7.99473" rx="3.61647" transform="matrix(0.732281 0.681002 -0.6993 0.714829 58.5955 34.0761)" fill="#FFE5AA"/>
<rect x="0.0260005" y="1.10037" width="7.92689" height="10.476" rx="3.94164" transform="matrix(0.732281 0.681002 -0.6993 0.714829 60.8467 41.3709)" stroke="#39405D" stroke-width="1.57666"/>
<rect x="0.0260005" y="1.10037" width="6.82097" height="9.07342" rx="3.41048" transform="matrix(0.732281 0.681002 -0.6993 0.714829 59.866 32.835)" stroke="#39405D" stroke-width="1.57666"/>
<path d="M37.8324 44.5579C37.0857 44.5579 36.3951 44.4226 35.7604 44.1519C35.1257 43.8813 34.5704 43.5033 34.0944 43.0179C33.6184 42.5326 33.2451 41.9633 32.9744 41.3099C32.7131 40.6566 32.5824 39.9426 32.5824 39.1679C32.5824 38.3933 32.7084 37.6793 32.9604 37.0259C33.2217 36.3633 33.5857 35.7939 34.0524 35.3179C34.5284 34.8326 35.0837 34.4593 35.7184 34.1979C36.3531 33.9273 37.0437 33.7919 37.7904 33.7919C38.5371 33.7919 39.2044 33.9179 39.7924 34.1699C40.3897 34.4219 40.8937 34.7579 41.3044 35.1779C41.7151 35.5886 42.0091 36.0413 42.1864 36.5359L40.4924 37.3479C40.2964 36.8066 39.9651 36.3679 39.4984 36.0319C39.0317 35.6959 38.4624 35.5279 37.7904 35.5279C37.1371 35.5279 36.5584 35.6819 36.0544 35.9899C35.5597 36.2979 35.1724 36.7226 34.8924 37.2639C34.6217 37.8053 34.4864 38.4399 34.4864 39.1679C34.4864 39.8959 34.6264 40.5353 34.9064 41.0859C35.1957 41.6273 35.5924 42.0519 36.0964 42.3599C36.6004 42.6679 37.1791 42.8219 37.8324 42.8219C38.3644 42.8219 38.8544 42.7193 39.3024 42.5139C39.7504 42.2993 40.1097 42.0006 40.3804 41.6179C40.6511 41.2259 40.7864 40.7639 40.7864 40.2319V39.4339L41.6544 40.1899H37.7904V38.5799H42.6904V39.6299C42.6904 40.4326 42.5551 41.1419 42.2844 41.7579C42.0137 42.3739 41.6451 42.8919 41.1784 43.3119C40.7211 43.7226 40.2031 44.0353 39.6244 44.2499C39.0457 44.4553 38.4484 44.5579 37.8324 44.5579ZM44.197 44.3899V33.9599H48.593C49.2837 33.9599 49.8717 34.0813 50.357 34.3239C50.8517 34.5573 51.2297 34.8933 51.491 35.3319C51.7617 35.7613 51.897 36.2839 51.897 36.8999C51.897 37.3759 51.7664 37.8239 51.505 38.2439C51.253 38.6546 50.847 38.9953 50.287 39.2659V38.3839C50.8004 38.5799 51.2064 38.8226 51.505 39.1119C51.8037 39.4013 52.0137 39.7233 52.135 40.0779C52.2564 40.4326 52.317 40.8059 52.317 41.1979C52.317 42.1966 51.9857 42.9806 51.323 43.5499C50.6697 44.1099 49.7597 44.3899 48.593 44.3899H44.197ZM46.101 42.7099H48.789C49.2837 42.7099 49.6757 42.5746 49.965 42.3039C50.2637 42.0239 50.413 41.6553 50.413 41.1979C50.413 40.7406 50.2637 40.3719 49.965 40.0919C49.6757 39.8119 49.2837 39.6719 48.789 39.6719H46.101V42.7099ZM46.101 38.0059H48.691C49.083 38.0059 49.3957 37.8939 49.629 37.6699C49.8624 37.4366 49.979 37.1379 49.979 36.7739C49.979 36.4099 49.8624 36.1206 49.629 35.9059C49.3957 35.6913 49.083 35.5839 48.691 35.5839H46.101V38.0059Z" fill="#39405D"/>
</g>
<path fill-rule="evenodd" clip-rule="evenodd" d="M22.8825 16.043C22.8825 14.735 21.7896 13.675 20.4412 13.675C19.0929 13.675 18 14.735 18 16.0428C18 17.3505 19.093 18.4107 20.4412 18.4107C21.7891 18.4097 22.8814 17.3502 22.8825 16.043ZM18.3756 16.0428C18.3756 14.9363 19.3004 14.0393 20.4411 14.0393C21.5816 14.0401 22.5059 14.9367 22.5069 16.043C22.5069 17.1493 21.582 18.0464 20.4412 18.0464C19.3004 18.0464 18.3756 17.1493 18.3756 16.0428Z" fill="#39405D"/>
<path fill-rule="evenodd" clip-rule="evenodd" d="M11.7389 24.9326C12.1747 24.9326 12.5332 25.275 12.5717 25.7124L12.5752 25.7905V27.8599C12.5752 28.334 12.2003 28.7179 11.7389 28.7179C11.3031 28.7179 10.9445 28.3754 10.906 27.938L10.9026 27.8599V25.7905C10.9026 25.3164 11.2774 24.9326 11.7389 24.9326ZM15.594 23.3103C16.0816 23.3103 16.4777 23.6732 16.4777 24.1214C16.4777 24.5447 16.1244 24.892 15.6744 24.9292L15.594 24.9326H13.4588C12.9712 24.9326 12.5751 24.5696 12.5751 24.1214C12.5751 23.6981 12.9284 23.3509 13.3785 23.3136L13.4588 23.3103H15.594ZM10.0189 23.3103C10.5065 23.3103 10.9026 23.6732 10.9026 24.1214C10.9026 24.5447 10.5493 24.892 10.0993 24.9292L10.0189 24.9326H7.88371C7.39609 24.9326 7 24.5696 7 24.1214C7 23.6981 7.3533 23.3509 7.80334 23.3136L7.88371 23.3103H10.0189ZM11.7389 19.525C12.1747 19.525 12.5332 19.8674 12.5717 20.3048L12.5752 20.383V22.4523C12.5752 22.9264 12.2003 23.3103 11.7389 23.3103C11.3031 23.3103 10.9445 22.9679 10.906 22.5305L10.9026 22.4523V20.383C10.9026 19.9089 11.2774 19.525 11.7389 19.525Z" fill="#39405D"/>
<path fill-rule="evenodd" clip-rule="evenodd" d="M67.7284 32.3884C67.9794 32.3884 68.1858 32.5856 68.208 32.8374L68.2099 32.8824V34.0739C68.2099 34.3468 67.9941 34.5679 67.7284 34.5679C67.4775 34.5679 67.2711 34.3707 67.2489 34.1189L67.2469 34.0739V32.8824C67.2469 32.6095 67.4628 32.3884 67.7284 32.3884ZM69.9481 31.4544C70.2289 31.4544 70.4569 31.6634 70.4569 31.9214C70.4569 32.1651 70.2535 32.3651 69.9944 32.3865L69.9481 32.3884H68.7188C68.438 32.3884 68.21 32.1795 68.21 31.9214C68.21 31.6777 68.4134 31.4778 68.6725 31.4563L68.7188 31.4544H69.9481ZM66.7381 31.4544C67.0189 31.4544 67.2469 31.6634 67.2469 31.9214C67.2469 32.1651 67.0435 32.3651 66.7844 32.3865L66.7381 32.3884H65.5088C65.2281 32.3884 65 32.1795 65 31.9214C65 31.6777 65.2034 31.4778 65.4625 31.4563L65.5088 31.4544H66.7381ZM67.7284 29.275C67.9794 29.275 68.1858 29.4721 68.208 29.724L68.2099 29.769V30.9604C68.2099 31.2334 67.9941 31.4544 67.7284 31.4544C67.4775 31.4544 67.2711 31.2573 67.2489 31.0054L67.2469 30.9604V29.769C67.2469 29.496 67.4628 29.275 67.7284 29.275Z" fill="#39405D"/>
<path fill-rule="evenodd" clip-rule="evenodd" d="M16.7284 7.03843C16.9794 7.03843 17.1858 7.23558 17.208 7.48743L17.2099 7.53241V8.72387C17.2099 8.99682 16.9941 9.21785 16.7284 9.21785C16.4775 9.21785 16.2711 9.0207 16.2489 8.76885L16.2469 8.72387V7.53241C16.2469 7.25946 16.4628 7.03843 16.7284 7.03843ZM18.9481 6.1044C19.2289 6.1044 19.4569 6.31336 19.4569 6.57142C19.4569 6.81514 19.2535 7.01507 18.9944 7.03653L18.9481 7.03843H17.7188C17.438 7.03843 17.21 6.82948 17.21 6.57142C17.21 6.3277 17.4134 6.12777 17.6725 6.10631L17.7188 6.1044H18.9481ZM15.7381 6.1044C16.0189 6.1044 16.2469 6.31336 16.2469 6.57142C16.2469 6.81514 16.0435 7.01507 15.7844 7.03653L15.7381 7.03843H14.5088C14.2281 7.03843 14 6.82948 14 6.57142C14 6.3277 14.2034 6.12777 14.4625 6.10631L14.5088 6.1044H15.7381ZM16.7284 3.92499C16.9794 3.92499 17.1858 4.12213 17.208 4.37398L17.2099 4.41897V5.61042C17.2099 5.88338 16.9941 6.1044 16.7284 6.1044C16.4775 6.1044 16.2711 5.90725 16.2489 5.6554L16.2469 5.61042V4.41897C16.2469 4.14601 16.4628 3.92499 16.7284 3.92499Z" fill="#39405D"/>
<path fill-rule="evenodd" clip-rule="evenodd" d="M30.2906 11.5233C30.4235 11.6526 30.4408 11.8484 30.3351 11.9741L30.3152 11.9955L29.7596 12.5361C29.6323 12.6599 29.415 12.6491 29.2744 12.5122C29.1415 12.383 29.1242 12.1872 29.2299 12.0615L29.2498 12.0401L29.8054 11.4995C29.9327 11.3756 30.15 11.3865 30.2906 11.5233ZM31.8423 12.0443C31.9697 12.1682 31.9595 12.3795 31.8191 12.5161C31.6865 12.6452 31.4854 12.6612 31.3562 12.5582L31.3342 12.5387L30.7764 11.996C30.649 11.872 30.6592 11.6607 30.7996 11.5241C30.9322 11.3951 31.1332 11.3791 31.2625 11.4821L31.2845 11.5015L31.8423 12.0443ZM30.313 10.5563C30.4404 10.6802 30.4302 10.8915 30.2898 11.0281C30.1572 11.1571 29.9562 11.1732 29.8269 11.0701L29.8049 11.0507L29.2471 10.5079C29.1197 10.384 29.1299 10.1727 29.2703 10.0361C29.4029 9.90707 29.6039 9.89105 29.7332 9.99409L29.7552 10.0135L30.313 10.5563ZM31.8151 10.04C31.9479 10.1693 31.9652 10.3651 31.8595 10.4907L31.8396 10.5122L31.284 11.0528C31.1567 11.1766 30.9394 11.1657 30.7988 11.0289C30.6659 10.8997 30.6486 10.7039 30.7543 10.5782L30.7742 10.5568L31.3298 10.0162C31.4571 9.8923 31.6744 9.90318 31.8151 10.04Z" fill="#39405D"/>
</svg>
