<svg width="152" height="152" viewBox="0 0 152 152" fill="none" xmlns="http://www.w3.org/2000/svg">
<path d="M150.1 32.8499C150.1 48.8938 136.915 61.8999 120.65 61.8999C104.385 61.8999 91.2 48.8938 91.2 32.8499C91.2 16.806 104.385 3.7998 120.65 3.7998C136.915 3.7998 150.1 16.806 150.1 32.8499Z" fill="white"/>
<path fill-rule="evenodd" clip-rule="evenodd" d="M120.65 59.5249C135.634 59.5249 147.725 47.5516 147.725 32.8499C147.725 18.1481 135.634 6.1748 120.65 6.1748C105.666 6.1748 93.575 18.1481 93.575 32.8499C93.575 47.5516 105.666 59.5249 120.65 59.5249ZM120.65 61.8999C136.915 61.8999 150.1 48.8938 150.1 32.8499C150.1 16.806 136.915 3.7998 120.65 3.7998C104.385 3.7998 91.2 16.806 91.2 32.8499C91.2 48.8938 104.385 61.8999 120.65 61.8999Z" fill="#39405D"/>
<path fill-rule="evenodd" clip-rule="evenodd" d="M107.385 19.6788V29.7236C107.385 30.4474 107.972 31.0362 108.694 31.0362H118.712C119.434 31.0362 120.021 30.4474 120.021 29.7236V19.6788C120.021 18.9551 119.434 18.3662 118.712 18.3662H108.694C107.972 18.3662 107.385 18.9551 107.385 19.6788ZM109.493 20.4797H117.914V28.9227H109.493V20.4797ZM123.649 31.0362H133.667C134.389 31.0362 134.977 30.4474 134.977 29.7236V19.6788C134.977 18.9551 134.389 18.3662 133.667 18.3662H123.649C122.928 18.3662 122.34 18.955 122.34 19.6788V29.7236C122.34 30.4474 122.928 31.0362 123.649 31.0362ZM124.449 20.4797H132.869V28.9227H124.449V20.4797ZM108.714 33.3274H118.732C119.454 33.3274 120.042 33.9162 120.042 34.64V44.6848C120.042 45.4086 119.454 45.9974 118.732 45.9974H108.714C107.993 45.9974 107.405 45.4085 107.405 44.6848V34.64C107.405 33.9162 107.993 33.3274 108.714 33.3274ZM109.514 43.8838H117.934V35.4409H109.514V43.8838ZM130.211 45.9973C129.629 45.9973 129.157 45.5242 129.157 44.9406C129.157 44.357 129.629 43.8838 130.211 43.8838H132.889V41.406C132.889 40.8224 133.361 40.3493 133.943 40.3493C134.525 40.3493 134.997 40.8224 134.997 41.406V44.6847C134.997 45.4085 134.409 45.9973 133.687 45.9973H130.211ZM127.534 37.8835C127.534 37.2999 127.062 36.8267 126.48 36.8267H123.945C123.212 36.8267 122.615 37.4247 122.615 38.1598V41.406C122.615 41.9896 123.087 42.4628 123.669 42.4628C124.251 42.4628 124.723 41.9896 124.723 41.406V38.9402H126.48C127.062 38.9402 127.534 38.4672 127.534 37.8835ZM129.806 35.6967H123.394C122.812 35.6967 122.34 35.2235 122.34 34.6399C122.34 34.0563 122.812 33.5832 123.394 33.5832H130.584C131.317 33.5832 131.913 34.1811 131.913 34.9162V41.3291C131.913 41.9542 131.406 42.4628 130.783 42.4628H127.127C126.545 42.4628 126.073 41.9896 126.073 41.406C126.073 40.8224 126.545 40.3493 127.127 40.3493H129.806V35.6967ZM133.923 38.9403C134.505 38.9403 134.976 38.4671 134.976 37.8835V34.6399C134.976 34.0563 134.505 33.5832 133.923 33.5832C133.34 33.5832 132.869 34.0563 132.869 34.6399V37.8835C132.869 38.4672 133.34 38.9403 133.923 38.9403ZM127.393 43.8838C127.975 43.8838 128.447 44.357 128.447 44.9406C128.447 45.5242 127.975 45.9973 127.393 45.9973H123.394C122.812 45.9973 122.34 45.5242 122.34 44.9406C122.34 44.357 122.812 43.8838 123.394 43.8838H127.393Z" fill="#39405D"/>
<path d="M115.187 39.8433C115.187 40.6526 114.532 41.3087 113.725 41.3087C112.918 41.3087 112.264 40.6526 112.264 39.8433C112.264 39.034 112.918 38.3779 113.725 38.3779C114.532 38.3779 115.187 39.034 115.187 39.8433Z" fill="#39405D"/>
<path d="M115.187 24.5699C115.187 25.3792 114.532 26.0352 113.725 26.0352C112.918 26.0352 112.264 25.3792 112.264 24.5699C112.264 23.7606 112.918 23.1045 113.725 23.1045C114.532 23.1045 115.187 23.7606 115.187 24.5699Z" fill="#39405D"/>
<path d="M130.25 24.5699C130.25 25.3792 129.595 26.0352 128.788 26.0352C127.981 26.0352 127.327 25.3792 127.327 24.5699C127.327 23.7606 127.981 23.1045 128.788 23.1045C129.595 23.1045 130.25 23.7606 130.25 24.5699Z" fill="#39405D"/>
<mask id="mask0_5841_114073" style="mask-type:alpha" maskUnits="userSpaceOnUse" x="0" y="1" width="152" height="150">
<path d="M152 75.9999C152 116.924 117.974 150.1 76 150.1C34.0264 150.1 0 116.924 0 75.9999C0 35.0756 34.0264 1.8999 76 1.8999C117.974 1.8999 152 35.0756 152 75.9999Z" fill="#5A50F9"/>
</mask>
<g mask="url(#mask0_5841_114073)">
<path d="M42.9653 35.8172C42.9653 34.4385 44.083 33.3208 45.4617 33.3208H100.382C101.761 33.3208 102.878 34.4385 102.878 35.8172V124.713C102.878 127.47 100.643 129.706 97.8855 129.706H45.4617C44.083 129.706 42.9653 128.588 42.9653 127.209V35.8172Z" fill="#D3CCFE"/>
<path fill-rule="evenodd" clip-rule="evenodd" d="M97.8855 32.8963H47.9581C46.5794 32.8963 45.4617 34.0139 45.4617 35.3926V124.713C45.4617 126.092 46.5794 127.209 47.9581 127.209H97.8855C99.2642 127.209 100.382 126.092 100.382 124.713V35.3926C100.382 34.0139 99.2642 32.8963 97.8855 32.8963ZM47.9581 30.3999C45.2007 30.3999 42.9653 32.6352 42.9653 35.3926V124.713C42.9653 127.47 45.2007 129.706 47.9581 129.706H97.8855C100.643 129.706 102.878 127.47 102.878 124.713V35.3926C102.878 32.6352 100.643 30.3999 97.8855 30.3999H47.9581Z" fill="#39405D"/>
<path d="M48.9565 47.5003C48.9565 46.1216 50.0742 45.0039 51.4529 45.0039H94.3905C95.7692 45.0039 96.8869 46.1216 96.8869 47.5003V115.526C96.8869 116.905 95.7692 118.023 94.3905 118.023H51.4529C50.0742 118.023 48.9565 116.905 48.9565 115.526V47.5003Z" fill="white"/>
<path fill-rule="evenodd" clip-rule="evenodd" d="M94.3905 46.2521H51.4529C50.7636 46.2521 50.2047 46.8109 50.2047 47.5003V115.526C50.2047 116.216 50.7636 116.775 51.4529 116.775H94.3905C95.0799 116.775 95.6387 116.216 95.6387 115.526V47.5003C95.6387 46.8109 95.0799 46.2521 94.3905 46.2521ZM51.4529 45.0039C50.0742 45.0039 48.9565 46.1216 48.9565 47.5003V115.526C48.9565 116.905 50.0742 118.023 51.4529 118.023H94.3905C95.7692 118.023 96.8869 116.905 96.8869 115.526V47.5003C96.8869 46.1216 95.7692 45.0039 94.3905 45.0039H51.4529Z" fill="#1E243D"/>
<path d="M101.672 102.931C104.564 99.974 109.364 99.8605 112.393 102.677L114.647 104.774C117.676 107.59 117.787 112.271 114.894 115.227L109.354 120.89C106.462 123.847 101.662 123.96 98.6332 121.143L96.3789 119.047C93.3501 116.23 93.2395 111.55 96.1319 108.593L101.672 102.931Z" fill="white"/>
<path fill-rule="evenodd" clip-rule="evenodd" d="M112.901 106.558L110.647 104.462C108.628 102.584 105.428 102.66 103.5 104.631L97.9599 110.293C96.0317 112.264 96.1054 115.385 98.1246 117.262L100.379 119.359C102.398 121.237 105.598 121.161 107.526 119.19L113.066 113.527C114.994 111.556 114.921 108.436 112.901 106.558ZM112.393 102.677C109.364 99.8605 104.564 99.974 101.672 102.931L96.1319 108.593C93.2395 111.55 93.3501 116.23 96.3789 119.047L98.6332 121.143C101.662 123.96 106.462 123.847 109.354 120.89L114.894 115.227C117.787 112.271 117.676 107.59 114.647 104.774L112.393 102.677Z" fill="#1E243D"/>
<path d="M102.206 105.503C104.91 102.739 109.398 102.633 112.23 105.266C115.062 107.9 115.165 112.276 112.461 115.04L109.042 118.535C106.338 121.299 101.85 121.405 99.0183 118.771C96.1864 116.138 96.083 111.762 98.7873 108.998L102.206 105.503Z" fill="#FFE5AA"/>
<path fill-rule="evenodd" clip-rule="evenodd" d="M112.901 106.558L110.647 104.462C108.628 102.584 105.428 102.66 103.5 104.631L97.9599 110.293C96.0317 112.264 96.1054 115.385 98.1246 117.262L100.379 119.359C102.398 121.237 105.598 121.161 107.526 119.19L113.066 113.527C114.994 111.556 114.921 108.436 112.901 106.558ZM112.393 102.677C109.364 99.8605 104.564 99.974 101.672 102.931L96.1319 108.593C93.2395 111.55 93.3501 116.23 96.3789 119.047L98.6332 121.143C101.662 123.96 106.462 123.847 109.354 120.89L114.894 115.227C117.787 112.271 117.676 107.59 114.647 104.774L112.393 102.677Z" fill="#39405D"/>
<path d="M101.672 84.1C104.564 81.1434 109.364 81.03 112.393 83.8467L114.647 85.9431C117.676 88.7599 117.787 93.4401 114.894 96.3967L109.354 102.059C106.462 105.016 101.662 105.129 98.6332 102.313L96.3789 100.216C93.3501 97.3996 93.2395 92.7193 96.1319 89.7627L101.672 84.1Z" fill="white"/>
<path fill-rule="evenodd" clip-rule="evenodd" d="M112.901 87.7276L110.647 85.6312C108.628 83.7534 105.428 83.829 103.5 85.8L97.9599 91.4628C96.0317 93.4338 96.1054 96.554 98.1246 98.4318L100.379 100.528C102.398 102.406 105.598 102.33 107.526 100.359L113.066 94.6967C114.994 92.7256 114.921 89.6054 112.901 87.7276ZM112.393 83.8467C109.364 81.03 104.564 81.1434 101.672 84.1L96.1319 89.7627C93.2395 92.7193 93.3501 97.3996 96.3789 100.216L98.6332 102.313C101.662 105.129 106.462 105.016 109.354 102.059L114.894 96.3967C117.787 93.4401 117.676 88.7599 114.647 85.9431L112.393 83.8467Z" fill="#1E243D"/>
<path d="M99.8083 67.8818C102.701 64.9251 107.501 64.8117 110.53 67.6284L111.245 68.2939C114.274 71.1106 114.385 75.7909 111.492 78.7475L107.816 82.5053C104.924 85.4619 100.124 85.5753 97.0947 82.7586L96.3791 82.0931C93.3503 79.2764 93.2397 74.5962 96.1321 71.6395L99.8083 67.8818Z" fill="white"/>
<path fill-rule="evenodd" clip-rule="evenodd" d="M109.499 70.0784L108.784 69.4129C106.765 67.5351 103.565 67.6107 101.636 69.5818L97.9602 73.3396C96.0319 75.3107 96.1056 78.4308 98.1248 80.3086L98.8405 80.9741C100.86 82.8519 104.06 82.7763 105.988 80.8052L109.664 77.0474C111.592 75.0764 111.519 71.9562 109.499 70.0784ZM110.53 67.6284C107.501 64.8117 102.701 64.9251 99.8083 67.8818L96.1321 71.6395C93.2397 74.5962 93.3503 79.2764 96.3791 82.0931L97.0947 82.7586C100.124 85.5753 104.924 85.4619 107.816 82.5053L111.492 78.7475C114.385 75.7909 114.274 71.1106 111.245 68.2939L110.53 67.6284Z" fill="#1E243D"/>
<path fill-rule="evenodd" clip-rule="evenodd" d="M63.3103 39.1622C63.3103 38.8175 63.5897 38.5381 63.9344 38.5381H81.9083C82.253 38.5381 82.5324 38.8175 82.5324 39.1622C82.5324 39.5069 82.253 39.7863 81.9083 39.7863H63.9344C63.5897 39.7863 63.3103 39.5069 63.3103 39.1622Z" fill="#1E243D"/>
<path fill-rule="evenodd" clip-rule="evenodd" d="M69.3018 120.943C69.3018 120.599 69.5812 120.319 69.9259 120.319H75.9171C76.2618 120.319 76.5412 120.599 76.5412 120.943C76.5412 121.288 76.2618 121.568 75.9171 121.568H69.9259C69.5812 121.568 69.3018 121.288 69.3018 120.943Z" fill="#1E243D"/>
<path d="M48.9565 47.5003C48.9565 46.1216 50.0742 45.0039 51.4529 45.0039H94.3905C95.7692 45.0039 96.8869 46.1216 96.8869 47.5003V115.526C96.8869 116.905 95.7692 118.023 94.3905 118.023H51.4529C50.0742 118.023 48.9565 116.905 48.9565 115.526V47.5003Z" fill="#E7E3FF"/>
<path fill-rule="evenodd" clip-rule="evenodd" d="M94.3905 46.2521H51.4529C50.7636 46.2521 50.2047 46.8109 50.2047 47.5003V115.526C50.2047 116.216 50.7636 116.775 51.4529 116.775H94.3905C95.0799 116.775 95.6387 116.216 95.6387 115.526V47.5003C95.6387 46.8109 95.0799 46.2521 94.3905 46.2521ZM51.4529 45.0039C50.0742 45.0039 48.9565 46.1216 48.9565 47.5003V115.526C48.9565 116.905 50.0742 118.023 51.4529 118.023H94.3905C95.7692 118.023 96.8869 116.905 96.8869 115.526V47.5003C96.8869 46.1216 95.7692 45.0039 94.3905 45.0039H51.4529Z" fill="#39405D"/>
<path d="M31.7661 129.678L21.0023 149.502C20.0991 151.165 21.3034 153.189 23.1962 153.189H63.9073C64.8436 153.189 65.7013 152.665 66.1286 151.832L70.8012 142.72C71.1892 141.964 71.9395 141.461 72.7836 141.358C85.8945 139.765 89.84 134.345 90.6965 129.253C90.9252 127.893 89.7779 126.768 88.3992 126.768H63.4355C62.0568 126.768 60.9482 125.648 60.8145 124.276C59.673 112.565 50.945 99.4777 45.2735 93.9382C44.7651 93.4416 44.463 92.773 44.463 92.0623V65.4321C44.463 53.749 29.4848 53.749 29.4848 65.5665V82.5855C29.4848 82.9192 29.4157 83.2527 29.289 83.5613C21.6673 102.121 27.2925 119.501 31.6968 127.093C32.1592 127.89 32.2058 128.869 31.7661 129.678Z" fill="white"/>
<path fill-rule="evenodd" clip-rule="evenodd" d="M32.7304 59.7765C31.577 60.9916 30.7329 62.8846 30.7329 65.5667V82.5857C30.7329 83.0901 30.6289 83.5842 30.4435 84.0356C23.0107 102.135 28.5041 119.102 32.7764 126.467C33.4393 127.609 33.5268 129.051 32.863 130.274L22.0992 150.097C21.6476 150.929 22.2497 151.941 23.1961 151.941H63.9072C64.3754 151.941 64.8042 151.679 65.0179 151.263L69.6905 142.151C70.2761 141.009 71.3964 140.269 72.633 140.119C79.0489 139.34 83.0639 137.641 85.5546 135.644C88.0169 133.67 89.0811 131.332 89.4656 129.046C89.5413 128.596 89.1639 128.016 88.3991 128.016H63.4354C61.3423 128.016 59.761 126.334 59.5721 124.397C59.0244 118.778 56.6417 112.749 53.6531 107.402C50.6675 102.06 47.1372 97.5035 44.4013 94.8313C43.6703 94.1173 43.2148 93.1335 43.2148 92.0624V65.4322C43.2148 62.7874 42.3732 60.9224 41.2235 59.7284C40.0659 58.5261 38.5251 57.928 36.9795 57.9349C35.4341 57.9418 33.8911 58.5537 32.7304 59.7765ZM43.0217 57.9968C44.6805 59.7194 45.7112 62.2355 45.7112 65.4322V92.0624C45.7112 92.4128 45.8598 92.7663 46.1456 93.0454C49.0812 95.9127 52.7507 100.67 55.8323 106.184C58.9109 111.693 61.4629 118.063 62.0567 124.155C62.1354 124.962 62.7711 125.52 63.4354 125.52H88.3991C90.3917 125.52 92.309 127.191 91.9274 129.46C91.4553 132.267 90.1185 135.185 87.1162 137.592C84.1423 139.976 79.6291 141.784 72.9341 142.597C72.4825 142.652 72.1022 142.919 71.9118 143.29L67.2392 152.402C66.5982 153.651 65.3118 154.438 63.9072 154.438H23.1961C20.3569 154.438 18.5506 151.401 19.9054 148.906L30.6691 129.083C30.8847 128.686 30.879 128.171 30.6171 127.719C26.0807 119.899 20.3237 102.107 28.1343 83.0873C28.2024 82.9214 28.2366 82.7486 28.2366 82.5857V65.5667C28.2366 62.34 29.2648 59.8014 30.9198 58.0579C32.5675 56.3221 34.7691 55.4484 36.9683 55.4386C39.1671 55.4287 41.371 56.2825 43.0217 57.9968Z" fill="#1E243D"/>
<path d="M31.741 129.607L21.0023 149.384C20.0991 151.048 21.3034 153.072 23.1962 153.072H63.9073C64.8436 153.072 65.7013 152.548 66.1286 151.715L70.7898 142.625C71.184 141.856 71.9542 141.35 72.8133 141.259C86.754 139.775 90.025 133.854 90.7216 129.272C90.9289 127.909 89.7779 126.785 88.3992 126.785H64.3308C63.2111 126.785 62.2311 126.036 61.9075 124.964C57.4854 110.316 50.5812 100.656 44.8986 92.3718C44.6142 91.9572 44.463 91.4669 44.463 90.9641V68.3699C44.463 52.6628 29.4848 54.6748 29.4848 62.5283V80.9762C29.4848 81.3302 29.4066 81.6847 29.2641 82.0088C20.4712 101.999 26.5999 119.016 31.6239 126.961C32.1312 127.763 32.1939 128.773 31.741 129.607Z" fill="#FFECAB"/>
<path fill-rule="evenodd" clip-rule="evenodd" d="M32.7304 59.7765C31.577 60.9916 30.7329 62.8846 30.7329 65.5667V82.5857C30.7329 83.0901 30.6289 83.5842 30.4435 84.0356C23.0107 102.135 28.5041 119.102 32.7764 126.467C33.4393 127.609 33.5268 129.051 32.863 130.274L22.0992 150.097C21.6476 150.929 22.2497 151.941 23.1961 151.941H63.9072C64.3754 151.941 64.8042 151.679 65.0179 151.263L69.6905 142.151C70.2761 141.009 71.3964 140.269 72.633 140.119C79.0489 139.34 83.0639 137.641 85.5546 135.644C88.0169 133.67 89.0811 131.332 89.4656 129.046C89.5413 128.596 89.1639 128.016 88.3991 128.016H63.4354C61.3423 128.016 59.761 126.334 59.5721 124.397C59.0244 118.778 56.6417 112.749 53.6531 107.402C50.6675 102.06 47.1372 97.5035 44.4013 94.8313C43.6703 94.1173 43.2148 93.1335 43.2148 92.0624V65.4322C43.2148 62.7874 42.3732 60.9224 41.2235 59.7284C40.0659 58.5261 38.5251 57.928 36.9795 57.9349C35.4341 57.9418 33.8911 58.5537 32.7304 59.7765ZM43.0217 57.9968C44.6805 59.7194 45.7112 62.2355 45.7112 65.4322V92.0624C45.7112 92.4128 45.8598 92.7663 46.1456 93.0454C49.0812 95.9127 52.7506 100.67 55.8323 106.184C58.9109 111.693 61.4629 118.063 62.0567 124.155C62.1354 124.962 62.7711 125.52 63.4354 125.52H88.3991C90.3917 125.52 92.309 127.191 91.9274 129.46C91.4553 132.267 90.1185 135.185 87.1162 137.592C84.1423 139.976 79.6291 141.784 72.9341 142.597C72.4825 142.652 72.1022 142.919 71.9118 143.29L67.2392 152.402C66.5982 153.651 65.3118 154.438 63.9072 154.438H23.1961C20.3569 154.438 18.5506 151.401 19.9054 148.906L30.6691 129.083C30.8847 128.686 30.879 128.171 30.6171 127.719C26.0807 119.899 20.3237 102.107 28.1343 83.0873C28.2024 82.9214 28.2366 82.7486 28.2366 82.5857V65.5667C28.2366 62.34 29.2648 59.8014 30.9198 58.0579C32.5675 56.3221 34.7691 55.4484 36.9683 55.4386C39.1671 55.4287 41.371 56.2825 43.0217 57.9968Z" fill="#39405D"/>
<path d="M102.561 85.7542C105.129 83.1285 109.587 83.2093 112.518 85.9346C115.448 88.6599 115.742 92.9977 113.173 95.6234L108.651 100.246C106.082 102.871 101.624 102.791 98.6938 100.065C95.7633 97.3401 95.4699 93.0023 98.0385 90.3766L102.561 85.7542Z" fill="#FFE5AA"/>
<path d="M99.3016 70.3605C101.955 67.6478 106.359 67.5438 109.138 70.1281C111.917 72.7124 112.019 77.0065 109.365 79.7193L108.353 80.7539C105.699 83.4666 101.295 83.5707 98.5161 80.9863C95.7371 78.402 95.6357 74.1079 98.2894 71.3952L99.3016 70.3605Z" fill="#FFE5AA"/>
<path d="M97.0956 55.1172C99.4377 52.7231 103.325 52.6312 105.777 54.9121C108.23 57.1929 108.319 60.9828 105.977 63.3769L105.084 64.2901C102.742 66.6842 98.8549 66.7761 96.4023 64.4952C93.9497 62.2144 93.8602 58.4245 96.2023 56.0304L97.0956 55.1172Z" fill="#FFE5AA"/>
<path fill-rule="evenodd" clip-rule="evenodd" d="M112.901 87.7276L110.647 85.6312C108.628 83.7534 105.428 83.829 103.5 85.8L97.9599 91.4628C96.0317 93.4338 96.1054 96.554 98.1246 98.4318L100.379 100.528C102.398 102.406 105.598 102.33 107.526 100.359L113.066 94.6967C114.994 92.7256 114.921 89.6054 112.901 87.7276ZM112.393 83.8467C109.364 81.03 104.564 81.1434 101.672 84.1L96.1319 89.7627C93.2395 92.7193 93.3501 97.3996 96.3789 100.216L98.6332 102.313C101.662 105.129 106.462 105.016 109.354 102.059L114.894 96.3967C117.787 93.4401 117.676 88.7599 114.647 85.9431L112.393 83.8467Z" fill="#39405D"/>
<path fill-rule="evenodd" clip-rule="evenodd" d="M109.499 70.0784L108.784 69.4129C106.765 67.5351 103.565 67.6107 101.636 69.5818L97.9602 73.3396C96.0319 75.3107 96.1056 78.4308 98.1248 80.3086L98.8405 80.9741C100.86 82.8519 104.06 82.7763 105.988 80.8052L109.664 77.0474C111.592 75.0764 111.519 71.9562 109.499 70.0784ZM110.53 67.6284C107.501 64.8117 102.701 64.9251 99.8083 67.8818L96.1321 71.6395C93.2397 74.5962 93.3503 79.2764 96.3791 82.0931L97.0947 82.7586C100.124 85.5753 104.924 85.4619 107.816 82.5053L111.492 78.7475C114.385 75.7909 114.274 71.1106 111.245 68.2939L110.53 67.6284Z" fill="#39405D"/>
<path fill-rule="evenodd" clip-rule="evenodd" d="M103.083 63.8273L105.724 61.1273C107.479 59.3332 107.412 56.4932 105.574 54.7839C103.736 53.0747 100.824 53.1435 99.0684 54.9377L96.4271 57.6376C94.6719 59.4318 94.739 62.2718 96.577 63.981C98.4149 65.6903 101.328 65.6214 103.083 63.8273ZM107.32 52.9995C104.472 50.3513 99.9596 50.458 97.2404 53.2376L94.599 55.9376C91.8798 58.7173 91.9837 63.1174 94.8313 65.7655C97.6788 68.4137 102.192 68.307 104.911 65.5273L107.552 62.8274C110.271 60.0477 110.168 55.6476 107.32 52.9995Z" fill="#39405D"/>
<path d="M73.7164 87.6214C72.3184 87.6214 71.0203 87.3618 69.822 86.8426C68.6238 86.3033 67.6053 85.5744 66.7665 84.6557C65.9277 83.7371 65.3086 82.6786 64.9092 81.4804L67.9048 80.2222C68.444 81.6002 69.2329 82.6586 70.2714 83.3976C71.3099 84.1365 72.5081 84.506 73.8662 84.506C74.665 84.506 75.364 84.3861 75.9631 84.1465C76.5622 83.8869 77.0216 83.5274 77.3411 83.068C77.6806 82.6087 77.8504 82.0795 77.8504 81.4804C77.8504 80.6615 77.6207 80.0125 77.1614 79.5332C76.702 79.0539 76.023 78.6744 75.1243 78.3948L70.9304 77.0767C69.2529 76.5575 67.9747 75.7686 67.096 74.7102C66.2173 73.6318 65.7779 72.3736 65.7779 70.9357C65.7779 69.6775 66.0875 68.5791 66.7066 67.6405C67.3257 66.6819 68.1744 65.9329 69.2529 65.3937C70.3513 64.8545 71.5995 64.5849 72.9974 64.5849C74.3355 64.5849 75.5537 64.8246 76.6521 65.3039C77.7505 65.7632 78.6892 66.4023 79.468 67.2211C80.2669 68.0399 80.846 68.9885 81.2055 70.0669L78.2698 71.3551C77.8304 70.1768 77.1414 69.2681 76.2028 68.629C75.2841 67.99 74.2157 67.6704 72.9974 67.6704C72.2585 67.6704 71.6094 67.8002 71.0503 68.0599C70.4911 68.2995 70.0517 68.659 69.7322 69.1383C69.4326 69.5976 69.2828 70.1368 69.2828 70.7559C69.2828 71.4749 69.5125 72.114 69.9718 72.6731C70.4312 73.2323 71.1301 73.6517 72.0688 73.9313L75.9631 75.1595C77.7405 75.6988 79.0786 76.4776 79.9773 77.4961C80.876 78.4947 81.3253 79.7429 81.3253 81.2407C81.3253 82.4789 80.9958 83.5773 80.3368 84.5359C79.6977 85.4945 78.809 86.2534 77.6706 86.8126C76.5323 87.3518 75.2142 87.6214 73.7164 87.6214ZM72.3384 90.2576V61.9487H74.7349V90.2576H72.3384Z" fill="#39405D"/>
</g>
<path fill-rule="evenodd" clip-rule="evenodd" d="M39.6766 31.0993C39.6766 28.6142 37.6001 26.6001 35.0382 26.6001C32.4764 26.6001 30.3999 28.6142 30.3999 31.099C30.3999 33.5837 32.4765 35.598 35.0382 35.598C37.5992 35.596 39.6746 33.583 39.6766 31.0993ZM31.1135 31.099C31.1135 28.9967 32.8708 27.2922 35.038 27.2922C37.2049 27.2937 38.9612 28.9973 38.963 31.0993C38.963 33.2014 37.2057 34.9058 35.0382 34.9058C32.8708 34.9058 31.1135 33.2014 31.1135 31.099Z" fill="#39405D"/>
<path fill-rule="evenodd" clip-rule="evenodd" d="M18.5039 48.2744C19.3319 48.2744 20.0131 48.925 20.0863 49.7561L20.0928 49.9045V53.8363C20.0928 54.7371 19.3806 55.4664 18.5039 55.4664C17.6758 55.4664 16.9946 54.8159 16.9215 53.9847L16.915 53.8363V49.9045C16.915 49.0037 17.6271 48.2744 18.5039 48.2744ZM25.8286 45.1921C26.7551 45.1921 27.5077 45.8816 27.5077 46.7332C27.5077 47.5375 26.8364 48.1973 25.9813 48.2681L25.8286 48.2744H21.7718C20.8453 48.2744 20.0928 47.5848 20.0928 46.7332C20.0928 45.9289 20.764 45.2692 21.6191 45.1984L21.7718 45.1921H25.8286ZM15.2359 45.1921C16.1623 45.1921 16.9149 45.8816 16.9149 46.7332C16.9149 47.5375 16.2436 48.1973 15.3886 48.2681L15.2359 48.2744H11.179C10.2526 48.2744 9.5 47.5848 9.5 46.7332C9.5 45.9289 10.1713 45.2692 11.0263 45.1984L11.179 45.1921H15.2359ZM18.5039 38C19.3319 38 20.0131 38.6506 20.0863 39.4817L20.0928 39.6301V43.5619C20.0928 44.4627 19.3806 45.1921 18.5039 45.1921C17.6758 45.1921 16.9946 44.5415 16.9215 43.7104L16.915 43.5619V39.6301C16.915 38.7294 17.6271 38 18.5039 38Z" fill="#39405D"/>
<path fill-rule="evenodd" clip-rule="evenodd" d="M124.884 74.3154C125.361 74.3154 125.753 74.69 125.795 75.1685L125.799 75.254V77.5178C125.799 78.0364 125.389 78.4563 124.884 78.4563C124.407 78.4563 124.015 78.0818 123.973 77.6032L123.969 77.5178V75.254C123.969 74.7354 124.379 74.3154 124.884 74.3154ZM129.101 72.5408C129.635 72.5408 130.068 72.9378 130.068 73.4281C130.068 73.8912 129.682 74.2711 129.189 74.3118L129.101 74.3155H126.766C126.232 74.3155 125.799 73.9184 125.799 73.4281C125.799 72.965 126.185 72.5852 126.678 72.5444L126.766 72.5408H129.101ZM123.002 72.5408C123.536 72.5408 123.969 72.9378 123.969 73.4281C123.969 73.8912 123.583 74.2711 123.09 74.3118L123.002 74.3155H120.667C120.133 74.3155 119.7 73.9184 119.7 73.4281C119.7 72.965 120.086 72.5852 120.579 72.5444L120.667 72.5408H123.002ZM124.884 68.3999C125.361 68.3999 125.753 68.7745 125.795 69.253L125.799 69.3385V71.6022C125.799 72.1208 125.389 72.5408 124.884 72.5408C124.407 72.5408 124.015 72.1662 123.973 71.6877L123.969 71.6022V69.3385C123.969 68.8198 124.379 68.3999 124.884 68.3999Z" fill="#39405D"/>
<path fill-rule="evenodd" clip-rule="evenodd" d="M29.884 15.4155C30.3607 15.4155 30.7529 15.7901 30.7951 16.2686L30.7988 16.3541V18.6179C30.7988 19.1365 30.3888 19.5564 29.884 19.5564C29.4072 19.5564 29.015 19.1819 28.9729 18.7033L28.9691 18.6179V16.3541C28.9691 15.8355 29.3792 15.4155 29.884 15.4155ZM34.1013 13.6409C34.6348 13.6409 35.0681 14.0379 35.0681 14.5282C35.0681 14.9913 34.6816 15.3711 34.1893 15.4119L34.1013 15.4155H31.7656C31.2322 15.4155 30.7989 15.0185 30.7989 14.5282C30.7989 14.0651 31.1854 13.6853 31.6777 13.6445L31.7656 13.6409H34.1013ZM28.0024 13.6409C28.5358 13.6409 28.9691 14.0379 28.9691 14.5282C28.9691 14.9913 28.5827 15.3711 28.0903 15.4119L28.0024 15.4155H25.6667C25.1332 15.4155 24.7 15.0185 24.7 14.5282C24.7 14.0651 25.0864 13.6853 25.5788 13.6445L25.6667 13.6409H28.0024ZM29.884 9.5C30.3607 9.5 30.7529 9.87458 30.7951 10.3531L30.7988 10.4386V12.7023C30.7988 13.2209 30.3888 13.6409 29.884 13.6409C29.4072 13.6409 29.015 13.2663 28.9729 12.7878L28.9691 12.7023V10.4386C28.9691 9.91994 29.3792 9.5 29.884 9.5Z" fill="#39405D"/>
<path fill-rule="evenodd" clip-rule="evenodd" d="M48.0528 20.3746C48.3052 20.6201 48.3381 20.9921 48.1373 21.2309L48.0994 21.2716L47.0438 22.2988C46.802 22.5341 46.3891 22.5134 46.1219 22.2534C45.8695 22.0079 45.8365 21.6359 46.0374 21.3971L46.0753 21.3563L47.1309 20.3292C47.3727 20.0939 47.7856 20.1145 48.0528 20.3746ZM51.001 21.3644C51.243 21.5999 51.2236 22.0013 50.9569 22.2609C50.7049 22.506 50.3229 22.5365 50.0774 22.3407L50.0355 22.3038L48.9757 21.2726C48.7336 21.0371 48.753 20.6356 49.0198 20.3761C49.2717 20.1309 49.6537 20.1005 49.8993 20.2962L49.9411 20.3331L51.001 21.3644ZM48.0953 18.5371C48.3374 18.7726 48.318 19.1741 48.0512 19.4336C47.7993 19.6788 47.4173 19.7092 47.1717 19.5134L47.1299 19.4765L46.0701 18.4453C45.828 18.2098 45.8474 17.8083 46.1142 17.5488C46.3661 17.3037 46.7481 17.2732 46.9937 17.469L47.0355 17.5059L48.0953 18.5371ZM50.9492 17.5563C51.2016 17.8018 51.2345 18.1738 51.0337 18.4126L50.9958 18.4533L49.9402 19.4805C49.6984 19.7158 49.2855 19.6951 49.0183 19.4351C48.7659 19.1896 48.7329 18.8176 48.9338 18.5788L48.9717 18.5381L50.0273 17.5109C50.2691 17.2756 50.682 17.2963 50.9492 17.5563Z" fill="#39405D"/>
</svg>
