<svg width="80" height="80" viewBox="0 0 80 80" fill="none" xmlns="http://www.w3.org/2000/svg">
<path d="M19.6125 27.2588V52.8591C19.6125 52.8591 27.5878 49.5095 40.618 52.8591C53.6482 56.2087 60.3879 52.8591 60.3879 52.8591V26.7803C60.3879 26.7803 50.8399 30.0946 40.618 27.2588C27.5878 23.6439 19.6125 27.2588 19.6125 27.2588Z" fill="#E7E3FF"/>
<path fill-rule="evenodd" clip-rule="evenodd" d="M20.2246 27.7104V51.958C20.4197 51.8965 20.6481 51.8284 20.9089 51.7566C21.8866 51.4877 23.3198 51.1677 25.1627 50.9547C28.8493 50.5286 34.172 50.5313 40.7615 52.2252C47.2062 53.8819 52.0757 53.8771 55.3169 53.4676C56.9383 53.2627 58.1543 52.9563 58.9583 52.7045C59.3093 52.5945 59.5819 52.495 59.7754 52.4187V27.6473C59.5282 27.718 59.2273 27.8001 58.8774 27.8885C57.804 28.1595 56.2684 28.49 54.4098 28.7304C50.6969 29.2107 45.6721 29.3349 40.4635 27.8899C34.0279 26.1045 28.8534 26.1077 25.3 26.551C23.5226 26.7727 22.1497 27.1046 21.2264 27.3787C20.7907 27.5081 20.4551 27.6245 20.2246 27.7104ZM60.1982 26.1602C60.3846 26.0956 60.5888 26.1299 60.7474 26.2525C60.9061 26.3752 61 26.5715 61 26.7803V52.8591C61 53.1125 60.8622 53.343 60.6466 53.4501L60.6368 53.455C60.6466 53.4501 60.6463 53.4503 60.6459 53.4505L60.6451 53.4509L60.6429 53.4519L60.6368 53.455C60.6318 53.4574 60.6252 53.4605 60.617 53.4644C60.6064 53.4695 60.5931 53.4757 60.5771 53.4831C60.5681 53.4872 60.5583 53.4916 60.5477 53.4964C60.4883 53.5232 60.4026 53.5606 60.2905 53.606C60.0664 53.6969 59.7372 53.8201 59.3038 53.9558C58.4369 54.2274 57.1536 54.549 55.4612 54.7628C52.0751 55.1907 47.0595 55.186 40.4742 53.4931C34.0334 51.8374 28.8534 51.8401 25.2948 52.2514C23.515 52.4571 22.14 52.7651 21.2151 53.0195C20.7527 53.1468 20.4028 53.2606 20.1712 53.3415C20.0554 53.3819 19.9691 53.4141 19.9132 53.4357C19.8852 53.4464 19.8648 53.4545 19.8521 53.4597C19.8457 53.4622 19.8412 53.4641 19.8387 53.4651L19.8369 53.4658L19.8365 53.466C19.6481 53.545 19.4352 53.5196 19.2678 53.3983C19.1003 53.2768 19 53.075 19 52.8591V27.2588C19 26.9973 19.1466 26.7611 19.3725 26.6587C19.3725 26.6587 19.3728 26.6586 19.3732 26.6584L19.374 26.6581L19.3761 26.6571L19.3826 26.6542C19.3879 26.6519 19.3951 26.6487 19.4043 26.6447C19.4227 26.6367 19.4488 26.6255 19.4825 26.6115C19.55 26.5835 19.6481 26.544 19.7762 26.4957C20.0322 26.3992 20.408 26.2676 20.8976 26.1222C21.877 25.8315 23.3123 25.4856 25.1575 25.2555C28.8493 24.795 34.1776 24.7982 40.7721 26.6277C45.7854 28.0185 50.6456 27.9035 54.2622 27.4356C56.0683 27.2019 57.5585 26.881 58.5949 26.6193C59.1129 26.4885 59.517 26.3725 59.7901 26.2899C59.9266 26.2485 60.0303 26.2155 60.099 26.1932C60.1333 26.182 60.159 26.1735 60.1755 26.1679C60.1838 26.1651 60.1899 26.163 60.1936 26.1617L60.1975 26.1604L60.198 26.1603L60.1982 26.1602Z" fill="#39405D"/>
<path d="M23.8662 46.0595V31.4099C23.8662 31.1327 24.0432 30.8901 24.2971 30.8296C29.8579 29.5037 35.9903 30.9573 38.7546 31.6934C47.0303 33.8971 52.7904 32.9189 55.7122 31.9659C56.0885 31.8431 56.4789 32.1367 56.4789 32.5559V48.5501C56.4789 48.8454 56.279 49.0975 56.0053 49.1447C51.8091 49.8683 46.3453 50.489 40.8815 48.3067C32.9502 44.7867 28.0997 45.8609 24.6068 46.6344L24.5439 46.6483C24.1935 46.7259 23.8662 46.4407 23.8662 46.0595Z" fill="#D3CCFE"/>
<path d="M48.4808 39.9637C48.4808 45.0063 44.6429 49.0942 39.9087 49.0942C35.1744 49.0942 31.3365 45.0063 31.3365 39.9637C31.3365 34.9211 35.1744 30.8333 39.9087 30.8333C44.6429 30.8333 48.4808 34.9211 48.4808 39.9637Z" fill="#FFECAB"/>
<path fill-rule="evenodd" clip-rule="evenodd" d="M23.5232 30.2686C27.3735 28.9017 32.4198 29.5391 37.3357 30.8481C37.6638 30.9355 37.8633 31.2896 37.7812 31.639C37.6992 31.9884 37.3668 32.2009 37.0387 32.1135C32.3501 30.8651 27.7817 30.3089 24.3291 31.3677C24.3291 33.8773 24.3291 41.3485 24.3291 46.2821C24.4293 46.2546 24.5388 46.2268 24.6579 46.1991C25.4727 46.0099 26.7417 45.8287 28.6151 45.8287C28.9533 45.8287 29.2274 46.1207 29.2274 46.4809C29.2274 46.8411 28.9533 47.133 28.6151 47.133C26.8148 47.133 25.6347 47.3073 24.9187 47.4735C24.5609 47.5566 24.3195 47.6376 24.1747 47.6936C24.1022 47.7217 24.054 47.7435 24.0273 47.7562C24.014 47.7625 24.0061 47.7667 24.0033 47.7681L24.0054 47.7669L24.0074 47.7658L24.0086 47.7651C24.0067 47.7662 24.0049 47.7672 24.003 47.7683C24.0019 47.7689 24.0018 47.7689 24.0029 47.7684L24.0033 47.7681L24.003 47.7683C23.8146 47.8744 23.5877 47.8686 23.4042 47.7525C23.2184 47.635 23.1045 47.4219 23.1045 47.1917C23.1045 41.9744 23.1045 32.844 23.1045 30.8873C23.1045 30.6066 23.2732 30.3574 23.5232 30.2686ZM24.0273 47.7562L24.0098 47.7644C24.0094 47.7646 24.009 47.7649 24.0086 47.7651L24.0092 47.7648C24.0095 47.7646 24.0546 47.7435 24.0273 47.7562Z" fill="#39405D"/>
<path fill-rule="evenodd" clip-rule="evenodd" d="M39.9831 31.7333C39.1206 31.7332 38.3671 31.7332 36.8305 32.3086C36.5115 32.4281 36.162 32.2495 36.0498 31.9097C35.9376 31.5699 36.1053 31.1976 36.4244 31.0781C38.1479 30.4327 39.052 30.4289 39.9997 30.4289C44.9497 30.4289 48.9855 34.6138 48.9855 39.8061C48.9855 44.9985 44.9497 49.1833 39.9997 49.1833C35.0498 49.1833 31.0139 44.9985 31.0139 39.8061C31.0139 38.3753 31.3214 37.0179 31.8714 35.8036C32.0183 35.4792 32.3843 35.3431 32.6889 35.4996C32.9935 35.6561 33.1213 36.0459 32.9743 36.3703C32.5024 37.4124 32.2385 38.5765 32.2385 39.8061C32.2385 44.2512 35.7006 47.879 39.9997 47.879C44.2989 47.879 47.761 44.2512 47.761 39.8061C47.761 35.3611 44.2989 31.7333 39.9997 31.7333L39.9831 31.7333Z" fill="#39405D"/>
<path fill-rule="evenodd" clip-rule="evenodd" d="M56.3733 31.7123C56.5352 31.8346 56.6315 32.033 56.6315 32.2444V48.7422C56.6315 49.0341 56.4495 49.2904 56.1858 49.3698C53.3424 50.226 46.8606 51.214 41.2437 48.995C40.9266 48.8698 40.7649 48.4945 40.8825 48.1568C41.0001 47.8191 41.3524 47.6468 41.6695 47.7721C46.6754 49.7497 52.5035 49.0193 55.4069 48.2412V33.1276C53.613 33.6364 52.0764 33.5493 50.853 33.4799L50.807 33.4773C50.4693 33.4582 50.2101 33.1511 50.2281 32.7915C50.246 32.4318 50.5343 32.1557 50.872 32.1748L50.8809 32.1753C52.2839 32.2547 53.8993 32.3462 55.8163 31.6291C56.0037 31.559 56.2113 31.5901 56.3733 31.7123Z" fill="#39405D"/>
<path fill-rule="evenodd" clip-rule="evenodd" d="M38.5468 35.4201C39.1297 35.1086 39.7524 35.0822 40.0561 35.0822C40.7157 35.0822 41.9631 35.3561 42.6853 36.4499C42.8799 36.7445 42.8133 37.1513 42.5367 37.3585C42.2601 37.5657 41.8782 37.4948 41.6837 37.2002C41.2856 36.5975 40.5168 36.3866 40.0561 36.3866C39.7998 36.3866 39.415 36.4155 39.096 36.5859C38.8229 36.7319 38.5632 36.9945 38.5139 37.6078C38.4933 37.8643 38.53 38.0252 38.577 38.131C38.6237 38.2364 38.7005 38.3317 38.8264 38.4244C39.1099 38.6332 39.5345 38.7605 40.1137 38.9203C40.1336 38.9258 40.1536 38.9313 40.1739 38.9369C40.6845 39.0774 41.3172 39.2515 41.8161 39.5944C42.089 39.7819 42.3416 40.0312 42.5232 40.3702C42.7057 40.7109 42.7968 41.1056 42.7968 41.5511C42.7968 41.5654 42.7963 41.5796 42.7955 41.5938C42.7243 42.7474 42.1661 43.4257 41.5302 43.7801C40.9377 44.1102 40.3156 44.1422 40.0561 44.1422C39.0474 44.1422 38.3459 43.7364 37.8978 43.3098C37.6778 43.1004 37.5228 42.8901 37.4211 42.7288C37.3701 42.6478 37.3319 42.5782 37.3051 42.5257C37.2916 42.4994 37.281 42.4773 37.2731 42.46C37.2691 42.4514 37.2657 42.444 37.263 42.4379C37.2617 42.4348 37.2605 42.432 37.2595 42.4296L37.258 42.4263L37.2574 42.4248L37.2571 42.4241C37.257 42.4238 37.258 42.4263 37.2568 42.4234C37.1187 42.0947 37.2569 41.7089 37.5656 41.5617C37.8721 41.4156 38.2315 41.5598 38.3717 41.8839C38.3728 41.8862 38.3758 41.8927 38.381 41.9029C38.3914 41.9233 38.4101 41.9578 38.4378 42.0018C38.4937 42.0904 38.5837 42.2134 38.7138 42.3372C38.9658 42.5772 39.3845 42.8378 40.0561 42.8378C40.2448 42.8378 40.6308 42.8092 40.9624 42.6243C41.2475 42.4655 41.5264 42.1788 41.5721 41.5301C41.5694 41.2906 41.5207 41.1307 41.4596 41.0166C41.3957 40.8973 41.2981 40.7907 41.1522 40.6904C40.8333 40.4712 40.3844 40.3424 39.8066 40.183C39.7932 40.1793 39.7796 40.1755 39.766 40.1718C39.2536 40.0306 38.6152 39.8547 38.13 39.4973C37.865 39.3022 37.6266 39.0416 37.4699 38.6887C37.3135 38.3363 37.2584 37.9368 37.2938 37.4965C37.3817 36.4024 37.9182 35.7562 38.5468 35.4201Z" fill="#39405D"/>
<path fill-rule="evenodd" clip-rule="evenodd" d="M39.9998 33.9189C40.338 33.9189 40.6121 34.2109 40.6121 34.5711V35.7344C40.6121 36.0946 40.338 36.3866 39.9998 36.3866C39.6616 36.3866 39.3875 36.0946 39.3875 35.7344V34.5711C39.3875 34.2109 39.6616 33.9189 39.9998 33.9189Z" fill="#39405D"/>
<path fill-rule="evenodd" clip-rule="evenodd" d="M39.9998 42.8378C40.338 42.8378 40.6121 43.1298 40.6121 43.49V44.6533C40.6121 45.0135 40.338 45.3055 39.9998 45.3055C39.6616 45.3055 39.3875 45.0135 39.3875 44.6533V43.49C39.3875 43.1298 39.6616 42.8378 39.9998 42.8378Z" fill="#39405D"/>
<path fill-rule="evenodd" clip-rule="evenodd" d="M12.8825 29.368C12.8825 28.0601 11.7896 27 10.4412 27C9.0929 27 8 28.0601 8 29.3679C8 30.6756 9.09295 31.7357 10.4412 31.7357C11.7891 31.7347 12.8814 30.6752 12.8825 29.368ZM8.37558 29.3679C8.37558 28.2614 9.30045 27.3643 10.4411 27.3643C11.5816 27.3651 12.5059 28.2617 12.5069 29.368C12.5069 30.4744 11.582 31.3714 10.4412 31.3714C9.30045 31.3714 8.37558 30.4744 8.37558 29.3679Z" fill="#39405D"/>
<path fill-rule="evenodd" clip-rule="evenodd" d="M66.7284 38.1134C66.9794 38.1134 67.1858 38.3106 67.208 38.5624L67.2099 38.6074V39.7989C67.2099 40.0718 66.9941 40.2929 66.7284 40.2929C66.4775 40.2929 66.2711 40.0957 66.2489 39.8439L66.2469 39.7989V38.6074C66.2469 38.3345 66.4628 38.1134 66.7284 38.1134ZM68.9481 37.1794C69.2289 37.1794 69.4569 37.3884 69.4569 37.6464C69.4569 37.8902 69.2535 38.0901 68.9944 38.1115L68.9481 38.1134H67.7188C67.438 38.1134 67.21 37.9045 67.21 37.6464C67.21 37.4027 67.4134 37.2028 67.6725 37.1813L67.7188 37.1794H68.9481ZM65.7381 37.1794C66.0189 37.1794 66.2469 37.3884 66.2469 37.6464C66.2469 37.8902 66.0435 38.0901 65.7844 38.1115L65.7381 38.1134H64.5088C64.2281 38.1134 64 37.9045 64 37.6464C64 37.4027 64.2034 37.2028 64.4625 37.1813L64.5088 37.1794H65.7381ZM66.7284 35C66.9794 35 67.1858 35.1971 67.208 35.449L67.2099 35.494V36.6854C67.2099 36.9584 66.9941 37.1794 66.7284 37.1794C66.4775 37.1794 66.2711 36.9823 66.2489 36.7304L66.2469 36.6854V35.494C66.2469 35.221 66.4628 35 66.7284 35Z" fill="#39405D"/>
<path fill-rule="evenodd" clip-rule="evenodd" d="M15.7284 18.1134C15.9794 18.1134 16.1858 18.3106 16.208 18.5624L16.2099 18.6074V19.7989C16.2099 20.0718 15.9941 20.2929 15.7284 20.2929C15.4775 20.2929 15.2711 20.0957 15.2489 19.8439L15.2469 19.7989V18.6074C15.2469 18.3345 15.4628 18.1134 15.7284 18.1134ZM17.9481 17.1794C18.2289 17.1794 18.4569 17.3884 18.4569 17.6464C18.4569 17.8902 18.2535 18.0901 17.9944 18.1115L17.9481 18.1134H16.7188C16.438 18.1134 16.21 17.9045 16.21 17.6464C16.21 17.4027 16.4134 17.2028 16.6725 17.1813L16.7188 17.1794H17.9481ZM14.7381 17.1794C15.0189 17.1794 15.2469 17.3884 15.2469 17.6464C15.2469 17.8902 15.0435 18.0901 14.7844 18.1115L14.7381 18.1134H13.5088C13.2281 18.1134 13 17.9045 13 17.6464C13 17.4027 13.2034 17.2028 13.4625 17.1813L13.5088 17.1794H14.7381ZM15.7284 15C15.9794 15 16.1858 15.1971 16.208 15.449L16.2099 15.494V16.6854C16.2099 16.9584 15.9941 17.1794 15.7284 17.1794C15.4775 17.1794 15.2711 16.9823 15.2489 16.7304L15.2469 16.6854V15.494C15.2469 15.221 15.4628 15 15.7284 15Z" fill="#39405D"/>
<path fill-rule="evenodd" clip-rule="evenodd" d="M27.2907 19.7233C27.4235 19.8526 27.4409 20.0484 27.3352 20.1741L27.3152 20.1955L26.7596 20.7361C26.6324 20.8599 26.4151 20.8491 26.2744 20.7122C26.1416 20.583 26.1242 20.3872 26.23 20.2615L26.2499 20.2401L26.8055 19.6995C26.9328 19.5756 27.1501 19.5865 27.2907 19.7233ZM28.8424 20.2443C28.9697 20.3683 28.9595 20.5796 28.8191 20.7162C28.6866 20.8452 28.4855 20.8612 28.3563 20.7582L28.3342 20.7387L27.7764 20.196C27.649 20.072 27.6592 19.8607 27.7996 19.7241C27.9322 19.5951 28.1333 19.5791 28.2625 19.6821L28.2846 19.7016L28.8424 20.2443ZM27.3131 18.7563C27.4405 18.8802 27.4303 19.0915 27.2899 19.2281C27.1573 19.3571 26.9562 19.3732 26.827 19.2701L26.8049 19.2507L26.2471 18.708C26.1198 18.584 26.13 18.3727 26.2704 18.2361C26.4029 18.1071 26.604 18.0911 26.7332 18.1941L26.7553 18.2135L27.3131 18.7563ZM28.8151 18.24C28.9479 18.3693 28.9653 18.5651 28.8596 18.6908L28.8396 18.7122L28.2841 19.2528C28.1568 19.3766 27.9395 19.3658 27.7988 19.2289C27.666 19.0997 27.6487 18.9039 27.7544 18.7782L27.7743 18.7568L28.3299 18.2162C28.4572 18.0923 28.6745 18.1032 28.8151 18.24Z" fill="#39405D"/>
</svg>
