<svg width="80" height="80" viewBox="0 0 80 80" fill="none" xmlns="http://www.w3.org/2000/svg">
<path fill-rule="evenodd" clip-rule="evenodd" d="M23.3745 36.0217C22.7601 36.0217 22.2622 36.5194 22.2621 37.1334V43.3049L22.2624 43.3047V75.3627C22.2624 77.4701 23.9719 79.1784 26.0808 79.1784H54.2395C56.3483 79.1784 58.0579 77.4701 58.0579 75.3627V37.1333C58.0579 36.5194 57.5599 36.0217 56.9456 36.0217H56.9453H23.3748C23.3747 36.0217 23.3746 36.0217 23.3745 36.0217Z" fill="#E9F4FC"/>
<path d="M58.0574 37.1333V43.3053H22.2624V37.1333C22.2624 36.5188 22.7601 36.0225 23.3751 36.0225H56.9447C57.5597 36.0225 58.0574 36.5188 58.0574 37.1333Z" fill="white"/>
<path fill-rule="evenodd" clip-rule="evenodd" d="M44.3598 35.2L29.0734 35.2H28.8489L23.3746 35.2L23.3213 35.2024L23.2408 35.2071C22.2365 35.2762 21.44 36.1124 21.44 37.1333V75.3627L21.4407 75.4408C21.4825 77.9619 23.5479 80 26.0807 80H54.2393L54.3175 79.9994C56.8405 79.9575 58.88 77.8936 58.88 75.3627V62.6878L58.8789 62.6441C58.8562 62.2107 58.4971 61.8662 58.0577 61.8662C57.6036 61.8662 57.2355 62.234 57.2355 62.6878V75.3627L57.2347 75.4323C57.1976 77.0512 55.8681 78.3568 54.2392 78.3568H26.0806L26.0109 78.356C24.3908 78.3189 23.0843 76.9904 23.0843 75.3627V44.1265H34.2898L34.3335 44.1253C34.7672 44.1026 35.112 43.744 35.112 43.3048C35.112 42.8511 34.7439 42.4832 34.2898 42.4832H27.7644L27.7633 39.6632L27.7619 39.614C27.7502 39.4176 27.669 39.2306 27.5297 39.0884L25.3301 36.8433L29.0454 36.8432L29.0734 36.8432L44.3598 36.8433L44.4034 36.8421C44.8372 36.8194 45.182 36.4608 45.182 36.0216C45.182 35.5679 44.8138 35.2 44.3598 35.2ZM26.12 41.3444L24.6563 42.4832H26.12V41.3444ZM23.0861 37.1012C23.0921 37.0486 23.1127 37.0006 23.1431 36.9601L25.7104 39.5804L23.0843 41.6238V37.1333L23.0861 37.1012ZM56.9452 35.2001H48.4186L48.375 35.2013C47.9412 35.224 47.5965 35.5826 47.5965 36.0217C47.5965 36.4755 47.9646 36.8434 48.4186 36.8434H54.9897L52.7901 39.0886L52.7565 39.125C52.6269 39.2744 52.5564 39.4657 52.5554 39.6634V42.4833H47.4911C47.4911 42.4833 45.8462 42.4636 45.8454 42.4833H42.6658H41.0199H38.3489L38.3052 42.4845C37.8715 42.5072 37.5267 42.8658 37.5267 43.305C37.5267 43.7587 37.8948 44.1266 38.3489 44.1266H57.2355V58.6316L57.2366 58.6753C57.2593 59.1087 57.6183 59.4532 58.0577 59.4532C58.5118 59.4532 58.8799 59.0854 58.8799 58.6316V37.1333L58.879 37.0757C58.8492 36.062 58.0339 35.2439 57.0219 35.204L56.9992 35.2025L56.9452 35.2001ZM54.1998 42.4832V41.3444L55.6635 42.4832H54.1998ZM57.1766 36.9601L54.6094 39.5804L57.2355 41.6238V37.1333C57.2355 37.079 57.2199 37.0287 57.1936 36.9853L57.1766 36.9601Z" fill="#073B4C"/>
<path d="M23.1431 36.9601C23.1127 37.0006 23.0921 37.0486 23.0861 37.1012L23.0843 37.1333V41.6238L25.7104 39.5804L23.1431 36.9601Z" fill="#E9F4FC"/>
<path d="M57.1766 36.9601L54.6094 39.5804L57.2355 41.6238V37.1333C57.2355 37.079 57.2199 37.0287 57.1936 36.9853L57.1766 36.9601Z" fill="#E9F4FC"/>
<path d="M40.5355 5.09554V20.0915C40.5355 20.4315 40.2594 20.7071 39.9187 20.7071C39.5781 20.7071 39.302 20.4315 39.302 20.0915V5.09554C39.302 4.75559 39.5781 4.48001 39.9187 4.48001C40.2594 4.48001 40.5355 4.75559 40.5355 5.09554Z" fill="#073B4C"/>
<path d="M24.9713 13.0719L26.7432 14.8403L28.951 17.0437L29.8455 17.9364L31.2827 19.3708L31.6175 19.7049L33.8252 21.9083L35.5972 23.6767C35.7529 23.8323 35.8136 24.0591 35.7563 24.2715C35.6991 24.4839 35.5327 24.6498 35.3198 24.7065C35.1068 24.7633 34.8797 24.7023 34.724 24.5467L32.9535 22.7783L30.7472 20.5748L30.411 20.2408L28.9752 18.8064L28.0807 17.9137L25.8729 15.7103L24.0996 13.9433C23.8585 13.7031 23.8582 13.3132 24.0989 13.0726C24.3396 12.832 24.7302 12.8316 24.9713 13.0719Z" fill="#073B4C"/>
<ellipse cx="7.52001" cy="12.96" rx="1.76" ry="1.76" fill="#FFD166"/>
<path fill-rule="evenodd" clip-rule="evenodd" d="M17.7431 24.6022V26.0556L17.7454 26.1106C17.7719 26.4176 18.0144 26.6583 18.3098 26.6583C18.6229 26.6583 18.8765 26.3886 18.8765 26.0556V24.6022L18.8742 24.5478C18.8483 24.2402 18.6052 24 18.3098 24C17.9973 24 17.7431 24.2691 17.7431 24.6022ZM19.4756 26.6583L19.4209 26.6607C19.1161 26.6873 18.8765 26.931 18.8765 27.228C18.8765 27.5433 19.1449 27.7976 19.4756 27.7976H20.9234L20.9775 27.7959C21.2824 27.7698 21.5219 27.5255 21.5219 27.228C21.5219 26.9133 21.2535 26.6583 20.9234 26.6583H19.4756ZM15.6968 26.6583L15.6427 26.6607C15.3373 26.6873 15.0977 26.931 15.0977 27.228C15.0977 27.5433 15.3667 27.7976 15.6968 27.7976H17.144L17.1987 27.7959C17.5036 27.7698 17.7431 27.5255 17.7431 27.228C17.7431 26.9133 17.4747 26.6583 17.144 26.6583H15.6968ZM17.7431 28.4004V29.8544L17.7454 29.9094C17.7719 30.2164 18.0144 30.4572 18.3098 30.4572C18.6229 30.4572 18.8765 30.1868 18.8765 29.8544V28.4004L18.8742 28.3454C18.8483 28.0384 18.6052 27.7976 18.3098 27.7976C17.9973 27.7976 17.7431 28.068 17.7431 28.4004Z" fill="#FFD166"/>
<path d="M54.8647 13.0719L53.0942 14.8403L50.8864 17.0437L49.9919 17.9364L48.5519 19.3708L48.2157 19.7049L46.0094 21.9083L44.2374 23.6767C44.0105 23.9191 44.0169 24.2975 44.252 24.5321C44.4871 24.7667 44.8662 24.7732 45.1092 24.5467L46.8811 22.7783L49.0889 20.5748L49.4236 20.2408L50.8608 18.8064L51.7553 17.9137L53.9631 15.7103L55.7336 13.9433C55.9747 13.7031 55.975 13.3132 55.7343 13.0726C55.4936 12.832 55.103 12.8316 54.8619 13.0719H54.8647Z" fill="#073B4C"/>
<circle cx="61.44" cy="21.12" r="3.52" fill="#FFD166"/>
<path fill-rule="evenodd" clip-rule="evenodd" d="M70.1412 0.752795V2.20619L70.1436 2.26061C70.1694 2.5688 70.4125 2.80896 70.7079 2.80896C71.0204 2.80896 71.2747 2.53922 71.2747 2.20619V0.752795L71.2723 0.697783C71.2458 0.390778 71.0028 0.150024 70.7079 0.150024C70.3948 0.150024 70.1412 0.419763 70.1412 0.752795ZM71.8738 2.80896L71.819 2.81132C71.5142 2.83735 71.2747 3.08106 71.2747 3.3786C71.2747 3.6933 71.543 3.94825 71.8738 3.94825H73.3209L73.375 3.94588C73.6805 3.91986 73.92 3.67614 73.92 3.3786C73.92 3.06391 73.6511 2.80896 73.3209 2.80896H71.8738ZM68.0944 2.80896L68.0402 2.81132C67.7348 2.83735 67.4953 3.08106 67.4953 3.3786C67.4953 3.6933 67.7642 3.94825 68.0944 3.94825H69.5421L69.5968 3.94588C69.9011 3.91986 70.1412 3.67614 70.1412 3.3786C70.1412 3.06391 69.8728 2.80896 69.5421 2.80896H68.0944ZM70.1412 4.55102V6.00441L70.1436 6.05942C70.1694 6.36643 70.4125 6.60718 70.7079 6.60718C71.0204 6.60718 71.2747 6.33804 71.2747 6.00441V4.55102L71.2723 4.4966C71.2458 4.189 71.0028 3.94825 70.7079 3.94825C70.3948 3.94825 70.1412 4.21799 70.1412 4.55102Z" fill="#FFD166"/>
<path d="M49.1168 42.88L49.117 44.5215C49.117 49.457 45.0989 53.4723 40.1599 53.4723C35.2703 53.4723 31.2833 49.5369 31.204 44.6693L31.2028 44.5215L31.2026 42.88H32.847L32.8472 44.5215C32.8472 48.5106 36.0624 51.7634 40.0392 51.8281L40.1599 51.8291C44.1518 51.8291 47.4069 48.6162 47.4716 44.6422L47.4726 44.5215L47.4723 42.88H49.1168Z" fill="#073B4C"/>
<path d="M49.4323 61.935C48.9132 61.935 48.4923 61.5154 48.4923 60.9975V59.4975C48.4923 58.9796 48.9132 58.56 49.4323 58.56C49.9514 58.56 50.3723 58.9796 50.3723 59.4975V60.9975C50.3723 61.5152 49.9514 61.935 49.4323 61.935Z" fill="#073B4C"/>
<path d="M30.7 61.935C30.1809 61.935 29.76 61.5154 29.76 60.9975V59.4975C29.76 58.9796 30.1809 58.56 30.7 58.56C31.2191 58.56 31.6399 58.9796 31.6399 59.4975V60.9975C31.6399 61.5152 31.2191 61.935 30.7 61.935Z" fill="#073B4C"/>
<path fill-rule="evenodd" clip-rule="evenodd" d="M40 62.08C38.08 62.08 35.2535 64.5246 36.16 65.28C36.5869 65.6358 38.4185 64.9314 40 64.96C41.7766 64.9922 43.3216 65.7121 43.84 65.28C44.82 64.4634 41.92 62.08 40 62.08Z" fill="#FFD166"/>
<path fill-rule="evenodd" clip-rule="evenodd" d="M36.6065 62.9083C37.6261 62.045 38.9336 61.44 40 61.44C41.0676 61.44 42.3953 62.0356 43.4158 62.8809L43.5482 62.9936L43.6749 63.1073C44.6855 64.0404 45.0943 65.0679 44.2497 65.7717C43.9307 66.0375 43.538 66.0932 43.0115 66.0403C42.936 66.0327 42.8576 66.0229 42.7731 66.0104L42.595 65.982L42.3952 65.9462L41.4557 65.7647L41.199 65.7202C40.7444 65.6453 40.3717 65.6068 39.9884 65.5999C39.7867 65.5962 39.5687 65.606 39.3313 65.6283C39.3031 65.6309 39.2749 65.6337 39.2466 65.6366L39.0748 65.6561L38.8964 65.6795L38.7073 65.7075L38.3948 65.7587L37.4219 65.9317L37.241 65.9604C37.184 65.969 37.1301 65.9765 37.0784 65.9832L36.9295 66.0006C36.4037 66.0546 36.0464 66.0184 35.7503 65.7717C34.9147 65.0753 35.3682 64.0331 36.4123 63.079L36.5404 62.9649L36.6065 62.9083ZM42.5992 63.8666C41.789 63.1955 40.7291 62.72 40 62.72C39.2806 62.72 38.2423 63.2004 37.4336 63.8852C37.07 64.1931 36.8008 64.5057 36.6801 64.7473L36.6858 64.7366L36.7987 64.7273L36.9201 64.713C36.9416 64.7102 36.9639 64.7072 36.9868 64.7039L37.1343 64.6817L37.3036 64.6535L38.2063 64.4924C38.2493 64.485 38.2914 64.4779 38.3325 64.4712L38.5696 64.4336L38.7914 64.4019C38.8273 64.3971 38.8629 64.3925 38.8982 64.3881L39.1077 64.3642L39.2117 64.3539C39.494 64.3274 39.7589 64.3155 40.0116 64.3201C40.6242 64.3312 41.1909 64.4079 41.9756 64.56L42.422 64.6477L42.8021 64.7188L42.9509 64.7428C42.974 64.7462 42.9963 64.7494 43.0179 64.7523L43.1396 64.7667C43.2276 64.7756 43.3006 64.7789 43.3585 64.7774L43.3747 64.7763L43.3476 64.7148C43.2326 64.4777 42.9658 64.1703 42.5992 63.8666Z" fill="#073B4C"/>
</svg>
