<svg width="80" height="80" viewBox="0 0 80 80" fill="none" xmlns="http://www.w3.org/2000/svg">
<path fill-rule="evenodd" clip-rule="evenodd" d="M23.3746 36.0217C22.7602 36.0217 22.2623 36.5194 22.2622 37.1334V43.3049L22.2625 43.3047V75.3627C22.2625 77.4701 23.9721 79.1784 26.0809 79.1784H54.2396C56.3484 79.1784 58.0581 77.4701 58.0581 75.3627V37.1333C58.0581 36.5194 57.56 36.0217 56.9457 36.0217H56.9454H23.3749C23.3748 36.0217 23.3747 36.0217 23.3746 36.0217Z" fill="#F6F8FF"/>
<path d="M58.0572 37.1333V43.3053H22.2622V37.1333C22.2622 36.5188 22.7599 36.0225 23.3749 36.0225H56.9445C57.5595 36.0225 58.0572 36.5188 58.0572 37.1333Z" fill="white"/>
<path fill-rule="evenodd" clip-rule="evenodd" d="M44.3597 35.2L29.0734 35.2H28.8489L23.3745 35.2L23.3213 35.2024L23.2407 35.2071C22.2364 35.2762 21.4399 36.1124 21.4399 37.1333V75.3627L21.4406 75.4408C21.4825 77.9619 23.5478 80 26.0806 80H54.2393L54.3175 79.9994C56.8404 79.9575 58.8799 77.8936 58.8799 75.3627V62.6878L58.8788 62.6441C58.8561 62.2107 58.4971 61.8662 58.0576 61.8662C57.6036 61.8662 57.2355 62.234 57.2355 62.6878V75.3627L57.2347 75.4323C57.1975 77.0512 55.8681 78.3568 54.2392 78.3568H26.0805L26.0109 78.356C24.3907 78.3189 23.0842 76.9904 23.0842 75.3627V44.1265H34.2897L34.3334 44.1253C34.7672 44.1026 35.1119 43.744 35.1119 43.3048C35.1119 42.8511 34.7438 42.4832 34.2897 42.4832H27.7644L27.7633 39.6632L27.7618 39.614C27.7501 39.4176 27.669 39.2306 27.5296 39.0884L25.33 36.8433L29.0453 36.8432L29.0734 36.8432L44.3597 36.8433L44.4034 36.8421C44.8371 36.8194 45.1819 36.4608 45.1819 36.0216C45.1819 35.5679 44.8138 35.2 44.3597 35.2ZM26.12 41.3444L24.6562 42.4832H26.12V41.3444ZM23.086 37.1012C23.0921 37.0486 23.1127 37.0006 23.1431 36.9601L25.7103 39.5804L23.0842 41.6238V37.1333L23.086 37.1012ZM56.9452 35.2001H48.4186L48.3749 35.2013C47.9412 35.224 47.5964 35.5826 47.5964 36.0217C47.5964 36.4755 47.9645 36.8434 48.4186 36.8434H54.9897L52.79 39.0886L52.7564 39.125C52.6268 39.2744 52.5563 39.4657 52.5553 39.6634V42.4833H47.491C47.491 42.4833 45.8461 42.4636 45.8453 42.4833H42.6658H41.0198H38.3488L38.3052 42.4845C37.8714 42.5072 37.5267 42.8658 37.5267 43.305C37.5267 43.7587 37.8948 44.1266 38.3488 44.1266H57.2355V58.6316L57.2366 58.6753C57.2593 59.1087 57.6182 59.4532 58.0576 59.4532C58.5117 59.4532 58.8798 59.0854 58.8798 58.6316V37.1333L58.879 37.0757C58.8491 36.062 58.0338 35.2439 57.0218 35.204L56.9991 35.2025L56.9452 35.2001ZM54.1997 42.4832V41.3444L55.6634 42.4832H54.1997ZM57.1766 36.9601L54.6094 39.5804L57.2355 41.6238V37.1333C57.2355 37.079 57.2198 37.0287 57.1936 36.9853L57.1766 36.9601Z" fill="#39405D"/>
<path d="M23.1433 36.9601C23.1129 37.0006 23.0923 37.0486 23.0863 37.1012L23.0845 37.1333V41.6238L25.7106 39.5804L23.1433 36.9601Z" fill="#F6F8FF"/>
<path d="M57.1766 36.9601L54.6094 39.5804L57.2355 41.6238V37.1333C57.2355 37.079 57.2198 37.0287 57.1936 36.9853L57.1766 36.9601Z" fill="#F6F8FF"/>
<ellipse cx="7.51977" cy="12.96" rx="1.76" ry="1.76" fill="#FFD166"/>
<path fill-rule="evenodd" clip-rule="evenodd" d="M17.743 24.6022V26.0556L17.7454 26.1106C17.7718 26.4176 18.0143 26.6583 18.3097 26.6583C18.6228 26.6583 18.8765 26.3886 18.8765 26.0556V24.6022L18.8741 24.5478C18.8482 24.2402 18.6052 24 18.3097 24C17.9972 24 17.743 24.2691 17.743 24.6022ZM19.4756 26.6583L19.4208 26.6607C19.116 26.6873 18.8765 26.931 18.8765 27.228C18.8765 27.5433 19.1448 27.7976 19.4756 27.7976H20.9233L20.9774 27.7959C21.2823 27.7698 21.5218 27.5255 21.5218 27.228C21.5218 26.9133 21.2534 26.6583 20.9233 26.6583H19.4756ZM15.6968 26.6583L15.6426 26.6607C15.3372 26.6873 15.0977 26.931 15.0977 27.228C15.0977 27.5433 15.3666 27.7976 15.6968 27.7976H17.1439L17.1986 27.7959C17.5035 27.7698 17.743 27.5255 17.743 27.228C17.743 26.9133 17.4746 26.6583 17.1439 26.6583H15.6968ZM17.743 28.4004V29.8544L17.7454 29.9094C17.7718 30.2164 18.0143 30.4572 18.3097 30.4572C18.6228 30.4572 18.8765 30.1868 18.8765 29.8544V28.4004L18.8741 28.3454C18.8482 28.0384 18.6052 27.7976 18.3097 27.7976C17.9972 27.7976 17.743 28.068 17.743 28.4004Z" fill="#FFD166"/>
<circle cx="61.4399" cy="21.12" r="3.52" fill="#FFD166"/>
<path fill-rule="evenodd" clip-rule="evenodd" d="M70.141 0.752795V2.20619L70.1434 2.26061C70.1693 2.5688 70.4123 2.80896 70.7078 2.80896C71.0203 2.80896 71.2745 2.53922 71.2745 2.20619V0.752795L71.2722 0.697783C71.2457 0.390778 71.0026 0.150024 70.7078 0.150024C70.3947 0.150024 70.141 0.419763 70.141 0.752795ZM71.8736 2.80896L71.8189 2.81132C71.514 2.83735 71.2745 3.08106 71.2745 3.3786C71.2745 3.6933 71.5429 3.94825 71.8736 3.94825H73.3208L73.3749 3.94588C73.6803 3.91986 73.9199 3.67614 73.9199 3.3786C73.9199 3.06391 73.6509 2.80896 73.3208 2.80896H71.8736ZM68.0942 2.80896L68.0401 2.81132C67.7346 2.83735 67.4951 3.08106 67.4951 3.3786C67.4951 3.6933 67.7641 3.94825 68.0942 3.94825H69.5419L69.5967 3.94588C69.9009 3.91986 70.141 3.67614 70.141 3.3786C70.141 3.06391 69.8727 2.80896 69.5419 2.80896H68.0942ZM70.141 4.55102V6.00441L70.1434 6.05942C70.1693 6.36643 70.4123 6.60718 70.7078 6.60718C71.0203 6.60718 71.2745 6.33804 71.2745 6.00441V4.55102L71.2722 4.4966C71.2457 4.189 71.0026 3.94825 70.7078 3.94825C70.3947 3.94825 70.141 4.21799 70.141 4.55102Z" fill="#FFD166"/>
<path d="M49.1169 42.88L49.117 44.5215C49.117 49.457 45.0989 53.4723 40.16 53.4723C35.2704 53.4723 31.2834 49.5369 31.2041 44.6693L31.2029 44.5215L31.2026 42.88H32.8471L32.8473 44.5215C32.8473 48.5106 36.0624 51.7634 40.0392 51.8281L40.16 51.8291C44.1519 51.8291 47.407 48.6162 47.4717 44.6422L47.4727 44.5215L47.4724 42.88H49.1169Z" fill="#39405D"/>
<path d="M49.4322 61.935C48.913 61.935 48.4922 61.5154 48.4922 60.9975V59.4975C48.4922 58.9796 48.913 58.56 49.4322 58.56C49.9513 58.56 50.3721 58.9796 50.3721 59.4975V60.9975C50.3721 61.5152 49.9513 61.935 49.4322 61.935Z" fill="#39405D"/>
<path d="M30.6997 61.935C30.1806 61.935 29.7598 61.5154 29.7598 60.9975V59.4975C29.7598 58.9796 30.1806 58.56 30.6997 58.56C31.2188 58.56 31.6397 58.9796 31.6397 59.4975V60.9975C31.6397 61.5152 31.2188 61.935 30.6997 61.935Z" fill="#39405D"/>
<path fill-rule="evenodd" clip-rule="evenodd" d="M40.0221 65.4184C41.9421 65.4184 44.7686 62.9738 43.8621 62.2184C43.4352 61.8626 41.6036 62.567 40.0221 62.5384C38.2455 62.5062 36.7006 61.7863 36.1821 62.2184C35.2021 63.035 38.1021 65.4184 40.0221 65.4184Z" fill="#FFD166"/>
<path fill-rule="evenodd" clip-rule="evenodd" d="M43.4155 64.5901C42.3959 65.4534 41.0884 66.0584 40.022 66.0584C38.9544 66.0584 37.6267 65.4628 36.6063 64.6175L36.4738 64.5048L36.3471 64.3911C35.3365 63.4579 34.9277 62.4305 35.7723 61.7267C36.0913 61.4609 36.484 61.4051 37.0105 61.4581C37.086 61.4657 37.1644 61.4755 37.2489 61.488L37.427 61.5164L37.6268 61.5522L38.5663 61.7337L38.823 61.7782C39.2776 61.8531 39.6503 61.8915 40.0336 61.8985C40.2353 61.9021 40.4534 61.8924 40.6907 61.8701C40.7189 61.8675 40.7471 61.8647 40.7754 61.8618L40.9472 61.8423L41.1257 61.8189L41.3148 61.7909L41.6273 61.7397L42.6001 61.5667L42.781 61.538C42.838 61.5294 42.8919 61.5218 42.9436 61.5152L43.0925 61.4978C43.6183 61.4438 43.9757 61.48 44.2717 61.7267C45.1073 62.4231 44.6538 63.4653 43.6097 64.4194L43.4816 64.5334L43.4155 64.5901ZM37.4228 63.6318C38.233 64.3029 39.2929 64.7784 40.022 64.7784C40.7414 64.7784 41.7797 64.298 42.5884 63.6132C42.9521 63.3053 43.2212 62.9927 43.3419 62.7511L43.3363 62.7617L43.2233 62.7711L43.1019 62.7854C43.0804 62.7882 43.0582 62.7912 43.0352 62.7944L42.8877 62.8167L42.7184 62.8448L41.8157 63.006C41.7727 63.0134 41.7307 63.0204 41.6895 63.0272L41.4524 63.0648L41.2307 63.0965C41.1947 63.1013 41.1591 63.1059 41.1238 63.1103L40.9143 63.1342L40.8103 63.1445C40.528 63.171 40.2631 63.1828 40.0104 63.1783C39.3978 63.1672 38.8311 63.0905 38.0465 62.9384L37.6001 62.8506L37.2199 62.7795L37.0711 62.7556C37.048 62.7522 37.0257 62.749 37.0041 62.7461L36.8824 62.7317C36.7944 62.7228 36.7215 62.7195 36.6635 62.721L36.6473 62.7221L36.6744 62.7836C36.7894 63.0207 37.0562 63.3281 37.4228 63.6318Z" fill="#39405D"/>
<path fill-rule="evenodd" clip-rule="evenodd" d="M39.6567 23C39.1045 23 38.6567 22.5523 38.6567 22L38.6567 13C38.6567 12.4477 39.1045 12 39.6567 12C40.209 12 40.6567 12.4477 40.6567 13L40.6567 22C40.6567 22.5523 40.209 23 39.6567 23Z" fill="#39405D"/>
<path fill-rule="evenodd" clip-rule="evenodd" d="M33.3638 24.2929C32.9733 24.6834 32.3402 24.6834 31.9496 24.2929L27.707 20.0503C27.3165 19.6597 27.3165 19.0266 27.707 18.636C28.0975 18.2455 28.7307 18.2455 29.1212 18.636L33.3638 22.8787C33.7544 23.2692 33.7544 23.9024 33.3638 24.2929Z" fill="#39405D"/>
<path fill-rule="evenodd" clip-rule="evenodd" d="M45.9496 24.2929C46.3402 24.6834 46.9733 24.6834 47.3638 24.2929L51.6065 20.0503C51.997 19.6597 51.997 19.0266 51.6065 18.636C51.216 18.2455 50.5828 18.2455 50.1923 18.636L45.9496 22.8787C45.5591 23.2692 45.5591 23.9024 45.9496 24.2929Z" fill="#39405D"/>
</svg>
