<svg width="80" height="80" viewBox="0 0 80 80" fill="none" xmlns="http://www.w3.org/2000/svg">
<g id="Finish-flag">
<path id="Fill-2" fill-rule="evenodd" clip-rule="evenodd" d="M33.9807 18.4055V38.0705H62.9685L53.0826 28.1795L63.0854 18.1716L33.9807 18.4055Z" fill="#FFE5AA"/>
<g id="Vector">
<path fill-rule="evenodd" clip-rule="evenodd" d="M29.4178 61.7247H34.5396V14.043H29.4178V61.7247Z" fill="#E7E3FF"/>
<path d="M55.14 35.1843C55.302 35.3433 55.5127 35.4229 55.7234 35.4229C55.9396 35.4229 56.1565 35.3393 56.321 35.1708C56.6438 34.8415 56.6382 34.3126 56.3083 33.9906L49.6748 27.4951L55.9022 21.6962C56.2392 21.3828 56.2583 20.8541 55.9443 20.5169C55.6304 20.1781 55.1018 20.159 54.7648 20.4739L47.8966 26.8684C47.7305 27.0236 47.6337 27.2414 47.6311 27.4689C47.6281 27.6971 47.7186 27.9173 47.8816 28.0764L55.14 35.1843Z" fill="#1E243D"/>
<path fill-rule="evenodd" clip-rule="evenodd" d="M26.4347 14.5955H27.7487V60.8897H18.9794C18.5183 60.8897 18.1448 61.2634 18.1448 61.7247V64.8269H16.2364C15.7754 64.8269 15.4019 65.2006 15.4019 65.6619V68.757H11.9737C11.5127 68.757 11.1392 69.1307 11.1392 69.592C11.1392 70.0533 11.5127 70.427 11.9737 70.427H16.2318L16.2364 70.427H46.0535L46.0581 70.427H67.7849C68.2459 70.427 68.6202 70.0533 68.6202 69.592C68.6202 69.1307 68.2467 68.757 67.7857 68.757H46.888V65.6619C46.888 65.2006 46.5145 64.8269 46.0535 64.8269H44.1436V61.7247C44.1436 61.2634 43.7699 60.8897 43.309 60.8897H34.5396V38.5808H63.5223C63.8616 38.5808 64.1668 38.3749 64.2947 38.0608C64.4228 37.7466 64.348 37.3864 64.1057 37.1494L54.3538 27.6017L64.0904 18.5392C64.3416 18.3053 64.4244 17.942 64.2988 17.6231C64.1732 17.3033 63.8657 17.0935 63.5223 17.0935H34.5396V14.5955H35.8542C36.3153 14.5955 36.688 14.2218 36.6888 13.7605V9.94893C36.6888 9.48762 36.3153 9.11392 35.8542 9.11392H26.4347C25.9738 9.11392 25.6002 9.48762 25.6002 9.94893V13.7605C25.6002 14.2218 25.9738 14.5955 26.4347 14.5955ZM27.2693 12.9255H28.5795L28.5833 12.9255H33.7051L33.7088 12.9255H35.0197V10.7839H27.2693V12.9255ZM28.5786 62.5597L28.5833 62.5597H33.7051L33.7097 62.5597H42.4752V64.8269H19.8139V62.5597H28.5786ZM32.8713 60.8897V37.7824C32.8708 37.7703 32.8705 37.7581 32.8705 37.7458V17.9285C32.8705 17.9162 32.8708 17.904 32.8713 17.8919V14.5955H29.4178V60.8897H32.8713ZM61.4764 36.9108H34.5396L34.5396 18.7635H61.4L52.5766 26.9751C52.4105 27.1301 52.3135 27.348 52.3112 27.5754C52.3081 27.8037 52.3986 28.024 52.5616 28.183L61.4764 36.9108ZM45.2191 66.4962V68.757L17.071 68.757V66.4962H45.2191Z" fill="#1E243D"/>
</g>
<g id="Vector_2">
<path d="M52.3339 48.8717C53.3922 48.8717 54.2499 49.7295 54.2499 50.7877C54.2491 51.8456 53.3917 52.7029 52.3339 52.7038C51.2756 52.7038 50.4179 51.8458 50.4179 50.7877C50.4179 49.7295 51.2756 48.8717 52.3339 48.8717ZM52.3339 49.5684C51.6604 49.5684 51.1146 50.1142 51.1146 50.7877C51.1146 51.4611 51.6605 52.007 52.333 52.007C53.0067 52.0065 53.5527 51.4605 53.5532 50.7877C53.5532 50.1142 53.0074 49.5684 52.3339 49.5684Z" fill="#1E243D"/>
<path fill-rule="evenodd" clip-rule="evenodd" d="M62.0714 52.0101L60.7754 53.3062L60.729 53.3568C60.4773 53.6548 60.481 54.0868 60.7458 54.3516C61.0259 54.6317 61.4942 54.619 61.7912 54.322L63.0873 53.026L63.1342 52.9748C63.3842 52.6773 63.3811 52.2448 63.1168 51.9805C62.8363 51.6999 62.3684 51.7131 62.0714 52.0101ZM61.7906 55.3965L61.7395 55.3495C61.4431 55.0995 61.0111 55.1022 60.7457 55.3675C60.4651 55.6481 60.4783 56.116 60.7747 56.4124L62.0717 57.7094L62.1223 57.7558C62.4193 58.0063 62.8513 58.0037 63.1166 57.7383C63.3972 57.4577 63.3835 56.9893 63.0876 56.6934L61.7906 55.3965ZM58.4034 52.0092L58.3528 51.9628C58.0558 51.7123 57.6238 51.7149 57.3585 51.9803C57.0779 52.2609 57.0916 52.7293 57.3875 53.0252L58.685 54.3227L58.7361 54.3696C59.032 54.6191 59.4646 54.617 59.7299 54.3516C60.0105 54.071 59.9973 53.6032 59.7009 53.3067L58.4034 52.0092ZM58.6844 55.3971L57.3884 56.6932L57.3414 56.7443C57.0909 57.0413 57.094 57.4738 57.3588 57.7386C57.6388 58.0187 58.1067 58.0065 58.4042 57.709L59.7003 56.413L59.7467 56.3623C59.9972 56.0643 59.9941 55.6318 59.7298 55.3675C59.4492 55.0869 58.9814 55.1001 58.6844 55.3971Z" fill="#1E243D"/>
<path fill-rule="evenodd" clip-rule="evenodd" d="M18.8033 14.8621C19.0529 14.8621 19.2583 15.0787 19.2803 15.3555L19.2823 15.4049V16.7143C19.2823 17.0142 19.0676 17.2571 18.8033 17.2571C18.5537 17.2571 18.3483 17.0405 18.3263 16.7637L18.3243 16.7143V15.4049C18.3243 15.105 18.539 14.8621 18.8033 14.8621ZM21.135 13.904C21.4343 13.904 21.6774 14.1184 21.6774 14.3831C21.6774 14.633 21.4605 14.8381 21.1843 14.8601L21.135 14.8621H19.8246C19.5254 14.8621 19.2823 14.6477 19.2823 14.3831C19.2823 14.1331 19.4991 13.928 19.7753 13.906L19.8246 13.904H21.135ZM17.782 13.904C18.0812 13.904 18.3243 14.1184 18.3243 14.3831C18.3243 14.633 18.1075 14.8381 17.8313 14.8601L17.782 14.8621H16.4716C16.1723 14.8621 15.9292 14.6477 15.9292 14.3831C15.9292 14.1331 16.1461 13.928 16.4223 13.906L16.4716 13.904H17.782ZM18.8033 11.509C19.0529 11.509 19.2583 11.7257 19.2803 12.0024L19.2823 12.0519V13.3612C19.2823 13.6612 19.0676 13.904 18.8033 13.904C18.5537 13.904 18.3483 13.6874 18.3263 13.4106L18.3243 13.3612V12.0519C18.3243 11.7519 18.539 11.509 18.8033 11.509Z" fill="#FFE5AA"/>
<path d="M13.7738 20.1312C12.3186 20.1312 11.1392 21.3109 11.1392 22.7657C11.1392 24.2206 12.3186 25.4003 13.7737 25.4003C15.2288 25.4003 16.4083 24.2206 16.4083 22.7659C16.407 21.3111 15.2284 20.1322 13.7738 20.1312ZM13.7193 21.0901L13.7733 21.0892C14.699 21.0899 15.4495 21.8401 15.4502 22.7662C15.4502 23.6917 14.6995 24.4422 13.7737 24.4422C12.8479 24.4422 12.0972 23.6917 12.0972 22.7657C12.0972 21.8579 12.8188 21.1187 13.7193 21.0901Z" fill="#FFE5AA"/>
</g>
</g>
</svg>
