<svg width="120" height="120" viewBox="0 0 120 120" fill="none" xmlns="http://www.w3.org/2000/svg">
<g id="Fintech/illustrations/standards/large/Fist Bump">
<path id="Path" d="M98.9945 56.4068L87.1409 46.6627C86.0454 45.7577 84.6572 45.2678 83.2418 45.2678L72.9396 45.268C70.7757 45.268 69.0133 47.0304 69.0133 49.1943L69.0133 50.8002L65.8423 50.8002C64.4133 50.8002 63.0524 51.3582 62.0385 52.3722C61.0246 53.3861 60.4666 54.7334 60.4666 56.176C60.4666 57.6049 61.0245 58.9659 62.0384 59.9797C62.297 60.2383 62.5692 60.4561 62.8618 60.6534C61.9976 61.6129 61.46 62.8989 61.46 64.3143C61.4599 66.0835 62.2833 67.6418 63.5557 68.6284C62.5622 69.6083 61.943 70.9624 61.943 72.4595C61.943 74.3784 62.95 76.0523 64.4606 77.0049C63.5692 77.9916 63.0657 79.2573 63.0724 80.5978C63.0724 83.5646 65.4812 85.9734 68.448 85.9734L77.8657 85.9733L86.807 85.9732C90.3182 85.9731 93.5912 84.5917 96.0001 82.1829C96.5513 81.6317 97.0616 81.0261 97.5175 80.366L114.686 80.359C115.039 80.359 115.373 80.2161 115.611 79.9779C115.849 79.7397 115.992 79.4199 115.992 79.0525L115.992 57.7131C115.992 56.9918 115.407 56.4066 114.693 56.4134L98.9945 56.4068Z" fill="#073B4C"/>
<path id="Path_2" d="M63.067 56.1763C63.067 55.4414 63.3528 54.7473 63.8768 54.2233C64.4007 53.6993 65.0948 53.4135 65.8297 53.4135L69.0007 53.4135L69.0074 58.9457L65.8365 58.9457C64.3122 58.9457 63.067 57.7005 63.067 56.1763Z" fill="#E9F4FC"/>
<path id="Path_3" d="M66.632 67.0771C65.9651 67.0771 65.3187 66.7981 64.8424 66.2946C64.3456 65.7706 64.0666 65.0697 64.0735 64.3144C64.0735 63.5659 64.3457 62.8582 64.8424 62.3343C65.3255 61.8375 65.9584 61.5449 66.632 61.5517L69.0137 61.5517C69.0477 61.8443 69.1702 62.1301 69.3811 62.341C69.6261 62.586 69.9527 62.7221 70.3065 62.7221L73.0148 62.722C74.3893 62.722 75.6958 62.3137 76.805 61.5584L77.8529 61.5584L78.057 61.5584C78.7239 61.5584 79.3703 61.8373 79.8466 62.3409C80.3434 62.8648 80.6224 63.5657 80.6155 64.321C80.6155 65.0695 80.3433 65.7772 79.8466 66.3012C79.3635 66.8115 78.7306 67.0905 78.057 67.0837L77.8528 67.0837L67.3192 67.0839L66.632 67.0771Z" fill="#E9F4FC"/>
<path id="Path_4" d="M64.5503 72.4527C64.5503 70.9285 65.7956 69.6832 67.3198 69.6832L77.8534 69.6831C79.3776 69.6831 80.6161 70.9215 80.6228 72.4525C80.6228 73.9768 79.3844 75.2152 77.8533 75.2221L68.4357 75.2222L67.3061 75.2222C65.7955 75.2222 64.5503 73.977 64.5503 72.4527Z" fill="#E9F4FC"/>
<path id="Path_5" d="M65.6792 80.5909C65.6792 79.856 65.965 79.162 66.489 78.638C67.0129 78.114 67.707 77.8282 68.4419 77.8282L77.8595 77.8281C79.3838 77.8281 80.6222 79.0665 80.629 80.5975C80.629 82.1218 79.3837 83.3671 77.8595 83.3671L68.4418 83.3672C66.9244 83.3604 65.6792 82.1152 65.6792 80.5909Z" fill="#E9F4FC"/>
<path id="Path_6" d="M113.386 77.7528L96.8104 77.753C96.7968 77.753 96.7968 77.753 96.7832 77.753C96.7287 77.753 96.6811 77.7598 96.6335 77.7666C96.5994 77.7734 96.5586 77.7734 96.5246 77.7803C96.477 77.7871 96.4429 77.8075 96.3953 77.8143C96.3545 77.8279 96.3204 77.8347 96.2864 77.8551C96.2456 77.8687 96.2048 77.8959 96.1707 77.9163C96.1367 77.9368 96.1027 77.9572 96.0687 77.9776C96.0347 77.998 96.0006 78.032 95.9734 78.0592C95.9462 78.0865 95.9054 78.1137 95.8781 78.1409C95.8509 78.1681 95.8305 78.2021 95.8033 78.2294C95.7761 78.2702 95.7421 78.3042 95.7148 78.345C95.708 78.3519 95.7012 78.3587 95.6944 78.3655C93.7823 81.4888 90.4548 83.3465 86.8007 83.3534L82.4457 83.3534C82.9289 82.5437 83.2215 81.5978 83.2215 80.5907C83.2215 78.9576 82.4934 77.5082 81.3435 76.5216C81.4455 76.4331 81.5476 76.3447 81.6429 76.2494C82.6159 75.2763 83.2216 73.9358 83.2216 72.4524C83.2216 70.8465 82.5071 69.3971 81.3776 68.4173C81.466 68.3424 81.5545 68.2676 81.6362 68.1859C82.235 67.5871 82.6977 66.8386 82.9631 66.0016C85.0045 67.8116 87.6923 68.9207 90.6319 68.9207C90.9857 68.9207 91.3192 68.7778 91.5573 68.5396C91.7955 68.3014 91.9384 67.9816 91.9384 67.6142C91.9384 66.8929 91.3532 66.3077 90.6387 66.3145C85.7122 66.3146 81.6975 62.2999 81.6975 57.3733C81.6975 56.4343 81.8405 55.502 82.1331 54.6106C82.1671 54.5222 82.1807 54.4269 82.1943 54.3316L82.1943 54.318C82.2011 54.2432 82.2079 54.1547 82.2011 54.0799C82.2011 54.0663 82.1943 54.0458 82.1943 54.0322C82.1807 53.9642 82.1807 53.8961 82.1535 53.8281C82.1535 53.8145 82.1399 53.8009 82.1399 53.7873C82.1195 53.726 82.0922 53.658 82.065 53.5899C82.0582 53.5831 82.0514 53.5627 82.0446 53.5559C82.0106 53.4947 81.9766 53.4334 81.9289 53.3722C81.9085 53.3518 81.8949 53.3382 81.8745 53.3178C81.8337 53.2769 81.7997 53.2293 81.7588 53.1885L79.3092 51.0382C79.2888 51.0178 79.2684 51.011 79.2479 50.9906C79.2071 50.9634 79.1799 50.9362 79.1391 50.9089C79.105 50.8885 79.071 50.8681 79.0234 50.8477C78.9894 50.8273 78.9485 50.8137 78.9077 50.8001C78.8669 50.7865 78.8261 50.7729 78.7852 50.7592C78.7444 50.7456 78.7104 50.7388 78.6627 50.732C78.6151 50.7252 78.5743 50.7252 78.5267 50.7184C78.4994 50.7184 78.4722 50.7048 78.445 50.7048C78.4314 50.7048 78.4178 50.7048 78.3974 50.7116C78.3565 50.7116 78.3225 50.7184 78.2817 50.7184C78.2341 50.7252 78.1864 50.732 78.1388 50.7388C78.1048 50.7456 78.0843 50.7525 78.0571 50.7661C78.0027 50.7797 77.9483 50.8069 77.9006 50.8273C77.8802 50.8341 77.8598 50.8545 77.8394 50.8613C77.7849 50.8885 77.7373 50.9226 77.6897 50.9566C77.6693 50.977 77.642 50.9906 77.6216 51.011C77.5808 51.0519 77.54 51.0791 77.4991 51.1199C77.4923 51.1267 77.4787 51.1403 77.4719 51.1471C77.4515 51.1675 77.4447 51.188 77.4243 51.2084C77.3971 51.2492 77.3699 51.2764 77.3426 51.3172C77.3222 51.3513 77.3018 51.3853 77.2882 51.4261C77.2678 51.4601 77.2542 51.501 77.2406 51.5418C77.227 51.5826 77.2133 51.6235 77.1997 51.6643C77.1861 51.7051 77.1793 51.7391 77.1725 51.7868C77.1657 51.8344 77.1589 51.882 77.1589 51.9229C77.1589 51.9501 77.1521 51.9705 77.1521 51.9977L77.152 55.9444C77.152 57.0468 76.7233 58.0879 75.9476 58.8636C75.1719 59.6393 74.1307 60.0681 73.0284 60.0681L71.6266 60.0681L71.6268 49.1534C71.6268 48.7996 71.7629 48.473 72.0146 48.2212C72.2664 47.9694 72.593 47.8333 72.9469 47.8333L83.2491 47.8332C84.0657 47.8332 84.8686 48.119 85.4946 48.6361L97.7156 58.6796C97.7292 58.6932 97.7497 58.7 97.7633 58.7136C97.7973 58.734 97.8245 58.7613 97.8585 58.7817C97.8926 58.8021 97.9334 58.8293 97.9742 58.8429C98.0082 58.8633 98.0423 58.8701 98.0763 58.8906C98.1171 58.9042 98.1647 58.9246 98.2124 58.9314C98.2464 58.9382 98.2804 58.945 98.3144 58.9518C98.3621 58.9586 98.4165 58.9586 98.4641 58.9654C98.4914 58.9654 98.5118 58.9722 98.5254 58.9722L113.387 58.972L113.386 77.7528Z" fill="#E9F4FC"/>
<path id="Path_7" d="M57.5819 72.4528C57.5819 70.9422 56.9423 69.5677 55.9352 68.5878C56.1257 68.4381 56.3231 68.2816 56.4932 68.1115C57.4663 67.1384 58.0719 65.7979 58.0719 64.3145C58.0719 62.9127 57.5276 61.6335 56.6362 60.674C56.9424 60.4767 57.235 60.2385 57.5004 59.9731C58.5143 58.9592 59.0723 57.6119 59.0723 56.1693C59.0723 53.2025 56.6635 50.7937 53.6967 50.7937L50.5189 50.8006L50.5189 49.1947C50.519 47.0308 48.7566 45.2684 46.5927 45.2684L36.2905 45.2686C34.8751 45.2686 33.487 45.7585 32.3914 46.6636L20.5376 56.408L4.8325 56.4082C4.49226 56.4082 4.15203 56.5443 3.90706 56.7892C3.66209 57.0342 3.52599 57.3608 3.52599 57.7147L3.53933 79.054C3.53932 79.7753 4.12451 80.3605 4.839 80.3537L22.0139 80.3535C24.4499 83.8782 28.3966 85.9604 32.7175 85.9536L48.2593 85.9534L51.0765 85.9533C52.5599 85.9533 53.9004 85.3477 54.8735 84.3746C55.8466 83.4015 56.4522 82.061 56.4522 80.5776C56.4522 79.1894 55.9215 77.9374 55.0641 76.9848C55.4043 76.767 55.7174 76.522 56.0032 76.2362C56.9762 75.2768 57.5819 73.9363 57.5819 72.4528Z" fill="#073B4C"/>
<path id="Path_8" d="M52.2127 75.2222L51.0831 75.2223C50.3619 75.2223 49.7766 75.8075 49.7766 76.5288C49.7766 76.8826 49.9195 77.216 50.1577 77.4542C50.3346 77.6311 50.5592 77.7604 50.8177 77.8148C50.9062 77.8352 50.9947 77.842 51.0763 77.842C52.6006 77.842 53.839 79.0805 53.8458 80.6115C53.8457 82.1357 52.6005 83.381 51.0762 83.381L48.2659 83.3606L32.7241 83.3608C29.0632 83.3609 25.7426 81.4965 23.8305 78.3732C23.8237 78.3663 23.8169 78.3595 23.8101 78.3527C23.7829 78.3119 23.7557 78.2711 23.7216 78.2371C23.6944 78.2098 23.674 78.1758 23.6468 78.1486C23.6196 78.1214 23.5856 78.0874 23.5515 78.0669C23.5243 78.0397 23.4903 78.0057 23.4563 77.9853C23.4222 77.9649 23.3882 77.9445 23.3542 77.9241C23.3202 77.9036 23.2794 77.8764 23.2385 77.8628C23.1977 77.8492 23.1569 77.8356 23.1228 77.8288C23.082 77.8152 23.0412 77.8016 23.0004 77.788C22.9663 77.7812 22.9323 77.7744 22.8915 77.7744C22.8439 77.7676 22.7962 77.7607 22.7418 77.7607C22.7282 77.7607 22.7282 77.7607 22.7146 77.7607L6.14526 77.7542L6.1455 59.0142L21.0068 59.014C21.0204 59.014 21.0409 59.0072 21.0681 59.0072C21.1157 59.0004 21.1565 59.0004 21.2042 58.9936C21.2382 58.9868 21.2858 58.98 21.3199 58.9732C21.3607 58.9595 21.4015 58.9459 21.4423 58.9323C21.4832 58.9187 21.524 58.9051 21.558 58.8847C21.592 58.8643 21.6329 58.8507 21.6669 58.8302C21.7077 58.803 21.7417 58.7826 21.7826 58.7554C21.7962 58.7418 21.8166 58.735 21.8302 58.7214L34.0515 48.6776C34.6775 48.1604 35.4805 47.8746 36.297 47.8746L46.5992 47.8745C47.3341 47.8745 47.9261 48.4665 47.9193 49.1945L47.9193 50.8004L41.6726 50.8005C40.9513 50.8005 40.3661 51.3857 40.3729 52.1002C40.3729 52.8215 40.9581 53.4067 41.6726 53.3999L49.2258 53.3998L53.7032 53.3997C54.4381 53.3997 55.1322 53.6855 55.6561 54.2095C56.1801 54.7334 56.4659 55.4275 56.4659 56.1624C56.4658 56.8973 56.18 57.5914 55.6561 58.1153C55.1321 58.6393 54.438 58.9251 53.7031 58.9251L52.7097 58.9251C52.5327 58.9251 52.3626 58.9592 52.1993 59.0272C51.8319 59.1769 51.5597 59.5035 51.4576 59.8914C51.4508 59.9118 51.4372 59.939 51.4372 59.9663C51.4304 59.9731 51.4372 59.9799 51.4304 59.9867C51.4168 60.0683 51.41 60.1432 51.41 60.2248C51.41 60.9461 51.9951 61.5313 52.7164 61.5313C54.2407 61.5313 55.4791 62.7697 55.4859 64.3008C55.4859 65.825 54.2474 67.0635 52.7232 67.0635L52.2332 67.0635C52.206 67.0635 52.1856 67.0703 52.1584 67.0703C51.4711 67.1043 50.9199 67.6691 50.9267 68.37C50.9267 68.4244 50.9335 68.4721 50.9403 68.5197C50.9471 68.5537 50.9471 68.5945 50.9539 68.6286C50.9744 68.7034 50.988 68.7715 51.022 68.8463C51.0288 68.8531 51.0288 68.8667 51.0288 68.8803C51.056 68.9484 51.09 69.0096 51.1309 69.0641C51.1377 69.0709 51.1445 69.0913 51.1513 69.0981C51.1785 69.1389 51.2193 69.1797 51.2533 69.2274C51.2738 69.2478 51.2874 69.275 51.3078 69.2954C51.3282 69.3158 51.3554 69.3294 51.3758 69.3499C51.6072 69.554 51.9066 69.6765 52.2332 69.6765C53.7574 69.6764 54.9959 70.9149 55.0027 72.4459C54.9754 73.9838 53.737 75.2222 52.2127 75.2222Z" fill="#E9F4FC"/>
<path id="Path_9" d="M37.1823 43.0299C37.6926 42.5195 37.6858 41.6962 37.1823 41.1926L28.8263 32.8366C28.3159 32.3263 27.4926 32.3331 26.989 32.8367C26.4787 33.347 26.4855 34.1704 26.989 34.6739L35.345 43.0299C35.8485 43.547 36.6719 43.5402 37.1823 43.0299Z" fill="#073B4C"/>
<path id="Path_10" d="M82.3483 88.1985C81.838 88.7089 81.8448 89.5323 82.3483 90.0358L90.7043 98.3918C91.2146 98.9021 92.038 98.8953 92.5416 98.3918C93.0519 97.8814 93.0451 97.0581 92.5416 96.5545L84.1924 88.2053C83.682 87.695 82.8519 87.695 82.3483 88.1985Z" fill="#073B4C"/>
<path id="Path_11" d="M37.1746 88.2061C36.6643 87.6958 35.8409 87.7026 35.3373 88.2061L26.9811 96.5623C26.4708 97.0727 26.4776 97.896 26.9811 98.3996C27.4915 98.9099 28.3148 98.9031 28.8184 98.3995L37.1746 90.0433C37.6917 89.5398 37.6849 88.7164 37.1746 88.2061Z" fill="#073B4C"/>
<path id="Path_12" d="M90.7084 32.836L82.3522 41.1922C81.8419 41.7026 81.8487 42.5259 82.3522 43.0295C82.8626 43.5398 83.6859 43.533 84.1895 43.0294L92.5457 34.6732C93.056 34.1629 93.0492 33.3395 92.5457 32.836C92.0422 32.3324 91.2188 32.3256 90.7084 32.836Z" fill="#073B4C"/>
<path id="Path_13" d="M58.4592 98.8616L58.459 110.674C58.459 111.396 59.0442 111.981 59.7587 111.974C60.1126 111.974 60.446 111.831 60.6842 111.593C60.9223 111.355 61.0652 111.035 61.0652 110.668L61.0654 98.8547C61.0654 98.1334 60.4802 97.5482 59.7657 97.5551C59.0444 97.5551 58.4592 98.1403 58.4592 98.8616Z" fill="#073B4C"/>
<path id="Path_14" d="M60.6852 33.299C60.9233 33.0609 61.0662 32.7411 61.0662 32.3736L61.0664 20.5607C61.0664 19.8395 60.4812 19.2543 59.7667 19.2611C59.0454 19.2611 58.4602 19.8463 58.467 20.5608L58.4669 32.3736C58.4668 33.0949 59.052 33.6801 59.7665 33.6733C60.1272 33.6801 60.4538 33.5304 60.6852 33.299Z" fill="#073B4C"/>
<path id="Path_15" d="M47.5383 95.1259C46.8714 94.8537 46.1093 95.1667 45.8371 95.8336L41.3187 106.748C41.0465 107.415 41.3595 108.177 42.0264 108.449C42.5299 108.654 43.0879 108.531 43.4485 108.17C43.5642 108.055 43.6663 107.912 43.7343 107.749L48.2528 96.8338C48.525 96.167 48.2119 95.4048 47.5383 95.1259Z" fill="#073B4C"/>
<path id="Path_16" d="M71.9883 36.1091C72.4919 36.3133 73.0498 36.1908 73.4105 35.8301C73.5262 35.7144 73.6282 35.5715 73.6963 35.4082L78.2147 24.4935C78.4869 23.8267 78.1739 23.0645 77.507 22.7924C76.8402 22.5202 76.0781 22.8332 75.8059 23.5001L71.2875 34.4148C71.0085 35.0748 71.3215 35.8369 71.9883 36.1091Z" fill="#073B4C"/>
<path id="Path_17" d="M71.9874 95.1325C71.3206 95.4047 71.0075 96.1668 71.2797 96.8337L75.7979 107.748C76.07 108.415 76.8321 108.728 77.499 108.456C77.6623 108.388 77.7984 108.293 77.9209 108.17C78.2815 107.809 78.4176 107.251 78.1999 106.748L73.6818 95.8334C73.4164 95.1733 72.6475 94.8535 71.9874 95.1325Z" fill="#073B4C"/>
<path id="Path_18" d="M47.5449 36.1092C47.7082 36.0412 47.8443 35.9459 47.9668 35.8234C48.3274 35.4628 48.4635 34.9048 48.2458 34.4012L43.7276 23.4866C43.4554 22.8198 42.6933 22.5068 42.0265 22.779C41.3596 23.0512 41.0466 23.8133 41.3188 24.4801L45.8369 35.3947C46.1159 36.0684 46.878 36.3814 47.5449 36.1092Z" fill="#073B4C"/>
<ellipse id="Oval" cx="100.953" cy="102.497" rx="1.17966" ry="1.18403" fill="#FFD166"/>
<ellipse id="Oval_2" cx="35.2832" cy="109.569" rx="1.17966" ry="1.18403" fill="#FFD166"/>
<ellipse id="Oval_3" cx="53.0605" cy="10.2402" rx="1.17966" ry="1.18403" fill="#FFD166"/>
<path id="Shape" fill-rule="evenodd" clip-rule="evenodd" d="M12.3157 91.6365C13.0964 92.9025 14.4503 93.5999 15.8347 93.5999C16.5752 93.5999 17.3246 93.4004 17.9988 92.9821C18.9369 92.4002 19.5931 91.4861 19.8461 90.4089C20.0991 89.3315 19.9192 88.2197 19.3394 87.2781C18.7596 86.3365 17.8492 85.6779 16.7755 85.4239C15.7034 85.1696 14.5948 85.3502 13.6564 85.9324C12.7183 86.5144 12.0621 87.4284 11.8091 88.5056C11.556 89.5831 11.7356 90.6949 12.3157 91.6365ZM16.7583 90.9675C15.9285 91.4826 14.8358 91.2236 14.3226 90.3909C14.074 89.9877 13.9971 89.5112 14.1056 89.0494C14.2144 88.5876 14.4955 88.1957 14.8974 87.9462C15.2997 87.6966 15.7739 87.6188 16.2343 87.7283C16.6943 87.8372 17.0845 88.1196 17.3331 88.5231C17.5815 88.9265 17.6587 89.4028 17.5502 89.8646C17.4414 90.3264 17.1603 90.718 16.7583 90.9675Z" fill="#FFD166"/>
<path id="Shape_2" fill-rule="evenodd" clip-rule="evenodd" d="M93.1029 20.4041C93.8835 21.6701 95.2374 22.3675 96.6218 22.3675C97.3623 22.3675 98.1117 22.168 98.7859 21.7497C99.724 21.1678 100.38 20.2537 100.633 19.1765C100.886 18.0991 100.706 16.9872 100.127 16.0456C99.5467 15.104 98.6363 14.4454 97.5626 14.1915C96.4905 13.9372 95.382 14.1178 94.4435 14.7C93.5054 15.2819 92.8492 16.196 92.5962 17.2732C92.3431 18.3507 92.5228 19.4625 93.1029 20.4041ZM97.5454 19.7351C96.7156 20.2501 95.6229 19.9911 95.1097 19.1585C94.8611 18.7553 94.7842 18.2787 94.8927 17.817C95.0015 17.3552 95.2826 16.9633 95.6845 16.7137C96.0868 16.4642 96.561 16.3866 97.0214 16.4959C97.4815 16.6048 97.8716 16.8872 98.1202 17.2907C98.3686 17.6941 98.4458 18.1704 98.3373 18.6322C98.2285 19.0939 97.9474 19.4856 97.5454 19.7351Z" fill="#FFD166"/>
</g>
</svg>
