<svg width="85" height="79" viewBox="0 0 85 79" fill="none" xmlns="http://www.w3.org/2000/svg">
<path d="M30.2393 17.5003C28.3254 15.3654 25.5473 14.0237 22.4574 14.0237C16.6802 14.0237 12 18.7078 12 24.4811C12 27.7406 13.4917 30.6529 15.8317 32.5708C18.8032 26.0714 23.9017 20.7519 30.2393 17.4963V17.5003Z" stroke="#39405D" stroke-width="2" stroke-miterlimit="10"/>
<path d="M76.4965 45.7668C76.4965 63.3116 62.2745 77.5336 44.7297 77.5336C27.185 77.5336 12.9629 63.3116 12.9629 45.7668C12.9629 28.2221 27.185 14 44.7297 14C62.2745 14 76.4965 28.2221 76.4965 45.7668ZM44.7297 32.0025C37.1293 32.0025 30.9654 38.1625 30.9654 45.7668C30.9654 53.3711 37.1254 59.5311 44.7297 59.5311C52.334 59.5311 58.494 53.3711 58.494 45.7668C58.494 38.1625 52.334 32.0025 44.7297 32.0025Z" fill="#D3CCFE"/>
<path d="M71.3045 27L57.8526 40.4519C57.8406 40.4198 58.7104 43.5543 58.7104 45.2779C58.7104 47.6228 58.1131 49.8674 57.083 51.8155L70.2784 64.9788C74.4911 59.5275 77.0003 52.6973 77.0003 45.2779C76.9963 38.4878 74.8879 32.1948 71.3045 27Z" fill="#E7E3FF"/>
<path d="M18.6918 27L32.1437 40.4519C32.1557 40.4198 31.2859 43.5543 31.2859 45.2779C31.2859 47.6228 31.8832 49.8674 32.9133 51.8155L19.7179 64.9788C15.5132 59.5315 13 52.6973 13 45.2779C13 38.4878 15.1084 32.1948 18.6918 27Z" fill="#E7E3FF"/>
<path d="M56.9015 52.1873C55.3545 55.1153 52.7777 57.416 49.6562 58.6156L62.876 71.8353C65.5357 69.9806 67.8995 67.7273 69.8805 65.1663L56.9054 52.1912L56.9015 52.1873Z" fill="white" stroke="#39405D" stroke-width="2" stroke-miterlimit="10"/>
<path d="M18.6621 27.6222L31.8818 40.8419C33.0815 37.7205 35.3821 35.1475 38.3102 33.5967L25.3312 20.6177C22.7661 22.5987 20.5168 24.9585 18.6621 27.6222Z" fill="white" stroke="#39405D" stroke-width="2" stroke-miterlimit="10"/>
<path d="M26.7275 71.938L39.9788 58.6867C36.8336 57.5305 34.2292 55.2575 32.6428 52.3491L19.6914 65.3005C21.6842 67.8537 24.0598 70.0951 26.7314 71.9341L26.7275 71.938Z" fill="white" stroke="#39405D" stroke-width="2" stroke-miterlimit="10"/>
<path d="M64.2639 20.7283L51.3125 33.6797C54.2208 35.2661 56.4938 37.8706 57.6501 41.0157L70.9014 27.7644C69.0585 25.0928 66.821 22.7211 64.2678 20.7244L64.2639 20.7283Z" fill="white" stroke="#39405D" stroke-width="2" stroke-miterlimit="10"/>
<path d="M44.7297 77.5336C62.274 77.5336 76.4965 63.3111 76.4965 45.7668C76.4965 28.2225 62.274 14 44.7297 14C27.1854 14 12.9629 28.2225 12.9629 45.7668C12.9629 63.3111 27.1854 77.5336 44.7297 77.5336Z" stroke="#39405D" stroke-width="2" stroke-miterlimit="10"/>
<path d="M73.8014 32.9612C76.3507 31.0552 78.0002 28.0087 78.0002 24.5795C78.0002 18.8022 73.32 14.1221 67.5428 14.1221C64.3937 14.1221 61.5682 15.519 59.6504 17.721C65.913 21.0595 70.9168 26.4342 73.7975 32.9612H73.8014Z" stroke="#39405D" stroke-width="2" stroke-miterlimit="10"/>
<path d="M15.7794 58.8445C13.5262 60.7623 12.0977 63.6154 12.0977 66.8079C12.0977 72.5851 16.7778 77.2653 22.5551 77.2653C25.5463 77.2653 28.2455 76.0065 30.1515 73.99C23.8178 70.7107 18.7312 65.3675 15.7794 58.8445Z" stroke="#39405D" stroke-width="2" stroke-miterlimit="10"/>
<path d="M58.418 74.436C60.32 76.421 62.9955 77.6561 65.9631 77.6561C71.7403 77.6561 76.4205 72.9759 76.4205 67.1987C76.4205 64.2667 75.2129 61.6188 73.2675 59.7207C70.1224 66.1451 64.8739 71.3501 58.418 74.436Z" stroke="#39405D" stroke-width="2" stroke-miterlimit="10"/>
<path d="M44.7291 59.531C52.331 59.531 58.4935 53.3686 58.4935 45.7667C58.4935 38.1649 52.331 32.0024 44.7291 32.0024C37.1273 32.0024 30.9648 38.1649 30.9648 45.7667C30.9648 53.3686 37.1273 59.531 44.7291 59.531Z" stroke="#39405D" stroke-width="2" stroke-miterlimit="10"/>
<ellipse cx="23.1353" cy="7.12206" rx="2.13528" ry="2.12206" fill="#39405D"/>
<ellipse cx="82.1353" cy="35.1221" rx="2.13528" ry="2.12206" stroke="#39405D" stroke-width="0.5"/>
<path fill-rule="evenodd" clip-rule="evenodd" d="M3.50262 29.7924V31.7029L3.50574 31.7745C3.54001 32.1796 3.86176 32.4953 4.25285 32.4953C4.66653 32.4953 5.00308 32.1407 5.00308 31.7029V29.7924L4.99996 29.7201C4.9649 29.3165 4.64315 29 4.25285 29C3.83839 29 3.50262 29.3546 3.50262 29.7924ZM5.79618 32.4953L5.72373 32.4984C5.32018 32.5326 5.0031 32.853 5.0031 33.2441C5.0031 33.6578 5.35835 33.9929 5.79618 33.9929H7.71187L7.78355 33.9898C8.18787 33.9556 8.50495 33.6353 8.50495 33.2441C8.50495 32.8304 8.14892 32.4953 7.71187 32.4953H5.79618ZM0.793077 32.4953L0.721404 32.4984C0.317075 32.5326 0 32.853 0 33.2441C0 33.6578 0.356028 33.9929 0.793077 33.9929H2.70955L2.782 33.9898C3.18477 33.9556 3.50263 33.6353 3.50263 33.2441C3.50263 32.8304 3.14738 32.4953 2.70955 32.4953H0.793077ZM3.50262 34.7853V36.6959L3.50574 36.7682C3.54001 37.1718 3.86176 37.4882 4.25285 37.4882C4.66653 37.4882 5.00308 37.1344 5.00308 36.6959V34.7853L4.99996 34.7138C4.9649 34.3094 4.64315 33.9929 4.25285 33.9929C3.83839 33.9929 3.50262 34.3475 3.50262 34.7853Z" fill="#39405D"/>
<path fill-rule="evenodd" clip-rule="evenodd" d="M62.28 3.07684L63.2933 4.09019L63.3333 4.12689C63.566 4.32232 63.9044 4.31969 64.1121 4.11196C64.3322 3.89181 64.3225 3.52539 64.0903 3.29319L63.077 2.27984L63.0374 2.24355C62.8047 2.04729 62.4663 2.05075 62.2586 2.25848C62.0389 2.47822 62.0478 2.84464 62.28 3.07684ZM64.9318 3.29219L64.895 3.33233C64.6992 3.56524 64.7007 3.90358 64.9077 4.11062C65.1276 4.33045 65.4936 4.3191 65.7262 4.08654L66.7442 3.06856L66.781 3.02925C66.9772 2.79675 66.9753 2.458 66.7678 2.25054C66.5484 2.03113 66.182 2.04207 65.9498 2.27421L64.9318 3.29219ZM62.2747 5.9493L62.2383 5.98902C62.0421 6.22234 62.0436 6.56069 62.2506 6.76773C62.4705 6.98756 62.8369 6.97579 63.0691 6.74364L64.0866 5.72608L64.1239 5.68636C64.3201 5.45386 64.3182 5.1151 64.1107 4.90765C63.8913 4.68823 63.5249 4.69917 63.2923 4.93173L62.2747 5.9493ZM64.9282 5.72508L65.9419 6.73884L65.9819 6.77554C66.2146 6.97098 66.553 6.96834 66.7607 6.76061C66.9809 6.54046 66.9707 6.17363 66.7389 5.94184L65.7252 4.92808L65.6852 4.89138C65.4529 4.69553 65.1141 4.69858 64.9064 4.90631C64.6867 5.12604 64.6964 5.49329 64.9282 5.72508Z" fill="#39405D"/>
</svg>
