<svg width="80" height="80" viewBox="0 0 80 80" fill="none" xmlns="http://www.w3.org/2000/svg">
<path fill-rule="evenodd" clip-rule="evenodd" d="M63.4819 48.2831L30.9737 15.9823C30.9737 15.9823 30.4764 12.9503 31.8439 11.9602C33.2113 10.9702 34.9517 10.8464 34.9517 10.8464L68.9517 44.756C68.9517 44.756 69.5111 46.798 68.0815 48.2831C66.6519 49.7682 63.4819 48.2831 63.4819 48.2831Z" fill="white"/>
<path fill-rule="evenodd" clip-rule="evenodd" d="M28.7982 22.6034C28.7982 22.1084 31.5953 15.9823 31.5953 15.9823L64.0413 48.4687L56.7068 51.0058C56.7068 51.0058 28.7982 23.0984 28.7982 22.6034Z" fill="#FFE5AA"/>
<path fill-rule="evenodd" clip-rule="evenodd" d="M24.1364 65.733L14.3156 55.9561L28.7982 22.6034L56.7068 51.0058L24.1364 65.733Z" fill="#E7E3FF"/>
<path d="M18.091 46.6063C18.2129 46.6597 18.3401 46.6849 18.4654 46.6849C18.824 46.6849 19.166 46.4776 19.3196 46.1297L28.9343 24.3361L31.1442 26.5362C31.3263 26.7173 31.565 26.8081 31.8036 26.8081C32.0421 26.8081 32.2808 26.7175 32.4629 26.5362C32.8271 26.1737 32.8271 25.5859 32.4629 25.2236L29.7392 22.512L31.8531 17.7205L57.1903 42.9447C57.3724 43.1259 57.6111 43.2166 57.8497 43.2166C58.0882 43.2166 58.3269 43.126 58.509 42.9447C58.8732 42.5822 58.8732 41.9945 58.509 41.6321L31.9867 15.2284C31.6266 14.8699 31.4281 14.393 31.4281 13.8859C31.4281 13.3787 31.6264 12.902 31.9867 12.5434L32.3969 12.1348C33.1405 11.3948 34.3504 11.3945 35.0939 12.1348L37.4903 14.5206C37.8545 14.8831 38.4447 14.8831 38.8089 14.5206C39.1731 14.1582 39.1731 13.5704 38.8089 13.2081L36.4124 10.8223C34.942 9.35834 32.549 9.35821 31.0783 10.8223L30.6681 11.2308C29.9556 11.9399 29.5633 12.8828 29.5633 13.8859C29.5633 14.7779 29.8742 15.622 30.4441 16.2968L17.6121 45.3832C17.4051 45.8526 17.6194 46.4001 18.091 46.6063Z" fill="#39405D"/>
<path fill-rule="evenodd" clip-rule="evenodd" d="M40.3 16.0051C40.6641 15.6426 41.2544 15.6426 41.6186 16.0051L69.0307 43.2942C69.7431 44.0033 70.1353 44.9464 70.1353 45.9493C70.1353 46.9522 69.743 47.8953 69.0307 48.6044L68.6203 49.0129C67.885 49.7449 66.9192 50.111 65.9533 50.111C65.0911 50.111 64.2298 49.8187 63.5316 49.2357L44.6525 57.4902L45.4306 59.3928C46.8203 62.7911 45.1981 66.7391 41.8144 68.1935L36.4027 70.5198C35.5204 70.8992 34.5943 71.084 33.6789 71.084C31.9116 71.084 30.1825 70.3961 28.8728 69.0925C28.3393 68.5614 27.8993 67.9469 27.5649 67.2659L26.6334 65.369L24.856 66.1461C24.9357 67.0088 24.6452 67.8993 23.9832 68.5583L22.8346 69.7019C22.2622 70.2716 21.5012 70.5855 20.6916 70.5855C19.8824 70.5855 19.1211 70.2716 18.5487 69.7019L9.88611 61.0781C8.70463 59.9017 8.70463 57.9877 9.88611 56.8115L11.0348 55.668C11.6071 55.0982 12.3682 54.7844 13.1777 54.7844C13.2721 54.7844 13.3657 54.7891 13.4585 54.7975L15.9781 49.0866C16.1854 48.6171 16.7356 48.4039 17.2067 48.61C17.6783 48.8161 17.8926 49.3638 17.6856 49.8331L15.172 55.5305C15.2227 55.5748 15.2725 55.6201 15.3206 55.668L23.9834 64.2918C24.022 64.3303 24.0573 64.3708 24.0926 64.4112C24.1013 64.4212 24.11 64.4311 24.1187 64.4411L55.4562 50.7393L34.0617 29.4406C33.6975 29.0783 33.6977 28.4905 34.0617 28.1281C34.4256 27.7656 35.0159 27.7655 35.3803 28.1281L57.2886 49.9381L62.1015 47.8338L60.011 45.7528C59.6469 45.3904 59.6469 44.8027 60.011 44.4402C60.375 44.0778 60.9653 44.0776 61.3296 44.4402L64.6048 47.7006C64.9651 48.0591 65.4438 48.2566 65.9534 48.2566C66.4627 48.2566 66.9417 48.0591 67.3018 47.7006L67.7122 47.2921C68.0723 46.9334 68.2707 46.4566 68.2707 45.9495C68.2707 45.4425 68.0725 44.9657 67.7123 44.6071L40.3 17.3177C39.9359 16.9553 39.9359 16.3676 40.3 16.0051ZM39.2632 62.3112C39.4528 62.2296 39.5474 61.9997 39.4695 61.809L38.7575 60.0678L32.5313 62.7901L33.3472 64.4517C33.4387 64.638 33.66 64.7199 33.8514 64.6373L39.2632 62.3112Z" fill="#39405D"/>
<path d="M22.6648 67.2458L21.5161 68.3893C21.296 68.6085 21.0032 68.7292 20.6918 68.7292C20.3804 68.7292 20.0876 68.6085 19.8674 68.3893H19.8675L11.2049 59.7655C10.7504 59.3129 10.7504 58.5767 11.2049 58.1242L12.3535 56.9807C12.5737 56.7615 12.8665 56.6407 13.1779 56.6407C13.4893 56.6407 13.782 56.7615 14.0022 56.9807L22.6648 65.6045C23.1193 66.0569 23.1193 66.7933 22.6648 67.2458Z" fill="#FFE5AA"/>
<path d="M43.7037 60.0931C44.7136 62.5629 43.5347 65.4323 41.0754 66.4894L35.6637 68.8156C33.7838 69.6239 31.6356 69.2174 30.1913 67.7799C29.804 67.3942 29.4839 66.9469 29.2401 66.4505L28.3422 64.6219L30.8225 63.5374L31.6718 65.2671C32.0619 66.0614 32.8601 66.5267 33.6958 66.5267C33.9949 66.5267 34.2988 66.4672 34.5905 66.3417L40.0022 64.0156C41.1194 63.5351 41.6552 62.2314 41.1963 61.1092L40.4652 59.3213L42.9445 58.2373L43.7037 60.0931Z" fill="#E7E3FF"/>
<path d="M55.4614 25.4515C55.6999 25.4515 55.9386 25.361 56.1207 25.1797L57.148 24.157C57.5121 23.7946 57.5121 23.2068 57.148 22.8445C56.7837 22.482 56.1935 22.482 55.8293 22.8445L54.8021 23.8671C54.438 24.2296 54.438 24.8173 54.8021 25.1797C54.9841 25.361 55.2228 25.4515 55.4614 25.4515Z" fill="#39405D"/>
<path d="M60.3515 20.3908C60.5901 20.3908 60.8288 20.3003 61.0109 20.119L65.3598 15.7894C65.7239 15.4269 65.7239 14.8392 65.3598 14.4768C64.9955 14.1143 64.4053 14.1143 64.0412 14.4768L59.6923 18.8064C59.3282 19.1689 59.3282 19.7566 59.6923 20.119C59.8743 20.3003 60.113 20.3908 60.3515 20.3908Z" fill="#39405D"/>
<path d="M50.2991 15.9571C50.3242 15.9591 50.349 15.9601 50.3739 15.9601C50.8554 15.9601 51.2635 15.5914 51.3024 15.1054L51.7896 9.00179C51.8304 8.4908 51.4474 8.04354 50.9339 8.00295C50.4211 7.96248 49.9716 8.34377 49.9307 8.85465L49.4435 14.9583C49.4028 15.4694 49.7858 15.9165 50.2991 15.9571Z" fill="#39405D"/>
<path d="M72.0563 29.0304C72.0155 28.5195 71.5667 28.1373 71.053 28.1787L64.922 28.6637C64.4086 28.7043 64.0256 29.1514 64.0663 29.6625C64.1052 30.1485 64.5134 30.5172 64.9948 30.5172C65.0194 30.5172 65.0446 30.5162 65.0697 30.5142L71.2007 30.0292C71.714 29.9886 72.097 29.5415 72.0563 29.0304Z" fill="#39405D"/>
</svg>
