<svg width="96" height="96" viewBox="0 0 96 96" fill="none" xmlns="http://www.w3.org/2000/svg">
<path d="M58.3677 16.5542L75.1484 32.4523L75.0701 86.9511C75.0661 89.7542 72.7807 92.0298 69.9656 92.0338L22.1793 92.102C19.3642 92.106 17.0854 89.8369 17.0894 87.0339L17.1832 21.6884C17.1873 18.8853 19.4726 16.6097 22.2877 16.6057L58.3677 16.5542Z" fill="white"/>
<path fill-rule="evenodd" clip-rule="evenodd" d="M75.1484 32.4523L58.3677 16.5542L22.2877 16.6057C19.4726 16.6097 17.1873 18.8853 17.1832 21.6884L17.0894 87.0339C17.0854 89.8369 19.3642 92.106 22.1793 92.102L69.9656 92.0338C72.7807 92.0298 75.0661 89.7542 75.0701 86.9511L75.1484 32.4523ZM22.2854 18.1922L57.7282 18.1416L73.5545 33.1357L73.4772 86.9538L73.4742 87.0942C73.3976 88.9563 71.856 90.4454 69.9678 90.4481L22.1816 90.5163L22.0406 90.5138C20.1707 90.4428 18.6795 88.9121 18.6822 87.032L18.7761 21.6865L18.7791 21.5462C18.8557 19.684 20.3973 18.1949 22.2854 18.1922ZM44.8864 30.6896C45.3263 30.6889 45.6824 31.0435 45.6817 31.4814C45.6811 31.892 45.3673 32.2302 44.9656 32.2714L44.8841 32.2756L23.8582 32.3056C23.4183 32.3062 23.0622 31.9517 23.0629 31.5137C23.0635 31.1031 23.3774 30.765 23.779 30.7238L23.8605 30.7196L44.8864 30.6896ZM37.4063 26.4178C37.4069 25.9798 37.0509 25.6253 36.611 25.6259L23.868 25.6441L23.7865 25.6483C23.3849 25.6895 23.071 26.0277 23.0704 26.4383C23.0698 26.8763 23.4258 27.2308 23.8657 27.2302L36.6087 27.212L36.6901 27.2078C37.0918 27.1666 37.4057 26.8284 37.4063 26.4178Z" fill="#39405D"/>
<path fill-rule="evenodd" clip-rule="evenodd" d="M75.1652 32.2567L58.591 16.5492H57.3126V28.5948C57.3126 31.3959 59.5963 33.6666 62.4133 33.6666H75.1652V32.2567ZM58.9059 19.0377L72.6696 32.0818H62.4126L62.2716 32.079C60.4002 32.0054 58.9059 30.4737 58.9059 28.5949V19.0377Z" fill="#39405D"/>
<path d="M72.6553 32.0772L58.9199 19.0436L58.9061 28.6075C58.9034 30.4876 60.3946 32.0183 62.2645 32.0893L62.4054 32.0918L72.6553 32.0772Z" fill="#D5D7E8"/>
<path fill-rule="evenodd" clip-rule="evenodd" d="M5.21488 7.32928C5.21488 5.93228 4.04757 4.80005 2.60744 4.80005C1.16731 4.80005 0 5.93228 0 7.32912C0 8.72586 1.16737 9.8582 2.60744 9.8582C4.04709 9.8571 5.21375 8.7255 5.21488 7.32928ZM0.401204 7.32902C0.401204 6.14718 1.38904 5.18903 2.60735 5.18903C3.82548 5.18986 4.81277 6.14753 4.8138 7.3292C4.8138 8.51085 3.82596 9.469 2.6075 9.469C1.38904 9.469 0.401204 8.51085 0.401204 7.32902Z" fill="#39405D"/>
<path fill-rule="evenodd" clip-rule="evenodd" d="M5.06197 24.461C5.52745 24.461 5.91041 24.8267 5.95152 25.2939L5.95518 25.3773V27.5876C5.95518 28.094 5.55483 28.504 5.06197 28.504C4.59649 28.504 4.21353 28.1382 4.17242 27.671L4.16876 27.5876V25.3773C4.16876 24.871 4.56911 24.461 5.06197 24.461ZM9.17917 22.7283C9.69999 22.7283 10.123 23.1159 10.123 23.5946C10.123 24.0467 9.74569 24.4176 9.26501 24.4574L9.17917 24.461H6.89862C6.3778 24.461 5.95475 24.0733 5.95475 23.5946C5.95475 23.1425 6.3321 22.7716 6.81278 22.7318L6.89862 22.7283H9.17917ZM3.22442 22.7283C3.74524 22.7283 4.1683 23.1159 4.1683 23.5946C4.1683 24.0467 3.79094 24.4176 3.31027 24.4574L3.22442 24.461H0.943874C0.423056 24.461 0 24.0733 0 23.5946C0 23.1425 0.377356 22.7716 0.858032 22.7318L0.943874 22.7283H3.22442ZM5.06197 18.6852C5.52745 18.6852 5.91041 19.0509 5.95152 19.5181L5.95518 19.6016V21.8118C5.95518 22.3182 5.55483 22.7282 5.06197 22.7282C4.59649 22.7282 4.21353 22.3625 4.17242 21.8953L4.16876 21.8118V19.6016C4.16876 19.0952 4.56911 18.6852 5.06197 18.6852Z" fill="#39405D"/>
<path fill-rule="evenodd" clip-rule="evenodd" d="M14.1953 9.84494C14.3372 9.98299 14.3557 10.1921 14.2428 10.3263L14.2215 10.3492L13.6281 10.9266C13.4922 11.0589 13.2601 11.0473 13.1098 10.9011C12.968 10.7631 12.9494 10.554 13.0623 10.4197L13.0836 10.3969L13.6771 9.81945C13.813 9.68716 14.0451 9.69878 14.1953 9.84494ZM15.8531 10.4013C15.9891 10.5336 15.9782 10.7593 15.8283 10.9052C15.6867 11.043 15.4719 11.0602 15.3339 10.9501L15.3103 10.9294L14.7146 10.3496C14.5785 10.2173 14.5894 9.99157 14.7394 9.84567C14.881 9.70787 15.0957 9.69075 15.2338 9.8008L15.2573 9.82155L15.8531 10.4013ZM14.2194 8.81211C14.3555 8.9445 14.3446 9.17018 14.1946 9.31609C14.053 9.45389 13.8383 9.47101 13.7002 9.36095L13.6767 9.34021L13.0809 8.7605C12.9449 8.62811 12.9558 8.40243 13.1057 8.25652C13.2473 8.11872 13.4621 8.10161 13.6001 8.21166L13.6236 8.2324L14.2194 8.81211ZM15.824 8.2605C15.9658 8.39854 15.9844 8.60766 15.8714 8.7419L15.8502 8.76479L15.2567 9.3422C15.1208 9.47448 14.8887 9.46287 14.7385 9.3167C14.5966 9.17866 14.5781 8.96955 14.691 8.8353L14.7123 8.81242L15.3057 8.235C15.4416 8.10272 15.6737 8.11434 15.824 8.2605Z" fill="#39405D"/>
<path fill-rule="evenodd" clip-rule="evenodd" d="M90.7869 39.4029C90.7869 38.5786 91.4756 37.9106 92.3252 37.9106C93.1749 37.9106 93.8636 38.5786 93.8636 39.4028C93.8636 40.2268 93.1748 40.8949 92.3252 40.8949C91.4759 40.8942 90.7875 40.2266 90.7869 39.4029ZM93.6272 39.4025C93.6272 38.7053 93.0443 38.14 92.3256 38.14C91.6069 38.1405 91.0244 38.7055 91.0238 39.4026C91.0238 40.0998 91.6066 40.6651 92.3255 40.6651C93.0443 40.6651 93.6272 40.0998 93.6272 39.4025Z" fill="#39405D"/>
<path fill-rule="evenodd" clip-rule="evenodd" d="M92.9233 49.0158C92.9233 48.1916 93.612 47.5236 94.4616 47.5236C95.3113 47.5236 96 48.1916 96 49.0157C96 49.8397 95.3113 50.5078 94.4616 50.5078C93.6123 50.5072 92.9239 49.8395 92.9233 49.0158ZM95.763 49.0155C95.763 48.3182 95.1802 47.7529 94.4614 47.7529C93.7427 47.7534 93.1603 48.3184 93.1596 49.0156C93.1596 49.7127 93.7425 50.278 94.4613 50.278C95.1802 50.278 95.763 49.7127 95.763 49.0155Z" fill="#39405D"/>
<path fill-rule="evenodd" clip-rule="evenodd" d="M86.8252 46.16C86.967 46.298 86.9856 46.5072 86.8726 46.6414L86.8514 46.6643L86.2579 47.2417C86.122 47.374 85.8899 47.3624 85.7397 47.2162C85.5978 47.0782 85.5793 46.869 85.6922 46.7348L85.7135 46.7119L86.3069 46.1345C86.4428 46.0022 86.6749 46.0138 86.8252 46.16ZM88.4829 46.7163C88.619 46.8487 88.6081 47.0744 88.4581 47.2203C88.3165 47.3581 88.1018 47.3752 87.9637 47.2652L87.9402 47.2444L87.3444 46.6647C87.2084 46.5323 87.2193 46.3066 87.3692 46.1607C87.5108 46.0229 87.7256 46.0058 87.8636 46.1159L87.8871 46.1366L88.4829 46.7163ZM86.8493 45.1272C86.9853 45.2596 86.9744 45.4852 86.8245 45.6312C86.6829 45.769 86.4681 45.7861 86.3301 45.676L86.3065 45.6553L85.7108 45.0756C85.5747 44.9432 85.5856 44.7175 85.7355 44.5716C85.8772 44.4338 86.0919 44.4167 86.23 44.5267L86.2535 44.5475L86.8493 45.1272ZM88.4538 44.5756C88.5957 44.7136 88.6142 44.9227 88.5013 45.057L88.48 45.0798L87.8866 45.6573C87.7506 45.7895 87.5185 45.7779 87.3683 45.6318C87.2265 45.4937 87.2079 45.2846 87.3208 45.1504L87.3421 45.1275L87.9355 44.5501C88.0715 44.4178 88.3036 44.4294 88.4538 44.5756Z" fill="#39405D"/>
<circle cx="75.3003" cy="69.4192" r="17.6234" fill="white"/>
<path fill-rule="evenodd" clip-rule="evenodd" d="M75.3002 88.1108C85.6232 88.1108 93.9917 79.7423 93.9917 69.4193C93.9917 59.0963 85.6232 50.7278 75.3002 50.7278C64.9771 50.7278 56.6086 59.0963 56.6086 69.4193C56.6086 79.7423 64.9771 88.1108 75.3002 88.1108ZM85.553 63.7546C86.1042 63.2363 86.1255 62.3751 85.6005 61.8309C85.0756 61.2867 84.2032 61.2657 83.6521 61.784L70.2329 74.4018L67.0436 70.7281C66.5482 70.1576 65.6782 70.0915 65.1003 70.5805C64.5224 71.0696 64.4555 71.9286 64.9508 72.4991L68.6127 76.7171C69.3834 77.6049 70.7505 77.6732 71.608 76.8668L85.553 63.7546Z" fill="#80D5AF"/>
<path fill-rule="evenodd" clip-rule="evenodd" d="M94.6327 69.4192C94.6327 80.0961 85.9773 88.7515 75.3003 88.7515C64.6234 88.7515 55.968 80.0961 55.968 69.4192C55.968 58.7422 64.6234 50.0868 75.3003 50.0868C85.9773 50.0868 94.6327 58.7422 94.6327 69.4192ZM75.3003 87.0426C85.0335 87.0426 92.9238 79.1523 92.9238 69.4192C92.9238 59.686 85.0335 51.7957 75.3003 51.7957C65.5672 51.7957 57.6769 59.686 57.6769 69.4192C57.6769 79.1523 65.5672 87.0426 75.3003 87.0426Z" fill="#39405D"/>
<path fill-rule="evenodd" clip-rule="evenodd" d="M45.3372 55.34C47.8244 55.34 51.486 52.1732 50.3117 51.1946C49.7586 50.7337 47.3859 51.6462 45.3372 51.6091C43.0357 51.5674 41.0343 50.6349 40.3627 51.1945C39.0932 52.2525 42.8499 55.34 45.3372 55.34Z" fill="#FFD166"/>
<path d="M57.5271 50.8273C56.8547 50.8273 56.3095 50.2837 56.3095 49.6128V47.6697C56.3095 46.9988 56.8547 46.4552 57.5271 46.4552C58.1996 46.4552 58.7448 46.9988 58.7448 47.6697V49.6128C58.7448 50.2836 58.1996 50.8273 57.5271 50.8273Z" fill="#39405D"/>
<path d="M33.2601 50.8274C32.5876 50.8274 32.0424 50.2838 32.0424 49.613V47.6698C32.0424 46.9989 32.5876 46.4553 33.2601 46.4553C33.9326 46.4553 34.4778 46.9989 34.4778 47.6698V49.613C34.4778 50.2837 33.9326 50.8274 33.2601 50.8274Z" fill="#39405D"/>
<path fill-rule="evenodd" clip-rule="evenodd" d="M49.7323 54.267C48.4114 55.3854 46.7177 56.1691 45.3362 56.1691C43.9532 56.1691 42.2332 55.3975 40.9113 54.3025L40.7397 54.1565L40.5756 54.0092C39.2664 52.8004 38.7369 51.4694 39.8309 50.5576C40.2442 50.2133 40.7529 50.1411 41.4349 50.2096C41.5327 50.2195 41.6344 50.2322 41.7438 50.2484L41.9745 50.2851L42.2334 50.3315L43.4504 50.5667L43.7829 50.6243C44.3719 50.7213 44.8547 50.7712 45.3512 50.7802C45.6126 50.7849 45.895 50.7723 46.2024 50.7434C46.239 50.74 46.2755 50.7364 46.3122 50.7326L46.5348 50.7074L46.7659 50.677L47.0109 50.6408L47.4157 50.5744L48.676 50.3503L48.9104 50.3131C48.9842 50.302 49.054 50.2922 49.121 50.2836L49.3139 50.2611C49.995 50.1912 50.4579 50.238 50.8415 50.5576C51.924 51.4597 51.3364 52.8099 49.9838 54.0459L49.8179 54.1936L49.7323 54.267ZM41.969 53.0253C43.0186 53.8948 44.3917 54.5107 45.3362 54.5107C46.2681 54.5107 47.6131 53.8883 48.6608 53.0013C49.1319 52.6024 49.4806 52.1975 49.6369 51.8845L49.6296 51.8982L49.4833 51.9104L49.326 51.9289C49.2981 51.9325 49.2693 51.9364 49.2396 51.9406L49.0485 51.9695L48.8292 52.0059L47.6598 52.2147C47.6041 52.2242 47.5496 52.2334 47.4963 52.2422L47.1891 52.2908L46.9019 52.3319C46.8553 52.3381 46.8092 52.3441 46.7634 52.3497L46.4921 52.3808L46.3574 52.3941C45.9917 52.4284 45.6485 52.4438 45.3212 52.4378C44.5275 52.4235 43.7934 52.3241 42.777 52.1271L42.1987 52.0134L41.7062 51.9213L41.5134 51.8903C41.4835 51.8859 41.4546 51.8817 41.4267 51.878L41.269 51.8593C41.155 51.8478 41.0605 51.8435 40.9854 51.8455L40.9644 51.8468L40.9996 51.9266C41.1485 52.2337 41.4942 52.6319 41.969 53.0253Z" fill="#39405D"/>
</svg>
