<svg width="89" height="67" viewBox="0 0 89 67" fill="none" xmlns="http://www.w3.org/2000/svg">
<path d="M10.5636 16.5954C10.428 15.5456 11.8062 14.401 13.7443 14.1755C15.6823 13.9501 17.3109 14.7449 17.4465 15.7946C17.5821 16.8444 16.2039 17.989 14.2658 18.2144C12.3278 18.4399 10.6992 17.6451 10.5636 16.5954Z" fill="white"/>
<path d="M16.6249 11.5829C17.4109 11.9941 17.6958 13.2574 17.1737 14.4108L17.1465 14.4692L17.1182 14.5267L17.0862 14.5867L16.9952 14.5247C16.2572 14.0381 15.2734 13.7572 14.2158 13.7304L14.0643 13.7283L14.0253 13.7285L14.0309 13.6771C14.0576 13.477 14.1061 13.276 14.1762 13.079L14.2208 12.9613L14.2707 12.8449C14.7871 11.7041 15.8565 11.1809 16.6249 11.5829Z" fill="#E9F4FC"/>
<path d="M12.293 11.9333C12.5062 12.194 12.6739 12.4778 12.7911 12.7674L12.8383 12.8918L12.8523 12.9331L12.7112 12.965C11.7709 13.1882 10.9501 13.609 10.3695 14.1644L10.275 14.2582L10.2111 14.3263L10.1951 14.3122L10.0984 14.2161L10.0049 14.1151L9.9146 14.0092C9.08142 12.9904 9.00557 11.7117 9.63928 11.1654C10.2659 10.6252 11.4638 10.9193 12.293 11.9333Z" fill="#E9F4FC"/>
<path fill-rule="evenodd" clip-rule="evenodd" d="M8.67766 14.1053C7.73684 12.4937 7.92867 10.5391 9.21261 9.74419C10.5045 8.94433 12.2855 9.6928 13.2294 11.3098C13.3058 11.4405 13.375 11.5741 13.4365 11.7094C13.4678 11.657 13.5003 11.6051 13.534 11.5539C14.5366 10.031 16.3514 9.47363 17.6069 10.4066C18.8463 11.3277 18.9737 13.2934 17.9788 14.8048C17.8562 14.9909 17.7206 15.1642 17.5736 15.3223C17.7758 15.6962 17.8819 16.1042 17.8696 16.5334C17.818 18.3368 15.7026 19.5933 13.2246 19.491C10.7466 19.3887 8.7082 17.9607 8.75988 16.1574C8.77376 15.6733 8.93631 15.2287 9.21422 14.8398C9.01411 14.619 8.83376 14.3727 8.67766 14.1053ZM13.3731 14.31C11.4236 14.2296 9.88338 15.1445 9.85306 16.2025C9.82273 17.2605 11.307 18.3003 13.2564 18.3808C15.2059 18.4613 16.7461 17.5463 16.7765 16.4883C16.8068 15.4303 15.3225 14.3905 13.3731 14.31ZM16.9679 11.3008C17.6799 11.8299 17.7637 13.1223 17.0676 14.1797L17.0316 14.2331L16.9947 14.2855L16.9537 14.3398L16.8735 14.2643C16.2207 13.6683 15.2929 13.2369 14.2526 13.045L14.1032 13.0192L14.0646 13.0133L14.0782 12.9635C14.1359 12.7699 14.2152 12.579 14.3153 12.3954L14.3778 12.2862L14.4452 12.1789C15.1338 11.1331 16.2718 10.7836 16.9679 11.3008ZM12.652 12.7701C12.5815 12.4657 12.4602 12.1592 12.2905 11.8684C11.6301 10.7372 10.493 10.2593 9.78954 10.6948C9.07818 11.1353 8.95307 12.41 9.61661 13.5466L9.68921 13.6654L9.76583 13.7798L9.84628 13.8898L9.8599 13.9063L9.93364 13.849L10.0417 13.7711C10.702 13.3133 11.5785 13.0261 12.5422 12.9528L12.6864 12.9434L12.6791 12.9004L12.652 12.7701Z" fill="#1E243D"/>
<path d="M12.3376 21.8257C12.3376 21.8257 7.44492 35.4797 21.7688 34.3941C36.0927 33.3086 44.7191 24.7204 38.1642 34.407" stroke="#1E243D" stroke-width="1.5" stroke-linecap="round" stroke-dasharray="6.58"/>
<path d="M60.0978 7.83113L73.1903 20.235L73.1292 62.7556C73.126 64.9426 71.343 66.718 69.1466 66.7212L31.8632 66.7744C29.6668 66.7775 27.8888 65.0072 27.892 62.8202L27.9652 11.8369C27.9683 9.64988 29.7514 7.87445 31.9478 7.87131L60.0978 7.83113Z" fill="white"/>
<path fill-rule="evenodd" clip-rule="evenodd" d="M73.1903 20.235L60.0978 7.83113L31.9478 7.87131C29.7514 7.87445 27.9683 9.64988 27.9652 11.8369L27.892 62.8202C27.8888 65.0072 29.6668 66.7775 31.8632 66.7744L69.1466 66.7212C71.343 66.718 73.126 64.9426 73.1292 62.7556L73.1903 20.235ZM31.946 9.10877L59.5989 9.0693L71.9467 20.7679L71.8864 62.7574L71.8841 62.8669C71.8243 64.3198 70.6216 65.4816 69.1484 65.4837L31.865 65.5369L31.755 65.5349C30.296 65.4795 29.1326 64.2853 29.1347 62.8184L29.208 11.8351L29.2103 11.7256C29.2701 10.2727 30.4728 9.11087 31.946 9.10877ZM49.5795 18.8595C49.9226 18.859 50.2004 19.1356 50.2 19.4774C50.1995 19.7977 49.9546 20.0616 49.6412 20.0937L49.5777 20.097L33.173 20.1204C32.8298 20.1209 32.552 19.8443 32.5525 19.5025C32.5529 19.1822 32.7978 18.9183 33.1112 18.8862L33.1747 18.8829L49.5795 18.8595ZM43.7432 15.5267C43.7437 15.185 43.4659 14.9084 43.1227 14.9089L33.1804 14.9231L33.1169 14.9263C32.8035 14.9585 32.5586 15.2223 32.5582 15.5427C32.5577 15.8844 32.8355 16.161 33.1787 16.1605L43.1209 16.1463L43.1844 16.143C43.4978 16.1109 43.7427 15.8471 43.7432 15.5267Z" fill="#1E243D"/>
<path fill-rule="evenodd" clip-rule="evenodd" d="M73.2034 20.0822L60.2719 7.82703H59.2745V17.2251C59.2745 19.4106 61.0563 21.1822 63.2542 21.1822H73.2034V20.0822ZM60.5182 9.76848L71.2568 19.9457H63.2542L63.1442 19.9435C61.6841 19.8861 60.5182 18.691 60.5182 17.2251V9.76848Z" fill="#1E243D"/>
<path d="M71.2455 19.9423L60.529 9.77333L60.5183 17.2352C60.5161 18.7021 61.6795 19.8963 63.1385 19.9517L63.2485 19.9537L71.2455 19.9423Z" fill="#D3CCFE"/>
<ellipse cx="73.5568" cy="47.8859" rx="14.1364" ry="13.9646" fill="#FFECAB"/>
<path fill-rule="evenodd" clip-rule="evenodd" d="M58.3602 47.5323C58.3602 39.2345 65.0844 32.5071 73.3801 32.5071C81.6758 32.5071 88.4 39.2345 88.4 47.5323C88.4 55.8301 81.6758 62.5576 73.3801 62.5576C65.0844 62.5576 58.3602 55.8301 58.3602 47.5323ZM87.0718 47.5323C87.0718 39.967 80.9418 33.8341 73.3801 33.8341C65.8185 33.8341 59.6885 39.967 59.6885 47.5323C59.6885 55.0977 65.8185 61.2306 73.3801 61.2306C80.9418 61.2306 87.0718 55.0977 87.0718 47.5323Z" fill="#1E243D"/>
<path fill-rule="evenodd" clip-rule="evenodd" d="M70.0043 51.8178V54.6505H77.1093V51.8178C77.1093 51.0605 76.738 50.3582 76.116 49.939L73.5568 48.2116L70.9971 49.9393C70.3755 50.3583 70.0043 51.0605 70.0043 51.8178ZM70.0043 43.6004C70.0043 44.3576 70.3757 45.06 70.9977 45.4792L73.5568 47.2065L76.1165 45.4789C76.738 45.0599 77.1093 44.3576 77.1093 43.6004V40.7677H70.0043V43.6004ZM77.9354 54.6505H79.5051C79.7329 54.6505 79.9182 54.8381 79.9182 55.0687C79.9182 55.2993 79.7329 55.4869 79.5051 55.4869H67.6085C67.3807 55.4869 67.1954 55.2993 67.1954 55.0687C67.1954 54.8381 67.3807 54.6505 67.6085 54.6505H69.1782V51.8178C69.1782 50.78 69.687 49.8176 70.5391 49.2433L72.8122 47.7091L70.5396 46.1752C69.6871 45.6006 69.1782 44.6381 69.1782 43.6004V40.7676H67.6085C67.3807 40.7676 67.1954 40.58 67.1954 40.3495C67.1954 40.1189 67.3807 39.9313 67.6085 39.9313H79.5051C79.7329 39.9313 79.9182 40.1189 79.9182 40.3495C79.9182 40.5801 79.7329 40.7676 79.5051 40.7676H77.9354V43.6004C77.9354 44.6381 77.4267 45.6006 76.5745 46.1749L74.3014 47.7091L76.574 49.243C77.4265 49.8176 77.9354 50.78 77.9354 51.8178V54.6505ZM74.1957 51.0426C74.3741 51.1956 75.9457 52.5431 76.3795 53.0125L76.3946 53.0289C76.6986 53.3601 76.4655 53.8985 76.0187 53.8985H71.0948C70.6481 53.8985 70.415 53.3601 70.719 53.0289L70.7341 53.0125C71.169 52.5419 72.7472 51.1889 72.9192 51.0415C72.928 51.0339 72.9332 51.0295 72.9343 51.0286C73.2925 50.7175 73.8211 50.7175 74.1794 51.0286C74.1805 51.0296 74.1861 51.0344 74.1957 51.0426Z" fill="#1E243D"/>
<path d="M61.8943 34.2748C61.3087 34.2748 60.834 33.7912 60.834 33.1945V31.4661C60.834 30.8694 61.3087 30.3859 61.8943 30.3859C62.4798 30.3859 62.9545 30.8694 62.9545 31.4661V33.1945C62.9545 33.7911 62.4798 34.2748 61.8943 34.2748Z" fill="#1E243D"/>
<path d="M42.1034 34.2748C41.5179 34.2748 41.0432 33.7912 41.0432 33.1945V31.4661C41.0432 30.8694 41.5179 30.3859 42.1034 30.3859C42.6889 30.3859 43.1636 30.8694 43.1636 31.4661V33.1945C43.1636 33.7911 42.6889 34.2748 42.1034 34.2748Z" fill="#1E243D"/>
<path fill-rule="evenodd" clip-rule="evenodd" d="M51.9861 38.8707C49.7949 38.8707 46.5691 41.719 47.6036 42.5992C48.0909 43.0137 50.1812 42.1929 51.9861 42.2263C54.0136 42.2638 55.7768 43.1026 56.3685 42.5992C57.4869 41.6477 54.1773 38.8707 51.9861 38.8707Z" fill="#FFD166"/>
<path fill-rule="evenodd" clip-rule="evenodd" d="M47.8496 39.8496C49.0394 38.8583 50.565 38.1636 51.8094 38.1636C53.0551 38.1636 54.6044 38.8475 55.7951 39.8181L55.9496 39.9475L56.0975 40.0781C57.2767 41.1496 57.7537 42.3293 56.7682 43.1374C56.396 43.4427 55.9377 43.5067 55.3234 43.4459C55.2353 43.4372 55.1438 43.4259 55.0452 43.4116L54.8374 43.379L54.6042 43.3378L53.508 43.1294L53.2085 43.0783C52.678 42.9923 52.2431 42.9482 51.7958 42.9402C51.5604 42.936 51.3061 42.9472 51.0291 42.9728C50.9962 42.9758 50.9633 42.979 50.9303 42.9824L50.7298 43.0047L50.5216 43.0317L50.3009 43.0637L49.9363 43.1226L48.8011 43.3212L48.59 43.3542C48.5235 43.364 48.4605 43.3727 48.4003 43.3804L48.2265 43.4003C47.613 43.4623 47.196 43.4208 46.8505 43.1374C45.8755 42.3379 46.4047 41.1411 47.623 40.0456L47.7725 39.9146L47.8496 39.8496ZM55.1661 40.6554C54.2085 39.8867 52.9558 39.3421 52.0941 39.3421C51.2438 39.3421 50.0166 39.8924 49.0608 40.6766C48.631 41.0293 48.3129 41.3874 48.1702 41.6641L48.1769 41.6519L48.3104 41.6412L48.4539 41.6249C48.4793 41.6217 48.5056 41.6182 48.5327 41.6145L48.7071 41.589L48.9072 41.5567L49.9741 41.3721C50.0249 41.3637 50.0746 41.3556 50.1232 41.3479L50.4035 41.3048L50.6655 41.2685C50.7081 41.263 50.7501 41.2578 50.7919 41.2527L51.0394 41.2253L51.1624 41.2135C51.496 41.1832 51.8091 41.1696 52.1077 41.1748C52.8319 41.1876 53.5016 41.2754 54.429 41.4496L54.9566 41.5501L55.4059 41.6315L55.5818 41.659C55.6091 41.6629 55.6354 41.6665 55.661 41.6699L55.8048 41.6864C55.9088 41.6965 55.995 41.7003 56.0635 41.6986L56.0827 41.6974L56.0506 41.6269C55.9147 41.3553 55.5994 41.0032 55.1661 40.6554Z" fill="#1E243D"/>
</svg>
