<svg width="80" height="80" viewBox="0 0 80 80" fill="none" xmlns="http://www.w3.org/2000/svg">
<ellipse cx="55.7142" cy="77.3334" rx="24.2857" ry="2.66667" fill="#E3E5F6"/>
<ellipse cx="26.9643" cy="75.5555" rx="26.9643" ry="3.02222" fill="#E3E5F6"/>
<path fill-rule="evenodd" clip-rule="evenodd" d="M13.2988 40.2855C13.2988 40.2855 11.8961 27.1392 16.3462 25.7409C17.5718 25.3558 17.9114 27.1232 18.2348 28.3188C19.1702 31.7759 19.3424 34.0091 19.2608 34.0974C19.1483 34.2192 13.2988 40.2855 13.2988 40.2855Z" fill="white"/>
<path fill-rule="evenodd" clip-rule="evenodd" d="M10.668 52.4019C9.00466 53.197 7.85718 54.8876 7.85718 56.8508C7.85718 58.2161 8.41415 59.4495 9.307 60.344C10.205 61.2385 11.447 61.7889 12.8127 61.7889H16.7663H19.8658C22.6011 61.7889 24.8214 59.5814 24.8214 56.8508C24.8214 55.4855 24.2687 54.2521 23.3711 53.3623C22.473 52.4678 21.2353 51.917 19.8658 51.917H12.8127C12.0474 51.917 11.3199 52.0912 10.668 52.4019Z" fill="white"/>
<path fill-rule="evenodd" clip-rule="evenodd" d="M10.4636 51.9771C11.1774 51.6369 11.9745 51.446 12.8126 51.446H19.8657C21.3655 51.446 22.7222 52.05 23.7055 53.0294C24.689 54.0047 25.2943 55.3568 25.2943 56.8508C25.2943 59.8414 22.8623 62.2598 19.8657 62.2598H12.8126C11.3169 62.2598 9.95588 61.6566 8.97232 60.677L8.97135 60.676C7.9947 59.6976 7.38403 58.3464 7.38403 56.8508C7.38403 54.6999 8.64195 52.848 10.4631 51.9774L10.4636 51.9771ZM10.8724 52.8265C9.36704 53.5463 8.33011 55.0755 8.33011 56.8508C8.33011 58.0856 8.8332 59.2012 9.64198 60.0117C10.4545 60.8207 11.5771 61.318 12.8126 61.318H19.8657C22.3396 61.318 24.3482 59.3214 24.3482 56.8508C24.3482 55.6147 23.8485 54.5002 23.0372 53.696L23.0364 53.6952C22.2236 52.8856 21.1049 52.3879 19.8657 52.3879H12.8126C12.1202 52.3879 11.4624 52.5454 10.8724 52.8265Z" fill="white"/>
<path fill-rule="evenodd" clip-rule="evenodd" d="M29.6348 25.6003C33.6361 25.6003 37.1419 27.9212 39.1066 31.4145H39.1118H50.6334C58.2722 31.4145 64.8718 37.6755 67.059 45.1002C68.0468 48.4282 68.1409 51.9968 67.0449 55.3346L60.2521 72.9703C60.2521 74.7786 53.2175 75.7814 51.6306 73.2434L51.3703 72.6459V72.6412L49.4382 68.1499L48.9611 68.3524H41.729H41.7238L39.9522 72.9703C39.3381 74.8487 33.4807 76.2658 31.1938 72.9844L29.8143 70.0656L28.7231 67.754C27.9578 67.5186 21.7125 67.5516 16.7664 61.8791V61.7891H19.8654C22.6007 61.7891 24.8214 59.5816 24.8214 56.8511C24.8214 55.4858 24.2687 54.2518 23.3707 53.3625C22.4731 52.4676 21.2354 51.9167 19.8654 51.9167H12.8128C12.0475 51.9167 11.3195 52.0914 10.6681 52.4021C10.2897 47.5996 11.3479 43.4661 13.2989 40.213C14.8248 37.6665 16.8987 35.6558 19.2607 34.2858C21.3776 33.0476 23.725 32.3273 26.1206 32.1814L26.2051 32.1395H26.465C27.0318 28.2696 28.2412 25.6003 29.6348 25.6003Z" fill="#E9F4FC"/>
<path fill-rule="evenodd" clip-rule="evenodd" d="M28.7232 67.754L29.8145 70.0655H29.8098L29.0161 72.7678L28.9547 72.9703C28.4209 75.3242 20.8671 75.9226 20.073 72.6412L16.7661 61.879C21.7127 67.5515 27.9579 67.5186 28.7232 67.754Z" fill="#E9F4FC"/>
<path fill-rule="evenodd" clip-rule="evenodd" d="M26.2054 32.1393L26.1203 32.1817C23.7252 32.3271 21.3773 33.0479 19.261 34.2861C18.9303 29.291 17.754 25.6001 16.3462 25.6001C20.6215 25.6001 24.3346 28.2454 26.2054 32.1393Z" fill="#E9F4FC"/>
<path fill-rule="evenodd" clip-rule="evenodd" d="M10.4636 51.9771C11.1774 51.6369 11.9745 51.446 12.8126 51.446H19.8657C21.3655 51.446 22.7222 52.05 23.7055 53.0294C24.689 54.0047 25.2943 55.3568 25.2943 56.8508C25.2943 59.8414 22.8623 62.2598 19.8657 62.2598H12.8126C11.3169 62.2598 9.95588 61.6566 8.97232 60.677L8.97135 60.676C7.9947 59.6976 7.38403 58.3464 7.38403 56.8508C7.38403 54.6999 8.64195 52.848 10.4631 51.9774L10.4636 51.9771ZM10.8724 52.8265C9.36704 53.5463 8.33011 55.0755 8.33011 56.8508C8.33011 58.0856 8.8332 59.2012 9.64198 60.0117C10.4545 60.8207 11.5771 61.318 12.8126 61.318H19.8657C22.3396 61.318 24.3482 59.3214 24.3482 56.8508C24.3482 55.6147 23.8485 54.5002 23.0372 53.696L23.0364 53.6952C22.2236 52.8856 21.1049 52.3879 19.8657 52.3879H12.8126C12.1202 52.3879 11.4624 52.5454 10.8724 52.8265Z" fill="#1E243D"/>
<path fill-rule="evenodd" clip-rule="evenodd" d="M38.6387 31.4143C38.6387 31.1542 38.8505 30.9433 39.1117 30.9433H50.6338C50.895 30.9433 51.1068 31.1542 51.1068 31.4143C51.1068 31.6744 50.895 31.8852 50.6338 31.8852H39.1117C38.8505 31.8852 38.6387 31.6744 38.6387 31.4143Z" fill="#1E243D"/>
<path fill-rule="evenodd" clip-rule="evenodd" d="M50.1606 31.414C50.1606 31.154 50.3724 30.9431 50.6337 30.9431C58.5372 30.9431 65.2831 37.3999 67.5126 44.9672C68.5236 48.3735 68.624 52.0404 67.4948 55.481C67.4137 55.7282 67.1466 55.8631 66.8982 55.7824C66.6499 55.7016 66.5144 55.4357 66.5955 55.1884C67.6573 51.9534 67.5697 48.4833 66.6052 45.2337L66.6049 45.2328C64.4597 37.9508 58.0076 31.885 50.6337 31.885C50.3724 31.885 50.1606 31.6741 50.1606 31.414Z" fill="#1E243D"/>
<path fill-rule="evenodd" clip-rule="evenodd" d="M27.6767 65.5342C27.9132 65.4237 28.1949 65.525 28.3059 65.7604L31.622 72.7841C31.7332 73.0195 31.6318 73.3 31.3954 73.4107C31.159 73.5215 30.8772 73.4205 30.766 73.1851L27.4495 66.1606C27.3385 65.9251 27.4402 65.6447 27.6767 65.5342Z" fill="#1E243D"/>
<path fill-rule="evenodd" clip-rule="evenodd" d="M29.162 25.6004C29.162 25.3403 29.3738 25.1295 29.635 25.1295C33.8294 25.1295 37.4818 27.5625 39.5187 31.1833C40.6268 33.1374 41.2616 35.4438 41.2616 37.911C41.2616 38.1711 41.0498 38.3819 40.7886 38.3819C40.5273 38.3819 40.3156 38.1711 40.3156 37.911C40.3156 35.6048 39.7223 33.4578 38.6944 31.6457L38.6936 31.6442C36.8009 28.279 33.4421 26.0714 29.635 26.0714C29.3738 26.0714 29.162 25.8605 29.162 25.6004Z" fill="#1E243D"/>
<path fill-rule="evenodd" clip-rule="evenodd" d="M29.162 25.6C29.162 25.3399 29.3738 25.1291 29.635 25.1291C30.3125 25.1291 30.8311 25.6465 31.2093 26.2604C31.6038 26.901 31.9417 27.7965 32.2188 28.8616C32.7747 30.9988 33.1126 33.9263 33.1126 37.1437C33.1126 37.4038 32.9008 37.6146 32.6395 37.6146C32.3783 37.6146 32.1665 37.4038 32.1665 37.1437C32.1665 33.9819 31.8335 31.1376 31.3029 29.0977C31.0367 28.0743 30.7275 27.28 30.4028 26.7528C30.0617 26.1991 29.789 26.0709 29.635 26.0709C29.3738 26.0709 29.162 25.8601 29.162 25.6Z" fill="#1E243D"/>
<path fill-rule="evenodd" clip-rule="evenodd" d="M28.1675 27.6199C27.6477 28.713 27.2129 30.2975 26.9329 32.2072C26.7149 33.694 26.5935 35.3707 26.5935 37.1437C26.5935 37.4038 26.3817 37.6146 26.1204 37.6146C25.8592 37.6146 25.6474 37.4038 25.6474 37.1437C25.6474 35.3293 25.7716 33.6069 25.9968 32.0712L26.4633 32.139L25.9968 32.0712C26.2841 30.1111 26.7375 28.4259 27.3124 27.2169C27.5994 26.6133 27.9276 26.1051 28.3 25.7414C28.6742 25.3759 29.1234 25.1291 29.6347 25.1291C29.8959 25.1291 30.1077 25.3399 30.1077 25.6C30.1077 25.8601 29.8959 26.0709 29.6347 26.0709C29.4492 26.0709 29.2247 26.1577 28.9625 26.4137C28.6986 26.6715 28.4278 27.0724 28.1675 27.6199Z" fill="#1E243D"/>
<path fill-rule="evenodd" clip-rule="evenodd" d="M15.8732 25.6C15.8732 25.3399 16.0849 25.1291 16.3462 25.1291C20.8066 25.1291 24.3716 27.3864 26.3196 31.4412C26.4323 31.6759 26.3327 31.957 26.097 32.0693C25.8613 32.1815 25.5789 32.0823 25.4661 31.8476C23.6727 28.1147 20.4364 26.071 16.3462 26.071C16.0849 26.071 15.8732 25.8601 15.8732 25.6Z" fill="#1E243D"/>
<path fill-rule="evenodd" clip-rule="evenodd" d="M15.873 25.6001C15.873 25.34 16.0848 25.1292 16.346 25.1292C16.8935 25.1292 17.3518 25.4409 17.7132 25.875C18.0756 26.3102 18.3877 26.9208 18.6528 27.6571C19.1845 29.1339 19.5659 31.2261 19.7328 33.7468C19.7335 33.7571 19.7338 33.7674 19.7338 33.7778V33.9556C19.7338 34.2156 19.522 34.4265 19.2608 34.4265C18.9995 34.4265 18.7877 34.2156 18.7877 33.9556V33.7933C18.6234 31.3266 18.2521 29.3354 17.7622 27.9749C17.516 27.291 17.2493 26.7937 16.9849 26.476C16.7194 26.1572 16.5027 26.071 16.346 26.071C16.0848 26.071 15.873 25.8602 15.873 25.6001Z" fill="#1E243D"/>
<path fill-rule="evenodd" clip-rule="evenodd" d="M14.1189 30.0789C13.478 32.6869 13.2274 36.2672 13.8596 40.1015C13.902 40.3581 13.7273 40.6004 13.4695 40.6425C13.2117 40.6846 12.9684 40.5107 12.9261 40.2541C12.2734 36.2963 12.5284 32.5879 13.1999 29.8551C13.535 28.4911 13.9791 27.3489 14.4818 26.5354C14.7329 26.129 15.0092 25.7873 15.3092 25.5427C15.6091 25.298 15.9601 25.1292 16.3462 25.1292C16.6074 25.1292 16.8192 25.3401 16.8192 25.6001C16.8192 25.8602 16.6074 26.0711 16.3462 26.0711C16.2467 26.0711 16.1011 26.1144 15.9088 26.2712C15.7165 26.4281 15.5048 26.6774 15.2876 27.0289C14.8537 27.7312 14.4399 28.7724 14.1189 30.0789Z" fill="#1E243D"/>
<path fill-rule="evenodd" clip-rule="evenodd" d="M11.7733 54.8638C12.0346 54.8638 12.2464 55.0746 12.2464 55.3347V58.0935C12.2464 58.3536 12.0346 58.5644 11.7733 58.5644C11.5121 58.5644 11.3003 58.3536 11.3003 58.0935V55.3347C11.3003 55.0746 11.5121 54.8638 11.7733 54.8638Z" fill="#1E243D"/>
<path fill-rule="evenodd" clip-rule="evenodd" d="M17.1539 54.8638C17.4152 54.8638 17.627 55.0746 17.627 55.3347V58.0935C17.627 58.3536 17.4152 58.5644 17.1539 58.5644C16.8927 58.5644 16.6809 58.3536 16.6809 58.0935V55.3347C16.6809 55.0746 16.8927 54.8638 17.1539 54.8638Z" fill="#1E243D"/>
<path fill-rule="evenodd" clip-rule="evenodd" d="M31.8645 53.9461C32.1258 53.9461 32.3375 54.157 32.3375 54.417C32.3375 56.7954 30.7608 58.9033 28.6054 58.9033C28.3441 58.9033 28.1323 58.6925 28.1323 58.4324C28.1323 58.1723 28.3441 57.9614 28.6054 57.9614C30.0591 57.9614 31.3915 56.4735 31.3915 54.417C31.3915 54.157 31.6033 53.9461 31.8645 53.9461Z" fill="#1E243D"/>
<path fill-rule="evenodd" clip-rule="evenodd" d="M16.4564 61.5232C16.6537 61.3527 16.9525 61.3737 17.1237 61.5701C19.5287 64.3283 22.2461 65.6973 24.458 66.4072C25.565 66.7624 26.5461 66.9528 27.3002 67.0688C27.6274 67.1192 27.9105 67.1554 28.1469 67.1857C28.1836 67.1904 28.2192 67.1949 28.2536 67.1994C28.4769 67.2281 28.6993 67.2569 28.8445 67.2982C28.8509 67.3001 28.8571 67.3019 28.8632 67.3038L28.8629 67.3046C28.8771 67.3085 28.8909 67.313 28.9045 67.3181C28.9084 67.3197 28.9121 67.3212 28.9155 67.3227C28.9238 67.3262 28.9309 67.3296 28.9364 67.3323C28.942 67.335 28.9466 67.3374 28.9499 67.3392L28.9545 67.3416C28.9523 67.3405 28.949 67.3387 28.9449 67.3367C28.937 67.3327 28.9239 67.3264 28.9071 67.3199C28.8952 67.3152 28.8803 67.3099 28.8628 67.3051L28.7236 67.7538V67.2828C28.7723 67.2828 28.8135 67.2902 28.8445 67.2982C28.8445 67.2982 28.8445 67.2983 28.8445 67.2982C28.8601 67.3023 28.8738 67.3067 28.8855 67.3108C28.8924 67.3133 28.8987 67.3157 28.9045 67.3181C29.0835 67.3852 29.2108 67.5573 29.2108 67.7589C29.2108 68.019 28.9991 68.2299 28.7378 68.2299C28.6975 68.2299 28.662 68.2248 28.6325 68.2183C28.6079 68.2128 28.5868 68.206 28.5699 68.1998C28.5753 68.2012 28.58 68.2025 28.5841 68.2037C28.6293 68.2176 28.6763 68.2247 28.7236 68.2247C28.676 68.2247 28.636 68.2175 28.6061 68.2097C28.5982 68.2077 28.5909 68.2058 28.5841 68.2037C28.5778 68.2018 28.572 68.1995 28.5667 68.1976C28.5556 68.1937 28.5461 68.1898 28.5384 68.1865C28.5306 68.1831 28.5241 68.18 28.5191 68.1776C28.5166 68.1764 28.5143 68.1752 28.5124 68.1742C28.5104 68.1732 28.5087 68.1723 28.5073 68.1716L28.5022 68.1689L28.508 68.172C28.5108 68.1735 28.5147 68.1756 28.5194 68.1779C28.5285 68.1825 28.5429 68.1893 28.5609 68.1964C28.5638 68.1975 28.5668 68.1987 28.5699 68.1998C28.5133 68.1856 28.3827 68.1657 28.1322 68.1334C28.0987 68.1291 28.0637 68.1247 28.0274 68.12C27.7912 68.0898 27.4957 68.052 27.1556 67.9997C26.3688 67.8785 25.336 67.6785 24.1677 67.3036C21.8292 66.5531 18.9509 65.1023 16.4093 62.1875C16.238 61.9911 16.2591 61.6937 16.4564 61.5232Z" fill="#1E243D"/>
<path fill-rule="evenodd" clip-rule="evenodd" d="M40.0986 72.5225C40.3471 72.603 40.4829 72.8688 40.402 73.1161C40.1907 73.7624 39.5736 74.279 38.8636 74.6447C38.1332 75.0209 37.2129 75.2864 36.2466 75.381C34.3312 75.5686 32.0859 75.0906 30.8051 73.2529C30.6562 73.0392 30.7095 72.7458 30.9241 72.5975C31.1388 72.4493 31.4335 72.5023 31.5824 72.716C32.5886 74.1597 34.4154 74.6139 36.154 74.4437C37.0147 74.3594 37.8168 74.1234 38.4289 73.8082C39.0613 73.4824 39.4067 73.1174 39.5024 72.8246C39.5833 72.5773 39.8502 72.442 40.0986 72.5225Z" fill="#1E243D"/>
<path fill-rule="evenodd" clip-rule="evenodd" d="M42.3518 66.7211C42.5957 66.8142 42.7176 67.0866 42.6241 67.3294L40.3941 73.1383C40.3009 73.3813 40.0275 73.5031 39.7834 73.4103C39.5394 73.3175 39.4171 73.0453 39.5103 72.8023L41.7407 66.9922C41.8343 66.7494 42.1078 66.628 42.3518 66.7211Z" fill="#1E243D"/>
<path fill-rule="evenodd" clip-rule="evenodd" d="M16.628 61.4285C16.8778 61.3524 17.1423 61.4923 17.2187 61.741L20.5256 72.5032C20.602 72.7519 20.4614 73.0152 20.2116 73.0913C19.9618 73.1674 19.6973 73.0275 19.6209 72.7787L16.314 62.0166C16.2376 61.7678 16.3782 61.5046 16.628 61.4285Z" fill="#1E243D"/>
<path fill-rule="evenodd" clip-rule="evenodd" d="M19.9622 72.1834C20.2162 72.1225 20.4717 72.2781 20.5329 72.5309C20.6859 73.1632 21.169 73.6466 21.9138 73.9781C22.6612 74.3107 23.6234 74.4642 24.6037 74.4482C25.5829 74.4321 26.5398 74.2476 27.2688 73.9398C28.0242 73.621 28.4117 73.2264 28.4933 72.8666C28.5509 72.6129 28.8041 72.4537 29.0589 72.5109C29.3138 72.5682 29.4737 72.8203 29.4162 73.074C29.2309 73.8912 28.474 74.4541 27.6381 74.807C26.7758 75.171 25.6946 75.3723 24.6193 75.3899C23.5452 75.4075 22.4366 75.2424 21.5277 74.8379C20.6161 74.4323 19.8572 73.76 19.6131 72.7515C19.5519 72.4987 19.7082 72.2443 19.9622 72.1834Z" fill="#1E243D"/>
<path fill-rule="evenodd" clip-rule="evenodd" d="M29.9425 69.6137C30.1933 69.6867 30.3371 69.9482 30.2638 70.1979L29.4702 72.9002C29.3968 73.1498 29.1341 73.293 28.8834 73.22C28.6326 73.147 28.4888 72.8855 28.5621 72.6358L29.3557 69.9335C29.4291 69.6839 29.6918 69.5407 29.9425 69.6137Z" fill="#1E243D"/>
<path fill-rule="evenodd" clip-rule="evenodd" d="M51.1823 72.2137C51.422 72.1103 51.7005 72.2199 51.8044 72.4585L52.0664 73.0602L52.1603 73.2815C52.2621 73.5211 52.1496 73.7974 51.909 73.8987C51.6683 74 51.3908 73.888 51.289 73.6484L51.1958 73.4291L50.9363 72.8331C50.8325 72.5944 50.9426 72.3171 51.1823 72.2137Z" fill="#1E243D"/>
<path fill-rule="evenodd" clip-rule="evenodd" d="M48.7746 66.6105C49.0147 66.5079 49.2929 66.6185 49.3959 66.8575L51.8053 72.456C51.9082 72.6951 51.7969 72.9719 51.5567 73.0743C51.3166 73.1767 51.0385 73.0659 50.9356 72.8268L48.5265 67.229C48.4235 66.99 48.5346 66.7131 48.7746 66.6105Z" fill="#1E243D"/>
<path fill-rule="evenodd" clip-rule="evenodd" d="M51.8351 72.5536C51.7938 72.3354 51.6014 72.1703 51.3703 72.1703C51.109 72.1703 50.8972 72.3812 50.8972 72.6413V72.646C50.8972 72.686 50.9024 72.7259 50.9125 72.7647C50.9798 73.0218 51.0834 73.2707 51.232 73.4971C51.7196 74.273 52.5888 74.7318 53.5251 74.9807C54.4724 75.2326 55.5568 75.2891 56.5749 75.2061C57.5913 75.1233 58.5765 74.8985 59.3233 74.5617C59.6956 74.3938 60.032 74.1876 60.2819 73.9375C60.5336 73.6858 60.725 73.3598 60.725 72.9703C60.725 72.7102 60.5133 72.4994 60.252 72.4994C59.9908 72.4994 59.779 72.7102 59.779 72.9703C59.779 73.033 59.7506 73.1338 59.6114 73.2731C59.4704 73.4141 59.2448 73.5631 58.9328 73.7038C58.311 73.9843 57.4384 74.1907 56.4977 74.2674C55.5588 74.3439 54.5871 74.2882 53.7691 74.0707C52.9421 73.8509 52.3386 73.4847 52.0321 72.9945C52.0301 72.9912 52.028 72.988 52.0259 72.9847C51.9444 72.8613 51.8804 72.7169 51.8351 72.5536Z" fill="#1E243D"/>
<path fill-rule="evenodd" clip-rule="evenodd" d="M67.2146 54.8949C67.4585 54.9881 67.5804 55.2604 67.4869 55.5033L60.6936 73.1389C60.6001 73.3818 60.3265 73.5031 60.0826 73.41C59.8387 73.3169 59.7168 73.0445 59.8103 72.8017L66.6035 55.166C66.6971 54.9232 66.9707 54.8018 67.2146 54.8949Z" fill="#1E243D"/>
<path fill-rule="evenodd" clip-rule="evenodd" d="M41.2556 68.3521C41.2556 68.092 41.4674 67.8812 41.7287 67.8812H48.9612C49.2225 67.8812 49.4343 68.092 49.4343 68.3521C49.4343 68.6122 49.2225 68.823 48.9612 68.823H41.7287C41.4674 68.823 41.2556 68.6122 41.2556 68.3521Z" fill="#1E243D"/>
<path fill-rule="evenodd" clip-rule="evenodd" d="M71.9101 37.049C72.1061 36.877 72.405 36.8958 72.5777 37.0909C73.5077 38.1415 73.8125 39.695 73.3446 41.0193L73.3445 41.0195C72.8768 42.3412 71.6677 43.3623 70.2864 43.6048C70.1394 43.6328 69.9825 43.6502 69.8183 43.6502C69.557 43.6502 69.3452 43.4394 69.3452 43.1793C69.3452 42.9192 69.557 42.7084 69.8183 42.7084C69.9161 42.7084 70.014 42.6979 70.1115 42.6792L70.1192 42.6778C71.1645 42.4954 72.0972 41.7094 72.4521 40.7068C72.8063 39.7044 72.5716 38.5085 71.8679 37.7136C71.6952 37.5185 71.7141 37.2209 71.9101 37.049Z" fill="#1E243D"/>
<path fill-rule="evenodd" clip-rule="evenodd" d="M68.7056 40.7066C69.335 40.555 69.9249 40.9403 70.1935 41.3973C70.4647 41.8587 70.4741 42.3941 70.3976 42.8293C70.3694 43.0018 70.3242 43.1775 70.2611 43.3448C70.1941 43.5225 70.0265 43.6428 69.836 43.6499C69.2495 43.6717 68.568 43.5174 68.1131 42.9919L68.1109 42.9894L68.1109 42.9894C67.7985 42.6233 67.7165 42.1257 67.8015 41.7072C67.8869 41.2873 68.1703 40.8354 68.7055 40.7066M69.3769 41.8729C69.2582 41.6709 69.0451 41.5938 68.928 41.622L68.9279 41.6221C68.8584 41.6388 68.7664 41.7092 68.7288 41.8941C68.6911 42.0798 68.7383 42.2689 68.8309 42.3784C68.9732 42.542 69.1926 42.649 69.4617 42.6906C69.4626 42.6856 69.4634 42.6807 69.4642 42.6757L69.4653 42.6692C69.5214 42.3518 69.4924 42.0695 69.3769 41.8729Z" fill="#1E243D"/>
<path fill-rule="evenodd" clip-rule="evenodd" d="M69.977 42.7358C70.223 42.8232 70.3513 43.0926 70.2635 43.3376C69.7979 44.6369 68.4713 45.6062 67.053 45.5711H67.0497C66.7884 45.5711 66.5767 45.3602 66.5767 45.1001C66.5767 44.84 66.7884 44.6292 67.0497 44.6292H67.0591C67.0634 44.6292 67.0677 44.6292 67.072 44.6294C68.0604 44.656 69.0358 43.9607 69.3725 43.0211C69.4603 42.7761 69.7309 42.6484 69.977 42.7358Z" fill="#1E243D"/>
<path fill-rule="evenodd" clip-rule="evenodd" d="M24.7997 46.7424C24.7997 47.8144 24.4983 48.6839 24.1266 48.6839C23.7548 48.6839 23.4534 47.8144 23.4534 46.7424C23.4534 45.67 23.7548 44.8004 24.1266 44.8004C24.4983 44.8004 24.7997 45.67 24.7997 46.7424Z" fill="#1E243D"/>
<path fill-rule="evenodd" clip-rule="evenodd" d="M16.6889 46.7424C16.6889 47.8144 16.3875 48.6839 16.0157 48.6839C15.6439 48.6839 15.3425 47.8144 15.3425 46.7424C15.3425 45.67 15.6439 44.8004 16.0157 44.8004C16.3875 44.8004 16.6889 45.67 16.6889 46.7424Z" fill="#1E243D"/>
<path d="M42.5 73.6V72.1778C42.5 71.3923 43.1396 70.7556 43.9286 70.7556H58.3929C59.1818 70.7556 59.8214 71.3923 59.8214 72.1778V73.6C59.8214 74.3855 59.1818 75.0222 58.3929 75.0222H43.9286C43.1396 75.0222 42.5 74.3855 42.5 73.6Z" fill="#FFE68B"/>
<path fill-rule="evenodd" clip-rule="evenodd" d="M43.9286 71.2889C43.4355 71.2889 43.0358 71.6869 43.0358 72.1778V73.6C43.0358 74.0909 43.4355 74.4889 43.9286 74.4889H58.3929C58.886 74.4889 59.2858 74.0909 59.2858 73.6V72.1778C59.2858 71.6869 58.886 71.2889 58.3929 71.2889H43.9286ZM41.9644 72.1778C41.9644 71.0978 42.8438 70.2222 43.9286 70.2222H58.3929C59.4778 70.2222 60.3572 71.0978 60.3572 72.1778V73.6C60.3572 74.68 59.4778 75.5556 58.3929 75.5556H43.9286C42.8438 75.5556 41.9644 74.68 41.9644 73.6V72.1778Z" fill="#1E243D"/>
<path d="M43.5715 69.3333V67.9111C43.5715 67.1256 44.2111 66.4889 45.0001 66.4889H59.4644C60.2534 66.4889 60.893 67.1256 60.893 67.9111V69.3333C60.893 70.1188 60.2534 70.7556 59.4644 70.7556H45.0001C44.2111 70.7556 43.5715 70.1188 43.5715 69.3333Z" fill="#FFE68B"/>
<path fill-rule="evenodd" clip-rule="evenodd" d="M44.9999 67.0222C44.5068 67.0222 44.1071 67.4202 44.1071 67.9111V69.3333C44.1071 69.8243 44.5068 70.2222 44.9999 70.2222H59.4642C59.9573 70.2222 60.3571 69.8243 60.3571 69.3333V67.9111C60.3571 67.4202 59.9573 67.0222 59.4642 67.0222H44.9999ZM43.0356 67.9111C43.0356 66.8311 43.9151 65.9556 44.9999 65.9556H59.4642C60.5491 65.9556 61.4285 66.8311 61.4285 67.9111V69.3333C61.4285 70.4134 60.5491 71.2889 59.4642 71.2889H44.9999C43.9151 71.2889 43.0356 70.4134 43.0356 69.3333V67.9111Z" fill="#1E243D"/>
<path d="M42.1428 65.0667V63.6445C42.1428 62.859 42.7824 62.2222 43.5714 62.2222H58.0357C58.8247 62.2222 59.4643 62.859 59.4643 63.6445V65.0667C59.4643 65.8521 58.8247 66.4889 58.0357 66.4889H43.5714C42.7824 66.4889 42.1428 65.8521 42.1428 65.0667Z" fill="#FFE68B"/>
<path fill-rule="evenodd" clip-rule="evenodd" d="M43.5715 62.7556C43.0784 62.7556 42.6786 63.1535 42.6786 63.6445V65.0667C42.6786 65.5576 43.0784 65.9556 43.5715 65.9556H58.0357C58.5289 65.9556 58.9286 65.5576 58.9286 65.0667V63.6445C58.9286 63.1535 58.5289 62.7556 58.0357 62.7556H43.5715ZM41.6072 63.6445C41.6072 62.5644 42.4866 61.6889 43.5715 61.6889H58.0357C59.1206 61.6889 60 62.5644 60 63.6445V65.0667C60 66.1467 59.1206 67.0222 58.0357 67.0222H43.5715C42.4866 67.0222 41.6072 66.1467 41.6072 65.0667V63.6445Z" fill="#1E243D"/>
<path d="M43.5715 60.8V59.3778C43.5715 58.5923 44.2111 57.9556 45.0001 57.9556H59.4644C60.2534 57.9556 60.893 58.5923 60.893 59.3778V60.8C60.893 61.5855 60.2534 62.2222 59.4644 62.2222H45.0001C44.2111 62.2222 43.5715 61.5855 43.5715 60.8Z" fill="#FFE68B"/>
<path fill-rule="evenodd" clip-rule="evenodd" d="M44.9999 58.4889C44.5068 58.4889 44.1071 58.8869 44.1071 59.3778V60.8C44.1071 61.2909 44.5068 61.6889 44.9999 61.6889H59.4642C59.9573 61.6889 60.3571 61.2909 60.3571 60.8V59.3778C60.3571 58.8869 59.9573 58.4889 59.4642 58.4889H44.9999ZM43.0356 59.3778C43.0356 58.2978 43.9151 57.4222 44.9999 57.4222H59.4642C60.5491 57.4222 61.4285 58.2978 61.4285 59.3778V60.8C61.4285 61.88 60.5491 62.7556 59.4642 62.7556H44.9999C43.9151 62.7556 43.0356 61.88 43.0356 60.8V59.3778Z" fill="#1E243D"/>
<path d="M43.5715 56.5333V55.1111C43.5715 54.3257 44.2111 53.6889 45.0001 53.6889H59.4644C60.2534 53.6889 60.893 54.3257 60.893 55.1111V56.5333C60.893 57.3188 60.2534 57.9556 59.4644 57.9556H45.0001C44.2111 57.9556 43.5715 57.3188 43.5715 56.5333Z" fill="#FFE68B"/>
<path fill-rule="evenodd" clip-rule="evenodd" d="M44.9999 54.2222C44.5068 54.2222 44.1071 54.6202 44.1071 55.1111V56.5334C44.1071 57.0243 44.5068 57.4222 44.9999 57.4222H59.4642C59.9573 57.4222 60.3571 57.0243 60.3571 56.5334V55.1111C60.3571 54.6202 59.9573 54.2222 59.4642 54.2222H44.9999ZM43.0356 55.1111C43.0356 54.0311 43.9151 53.1556 44.9999 53.1556H59.4642C60.5491 53.1556 61.4285 54.0311 61.4285 55.1111V56.5334C61.4285 57.6134 60.5491 58.4889 59.4642 58.4889H44.9999C43.9151 58.4889 43.0356 57.6134 43.0356 56.5334V55.1111Z" fill="#1E243D"/>
<path d="M70.3572 67.7333C70.3572 72.5443 66.4397 76.4444 61.6072 76.4444C56.7747 76.4444 52.8572 72.5443 52.8572 67.7333C52.8572 62.9223 56.7747 59.0222 61.6072 59.0222C66.4397 59.0222 70.3572 62.9223 70.3572 67.7333Z" fill="#FFE68B"/>
<path fill-rule="evenodd" clip-rule="evenodd" d="M61.6072 75.3778C65.8479 75.3778 69.2857 71.9552 69.2857 67.7333C69.2857 63.5114 65.8479 60.0889 61.6072 60.0889C57.3664 60.0889 53.9286 63.5114 53.9286 67.7333C53.9286 71.9552 57.3664 75.3778 61.6072 75.3778ZM61.6072 76.4444C66.4397 76.4444 70.3572 72.5443 70.3572 67.7333C70.3572 62.9223 66.4397 59.0222 61.6072 59.0222C56.7747 59.0222 52.8572 62.9223 52.8572 67.7333C52.8572 72.5443 56.7747 76.4444 61.6072 76.4444Z" fill="#1E243D"/>
<path d="M67.143 67.7333C67.143 70.777 64.6645 73.2445 61.6072 73.2445C58.55 73.2445 56.0715 70.777 56.0715 67.7333C56.0715 64.6896 58.55 62.2222 61.6072 62.2222C64.6645 62.2222 67.143 64.6896 67.143 67.7333Z" fill="#FFF0B9"/>
<path fill-rule="evenodd" clip-rule="evenodd" d="M61.6072 72.5333C64.27 72.5333 66.4287 70.3843 66.4287 67.7333C66.4287 65.0824 64.27 62.9333 61.6072 62.9333C58.9444 62.9333 56.7858 65.0824 56.7858 67.7333C56.7858 70.3843 58.9444 72.5333 61.6072 72.5333ZM61.6072 73.2445C64.6645 73.2445 67.143 70.777 67.143 67.7333C67.143 64.6896 64.6645 62.2222 61.6072 62.2222C58.55 62.2222 56.0715 64.6896 56.0715 67.7333C56.0715 70.777 58.55 73.2445 61.6072 73.2445Z" fill="#1E243D"/>
<path fill-rule="evenodd" clip-rule="evenodd" d="M60.6875 65.3542C61.0323 65.1862 61.3951 65.1736 61.5638 65.1736C61.9393 65.1736 62.6693 65.3132 63.1 65.9076C63.2553 66.1219 63.2066 66.4211 62.9913 66.5758C62.776 66.7304 62.4755 66.682 62.3201 66.4676C62.2376 66.3536 62.1127 66.268 61.9626 66.2099C61.8109 66.1511 61.6593 66.1309 61.5638 66.1309C61.4308 66.1309 61.2509 66.1454 61.1101 66.214C61.0462 66.2451 60.9991 66.2833 60.9651 66.3305C60.9321 66.3763 60.8953 66.4527 60.8835 66.5863C60.8745 66.6879 60.8915 66.7359 60.9016 66.7565C60.9117 66.7773 60.9316 66.8047 60.9826 66.839C61.1095 66.9241 61.3104 66.9815 61.6298 67.0617C61.6425 67.0649 61.6554 67.0682 61.6685 67.0715C61.9384 67.139 62.2996 67.2295 62.5888 67.4106C62.751 67.5122 62.9073 67.6511 63.021 67.8444C63.1357 68.0396 63.1908 68.2628 63.1908 68.5072C63.1908 68.5179 63.1905 68.5286 63.1897 68.5393C63.147 69.1706 62.8066 69.5492 62.4232 69.7439C62.0734 69.9216 61.7112 69.9374 61.5638 69.9374C60.9826 69.9374 60.5714 69.7234 60.3052 69.4925C60.1753 69.3799 60.0833 69.2663 60.0224 69.1782C59.9918 69.134 59.9686 69.0955 59.9519 69.0657C59.9435 69.0508 59.9368 69.038 59.9315 69.0276C59.9289 69.0225 59.9267 69.0179 59.9248 69.014L59.9222 69.0086L59.9211 69.0063L59.9206 69.0052L59.9204 69.0047C59.9203 69.0045 59.9202 69.0042 60.3396 68.8126L59.9202 69.0042C59.8094 68.764 59.9152 68.4798 60.1565 68.3696C60.3952 68.2605 60.677 68.3623 60.7903 68.597C60.7906 68.5976 60.7911 68.5985 60.7918 68.5997C60.7951 68.6057 60.8025 68.6183 60.8144 68.6354C60.8383 68.6699 60.8783 68.72 60.9369 68.7708C61.0478 68.8671 61.2399 68.9802 61.5638 68.9802C61.6576 68.9802 61.8383 68.9663 61.9863 68.8912C62.0541 68.8568 62.1065 68.8137 62.1446 68.7592C62.18 68.7084 62.2175 68.6271 62.2291 68.4916C62.227 68.404 62.2076 68.3561 62.1911 68.328C62.1726 68.2964 62.1402 68.2606 62.0769 68.2209C61.929 68.1283 61.7125 68.0699 61.3944 67.9899C61.3844 67.9874 61.3743 67.9848 61.3641 67.9823C61.0944 67.9146 60.7286 67.8229 60.4452 67.6327C60.2857 67.5257 60.1359 67.3784 60.0364 67.1743C59.9369 66.9701 59.9045 66.7429 59.9257 66.5026C59.9787 65.9017 60.3071 65.5394 60.6875 65.3542Z" fill="#1E243D"/>
<path fill-rule="evenodd" clip-rule="evenodd" d="M61.5336 64.588C61.7991 64.588 62.0144 64.8023 62.0144 65.0667V65.6523C62.0144 65.9166 61.7991 66.1309 61.5336 66.1309C61.2681 66.1309 61.0529 65.9166 61.0529 65.6523V65.0667C61.0529 64.8023 61.2681 64.588 61.5336 64.588Z" fill="#1E243D"/>
<path fill-rule="evenodd" clip-rule="evenodd" d="M61.5335 68.9801C61.799 68.9801 62.0143 69.1944 62.0143 69.4588V70.0444C62.0143 70.3087 61.799 70.523 61.5335 70.523C61.268 70.523 61.0527 70.3087 61.0527 70.0444V69.4588C61.0527 69.1944 61.268 68.9801 61.5335 68.9801Z" fill="#1E243D"/>
<path d="M54.4643 59.2H50.5357C50.1412 59.2 49.8214 58.8816 49.8214 58.4889V51.7333C49.8214 51.3406 49.5017 51.0222 49.1072 51.0222H46.8402C46.2759 51.0222 45.9344 50.4014 46.2384 49.9281L51.8982 41.1149C52.1791 40.6774 52.8209 40.6775 53.1018 41.1149L58.7616 49.9281C59.0656 50.4014 58.7242 51.0222 58.1598 51.0222H55.8929C55.4984 51.0222 55.1786 51.3406 55.1786 51.7333V58.4889C55.1786 58.8816 54.8588 59.2 54.4643 59.2Z" fill="#80D5AF"/>
<path fill-rule="evenodd" clip-rule="evenodd" d="M51.4468 40.8276C51.9384 40.0621 53.0615 40.0621 53.5531 40.8276L59.2129 49.6408C59.7449 50.4691 59.1473 51.5556 58.1598 51.5556H55.8928C55.7942 51.5556 55.7143 51.6352 55.7143 51.7333V58.4889C55.7143 59.1762 55.1546 59.7333 54.4643 59.7333H50.5357C49.8453 59.7333 49.2857 59.1762 49.2857 58.4889V51.7333C49.2857 51.6352 49.2057 51.5556 49.1071 51.5556H46.8402C45.8526 51.5556 45.255 50.4691 45.787 49.6408L51.4468 40.8276ZM52.6504 41.4022C52.5802 41.2928 52.4197 41.2928 52.3495 41.4022L51.9117 41.1235L52.3495 41.4022L46.6897 50.2154C46.6137 50.3337 46.6991 50.4889 46.8402 50.4889H49.1071C49.7975 50.4889 50.3571 51.046 50.3571 51.7333V58.4889C50.3571 58.5871 50.4371 58.6667 50.5357 58.6667H54.4643C54.5629 58.6667 54.6428 58.5871 54.6428 58.4889V51.7333C54.6428 51.046 55.2025 50.4889 55.8928 50.4889H58.1598C58.3009 50.4889 58.3862 50.3337 58.3102 50.2154L52.6504 41.4022Z" fill="#1E243D"/>
<path d="M61.7176 47.4488L61.8888 45.4744C61.9273 45.0305 62.3616 44.7307 62.7927 44.8507L63.7248 45.11C64.144 45.2266 64.3618 45.6862 64.1858 46.0825L63.3844 47.8866C63.2391 48.2137 62.8724 48.3824 62.5281 48.2808L62.2262 48.1917C61.901 48.0957 61.6885 47.7852 61.7176 47.4488Z" fill="#FFE68B"/>
<path fill-rule="evenodd" clip-rule="evenodd" d="M62.6487 45.3643C62.5409 45.3343 62.4323 45.4093 62.4227 45.5202L62.2515 47.4946C62.2442 47.5787 62.2974 47.6563 62.3787 47.6803L62.2264 48.1917L62.3787 47.6803L62.6805 47.7694C62.7666 47.7949 62.8583 47.7527 62.8946 47.6709L63.696 45.8668C63.74 45.7677 63.6856 45.6528 63.5808 45.6236L62.6487 45.3643ZM61.3552 45.4285C61.4226 44.6517 62.1827 44.1271 62.937 44.337L63.8691 44.5963C64.6027 44.8004 64.984 45.6047 64.6759 46.2982L63.8745 48.1023C63.6202 48.6747 62.9786 48.97 62.3759 48.7921L62.0741 48.703C61.505 48.535 61.133 47.9917 61.1841 47.4029L61.3552 45.4285Z" fill="#1E243D"/>
<path d="M66.0307 50.0589L67.3486 48.5737C67.6449 48.2398 68.1732 48.2563 68.4479 48.6081L69.0419 49.3688C69.309 49.7109 69.2093 50.2093 68.8309 50.4234L67.1083 51.3984C66.7961 51.5751 66.4005 51.4935 66.1846 51.2077L65.9953 50.9573C65.7913 50.6874 65.8061 50.312 66.0307 50.0589Z" fill="#FFE68B"/>
<path fill-rule="evenodd" clip-rule="evenodd" d="M68.0249 48.9354C67.9562 48.8475 67.8242 48.8433 67.7501 48.9268L66.4322 50.412C66.3761 50.4753 66.3723 50.5691 66.4233 50.6366L65.9953 50.9572L66.4233 50.6366L66.6126 50.887C66.6666 50.9585 66.7655 50.9789 66.8436 50.9347L68.5662 49.9598C68.6608 49.9062 68.6857 49.7816 68.6189 49.6961L68.0249 48.9354ZM66.9471 48.2206C67.4657 47.6362 68.3901 47.6651 68.8708 48.2807L69.4648 49.0415C69.9323 49.6401 69.7578 50.5123 69.0957 50.8871L67.3731 51.862C66.8266 52.1713 66.1344 52.0284 65.7565 51.5283L65.5672 51.2779C65.2103 50.8057 65.2362 50.1487 65.6292 49.7058L66.9471 48.2206Z" fill="#1E243D"/>
<path d="M67.1778 55.0634L69.1659 54.9647C69.6129 54.9425 69.97 55.3304 69.9091 55.7718L69.7773 56.7263C69.718 57.1556 69.2902 57.4328 68.8719 57.3128L66.9679 56.7667C66.6227 56.6677 66.4051 56.329 66.4596 55.9755L66.5074 55.6657C66.5588 55.3319 66.839 55.0802 67.1778 55.0634Z" fill="#FFE68B"/>
<path fill-rule="evenodd" clip-rule="evenodd" d="M69.3783 55.6992C69.3936 55.5888 69.3043 55.4919 69.1926 55.4974L67.2045 55.5961C67.1198 55.6003 67.0497 55.6632 67.0369 55.7466L66.5073 55.6657L67.0369 55.7467L66.9891 56.0564C66.9754 56.1448 67.0298 56.2295 67.1161 56.2543L69.0202 56.8003C69.1248 56.8303 69.2317 56.761 69.2465 56.6537L69.3783 55.6992ZM69.1392 54.4321C69.9214 54.3932 70.5465 55.072 70.4398 55.8444L70.308 56.799C70.2043 57.5502 69.4555 58.0352 68.7236 57.8253L66.8195 57.2792C66.2155 57.106 65.8347 56.5131 65.9301 55.8946L65.9778 55.5848C66.0679 55.0006 66.5582 54.5602 67.1511 54.5307L69.1392 54.4321Z" fill="#1E243D"/>
<path d="M49.685 2.17423C46.7608 4.69051 46.2207 8.19039 46.3403 10.1038C46.3619 10.4496 46.5939 10.7393 46.9143 10.8734L50.8983 12.5414C51.5678 12.8217 52.3117 12.3177 52.3912 11.598C52.6861 8.93026 53.8634 6.81077 54.9254 5.47906C55.3934 4.89217 55.234 3.94223 54.541 3.65212L50.6722 2.0324C50.3411 1.89378 49.957 1.94013 49.685 2.17423Z" fill="#D5F2E6"/>
<ellipse cx="1.42649" cy="1.42431" rx="1.42649" ry="1.42431" transform="matrix(0.820715 0.571338 -0.574766 0.818317 50.1748 4.94739)" fill="white"/>
<path d="M57.914 16.8724C57.9299 20.7205 60.2477 23.4066 61.7848 24.5614C62.0625 24.77 62.4341 24.7833 62.7445 24.6286L66.6101 22.7023C67.2594 22.3787 67.3586 21.4878 66.8611 20.9588C65.0198 19.0007 64.1698 16.7329 63.8451 15.064C63.7019 14.3277 62.8734 13.8289 62.2014 14.1638L58.4476 16.0344C58.1268 16.1943 57.9125 16.5145 57.914 16.8724Z" fill="#D5F2E6"/>
<ellipse cx="1.4273" cy="1.4235" rx="1.4273" ry="1.4235" transform="matrix(0.895025 -0.446016 0.449204 0.893429 60.1553 18.7619)" fill="white"/>
<path d="M47.5751 20.0862C43.7201 20.3556 41.1808 22.8342 40.1244 24.4371C39.9334 24.7269 39.9449 25.0984 40.1212 25.3979L42.3047 29.1082C42.6723 29.7327 43.5694 29.7752 44.0651 29.2476C45.9096 27.2841 48.1321 26.2892 49.7854 25.8574C50.5117 25.6677 50.953 24.8131 50.5727 24.1667L48.4522 20.5635C48.27 20.254 47.934 20.0612 47.5751 20.0862Z" fill="#D5F2E7"/>
<ellipse cx="1.42385" cy="1.42695" rx="1.42385" ry="1.42695" transform="matrix(0.507193 0.861832 -0.863797 0.50384 45.8293 22.4371)" fill="white"/>
<rect x="41.7856" y="33.0667" width="10" height="1.06667" rx="0.533333" fill="#1E243D"/>
<path fill-rule="evenodd" clip-rule="evenodd" d="M15.0443 38.6797C16.45 36.9325 17.9353 35.4568 19.7847 34.38C21.6349 33.3026 23.8754 32.6096 26.8081 32.4706L26.7631 31.5294C23.6957 31.6748 21.3035 32.404 19.3068 33.5667C17.3144 34.7268 15.7416 36.3037 14.2936 38.1057L14.2818 38.1203L14.2713 38.1358C10.8541 43.1578 10.9133 47.0669 10.9688 50.7256C10.9757 51.1834 10.9826 51.6373 10.9826 52.0889L11.929 52.0889C11.929 51.6266 11.9223 51.1666 11.9157 50.7066C11.8629 47.0742 11.8102 43.4407 15.0443 38.6797Z" fill="#1E243D"/>
</svg>
