<svg width="80" height="80" viewBox="0 0 80 80" fill="none" xmlns="http://www.w3.org/2000/svg">
<ellipse cx="54.4183" cy="72.7456" rx="25.5814" ry="3.25439" fill="#E3E5F6"/>
<ellipse cx="25.1163" cy="70.886" rx="25.1163" ry="3.25439" fill="#E3E5F6"/>
<path d="M21.3953 70.421L17.2093 23.9298L12.2151 69.3117C12.15 69.9037 12.6135 70.421 13.2091 70.421H21.3953Z" fill="#C2B9F5"/>
<path fill-rule="evenodd" clip-rule="evenodd" d="M17.1348 31.4643L12.9607 69.3937C12.9444 69.5417 13.0603 69.6711 13.2092 69.6711H20.5749L17.1348 31.4643ZM11.4697 69.2296L16.4639 23.8478L17.9564 23.8626L22.216 71.1711H13.2092C12.1669 71.1711 11.3557 70.2656 11.4697 69.2296Z" fill="#39405D"/>
<path d="M47.0968 23H16.7652C16.2064 23 15.7706 23.4696 15.818 24.0129L20.3743 69.5923C20.4217 70.0619 20.829 70.4211 21.3216 70.4211H53.0078C53.5761 70.4211 54.0213 69.933 53.9456 69.3806L48.0346 23.8011C47.9778 23.3407 47.5704 23 47.0968 23Z" fill="#F2F0FF"/>
<path fill-rule="evenodd" clip-rule="evenodd" d="M15.07 24.078C14.9833 23.0836 15.7786 22.25 16.7644 22.25H47.0959C47.9203 22.25 48.6703 22.8456 48.7778 23.707C48.7779 23.7077 48.778 23.7085 48.7781 23.7092L54.6877 69.2786C54.6879 69.2797 54.688 69.2807 54.6882 69.2817C54.8274 70.3106 54.0011 71.1711 53.0069 71.1711H21.3208C20.4638 71.1711 19.7153 70.5406 19.6273 69.6676L15.07 24.078ZM16.5641 23.945L21.1197 69.5171C21.1197 69.517 21.1197 69.5171 21.1197 69.5171C21.1265 69.5833 21.1926 69.6711 21.3208 69.6711H53.0069C53.1485 69.6711 53.2119 69.5572 53.2017 69.4825L53.2009 69.477L47.2894 23.893C47.2822 23.8348 47.2181 23.75 47.0959 23.75H16.7644C16.6337 23.75 16.5578 23.8535 16.5641 23.945Z" fill="#3E425C"/>
<rect x="26.0469" y="54.614" width="20.4651" height="1.86047" rx="0.930233" fill="#D3CCFE"/>
<rect x="26.0469" y="59.2632" width="20.4651" height="1.86047" rx="0.930233" fill="#D3CCFE"/>
<g clip-path="url(#clip0_5063_88116)">
<path fill-rule="evenodd" clip-rule="evenodd" d="M27.2422 36.9474L26.6283 31.8705H31.6422L32.2748 36.9474H27.2422ZM25.1213 31.1546C25.0748 30.7547 25.3538 30.4386 25.7445 30.4386H32.1724C32.5631 30.4386 32.9166 30.764 32.9724 31.1546L33.791 37.6633C33.8376 38.0632 33.5585 38.3793 33.1678 38.3793H26.7027C26.312 38.3793 25.9492 38.0539 25.9027 37.6633L25.1213 31.1546ZM28.3492 46.2084L27.7352 41.1316H32.7864L33.419 46.2084H28.3492ZM26.2283 40.4156C26.1817 40.0158 26.4608 39.6997 26.8515 39.6997H33.3166C33.7073 39.6997 34.0701 40.0251 34.1166 40.4156L34.9352 46.9244C34.9817 47.3242 34.7027 47.6404 34.312 47.6404H27.8096C27.4096 47.6404 27.0562 47.3149 27.0096 46.9244L26.2376 40.4156H26.2283ZM35.7817 31.8705L36.4329 36.9474H41.4655L40.7957 31.8705H35.7817ZM34.8887 30.4386C34.498 30.4386 34.219 30.764 34.2748 31.1546L35.0934 37.6633C35.1399 38.0632 35.5027 38.3793 35.8934 38.3793H42.3585C42.7492 38.3793 43.0283 38.0539 42.9724 37.6633L42.1073 31.1546C42.0515 30.7547 41.698 30.4386 41.3073 30.4386H34.8887ZM29.3631 33.7488C29.0003 33.7488 28.7492 34.0463 28.7864 34.4089C28.8236 34.7716 29.1585 35.0691 29.5213 35.0691C29.8841 35.0691 30.1445 34.7716 30.098 34.4089C30.0515 34.0463 29.7259 33.7488 29.3631 33.7488ZM37.9585 34.4089C37.912 34.0463 38.1631 33.7488 38.5259 33.7488C38.8887 33.7488 39.2236 34.0463 39.2701 34.4089C39.3166 34.7716 39.0655 35.0691 38.7027 35.0691C38.3399 35.0691 38.005 34.7716 37.9585 34.4089ZM30.498 43.0098C30.1352 43.0098 29.8748 43.3074 29.9213 43.67C29.9678 44.0326 30.2934 44.3302 30.6655 44.3302C31.0376 44.3302 31.2887 44.0326 31.2422 43.67C31.1957 43.3074 30.8701 43.0098 30.498 43.0098ZM35.7724 43.0098C35.7259 42.6472 35.9864 42.3497 36.3492 42.3497C36.712 42.3497 37.0469 42.6472 37.0934 43.0098C37.1399 43.3725 36.8794 43.67 36.5166 43.67C36.1538 43.67 35.8189 43.3725 35.7724 43.0098ZM36.1259 39.7554C35.7352 39.7554 35.4562 40.0809 35.5027 40.4714C35.5492 40.8619 35.912 41.1874 36.3027 41.1874H38.7957L38.8608 41.6802L39.0748 43.3353C39.1213 43.7351 39.4841 44.0512 39.8841 44.0512C40.2841 44.0512 40.5538 43.7258 40.5073 43.3353L40.3864 42.3961H42.8887C43.2794 42.3961 43.5585 42.0707 43.512 41.6802L43.3538 40.4714C43.298 40.0716 42.9352 39.7554 42.5445 39.7554C42.1538 39.7554 41.8748 40.0809 41.9306 40.4714L41.9957 40.9642H40.2096L40.1445 40.4714C40.0887 40.0716 39.7352 39.7554 39.3352 39.7554H36.1259ZM43.0562 43.6979C43.4469 43.6979 43.8096 44.0233 43.8655 44.4139L44.0329 45.6505L44.2003 46.9151C44.2562 47.3149 43.9771 47.6311 43.5771 47.6311C43.1771 47.6311 42.8143 47.3056 42.7678 46.9151L42.6934 46.3665H41.4189C41.019 46.3665 40.6655 46.0411 40.6096 45.6505C40.5538 45.26 40.8329 44.9346 41.2329 44.9346H42.5073L42.4422 44.4139C42.3864 44.014 42.6655 43.6979 43.0655 43.6979H43.0562ZM38.9166 47.6404C39.3166 47.6404 39.5957 47.3149 39.5399 46.9244C39.4841 46.5339 39.1306 46.2084 38.7306 46.2084H37.6608L37.5678 45.4925C37.5213 45.0926 37.1585 44.7765 36.7585 44.7765C36.3585 44.7765 36.0794 45.1019 36.1352 45.4925L36.3213 46.9244C36.3678 47.3242 36.7306 47.6404 37.1306 47.6404H38.9259H38.9166Z" fill="#39405D"/>
</g>
<path d="M63.184 43.4475H47.3899C46.7668 43.4475 46.2618 43.9602 46.2617 44.5926L46.2617 72.0741C46.2617 72.7065 46.7668 73.2191 47.3899 73.2191H63.184C63.8071 73.2191 64.3122 72.7065 64.3122 72.0741V66.3487V50.3179V44.5926C64.3122 43.9602 63.8071 43.4475 63.184 43.4475Z" fill="#E7E3FF"/>
<path fill-rule="evenodd" clip-rule="evenodd" d="M45.6973 44.5926C45.6973 43.644 46.4549 42.875 47.3895 42.875H63.1837C64.1183 42.875 64.8759 43.644 64.8759 44.5926V72.0741C64.8759 73.0227 64.1183 73.7917 63.1837 73.7917H47.3895C46.4549 73.7917 45.6973 73.0227 45.6973 72.0741L45.6973 44.5926ZM47.3895 44.0201C47.078 44.0201 46.8255 44.2764 46.8255 44.5926L46.8254 72.0741C46.8254 72.3903 47.078 72.6466 47.3895 72.6466H63.1837C63.4952 72.6466 63.7477 72.3903 63.7477 72.0741V44.5926C63.7477 44.2764 63.4952 44.0201 63.1837 44.0201H47.3895Z" fill="#39405D"/>
<path d="M72.2092 58.3333C72.2092 62.7601 68.6736 66.3487 64.3121 66.3487C59.9507 66.3487 56.415 62.7601 56.415 58.3333C56.415 53.9065 59.9507 50.3179 64.3121 50.3179C68.6736 50.3179 72.2092 53.9065 72.2092 58.3333Z" fill="#FFECAB"/>
<path fill-rule="evenodd" clip-rule="evenodd" d="M64.3121 65.2037C68.0505 65.2037 71.081 62.1277 71.081 58.3333C71.081 54.5389 68.0505 51.4629 64.3121 51.4629C60.5737 51.4629 57.5432 54.5389 57.5432 58.3333C57.5432 62.1277 60.5737 65.2037 64.3121 65.2037ZM64.3121 66.3487C68.6736 66.3487 72.2092 62.7601 72.2092 58.3333C72.2092 53.9065 68.6736 50.3179 64.3121 50.3179C59.9507 50.3179 56.415 53.9065 56.415 58.3333C56.415 62.7601 59.9507 66.3487 64.3121 66.3487Z" fill="#39405D"/>
<path d="M57.5429 68.6389C57.5429 69.9037 56.5327 70.929 55.2866 70.929C54.0405 70.929 53.0303 69.9037 53.0303 68.6389C53.0303 67.3741 54.0405 66.3488 55.2866 66.3488C56.5327 66.3488 57.5429 67.3741 57.5429 68.6389Z" fill="#D3CCFE"/>
<path fill-rule="evenodd" clip-rule="evenodd" d="M55.2866 69.7839C55.9096 69.7839 56.4147 69.2713 56.4147 68.6389C56.4147 68.0065 55.9096 67.4938 55.2866 67.4938C54.6635 67.4938 54.1584 68.0065 54.1584 68.6389C54.1584 69.2713 54.6635 69.7839 55.2866 69.7839ZM55.2866 70.929C56.5327 70.929 57.5429 69.9037 57.5429 68.6389C57.5429 67.3741 56.5327 66.3488 55.2866 66.3488C54.0405 66.3488 53.0303 67.3741 53.0303 68.6389C53.0303 69.9037 54.0405 70.929 55.2866 70.929Z" fill="#39405D"/>
<path fill-rule="evenodd" clip-rule="evenodd" d="M51.9023 46.3102C51.9023 45.994 52.1549 45.7377 52.4664 45.7377H58.1072C58.4187 45.7377 58.6713 45.994 58.6713 46.3102C58.6713 46.6264 58.4187 46.8827 58.1072 46.8827H52.4664C52.1549 46.8827 51.9023 46.6264 51.9023 46.3102Z" fill="#39405D"/>
<path fill-rule="evenodd" clip-rule="evenodd" d="M64.312 53.7531C64.6052 53.7531 64.8428 53.9943 64.8428 54.2919V54.6104C65.3746 54.7124 66.0411 54.9927 66.4738 55.6268C66.6407 55.8715 66.5807 56.2071 66.3396 56.3766C66.0986 56.546 65.7679 56.4851 65.6009 56.2404C65.2979 55.7964 64.7096 55.639 64.3563 55.639C64.1562 55.639 63.8627 55.661 63.6221 55.7855C63.4213 55.8894 63.2233 56.0771 63.1853 56.5346C63.1694 56.7262 63.198 56.8431 63.232 56.9173C63.2657 56.9907 63.3211 57.058 63.415 57.1249C63.6302 57.2783 63.9557 57.3735 64.4155 57.4963L64.4653 57.5096C64.8669 57.6165 65.374 57.7515 65.7751 58.0181C65.9958 58.1649 66.2006 58.3604 66.3476 58.626C66.4953 58.8928 66.5682 59.2003 66.5682 59.5455C66.5682 59.5571 66.5679 59.5687 66.5671 59.5803C66.5102 60.4733 66.0622 61.0045 65.5454 61.2832C65.3034 61.4136 65.0557 61.4845 64.8428 61.5227V61.8355C64.8428 62.1331 64.6052 62.3743 64.312 62.3743C64.0188 62.3743 63.7811 62.1331 63.7811 61.8355V61.5091C63.2681 61.4032 62.8858 61.1645 62.617 60.9169C62.44 60.7539 62.3154 60.5904 62.2337 60.4649C62.1927 60.4019 62.1619 60.3476 62.1402 60.3066C62.1294 60.286 62.1208 60.2687 62.1143 60.2551L62.1061 60.2375L62.1036 60.232L62.1014 60.2271L62.1009 60.2259C61.9826 59.9535 62.1043 59.6355 62.3726 59.5155C62.6389 59.3963 62.9496 59.5171 63.0698 59.7853C63.0698 59.7853 63.0728 59.7913 63.0763 59.7981C63.0841 59.8127 63.0982 59.838 63.1194 59.8705C63.1621 59.9361 63.231 60.0272 63.3305 60.1189C63.5225 60.2957 63.8413 60.4884 64.3563 60.4884C64.5018 60.4884 64.7964 60.4668 65.0473 60.3315C65.2578 60.2179 65.4708 60.0118 65.5064 59.5284C65.5041 59.3507 65.4668 59.2348 65.422 59.1539C65.3752 59.0694 65.3033 58.9928 65.1933 58.9196C64.9495 58.7575 64.6041 58.6609 64.1454 58.5385L64.1104 58.5292C63.7078 58.4218 63.1956 58.2853 62.8049 58.0069C62.5901 57.8538 62.3965 57.6491 62.2695 57.3723C62.1429 57.0963 62.099 56.7849 62.1273 56.444C62.1977 55.5967 62.6285 55.0899 63.14 54.8253C63.3566 54.7133 63.5797 54.6485 63.7811 54.6111V54.2919C63.7811 53.9943 64.0188 53.7531 64.312 53.7531Z" fill="#39405D"/>
<defs>
<clipPath id="clip0_5063_88116">
<rect width="19.1814" height="17.2018" fill="white" transform="translate(25.1162 30.4386)"/>
</clipPath>
</defs>
</svg>
