<svg width="152" height="152" viewBox="0 0 152 152" fill="none" xmlns="http://www.w3.org/2000/svg">
<path fill-rule="evenodd" clip-rule="evenodd" d="M4.60228 33.6893V36.2055L4.60467 36.3007C4.63156 36.8322 4.87768 37.2491 5.17757 37.2491C5.49539 37.2491 5.75286 36.7821 5.75286 36.2055V33.6893L5.75047 33.595C5.72419 33.0625 5.47747 32.6467 5.17757 32.6467C4.86036 32.6467 4.60228 33.1127 4.60228 33.6893ZM6.79518 37.2489L6.69996 37.2513C6.1696 37.2782 5.75288 37.5243 5.75288 37.8242C5.75288 38.1426 6.21977 38.3995 6.79518 38.3995H9.31392L9.40812 38.3977C9.93849 38.3714 10.3552 38.1247 10.3552 37.8242C10.3552 37.5064 9.88832 37.2489 9.31392 37.2489H6.79518ZM1.04231 37.2489L0.94811 37.2513C0.416718 37.2782 0 37.5243 0 37.8242C0 38.1426 0.467912 38.3995 1.04231 38.3995H3.56002L3.65524 38.3977C4.18561 38.3714 4.60233 38.1247 4.60233 37.8242C4.60233 37.5064 4.13544 37.2489 3.56002 37.2489H1.04231ZM4.60228 39.4427V41.9588L4.60467 42.054C4.63156 42.5853 4.87768 43.0019 5.17757 43.0019C5.49539 43.0019 5.75286 42.5341 5.75286 41.9588V39.4427L5.75047 39.3475C5.72419 38.8162 5.47747 38.3996 5.17757 38.3996C4.86036 38.3996 4.60228 38.8674 4.60228 39.4427Z" fill="#073B4C"/>
<circle cx="32.9148" cy="17.1138" r="4.06813" fill="#073B4C"/>
<path fill-rule="evenodd" clip-rule="evenodd" d="M11.095 4.90942C13.3419 4.90942 15.1631 6.73071 15.1631 8.97817C15.1614 11.2239 13.3413 13.0439 11.095 13.0457C10.9933 13.0457 10.8924 13.0419 10.7926 13.0346C10.7006 13.0419 10.6076 13.0457 10.5138 13.0458C8.58799 13.0458 7.02686 11.4846 7.02686 9.55883C7.02686 9.46474 7.03058 9.37153 7.03789 9.27932C7.03059 9.17968 7.02687 9.07905 7.02687 8.97755C7.02687 6.73067 8.84812 4.90942 11.095 4.90942ZM10.2514 6.61977C9.28392 6.96593 8.59146 7.89098 8.59146 8.97763C8.59146 10.3602 9.71236 11.4811 11.0949 11.4811C12.1817 11.4811 13.1068 10.7885 13.4529 9.82095C13.4605 9.73465 13.4644 9.64729 13.4644 9.55902C13.463 7.92979 12.1427 6.60941 10.5137 6.60826C10.4253 6.60826 10.3378 6.61215 10.2514 6.61977Z" fill="#073B4C"/>
<ellipse cx="149.411" cy="40.7831" rx="2.21898" ry="2.21898" fill="#073B4C"/>
<path fill-rule="evenodd" clip-rule="evenodd" d="M138.105 5.37496V9.17626L138.11 9.32014C138.163 10.1231 138.649 10.7528 139.241 10.7528C139.868 10.7528 140.377 10.0473 140.377 9.17626V5.37496L140.372 5.23263C140.32 4.42812 139.833 3.79999 139.241 3.79999C138.614 3.79999 138.105 4.50393 138.105 5.37496ZM141.92 10.7527L141.779 10.7575C140.994 10.8117 140.377 11.3074 140.377 11.9115C140.377 12.5529 141.068 13.0703 141.92 13.0703H145.65L145.79 13.0667C146.575 13.0138 147.192 12.5168 147.192 11.9115C147.192 11.2713 146.501 10.7527 145.65 10.7527H141.92ZM132.833 10.7527L132.694 10.7575C131.907 10.8117 131.29 11.3074 131.29 11.9115C131.29 12.5529 131.982 13.0703 132.833 13.0703H136.561L136.702 13.0667C137.488 13.0138 138.105 12.5168 138.105 11.9115C138.105 11.2713 137.414 10.7527 136.561 10.7527H132.833ZM138.105 15.805V19.6062L138.11 19.75C138.163 20.5526 138.649 21.182 139.241 21.182C139.868 21.182 140.377 20.4753 140.377 19.6062V15.805L140.372 15.6612C140.32 14.8586 139.833 14.2292 139.241 14.2292C138.614 14.2292 138.105 14.9359 138.105 15.805Z" fill="#073B4C"/>
<rect x="17.7217" y="69.4316" width="122.395" height="76.9731" fill="#E9F4FC"/>
<path d="M150.812 65.1577C150.812 74.7124 142.898 82.4579 133.135 82.4579C126.068 82.4579 119.97 78.3986 117.141 72.5323C116.452 71.1023 114.467 71.1023 113.778 72.5323C110.949 78.3986 104.851 82.4579 97.7835 82.4579C90.7164 82.4579 84.6176 78.3986 81.7892 72.5323C81.0998 71.1023 79.1152 71.1023 78.4258 72.5323C75.5973 78.3986 69.4985 82.4579 62.4315 82.4579C55.3644 82.4579 49.2656 78.3986 46.4372 72.5323C45.7478 71.1023 43.7632 71.1023 43.0738 72.5323C40.2453 78.3986 34.1465 82.4579 27.0795 82.4579C17.3171 82.4579 9.40332 74.7124 9.40332 65.1577L26.3354 36.1552C27.1475 34.7642 28.6592 33.9056 30.296 33.9056H129.918C131.555 33.9056 133.066 34.7642 133.879 36.1552L150.812 65.1577Z" fill="#D3CCFE"/>
<path d="M129.918 33.9056H30.2968C28.6599 33.9056 27.1485 34.7515 26.3362 36.1218L9.40332 64.6949H150.812L133.879 36.1218C133.066 34.7515 131.555 33.9056 129.918 33.9056Z" fill="#D3CCFE"/>
<rect x="102.2" y="91.9315" width="27.222" height="54.4733" fill="#FFFDE7"/>
<rect x="29.6045" y="91.9315" width="61.253" height="43.125" fill="#FFFDE7"/>
<path fill-rule="evenodd" clip-rule="evenodd" d="M145.337 144.544H142.921V81.8097C148.376 78.3143 152 72.2195 152 65.2937C152 64.9258 151.904 64.564 151.72 64.2446L134.869 34.8802C133.686 32.8183 131.469 31.5372 129.084 31.5372H29.9431C27.5581 31.5372 25.3413 32.8181 24.1578 34.8802L7.30661 64.2446C7.12341 64.5637 7.02686 64.9258 7.02686 65.2937C7.02686 72.2195 10.6506 78.3143 16.1058 81.8097V144.544H13.69C12.5172 144.544 11.5663 145.491 11.5663 146.659C11.5663 147.826 12.5172 148.773 13.69 148.773H145.337C146.51 148.773 147.461 147.826 147.461 146.659C147.461 145.491 146.51 144.544 145.337 144.544ZM11.4205 67.4083H18.2286C19.4014 67.4083 20.3522 66.4615 20.3522 65.2937C20.3522 64.1258 19.4014 63.179 18.2286 63.179H12.8099L27.8455 36.9784C28.2748 36.2307 29.0784 35.7664 29.9431 35.7664H129.084C129.949 35.7664 130.752 36.2307 131.181 36.9784L146.217 63.179H140.797C139.624 63.179 138.673 64.1258 138.673 65.2937C138.673 66.4615 139.624 67.4083 140.797 67.4083H147.606C146.568 74.9036 140.094 80.6951 132.285 80.6951C124.478 80.6951 118.006 74.903 116.968 67.4083H131.719C132.892 67.4083 133.842 66.4615 133.842 65.2937C133.842 64.1258 132.892 63.179 131.719 63.179H27.3092C26.1364 63.179 25.1856 64.1258 25.1856 65.2937C25.1856 66.4615 26.1364 67.4083 27.3092 67.4083H42.0588C41.0202 74.903 34.5488 80.6951 26.7412 80.6951C18.9331 80.6951 12.4588 74.9033 11.4205 67.4083ZM97.1042 80.6951C104.912 80.6951 111.383 74.903 112.422 67.4083H81.7866C82.8252 74.903 89.2964 80.6951 97.1042 80.6951ZM77.2404 67.4083C76.2018 74.903 69.7304 80.6951 61.9228 80.6951C54.1152 80.6951 47.6437 74.903 46.6051 67.4083H77.2404ZM26.7412 84.9242C24.5054 84.9242 22.358 84.5464 20.353 83.8604V144.544H100.088V92.4152C100.088 91.2474 101.038 90.3006 102.211 90.3006H129.448C130.622 90.3006 131.572 91.2474 131.572 92.4152V144.544H138.674V83.8607C136.669 84.5464 134.521 84.9242 132.286 84.9242C124.614 84.9242 117.951 80.5379 114.695 74.1518C111.438 80.5382 104.776 84.9242 97.1042 84.9242C89.4322 84.9242 82.7699 80.5379 79.5134 74.1518C76.2569 80.5382 69.5946 84.9242 61.9227 84.9242C54.2507 84.9242 47.5884 80.5379 44.3319 74.1518C41.0754 80.5382 34.4132 84.9242 26.7412 84.9242ZM127.325 133.243H104.335V94.5298H127.325V133.243ZM127.325 137.472H104.335V144.544H127.325V137.472Z" fill="#39405D"/>
<path fill-rule="evenodd" clip-rule="evenodd" d="M29.346 90.7474H90.4668C91.6368 90.7474 92.5848 91.6981 92.5848 92.8708V135.992C92.5848 137.165 91.6368 138.115 90.4668 138.115H29.346C28.1763 138.115 27.228 137.165 27.228 135.992V92.8708C27.228 91.6981 28.1763 90.7474 29.346 90.7474ZM31.4641 133.869H88.349V94.9941H31.4641V133.869Z" fill="#39405D"/>
</svg>
