<svg width="80" height="80" viewBox="0 0 80 80" fill="none" xmlns="http://www.w3.org/2000/svg">
<rect x="24.7902" y="33.4287" width="50.3239" height="31.3427" fill="#E9F4FC"/>
<path d="M79.5113 31.6883C79.5113 35.5789 76.2575 38.7328 72.2437 38.7328C69.3379 38.7328 66.8304 37.0799 65.6675 34.6912C65.384 34.1089 64.568 34.1089 64.2846 34.6912C63.1216 37.0799 60.6141 38.7328 57.7084 38.7328C54.8027 38.7328 52.2951 37.0799 51.1322 34.6912C50.8487 34.1089 50.0328 34.1089 49.7493 34.6912C48.5864 37.0799 46.0788 38.7328 43.1731 38.7328C40.2674 38.7328 37.7599 37.0799 36.5969 34.6912C36.3135 34.1089 35.4975 34.1089 35.214 34.6912C34.0511 37.0799 31.5435 38.7328 28.6378 38.7328C24.624 38.7328 21.3701 35.5789 21.3701 31.6883L28.3319 19.8788C28.6658 19.3124 29.2873 18.9628 29.9604 18.9628H70.9208C71.5938 18.9628 72.2152 19.3124 72.5492 19.8788L79.5113 31.6883Z" fill="#D3CCFE"/>
<path d="M70.9208 18.9628H29.9607C29.2876 18.9628 28.6662 19.3072 28.3322 19.8652L21.3701 31.4999H79.5113L72.5493 19.8652C72.2153 19.3072 71.5939 18.9628 70.9208 18.9628Z" fill="#D3CCFE"/>
<rect x="59.5244" y="42.5904" width="11.1925" height="22.181" fill="#FFFDE7"/>
<rect x="29.6761" y="42.5904" width="25.1847" height="17.5601" fill="#FFFDE7"/>
<path fill-rule="evenodd" clip-rule="evenodd" d="M77.2604 64.0135H76.2671V38.4689C78.51 37.0456 80 34.5638 80 31.7437C80 31.5939 79.9603 31.4466 79.885 31.3165L72.9565 19.3597C72.4698 18.5201 71.5584 17.9984 70.5778 17.9984H29.8152C28.8346 17.9984 27.9232 18.52 27.4366 19.3597L20.5081 31.3165C20.4327 31.4465 20.393 31.5939 20.393 31.7437C20.393 34.5638 21.883 37.0456 24.1259 38.4689V64.0137H23.1326C22.6504 64.0137 22.2595 64.3992 22.2595 64.8747C22.2595 65.3502 22.6504 65.7358 23.1326 65.7358H77.2604C77.7427 65.7358 78.1335 65.3502 78.1335 64.8747C78.1335 64.3992 77.7426 64.0135 77.2604 64.0135ZM22.1995 32.6048H24.9987C25.4809 32.6048 25.8719 32.2193 25.8719 31.7437C25.8719 31.2682 25.4809 30.8827 24.9987 30.8827H22.7708L28.9528 20.2141C29.1293 19.9096 29.4597 19.7205 29.8152 19.7205H70.5778C70.9333 19.7205 71.2638 19.9096 71.4402 20.2141L77.6221 30.8827H75.3937C74.9114 30.8827 74.5206 31.2682 74.5206 31.7437C74.5206 32.2193 74.9114 32.6048 75.3937 32.6048H78.1934C77.7665 35.6568 75.1045 38.015 71.8941 38.015C68.6839 38.015 66.0232 35.6566 65.5962 32.6048H71.6612C72.1435 32.6048 72.5343 32.2193 72.5343 31.7437C72.5343 31.2682 72.1435 30.8827 71.6612 30.8827H28.7323C28.2501 30.8827 27.8592 31.2682 27.8592 31.7437C27.8592 32.2193 28.2501 32.6048 28.7323 32.6048H34.7967C34.3697 35.6566 31.7089 38.015 28.4988 38.015C25.2884 38.015 22.6264 35.6567 22.1995 32.6048ZM57.4291 38.015C60.6392 38.015 63.3 35.6566 63.727 32.6048H51.1311C51.5581 35.6566 54.2188 38.015 57.4291 38.015ZM49.2619 32.6048C48.8349 35.6566 46.1741 38.015 42.9639 38.015C39.7538 38.015 37.093 35.6566 36.666 32.6048H49.2619ZM28.4987 39.737C27.5795 39.737 26.6965 39.5832 25.8722 39.3039V64.0135H58.6558V42.7873C58.6558 42.3118 59.0466 41.9263 59.5289 41.9263H70.7277C71.21 41.9263 71.6008 42.3118 71.6008 42.7873V64.0135H74.5208V39.304C73.6964 39.5832 72.8135 39.737 71.8942 39.737C68.7398 39.737 66.0006 37.951 64.6616 35.3506C63.3227 37.9511 60.5834 39.737 57.429 39.737C54.2747 39.737 51.5354 37.951 50.1965 35.3506C48.8575 37.9511 46.1183 39.737 42.9639 39.737C39.8095 39.737 37.0703 37.951 35.7313 35.3506C34.3924 37.9511 31.6531 39.737 28.4987 39.737ZM69.8545 59.4121H60.402V43.6484H69.8545V59.4121ZM69.8545 61.1342H60.402V64.0136H69.8545V61.1342Z" fill="#39405D"/>
<path fill-rule="evenodd" clip-rule="evenodd" d="M29.5697 42.1082H54.7C55.1811 42.1082 55.5709 42.4953 55.5709 42.9728V60.5314C55.5709 61.0089 55.1811 61.396 54.7 61.396H29.5697C29.0888 61.396 28.6989 61.0089 28.6989 60.5314V42.9728C28.6989 42.4953 29.0888 42.1082 29.5697 42.1082ZM30.4405 59.6667H53.8292V43.8374H30.4405V59.6667Z" fill="#39405D"/>
<path d="M30.7746 27.1421L40.0701 36.027L40.0268 66.4847C40.0245 68.0512 38.7586 69.323 37.1992 69.3252L10.7283 69.3633C9.16887 69.3656 7.90652 68.0975 7.90876 66.5309L7.96075 30.0114C7.96298 28.4448 9.22894 27.1731 10.7884 27.1708L30.7746 27.1421Z" fill="white"/>
<path fill-rule="evenodd" clip-rule="evenodd" d="M40.0701 36.027L30.7746 27.1421L10.7884 27.1708C9.22894 27.1731 7.96298 28.4448 7.96075 30.0114L7.90876 66.5309C7.90652 68.0975 9.16887 69.3656 10.7283 69.3633L37.1992 69.3252C38.7586 69.323 40.0245 68.0512 40.0268 66.4847L40.0701 36.027ZM10.7871 28.0574L30.4204 28.0291L39.1872 36.4089L39.1444 66.4861L39.1427 66.5646C39.1003 67.6053 38.2464 68.4375 37.2004 68.439L10.7295 68.4771L10.6515 68.4757C9.61563 68.436 8.78962 67.5806 8.79111 66.5299L8.84311 30.0103L8.84476 29.9319C8.88722 28.8912 9.74114 28.0589 10.7871 28.0574ZM23.3067 35.0419C23.5503 35.0416 23.7476 35.2397 23.7472 35.4845C23.7469 35.7139 23.573 35.9029 23.3505 35.9259L23.3054 35.9283L11.6582 35.9451C11.4146 35.9454 11.2173 35.7473 11.2177 35.5025C11.218 35.273 11.3919 35.084 11.6144 35.061L11.6595 35.0587L23.3067 35.0419ZM19.163 32.6546C19.1633 32.4098 18.9661 32.2117 18.7224 32.212L11.6635 32.2222L11.6184 32.2245C11.3959 32.2476 11.222 32.4366 11.2217 32.666C11.2214 32.9108 11.4186 33.1089 11.6623 33.1086L18.7212 33.0984L18.7663 33.0961C18.9888 33.0731 19.1626 32.8841 19.163 32.6546Z" fill="#39405D"/>
<path fill-rule="evenodd" clip-rule="evenodd" d="M40.0794 35.9177L30.8982 27.1393H30.1901V33.8712C30.1901 35.4367 31.4551 36.7057 33.0156 36.7057H40.0794V35.9177ZM31.073 28.53L38.6974 35.8199H33.0156L32.9374 35.8184C31.9008 35.7772 31.073 34.9212 31.073 33.8712V28.53Z" fill="#39405D"/>
<path d="M38.6893 35.8175L31.0807 28.5334L31.0731 33.8784C31.0716 34.9292 31.8976 35.7846 32.9334 35.8243L33.0115 35.8257L38.6893 35.8175Z" fill="#E9F4FC"/>
<ellipse cx="15.7968" cy="9.27435" rx="2.13528" ry="2.12206" fill="#39405D"/>
<ellipse cx="20.0673" cy="20.9548" rx="2.13528" ry="2.12206" stroke="#39405D" stroke-width="0.5"/>
<path fill-rule="evenodd" clip-rule="evenodd" d="M5.80004 15.5986V17.5092L5.80316 17.5807C5.83744 17.9858 6.15919 18.3015 6.55027 18.3015C6.96395 18.3015 7.3005 17.947 7.3005 17.5092V15.5986L7.29739 15.5263C7.26233 15.1227 6.94058 14.8062 6.55027 14.8062C6.13582 14.8062 5.80004 15.1608 5.80004 15.5986ZM8.0936 18.3015L8.02115 18.3046C7.6176 18.3389 7.30052 18.6592 7.30052 19.0504C7.30052 19.464 7.65577 19.7992 8.0936 19.7992H10.0093L10.081 19.7961C10.4853 19.7619 10.8024 19.4415 10.8024 19.0504C10.8024 18.6367 10.4463 18.3015 10.0093 18.3015H8.0936ZM3.0905 18.3015L3.01883 18.3046C2.6145 18.3389 2.29742 18.6592 2.29742 19.0504C2.29742 19.464 2.65345 19.7992 3.0905 19.7992H5.00698L5.07943 19.7961C5.4822 19.7619 5.80005 19.4415 5.80005 19.0504C5.80005 18.6367 5.4448 18.3015 5.00698 18.3015H3.0905ZM5.80004 20.5916V22.5021L5.80316 22.5744C5.83744 22.978 6.15919 23.2945 6.55027 23.2945C6.96395 23.2945 7.3005 22.9407 7.3005 22.5021V20.5916L7.29739 20.52C7.26233 20.1157 6.94058 19.7992 6.55027 19.7992C6.13582 19.7992 5.80004 20.1538 5.80004 20.5916Z" fill="#39405D"/>
<path fill-rule="evenodd" clip-rule="evenodd" d="M26.6841 8.0769L27.6975 9.09025L27.7375 9.12695C27.9701 9.32238 28.3085 9.31975 28.5162 9.11202C28.7364 8.89187 28.7267 8.52545 28.4945 8.29325L27.4811 7.2799L27.4415 7.24361C27.2088 7.04735 26.8705 7.05081 26.6628 7.25854C26.443 7.47828 26.4519 7.8447 26.6841 8.0769ZM29.336 8.29225L29.2991 8.33239C29.1033 8.5653 29.1048 8.90364 29.3119 9.11069C29.5317 9.33051 29.8978 9.31916 30.1303 9.0866L31.1483 8.06862L31.1851 8.02931C31.3813 7.79681 31.3794 7.45806 31.172 7.2506C30.9526 7.03119 30.5861 7.04213 30.354 7.27428L29.336 8.29225ZM26.6789 10.9494L26.6425 10.9891C26.4462 11.2224 26.4477 11.5607 26.6548 11.7678C26.8746 11.9876 27.2411 11.9759 27.4732 11.7437L28.4908 10.7261L28.528 10.6864C28.7242 10.4539 28.7223 10.1152 28.5149 9.90771C28.2955 9.68829 27.929 9.69923 27.6964 9.9318L26.6789 10.9494ZM29.3323 10.7251L30.3461 11.7389L30.3861 11.7756C30.6188 11.971 30.9571 11.9684 31.1648 11.7607C31.385 11.5405 31.3749 11.1737 31.1431 10.9419L30.1293 9.92814L30.0893 9.89144C29.857 9.69559 29.5183 9.69864 29.3105 9.90637C29.0908 10.1261 29.1005 10.4934 29.3323 10.7251Z" fill="#39405D"/>
<path fill-rule="evenodd" clip-rule="evenodd" d="M25.0081 51.2313H31.1977C31.6436 51.2313 32.0065 50.8675 32.0065 50.4203V44.2141C32.0065 43.767 31.6437 43.4031 31.1977 43.4031H25.0081C24.5621 43.4031 24.1992 43.7669 24.1992 44.2141V50.4203C24.1992 50.8675 24.5621 51.2313 25.0081 51.2313ZM25.5015 44.7089H30.7041V49.9255H25.5015V44.7089ZM14.9589 44.2141V50.4203C14.9589 50.8675 15.3217 51.2314 15.7677 51.2314H21.9573C22.4033 51.2314 22.7662 50.8675 22.7662 50.4203V44.2141C22.7662 43.767 22.4033 43.4031 21.9573 43.4031H15.7677C15.3217 43.4031 14.9589 43.767 14.9589 44.2141ZM16.2612 44.7089H21.4638V49.9255H16.2612V44.7089ZM15.78 52.6469H21.9696C22.4156 52.6469 22.7784 53.0107 22.7784 53.4579V59.6642C22.7784 60.1114 22.4156 60.4752 21.9696 60.4752H15.78C15.334 60.4752 14.9712 60.1113 14.9712 59.6642V53.4579C14.9712 53.0107 15.334 52.6469 15.78 52.6469ZM16.2735 59.1693H21.4761V53.9528H16.2735V59.1693ZM29.0623 60.4751C28.7026 60.4751 28.4111 60.1828 28.4111 59.8222C28.4111 59.4616 28.7026 59.1693 29.0623 59.1693H30.7165V57.6384C30.7165 57.2778 31.0081 56.9855 31.3677 56.9855C31.7273 56.9855 32.0188 57.2778 32.0188 57.6384V59.6641C32.0188 60.1113 31.656 60.4751 31.21 60.4751H29.0623ZM27.4081 55.462C27.4081 55.1014 27.1165 54.809 26.7569 54.809H25.1906C24.7377 54.809 24.3693 55.1785 24.3693 55.6327V57.6384C24.3693 57.9989 24.6608 58.2913 25.0204 58.2913C25.38 58.2913 25.6716 57.9989 25.6716 57.6384V56.1149H26.7569C27.1165 56.1149 27.4081 55.8226 27.4081 55.462ZM28.8116 54.1108H24.8504C24.4908 54.1108 24.1992 53.8185 24.1992 53.4579C24.1992 53.0973 24.4908 52.805 24.8504 52.805H29.2925C29.7455 52.805 30.1139 53.1745 30.1139 53.6286V57.5908C30.1139 57.9771 29.8006 58.2913 29.4154 58.2913H27.1566C26.797 58.2913 26.5054 57.999 26.5054 57.6384C26.5054 57.2778 26.797 56.9855 27.1566 56.9855H28.8116V54.1108ZM31.3553 56.1149C31.715 56.1149 32.0065 55.8226 32.0065 55.462V53.4579C32.0065 53.0973 31.715 52.805 31.3553 52.805C30.9957 52.805 30.7042 53.0973 30.7042 53.4579V55.462C30.7042 55.8226 30.9957 56.1149 31.3553 56.1149ZM27.3212 59.1693C27.6808 59.1693 27.9724 59.4616 27.9724 59.8222C27.9724 60.1828 27.6808 60.4751 27.3212 60.4751H24.8504C24.4908 60.4751 24.1992 60.1828 24.1992 59.8222C24.1992 59.4616 24.4908 59.1693 24.8504 59.1693H27.3212Z" fill="#39405D"/>
<ellipse cx="18.876" cy="56.673" rx="0.902958" ry="0.905382" fill="#39405D"/>
<ellipse cx="18.876" cy="47.2361" rx="0.902958" ry="0.905382" fill="#39405D"/>
<ellipse cx="28.1835" cy="47.2361" rx="0.902958" ry="0.905382" fill="#39405D"/>
</svg>
