<svg width="80" height="80" viewBox="0 0 80 80" fill="none" xmlns="http://www.w3.org/2000/svg">
<path d="M40.6485 33.5L47.5 33.5L47.5 38.5L40.6485 38.5C40.0735 38.5 39.5252 38.2788 39.1234 37.89C38.7222 37.5017 38.5 36.9786 38.5 36.4368L38.5 35.5632C38.5 35.0214 38.7222 34.4983 39.1234 34.11C39.5252 33.7212 40.0735 33.5 40.6485 33.5Z" fill="#FFFDE7" stroke="#39405D"/>
<path d="M40.6485 49.5L47.5 49.5L47.5 54.5L40.6485 54.5C40.0735 54.5 39.5252 54.2788 39.1234 53.89C38.7222 53.5017 38.5 52.9786 38.5 52.4368L38.5 51.5632C38.5 51.0214 38.7222 50.4983 39.1234 50.11C39.5252 49.7212 40.0735 49.5 40.6485 49.5Z" fill="#FFFDE7" stroke="#39405D"/>
<path d="M0.5 42C0.5 40.6193 1.61929 39.5 3 39.5H14.5V46.5H3C1.61929 46.5 0.5 45.3807 0.5 44V42Z" fill="#E9F4FC" stroke="#39405D"/>
<path d="M79.5 42C79.5 40.6193 78.3807 39.5 77 39.5H65.5V46.5H77C78.3807 46.5 79.5 45.3807 79.5 44V42Z" fill="#E9F4FC" stroke="#39405D"/>
<path d="M27.5 28.5L27.5 58.5L20.6537 58.5C19.0237 58.5 17.4592 57.8441 16.3047 56.6745C15.1499 55.5046 14.5 53.9166 14.5 52.2594L14.5 34.7406C14.5 33.0834 15.1499 31.4954 16.3047 30.3255C17.4592 29.1559 19.0237 28.5 20.6537 28.5L27.5 28.5Z" fill="#D3CCFE" stroke="#39405D"/>
<path d="M52.5 28.5L52.5 58.5L59.3463 58.5C60.9763 58.5 62.5408 57.8441 63.6953 56.6745C64.8501 55.5046 65.5 53.9166 65.5 52.2594L65.5 34.7406C65.5 33.0834 64.8501 31.4954 63.6953 30.3255C62.5408 29.1559 60.9763 28.5 59.3463 28.5L52.5 28.5Z" fill="#D3CCFE" stroke="#39405D"/>
<path d="M51.6598 27.2194L51.6598 27.2194L51.6628 27.2225C51.8886 27.4477 52.0678 27.7152 52.1902 28.0098C52.3125 28.3043 52.3756 28.62 52.3759 28.939L52.3759 58.8114L52.3759 58.8133C52.3781 59.4313 52.1435 60.0267 51.7201 60.4771C51.2968 60.9274 50.717 61.1984 50.1 61.2343L50.0628 61.2364L50.0263 61.2441C50.004 61.2488 49.9811 61.2507 49.9582 61.2498L49.9472 61.2493L49.9362 61.2494C49.6159 61.2505 49.2986 61.1883 49.0025 61.0662C48.7065 60.9442 48.4375 60.7648 48.211 60.5384C47.9846 60.3119 47.8052 60.0429 47.6831 59.7468C47.5611 59.4507 47.4989 59.1334 47.5 58.8132V58.8114V28.9387C47.5 28.9387 47.5 28.9386 47.5 28.9386C47.5002 28.2921 47.7572 27.6721 48.2143 27.2149C48.6715 26.7578 49.2915 26.5008 49.9381 26.5006L49.9482 26.5006L49.9582 26.5002C49.9811 26.4993 50.004 26.5012 50.0263 26.5059L50.0635 26.5137L50.1014 26.5158C50.6903 26.5484 51.2459 26.7992 51.6598 27.2194Z" fill="#D3CCFE" stroke="#39405D"/>
<path d="M31.6598 27.2194L31.6598 27.2194L31.6628 27.2225C31.8886 27.4477 32.0678 27.7152 32.1902 28.0098C32.3125 28.3043 32.3756 28.62 32.3759 28.939L32.3759 58.8114L32.3759 58.8133C32.3781 59.4313 32.1435 60.0267 31.7201 60.4771C31.2968 60.9274 30.717 61.1984 30.1 61.2343L30.0628 61.2364L30.0263 61.2441C30.004 61.2488 29.9811 61.2507 29.9582 61.2498L29.9472 61.2493L29.9362 61.2494C29.6159 61.2505 29.2986 61.1883 29.0025 61.0662C28.7065 60.9442 28.4375 60.7648 28.211 60.5384C27.9846 60.3119 27.8052 60.0429 27.6831 59.7468C27.5611 59.4507 27.4989 59.1334 27.5 58.8132V58.8114V28.9387C27.5 28.9387 27.5 28.9386 27.5 28.9386C27.5002 28.2921 27.7572 27.6721 28.2143 27.2149C28.6715 26.7578 29.2915 26.5008 29.9381 26.5006L29.9482 26.5006L29.9582 26.5002C29.9811 26.4993 30.004 26.5012 30.0263 26.5059L30.0635 26.5137L30.1014 26.5158C30.6903 26.5484 31.2459 26.7992 31.6598 27.2194Z" fill="#D3CCFE" stroke="#39405D"/>
<path fill-rule="evenodd" clip-rule="evenodd" d="M40 19C39.4477 19 39 18.5523 39 18L39 9C39 8.44772 39.4477 8 40 8C40.5523 8 41 8.44772 41 9L41 18C41 18.5523 40.5523 19 40 19Z" fill="#39405D"/>
<path fill-rule="evenodd" clip-rule="evenodd" d="M33.7071 20.2929C33.3166 20.6834 32.6834 20.6834 32.2929 20.2929L28.0503 16.0503C27.6597 15.6597 27.6597 15.0266 28.0503 14.636C28.4408 14.2455 29.0739 14.2455 29.4645 14.636L33.7071 18.8787C34.0976 19.2692 34.0976 19.9024 33.7071 20.2929Z" fill="#39405D"/>
<path fill-rule="evenodd" clip-rule="evenodd" d="M46.2929 20.2929C46.6834 20.6834 47.3166 20.6834 47.7071 20.2929L51.9497 16.0503C52.3403 15.6597 52.3403 15.0266 51.9497 14.636C51.5592 14.2455 50.9261 14.2455 50.5355 14.636L46.2929 18.8787C45.9024 19.2692 45.9024 19.9024 46.2929 20.2929Z" fill="#39405D"/>
</svg>
