<svg width="152" height="152" viewBox="0 0 152 152" fill="none" xmlns="http://www.w3.org/2000/svg">
<path d="M135.254 75.5429C135.254 107.666 109.215 133.705 77.0934 133.705C44.9718 133.705 18.9314 107.666 18.9314 75.5429C18.9314 43.4213 44.9718 17.3821 77.0934 17.3821C109.215 17.3821 135.254 43.4213 135.254 75.5429Z" fill="#E8E7FF"/>
<path fill-rule="evenodd" clip-rule="evenodd" d="M77.0934 129.905C107.116 129.905 131.454 105.567 131.454 75.5429C131.454 45.52 107.116 21.1821 77.0934 21.1821C47.0704 21.1821 22.7314 45.5201 22.7314 75.5429C22.7314 105.567 47.0704 129.905 77.0934 129.905ZM77.0934 133.705C109.215 133.705 135.254 107.666 135.254 75.5429C135.254 43.4213 109.215 17.3821 77.0934 17.3821C44.9718 17.3821 18.9314 43.4213 18.9314 75.5429C18.9314 107.666 44.9718 133.705 77.0934 133.705Z" fill="#39405D"/>
<path d="M99.2199 55.3134C99.2199 67.5328 89.3128 77.4398 77.0934 77.4398C64.8728 77.4398 54.9658 67.5328 54.9658 55.3134C54.9658 43.0928 64.8728 33.1857 77.0934 33.1857C89.3128 33.1857 99.2199 43.0928 99.2199 55.3134Z" fill="#FFECAB"/>
<path fill-rule="evenodd" clip-rule="evenodd" d="M77.0934 73.6398C87.2141 73.6398 95.4199 65.4341 95.4199 55.3134C95.4199 45.1913 87.214 36.9857 77.0934 36.9857C66.9715 36.9857 58.7658 45.1915 58.7658 55.3134C58.7658 65.434 66.9714 73.6398 77.0934 73.6398ZM77.0934 77.4398C89.3128 77.4398 99.2199 67.5328 99.2199 55.3134C99.2199 43.0928 89.3128 33.1857 77.0934 33.1857C64.8728 33.1857 54.9658 43.0928 54.9658 55.3134C54.9658 67.5328 64.8728 77.4398 77.0934 77.4398Z" fill="#39405D"/>
<path d="M88.7593 93.1H65.2797C52.3127 93.1 41.8 103.371 41.8 116.039V120.511C51.082 128.813 63.4435 133.881 77.02 133.881C90.5956 133.881 102.958 128.812 112.239 120.511V116.039C112.24 103.371 101.727 93.1 88.7593 93.1Z" fill="#FFECAB"/>
<path fill-rule="evenodd" clip-rule="evenodd" d="M112.239 116.039C112.24 103.371 101.727 93.1 88.7593 93.1H65.2797C52.3127 93.1 41.8 103.371 41.8 116.039V120.511C51.082 128.813 63.4435 133.881 77.02 133.881C90.5956 133.881 102.958 128.812 112.239 120.511V116.039ZM108.439 118.773V116.039C108.44 105.553 99.7128 96.9 88.7593 96.9H65.2797C54.3275 96.9 45.6 105.552 45.6 116.039V118.773C54.0485 125.818 65.0135 130.081 77.02 130.081C89.0254 130.081 99.9913 125.818 108.439 118.773Z" fill="#39405D"/>
<path d="M106.585 144.585C120.406 144.585 131.61 133.797 131.61 120.488C131.61 107.179 120.406 96.3902 106.585 96.3902C92.7648 96.3902 81.561 107.179 81.561 120.488C81.561 133.797 92.7648 144.585 106.585 144.585Z" fill="#D3CCFE"/>
<path d="M79.7073 118.634H113.073V122.341H79.7073V118.634Z" fill="#39405D"/>
<path d="M104.928 131.61L101.951 129.008L111.696 120.489L101.951 111.97L104.931 109.366L116.163 119.185C116.986 119.905 116.986 121.071 116.163 121.79L104.928 131.61Z" fill="#39405D"/>
<path d="M106.581 146.439C95.4591 146.439 85.6398 139.98 81.561 129.981L84.9726 128.686C88.4942 137.321 96.9768 142.9 106.581 142.9C119.382 142.9 129.798 132.845 129.798 120.488C129.798 108.13 119.382 98.0754 106.581 98.0754C96.9768 98.0754 88.4942 103.655 84.9726 112.287L81.561 110.992C85.6398 100.996 95.4591 94.5366 106.581 94.5366C121.403 94.5366 133.463 106.179 133.463 120.488C133.463 134.796 121.403 146.439 106.581 146.439Z" fill="#39405D"/>
<path fill-rule="evenodd" clip-rule="evenodd" d="M19 16.8765C19.8737 16.8765 20.5925 17.5842 20.6697 18.4883L20.6765 18.6497V22.9268C20.6765 23.9066 19.9251 24.7 19 24.7C18.1264 24.7 17.4076 23.9923 17.3304 23.0882L17.3236 22.9268V18.6497C17.3236 17.6699 18.075 16.8765 19 16.8765ZM26.7284 13.5235C27.706 13.5235 28.5 14.2736 28.5 15.2C28.5 16.0749 27.7917 16.7926 26.8896 16.8696L26.7284 16.8765H22.448C21.4705 16.8765 20.6765 16.1264 20.6765 15.2C20.6765 14.3251 21.3847 13.6074 22.2869 13.5304L22.448 13.5235H26.7284ZM15.552 13.5235C16.5295 13.5235 17.3235 14.2736 17.3235 15.2C17.3235 16.0749 16.6153 16.7926 15.7131 16.8696L15.552 16.8765H11.2716C10.294 16.8765 9.5 16.1264 9.5 15.2C9.5 14.3251 10.2083 13.6074 11.1104 13.5304L11.2716 13.5235H15.552ZM19 5.70001C19.8737 5.70001 20.5925 6.40772 20.6697 7.31179L20.6765 7.47327V11.7503C20.6765 12.7301 19.9251 13.5235 19 13.5235C18.1264 13.5235 17.4076 12.8158 17.3304 11.9118L17.3236 11.7503V7.47327C17.3236 6.49342 18.075 5.70001 19 5.70001Z" fill="#39405D"/>
</svg>
