<svg width="96" height="96" viewBox="0 0 96 96" fill="none" xmlns="http://www.w3.org/2000/svg">
<path d="M85.4237 51.3113C85.4237 71.5994 68.9779 88.0452 48.6905 88.0452C28.4032 88.0452 11.9566 71.5994 11.9566 51.3113C11.9566 31.0239 28.4032 14.5781 48.6905 14.5781C68.9779 14.5781 85.4237 31.0239 85.4237 51.3113Z" fill="#E8E7FF"/>
<path fill-rule="evenodd" clip-rule="evenodd" d="M48.6905 85.6452C67.6524 85.6452 83.0237 70.2739 83.0237 51.3113C83.0237 32.3494 67.6524 16.9781 48.6905 16.9781C29.7286 16.9781 14.3566 32.3495 14.3566 51.3113C14.3566 70.2739 29.7286 85.6452 48.6905 85.6452ZM48.6905 88.0452C68.9779 88.0452 85.4237 71.5994 85.4237 51.3113C85.4237 31.0239 68.9779 14.5781 48.6905 14.5781C28.4032 14.5781 11.9566 31.0239 11.9566 51.3113C11.9566 71.5994 28.4032 88.0452 48.6905 88.0452Z" fill="#39405D"/>
<path d="M62.6651 38.5346C62.6651 46.2521 56.4081 52.5092 48.6905 52.5092C40.9723 52.5092 34.7152 46.2521 34.7152 38.5346C34.7152 30.8164 40.9723 24.5593 48.6905 24.5593C56.4081 24.5593 62.6651 30.8164 62.6651 38.5346Z" fill="#FFECAB"/>
<path fill-rule="evenodd" clip-rule="evenodd" d="M48.6905 50.1092C55.0826 50.1092 60.2651 44.9267 60.2651 38.5346C60.2651 32.1418 55.0825 26.9593 48.6905 26.9593C42.2978 26.9593 37.1152 32.1418 37.1152 38.5346C37.1152 44.9266 42.2977 50.1092 48.6905 50.1092ZM48.6905 52.5092C56.4081 52.5092 62.6651 46.2521 62.6651 38.5346C62.6651 30.8164 56.4081 24.5593 48.6905 24.5593C40.9723 24.5593 34.7152 30.8164 34.7152 38.5346C34.7152 46.2521 40.9723 52.5092 48.6905 52.5092Z" fill="#39405D"/>
<path d="M56.0585 62.4H41.2293C33.0396 62.4 26.4 68.8867 26.4 76.8877V79.7122C32.2623 84.9554 40.0696 88.1561 48.6442 88.1561C57.2183 88.1561 65.0261 84.9548 70.8878 79.7122V76.8877C70.8885 68.8867 64.2488 62.4 56.0585 62.4Z" fill="#FFECAB"/>
<path fill-rule="evenodd" clip-rule="evenodd" d="M70.8878 76.8877C70.8885 68.8867 64.2488 62.4 56.0585 62.4H41.2293C33.0396 62.4 26.4 68.8867 26.4 76.8877V79.7122C32.2623 84.9554 40.0696 88.1561 48.6442 88.1561C57.2183 88.1561 65.0261 84.9548 70.8878 79.7122V76.8877ZM68.4878 78.6143V76.8877C68.4883 70.2649 62.9765 64.8 56.0585 64.8H41.2293C34.3121 64.8 28.8 70.2646 28.8 76.8877V78.6143C34.1359 83.0643 41.0611 85.7561 48.6442 85.7561C56.2266 85.7561 63.1524 83.0637 68.4878 78.6143Z" fill="#39405D"/>
<path fill-rule="evenodd" clip-rule="evenodd" d="M13.2 13.0588C13.7518 13.0588 14.2058 13.5058 14.2545 14.0768L14.2588 14.1788V16.88C14.2588 17.4989 13.7843 18 13.2 18C12.6482 18 12.1943 17.553 12.1455 16.982L12.1412 16.88V14.1788C12.1412 13.5599 12.6158 13.0588 13.2 13.0588ZM18.0811 10.9412C18.6985 10.9412 19.2 11.4149 19.2 12C19.2 12.5526 18.7527 13.0058 18.1829 13.0545L18.0811 13.0588H15.3777C14.7603 13.0588 14.2588 12.5851 14.2588 12C14.2588 11.4474 14.7062 10.9942 15.276 10.9455L15.3777 10.9412H18.0811ZM11.0223 10.9412C11.6397 10.9412 12.1412 11.4149 12.1412 12C12.1412 12.5526 11.6938 13.0058 11.124 13.0545L11.0223 13.0588H8.31888C7.70149 13.0588 7.2 12.5851 7.2 12C7.2 11.4474 7.64732 10.9942 8.21712 10.9455L8.31888 10.9412H11.0223ZM13.2 6C13.7518 6 14.2058 6.44697 14.2545 7.01797L14.2588 7.11995V9.82122C14.2588 10.4401 13.7843 10.9412 13.2 10.9412C12.6482 10.9412 12.1943 10.4942 12.1455 9.92321L12.1412 9.82122V7.11995C12.1412 6.5011 12.6158 6 13.2 6Z" fill="#39405D"/>
<path fill-rule="evenodd" clip-rule="evenodd" d="M87.3649 8.16492C87.561 7.96885 87.8764 7.96159 88.0905 8.14107L88.1272 8.17469L89.0582 9.10571C89.2715 9.319 89.2756 9.66034 89.068 9.86795C88.8719 10.064 88.5565 10.0713 88.3424 9.8918L88.3057 9.85819L87.3747 8.92717C87.1614 8.71388 87.1573 8.37253 87.3649 8.16492ZM88.3695 5.70061C88.5889 5.48123 88.9304 5.46631 89.132 5.66796C89.3225 5.85841 89.3198 6.17358 89.1341 6.39283L89.0994 6.43048L88.1388 7.3911C87.9194 7.61049 87.5779 7.62541 87.3762 7.42375C87.1858 7.23331 87.1885 6.91813 87.3742 6.69889L87.4089 6.66124L88.3695 5.70061ZM85.8612 8.20889C86.0806 7.98951 86.4221 7.97459 86.6238 8.17624C86.8142 8.36669 86.8115 8.68187 86.6258 8.90111L86.5911 8.93876L85.6305 9.89939C85.4111 10.1188 85.0696 10.1337 84.868 9.93204C84.6775 9.74159 84.6802 9.42641 84.8659 9.20717L84.9006 9.16952L85.8612 8.20889ZM84.9321 5.73203C85.1281 5.53596 85.4435 5.5287 85.6576 5.70818L85.6943 5.74179L86.6253 6.67281C86.8386 6.8861 86.8427 7.22745 86.6351 7.43506C86.439 7.63113 86.1236 7.63839 85.9095 7.45891L85.8728 7.4253L84.9418 6.49428C84.7285 6.28098 84.7244 5.93964 84.9321 5.73203Z" fill="#39405D"/>
<path d="M75.6 13.7998C75.6 15.457 76.9434 16.8 78.6 16.8C80.2567 16.8 81.6 15.4569 81.6 13.8C81.6 12.1431 80.2567 10.8 78.6002 10.8C76.9436 10.8014 75.6012 12.1436 75.6 13.7998ZM76.6919 13.8619L76.6909 13.8005C76.6917 12.7464 77.5461 11.8918 78.6006 11.8909C79.6545 11.8909 80.5091 12.7458 80.5091 13.8C80.5091 14.8542 79.6544 15.7091 78.6 15.7091C77.5663 15.7091 76.7245 14.8874 76.6919 13.8619Z" fill="#39405D"/>
</svg>
