<svg width="32" height="32" viewBox="0 0 32 32" fill="none" xmlns="http://www.w3.org/2000/svg">
<path fill-rule="evenodd" clip-rule="evenodd" d="M3.6 4C2.71634 4 2 4.71634 2 5.6V13.6C2 14.4837 2.71635 15.2 3.6 15.2H7.83085V26.4C7.83085 27.2837 8.54719 28 9.43085 28H22.6607C23.5444 28 24.2607 27.2837 24.2607 26.4V15.2H28.4C29.2837 15.2 30 14.4837 30 13.6V5.6C30 4.71634 29.2837 4 28.4 4H3.6ZM24.2607 13.6H28.4V5.6L3.6 5.6V13.6H7.83085V10.4H6.8C6.35817 10.4 6 10.0418 6 9.6C6 9.15817 6.35817 8.8 6.8 8.8H25.2C25.6418 8.8 26 9.15817 26 9.6C26 10.0418 25.6418 10.4 25.2 10.4H24.2607V13.6ZM9.43085 26.4V10.4H22.6607V26.4H9.43085ZM16 17.6C16.6628 17.6 17.2 17.0627 17.2 16.4C17.2 15.7373 16.6628 15.2 16 15.2C15.3373 15.2 14.8 15.7373 14.8 16.4C14.8 17.0627 15.3373 17.6 16 17.6ZM16 19.2C17.5464 19.2 18.8 17.9464 18.8 16.4C18.8 14.8536 17.5464 13.6 16 13.6C14.4536 13.6 13.2 14.8536 13.2 16.4C13.2 17.9464 14.4536 19.2 16 19.2ZM12.4 21.6C11.9581 21.6 11.6 21.9582 11.6 22.4C11.6 22.8418 11.9581 23.2 12.4 23.2H19.6C20.0418 23.2 20.4 22.8418 20.4 22.4C20.4 21.9582 20.0418 21.6 19.6 21.6H12.4Z" fill="currentColor"/>
</svg>
