<svg width="32" height="32" viewBox="0 0 32 32" fill="none" xmlns="http://www.w3.org/2000/svg">
<path fill-rule="evenodd" clip-rule="evenodd" d="M10.8619 6C10.1395 6 9.45437 6.30921 8.99188 6.84401L2.5642 14.2766C1.82744 15.1286 1.81052 16.3614 2.52364 17.2318L8.97627 25.1078C9.4379 25.6713 10.1419 26 10.8869 26H27.5658C28.9102 26 30 24.9498 30 23.6543V8.34568C30 7.0502 28.9102 6 27.5658 6H10.8619ZM10.3698 7.9505C10.4915 7.80977 10.6718 7.7284 10.8619 7.7284H27.5658C27.9196 7.7284 28.2064 8.00476 28.2064 8.34568V23.6543C28.2064 23.9952 27.9196 24.2716 27.5658 24.2716H10.8869C10.6908 24.2716 10.5056 24.1851 10.3841 24.0368L3.93144 16.1608C3.74378 15.9317 3.74823 15.6073 3.94212 15.3831L10.3698 7.9505ZM15.1449 11.1914C15.4951 10.8539 16.0629 10.8539 16.4132 11.1914L19.8788 14.531L23.3444 11.1914C23.6946 10.854 24.2625 10.854 24.6127 11.1914C24.9629 11.5289 24.9629 12.0761 24.6127 12.4136L21.1471 15.7531L24.6127 19.0926C24.9629 19.4301 24.9629 19.9773 24.6127 20.3148C24.2624 20.6523 23.6946 20.6523 23.3444 20.3148L19.8788 16.9753L16.4132 20.3148C16.063 20.6523 15.4951 20.6523 15.1449 20.3148C14.7947 19.9774 14.7947 19.4302 15.1449 19.0927L18.6105 15.7531L15.1449 12.4136C14.7946 12.0761 14.7946 11.5289 15.1449 11.1914Z" fill="currentColor"/>
</svg>
