<svg width="32" height="32" viewBox="0 0 32 32" fill="none" xmlns="http://www.w3.org/2000/svg">
<path fill-rule="evenodd" clip-rule="evenodd" d="M9.70744 6.34342L14.3359 5.57566L14.6065 7.19161L11.6796 7.91987C10.9902 8.09142 10.571 8.78675 10.7434 9.47294L10.8934 10.0703H10.4564L9.70744 6.34342ZM9.80781 11.6071C9.81764 11.6073 9.82749 11.6073 9.83737 11.6071H11.8653C11.8762 11.6074 11.8871 11.6074 11.8981 11.6071H19.0707C19.0821 11.6074 19.0935 11.6074 19.105 11.6071H22.6753C22.6863 11.6074 22.6973 11.6074 22.7082 11.6071H24.2977C24.4336 11.6071 24.5461 11.7123 24.5545 11.8473L25.4553 26.1911C25.4646 26.3385 25.3469 26.4632 25.1984 26.4632H6.80156C6.65311 26.4632 6.53544 26.3385 6.5447 26.1911L7.44545 11.8473C7.45392 11.7123 7.5664 11.6071 7.7023 11.6071H9.80781ZM8.88164 10.0703L8.14117 6.38542C7.99861 5.67598 8.47438 4.98992 9.19141 4.87098L14.3359 4.01763C15.0369 3.90134 15.6999 4.37267 15.8167 5.07035L16.1157 6.8559L16.1812 6.84285L16.6609 5.41069C16.8735 4.77582 17.5414 4.41092 18.1937 4.57323L23.4085 5.87076C24.0979 6.04231 24.5171 6.73764 24.3448 7.42383L23.68 10.0703H24.2977C25.249 10.0703 26.0363 10.8065 26.0957 11.7514L26.9964 26.0952C27.0612 27.1274 26.2376 28 25.1984 28H6.80156C5.76242 28 4.93876 27.1274 5.00358 26.0952L5.90432 11.7514C5.96366 10.8065 6.751 10.0703 7.7023 10.0703H8.88164ZM22.0884 10.0703L22.7843 7.29958L18.0504 6.1217L17.8961 6.58263C18.3772 6.65875 18.7905 7.00452 18.9315 7.4959L19.6706 10.0703H22.0884ZM18.0647 10.0703L17.512 8.14522L15.6547 8.51494L12.3038 9.34869L12.4851 10.0703H18.0647ZM12.6153 14.4495C12.7928 14.4495 12.9366 14.3063 12.9366 14.1297C12.9366 13.9531 12.7928 13.8099 12.6153 13.8099C12.4379 13.8099 12.294 13.9531 12.294 14.1297C12.294 14.3063 12.4379 14.4495 12.6153 14.4495ZM13.242 15.2038C13.6134 14.9887 13.8631 14.5882 13.8631 14.1297C13.8631 13.4438 13.3045 12.8878 12.6153 12.8878C11.9262 12.8878 11.3676 13.4438 11.3676 14.1297C11.3676 14.6593 11.7006 15.1115 12.1697 15.29V17.2344C12.1697 18.7294 13.3874 19.9413 14.8895 19.9413H17.0731C18.5752 19.9413 19.7928 18.7294 19.7928 17.2344V15.2737C20.2403 15.085 20.5543 14.6439 20.5543 14.1297C20.5543 13.4438 19.9956 12.8878 19.3065 12.8878C18.6174 12.8878 18.0587 13.4438 18.0587 14.1297C18.0587 14.6048 18.3268 15.0176 18.7205 15.2264V17.2344C18.7205 18.14 17.9829 18.8741 17.0731 18.8741H14.8895C13.9796 18.8741 13.242 18.14 13.242 17.2344V15.2038ZM19.3065 14.4495C19.484 14.4495 19.6278 14.3063 19.6278 14.1297C19.6278 13.9531 19.484 13.8099 19.3065 13.8099C19.129 13.8099 18.9852 13.9531 18.9852 14.1297C18.9852 14.3063 19.129 14.4495 19.3065 14.4495Z" fill="currentColor"/>
</svg>
