<svg width="28" height="28" viewBox="0 0 28 28" fill="none" xmlns="http://www.w3.org/2000/svg">
<g id="Icon-wrapper">
<path id="Icon" fill-rule="evenodd" clip-rule="evenodd" d="M14.719 0.212602C14.2836 -0.0708681 13.7163 -0.0708664 13.2809 0.212602L0.993457 8.21194C-0.0736979 8.90667 0.429939 10.5311 1.71251 10.5311H2.0741V22.9365H1.03704C0.464297 22.9365 0 23.3899 0 23.9492V26.9873C0 27.5466 0.464297 28 1.03704 28H26.963C27.5357 28 28 27.5466 28 26.9873V23.9492C28 23.3899 27.5357 22.9365 26.963 22.9365H25.9259V10.5311H26.2874C27.57 10.5311 28.0736 8.90668 27.0065 8.21194L14.719 0.212602ZM3.62965 10.5311H24.3704V22.9365H22.2963V13.8223C22.2963 13.263 21.832 12.8096 21.2593 12.8096H19.1852C18.6125 12.8096 18.1482 13.263 18.1482 13.8223V22.9365H16.0741V13.8223C16.0741 13.263 15.6098 12.8096 15.037 12.8096H12.9629C12.3902 12.8096 11.9259 13.263 11.9259 13.8223V22.9365H9.85188V13.8223C9.85188 13.263 9.38759 12.8096 8.81485 12.8096H6.74077C6.16803 12.8096 5.70374 13.263 5.70374 13.8223V22.9365H3.62965V10.5311ZM19.1852 24.4556H21.2593H25.9259H26.4444V26.4809H1.55556V24.4556H2.0741H6.74077H8.81485H12.9629H15.037H19.1852ZM20.7408 14.3286V22.9365H19.7037V14.3286H20.7408ZM13.4815 14.3286V22.9365H14.5185V14.3286H13.4815ZM8.29633 14.3286V22.9365H7.25929V14.3286H8.29633ZM25.0422 8.75883L14 1.57014L2.95772 8.75883H25.0422ZM15.037 5.72075C15.037 6.28004 14.5727 6.73344 14 6.73344C13.4272 6.73344 12.9629 6.28004 12.9629 5.72075C12.9629 5.16145 13.4272 4.70806 14 4.70806C14.5727 4.70806 15.037 5.16145 15.037 5.72075ZM16.0741 5.72075C16.0741 6.83934 15.1455 7.74613 14 7.74613C12.8545 7.74613 11.9259 6.83934 11.9259 5.72075C11.9259 4.60216 12.8545 3.69536 14 3.69536C15.1455 3.69536 16.0741 4.60216 16.0741 5.72075Z" fill="currentColor"/>
</g>
</svg>
