<svg width="32" height="32" viewBox="0 0 32 32" fill="none" xmlns="http://www.w3.org/2000/svg">
<path fill-rule="evenodd" clip-rule="evenodd" d="M18.9905 5.40068C18.7064 4.01606 17.4573 3 15.9995 3C14.5417 3 13.2926 4.01606 13.0085 5.40067C12.1913 5.64004 11.4633 5.98082 10.8182 6.40708C9.47594 7.29402 8.55576 8.50916 7.93165 9.80797C6.69895 12.3733 6.57425 15.3623 6.64037 17.2045C6.67519 18.1746 6.40251 19.0886 5.83575 19.7517L4.72534 21.0508C3.06126 22.9976 4.44466 26 7.00579 26H12.0502C12.5048 27.7383 14.1172 29 15.9995 29C17.8818 29 19.4941 27.7383 19.9488 26H24.9932C27.5543 26 28.9377 22.9976 27.2736 21.0508L26.1632 19.7517C25.5965 19.0886 25.3238 18.1746 25.3586 17.2045C25.4247 15.3623 25.3 12.3733 24.0673 9.80797C23.4432 8.50916 22.523 7.29402 21.1808 6.40708C20.5357 5.98082 19.8077 5.64004 18.9905 5.40068ZM9.73433 10.6742C8.71394 12.7977 8.57664 15.393 8.63908 17.1328C8.68819 18.501 8.30961 19.9356 7.35605 21.0512L6.24564 22.3503C5.69094 22.9992 6.15208 24 7.00579 24H24.9932C25.8469 24 26.308 22.9992 25.7533 22.3503L24.6429 21.0512C23.6894 19.9356 23.3108 18.501 23.3599 17.1328C23.4223 15.393 23.285 12.7977 22.2647 10.6742C21.7622 9.62859 21.0581 8.72319 20.0782 8.07569C19.1026 7.43103 17.7904 7 15.9995 7C14.2086 7 12.8964 7.43103 11.9208 8.07569C10.9409 8.72319 10.2368 9.62859 9.73433 10.6742ZM15.9995 27C15.2192 27 14.5566 26.592 14.2013 26H17.7977C17.4424 26.592 16.7798 27 15.9995 27Z" fill="currentColor"/>
</svg>
