<svg width="32" height="32" viewBox="0 0 32 32" fill="none" xmlns="http://www.w3.org/2000/svg">
<path fill-rule="evenodd" clip-rule="evenodd" d="M15.7357 3C17.1892 3 18.4013 4.03373 18.6769 5.40613C19.1086 5.5365 19.5149 5.69652 19.8966 5.88367C19.3081 6.29033 18.811 6.81994 18.4426 7.43537C17.6945 7.16182 16.8031 7 15.7357 7C13.9927 7 12.7189 7.43147 11.7723 8.07631C10.8198 8.72511 10.1334 9.63452 9.6436 10.6884C8.64935 12.8275 8.52234 15.4373 8.58619 17.1711C8.63568 18.5148 8.26996 19.9209 7.34895 21.0261L6.23751 22.3598C5.69474 23.0111 6.1579 24 7.00573 24H24.4656C25.3134 24 25.7766 23.0111 25.2338 22.3598L24.1223 21.0261C23.2013 19.9209 22.8356 18.5148 22.8851 17.1711C22.9083 16.5411 22.9063 15.7955 22.8467 14.9988C23.5484 14.9835 24.2144 14.8237 24.8163 14.5479C24.9087 15.5676 24.9111 16.5017 24.8838 17.2447C24.8488 18.1935 25.1111 19.0885 25.6588 19.7457L26.7702 21.0794C28.3986 23.0334 27.0091 26 24.4656 26H19.6096C19.1656 27.7252 17.5995 29 15.7357 29C13.8718 29 12.3057 27.7252 11.8617 26H7.00573C4.46222 26 3.07275 23.0334 4.70107 21.0794L5.81251 19.7457C6.36016 19.0885 6.62249 18.1935 6.58755 17.2447C6.52008 15.4129 6.6338 12.4188 7.82994 9.84539C8.43531 8.54296 9.33156 7.31893 10.6463 6.42336C11.2784 5.99279 11.9924 5.64829 12.7944 5.40613C13.07 4.03373 14.2821 3 15.7357 3ZM14.0032 26C14.349 26.5978 14.9954 27 15.7357 27C16.4759 27 17.1223 26.5978 17.4681 26H14.0032Z" fill="currentColor"/>
<circle cx="22.7356" cy="10" r="4" fill="#EF474A"/>
</svg>
