<svg width="32" height="32" viewBox="0 0 32 32" fill="none" xmlns="http://www.w3.org/2000/svg">
<path fill-rule="evenodd" clip-rule="evenodd" d="M29 4.32281C29 3.56056 28.6997 2.94495 28.2034 2.53656C27.818 2.21945 27.3491 2.05489 26.8841 2.01171C26.8845 2.00764 26.8844 2.00763 26.8843 2.00762L26.8817 2.00737L26.8775 2.00699L26.8669 2.00609C26.8588 2.00545 26.8488 2.00472 26.8369 2.004C26.8133 2.00256 26.7821 2.00113 26.7445 2.00043C26.7205 1.99999 26.6937 1.99985 26.6643 2.0002C26.6258 1.99973 26.5874 2.00008 26.5491 2.00122C26.5255 2.00192 26.5018 2.00295 26.478 2.00432H10.8378C9.49584 2.00432 8.40797 3.09349 8.40797 4.43704V12.7294L3.89067 16.7796C3.32389 17.2878 3 18.0135 3 18.7752V29.0439C3 29.572 3.42753 30 3.95491 30H8.70985C9.23723 30 9.66475 29.572 9.66475 29.0439V27.8616C9.87497 27.7436 10.0722 27.5871 10.2448 27.428C10.4788 27.2122 10.7056 26.9557 10.9044 26.69C11.1027 26.4249 11.2838 26.1365 11.4183 25.8529C11.5454 25.5851 11.6634 25.2551 11.6634 24.9262V23.6011H24.6036C25.1005 23.6011 25.5585 23.2108 25.5585 22.6529V11.7877H28.0451C28.5725 11.7877 29 11.3596 29 10.8316V4.32281ZM26.8843 2.00762L26.8841 2.01171L26.8839 2.01169L26.8843 2.00762ZM8.40797 16.9144V14.6354L4.83676 17.8374C4.5704 18.0762 4.41818 18.4172 4.41818 18.7752V28.5801H8.24657V27.6051C8.24657 27.0645 8.66009 26.7574 8.91974 26.6488C8.98643 26.621 9.1138 26.5406 9.28393 26.3837C9.44598 26.2342 9.61557 26.0443 9.76938 25.8388C9.92365 25.6326 10.0514 25.4248 10.1374 25.2436C10.1802 25.1534 10.209 25.0774 10.2264 25.0174C10.2349 24.9878 10.2399 24.9649 10.2426 24.9484C10.245 24.934 10.2452 24.9268 10.2453 24.926L10.2453 24.926V23.6966H9.68205C9.61229 23.9394 9.5089 24.2376 9.35908 24.5409C9.00921 25.2493 8.29895 26.1758 7.01818 26.1758C6.62656 26.1758 6.30909 25.8579 6.30909 25.4659C6.30909 25.0738 6.62656 24.7559 7.01818 24.7559C7.48628 24.7559 7.82546 24.4428 8.08783 23.9116C8.21282 23.6585 8.29637 23.398 8.34864 23.196C8.37441 23.0964 8.39169 23.0145 8.40224 22.9594L8.408 22.9284V22.6524L8.40797 22.645V21.3997L8.408 21.3934V21.1002C8.408 20.8467 8.50859 20.6035 8.68764 20.4242L10.7792 18.3299C11.0433 18.0736 11.1163 17.8453 11.1237 17.689C11.1313 17.527 11.0723 17.384 10.9744 17.2809C10.8766 17.1779 10.7411 17.1154 10.5872 17.1164C10.4389 17.1174 10.2131 17.179 9.94884 17.4355L9.93948 17.4445L6.43197 20.6051C6.14088 20.8674 5.69252 20.8437 5.43055 20.5523C5.16858 20.2609 5.19218 19.812 5.48327 19.5497L8.40797 16.9144ZM9.82618 21.2923V22.1812H24.1403V4.71452L24.1404 4.69928V4.32281C24.1404 3.98593 24.2034 3.68659 24.3134 3.4242H10.8378C10.2791 3.4242 9.82615 3.87766 9.82615 4.43704V11.4579L9.82618 11.4579V15.8447C10.0715 15.7481 10.3243 15.6983 10.5778 15.6966C11.1395 15.6929 11.6457 15.9271 12.0022 16.3026C12.7476 17.0876 12.7692 18.3726 11.7705 19.3454L9.82618 21.2923ZM25.5585 4.70194V10.3678H27.5818V4.32281C27.5818 3.95925 27.4519 3.75608 27.303 3.63354C27.1652 3.5202 26.9685 3.44282 26.7398 3.4242H26.5879L26.5706 3.42561C26.4395 3.43713 26.2788 3.4681 26.1285 3.53718C25.9841 3.60356 25.8537 3.7023 25.7551 3.85765C25.657 4.01206 25.5604 4.26953 25.5585 4.70194ZM17.4638 6.15549C17.4638 5.84182 17.2098 5.58754 16.8965 5.58754C16.5832 5.58754 16.3293 5.84182 16.3293 6.15549V6.34632C16.1904 6.37818 16.0429 6.42576 15.8981 6.4967C15.4493 6.71654 15.0617 7.1464 14.9992 7.85938C14.9742 8.1446 15.0125 8.41412 15.1299 8.6565C15.2472 8.89865 15.424 9.07347 15.6122 9.20045C15.9465 9.42613 16.3782 9.53498 16.6964 9.61522L16.7321 9.62424C17.1076 9.71916 17.363 9.78853 17.5375 9.89838C17.6122 9.94548 17.6504 9.98799 17.6722 10.0254C17.6917 10.0588 17.7146 10.1156 17.7171 10.2196C17.7034 10.3804 17.6591 10.4769 17.6173 10.5371C17.5724 10.6018 17.5106 10.6529 17.4306 10.6938C17.256 10.7829 17.0428 10.7994 16.932 10.7994C16.5499 10.7994 16.3232 10.6651 16.1924 10.5509C16.1232 10.4906 16.076 10.4312 16.0478 10.3902C16.0339 10.3699 16.0251 10.3549 16.0211 10.3478L16.0194 10.3446C15.8857 10.0662 15.5532 9.94539 15.2716 10.0748C14.9869 10.2056 14.862 10.5428 14.9927 10.8279L14.9933 10.8291L14.9938 10.8303L14.9951 10.8331L14.9982 10.8395L15.0061 10.8557C15.0123 10.8679 15.0203 10.8831 15.0301 10.9008C15.0498 10.9362 15.0772 10.9819 15.1133 11.0344C15.1852 11.1389 15.2938 11.2736 15.447 11.4073C15.6596 11.5928 15.9507 11.7691 16.3293 11.8636V12.0622C16.3293 12.3758 16.5833 12.6301 16.8966 12.6301C17.2099 12.6301 17.4638 12.3758 17.4638 12.0622V11.8769C17.6157 11.8429 17.7821 11.7894 17.9461 11.7056C18.3985 11.4745 18.8002 11.0253 18.8506 10.2763C18.8514 10.2635 18.8518 10.2508 18.8518 10.2381C18.8518 9.94808 18.7868 9.68326 18.6514 9.45166C18.5173 9.22221 18.3329 9.05741 18.1415 8.93689C17.8003 8.72197 17.374 8.61462 17.0556 8.53444L17.0099 8.52291C16.6331 8.42764 16.396 8.35958 16.2464 8.25858C16.1861 8.21794 16.1627 8.18544 16.1507 8.16073C16.1388 8.13624 16.1188 8.07934 16.1294 7.95875C16.1433 7.80021 16.1868 7.70951 16.2257 7.65521C16.2658 7.59918 16.3214 7.55393 16.3967 7.51702C16.5629 7.43562 16.7751 7.41837 16.932 7.41837C17.0448 7.41837 17.2237 7.44235 17.4026 7.51206C17.5797 7.58104 17.7271 7.68267 17.8245 7.81787C18.0078 8.07226 18.3623 8.12973 18.6164 7.94623C18.8705 7.76272 18.9279 7.40774 18.7446 7.15334C18.4 6.67496 17.8928 6.44487 17.4638 6.34633V6.15549ZM13.5419 15.432C13.2286 15.432 12.9746 15.6863 12.9746 16C12.9746 16.3137 13.2286 16.568 13.5419 16.568H20.9164C21.2297 16.568 21.4837 16.3137 21.4837 16C21.4837 15.6863 21.2297 15.432 20.9164 15.432H13.5419ZM12.9746 18.4611C12.9746 18.1474 13.2286 17.8931 13.5419 17.8931H20.9164C21.2297 17.8931 21.4837 18.1474 21.4837 18.4611C21.4837 18.7748 21.2297 19.0291 20.9164 19.0291H13.5419C13.2286 19.0291 12.9746 18.7748 12.9746 18.4611Z" fill="currentColor"/>
</svg>
