<svg width="32" height="32" viewBox="0 0 32 32" fill="none" xmlns="http://www.w3.org/2000/svg">
<path fill-rule="evenodd" clip-rule="evenodd" d="M24.0728 4.18182H7.92727C7.71639 4.18182 7.54545 4.35819 7.54545 4.57576V7.33333H24.4546V4.57575C24.4546 4.35819 24.2837 4.18182 24.0728 4.18182ZM24.4546 17.2381H7.54545V24.329C7.54545 24.5465 7.71639 24.7229 7.92727 24.7229H24.0728C24.2837 24.7229 24.4546 24.5465 24.4546 24.329V17.2381ZM6.39999 17.2381V24.329C6.39999 25.0834 6.91382 25.7139 7.6001 25.8685V28.2121C7.6001 28.6472 7.94199 29 8.36374 29H10.4365C10.8582 29 11.2001 28.6472 11.2001 28.2121V25.9047H20.8001V28.2121C20.8001 28.6472 21.142 29 21.5638 29H23.6365C24.0582 29 24.4001 28.6472 24.4001 28.2121V25.8684C25.0863 25.7139 25.6001 25.0833 25.6001 24.329L25.6001 8.65587H26.2V12.0335C26.2 12.4687 26.5419 12.8214 26.9637 12.8214H27.2364C27.6581 12.8214 28 12.4687 28 12.0335V8.65693C28 8.22179 27.6581 7.86905 27.2364 7.86905H26.8283C26.819 7.86835 26.8096 7.86799 26.8001 7.86799H25.6001L25.6001 4.57575C25.6001 3.70549 24.9163 3 24.0728 3H7.92727C7.08377 3 6.39999 3.70549 6.39999 4.57576V7.33333H6.39996V7.86799H5.50005C5.49056 7.86799 5.48116 7.86835 5.47185 7.86905H4.76364C4.34189 7.86905 4 8.22179 4 8.65693V12.0335C4 12.4687 4.34189 12.8214 4.76364 12.8214H5.03637C5.45812 12.8214 5.80001 12.4687 5.80001 12.0335V8.65587H6.39996V17.2381H6.39999ZM7.54545 16.0563H24.4546V8.51515H7.54545V16.0563ZM10.3 21.4026C10.7067 21.4026 11.0364 21.0624 11.0364 20.6428C11.0364 20.2232 10.7067 19.8831 10.3 19.8831C9.89331 19.8831 9.56363 20.2232 9.56363 20.6428C9.56363 21.0624 9.89331 21.4026 10.3 21.4026ZM10.3 22.1904C11.1284 22.1904 11.8 21.4976 11.8 20.6428C11.8 19.7881 11.1284 19.0952 10.3 19.0952C9.47156 19.0952 8.79999 19.7881 8.79999 20.6428C8.79999 21.4976 9.47156 22.1904 10.3 22.1904ZM22.4365 20.6428C22.4365 21.0624 22.1068 21.4026 21.7001 21.4026C21.2935 21.4026 20.9638 21.0624 20.9638 20.6428C20.9638 20.2232 21.2935 19.8831 21.7001 19.8831C22.1068 19.8831 22.4365 20.2232 22.4365 20.6428ZM23.2001 20.6428C23.2001 21.4976 22.5286 22.1904 21.7001 22.1904C20.8717 22.1904 20.2001 21.4976 20.2001 20.6428C20.2001 19.7881 20.8717 19.0952 21.7001 19.0952C22.5286 19.0952 23.2001 19.7881 23.2001 20.6428ZM12.6215 19.7142C12.6215 19.4967 12.7925 19.3203 13.0033 19.3203H19.1125C19.3233 19.3203 19.4943 19.4967 19.4943 19.7142C19.4943 19.9318 19.3233 20.1082 19.1125 20.1082H13.0033C12.7925 20.1082 12.6215 19.9318 12.6215 19.7142ZM13.0033 21.2787C12.7925 21.2787 12.6215 21.4551 12.6215 21.6727C12.6215 21.8902 12.7925 22.0666 13.0033 22.0666H19.1125C19.3233 22.0666 19.4943 21.8902 19.4943 21.6727C19.4943 21.4551 19.3233 21.2787 19.1125 21.2787H13.0033Z" fill="currentColor"/>
</svg>
