<svg width="24" height="24" viewBox="0 0 24 24" fill="none" xmlns="http://www.w3.org/2000/svg">
<path fill-rule="evenodd" clip-rule="evenodd" d="M14.5451 2.40219C14.6536 2.29802 14.7996 2.24326 14.9492 2.25066L15.0906 2.25767C19.4622 2.47423 22.8963 6.11293 22.8963 10.5283C22.8963 10.8331 22.6514 11.0802 22.3493 11.0802H14.9224C14.6202 11.0802 14.3753 10.8331 14.3753 10.5283V2.80189C14.3753 2.65082 14.4367 2.50636 14.5451 2.40219ZM21.7814 9.9764C21.5224 6.54665 18.8692 3.77087 15.4694 3.3947V9.9764H21.7814ZM15.8376 12.8785C15.9256 12.6798 16.1212 12.5519 16.337 12.5519H22.7029C23.0051 12.5519 23.25 12.799 23.25 13.1038V13.2246C23.25 15.1773 22.4055 17.0327 20.9375 18.3053C20.7108 18.5019 20.3703 18.4782 20.1724 18.2538L15.9294 13.4718C15.7855 13.3096 15.7495 13.0773 15.8376 12.8785ZM20.6137 17.0962C21.5005 16.163 22.0406 14.9468 22.1394 13.6556H17.5609L20.6137 17.0962Z" fill="#433AD4"/>
<path fill-rule="evenodd" clip-rule="evenodd" d="M11.25 4.96414C10.4173 5.09685 9.60787 5.37657 8.85724 5.79524C7.77182 6.40063 6.84105 7.27894 6.15102 8.35655C5.46085 9.43437 5.034 10.6767 4.91159 11.9736C4.78918 13.2705 4.9754 14.5779 5.45221 15.7791C5.92895 16.9801 6.68021 18.0348 7.63515 18.8526C8.58981 19.6702 9.71883 20.226 10.921 20.4756C12.123 20.725 13.3653 20.6615 14.5392 20.2899C15.3771 20.0247 16.1634 19.6078 16.863 19.0591L11.7713 13.746C11.4368 13.3969 11.25 12.9321 11.25 12.4487V4.96414ZM11.6261 3.78401C12.0386 3.74649 12.375 4.0858 12.375 4.50002V12.4487C12.375 12.6421 12.4497 12.828 12.5835 12.9676L17.9765 18.595C18.2545 18.8851 18.2567 19.3456 17.9559 19.612C17.0577 20.4074 16.0108 21.0041 14.8787 21.3625C13.5214 21.7921 12.0835 21.8658 10.6924 21.5771C9.30125 21.2883 7.99983 20.646 6.9034 19.7071C5.80697 18.7682 4.94937 17.5616 4.40658 16.1942C3.86378 14.8268 3.65254 13.3408 3.79157 11.8679C3.9306 10.3949 4.4156 8.98051 5.20361 7.74989C5.99163 6.51926 7.05833 5.51042 8.30924 4.81273C9.33916 4.23829 10.4678 3.88937 11.6261 3.78401Z" fill="#433AD4"/>
<path d="M9.75004 16.5C9.75004 18.9853 7.73532 21 5.25004 21C2.76475 21 0.750036 18.9853 0.750036 16.5C0.750036 14.0147 2.76475 12 5.25004 12C7.73532 12 9.75004 14.0147 9.75004 16.5Z" fill="#433AD4"/>
<path fill-rule="evenodd" clip-rule="evenodd" d="M4.34984 14.3101C4.67062 14.1552 5.01063 14.1429 5.17276 14.1429C5.52816 14.1429 6.21191 14.2749 6.61221 14.8224C6.73886 14.9957 6.6992 15.2374 6.52362 15.3624C6.34804 15.4873 6.10304 15.4482 5.97638 15.275C5.78638 15.0151 5.40765 14.9164 5.17276 14.9164C5.03974 14.9164 4.84883 14.9303 4.6944 15.0049C4.56889 15.0655 4.45217 15.1693 4.42909 15.4286C4.41933 15.5383 4.43719 15.5993 4.45432 15.6341C4.47153 15.6692 4.50159 15.7054 4.56036 15.7445C4.69809 15.8361 4.90955 15.8945 5.21815 15.9714C5.22961 15.9742 5.24123 15.9771 5.253 15.98C5.51954 16.0462 5.8619 16.1313 6.13396 16.3001C6.28459 16.3936 6.42738 16.52 6.53084 16.6944C6.63517 16.8703 6.68629 17.0728 6.68629 17.298C6.68629 17.3066 6.68599 17.3153 6.6854 17.324C6.64565 17.9062 6.33124 18.2505 5.97805 18.4283C5.65227 18.5923 5.31265 18.6075 5.17276 18.6075C4.62516 18.6075 4.24065 18.4081 3.99288 18.1951C3.87161 18.0908 3.78585 17.9859 3.72925 17.9048C3.70084 17.8641 3.6794 17.8288 3.66417 17.8019C3.65655 17.7884 3.65044 17.7769 3.64577 17.7678C3.64344 17.7632 3.64145 17.7592 3.63981 17.7559C3.63899 17.7542 3.63826 17.7526 3.63761 17.7513L3.63669 17.7494L3.63628 17.7485L3.63609 17.7481C3.636 17.7479 3.63591 17.7477 3.97919 17.5922L3.6359 17.7477C3.54559 17.5535 3.63188 17.3239 3.82863 17.2348C4.02362 17.1465 4.25392 17.2293 4.34594 17.4198C4.34643 17.4207 4.34743 17.4226 4.34897 17.4253C4.35334 17.433 4.36187 17.4473 4.37497 17.4661C4.40137 17.5039 4.44474 17.5576 4.50793 17.6119C4.6291 17.7161 4.83489 17.834 5.17276 17.834C5.26897 17.834 5.46058 17.8204 5.62179 17.7392C5.75345 17.673 5.87982 17.5585 5.90219 17.2853C5.90044 17.1863 5.87823 17.1256 5.85422 17.0851C5.82833 17.0414 5.78659 16.9984 5.71653 16.9549C5.55921 16.8572 5.33386 16.798 5.0262 16.7213C5.01776 16.7192 5.00924 16.7171 5.00063 16.715C4.73373 16.6486 4.38772 16.5625 4.12214 16.3859C3.97497 16.288 3.83896 16.1548 3.74895 15.9718C3.65887 15.7885 3.62837 15.5828 3.64812 15.3609C3.69736 14.8077 4.00015 14.4789 4.34984 14.3101ZM4.34814 17.4244C4.34811 17.4243 4.34807 17.4243 4.34804 17.4242L4.34814 17.4244ZM4.34823 17.4246C4.34823 17.4246 4.34823 17.4246 4.34823 17.4246L4.34814 17.4244L4.34804 17.4242" fill="white"/>
<path fill-rule="evenodd" clip-rule="evenodd" d="M5.14337 13.575C5.35986 13.575 5.53536 13.7482 5.53536 13.9618V14.5296C5.53536 14.7432 5.35986 14.9164 5.14337 14.9164C4.92688 14.9164 4.75138 14.7432 4.75138 14.5296V13.9618C4.75138 13.7482 4.92688 13.575 5.14337 13.575Z" fill="white"/>
<path fill-rule="evenodd" clip-rule="evenodd" d="M5.14337 17.834C5.35986 17.834 5.53536 18.0071 5.53536 18.2207V18.7886C5.53536 19.0022 5.35986 19.1754 5.14337 19.1754C4.92688 19.1754 4.75138 19.0022 4.75138 18.7886V18.2207C4.75138 18.0071 4.92688 17.834 5.14337 17.834Z" fill="white"/>
</svg>
