<svg width="32" height="32" viewBox="0 0 32 32" fill="none" xmlns="http://www.w3.org/2000/svg">
<path fill-rule="evenodd" clip-rule="evenodd" d="M11 4C10.4477 4 10 4.44772 10 5V6.18182H5.5C4.67157 6.18182 4 6.8534 4 7.68182V11.6364V13.6364V26.5C4 27.3284 4.67157 28 5.5 28H26.5C27.3284 28 28 27.3284 28 26.5V13.6364V11.6364V7.68182C28 6.8534 27.3284 6.18182 26.5 6.18182H22.2857V5C22.2857 4.44772 21.838 4 21.2857 4C20.7334 4 20.2857 4.44772 20.2857 5V6.18182H12V5C12 4.44772 11.5523 4 11 4ZM26 11.6364V8.18182H22.2857V8.45455C22.2857 9.00683 21.838 9.45455 21.2857 9.45455C20.7334 9.45455 20.2857 9.00683 20.2857 8.45455V8.18182H12V8.45455C12 9.00683 11.5523 9.45455 11 9.45455C10.4477 9.45455 10 9.00683 10 8.45455V8.18182H6V11.6364H26ZM6 13.6364V26H26V13.6364H6ZM17 23C17 23.5523 16.5523 24 16 24C15.4477 24 15 23.5523 15 23C15 22.4477 15.4477 22 16 22C16.5523 22 17 22.4477 17 23ZM10 24C10.5523 24 11 23.5523 11 23C11 22.4477 10.5523 22 10 22C9.44772 22 9 22.4477 9 23C9 23.5523 9.44772 24 10 24ZM17 17C17 17.5523 16.5523 18 16 18C15.4477 18 15 17.5523 15 17C15 16.4477 15.4477 16 16 16C16.5523 16 17 16.4477 17 17ZM22 24C22.5523 24 23 23.5523 23 23C23 22.4477 22.5523 22 22 22C21.4477 22 21 22.4477 21 23C21 23.5523 21.4477 24 22 24ZM23 17C23 17.5523 22.5523 18 22 18C21.4477 18 21 17.5523 21 17C21 16.4477 21.4477 16 22 16C22.5523 16 23 16.4477 23 17ZM10 18C10.5523 18 11 17.5523 11 17C11 16.4477 10.5523 16 10 16C9.44772 16 9 16.4477 9 17C9 17.5523 9.44772 18 10 18Z" fill="currentColor"/>
</svg>
