<svg width="32" height="32" viewBox="0 0 32 32" fill="none" xmlns="http://www.w3.org/2000/svg">
<path fill-rule="evenodd" clip-rule="evenodd" d="M18.1197 5.53651C18.1235 5.52291 18.1359 5.51351 18.15 5.51351H26.455C26.4724 5.51351 26.4865 5.5276 26.4865 5.54497V21.0849H5.51351V9.9541C5.51351 9.93673 5.5276 9.92264 5.54497 9.92264H7.64476V12.8535H7.35138C7.06479 12.8535 6.83246 13.0858 6.83246 13.3724C6.83246 13.659 7.06479 13.8913 7.35138 13.8913H14.3139C14.6005 13.8913 14.8329 13.659 14.8329 13.3724C14.8329 13.0858 14.6005 12.8535 14.3139 12.8535H14.0786V9.92264H15.722C16.4152 9.92264 17.0235 9.46095 17.21 8.79332L18.1197 5.53651ZM5.54497 8.40913H7.64476V6.12588C7.64476 5.49371 8.35619 5.12304 8.8743 5.48526L9.5944 5.98872L10.4006 5.34822C10.6905 5.11789 11.1023 5.12257 11.3869 5.35945L12.1365 5.9834L12.8491 5.48526C13.3672 5.12304 14.0786 5.49371 14.0786 6.12588V8.40913H15.722C15.7361 8.40913 15.7485 8.39973 15.7523 8.38613L16.662 5.12932C16.8485 4.46169 17.4569 4 18.15 4H26.455C27.3083 4 28 4.69171 28 5.54497V26.455C28 27.3083 27.3083 28 26.455 28H5.54497C4.69171 28 4 27.3083 4 26.455V9.9541C4 9.10084 4.69171 8.40913 5.54497 8.40913ZM5.51351 22.3822H26.4865V26.455C26.4865 26.4724 26.4724 26.4865 26.455 26.4865H5.54497C5.5276 26.4865 5.51351 26.4724 5.51351 26.455V22.3822ZM19.4595 9.29996V7.35135H24.2982V9.29996H19.4595ZM18.5946 7.01196C18.5946 6.72175 18.8299 6.48649 19.1201 6.48649H24.6376C24.9278 6.48649 25.1631 6.72175 25.1631 7.01196V9.63935C25.1631 9.92956 24.9278 10.1648 24.6376 10.1648H19.1201C18.8299 10.1648 18.5946 9.92956 18.5946 9.63935V7.01196ZM13.4055 24.1298C13.1189 24.1298 12.8865 24.3621 12.8865 24.6487C12.8865 24.9353 13.1189 25.1676 13.4055 25.1676H18.5946C18.8812 25.1676 19.1136 24.9353 19.1136 24.6487C19.1136 24.3621 18.8812 24.1298 18.5946 24.1298H13.4055ZM8.6826 12.8535H13.0408V6.61757L12.5709 6.94606C12.2821 7.14799 11.8938 7.13168 11.623 6.90624L10.8831 6.29041L10.0904 6.92015C9.81965 7.13527 9.43972 7.1469 9.1563 6.94875L8.6826 6.61757V12.8535ZM17.8611 11.6757C17.7886 11.6757 17.7297 11.7345 17.7297 11.807V12.8416C17.7297 12.9142 17.7886 12.973 17.8611 12.973H18.8957C18.9682 12.973 19.027 12.9142 19.027 12.8416V11.807C19.027 11.7345 18.9682 11.6757 18.8957 11.6757H17.8611ZM17.7297 14.8341C17.7297 14.7615 17.7886 14.7027 17.8611 14.7027H18.8957C18.9682 14.7027 19.027 14.7615 19.027 14.8341V15.8686C19.027 15.9412 18.9682 16 18.8957 16H17.8611C17.7886 16 17.7297 15.9412 17.7297 15.8686V14.8341ZM20.8881 11.6757C20.8156 11.6757 20.7568 11.7345 20.7568 11.807V12.8416C20.7568 12.9142 20.8156 12.973 20.8881 12.973H21.9227C21.9953 12.973 22.0541 12.9142 22.0541 12.8416V11.807C22.0541 11.7345 21.9953 11.6757 21.9227 11.6757H20.8881ZM20.7568 14.8341C20.7568 14.7615 20.8156 14.7027 20.8881 14.7027H21.9227C21.9953 14.7027 22.0541 14.7615 22.0541 14.8341V15.8686C22.0541 15.9412 21.9953 16 21.9227 16H20.8881C20.8156 16 20.7568 15.9412 20.7568 15.8686V14.8341ZM23.9152 11.6757C23.8426 11.6757 23.7838 11.7345 23.7838 11.807V12.8416C23.7838 12.9142 23.8426 12.973 23.9152 12.973H24.9497C25.0223 12.973 25.0811 12.9142 25.0811 12.8416V11.807C25.0811 11.7345 25.0223 11.6757 24.9497 11.6757H23.9152ZM20.7568 17.8611C20.7568 17.7885 20.8156 17.7297 20.8881 17.7297H21.9227C21.9953 17.7297 22.0541 17.7885 22.0541 17.8611V18.8957C22.0541 18.9682 21.9953 19.027 21.9227 19.027H20.8881C20.8156 19.027 20.7568 18.9682 20.7568 18.8957V17.8611ZM17.8611 17.7297C17.7886 17.7297 17.7297 17.7885 17.7297 17.8611V18.8957C17.7297 18.9682 17.7886 19.027 17.8611 19.027H18.8957C18.9682 19.027 19.027 18.9682 19.027 18.8957V17.8611C19.027 17.7885 18.9682 17.7297 18.8957 17.7297H17.8611ZM23.7838 14.8341C23.7838 14.7615 23.8426 14.7027 23.9152 14.7027H24.9497C25.0223 14.7027 25.0811 14.7615 25.0811 14.8341V15.8686C25.0811 15.9412 25.0223 16 24.9497 16H23.9152C23.8426 16 23.7838 15.9412 23.7838 15.8686V14.8341ZM23.9152 17.7297C23.8426 17.7297 23.7838 17.7885 23.7838 17.8611V18.8957C23.7838 18.9682 23.8426 19.027 23.9152 19.027H24.9497C25.0223 19.027 25.0811 18.9682 25.0811 18.8957V17.8611C25.0811 17.7885 25.0223 17.7297 24.9497 17.7297H23.9152Z" fill="currentColor"/>
</svg>
