<svg width="24" height="24" viewBox="0 0 24 24" fill="none" xmlns="http://www.w3.org/2000/svg">
<path fill-rule="evenodd" clip-rule="evenodd" d="M3 2.625V21.375C3 21.9963 3.51807 22.5 4.15714 22.5H10.9072C11.3332 22.5 11.6786 22.1642 11.6786 21.75C11.6786 21.3358 11.3332 21 10.9072 21H4.54286V3H16.8857V14C16.8857 14.4142 17.2311 14.75 17.6572 14.75C18.0832 14.75 18.4286 14.4142 18.4286 14V2.625C18.4286 2.00368 17.9105 1.5 17.2715 1.5H4.15714C3.51807 1.5 3 2.00368 3 2.625ZM11.2103 6.61523C11.2103 6.27545 10.9258 6 10.575 6C10.2241 6 9.93972 6.27545 9.93972 6.61523V6.97976C9.69872 7.0224 9.43178 7.0964 9.17259 7.22431C8.5605 7.52636 8.04496 8.10504 7.96072 9.07254C7.92683 9.46174 7.97936 9.81734 8.13093 10.1325C8.28291 10.4485 8.51451 10.6823 8.77157 10.857C9.23911 11.1749 9.85198 11.3308 10.3338 11.4533L10.3338 11.4533L10.3757 11.464C10.9245 11.6038 11.3379 11.7141 11.6296 11.8991C11.7613 11.9827 11.8473 12.0702 11.9033 12.1667C11.9569 12.259 12.0016 12.3914 12.0043 12.5943C11.9617 13.1463 11.7068 13.3816 11.4549 13.5112C11.1546 13.6657 10.8022 13.6904 10.628 13.6904C10.0118 13.6904 9.6303 13.4704 9.40056 13.2685C9.28146 13.1638 9.19897 13.0598 9.14788 12.9849C9.12254 12.9478 9.10562 12.9189 9.09637 12.9022L9.09099 12.8922L9.08859 12.8875C8.94475 12.5814 8.57291 12.4435 8.25421 12.5795C7.93317 12.7165 7.78762 13.0797 7.92912 13.3906L7.92978 13.3921L7.93236 13.3976L7.93532 13.4039L7.94513 13.424C7.95291 13.4395 7.96321 13.4593 7.97618 13.4828C8.00209 13.5297 8.03894 13.5916 8.08804 13.6635C8.18584 13.8068 8.33495 13.9936 8.54672 14.1797C8.86833 14.4623 9.32586 14.7349 9.93972 14.8558V15.2285C9.93972 15.5683 10.2241 15.8438 10.575 15.8438C10.9258 15.8438 11.2103 15.5683 11.2103 15.2285V14.8713C11.4649 14.8277 11.7614 14.7468 12.051 14.5978C12.6694 14.2796 13.2055 13.6732 13.2736 12.6535C13.2745 12.6403 13.275 12.627 13.275 12.6138C13.275 12.2197 13.1877 11.8685 13.011 11.5639C12.835 11.2606 12.59 11.0374 12.3258 10.8699C11.8459 10.5654 11.239 10.4112 10.7585 10.2892L10.6989 10.274C10.1487 10.1339 9.75913 10.0251 9.5016 9.84997C9.38928 9.7736 9.32299 9.69678 9.28266 9.61293C9.24191 9.52822 9.20771 9.39475 9.22677 9.17593C9.27224 8.65361 9.50914 8.43922 9.74942 8.32065C10.0374 8.17853 10.3886 8.15332 10.628 8.15332C11.0509 8.15332 11.7548 8.33306 12.1175 8.84009C12.3172 9.11941 12.713 9.18901 13.0014 8.99553C13.2898 8.80206 13.3617 8.41878 13.1619 8.13946C12.6441 7.41548 11.8466 7.09542 11.2103 6.97894V6.61523ZM14.891 18.375L16.2741 17.0303C16.5753 16.7374 16.5753 16.2626 16.2741 15.9697C15.9728 15.6768 15.4844 15.6768 15.1831 15.9697L12.7558 18.3295C12.3039 18.7688 12.3039 19.4812 12.7558 19.9205L15.1831 22.2803C15.4844 22.5732 15.9728 22.5732 16.2741 22.2803C16.5753 21.9874 16.5753 21.5126 16.2741 21.2197L14.891 19.875H20.2286C20.6546 19.875 21 19.5392 21 19.125C21 18.7108 20.6546 18.375 20.2286 18.375H14.891Z" fill="currentColor"/>
</svg>
