<svg width="24" height="24" viewBox="0 0 24 24" fill="none" xmlns="http://www.w3.org/2000/svg">
<path fill-rule="evenodd" clip-rule="evenodd" d="M3 3V21C3 21.8284 3.67157 22.5 4.5 22.5H11.0222C11.4364 22.5 11.7722 22.1642 11.7722 21.75C11.7722 21.3358 11.4364 21 11.0222 21H4.5595V3H17.0355V13.9702C17.0355 14.4009 17.3846 14.75 17.8153 14.75C18.2459 14.75 18.595 14.4009 18.595 13.9702V3C18.595 2.17157 17.9235 1.5 17.095 1.5H4.5C3.67157 1.5 3 2.17157 3 3ZM10.7975 6C11.1521 6 11.4396 6.27545 11.4396 6.61523V6.97894C12.0828 7.09542 12.8889 7.41548 13.4123 8.13946C13.6143 8.41878 13.5416 8.80206 13.2501 8.99553C12.9586 9.18901 12.5585 9.11941 12.3566 8.84009C11.9901 8.33306 11.2785 8.15332 10.8511 8.15332C10.6091 8.15332 10.2541 8.17853 9.96303 8.32065C9.72016 8.43922 9.4807 8.65361 9.43474 9.17593C9.41548 9.39475 9.45005 9.52822 9.49123 9.61293C9.532 9.69678 9.599 9.7736 9.71253 9.84997C9.97284 10.0251 10.3666 10.1339 10.9227 10.274L10.983 10.2892C11.4687 10.4112 12.0821 10.5654 12.5672 10.8699C12.8342 11.0374 13.0819 11.2606 13.2597 11.5639C13.4384 11.8685 13.5266 12.2197 13.5266 12.6138C13.5266 12.627 13.5261 12.6403 13.5253 12.6535C13.4564 13.6732 12.9146 14.2796 12.2894 14.5978C11.9967 14.7468 11.697 14.8277 11.4396 14.8713V15.2285C11.4396 15.5683 11.1521 15.8438 10.7975 15.8438C10.4429 15.8438 10.1554 15.5683 10.1554 15.2285V14.8558C9.5349 14.7349 9.07243 14.4623 8.74736 14.1797C8.5333 13.9936 8.38258 13.8068 8.28372 13.6635C8.23409 13.5916 8.19685 13.5297 8.17066 13.4828C8.15755 13.4593 8.14714 13.4395 8.13928 13.424L8.12936 13.4039L8.12636 13.3976L8.12376 13.3921L8.12309 13.3906C7.98006 13.0797 8.12718 12.7165 8.45169 12.5795C8.77383 12.4435 9.14968 12.5814 9.29507 12.8875C9.29507 12.8875 9.29863 12.8945 9.30294 12.9022C9.31228 12.9189 9.32939 12.9478 9.355 12.9849C9.40664 13.0598 9.49002 13.1638 9.61041 13.2685C9.84262 13.4704 10.2282 13.6904 10.8511 13.6904C11.0272 13.6904 11.3834 13.6657 11.6869 13.5112C11.9416 13.3816 12.1992 13.1463 12.2422 12.5943C12.2395 12.3914 12.1943 12.259 12.1402 12.1667C12.0835 12.0702 11.9966 11.9827 11.8635 11.8991C11.5687 11.7141 11.1508 11.6038 10.5961 11.464L10.5537 11.4533C10.0667 11.3308 9.44722 11.1749 8.97463 10.857C8.7148 10.6823 8.4807 10.4485 8.32708 10.1325C8.17388 9.81734 8.12078 9.46174 8.15503 9.07254C8.24018 8.10504 8.76129 7.52636 9.37997 7.22431C9.64196 7.0964 9.91179 7.0224 10.1554 6.97976V6.61523C10.1554 6.27545 10.4429 6 10.7975 6ZM16.9921 17.2207C16.594 16.8379 16.5817 16.2048 16.9646 15.8068C17.3474 15.4087 17.9805 15.3964 18.3785 15.7793L20.733 18.0439C21.3465 18.6341 21.3465 19.6159 20.733 20.2061L18.3785 22.4707C17.9805 22.8536 17.3474 22.8413 16.9646 22.4432C16.5817 22.0452 16.594 21.4121 16.9921 21.0293L17.9322 20.125H13.1368C12.5845 20.125 12.1368 19.6773 12.1368 19.125C12.1368 18.5727 12.5845 18.125 13.1368 18.125H17.9322L16.9921 17.2207Z" fill="#433AD4"/>
</svg>
