<svg width="32" height="32" viewBox="0 0 32 32" fill="none" xmlns="http://www.w3.org/2000/svg">
<path fill-rule="evenodd" clip-rule="evenodd" d="M4.00003 3.89189C4.00003 2.84702 4.84389 2 5.88484 2H19.9581C20.9991 2 21.8429 2.84703 21.8429 3.89189V8.93694C21.8429 8.95522 21.8424 8.97337 21.8413 8.99138C25.3132 9.42511 28 12.3976 28 16C28 19.6024 25.3132 22.5749 21.8413 23.0086C21.8424 23.0266 21.8429 23.0448 21.8429 23.0631V28.1081C21.8429 29.153 20.9991 30 19.9581 30H5.88482C4.84386 30 4 29.153 4 28.1081L4.00003 3.89189ZM20.0838 8.93694C20.0838 8.95522 20.0843 8.97337 20.0854 8.99138C16.6135 9.42511 13.9267 12.3976 13.9267 16C13.9267 19.6024 16.6135 22.5749 20.0854 23.0086C20.0843 23.0266 20.0838 23.0448 20.0838 23.0631V28.1081C20.0838 28.1778 20.0275 28.2342 19.9581 28.2342H5.88482C5.81542 28.2342 5.75916 28.1778 5.75916 28.1081L5.75919 3.89189C5.75919 3.82223 5.81544 3.76577 5.88484 3.76577H19.9581C20.0275 3.76577 20.0838 3.82223 20.0838 3.89189V8.93694ZM12.9215 25.8883C13.3656 25.8883 13.7257 25.5269 13.7257 25.0811C13.7257 24.6353 13.3656 24.2739 12.9215 24.2739C12.4773 24.2739 12.1173 24.6353 12.1173 25.0811C12.1173 25.5269 12.4773 25.8883 12.9215 25.8883ZM12.9215 27.0991C14.0318 27.0991 14.932 26.1956 14.932 25.0811C14.932 23.9666 14.0318 23.0631 12.9215 23.0631C11.8111 23.0631 10.911 23.9666 10.911 25.0811C10.911 26.1956 11.8111 27.0991 12.9215 27.0991ZM10.4084 4.9009C10.1308 4.9009 9.90576 5.12678 9.90576 5.40541C9.90576 5.68404 10.1308 5.90991 10.4084 5.90991H15.4346C15.7121 5.90991 15.9372 5.68404 15.9372 5.40541C15.9372 5.12678 15.7121 4.9009 15.4346 4.9009H10.4084ZM20.9633 21.8166C24.1638 21.8166 26.7582 19.2124 26.7582 16C26.7582 12.7876 24.1638 10.1834 20.9633 10.1834C17.7629 10.1834 15.1685 12.7876 15.1685 16C15.1685 19.2124 17.7629 21.8166 20.9633 21.8166ZM21.4455 12.5375C21.4455 12.2821 21.2349 12.075 20.975 12.075C20.7151 12.075 20.5044 12.2821 20.5044 12.5375V12.8115C20.3259 12.8436 20.1282 12.8992 19.9362 12.9954C19.4828 13.2224 19.1009 13.6575 19.0385 14.3848C19.0134 14.6774 19.0523 14.9447 19.1646 15.1816C19.2772 15.4191 19.4487 15.5949 19.6391 15.7263C19.9855 15.9652 20.4394 16.0824 20.7963 16.1745L20.8274 16.1826C21.2339 16.2876 21.5401 16.3706 21.7562 16.5097C21.8538 16.5725 21.9174 16.6382 21.9589 16.7108C21.9986 16.7802 22.0317 16.8797 22.0337 17.0322C22.0022 17.4472 21.8134 17.6241 21.6268 17.7215C21.4044 17.8377 21.1433 17.8563 21.0143 17.8563C20.5578 17.8563 20.2752 17.6908 20.105 17.5391C20.0168 17.4604 19.9557 17.3822 19.9179 17.3259C19.8991 17.298 19.8866 17.2763 19.8797 17.2637C19.8766 17.2579 19.874 17.2527 19.874 17.2527C19.7674 17.0225 19.492 16.9189 19.2559 17.0211C19.0181 17.1242 18.9103 17.3971 19.0151 17.6309L19.0155 17.6318L19.0156 17.632C19.0159 17.6327 19.0177 17.6366 19.0175 17.6361L19.0197 17.6409L19.027 17.6559C19.0327 17.6676 19.0403 17.6825 19.0499 17.7002C19.0691 17.7354 19.0964 17.782 19.1328 17.8361C19.2053 17.9437 19.3157 18.0841 19.4726 18.2241C19.7108 18.4365 20.0497 18.6415 20.5044 18.7323V19.0125C20.5044 19.2679 20.7151 19.475 20.975 19.475C21.2349 19.475 21.4456 19.2679 21.4456 19.0125V18.744C21.6342 18.7112 21.8538 18.6504 22.0683 18.5384C22.5264 18.2992 22.9235 17.8433 22.974 17.0767C22.9746 17.0668 22.975 17.0568 22.975 17.0469C22.975 16.7506 22.9103 16.4866 22.7794 16.2577C22.649 16.0297 22.4676 15.8619 22.2719 15.7359C21.9164 15.507 21.4669 15.3911 21.1109 15.2994L21.0668 15.288C20.6592 15.1826 20.3706 15.1008 20.1799 14.9692C20.0967 14.9118 20.0476 14.8541 20.0177 14.791C19.9875 14.7273 19.9622 14.627 19.9763 14.4625C20.01 14.0699 20.1855 13.9087 20.3635 13.8196C20.5768 13.7127 20.8369 13.6938 21.0143 13.6938C21.3275 13.6938 21.8489 13.8289 22.1176 14.21C22.2655 14.42 22.5587 14.4723 22.7723 14.3269C22.986 14.1815 23.0392 13.8933 22.8912 13.6833C22.5077 13.1391 21.9169 12.8985 21.4455 12.8109V12.5375Z" fill="currentColor"/>
</svg>
