<svg width="24" height="24" viewBox="0 0 24 24" fill="none" xmlns="http://www.w3.org/2000/svg">
<path fill-rule="evenodd" clip-rule="evenodd" d="M6.67608 1.5C5.88849 1.5 5.25002 2.13527 5.25002 2.91892L5.25 21.0811C5.25 21.8647 5.88847 22.5 6.67606 22.5H17.3239C18.1115 22.5 18.75 21.8647 18.75 21.0811V2.91892C18.75 2.13527 18.1115 1.5 17.3239 1.5H6.67608ZM6.58101 2.91892C6.58101 2.86668 6.62357 2.82432 6.67608 2.82432H17.3239C17.3764 2.82432 17.419 2.86668 17.419 2.91892V21.0811C17.419 21.1333 17.3764 21.1757 17.3239 21.1757H6.67606C6.62355 21.1757 6.58099 21.1333 6.58099 21.0811L6.58101 2.91892ZM12.6085 18.8108C12.6085 19.1452 12.336 19.4162 12 19.4162C11.664 19.4162 11.3916 19.1452 11.3916 18.8108C11.3916 18.4765 11.664 18.2054 12 18.2054C12.336 18.2054 12.6085 18.4765 12.6085 18.8108ZM13.5211 18.8108C13.5211 19.6467 12.8401 20.3243 12 20.3243C11.1599 20.3243 10.4789 19.6467 10.4789 18.8108C10.4789 17.9749 11.1599 17.2973 12 17.2973C12.8401 17.2973 13.5211 17.9749 13.5211 18.8108ZM9.75 4.12838C9.75 3.91941 9.91877 3.75 10.127 3.75H13.8966C14.1048 3.75 14.2736 3.91941 14.2736 4.12838C14.2736 4.33735 14.1048 4.50676 13.8966 4.50676H10.127C9.91877 4.50676 9.75 4.33735 9.75 4.12838ZM8.875 7.375V9.58654H11.0865V7.375H8.875ZM8.5625 6.75C8.38991 6.75 8.25 6.88991 8.25 7.0625V9.89904C8.25 10.0716 8.38991 10.2115 8.5625 10.2115H11.399C11.5716 10.2115 11.7115 10.0716 11.7115 9.89904V7.0625C11.7115 6.88991 11.5716 6.75 11.399 6.75H8.5625ZM8.875 11.4135V13.625H11.0865V11.4135H8.875ZM8.5625 10.7885C8.38991 10.7885 8.25 10.9284 8.25 11.101V13.9375C8.25 14.1101 8.38991 14.25 8.5625 14.25H11.399C11.5716 14.25 11.7115 14.1101 11.7115 13.9375V11.101C11.7115 10.9284 11.5716 10.7885 11.399 10.7885H8.5625ZM12.9135 9.58654V7.375H15.125V9.58654H12.9135ZM12.2885 7.0625C12.2885 6.88991 12.4284 6.75 12.601 6.75H15.4375C15.6101 6.75 15.75 6.88991 15.75 7.0625V9.89904C15.75 10.0716 15.6101 10.2115 15.4375 10.2115H12.601C12.4284 10.2115 12.2885 10.0716 12.2885 9.89904V7.0625ZM9.6923 8.48076C9.6923 8.32145 9.82145 8.1923 9.98076 8.1923C10.1401 8.1923 10.2692 8.32145 10.2692 8.48076C10.2692 8.64007 10.1401 8.76922 9.98076 8.76922C9.82145 8.76922 9.6923 8.64007 9.6923 8.48076ZM14.0192 8.1923C13.8599 8.1923 13.7308 8.32145 13.7308 8.48076C13.7308 8.64007 13.8599 8.76922 14.0192 8.76922C14.1785 8.76922 14.3077 8.64007 14.3077 8.48076C14.3077 8.32145 14.1785 8.1923 14.0192 8.1923ZM9.6923 12.5192C9.6923 12.3599 9.82145 12.2308 9.98076 12.2308C10.1401 12.2308 10.2692 12.3599 10.2692 12.5192C10.2692 12.6785 10.1401 12.8077 9.98076 12.8077C9.82145 12.8077 9.6923 12.6785 9.6923 12.5192ZM12.5769 11.9423C12.4176 11.9423 12.2885 12.0714 12.2885 12.2308C12.2885 12.3901 12.4176 12.5192 12.5769 12.5192C12.7362 12.5192 12.8654 12.3901 12.8654 12.2308C12.8654 12.0714 12.7362 11.9423 12.5769 11.9423ZM12.3125 11.125C12.3125 10.9524 12.4524 10.8125 12.625 10.8125H14.0312C14.2038 10.8125 14.3437 10.9524 14.3437 11.125V11.3414H15.125V11.125C15.125 10.9524 15.2649 10.8125 15.4375 10.8125C15.6101 10.8125 15.75 10.9524 15.75 11.125V11.6539C15.75 11.8265 15.6101 11.9664 15.4375 11.9664H14.3437V12.375C14.3437 12.5476 14.2038 12.6875 14.0312 12.6875C13.8587 12.6875 13.7187 12.5476 13.7187 12.375V11.6539V11.4375H12.625C12.4524 11.4375 12.3125 11.2976 12.3125 11.125ZM15.75 12.8437C15.75 12.6712 15.6101 12.5312 15.4375 12.5312C15.2649 12.5312 15.125 12.6712 15.125 12.8437V13.0721H14.568C14.3954 13.0721 14.2555 13.212 14.2555 13.3846C14.2555 13.5572 14.3954 13.6971 14.568 13.6971H15.125V13.9375C15.125 14.1101 15.2649 14.25 15.4375 14.25C15.6101 14.25 15.75 14.1101 15.75 13.9375V13.3846V12.8437ZM13.7187 13.9375C13.7187 14.1101 13.5788 14.25 13.4062 14.25H12.625C12.4524 14.25 12.3125 14.1101 12.3125 13.9375V13.3125C12.3125 13.1399 12.4524 13 12.625 13C12.7976 13 12.9375 13.1399 12.9375 13.3125V13.625H13.4062C13.5788 13.625 13.7187 13.7649 13.7187 13.9375Z" fill="currentColor"/>
</svg>
