<svg width="32" height="32" viewBox="0 0 32 32" fill="none" xmlns="http://www.w3.org/2000/svg">
<path fill-rule="evenodd" clip-rule="evenodd" d="M7.00003 3.89189C7.00003 2.84702 7.85132 2 8.90144 2H23.0986C24.1487 2 25 2.84703 25 3.89189V28.1081C25 29.153 24.1487 30 23.0986 30H8.90141C7.85129 30 7 29.153 7 28.1081L7.00003 3.89189ZM8.90144 3.76577C8.83143 3.76577 8.77468 3.82223 8.77468 3.89189L8.77465 28.1081C8.77465 28.1778 8.8314 28.2342 8.90141 28.2342H23.0986C23.1686 28.2342 23.2254 28.1778 23.2254 28.1081V3.89189C23.2254 3.82223 23.1686 3.76577 23.0986 3.76577H8.90144ZM16 25.8883C16.4481 25.8883 16.8113 25.5269 16.8113 25.0811C16.8113 24.6353 16.4481 24.2739 16 24.2739C15.552 24.2739 15.1887 24.6353 15.1887 25.0811C15.1887 25.5269 15.552 25.8883 16 25.8883ZM16 27.0991C17.1201 27.0991 18.0282 26.1956 18.0282 25.0811C18.0282 23.9666 17.1201 23.0631 16 23.0631C14.8799 23.0631 13.9718 23.9666 13.9718 25.0811C13.9718 26.1956 14.8799 27.0991 16 27.0991ZM13.7183 4.9009C13.2983 4.9009 12.9577 5.23971 12.9577 5.65766C12.9577 6.0756 13.2983 6.41441 13.7183 6.41441H18.2817C18.7017 6.41441 19.0423 6.0756 19.0423 5.65766C19.0423 5.23971 18.7017 4.9009 18.2817 4.9009H13.7183Z" fill="currentColor"/>
</svg>
