<svg width="32" height="32" viewBox="0 0 32 32" fill="none" xmlns="http://www.w3.org/2000/svg">
<path fill-rule="evenodd" clip-rule="evenodd" d="M6.82323 2C5.8163 2 5.00003 2.84702 5.00003 3.89189L5 28.1081C5 29.153 5.81628 30 6.8232 30H20.4365C21.4434 30 22.2597 29.153 22.2597 28.1081V22.5455L24.1215 21.4346L25.2467 22.2403C25.9885 22.7714 27 22.2204 27 21.2852V9.34054C27 8.69969 26.4994 8.18018 25.8818 8.18018H22.2597V3.89189C22.2597 2.84703 21.4434 2 20.4365 2H6.82323ZM20.558 8.18018V3.89189C20.558 3.82223 20.5036 3.76577 20.4365 3.76577H6.82323C6.7561 3.76577 6.70168 3.82223 6.70168 3.89189L6.70166 28.1081C6.70166 28.1778 6.75608 28.2342 6.8232 28.2342H20.4365C20.5036 28.2342 20.558 28.1778 20.558 28.1081V22.2932L19.0836 21.4135L17.4933 22.3623C16.7478 22.8071 15.8177 22.2488 15.8177 21.3564V9.34054C15.8177 8.69969 16.3183 8.18018 16.9359 8.18018H20.558ZM14.6022 25.0811C14.6022 25.6383 14.1668 26.0901 13.6298 26.0901C13.0928 26.0901 12.6574 25.6383 12.6574 25.0811C12.6574 24.5238 13.0928 24.0721 13.6298 24.0721C14.1668 24.0721 14.6022 24.5238 14.6022 25.0811ZM15.5746 25.0811C15.5746 26.1956 14.7039 27.0991 13.6298 27.0991C12.5558 27.0991 11.6851 26.1956 11.6851 25.0811C11.6851 23.9666 12.5558 23.0631 13.6298 23.0631C14.7039 23.0631 15.5746 23.9666 15.5746 25.0811ZM10.7127 5.40541C10.7127 5.12678 10.9304 4.9009 11.1989 4.9009H16.0608C16.3293 4.9009 16.547 5.12678 16.547 5.40541C16.547 5.68404 16.3293 5.90991 16.0608 5.90991H11.1989C10.9304 5.90991 10.7127 5.68404 10.7127 5.40541ZM17.2763 20.746V9.69369H25.5414V20.6125L24.7731 20.0623C24.4182 19.8083 23.9543 19.7885 23.5806 20.0115L21.6202 21.1811L19.641 20.0002C19.2959 19.7943 18.8713 19.7943 18.5262 20.0002L17.2763 20.746ZM18.9779 11.964C18.9779 11.6853 19.1956 11.4595 19.4641 11.4595H23.5481C23.8166 11.4595 24.0343 11.6853 24.0343 11.964C24.0343 12.2426 23.8166 12.4685 23.5481 12.4685H19.4641C19.1956 12.4685 18.9779 12.2426 18.9779 11.964ZM19.4641 14.4865C19.1956 14.4865 18.9779 14.7124 18.9779 14.991C18.9779 15.2696 19.1956 15.4955 19.4641 15.4955H23.5481C23.8166 15.4955 24.0343 15.2696 24.0343 14.991C24.0343 14.7124 23.8166 14.4865 23.5481 14.4865H19.4641Z" fill="currentColor"/>
</svg>
