<svg width="32" height="32" viewBox="0 0 32 32" fill="none" xmlns="http://www.w3.org/2000/svg">
<path fill-rule="evenodd" clip-rule="evenodd" d="M6.65206 4.29741C6.27754 3.9044 5.66641 3.90036 5.28707 4.28839C4.90774 4.67641 4.90384 5.30957 5.27837 5.70257L15.2175 16.1321L5.28713 26.2883C4.90776 26.6763 4.90382 27.3095 5.27831 27.7025C5.65281 28.0956 6.26393 28.0996 6.6433 27.7117L16.9172 17.2042C17.4863 16.6221 17.4921 15.6723 16.9303 15.0828L6.65206 4.29741ZM16.3042 4.29742C15.9297 3.90441 15.3185 3.90037 14.9392 4.2884C14.5599 4.67642 14.556 5.30958 14.9305 5.70258L24.8697 16.1321L14.9393 26.2883C14.5599 26.6763 14.5559 27.3095 14.9304 27.7025C15.3049 28.0956 15.9161 28.0997 16.2954 27.7117L26.5693 17.2042C27.1384 16.6221 27.1443 15.6724 26.5824 15.0828L16.3042 4.29742Z" fill="currentColor"/>
</svg>
