<svg width="32" height="32" viewBox="0 0 32 32" fill="none" xmlns="http://www.w3.org/2000/svg">
<path fill-rule="evenodd" clip-rule="evenodd" d="M26.7129 5.71166C27.0922 5.32367 27.0962 4.69052 26.7217 4.29748C26.3472 3.90444 25.7361 3.90035 25.3567 4.28834L15.0828 14.7958C14.5137 15.3779 14.5079 16.3277 15.0697 16.9172L25.3479 27.7026C25.7225 28.0956 26.3336 28.0996 26.7129 27.7116C27.0923 27.3236 27.0962 26.6904 26.7216 26.2974L16.7825 15.8679L26.7129 5.71166ZM17.0607 5.71167C17.4401 5.32368 17.444 4.69053 17.0696 4.29749C16.6951 3.90445 16.0839 3.90036 15.7046 4.28835L5.43069 14.7958C4.86161 15.3779 4.85573 16.3277 5.41755 16.9172L15.6958 27.7026C16.0703 28.0956 16.6815 28.0996 17.0608 27.7116C17.4401 27.3236 17.444 26.6904 17.0695 26.2974L7.13034 15.8679L17.0607 5.71167Z" fill="currentColor"/>
</svg>
