<svg width="80" height="80" viewBox="0 0 80 80" fill="none" xmlns="http://www.w3.org/2000/svg">
<path fill-rule="evenodd" clip-rule="evenodd" d="M40 75C59.33 75 75 59.33 75 40C75 20.67 59.33 5 40 5C20.67 5 5 20.67 5 40C5 59.33 20.67 75 40 75ZM42.2749 26.25L42.275 42.3656L55.0768 50.381C56.2471 51.1137 56.6018 52.6564 55.8691 53.8266C55.1364 54.9969 53.5937 55.3516 52.4235 54.6189L39.0349 46.2362C37.9399 45.5506 37.275 44.3497 37.275 43.0578L37.2749 26.25C37.2749 24.8693 38.3942 23.75 39.7749 23.75C41.1556 23.75 42.2749 24.8693 42.2749 26.25Z" fill="#C5CADE"/>
</svg>
