<svg width="32" height="32" viewBox="0 0 32 32" fill="none" xmlns="http://www.w3.org/2000/svg">
<path fill-rule="evenodd" clip-rule="evenodd" d="M8.13389 6.36612C7.64573 5.87796 6.85428 5.87796 6.36612 6.36612C5.87796 6.85427 5.87796 7.64573 6.36612 8.13388L14.2322 16L6.36612 23.8661C5.87796 24.3543 5.87796 25.1457 6.36612 25.6339C6.85427 26.1221 7.64573 26.1221 8.13388 25.6339L16 17.7678L23.8661 25.6339C24.3543 26.122 25.1457 26.122 25.6339 25.6339C26.122 25.1457 26.122 24.3543 25.6339 23.8661L17.7678 16L25.6339 8.1339C26.122 7.64574 26.122 6.85429 25.6339 6.36613C25.1457 5.87798 24.3543 5.87798 23.8661 6.36613L16 14.2322L8.13389 6.36612Z" fill="currentColor"/>
</svg>
