<svg width="32" height="32" viewBox="0 0 32 32" fill="none" xmlns="http://www.w3.org/2000/svg">
<path fill-rule="evenodd" clip-rule="evenodd" d="M13.8182 6C13.8182 6 15.0898 6 16.2267 6.87188C16.2267 6.87188 17.2644 7.66768 18.0462 9.08527C18.0462 9.08527 19.6364 11.9685 19.6364 16C19.6364 16 19.6364 20.0315 18.0462 22.9147C18.0462 22.9147 17.2644 24.3323 16.2267 25.1281C16.2267 25.1281 15.0898 26 13.8182 26C13.8182 26 12.5465 26 11.4097 25.1281C11.4097 25.1281 10.372 24.3323 9.59016 22.9147C9.59016 22.9147 8 20.0315 8 16C8 16 8 11.9685 9.59016 9.08527C9.59016 9.08527 10.372 7.66768 11.4097 6.87188C11.4097 6.87188 12.5465 6 13.8182 6ZM13.8182 7.53846C13.8182 7.53846 13.0184 7.53846 12.2635 8.11738C12.2635 8.11738 11.474 8.72289 10.8466 9.86045C10.8466 9.86045 9.45455 12.3845 9.45455 16C9.45455 16 9.45455 19.6155 10.8466 22.1395C10.8466 22.1395 11.474 23.2771 12.2635 23.8826C12.2635 23.8826 13.0184 24.4615 13.8182 24.4615C13.8182 24.4615 14.618 24.4615 15.3729 23.8826C15.3729 23.8826 16.1624 23.2771 16.7898 22.1395C16.7898 22.1395 18.1818 19.6155 18.1818 16C18.1818 16 18.1818 12.3845 16.7898 9.86045C16.7898 9.86045 16.1624 8.72289 15.3729 8.11738C15.3729 8.11738 14.618 7.53846 13.8182 7.53846Z" fill="#1E243D"/>
<path d="M18.1818 24.4615H13.8182C13.4165 24.4615 13.0909 24.8059 13.0909 25.2308C13.0909 25.6556 13.4165 26 13.8182 26H18.1818C19.4526 26 20.5894 25.1278 20.5894 25.1278C21.6268 24.3317 22.4089 22.9141 22.4089 22.9141C24 20.0296 24 16 24 16C24 11.9704 22.4089 9.08591 22.4089 9.08591C21.6268 7.66826 20.5894 6.87225 20.5894 6.87225C19.4526 6 18.1818 6 18.1818 6H13.8182C13.4165 6 13.0909 6.3444 13.0909 6.76923C13.0909 7.19407 13.4165 7.53846 13.8182 7.53846L18.1818 7.53846C18.9806 7.53846 19.7353 8.11754 19.7353 8.11754C20.5248 8.72335 21.1525 9.86121 21.1525 9.86121C22.5455 12.3864 22.5455 16 22.5455 16C22.5455 19.6136 21.1525 22.1388 21.1525 22.1388C20.5248 23.2767 19.7353 23.8825 19.7353 23.8825C18.9806 24.4615 18.1818 24.4615 18.1818 24.4615Z" fill="#1E243D"/>
<path d="M17.6091 10.6154H21.9727C22.3744 10.6154 22.7 10.271 22.7 9.84615C22.7 9.42132 22.3744 9.07692 21.9727 9.07692H17.6091C17.2074 9.07692 16.8818 9.42132 16.8818 9.84615C16.8818 10.271 17.2074 10.6154 17.6091 10.6154Z" fill="#1E243D"/>
<path d="M18.9091 16.7692H23.2727C23.6744 16.7692 24 16.4248 24 16C24 15.5752 23.6744 15.2308 23.2727 15.2308H18.9091C18.5074 15.2308 18.1818 15.5752 18.1818 16C18.1818 16.4248 18.5074 16.7692 18.9091 16.7692Z" fill="#1E243D"/>
<path d="M17.6091 22.9231H21.9727C22.3744 22.9231 22.7 22.5787 22.7 22.1538C22.7 21.729 22.3744 21.3846 21.9727 21.3846H17.6091C17.2074 21.3846 16.8818 21.729 16.8818 22.1538C16.8818 22.5787 17.2074 22.9231 17.6091 22.9231Z" fill="currentColor"/>
</svg>
