<svg width="32" height="32" viewBox="0 0 32 32" fill="none" xmlns="http://www.w3.org/2000/svg">
<path fill-rule="evenodd" clip-rule="evenodd" d="M19 7C19 8.65685 17.6569 10 16 10C14.3431 10 13 8.65685 13 7C13 5.34315 14.3431 4 16 4C17.6569 4 19 5.34315 19 7ZM19 16C19 17.6569 17.6569 19 16 19C14.3431 19 13 17.6569 13 16C13 14.3431 14.3431 13 16 13C17.6569 13 19 14.3431 19 16ZM16 28C17.6569 28 19 26.6569 19 25C19 23.3431 17.6569 22 16 22C14.3431 22 13 23.3431 13 25C13 26.6569 14.3431 28 16 28Z" fill="currentColor"/>
</svg>
