<svg width="32" height="32" viewBox="0 0 32 32" fill="none" xmlns="http://www.w3.org/2000/svg">
<path fill-rule="evenodd" clip-rule="evenodd" d="M12.5 8V6H26V21H24C23.4477 21 23 21.4477 23 22C23 22.5523 23.4477 23 24 23H26.5C27.3284 23 28 22.3284 28 21.5V5.5C28 4.67157 27.3284 4 26.5 4H12C11.1716 4 10.5 4.67157 10.5 5.5V8C10.5 8.55228 10.9477 9 11.5 9C12.0523 9 12.5 8.55228 12.5 8ZM5.5 11C4.67157 11 4 11.6716 4 12.5V26.5C4 27.3284 4.67157 28 5.5 28H19.5C20.3284 28 21 27.3284 21 26.5V12.5C21 11.6716 20.3284 11 19.5 11H5.5ZM6 26V13H19V26H6Z" fill="currentColor"/>
</svg>
