<svg width="32" height="32" viewBox="0 0 32 32" fill="none" xmlns="http://www.w3.org/2000/svg">
<path fill-rule="evenodd" clip-rule="evenodd" d="M3.7 7.7V11.3H28.3V7.7H3.7ZM3.7 24.3V13H28.3V24.3H3.7ZM3.5 6C2.67157 6 2 6.67157 2 7.5V24.5C2 25.3284 2.67157 26 3.5 26H28.5C29.3284 26 30 25.3284 30 24.5V7.5C30 6.67157 29.3284 6 28.5 6H3.5ZM7.00002 15.4C6.53058 15.4 6.15002 15.7806 6.15002 16.25C6.15002 16.7195 6.53058 17.1 7.00002 17.1H13C13.4694 17.1 13.85 16.7195 13.85 16.25C13.85 15.7806 13.4694 15.4 13 15.4H7.00002Z" fill="currentColor"/>
</svg>
