<svg width="29" height="22" viewBox="0 0 29 22" fill="none" xmlns="http://www.w3.org/2000/svg">
<g id="Icon-wrapper">
<path id="Icon" fill-rule="evenodd" clip-rule="evenodd" d="M0.875 2.33351C0.875 1.32089 1.71521 0.5 2.75167 0.5H26.7731C27.8095 0.5 28.6498 1.32089 28.6498 2.33351V11.1344C28.6498 11.6069 28.2577 11.99 27.774 11.99C27.2903 11.99 26.8982 11.6069 26.8982 11.1344V7.22288H2.62656V17.9795C2.62656 18.047 2.68258 18.1017 2.75167 18.1017H18.2655C18.7492 18.1017 19.1413 18.4848 19.1413 18.9574C19.1413 19.4299 18.7492 19.813 18.2655 19.813H2.75167C1.71521 19.813 0.875 18.9921 0.875 17.9795V2.33351ZM26.8982 2.33351V5.5116H2.62656V2.33351C2.62656 2.26601 2.68258 2.21128 2.75167 2.21128H26.7731C26.8422 2.21128 26.8982 2.26601 26.8982 2.33351ZM5.75432 9.54534C5.27064 9.54534 4.87854 9.92842 4.87854 10.401C4.87854 10.8735 5.27064 11.2566 5.75432 11.2566H11.7597C12.2433 11.2566 12.6354 10.8735 12.6354 10.401C12.6354 9.92842 12.2433 9.54534 11.7597 9.54534H5.75432ZM28.2745 16.4149C28.6061 16.4149 28.875 16.6776 28.875 17.0016C28.875 19.2052 27.6377 20.6034 26.0637 21.0779C25.0886 21.3719 24.0005 21.3039 23.0502 20.8768C23.0659 21.1227 22.9206 21.3614 22.6737 21.4579C22.3658 21.5782 22.0163 21.4319 21.8931 21.131L21.3921 19.9074C21.1026 19.2002 21.7317 18.4614 22.4961 18.6107L23.7119 18.8483C24.0371 18.9118 24.248 19.2209 24.183 19.5387C24.1469 19.7148 24.0336 19.8566 23.8844 19.9372C24.4774 20.1254 25.122 20.1338 25.7096 19.9566C26.7616 19.6395 27.6739 18.7096 27.6739 17.0016C27.6739 16.6776 27.9428 16.4149 28.2745 16.4149ZM20.1852 17.6328C20.2656 17.9472 20.5917 18.1383 20.9134 18.0598C21.2352 17.9812 21.4308 17.6626 21.3504 17.3482C20.9338 15.7202 21.8127 14.5127 23.0881 13.9949C23.9479 13.6458 24.9441 13.6295 25.7991 14.0194C25.565 14.0633 25.3705 14.242 25.3226 14.4847C25.2599 14.8029 25.473 15.1105 25.7987 15.1718L27.1198 15.4206C27.8247 15.5534 28.4323 14.9261 28.2578 14.2457L27.9256 12.9506C27.845 12.6363 27.5188 12.4454 27.1971 12.5241C26.8918 12.5989 26.7002 12.8897 26.7503 13.1878C25.4744 12.4141 23.9054 12.3923 22.6272 12.9112C20.8974 13.6136 19.6009 15.3494 20.1852 17.6328Z" fill="currentColor"/>
</g>
</svg>
