<svg width="32" height="32" viewBox="0 0 32 32" fill="none" xmlns="http://www.w3.org/2000/svg">
<path fill-rule="evenodd" clip-rule="evenodd" d="M13.5252 6.46181L16 4.40816L18.4748 6.46181C19.0198 6.91402 19.7 7.16513 20.4041 7.174L23.6014 7.21431L24.1957 10.401C24.3266 11.1027 24.6885 11.7385 25.2222 12.2043L27.646 14.3197L26.0817 17.1484C25.7373 17.7712 25.6116 18.4943 25.7252 19.199L26.2413 22.3997L23.2504 23.5468C22.5918 23.7993 22.0373 24.2713 21.6777 24.8852L20.0446 27.6736L17.0265 26.6023C16.3619 26.3664 15.6381 26.3664 14.9735 26.6023L11.9554 27.6736L10.3223 24.8852C9.96271 24.2713 9.4082 23.7993 8.7496 23.5468L5.75869 22.3997L6.27476 19.199C6.3884 18.4943 6.2627 17.7712 5.91826 17.1484L4.35401 14.3197L6.77776 12.2043C7.31147 11.7385 7.6734 11.1027 7.80427 10.401L8.39862 7.21431L11.596 7.174C12.3 7.16513 12.9802 6.91402 13.5252 6.46181ZM15.3441 2.23746C15.7256 1.92083 16.2744 1.92083 16.6559 2.23746L19.7867 4.83543C19.9684 4.98616 20.1951 5.06986 20.4298 5.07282L24.4746 5.12381C24.9675 5.13003 25.3879 5.48778 25.4795 5.97911L26.2314 10.0104C26.275 10.2443 26.3957 10.4563 26.5736 10.6115L29.6397 13.2876C30.0134 13.6138 30.1087 14.1619 29.8675 14.598L27.8887 18.1763C27.7739 18.384 27.732 18.625 27.7699 18.8599L28.4227 22.9089C28.5023 23.4024 28.2279 23.8844 27.7668 24.0612L23.9831 25.5123C23.7636 25.5965 23.5788 25.7538 23.4589 25.9585L21.393 29.4858C21.1412 29.9157 20.6255 30.1061 20.1602 29.9409L16.3422 28.5857C16.1206 28.5071 15.8794 28.5071 15.6578 28.5857L11.8398 29.9409C11.3745 30.1061 10.8588 29.9157 10.607 29.4858L8.54111 25.9585C8.42124 25.7538 8.2364 25.5965 8.01687 25.5123L4.23323 24.0612C3.77208 23.8844 3.49772 23.4024 3.57729 22.9089L4.23014 18.8599C4.26802 18.625 4.22612 18.384 4.11131 18.1763L2.13246 14.598C1.89128 14.1619 1.98657 13.6138 2.36027 13.2876L5.42643 10.6115C5.60433 10.4563 5.72497 10.2443 5.7686 10.0104L6.52047 5.97911C6.61211 5.48778 7.03246 5.13003 7.52544 5.12381L11.5702 5.07282C11.8049 5.06986 12.0316 4.98616 12.2133 4.83543L15.3441 2.23746ZM20.8761 12.9428C21.2806 12.5325 21.2806 11.8672 20.8761 11.4569C20.4715 11.0466 19.8156 11.0466 19.4111 11.4569L11.124 19.8623C10.7194 20.2726 10.7194 20.9378 11.124 21.3482C11.5285 21.7585 12.1844 21.7585 12.5889 21.3482L20.8761 12.9428ZM13.4103 12.4625C13.4103 13.1878 12.8306 13.7758 12.1154 13.7758C11.4003 13.7758 10.8206 13.1878 10.8206 12.4625C10.8206 11.7371 11.4003 11.1491 12.1154 11.1491C12.8306 11.1491 13.4103 11.7371 13.4103 12.4625ZM19.8846 21.6559C20.5997 21.6559 21.1795 21.0679 21.1795 20.3425C21.1795 19.6172 20.5997 19.0292 19.8846 19.0292C19.1695 19.0292 18.5897 19.6172 18.5897 20.3425C18.5897 21.0679 19.1695 21.6559 19.8846 21.6559Z" fill="currentColor"/>
</svg>
