<svg width="24" height="24" viewBox="0 0 24 24" fill="none" xmlns="http://www.w3.org/2000/svg">
<path fill-rule="evenodd" clip-rule="evenodd" d="M18.375 21.375V7.40625H15C14.2233 7.40625 13.5938 6.77665 13.5938 6V2.625H5.625V21.375H18.375ZM14.9062 3.37224L17.6278 6.09375H15C14.9482 6.09375 14.9062 6.05178 14.9062 6V3.37224ZM18.75 22.5H5.25C4.83579 22.5 4.5 22.1642 4.5 21.75V2.25C4.5 1.83579 4.83579 1.5 5.25 1.5H14.3143C14.5133 1.5 14.704 1.57902 14.8447 1.71967L19.2803 6.15533C19.421 6.29598 19.5 6.48675 19.5 6.68566V21.75C19.5 22.1642 19.1642 22.5 18.75 22.5ZM8.24451 10.6875C7.88207 10.6875 7.58826 10.9813 7.58826 11.3438C7.58826 11.7062 7.88207 12 8.24451 12H15.7445C16.1069 12 16.4008 11.7062 16.4008 11.3438C16.4008 10.9813 16.1069 10.6875 15.7445 10.6875H8.24451ZM7.59375 14.3438C7.59375 13.9813 7.88756 13.6875 8.25 13.6875H15.75C16.1124 13.6875 16.4062 13.9813 16.4062 14.3438C16.4062 14.7062 16.1124 15 15.75 15H8.25C7.88756 15 7.59375 14.7062 7.59375 14.3438ZM8.25 16.6875C7.88756 16.6875 7.59375 16.9813 7.59375 17.3438C7.59375 17.7062 7.88756 18 8.25 18H15.75C16.1124 18 16.4062 17.7062 16.4062 17.3438C16.4062 16.9813 16.1124 16.6875 15.75 16.6875H8.25Z" fill="currentColor"/>
</svg>
