<svg width="32" height="32" viewBox="0 0 32 32" fill="none" xmlns="http://www.w3.org/2000/svg">
<path fill-rule="evenodd" clip-rule="evenodd" d="M7.65 2C6.73873 2 6 2.73873 6 3.65V28.35C6 29.2613 6.73873 30 7.65 30H24.35C25.2613 30 26 29.2613 26 28.35V9.1579C26 8.89718 25.8982 8.64677 25.7162 8.46003L19.7162 2.30214C19.528 2.10895 19.2697 2 19 2H7.65ZM8 28V4H18V9.1579C18 9.71018 18.4477 10.1579 19 10.1579H24V28H8ZM22.6294 8.1579L20 5.45926V8.1579H22.6294ZM11 15C10.4477 15 10 15.4477 10 16C10 16.5523 10.4477 17 11 17H21C21.5523 17 22 16.5523 22 16C22 15.4477 21.5523 15 21 15H11ZM10 20C10 19.4477 10.4477 19 11 19H21C21.5523 19 22 19.4477 22 20C22 20.5523 21.5523 21 21 21H11C10.4477 21 10 20.5523 10 20ZM11 23C10.4477 23 10 23.4477 10 24C10 24.5523 10.4477 25 11 25H17.4C17.9523 25 18.4 24.5523 18.4 24C18.4 23.4477 17.9523 23 17.4 23H11Z" fill="currentColor"/>
</svg>
