<svg width="16" height="22" viewBox="0 0 16 22" fill="none" xmlns="http://www.w3.org/2000/svg">
<g id="Icon-wrapper">
<path id="Icon" fill-rule="evenodd" clip-rule="evenodd" d="M14.375 20.375V6.40625H11C10.2233 6.40625 9.59375 5.77665 9.59375 5V1.625H1.625V20.375H14.375ZM10.9062 2.37224L13.6278 5.09375H11C10.9482 5.09375 10.9062 5.05178 10.9062 5V2.37224ZM14.75 21.5H1.25C0.835787 21.5 0.5 21.1642 0.5 20.75V1.25C0.5 0.835786 0.835786 0.5 1.25 0.5H10.3143C10.5133 0.5 10.704 0.579018 10.8447 0.71967L15.2803 5.15533C15.421 5.29598 15.5 5.48675 15.5 5.68566V20.75C15.5 21.1642 15.1642 21.5 14.75 21.5ZM6.35 11.75C6.35 12.0814 6.08137 12.35 5.75 12.35C5.41863 12.35 5.15 12.0814 5.15 11.75C5.15 11.4186 5.41863 11.15 5.75 11.15C6.08137 11.15 6.35 11.4186 6.35 11.75ZM7.25 11.75C7.25 12.5784 6.57843 13.25 5.75 13.25C4.92157 13.25 4.25 12.5784 4.25 11.75C4.25 10.9216 4.92157 10.25 5.75 10.25C6.57843 10.25 7.25 10.9216 7.25 11.75ZM10.85 16.25C10.85 16.5814 10.5814 16.85 10.25 16.85C9.91863 16.85 9.65 16.5814 9.65 16.25C9.65 15.9186 9.91863 15.65 10.25 15.65C10.5814 15.65 10.85 15.9186 10.85 16.25ZM11.75 16.25C11.75 17.0784 11.0784 17.75 10.25 17.75C9.42157 17.75 8.75 17.0784 8.75 16.25C8.75 15.4216 9.42157 14.75 10.25 14.75C11.0784 14.75 11.75 15.4216 11.75 16.25ZM11.3977 10.6023C11.6174 10.8219 11.6174 11.1781 11.3977 11.3977L5.39775 17.3977C5.17808 17.6174 4.82192 17.6174 4.60225 17.3977C4.38258 17.1781 4.38258 16.8219 4.60225 16.6023L10.6023 10.6023C10.8219 10.3826 11.1781 10.3826 11.3977 10.6023Z" fill="currentColor"/>
</g>
</svg>
