<svg width="32" height="32" viewBox="0 0 32 32" fill="none" xmlns="http://www.w3.org/2000/svg">
<path fill-rule="evenodd" clip-rule="evenodd" d="M3.43601 8.3243C3.55305 8.28476 3.69301 8.24004 3.85525 8.19241C4.4421 8.02011 5.32028 7.80984 6.46047 7.6692C8.73939 7.38809 12.0703 7.38437 16.2215 8.52326C19.6657 9.46819 22.9821 9.38583 25.4261 9.07316C26.6505 8.91651 27.6628 8.70116 28.3717 8.52411C28.4385 8.50742 28.5026 8.49107 28.564 8.47514V23.7625C28.4766 23.7932 28.3755 23.8269 28.2607 23.8625C27.7534 24.0196 26.9787 24.2131 25.941 24.3428C23.8671 24.6019 20.7329 24.6074 16.5709 23.5494C12.2394 22.4482 8.7346 22.4451 6.2995 22.7234C5.08249 22.8625 4.13361 23.0718 3.48293 23.2488L3.43601 23.2617V8.3243ZM2.98085 24.9884C2.75992 25.0799 2.51029 25.0505 2.31401 24.9098C2.11757 24.769 2 24.5349 2 24.2846V7.79138C2 7.48813 2.17196 7.21421 2.43686 7.09547L2.43832 7.09481L2.44027 7.09395L2.44559 7.0916L2.46197 7.08449C2.47542 7.07871 2.49395 7.07088 2.51748 7.06121C2.56454 7.04187 2.63164 7.01518 2.71832 6.98288C2.89167 6.91826 3.14338 6.83114 3.46969 6.73534C4.12232 6.54374 5.07361 6.31733 6.29344 6.16686C8.73457 5.86574 12.2459 5.86945 16.5835 7.0595C19.7986 7.94158 22.9219 7.86981 25.2529 7.57159C26.4159 7.4228 27.3749 7.21852 28.0404 7.05231C28.373 6.96925 28.6317 6.89583 28.8054 6.84382C28.8923 6.81782 28.9578 6.79718 29.0006 6.78339L29.0476 6.76803L29.058 6.76454L29.0595 6.76404C29.2781 6.68913 29.5178 6.72885 29.7038 6.87106C29.8899 7.01335 30 7.24091 30 7.48312V24.2846C30 24.5784 29.8384 24.8457 29.5856 24.9699L29.5848 24.9703L29.584 24.9707L29.5819 24.9717L29.5766 24.9743L29.5612 24.9816C29.5487 24.9875 29.5319 24.9952 29.5108 25.0046C29.4685 25.0235 29.409 25.0491 29.3322 25.0799C29.1787 25.1414 28.9564 25.2236 28.6659 25.3136C28.0847 25.4936 27.2311 25.7048 26.1101 25.8449C23.8664 26.1252 20.5608 26.1197 16.234 25.0198C12.0768 23.9629 8.73936 23.966 6.45441 24.2272C5.3114 24.3579 4.43081 24.5532 3.84202 24.7134C3.54763 24.7935 3.32624 24.8647 3.18154 24.9147C3.10919 24.9397 3.05603 24.9594 3.02251 24.9721C3.00575 24.9785 2.99391 24.9832 2.98703 24.9859L2.98085 24.9884ZM14.5892 11.0317C15.0341 10.8876 15.4587 10.8422 16 10.8422C18.716 10.8422 20.8967 13.1076 20.8967 15.8751C20.8967 18.3098 19.2089 20.3559 16.9537 20.8128C16.8865 20.8122 16.8205 20.8244 16.7585 20.8481C16.5115 20.8875 16.2581 20.908 16 20.908C13.284 20.908 11.1033 18.6426 11.1033 15.8751C11.1033 15.1088 11.2696 14.3837 11.5669 13.7346C11.7009 13.442 11.5843 13.0903 11.3065 12.9492C11.0287 12.808 10.6949 12.9308 10.5609 13.2234C10.1925 14.028 9.98645 14.9273 9.98645 15.8751C9.98645 19.3166 12.6904 22.0845 16 22.0845C16.3103 22.0845 16.6152 22.0601 16.9131 22.0132C20.579 23.3812 24.7454 22.7469 26.5879 22.1983C26.8283 22.1267 26.9944 21.8955 26.9944 21.6322V11.0034C26.9944 10.8127 26.9066 10.6338 26.7588 10.5235C26.6111 10.4132 26.4218 10.3852 26.2509 10.4484C25.0318 10.8994 24.0058 10.8419 23.0912 10.7907L23.0911 10.7907C22.7831 10.7735 22.5202 11.0225 22.5038 11.3469C22.4875 11.6713 22.7239 11.9483 23.0319 11.9656L23.066 11.9675C23.8186 12.0097 24.77 12.063 25.8775 11.7878V21.1777C24.3014 21.577 21.5265 21.9325 18.8333 21.353C20.7228 20.3091 22.0136 18.2528 22.0136 15.8751C22.0136 12.4336 19.3096 9.66568 16 9.66568C15.3816 9.66568 14.829 9.71884 14.2301 9.91731C11.0823 9.10636 7.83738 8.71839 5.3337 9.59741C5.10567 9.67747 4.95185 9.90226 4.95184 10.1554V20.6597C4.95184 20.8673 5.05571 21.0595 5.22514 21.1655C5.39176 21.2697 5.59753 21.2754 5.76887 21.1811L5.77792 21.1767C5.7916 21.1702 5.81944 21.1577 5.86304 21.141C5.95026 21.1076 6.10069 21.0575 6.32729 21.0054C6.78081 20.9013 7.53806 20.7899 8.7014 20.7899C9.00982 20.7899 9.25985 20.5266 9.25985 20.2017C9.25985 19.8768 9.00982 19.6135 8.7014 19.6135C7.47139 19.6135 6.63309 19.7311 6.08939 19.856L6.06874 19.8607V10.5926C8.2611 9.96963 11.1528 10.3191 14.1504 11.1085C14.3066 11.1496 14.4639 11.1171 14.5892 11.0317ZM16.5984 12.6956V12.5024C16.5984 12.1543 16.3305 11.8721 16.0001 11.8721C15.6696 11.8721 15.4017 12.1543 15.4017 12.5024V12.6956C15.2604 12.7312 15.1107 12.7839 14.9637 12.8616C14.4963 13.1087 14.1017 13.5869 14.0381 14.3692C14.0127 14.6824 14.0516 14.9783 14.1713 15.245C14.2913 15.5122 14.473 15.7068 14.6682 15.8489C15.0142 16.101 15.4608 16.2225 15.7865 16.3111L15.8239 16.3213C16.2097 16.4265 16.4672 16.5023 16.6424 16.6213C16.7168 16.6719 16.7551 16.7176 16.7775 16.7591C16.7979 16.7967 16.822 16.8615 16.8245 16.9793C16.8103 17.1601 16.7642 17.2683 16.7212 17.3351C16.6755 17.4062 16.6135 17.4611 16.5344 17.5046C16.3609 17.6003 16.1478 17.6182 16.0365 17.6182C15.6538 17.6182 15.4271 17.4737 15.2949 17.3492C15.2248 17.2831 15.1767 17.218 15.1478 17.1726C15.1335 17.1502 15.1245 17.1336 15.1204 17.1256L15.1186 17.122C14.9804 16.8115 14.6308 16.6738 14.3325 16.8144C14.0308 16.9566 13.8958 17.3294 14.0307 17.6471L14.0313 17.6484L14.0319 17.6498L14.0332 17.6528L14.0363 17.6599L14.0444 17.6777C14.0507 17.6912 14.0589 17.708 14.069 17.7275C14.0891 17.7665 14.1172 17.817 14.1542 17.8752C14.2279 17.9908 14.3395 18.1403 14.4974 18.289C14.715 18.4938 15.0134 18.6896 15.4017 18.796V18.9979C15.4017 19.346 15.6696 19.6282 16.0001 19.6282C16.3305 19.6282 16.5984 19.346 16.5984 18.9979V18.8109C16.7534 18.7727 16.9224 18.7134 17.0892 18.6215C17.5601 18.362 17.9688 17.8627 18.0201 17.0406C18.0209 17.0269 18.0214 17.0131 18.0214 16.9993C18.0214 16.681 17.9553 16.3899 17.8169 16.1344C17.6794 15.8806 17.4896 15.697 17.2911 15.5621C16.9381 15.3222 16.4974 15.2025 16.1715 15.1139L16.1239 15.101C15.7368 14.9954 15.4984 14.9212 15.3487 14.8121C15.2894 14.7689 15.2657 14.7341 15.2531 14.7061C15.2403 14.6776 15.2194 14.6124 15.2305 14.4767C15.2449 14.2989 15.2902 14.1972 15.3301 14.1372C15.3709 14.0758 15.4263 14.0274 15.5004 13.9882C15.6652 13.9011 15.8772 13.8821 16.0365 13.8821C16.1482 13.8821 16.3278 13.9079 16.508 13.9836C16.6856 14.0583 16.8344 14.1685 16.9336 14.3171C17.1237 14.6018 17.4969 14.6703 17.7672 14.47C18.0375 14.2698 18.1025 13.8767 17.9124 13.592C17.56 13.0641 17.0409 12.8071 16.5984 12.6956Z" fill="currentColor"/>
</svg>
