<svg width="32" height="32" viewBox="0 0 32 32" fill="none" xmlns="http://www.w3.org/2000/svg">
<path fill-rule="evenodd" clip-rule="evenodd" d="M16.3 4C15.7478 4 15.3 4.44772 15.3 5V18.81L9.455 13.7443C9.03764 13.3826 8.40608 13.4277 8.04438 13.8451C7.68267 14.2624 7.72778 14.894 8.14513 15.2557L15.2384 21.4032C15.3161 21.4705 15.3986 21.5291 15.4846 21.579C15.6659 21.8338 15.9636 22 16.3 22C16.6488 22 16.9559 21.8214 17.1349 21.5507C17.2192 21.4979 17.2996 21.4365 17.375 21.3665L23.9805 15.2328C24.3852 14.857 24.4087 14.2243 24.0329 13.8196C23.6571 13.4149 23.0243 13.3914 22.6196 13.7672L17.3 18.7068V5C17.3 4.44772 16.8523 4 16.3 4ZM6 21C6 20.4477 5.55228 20 5 20C4.44772 20 4 20.4477 4 21V26C4 27.1046 4.89543 28 6 28H26C27.1046 28 28 27.1046 28 26V21C28 20.4477 27.5523 20 27 20C26.4477 20 26 20.4477 26 21V26H6V21Z" fill="currentColor"/>
</svg>
