<svg width="32" height="32" viewBox="0 0 32 32" fill="none" xmlns="http://www.w3.org/2000/svg">
<path fill-rule="evenodd" clip-rule="evenodd" d="M4 5.6C4 4.71634 4.71634 4 5.6 4H16C16.5523 4 17 4.44772 17 5C17 5.55228 16.5523 6 16 6H6V26H16C16.5523 26 17 26.4477 17 27C17 27.5523 16.5523 28 16 28H5.6C4.71634 28 4 27.2837 4 26.4V5.6ZM19.8451 7.74431C20.2624 7.3826 20.894 7.42771 21.2557 7.84507L27.4032 14.9383C27.4704 15.0159 27.5289 15.0984 27.5788 15.1844C27.8337 15.3657 28 15.6634 28 16C28 16.3489 27.8213 16.6561 27.5505 16.835C27.4977 16.9193 27.4364 16.9997 27.3665 17.0749L21.2328 23.6805C20.857 24.0852 20.2243 24.1086 19.8195 23.7328C19.4148 23.357 19.3914 22.7243 19.7672 22.3195L24.7068 17H11C10.4477 17 10 16.5523 10 16C10 15.4477 10.4477 15 11 15H24.81L19.7443 9.15493C19.3826 8.73758 19.4277 8.10602 19.8451 7.74431Z" fill="currentColor"/>
</svg>
