<svg width="32" height="32" viewBox="0 0 32 32" fill="none" xmlns="http://www.w3.org/2000/svg">
<path fill-rule="evenodd" clip-rule="evenodd" d="M11.2082 22.0504C8.87254 21.0312 6.4308 19.0956 4.0402 15.8223C5.90394 13.1021 9.48301 10.0673 13.7449 9.22734C17.9128 8.40594 22.9602 9.64005 27.959 15.8977C25.9751 18.7437 22.2622 21.9014 17.9635 22.7685C15.828 23.1993 13.5408 23.0684 11.2082 22.0504ZM29.5706 14.6819C24.179 7.92076 18.3954 6.27121 13.347 7.26617C8.40969 8.23922 4.39928 11.6997 2.32602 14.7504C1.85188 15.4481 1.91718 16.3379 2.37773 16.9696C4.93248 20.4737 7.64388 22.6823 10.3865 23.8792C13.1368 25.0794 15.8572 25.2349 18.3705 24.7279C23.3489 23.7236 27.483 20.1352 29.6637 16.9841C30.1645 16.2604 30.0832 15.3247 29.5706 14.6819ZM19.0543 16.0004C19.0543 17.6573 17.6915 19.0004 16.0102 19.0004C14.329 19.0004 12.9661 17.6573 12.9661 16.0004C12.9661 14.3436 14.329 13.0004 16.0102 13.0004C17.6915 13.0004 19.0543 14.3436 19.0543 16.0004ZM21.0838 16.0004C21.0838 18.7619 18.8123 21.0004 16.0102 21.0004C13.2082 21.0004 10.9367 18.7619 10.9367 16.0004C10.9367 13.239 13.2082 11.0004 16.0102 11.0004C18.8123 11.0004 21.0838 13.239 21.0838 16.0004Z" fill="currentColor"/>
</svg>
