<svg width="32" height="32" viewBox="0 0 32 32" fill="none" xmlns="http://www.w3.org/2000/svg">
<path fill-rule="evenodd" clip-rule="evenodd" d="M3.79061 12.4134C3.45236 11.9478 2.82423 11.8627 2.38765 12.2235C1.95106 12.5843 1.87135 13.2543 2.2096 13.72C2.91671 14.6935 3.82053 15.7354 4.89126 16.7322L2.18041 20.8699C1.86405 21.3528 1.97457 22.0178 2.42727 22.3552C2.87996 22.6927 3.50341 22.5748 3.81977 22.0919L6.46128 18.0601C7.49712 18.8533 8.644 19.5763 9.88354 20.1592L7.91097 24.6164C7.67521 25.1491 7.88895 25.7848 8.38838 26.0363C8.88782 26.2878 9.48381 26.0598 9.71958 25.5271L11.765 20.9053C12.2401 21.0592 12.726 21.1907 13.2218 21.2966C13.8042 21.421 14.3975 21.5095 15.0001 21.5578V26.9333C15.0001 27.5224 15.4478 28 16.0001 28C16.5524 28 17.0001 27.5224 17.0001 26.9333V21.5669C18.1193 21.487 19.2636 21.2615 20.4245 20.8655L22.0735 25.201C22.2811 25.7469 22.8643 26.0099 23.376 25.7884C23.8878 25.567 24.1344 24.9449 23.9268 24.399L22.2866 20.0865C23.2725 19.5966 24.2669 18.9776 25.2647 18.2146L28.2108 22.2549C28.5498 22.7199 29.1781 22.8037 29.6141 22.442C30.05 22.0803 30.1285 21.4102 29.7895 20.9452L26.8356 16.8942C27.81 15.9996 28.785 14.9611 29.7561 13.765C30.1176 13.3196 30.0722 12.646 29.6547 12.2604C29.2372 11.8747 28.6057 11.9231 28.2441 12.3685C22.9538 18.8853 17.8255 20.1043 13.6145 19.2048C9.30557 18.2844 5.7413 15.0991 3.79061 12.4134Z" fill="currentColor"/>
</svg>
