<svg width="32" height="32" viewBox="0 0 32 32" fill="none" xmlns="http://www.w3.org/2000/svg">
<path fill-rule="evenodd" clip-rule="evenodd" d="M8.14721 8.05128C9.39038 6.69804 11.6896 5.05265 14.4898 4.57463C17.2602 4.1017 20.5565 4.76299 23.873 8.07229C24.1351 8.33384 24.5335 8.30355 24.7629 8.00464C24.9922 7.70574 24.9656 7.2514 24.7035 6.98986C21.1012 3.39531 17.4305 2.61829 14.3031 3.15217C11.2054 3.68096 8.67581 5.4875 7.27635 7.01087C7.02441 7.28512 7.01513 7.74033 7.25561 8.02763C7.4961 8.31493 7.89528 8.32552 8.14721 8.05128ZM7.16274 13.2594C8.3372 11.1548 11.076 8.60778 14.3639 7.87738C17.5838 7.16206 21.4027 8.17238 24.8695 13.3118C25.0818 13.6266 25.4778 13.6855 25.7538 13.4434C26.0299 13.2012 26.0815 12.7497 25.8692 12.4349C22.1288 6.88977 17.8396 5.6399 14.1227 6.46562C10.4736 7.27626 7.44672 10.0715 6.09867 12.4873C5.91168 12.8223 5.9983 13.2668 6.29214 13.4801C6.58597 13.6933 6.97576 13.5945 7.16274 13.2594ZM23.9148 20.253C23.648 11.8029 14.9666 8.30023 10.3803 13.8459C8.37008 16.4266 7.91173 19.0792 8.13153 21.3509C8.35428 23.6529 9.27752 25.5837 10.0433 26.6354C10.2624 26.9363 10.2243 27.3811 9.9583 27.6289C9.69226 27.8767 9.29898 27.8337 9.07989 27.5328C8.18159 26.2991 7.14357 24.1161 6.89087 21.5044C6.63543 18.8645 7.18633 15.8065 9.45027 12.9045L9.45604 12.8971L9.46199 12.8899C14.8619 6.34632 24.8585 10.5879 25.1621 20.2026C25.2107 21.7422 24.8719 22.9479 24.2585 23.7854C23.6431 24.6254 22.7939 25.0342 21.9425 25.052C20.2412 25.0877 18.5656 23.568 18.5656 21.0344C18.5656 18.744 17.3498 17.5451 16.1569 17.3467C15.5485 17.2455 14.9355 17.3987 14.4421 17.805C13.9541 18.2068 13.5411 18.8911 13.3865 19.9405C13.2371 20.9542 13.4741 22.5781 14.3097 24.1126C15.1325 25.6237 16.5177 27.0127 18.6278 27.6093C18.9621 27.7039 19.1654 28.0871 19.0818 28.4652C18.9982 28.8434 18.6594 29.0733 18.3251 28.9788C15.8707 28.2848 14.225 26.6489 13.247 24.8529C12.2817 23.0802 11.9482 21.1146 12.1554 19.7084C12.3574 18.3379 12.925 17.3082 13.7074 16.6639C14.4844 16.0241 15.4315 15.7992 16.3385 15.9501C18.1766 16.2558 19.8136 18.0817 19.8136 21.0344C19.8136 22.7617 20.9016 23.662 21.9193 23.6407C22.4274 23.63 22.9265 23.3911 23.2974 22.8848C23.6701 22.3759 23.9554 21.5366 23.9148 20.253ZM12.8225 15.2937C13.9461 14.2661 16.0283 13.6981 17.8541 14.3324C18.7484 14.6431 19.5738 15.2396 20.201 16.2103C20.8302 17.184 21.2865 18.5761 21.374 20.5205C21.3919 20.9166 21.6955 21.2217 22.0523 21.2019C22.409 21.1821 22.6837 20.8449 22.6659 20.4487C22.5687 18.2894 22.0549 16.6156 21.252 15.373C20.4471 14.1273 19.3785 13.357 18.2403 12.9616C16.0008 12.1836 13.4635 12.8468 12.0002 14.1849C10.6506 15.4191 9.86929 16.8036 9.53211 18.2487C9.19659 19.6868 9.31358 21.1294 9.67636 22.4666C10.3961 25.1198 12.1095 27.4619 13.4557 28.8144C13.7206 29.0805 14.1295 29.0578 14.3692 28.7636C14.6088 28.4695 14.5884 28.0154 14.3235 27.7493C13.0827 26.5027 11.544 24.3717 10.9149 22.0524C10.6032 20.9034 10.5215 19.735 10.7842 18.609C11.0453 17.4901 11.659 16.3576 12.8225 15.2937ZM15.8333 19.3704C16.2015 19.3704 16.4999 19.6648 16.4999 20.028C16.4999 21.2522 16.7657 22.4214 17.4725 23.4057C18.1749 24.3839 19.363 25.2495 21.3419 25.7819C21.6971 25.8774 21.9065 26.2389 21.8096 26.5893C21.7128 26.9397 21.3463 27.1463 20.9911 27.0507C18.7796 26.4558 17.3011 25.4424 16.3845 24.1659C15.4723 22.8955 15.1666 21.4342 15.1666 20.028C15.1666 19.6648 15.4651 19.3704 15.8333 19.3704Z" fill="currentColor"/>
</svg>
