<svg width="32" height="32" viewBox="0 0 32 32" fill="none" xmlns="http://www.w3.org/2000/svg">
<path fill-rule="evenodd" clip-rule="evenodd" d="M13.7964 28.9996H18.2032V29C19.2319 29 20.1015 28.2859 20.2704 27.3025L20.5081 25.9208C20.5859 25.4699 20.8645 25.0803 21.2728 24.8518C21.6814 24.6233 22.1687 24.584 22.6103 24.7444L23.9636 25.2357C24.9267 25.5853 25.9994 25.2124 26.5138 24.349L28.7173 20.6498C29.2317 19.7864 29.0285 18.6999 28.2344 18.0661L27.1185 17.1757C26.7542 16.8851 26.5456 16.4566 26.5456 15.9996C26.5456 15.5426 26.7546 15.1141 27.1185 14.8235L28.2344 13.9331C29.0285 13.2994 29.2317 12.2128 28.7173 11.3494L26.5138 7.6502C25.999 6.78643 24.9267 6.41396 23.9636 6.76358L22.6099 7.25488C22.1687 7.41484 21.681 7.37599 21.2728 7.14748C20.8641 6.91897 20.5855 6.52974 20.5081 6.07881L20.2704 4.69708C20.1011 3.71372 19.2319 3 18.2032 3H13.7964C12.7677 3 11.8985 3.71372 11.7292 4.6967L11.4915 6.07881C11.4141 6.52936 11.1355 6.91897 10.7272 7.14748C10.3189 7.37599 9.83171 7.41522 9.39005 7.25488L8.03639 6.76358C7.07331 6.41396 6.00059 6.78681 5.48624 7.6502L3.28266 11.3494C2.76831 12.2128 2.97146 13.2994 3.76558 13.9335L4.88151 14.8239C5.24577 15.1141 5.45441 15.543 5.45441 16C5.45441 16.457 5.24537 16.8855 4.88151 17.1761L3.76558 18.0665C2.97146 18.7002 2.76831 19.7868 3.28266 20.6502L5.48663 24.349C6.00099 25.2128 7.0737 25.5853 8.03678 25.2357L9.39005 24.7444C9.83131 24.584 10.3189 24.6233 10.7272 24.8518C11.1355 25.0803 11.4141 25.4699 11.4915 25.9208L11.7292 27.3025C11.8985 28.2859 12.7677 28.9996 13.7964 28.9996ZM11.7752 23.0926C11.2093 22.7757 10.5783 22.615 9.9433 22.615C9.5095 22.615 9.07334 22.69 8.65487 22.842L7.30121 23.3333L5.09763 19.6341L6.21356 18.7437C7.0627 18.0657 7.54994 17.0656 7.54994 15.9992C7.54994 14.9329 7.06309 13.9327 6.21356 13.2548L5.09763 12.3644L7.30121 8.66517L8.65487 9.15647C9.68514 9.53085 10.8223 9.43945 11.7752 8.90625C12.728 8.37306 13.3783 7.46435 13.5591 6.41243L13.7968 5.0307H18.2036L18.4413 6.41243C18.6224 7.46397 19.2724 8.37306 20.2252 8.90625C21.1781 9.43945 22.3152 9.53047 23.3455 9.15647L24.6992 8.66517L26.9032 12.3644H26.9028L25.7868 13.2548C24.9377 13.9327 24.4505 14.9329 24.4505 15.9992C24.4505 17.0656 24.9373 18.0661 25.7868 18.7437L26.9028 19.6341L24.6992 23.3333L23.3455 22.842C22.3152 22.4676 21.1781 22.559 20.2252 23.0922C19.2724 23.6254 18.6221 24.5345 18.4413 25.5864L18.2036 26.9682H13.7968L13.5591 25.5864C13.3779 24.5349 12.728 23.6258 11.7752 23.0926ZM10.8305 16.1904C10.8305 18.9527 13.1496 21.2005 16 21.2005C18.8503 21.2005 21.1694 18.9531 21.1694 16.1904C21.1694 13.4277 18.8503 11.1799 16 11.1799C13.1496 11.1799 10.8305 13.4281 10.8305 16.1904ZM12.9265 16.19C12.9265 14.5474 14.3053 13.211 16 13.211C17.6947 13.211 19.0735 14.5474 19.0735 16.19C19.0735 17.8327 17.6947 19.1691 16 19.1691C14.3053 19.1691 12.9265 17.8327 12.9265 16.19Z" fill="currentColor"/>
</svg>
