<svg width="32" height="32" viewBox="0 0 32 32" fill="none" xmlns="http://www.w3.org/2000/svg">
<path fill-rule="evenodd" clip-rule="evenodd" d="M11.5 4C10.4389 4 9.58187 4.52704 8.99737 5.23819C8.4208 5.93968 8.07945 6.84835 8.00322 7.74499C7.94205 8.46443 8.04813 9.23304 8.39767 9.90576H5C4.44772 9.90576 4 10.3558 4 10.911V14.9319C4 15.4871 4.44772 15.9372 5 15.9372L5 26.9948C5 27.5499 5.44771 28 6 28H14.7383H17.2665H26C26.5523 28 27 27.5499 27 26.9948V15.9372C27.5523 15.9372 28 15.4871 28 14.9319V10.911C28 10.3558 27.5523 9.90576 27 9.90576H23.3108C23.6024 9.29471 23.6695 8.61455 23.5863 7.9812C23.3713 6.34476 22.037 4.50262 20 4.50262C18.219 4.50262 17.1425 5.50513 16.4695 6.68125C16.289 6.99671 16.1307 7.33785 15.9894 7.6861C15.8112 7.25259 15.6073 6.82048 15.3701 6.41917C14.6159 5.14343 13.4217 4 11.5 4ZM19.0165 15.9372H25.25V26.2408H19.0165V15.9372ZM26.25 14.1278V11.6649H20.5332C20.3613 11.6816 20.1835 11.69 20 11.69C19.9281 11.69 19.8583 11.6813 19.7915 11.6649H19.25V14.1278H26.25ZM19 9.90576H20.444C21.0554 9.83201 21.3908 9.60779 21.5733 9.39223C21.8061 9.11718 21.9165 8.70758 21.8513 8.21146C21.7098 7.13378 20.8751 6.26178 20 6.26178C19.036 6.26178 18.4557 6.7384 17.9864 7.55839C17.5971 8.23887 17.3487 9.03737 17.0874 9.87743C17.0845 9.88687 17.0815 9.89631 17.0786 9.90576H17.5H19ZM14.9182 9.90576C14.6346 9.01994 14.3289 8.1014 13.8657 7.31785C13.2913 6.34617 12.5784 5.75916 11.5 5.75916C11.0612 5.75916 10.6682 5.9672 10.3465 6.35867C10.0168 6.7598 9.79562 7.32128 9.74686 7.8948C9.69791 8.47048 9.82792 8.97015 10.0842 9.30507C10.3186 9.61131 10.7336 9.88063 11.5 9.88063C11.5719 9.88063 11.6417 9.88933 11.7086 9.90576H13H14.5H14.9182ZM6.75 15.9372H12.9883V26.2408H6.75V15.9372ZM12.75 14.1278V11.6649H5.75V14.1278H12.75ZM17.25 11.6649H14.75V26.2408H17.25V11.6649Z" fill="currentColor"/>
</svg>
