<svg width="32" height="32" viewBox="0 0 32 32" fill="none" xmlns="http://www.w3.org/2000/svg">
<path fill-rule="evenodd" clip-rule="evenodd" d="M27.248 6.95812C29.4812 9.9935 29.8325 14.8542 26.8098 17.8965C23.6446 21.0821 19.9305 25.0287 17.9805 27.1168C16.8764 28.2992 15.0402 28.2921 13.9416 27.1092C11.8318 24.8375 7.74256 20.4664 5.15307 17.9019C2.08732 14.8657 2.57914 9.99152 4.85268 6.97119C6.0143 5.428 7.69515 4.2752 9.72864 4.04713C11.6721 3.82915 13.8088 4.46968 15.9751 6.18726C18.2369 4.47145 20.4199 3.82737 22.38 4.03878C24.4352 4.26046 26.108 5.4087 27.248 6.95812ZM22.1865 5.94079C20.7206 5.78268 18.8841 6.26896 16.7814 7.95743C16.2971 8.34634 15.6032 8.33677 15.1291 7.93728C13.1431 6.26385 11.3689 5.78687 9.92973 5.94829C8.48193 6.11068 7.22995 6.93461 6.32048 8.14282C4.45182 10.6253 4.24836 14.3526 6.44041 16.5235C9.0625 19.1203 13.1784 23.5204 15.2838 25.7874C15.6548 26.1869 16.2722 26.1871 16.6419 25.7913C18.5939 23.7009 22.3248 19.7364 25.5117 16.5288C27.7137 14.3126 27.5739 10.5679 25.7677 8.113C24.888 6.91726 23.6541 6.09908 22.1865 5.94079Z" fill="currentColor"/>
</svg>
