<svg width="24" height="24" viewBox="0 0 24 24" fill="none" xmlns="http://www.w3.org/2000/svg">
<path fill-rule="evenodd" clip-rule="evenodd" d="M21 12C21 16.9706 16.9706 21 12 21C7.02944 21 3 16.9706 3 12C3 7.02944 7.02944 3 12 3C16.9706 3 21 7.02944 21 12ZM22.5 12C22.5 17.799 17.799 22.5 12 22.5C6.20101 22.5 1.5 17.799 1.5 12C1.5 6.20101 6.20101 1.5 12 1.5C17.799 1.5 22.5 6.20101 22.5 12ZM8.47534 9.60969C8.49671 9.03315 8.85244 8.27911 9.29699 7.76657C9.74153 7.25402 10.3249 6.88759 10.9734 6.71362C11.6219 6.53965 12.3064 6.56594 12.9402 6.78918C13.5741 7.01242 14.1289 7.42258 14.5345 7.96778C14.94 8.51299 15.1782 9.16876 15.2188 9.85216C15.2594 10.5356 15.1006 11.2159 14.7625 11.8072C14.4244 12.3984 13.9222 12.874 13.3194 13.1738C13.1536 13.2563 12.9834 13.3233 12.8101 13.375L12.7412 15.2332C12.7268 15.623 12.3991 15.9268 12.0093 15.9117C11.6195 15.8966 11.3153 15.5684 11.3297 15.1786L11.4056 13.131C11.4165 12.8363 11.6064 12.5908 11.8669 12.495C11.9656 12.4304 12.0673 12.3847 12.1799 12.3342C12.3437 12.2608 12.5304 12.177 12.764 12.0094C13.1412 11.8218 13.4555 11.5241 13.6671 11.1541C13.8787 10.784 13.978 10.3583 13.9526 9.93056C13.9272 9.50287 13.7782 9.09246 13.5244 8.75125C13.2706 8.41005 12.9233 8.15336 12.5267 8.01365C12.13 7.87393 11.7016 7.85748 11.2958 7.96636C10.8899 8.07523 10.5248 8.30456 10.2466 8.62533C9.98397 8.92809 9.94725 9.20665 9.89619 9.59396L9.88688 9.66424L9.88685 9.66424C9.88405 9.73995 9.86301 9.81421 9.82495 9.88278C9.78689 9.95136 9.73255 10.0129 9.66503 10.0639C9.59751 10.1149 9.51813 10.1544 9.43143 10.18C9.34473 10.2057 9.2524 10.2171 9.15972 10.2135C9.06703 10.2099 8.97581 10.1915 8.89126 10.1592C8.8067 10.1269 8.73047 10.0814 8.66692 10.0253C8.60337 9.96928 8.55374 9.90371 8.52086 9.83239C8.48799 9.76107 8.47251 9.6854 8.47531 9.60968L8.47534 9.60969ZM11.9486 16.4076C12.1353 16.4086 12.3144 16.4839 12.4493 16.619C12.5805 16.7546 12.6543 16.9374 12.6546 17.1284C12.6546 17.3195 12.5808 17.5028 12.4482 17.6398C12.315 17.7743 12.1353 17.8498 11.9477 17.85C11.7847 17.8497 11.6276 17.7916 11.5028 17.6868L11.4941 17.679L11.4884 17.6792L11.4492 17.6387C11.3177 17.503 11.2434 17.3203 11.2421 17.1269C11.244 16.9366 11.3182 16.7546 11.45 16.6181C11.5657 16.5006 11.717 16.428 11.878 16.4113L11.9486 16.4076Z" fill="currentColor"/>
</svg>
