<svg width="32" height="32" viewBox="0 0 32 32" fill="none" xmlns="http://www.w3.org/2000/svg">
<path fill-rule="evenodd" clip-rule="evenodd" d="M15.066 4.3674C15.5963 3.87753 16.4037 3.87753 16.934 4.3674L27.2933 13.9379C28.7419 15.2762 27.8147 17.7338 25.8612 17.7338H24.8166V25.6309C24.8166 26.9393 23.7778 28 22.4965 28H18.5986C17.9323 28 17.3921 27.4484 17.3921 26.7681V21.5244H14.6079V26.7681C14.6079 27.4484 14.0677 28 13.4014 28H9.50355C8.22216 28 7.18338 26.9393 7.18338 25.6309V17.7338H6.13885C4.18532 17.7338 3.25813 15.2762 4.70675 13.9379L15.066 4.3674ZM16 6.06046L5.95205 15.3433C5.7631 15.5179 5.88403 15.8385 6.13885 15.8385H8.01864C8.58245 15.8385 9.03951 16.3052 9.03951 16.8809V25.6309C9.03951 25.8926 9.24727 26.1047 9.50355 26.1047H12.7518V21.3348C12.7518 20.3928 13.4997 19.6291 14.4223 19.6291H17.5777C18.5003 19.6291 19.2482 20.3928 19.2482 21.3348V26.1047H22.4965C22.7527 26.1047 22.9605 25.8926 22.9605 25.6309V16.8809C22.9605 16.3052 23.4175 15.8385 23.9814 15.8385H25.8612C26.116 15.8385 26.2369 15.5179 26.048 15.3433L16 6.06046Z" fill="currentColor"/>
</svg>
