<svg width="32" height="32" viewBox="0 0 32 32" fill="none" xmlns="http://www.w3.org/2000/svg">
<path fill-rule="evenodd" clip-rule="evenodd" d="M6 6V18.5858L11.9393 12.6464C12.5251 12.0606 13.4749 12.0606 14.0607 12.6464L26 24.5858V6H6ZM4 20.9998V21.0002V26.5C4 27.3284 4.67157 28 5.5 28H26.5C26.5942 28 26.6865 27.9913 26.7759 27.9747C27.1002 28.0489 27.4545 27.9597 27.7071 27.7071C27.9598 27.4544 28.049 27.1002 27.9747 26.7758C27.9913 26.6864 28 26.5942 28 26.5V5.5C28 4.67157 27.3284 4 26.5 4H5.5C4.67157 4 4 4.67157 4 5.5V20.9998ZM6 26H24.5858L13 14.4142L6 21.4142V26ZM23 11C23 12.1046 22.1046 13 21 13C19.8954 13 19 12.1046 19 11C19 9.89543 19.8954 9 21 9C22.1046 9 23 9.89543 23 11ZM25 11C25 13.2091 23.2091 15 21 15C18.7909 15 17 13.2091 17 11C17 8.79086 18.7909 7 21 7C23.2091 7 25 8.79086 25 11Z" fill="currentColor"/>
</svg>
