<svg width="20" height="20" viewBox="0 0 20 20" fill="none" xmlns="http://www.w3.org/2000/svg">
<path fill-rule="evenodd" clip-rule="evenodd" d="M1.25 10C1.25 5.16806 5.16806 1.25 10 1.25C14.8325 1.25 18.75 5.16777 18.75 10C18.75 14.8322 14.8325 18.75 10 18.75C5.16806 18.75 1.25 14.8319 1.25 10ZM17.4375 10C17.4375 5.89262 14.1076 2.5625 10 2.5625C5.89294 2.5625 2.5625 5.89294 2.5625 10C2.5625 14.1071 5.89294 17.4375 10 17.4375C14.1076 17.4375 17.4375 14.1074 17.4375 10ZM10.058 7.00001C9.68077 7.00001 9.37501 6.6922 9.37501 6.31251C9.37501 5.96445 9.63194 5.67681 9.96528 5.63128L10.0671 5.62501C10.4442 5.62501 10.75 5.93281 10.75 6.31251C10.75 6.66056 10.4931 6.94821 10.1597 6.99373L10.058 7.00001ZM10.0625 8.125C9.6828 8.125 9.375 8.4328 9.375 8.8125V13.6875C9.375 14.0672 9.6828 14.375 10.0625 14.375C10.4422 14.375 10.75 14.0672 10.75 13.6875V8.8125C10.75 8.4328 10.4422 8.125 10.0625 8.125Z" fill="currentColor"/>
</svg>
