<svg width="32" height="32" viewBox="0 0 32 32" fill="none" xmlns="http://www.w3.org/2000/svg">
<path fill-rule="evenodd" clip-rule="evenodd" d="M17.58 4.38005C16.6023 3.87332 15.3977 3.87332 14.42 4.38005L5.58001 8.96168C4.6023 9.46841 4 10.4049 4 11.4184V20.5816C4 21.5951 4.6023 22.5316 5.58001 23.0383L14.42 27.6199C15.3977 28.1267 16.6023 28.1267 17.58 27.6199L26.42 23.0383C27.3977 22.5316 28 21.5951 28 20.5816V11.4184C28 10.4049 27.3977 9.46841 26.42 8.96168L17.58 4.38005ZM15.4733 6.01785C15.7992 5.84894 16.2008 5.84894 16.5267 6.01785L25.3666 10.5995C25.6925 10.7684 25.8933 11.0805 25.8933 11.4184V20.5816C25.8933 20.9195 25.6925 21.2316 25.3666 21.4005L16.5267 25.9822C16.2008 26.1511 15.7992 26.1511 15.4733 25.9822L6.63336 21.4005C6.30745 21.2316 6.10669 20.9195 6.10669 20.5816V11.4184C6.10669 11.0805 6.30745 10.7684 6.63336 10.5995L15.4733 6.01785ZM14.23 20.79C14.7433 20.9953 15.2846 21.098 15.854 21.098C16.5726 21.098 17.2166 20.944 17.786 20.636C18.3553 20.328 18.8033 19.908 19.13 19.376C19.4566 18.8347 19.62 18.228 19.62 17.556C19.62 16.94 19.4893 16.4033 19.228 15.946C18.9666 15.4887 18.6026 15.1293 18.136 14.868C17.8104 14.6857 17.4462 14.5647 17.0434 14.505L18.9236 12.305C19.0929 12.1069 19.186 11.8548 19.186 11.5942C19.186 10.9899 18.6961 10.5 18.0918 10.5H13.593C13.1484 10.5 12.788 10.8604 12.788 11.305C12.788 11.7496 13.1484 12.11 13.593 12.11H17.044L14.6031 14.8924C14.4446 15.073 14.409 15.3305 14.5124 15.5474L14.5466 15.6191C14.6726 15.8832 14.993 15.9894 15.28 15.932C15.476 15.8947 15.6626 15.876 15.84 15.876C16.2226 15.876 16.554 15.946 16.834 16.086C17.114 16.226 17.3286 16.4267 17.478 16.688C17.6366 16.94 17.716 17.248 17.716 17.612C17.716 17.976 17.6366 18.2933 17.478 18.564C17.3193 18.8253 17.1 19.026 16.82 19.166C16.5493 19.306 16.2273 19.376 15.854 19.376C15.3873 19.376 14.9813 19.2547 14.636 19.012C14.5206 18.9278 14.4151 18.8311 14.3195 18.7219C13.9824 18.3367 13.4746 18.0581 12.9919 18.2285C12.5425 18.3871 12.2722 18.8712 12.4995 19.2901C12.6172 19.5071 12.76 19.7084 12.928 19.894C13.292 20.2767 13.726 20.5753 14.23 20.79Z" fill="#433AD4"/>
</svg>
