<svg width="32" height="32" viewBox="0 0 32 32" fill="none" xmlns="http://www.w3.org/2000/svg">
<path fill-rule="evenodd" clip-rule="evenodd" d="M17.58 4.38007C16.6023 3.87333 15.3977 3.87333 14.42 4.38007L5.58001 8.96169C4.6023 9.46843 4 10.4049 4 11.4184V20.5816C4 21.5951 4.6023 22.5316 5.58001 23.0383L14.42 27.62C15.3977 28.1267 16.6023 28.1267 17.58 27.62L26.42 23.0383C27.3977 22.5316 28 21.5951 28 20.5816V11.4184C28 10.4049 27.3977 9.46843 26.42 8.96169L17.58 4.38007ZM15.4733 6.01786C15.7992 5.84895 16.2008 5.84895 16.5267 6.01786L25.3666 10.5995C25.6925 10.7684 25.8933 11.0806 25.8933 11.4184V20.5816C25.8933 20.9195 25.6925 21.2316 25.3666 21.4005L16.5267 25.9822C16.2008 26.1511 15.7992 26.1511 15.4733 25.9822L6.63336 21.4005C6.30745 21.2316 6.10669 20.9195 6.10669 20.5816V11.4184C6.10669 11.0806 6.30745 10.7684 6.63336 10.5995L15.4733 6.01786ZM14.236 20.65C14.7867 20.9487 15.4167 21.098 16.126 21.098C16.826 21.098 17.4467 20.9487 17.988 20.65C18.5387 20.342 18.968 19.9267 19.276 19.404C19.584 18.872 19.738 18.27 19.738 17.598C19.738 16.9727 19.5933 16.4127 19.304 15.918C19.024 15.414 18.6367 15.0173 18.142 14.728C17.6473 14.4387 17.0827 14.294 16.448 14.294C16.3048 14.294 16.1655 14.3054 16.0299 14.3282L17.8869 11.9427C18.3439 11.3557 17.9256 10.5 17.1817 10.5C16.9044 10.5 16.6429 10.6287 16.4737 10.8483L13.83 14.28C13.466 14.7467 13.186 15.1713 12.99 15.554C12.8033 15.9367 12.6727 16.296 12.598 16.632C12.5327 16.968 12.5 17.304 12.5 17.64C12.5 18.3027 12.654 18.8953 12.962 19.418C13.27 19.9313 13.6947 20.342 14.236 20.65ZM16.98 19.166C16.728 19.306 16.4433 19.376 16.126 19.376C15.8087 19.376 15.5193 19.306 15.258 19.166C14.9967 19.0167 14.7867 18.8067 14.628 18.536C14.4787 18.2653 14.404 17.962 14.404 17.626C14.404 17.2713 14.4787 16.968 14.628 16.716C14.7867 16.4547 14.9967 16.2493 15.258 16.1C15.5193 15.9507 15.8087 15.876 16.126 15.876C16.4527 15.876 16.742 15.9507 16.994 16.1C17.246 16.2493 17.4467 16.4547 17.596 16.716C17.7547 16.968 17.834 17.2713 17.834 17.626C17.834 17.962 17.7547 18.2653 17.596 18.536C17.4467 18.8067 17.2413 19.0167 16.98 19.166Z" fill="#433AD4"/>
</svg>
