<svg width="32" height="32" viewBox="0 0 32 32" fill="none" xmlns="http://www.w3.org/2000/svg">
<path fill-rule="evenodd" clip-rule="evenodd" d="M17.58 4.38007C16.6023 3.87333 15.3977 3.87333 14.42 4.38007L5.58001 8.96169C4.6023 9.46843 4 10.4049 4 11.4184V20.5816C4 21.5951 4.6023 22.5316 5.58001 23.0383L14.42 27.62C15.3977 28.1267 16.6023 28.1267 17.58 27.62L26.42 23.0383C27.3977 22.5316 28 21.5951 28 20.5816V11.4184C28 10.4049 27.3977 9.46843 26.42 8.96169L17.58 4.38007ZM15.4733 6.01786C15.7992 5.84895 16.2008 5.84895 16.5267 6.01786L25.3666 10.5995C25.6925 10.7684 25.8933 11.0806 25.8933 11.4184V20.5816C25.8933 20.9195 25.6925 21.2316 25.3666 21.4005L16.5267 25.9822C16.2008 26.1511 15.7992 26.1511 15.4733 25.9822L6.63336 21.4005C6.30745 21.2316 6.10669 20.9195 6.10669 20.5816V11.4184C6.10669 11.0806 6.30745 10.7684 6.63336 10.5995L15.4733 6.01786ZM14.516 20.79C15.02 20.9953 15.5473 21.098 16.098 21.098C16.8073 21.098 17.442 20.944 18.002 20.636C18.562 20.328 19.0053 19.9033 19.332 19.362C19.6587 18.8207 19.822 18.214 19.822 17.542C19.822 16.87 19.682 16.2773 19.402 15.764C19.122 15.2507 18.7253 14.8447 18.212 14.546C17.708 14.2473 17.1107 14.098 16.42 14.098C15.8787 14.098 15.4167 14.1867 15.034 14.364C14.9471 14.4053 14.8633 14.4521 14.7825 14.5045L15.1048 12.11H18.625C19.0696 12.11 19.43 11.7496 19.43 11.305C19.43 10.8604 19.0696 10.5 18.625 10.5H15.4812C14.4856 10.5 13.6416 11.2322 13.5012 12.2178L13.0387 15.4634C12.9716 15.9336 13.2771 16.3764 13.7405 16.4808C14.1663 16.5767 14.5845 16.3223 14.9375 16.0654C14.9897 16.0274 15.0452 15.9923 15.104 15.96C15.4027 15.8013 15.734 15.722 16.098 15.722C16.4527 15.722 16.7653 15.8013 17.036 15.96C17.3067 16.1093 17.5167 16.3193 17.666 16.59C17.8247 16.8607 17.904 17.178 17.904 17.542C17.904 17.906 17.8293 18.228 17.68 18.508C17.5307 18.7787 17.316 18.9933 17.036 19.152C16.7653 19.3013 16.4527 19.376 16.098 19.376C15.6687 19.376 15.2767 19.264 14.922 19.04C14.8074 18.9646 14.703 18.8765 14.6088 18.7757C14.2609 18.4034 13.7576 18.1164 13.2776 18.2872C12.8365 18.4443 12.5725 18.9211 12.7992 19.3308C12.917 19.5436 13.0599 19.7407 13.228 19.922C13.592 20.2953 14.0213 20.5847 14.516 20.79Z" fill="#433AD4"/>
</svg>
