<svg width="32" height="32" viewBox="0 0 32 32" fill="none" xmlns="http://www.w3.org/2000/svg">
<path fill-rule="evenodd" clip-rule="evenodd" d="M17.58 4.38005C16.6023 3.87332 15.3977 3.87332 14.42 4.38005L5.58001 8.96168C4.6023 9.46841 4 10.4049 4 11.4184V20.5816C4 21.5951 4.6023 22.5316 5.58001 23.0383L14.42 27.6199C15.3977 28.1267 16.6023 28.1267 17.58 27.6199L26.42 23.0383C27.3977 22.5316 28 21.5951 28 20.5816V11.4184C28 10.4049 27.3977 9.46841 26.42 8.96168L17.58 4.38005ZM15.4733 6.01785C15.7992 5.84894 16.2008 5.84894 16.5267 6.01785L25.3666 10.5995C25.6925 10.7684 25.8933 11.0805 25.8933 11.4184V20.5816C25.8933 20.9195 25.6925 21.2316 25.3666 21.4005L16.5267 25.9822C16.2008 26.1511 15.7992 26.1511 15.4733 25.9822L6.63336 21.4005C6.30745 21.2316 6.10669 20.9195 6.10669 20.5816V11.4184C6.10669 11.0805 6.30745 10.7684 6.63336 10.5995L15.4733 6.01785ZM16.288 19.992C16.288 20.51 16.708 20.93 17.226 20.93C17.744 20.93 18.164 20.51 18.164 19.992V18.634H18.892C19.3327 18.634 19.69 18.2767 19.69 17.836C19.69 17.3953 19.3327 17.038 18.892 17.038H18.164V11.8129C18.164 11.0878 17.5762 10.5 16.8511 10.5C16.4274 10.5 16.0297 10.7045 15.7833 11.0491L11.7255 16.7227C11.5788 16.9278 11.5 17.1735 11.5 17.4256C11.5 18.093 12.041 18.634 12.7084 18.634H16.288V19.992ZM13.3774 17.038H16.288V12.856L13.3774 17.038Z" fill="#433AD4"/>
</svg>
