<svg width="18" height="18" viewBox="0 0 32 32" fill="none" xmlns="http://www.w3.org/2000/svg">
<path fill-rule="evenodd" clip-rule="evenodd" d="M17.58 4.38007C16.6023 3.87333 15.3977 3.87333 14.42 4.38007L5.58001 8.96169C4.6023 9.46843 4 10.4049 4 11.4184V20.5816C4 21.5951 4.6023 22.5316 5.58001 23.0383L14.42 27.62C15.3977 28.1267 16.6023 28.1267 17.58 27.62L26.42 23.0383C27.3977 22.5316 28 21.5951 28 20.5816V11.4184C28 10.4049 27.3977 9.46843 26.42 8.96169L17.58 4.38007ZM15.4733 6.01786C15.7992 5.84895 16.2008 5.84895 16.5267 6.01786L25.3666 10.5995C25.6925 10.7684 25.8933 11.0806 25.8933 11.4184V20.5816C25.8933 20.9195 25.6925 21.2316 25.3666 21.4005L16.5267 25.9822C16.2008 26.1511 15.7992 26.1511 15.4733 25.9822L6.63336 21.4005C6.30745 21.2316 6.10669 20.9195 6.10669 20.5816V11.4184C6.10669 11.0806 6.30745 10.7684 6.63336 10.5995L15.4733 6.01786ZM12.57 20.0691C12.57 20.6374 13.0307 21.098 13.5989 21.098H18.765C19.2096 21.098 19.57 20.7376 19.57 20.293C19.57 19.8484 19.2096 19.488 18.765 19.488H15.048L17.498 16.912C17.946 16.4453 18.31 16.0253 18.59 15.652C18.87 15.2693 19.08 14.896 19.22 14.532C19.36 14.168 19.43 13.7993 19.43 13.426C19.43 12.838 19.2853 12.3247 18.996 11.886C18.716 11.4473 18.3193 11.1067 17.806 10.864C17.302 10.6213 16.714 10.5 16.042 10.5C15.482 10.5 14.95 10.612 14.446 10.836C13.9513 11.0507 13.5313 11.3633 13.186 11.774C13.0158 11.9718 12.874 12.1877 12.7605 12.4218C12.5561 12.8431 12.8403 13.3078 13.2876 13.4469C13.7715 13.5974 14.2602 13.2993 14.5751 12.9022C14.6663 12.7872 14.768 12.6865 14.88 12.6C15.2067 12.3387 15.594 12.208 16.042 12.208C16.4713 12.208 16.8213 12.334 17.092 12.586C17.372 12.838 17.512 13.1833 17.512 13.622C17.512 13.8833 17.4513 14.14 17.33 14.392C17.2087 14.644 16.994 14.9473 16.686 15.302C16.3873 15.6473 15.958 16.114 15.398 16.702L12.8557 19.3576C12.6723 19.5491 12.57 19.804 12.57 20.0691Z" fill="#433AD4"/>
</svg>
