<svg width="18" height="18" viewBox="0 0 32 32" fill="none" xmlns="http://www.w3.org/2000/svg">
<path fill-rule="evenodd" clip-rule="evenodd" d="M17.58 4.38005C16.6023 3.87332 15.3977 3.87332 14.42 4.38005L5.58001 8.96168C4.6023 9.46841 4 10.4049 4 11.4184V20.5816C4 21.5951 4.6023 22.5316 5.58001 23.0383L14.42 27.6199C15.3977 28.1267 16.6023 28.1267 17.58 27.6199L26.42 23.0383C27.3977 22.5316 28 21.5951 28 20.5816V11.4184C28 10.4049 27.3977 9.46841 26.42 8.96168L17.58 4.38005ZM15.4733 6.01785C15.7992 5.84894 16.2008 5.84894 16.5267 6.01785L25.3666 10.5995C25.6925 10.7684 25.8933 11.0805 25.8933 11.4184V20.5816C25.8933 20.9195 25.6925 21.2316 25.3666 21.4005L16.5267 25.9822C16.2008 26.1511 15.7992 26.1511 15.4733 25.9822L6.63336 21.4005C6.30745 21.2316 6.10669 20.9195 6.10669 20.5816V11.4184C6.10669 11.0805 6.30745 10.7684 6.63336 10.5995L15.4733 6.01785ZM15.516 19.978C15.516 20.5038 15.9422 20.93 16.468 20.93C16.9938 20.93 17.42 20.5038 17.42 19.978V12.46C17.42 11.3775 16.5425 10.5 15.46 10.5H14.312C13.8635 10.5 13.5 10.8635 13.5 11.312C13.5 11.7605 13.8635 12.124 14.312 12.124H15.516V19.978Z" fill="#433AD4"/>
</svg>
