<svg width="32" height="32" viewBox="0 0 32 32" fill="none" xmlns="http://www.w3.org/2000/svg">
<path fill-rule="evenodd" clip-rule="evenodd" d="M16 3.64706C13.6658 3.64706 11.4846 4.29373 9.62357 5.41771L12.851 9.28873C13.8074 8.83929 14.8753 8.58824 16 8.58824C17.0693 8.58824 18.0872 8.81515 19.0068 9.22372L22.4314 5.45108C20.5584 4.30659 18.3573 3.64706 16 3.64706ZM16 10.2353C16.8229 10.2353 17.6042 10.4073 18.311 10.717C18.3219 11.1454 18.4879 11.5702 18.8078 11.9003L20.4652 13.6109C20.7398 13.8942 21.0884 14.067 21.4533 14.1253C21.655 14.7123 21.7647 15.3427 21.7647 16C21.7647 16.8104 21.5979 17.5799 21.2975 18.2776C20.9582 18.325 20.631 18.4712 20.3617 18.7136L18.9283 20.0036C18.5553 20.3393 18.3574 20.8002 18.3448 21.2681C17.629 21.5872 16.8359 21.7647 16 21.7647C15.2337 21.7647 14.5036 21.6156 13.8362 21.3451C13.8791 20.8588 13.7204 20.3595 13.3642 19.9805L12.0087 18.5385C11.6307 18.1364 11.104 17.9479 10.5869 17.9876C10.3596 17.3688 10.2353 16.6996 10.2353 16C10.2353 15.3628 10.3384 14.7508 10.5285 14.1792C11.0129 14.1882 11.4958 13.9982 11.8481 13.6234L13.2246 12.159C13.5997 11.7599 13.7558 11.2275 13.6881 10.7174C14.3952 10.4074 15.1767 10.2353 16 10.2353ZM19.012 22.774C18.0911 23.184 17.0714 23.4118 16 23.4118C14.9477 23.4118 13.945 23.192 13.0367 22.7954L9.79483 26.6838C11.6178 27.7451 13.737 28.3529 16 28.3529C18.2326 28.3529 20.3251 27.7614 22.1314 26.7264L19.012 22.774ZM23.3107 27.9418C21.1825 29.2473 18.6781 30 16 30C13.2452 30 10.6742 29.2035 8.5074 27.8283C7.8764 28.0435 7.1441 27.8931 6.64956 27.367L4.22127 24.7836C3.74316 24.275 3.62928 23.5662 3.85158 22.9626C2.67351 20.9113 2 18.5332 2 16C2 13.658 2.5757 11.4485 3.5936 9.50721C3.31242 8.88447 3.40396 8.11987 3.90933 7.57657L6.50728 4.78362C6.98657 4.26835 7.69321 4.10897 8.31363 4.29696C10.5202 2.84496 13.1626 2 16 2C18.8773 2 21.5542 2.86888 23.7794 4.35872L23.7778 4.36113C24.3524 4.19711 24.9968 4.32882 25.4667 4.76649L27.9919 7.11851C28.621 7.70442 28.7172 8.62619 28.3043 9.31621C29.3857 11.303 30 13.5808 30 16C30 18.4506 29.3697 20.7562 28.2619 22.7611C28.6924 23.4377 28.6244 24.3611 28.0114 24.9656L25.3267 27.6131C24.7733 28.1587 23.9603 28.2595 23.3107 27.9418ZM26.9683 21.6885C27.8529 19.9866 28.3529 18.0526 28.3529 16C28.3529 14.005 27.8806 12.1222 27.042 10.4555L23.0197 13.6158C23.274 14.3647 23.4118 15.1669 23.4118 16C23.4118 16.9888 23.2177 17.9341 22.865 18.7984L26.9683 21.6885ZM5.04921 21.722L9.11166 18.7406C8.77378 17.892 8.58824 16.9669 8.58824 16C8.58824 15.1242 8.74047 14.2826 9.02027 13.5012L4.85116 10.6733C4.07936 12.2855 3.64706 14.0914 3.64706 16C3.64706 18.0661 4.15368 20.012 5.04921 21.722ZM7.88977 5.9102C7.84438 5.85577 7.76153 5.85352 7.71326 5.90541L5.11531 8.69836C5.06618 8.75117 5.07572 8.83536 5.13541 8.87585L10.4962 12.5121C10.5441 12.5446 10.6084 12.5374 10.648 12.4953L12.0245 11.0309C12.0652 10.9876 12.0672 10.9207 12.0291 10.875L7.88977 5.9102ZM7.84967 26.2389C7.89804 26.2903 7.98053 26.2879 8.02575 26.2337L12.1687 21.2645C12.2068 21.2188 12.2048 21.1519 12.1641 21.1086L10.8086 19.6665C10.7679 19.6232 10.7012 19.6171 10.6533 19.6523L5.43749 23.4801C5.38055 23.5219 5.373 23.6041 5.42137 23.6555L7.84967 26.2389ZM26.8619 8.50236C26.9187 8.45775 26.9222 8.37298 26.8694 8.32377L24.3441 5.97175C24.2961 5.92706 24.2209 5.93022 24.1768 5.97876L19.9881 10.5932C19.9464 10.6392 19.9475 10.7096 19.9907 10.7542L21.6481 12.4647C21.69 12.508 21.7579 12.5126 21.8053 12.4754L26.8619 8.50236ZM26.855 23.7928C26.9072 23.7413 26.9001 23.6551 26.8401 23.6129L21.61 19.9291C21.5651 19.8975 21.5044 19.9011 21.4636 19.9378L20.0302 21.2279C19.9841 21.2694 19.9781 21.3395 20.0165 21.3882L23.9952 26.4294C24.0387 26.4844 24.1203 26.4895 24.1702 26.4403L26.855 23.7928Z" fill="currentColor"/>
</svg>
