<svg width="32" height="32" viewBox="0 0 32 32" fill="none" xmlns="http://www.w3.org/2000/svg">
<path fill-rule="evenodd" clip-rule="evenodd" d="M5.41421 8H11.5858L17.5858 14H13H11.4142L5.41421 8ZM25 14H20.4142L14.4142 8H20.5858L26.5858 14H25ZM20.9998 6H12.0002H11.9998H3C2.86475 6 2.73577 6.02685 2.6181 6.07551C2.49982 6.12432 2.38901 6.19678 2.29289 6.29289C2.10188 6.4839 2.0043 6.73296 2.00014 6.98327L2 7.00198V15C2 15.5523 2.44771 16 3 16H7L7 24C6.44771 24 6 24.4477 6 25C6 25.5523 6.44771 26 7 26H13C13.5523 26 14 25.5523 14 25C14 24.4477 13.5523 24 13 24L13 16H19L19 24C18.4477 24 18 24.4477 18 25C18 25.5523 18.4477 26 19 26H25C25.5523 26 26 25.5523 26 25C26 24.4477 25.5523 24 25 24L25 16H29C29.2706 16 29.5161 15.8925 29.6961 15.718C29.7035 15.7108 29.7108 15.7035 29.718 15.6961C29.8075 15.6038 29.8757 15.4985 29.9226 15.3864C29.9725 15.2675 30 15.137 30 15V7C30 6.44772 29.5523 6 29 6H21.0001H20.9998ZM23 24V16H21V24H23ZM11 24V16H10.999H9V24H11ZM4 14V9.41422L8.58578 14H7H4ZM28 8V12.5858L23.4142 8H28Z" fill="currentColor"/>
</svg>
