<svg width="24" height="24" viewBox="0 0 24 24" fill="none" xmlns="http://www.w3.org/2000/svg">
<path fill-rule="evenodd" clip-rule="evenodd" d="M4.32632 3.66316C4.32632 3.29691 4.02941 3 3.66316 3C3.29691 3 3 3.29691 3 3.66316V20.1853C3 20.6352 3.36477 21 3.81474 21H20.3368C20.7031 21 21 20.7031 21 20.3368C21 19.9706 20.7031 19.6737 20.3368 19.6737H4.32632V3.66316ZM18.6497 4.92976C18.9087 4.67078 18.9087 4.25089 18.6497 3.99191C18.3907 3.73293 17.9708 3.73293 17.7118 3.99191L13.9702 7.73357C13.9368 7.76695 13.8839 7.77066 13.8462 7.74226L11.4159 5.91222C10.8329 5.4732 10.0121 5.5472 9.51702 6.0834L6.35794 9.5048C6.10948 9.77389 6.12621 10.1934 6.3953 10.4419C6.66439 10.6904 7.08394 10.6736 7.3324 10.4045L10.4915 6.98315C10.5245 6.9474 10.5792 6.94247 10.6181 6.97174L13.0484 8.80178C13.6141 9.2278 14.4072 9.1722 14.908 8.67141L18.6497 4.92976ZM10.5235 9.31573C10.1573 9.31573 9.86037 9.61263 9.86037 9.97889L9.86037 17.119C9.86037 17.4853 10.1573 17.7822 10.5235 17.7822C10.8898 17.7822 11.1867 17.4853 11.1867 17.119V9.97889C11.1867 9.61263 10.8898 9.31573 10.5235 9.31573ZM18.3267 10.628C18.3267 10.2617 18.0298 9.96482 17.6636 9.96482C17.2973 9.96482 17.0004 10.2617 17.0004 10.628V17.119C17.0004 17.4852 17.2973 17.7822 17.6636 17.7822C18.0298 17.7822 18.3267 17.4852 18.3267 17.119V10.628ZM14.0936 11.804C14.4598 11.804 14.7567 12.1009 14.7567 12.4672V17.1191C14.7567 17.4853 14.4598 17.7822 14.0936 17.7822C13.7273 17.7822 13.4304 17.4853 13.4304 17.1191V12.4672C13.4304 12.1009 13.7273 11.804 14.0936 11.804ZM7.61666 13.549C7.61666 13.1828 7.31976 12.8858 6.95351 12.8858C6.58725 12.8858 6.29035 13.1828 6.29035 13.549L6.29035 17.1191C6.29035 17.4853 6.58725 17.7822 6.95351 17.7822C7.31976 17.7822 7.61666 17.4853 7.61666 17.1191L7.61666 13.549Z" fill="currentColor"/>
</svg>
