<svg width="32" height="32" viewBox="0 0 32 32" fill="none" xmlns="http://www.w3.org/2000/svg">
<path fill-rule="evenodd" clip-rule="evenodd" d="M20.604 8.22585L11.5433 12.5928V18.3831L20.604 22.5493V8.22585ZM9.57837 18.0317V12.9566H5.37597C5.02739 12.9566 4.71293 13.1291 4.43693 13.582C4.14876 14.0549 3.97009 14.7501 3.96502 15.5006C3.95995 16.2517 4.12949 16.9421 4.41196 17.409C4.67845 17.8495 4.99445 18.0317 5.37597 18.0317H9.57837ZM10.333 11.0242L20.4467 6.14971C21.4259 5.67781 22.569 6.37878 22.569 7.4511V23.3085C22.569 24.3693 21.4482 25.0706 20.4711 24.6214L11.4664 20.4809V24.5507C11.4664 25.3511 10.8066 26 9.99272 26H7.89474C7.08084 26 6.42105 25.3511 6.42105 24.5507V19.9641H5.37597C4.13824 19.9641 3.25163 19.2704 2.72329 18.397C2.21092 17.55 1.9934 16.4885 2.00015 15.4877C2.00691 14.4863 2.23897 13.4297 2.75155 12.5886C3.2763 11.7276 4.15261 11.0242 5.37597 11.0242H10.333ZM8.38596 19.9641V24.0676H9.5015V19.9641H8.38596ZM27.4401 11.0751C27.6828 11.5524 27.4861 12.1328 27.0008 12.3714L25.0359 13.3376C24.5505 13.5762 23.9604 13.3828 23.7178 12.9055C23.4751 12.4282 23.6718 11.8479 24.1571 11.6092L26.122 10.6431C26.6073 10.4044 27.1975 10.5979 27.4401 11.0751ZM24.5965 15.372C24.5965 14.8384 25.0364 14.4058 25.5789 14.4058H29.0175C29.5601 14.4058 30 14.8384 30 15.372C30 15.9056 29.5601 16.3382 29.0175 16.3382H25.5789C25.0364 16.3382 24.5965 15.9056 24.5965 15.372ZM25.0359 17.4063C24.5505 17.1677 23.9604 17.3611 23.7178 17.8384C23.4751 18.3157 23.6718 18.8961 24.1571 19.1347L26.122 20.1009C26.6073 20.3395 27.1975 20.1461 27.4401 19.6688C27.6828 19.1915 27.4861 18.6112 27.0008 18.3725L25.0359 17.4063Z" fill="currentColor"/>
</svg>
