<svg width="32" height="32" viewBox="0 0 32 32" fill="none" xmlns="http://www.w3.org/2000/svg">
<path fill-rule="evenodd" clip-rule="evenodd" d="M4 5.44C4 4.64471 4.64471 4 5.44 4H26.56C27.3553 4 28 4.64471 28 5.44C28 6.23529 27.3553 6.88 26.56 6.88H5.44C4.64471 6.88 4 6.23529 4 5.44ZM4 16C4 15.2047 4.64471 14.56 5.44 14.56H26.56C27.3553 14.56 28 15.2047 28 16C28 16.7953 27.3553 17.44 26.56 17.44H5.44C4.64471 17.44 4 16.7953 4 16ZM5.44 25.12C4.64471 25.12 4 25.7647 4 26.56C4 27.3553 4.64471 28 5.44 28H26.56C27.3553 28 28 27.3553 28 26.56C28 25.7647 27.3553 25.12 26.56 25.12H5.44Z" fill="currentColor"/>
</svg>
