<svg width="24" height="24" viewBox="0 0 24 24" fill="none" xmlns="http://www.w3.org/2000/svg">
<path fill-rule="evenodd" clip-rule="evenodd" d="M14.115 2.25C17.1939 2.25187 20.3377 4.20979 20.7824 8.11205C20.8173 8.41826 20.5932 8.69431 20.2817 8.72863C19.9703 8.76294 19.6895 8.54253 19.6546 8.23632C19.2847 4.99045 16.7149 3.3674 14.1143 3.36582C11.5374 3.36425 9.02712 4.95349 8.6864 8.14644C8.8303 8.06784 9.01529 8.08861 9.13748 8.20875C9.28521 8.354 9.28521 8.5895 9.13748 8.73475L8.11342 9.74163L7.08936 8.73475C6.94163 8.5895 6.94163 8.354 7.08936 8.20875C7.21328 8.08691 7.40178 8.06727 7.54651 8.14984C7.54693 8.14075 7.54756 8.13163 7.54843 8.12248C7.91909 4.20659 11.0339 2.24813 14.115 2.25ZM9.03468 14.1474C8.75064 14.0543 8.43856 14.0989 8.19328 14.2677L6.04397 15.747L8.05976 18.5218L8.50928 18.1578C8.66007 18.0357 8.86412 17.9985 9.04943 18.0592L13.988 19.6778C14.2767 19.7724 14.5941 19.7246 14.8408 19.5494L20.3229 15.6565C20.5566 15.4906 20.6639 15.2016 20.594 14.9267L20.585 14.8912C20.5322 14.6834 20.3751 14.5166 20.1685 14.4489C19.9976 14.3929 19.8105 14.4107 19.6536 14.4978L16.0574 16.4964V16.5313C16.0574 17.0607 15.8127 17.5614 15.3923 17.892C14.9377 18.2496 14.3335 18.3649 13.7759 18.2004L10.5984 17.2632C10.2982 17.1746 10.1279 16.8636 10.2179 16.5685C10.308 16.2733 10.6243 16.1059 10.9245 16.1944L14.102 17.1316C14.3025 17.1908 14.5198 17.1493 14.6833 17.0207C14.8345 16.9018 14.9226 16.7217 14.9226 16.5313V16.2764C14.8495 16.1259 14.717 16.0097 14.554 15.9563L9.03468 14.1474ZM15.6955 15.4158C15.49 15.1795 15.2208 14.9986 14.9129 14.8977L9.39355 13.0888C8.76868 12.884 8.08209 12.9822 7.54249 13.3536L5.38432 14.839L5.17059 14.5448C4.99864 14.3081 4.67059 14.241 4.41692 14.3907L2.52549 15.5065C2.3897 15.5866 2.29414 15.7189 2.26189 15.8713C2.22965 16.0237 2.26365 16.1825 2.3557 16.3092L6.13855 21.5163C6.3105 21.753 6.63855 21.8201 6.89222 21.6704L8.78365 20.5546C8.91944 20.4745 9.015 20.3423 9.04725 20.1898C9.0795 20.0374 9.04549 19.8786 8.95345 19.7519L8.72094 19.4319L8.98838 19.2154L13.6291 20.7363C14.2642 20.9445 14.9625 20.8394 15.5052 20.454L20.9874 16.5611C21.5972 16.128 21.8774 15.3736 21.695 14.656L21.686 14.6205C21.539 14.0427 21.102 13.5787 20.5274 13.3904C20.0519 13.2345 19.5315 13.284 19.0952 13.5265L15.6955 15.4158ZM7.67273 19.9087L4.5516 15.6125L3.63642 16.1524L6.75754 20.4486L7.67273 19.9087ZM14.478 6.8754V7.06297C14.7833 7.12338 15.1582 7.27878 15.4068 7.62062C15.5168 7.77191 15.4823 7.98302 15.3298 8.09215C15.1773 8.20127 14.9645 8.1671 14.8545 8.01581C14.6912 7.79123 14.3654 7.70574 14.1631 7.70574C14.0485 7.70574 13.8842 7.71783 13.7515 7.78226C13.6438 7.8345 13.5437 7.92385 13.5239 8.14792C13.5155 8.24279 13.5308 8.29526 13.5454 8.32505C13.56 8.35498 13.5857 8.38613 13.6361 8.41986C13.7545 8.49906 13.9365 8.5496 14.2028 8.61633L14.233 8.62387C14.4629 8.68128 14.7585 8.75512 14.9936 8.90179C15.1237 8.98303 15.2472 9.09287 15.3367 9.24455C15.4269 9.39751 15.4711 9.57362 15.4711 9.76924C15.4711 9.77682 15.4708 9.78439 15.4703 9.79195C15.436 10.2978 15.1642 10.5972 14.8589 10.7517C14.7284 10.8178 14.5953 10.8561 14.478 10.8781V11.0623C14.478 11.2488 14.3256 11.4 14.1376 11.4C13.9496 11.4 13.7971 11.2488 13.7971 11.0623V10.87C13.5127 10.8091 13.2977 10.6822 13.1438 10.5492C13.039 10.4586 12.9649 10.3674 12.9159 10.2969C12.8914 10.2615 12.8729 10.2309 12.8597 10.2075C12.8531 10.1957 12.8478 10.1857 12.8438 10.1778L12.8386 10.1674L12.8367 10.1634L12.8359 10.1617L12.8356 10.161L12.8354 10.1606C12.8353 10.1605 12.8352 10.1603 13.1446 10.0194L12.8352 10.1603C12.7568 9.99074 12.8317 9.79023 13.0026 9.71241C13.1719 9.63533 13.3718 9.70754 13.4518 9.87367L13.4545 9.87858C13.4582 9.88524 13.4655 9.8976 13.4768 9.91381C13.4995 9.9465 13.5368 9.9929 13.5911 10.0399C13.6953 10.1299 13.8723 10.2319 14.1631 10.2319C14.246 10.2319 14.4109 10.2201 14.5494 10.15C14.6624 10.0928 14.7708 9.99427 14.7901 9.75816C14.7886 9.67274 14.7695 9.62048 14.749 9.58575C14.7269 9.54828 14.6912 9.51116 14.631 9.47359C14.4957 9.38913 14.3016 9.33781 14.0361 9.27129L14.0139 9.26574C13.7838 9.20818 13.4849 9.13345 13.2555 8.98C13.1283 8.89492 13.0106 8.77912 12.9328 8.61988C12.8548 8.46051 12.8285 8.2816 12.8456 8.08883C12.8881 7.60807 13.1499 7.32223 13.4522 7.17548C13.5685 7.11904 13.6876 7.0844 13.7971 7.06319V6.8754C13.7971 6.68886 13.9496 6.53764 14.1376 6.53764C14.3256 6.53764 14.478 6.68886 14.478 6.8754ZM14.166 12.6173C16.203 12.6173 17.8543 10.9791 17.8543 8.95827C17.8543 6.93742 16.203 5.2992 14.166 5.2992C12.129 5.2992 10.4777 6.93742 10.4777 8.95827C10.4777 10.9791 12.129 12.6173 14.166 12.6173ZM14.166 13.4617C16.6731 13.4617 18.7054 11.4455 18.7054 8.95827C18.7054 6.47107 16.6731 4.45479 14.166 4.45479C11.659 4.45479 9.62659 6.47107 9.62659 8.95827C9.62659 11.4455 11.659 13.4617 14.166 13.4617Z" fill="currentColor"/>
</svg>
