<svg width="24" height="24" viewBox="0 0 24 24" fill="none" xmlns="http://www.w3.org/2000/svg">
<path fill-rule="evenodd" clip-rule="evenodd" d="M12 0C5.37334 0 0 5.37334 0 12C0 18.6267 5.37334 24 12 24C18.6275 24 24 18.6271 24 12C24 5.37294 18.6275 0 12 0ZM12 1.8C17.6333 1.8 22.2 6.36703 22.2 12C22.2 17.633 17.6333 22.2 12 22.2C6.36746 22.2 1.8 17.6325 1.8 12C1.8 6.36746 6.36746 1.8 12 1.8ZM12.8067 6.75C12.8067 6.33579 12.4455 6 12 6C11.5545 6 11.1933 6.33579 11.1933 6.75V7.19438C10.8873 7.24635 10.5483 7.33657 10.2192 7.49249C9.44191 7.8607 8.78725 8.56615 8.68028 9.74557C8.63725 10.22 8.70395 10.6535 8.89642 11.0377C9.08941 11.4229 9.3835 11.7079 9.70993 11.921C10.3036 12.3085 11.0819 12.4985 11.6937 12.6479L11.747 12.6609C12.4439 12.8313 12.9688 12.9658 13.3392 13.1913C13.5064 13.2932 13.6156 13.3998 13.6868 13.5175C13.7548 13.6301 13.8115 13.7914 13.815 14.0387C13.7609 14.7116 13.4372 14.9985 13.1173 15.1565C12.736 15.3448 12.2885 15.375 12.0673 15.375C11.2848 15.375 10.8004 15.1068 10.5086 14.8606C10.3574 14.733 10.2527 14.6062 10.1878 14.515C10.1556 14.4697 10.1341 14.4344 10.1224 14.4141C10.117 14.4047 10.1125 14.3963 10.1125 14.3963C9.92984 14.023 9.45767 13.8549 9.05297 14.0207C8.64529 14.1878 8.46046 14.6305 8.64015 15.0095L8.64098 15.0113L8.64426 15.018L8.64802 15.0257L8.66049 15.0502C8.67036 15.0691 8.68344 15.0932 8.69991 15.1219C8.73281 15.179 8.7796 15.2545 8.84195 15.3422C8.96614 15.5169 9.15549 15.7445 9.42441 15.9714C9.83279 16.316 10.4138 16.6483 11.1933 16.7956V17.25C11.1933 17.6642 11.5545 18 12 18C12.4455 18 12.8067 17.6642 12.8067 17.25V16.8145C13.1301 16.7614 13.5066 16.6628 13.8743 16.4812C14.6596 16.0933 15.3403 15.3539 15.4268 14.1109C15.4279 14.0948 15.4285 14.0786 15.4285 14.0625C15.4285 13.5821 15.3177 13.154 15.0933 12.7827C14.8698 12.4129 14.5587 12.1409 14.2233 11.9366C13.6138 11.5654 12.8432 11.3775 12.233 11.2287L12.1573 11.2102C11.4586 11.0394 10.964 10.9067 10.6369 10.6933C10.4943 10.6002 10.4101 10.5066 10.3589 10.4043C10.3072 10.3011 10.2638 10.1384 10.288 9.87161C10.3457 9.23488 10.6465 8.97353 10.9516 8.82899C11.3173 8.65574 11.7632 8.625 12.0673 8.625C12.6043 8.625 13.4982 8.84411 13.9587 9.4622C14.2123 9.80271 14.7149 9.88755 15.0811 9.6517C15.4474 9.41585 15.5386 8.94861 15.285 8.6081C14.6274 7.72553 13.6147 7.33537 12.8067 7.19338V6.75Z" fill="#433AD4"/>
</svg>
