<svg width="32" height="32" viewBox="0 0 32 32" fill="none" xmlns="http://www.w3.org/2000/svg">
<path fill-rule="evenodd" clip-rule="evenodd" d="M6 13V6H13V13H6ZM4 4.8C4 4.35817 4.35817 4 4.8 4H14.2C14.6418 4 15 4.35817 15 4.8V14.2C15 14.6418 14.6418 15 14.2 15H4.8C4.35817 15 4 14.6418 4 14.2V4.8ZM17 17.8C17 17.3582 17.3582 17 17.8 17H27.2C27.6418 17 28 17.3582 28 17.8V27.2C28 27.6418 27.6418 28 27.2 28H17.8C17.3582 28 17 27.6418 17 27.2V17.8ZM22.5 13C24.433 13 26 11.433 26 9.5C26 7.567 24.433 6 22.5 6C20.567 6 19 7.567 19 9.5C19 11.433 20.567 13 22.5 13ZM19 26V19H26V26H19ZM22.5 15C25.5376 15 28 12.5376 28 9.5C28 6.46243 25.5376 4 22.5 4C19.4624 4 17 6.46243 17 9.5C17 12.5376 19.4624 15 22.5 15ZM13 22.5C13 24.433 11.433 26 9.5 26C7.567 26 6 24.433 6 22.5C6 20.567 7.567 19 9.5 19C11.433 19 13 20.567 13 22.5ZM15 22.5C15 25.5376 12.5376 28 9.5 28C6.46243 28 4 25.5376 4 22.5C4 19.4624 6.46243 17 9.5 17C12.5376 17 15 19.4624 15 22.5Z" fill="currentColor"/>
</svg>
