<svg width="32" height="32" viewBox="0 0 32 32" fill="none" xmlns="http://www.w3.org/2000/svg">
<path fill-rule="evenodd" clip-rule="evenodd" d="M24.1522 4.62598C23.3068 3.78436 21.9544 3.79241 21.1187 4.64402L19.5005 6.29306L11.468 13.967L9.79575 19.9315C9.42582 21.2509 10.6228 22.4708 11.9176 22.0938L17.746 20.3968L25.7839 12.4719L27.3284 10.9766C28.2153 10.1181 28.2251 8.6807 27.3501 7.80961L24.1522 4.62598ZM13.7464 14.5303L20.1802 8.38367L23.6859 11.759L17.2518 18.1026L13.7464 14.5303ZM25.9774 9.52738L25.1033 10.3736L21.5898 6.99084L22.5057 6.05748C22.5817 5.98006 22.7046 5.97933 22.7815 6.05584L25.9794 9.23947C26.0589 9.31866 26.058 9.44933 25.9774 9.52738ZM12.8217 16.415L15.3683 19.0101L11.8031 20.0482L12.8217 16.415ZM5.71636 4.01282C4.76844 4.01282 4 4.7959 4 5.76188V26.2509C4 27.2169 4.76844 28 5.71636 28H25.8223C26.7702 28 27.5386 27.2169 27.5386 26.2509V18.489C27.5386 17.937 27.0995 17.4895 26.5578 17.4895C26.0162 17.4895 25.5771 17.937 25.5771 18.489V26.0011H5.96155V6.01175H13.0722C13.6138 6.01175 14.053 5.56427 14.053 5.01228C14.053 4.46029 13.6138 4.01282 13.0722 4.01282H5.71636Z" fill="currentColor"/>
</svg>
