<svg width="24" height="24" viewBox="0 0 24 24" fill="none" xmlns="http://www.w3.org/2000/svg">
<path fill-rule="evenodd" clip-rule="evenodd" d="M17.701 3H3V9.0677H4.11124V4.15211H17.701C18.8459 4.15211 19.8886 5.12423 19.8886 6.19171V15.687H14.5092V15.6862C10.9891 15.6862 8.12526 12.7171 8.12526 9.06757H7.01402C7.01402 13.3524 10.3763 16.8383 14.5092 16.8383V16.8391H21V6.19171C21 4.49137 19.4584 3 17.701 3ZM14.5089 11.5327C13.1979 11.5327 12.1312 10.4267 12.1312 9.06748H11.02C11.02 11.0621 12.5851 12.6848 14.5089 12.6848V11.5327ZM3.00005 9.06776H4.11129C4.11129 15.0119 8.77578 19.8478 14.5091 19.8478V21C8.163 21 3.00005 15.6472 3.00005 9.06776Z" fill="currentColor"/>
</svg>
