<svg width="24" height="24" viewBox="0 0 24 24" fill="none" xmlns="http://www.w3.org/2000/svg">
<path fill-rule="evenodd" clip-rule="evenodd" d="M14.5451 2.40219C14.6536 2.29802 14.7996 2.24326 14.9492 2.25066L15.0906 2.25767C19.4622 2.47423 22.8963 6.11293 22.8963 10.5283C22.8963 10.8331 22.6514 11.0802 22.3493 11.0802H14.9224C14.6202 11.0802 14.3753 10.8331 14.3753 10.5283V2.80189C14.3753 2.65082 14.4367 2.50636 14.5451 2.40219ZM21.7814 9.9764C21.5224 6.54665 18.8693 3.77087 15.4694 3.3947V9.9764H21.7814ZM15.8376 12.8785C15.9256 12.6798 16.1212 12.5519 16.337 12.5519H22.7029C23.0051 12.5519 23.25 12.799 23.25 13.1038V13.2246C23.25 15.1773 22.4055 17.0327 20.9375 18.3053C20.7108 18.5019 20.3703 18.4782 20.1724 18.2538L15.9294 13.4718C15.7855 13.3096 15.7495 13.0773 15.8376 12.8785ZM20.6137 17.0962C21.5005 16.163 22.0406 14.9468 22.1394 13.6556H17.5609L20.6137 17.0962Z" fill="currentColor"/>
<path fill-rule="evenodd" clip-rule="evenodd" d="M11.2501 4.96414C10.4173 5.09685 9.6079 5.37657 8.85726 5.79524C7.77184 6.40063 6.84108 7.27894 6.15105 8.35655C5.46088 9.43437 5.03403 10.6767 4.91162 11.9736C4.7892 13.2705 4.97543 14.5779 5.45223 15.7791C5.92897 16.9801 6.68024 18.0348 7.63518 18.8526C8.58984 19.6702 9.71885 20.226 10.921 20.4756C12.123 20.725 13.3653 20.6615 14.5393 20.2899C15.3772 20.0247 16.1635 19.6078 16.8631 19.0591L11.7713 13.746C11.4368 13.3969 11.2501 12.9321 11.2501 12.4487V4.96414ZM11.6261 3.78401C12.0386 3.74649 12.3751 4.0858 12.3751 4.50002V12.4487C12.3751 12.6421 12.4498 12.828 12.5836 12.9676L17.9766 18.595C18.2546 18.8851 18.2567 19.3456 17.9559 19.612C17.0577 20.4074 16.0108 21.0041 14.8788 21.3625C13.5215 21.7921 12.0835 21.8658 10.6924 21.5771C9.30127 21.2883 7.99985 20.646 6.90342 19.7071C5.80699 18.7682 4.9494 17.5616 4.4066 16.1942C3.86381 14.8268 3.65257 13.3408 3.79159 11.8679C3.93062 10.3949 4.41562 8.98051 5.20364 7.74989C5.99165 6.51926 7.05836 5.51042 8.30927 4.81273C9.33919 4.23829 10.4678 3.88937 11.6261 3.78401Z" fill="currentColor"/>
<path d="M9.75006 16.5C9.75006 18.9853 7.73534 21 5.25006 21C2.76478 21 0.750061 18.9853 0.750061 16.5C0.750061 14.0147 2.76478 12 5.25006 12C7.73534 12 9.75006 14.0147 9.75006 16.5Z" fill="currentColor"/>
<path fill-rule="evenodd" clip-rule="evenodd" d="M4.34987 14.3101C4.67065 14.1552 5.01065 14.1429 5.17278 14.1429C5.52819 14.1429 6.21193 14.2749 6.61223 14.8224C6.73888 14.9957 6.69922 15.2374 6.52364 15.3624C6.34807 15.4873 6.10306 15.4482 5.97641 15.275C5.78641 15.0151 5.40768 14.9164 5.17278 14.9164C5.03977 14.9164 4.84885 14.9303 4.69442 15.0049C4.56891 15.0655 4.4522 15.1693 4.42912 15.4286C4.41935 15.5383 4.43721 15.5993 4.45434 15.6341C4.47155 15.6692 4.50162 15.7054 4.56039 15.7445C4.69812 15.8361 4.90957 15.8945 5.21818 15.9714C5.22964 15.9742 5.24125 15.9771 5.25302 15.98C5.51956 16.0462 5.86192 16.1313 6.13398 16.3001C6.28461 16.3936 6.42741 16.52 6.53087 16.6944C6.63519 16.8703 6.68631 17.0728 6.68631 17.298C6.68631 17.3066 6.68602 17.3153 6.68542 17.324C6.64568 17.9062 6.33127 18.2505 5.97807 18.4283C5.6523 18.5923 5.31267 18.6075 5.17278 18.6075C4.62518 18.6075 4.24067 18.4081 3.99291 18.1951C3.87163 18.0908 3.78588 17.9859 3.72927 17.9048C3.70086 17.8641 3.67942 17.8288 3.6642 17.8019C3.65657 17.7884 3.65047 17.7769 3.6458 17.7678C3.64346 17.7632 3.64148 17.7592 3.63984 17.7559C3.63902 17.7542 3.63828 17.7526 3.63763 17.7513L3.63672 17.7494L3.63631 17.7485L3.63612 17.7481C3.63602 17.7479 3.63593 17.7477 3.97922 17.5922L3.63593 17.7477C3.54562 17.5535 3.63191 17.3239 3.82866 17.2348C4.02365 17.1465 4.25395 17.2293 4.34597 17.4198C4.34645 17.4207 4.34746 17.4226 4.34899 17.4253C4.35337 17.433 4.3619 17.4473 4.37499 17.4661C4.4014 17.5039 4.44477 17.5576 4.50796 17.6119C4.62913 17.7161 4.83492 17.834 5.17278 17.834C5.269 17.834 5.46061 17.8204 5.62181 17.7392C5.75348 17.673 5.87984 17.5585 5.90222 17.2853C5.90046 17.1863 5.87826 17.1256 5.85424 17.0851C5.82835 17.0414 5.78662 16.9984 5.71655 16.9549C5.55923 16.8572 5.33389 16.798 5.02623 16.7213C5.01779 16.7192 5.00926 16.7171 5.00065 16.715C4.73375 16.6486 4.38774 16.5625 4.12217 16.3859C3.975 16.288 3.83898 16.1548 3.74897 15.9718C3.65889 15.7885 3.6284 15.5828 3.64814 15.3609C3.69738 14.8077 4.00017 14.4789 4.34987 14.3101ZM4.34816 17.4244C4.34813 17.4243 4.3481 17.4243 4.34807 17.4242L4.34816 17.4244ZM4.34826 17.4246C4.34826 17.4246 4.34826 17.4246 4.34826 17.4246L4.34816 17.4244L4.34807 17.4242" fill="white"/>
<path fill-rule="evenodd" clip-rule="evenodd" d="M5.14339 13.575C5.35988 13.575 5.53539 13.7482 5.53539 13.9618V14.5296C5.53539 14.7432 5.35988 14.9164 5.14339 14.9164C4.9269 14.9164 4.7514 14.7432 4.7514 14.5296V13.9618C4.7514 13.7482 4.9269 13.575 5.14339 13.575Z" fill="white"/>
<path fill-rule="evenodd" clip-rule="evenodd" d="M5.14339 17.834C5.35988 17.834 5.53539 18.0071 5.53539 18.2207V18.7886C5.53539 19.0022 5.35988 19.1754 5.14339 19.1754C4.9269 19.1754 4.7514 19.0022 4.7514 18.7886V18.2207C4.7514 18.0071 4.9269 17.834 5.14339 17.834Z" fill="white"/>
</svg>
