<svg width="24" height="24" viewBox="0 0 24 24" fill="none" xmlns="http://www.w3.org/2000/svg">
<path fill-rule="evenodd" clip-rule="evenodd" d="M20.9692 12.75C20.5881 17.3696 16.718 21 12 21C7.02944 21 3 16.9706 3 12C3 7.282 6.63035 3.41192 11.25 3.03081V11.625C11.25 12.2463 11.7537 12.75 12.375 12.75H20.9692ZM20.9692 11.25H12.75V3.03081C17.1223 3.39152 20.6085 6.87765 20.9692 11.25ZM22.5 12C22.5 17.799 17.799 22.5 12 22.5C6.20101 22.5 1.5 17.799 1.5 12C1.5 6.20101 6.20101 1.5 12 1.5C17.799 1.5 22.5 6.20101 22.5 12Z" fill="currentColor"/>
</svg>
