<svg width="32" height="32" viewBox="0 0 32 32" fill="none" xmlns="http://www.w3.org/2000/svg">
<path fill-rule="evenodd" clip-rule="evenodd" d="M13.244 7.04919C13.244 5.75449 14.3208 4.70492 15.6491 4.70492C16.9773 4.70492 18.0541 5.75449 18.0541 7.04919C18.0541 7.61426 17.85 8.13107 17.5086 8.53604C16.7733 8.36041 16.0101 8.29376 15.3 8.31047C14.7648 8.32306 14.2382 8.38324 13.7514 8.48963C13.4329 8.09192 13.244 7.5929 13.244 7.04919ZM12.0975 9.15058C11.7153 8.53793 11.4948 7.8181 11.4948 7.04919C11.4948 4.81289 13.3547 3 15.6491 3C17.9434 3 19.8033 4.81289 19.8033 7.04919C19.8033 7.83107 19.5753 8.56219 19.1811 9.18147C19.2602 9.22687 19.3378 9.27425 19.4138 9.32366C19.8157 9.58481 19.9243 10.1141 19.6564 10.5058C19.3885 10.8975 18.8455 11.0034 18.4436 10.7422C17.6586 10.2321 16.4895 9.9879 15.3422 10.0149C14.7791 10.0281 14.2559 10.1064 13.8284 10.2305C13.3868 10.3587 13.1131 10.5164 12.9809 10.6424C12.6356 10.9716 12.0818 10.9656 11.7441 10.629C11.4064 10.2924 11.4126 9.75268 11.7579 9.4235C11.8619 9.32441 11.9759 9.23364 12.0975 9.15058ZM20.6779 7.04915C20.6779 7.41991 20.6357 7.78106 20.5557 8.12827C24.4626 10.2329 26.9839 14.7586 24.5309 20.5535C24.187 21.2712 23.1843 22.9871 21.8879 24.1979C21.8442 24.2387 21.8191 24.2948 21.8191 24.3538V26.4426C21.8191 26.9134 21.4275 27.2951 20.9445 27.2951H19.0992C18.7172 27.2951 18.4075 26.9933 18.4075 26.6209C18.4075 26.2486 18.0978 25.9468 17.7159 25.9468H12.101C11.719 25.9468 11.4094 26.2486 11.4094 26.6209C11.4094 26.9933 11.0997 27.2951 10.7177 27.2951H8.69738C8.21437 27.2951 7.82281 26.9134 7.82281 26.4426V24.3596C7.82281 24.2973 7.79507 24.2386 7.74721 24.1972C7.13437 23.6672 5.91761 22.392 5.09297 20.8069C4.93536 20.5039 4.62307 20.3006 4.27458 20.3006H3.62372C3.14071 20.3006 2.74915 19.919 2.74915 19.4482V15.7598C2.74915 15.289 3.14071 14.9073 3.62372 14.9073H3.75925C4.18614 14.9073 4.54855 14.6062 4.661 14.2048C4.96545 13.118 5.62309 11.5736 6.733 10.7803C6.80804 10.7267 6.84527 10.6349 6.82245 10.5469L6.43155 9.04065L6.42359 9.00997L6.21837 8.21921L6.04786 7.56217C6.01515 7.4361 6.10499 7.31169 6.23836 7.31449C6.40844 7.31806 6.60249 7.33795 6.81189 7.37379C7.11179 7.42512 7.44317 7.50915 7.78065 7.62477C7.81277 7.63577 7.84493 7.64706 7.87714 7.65863C8.49085 7.87917 9.11667 8.20323 9.60325 8.62409C9.68646 8.69607 9.8122 8.70147 9.90035 8.63531C10.1695 8.43331 10.4473 8.24923 10.7323 8.08263C10.6589 7.74944 10.6203 7.40369 10.6203 7.04915C10.6203 6.74669 10.6484 6.45064 10.7022 6.16333C10.3878 6.31009 10.0786 6.47328 9.77556 6.65335C9.34904 6.40812 8.90992 6.21342 8.49511 6.06361C7.7523 5.79533 6.95727 5.62426 6.27602 5.60996C4.84002 5.57982 4.07327 6.90571 4.35212 7.98026L4.90371 10.1057C3.99346 11.0761 3.44156 12.3125 3.12953 13.2477C1.91675 13.473 1 14.5121 1 15.7598V19.4482C1 20.8606 2.17468 22.0056 3.62372 22.0056H3.76684C4.49153 23.2687 5.39211 24.3173 6.07366 24.9943V26.4426C6.07366 27.855 7.24834 29 8.69738 29H10.7177C11.6869 29 12.5241 28.4494 12.9182 27.6517H16.8987C17.2928 28.4494 18.13 29 19.0992 29H20.9445C22.3936 29 23.5683 27.855 23.5683 26.4426V24.9611C24.8369 23.6215 25.7628 22.0116 26.1157 21.2749C26.127 21.2514 26.1377 21.2277 26.1478 21.2038C27.3737 18.3078 27.5304 15.5854 26.8483 13.2031C27.7197 13.0019 28.3699 12.6611 28.818 12.22C28.975 12.0655 29.1038 11.9018 29.2066 11.7329C29.7182 11.5698 30.2613 11.2533 30.8128 10.7614C31.049 10.5508 31.0637 10.1951 30.8457 9.96689C30.6277 9.73872 30.2596 9.72449 30.0235 9.93511C29.8453 10.094 29.6776 10.2241 29.5202 10.3297L29.5167 10.3002C29.4379 9.68605 29.0973 9.11119 28.5847 8.80043C28.3222 8.64127 28.006 8.54811 27.6652 8.57646C27.322 8.60502 27.0016 8.75288 26.7266 8.9976L26.7021 9.01938L26.6803 9.04372C26.3331 9.43227 26.281 9.94068 26.3883 10.3717C26.4967 10.807 26.7781 11.2266 27.201 11.5104C27.3279 11.5956 27.4628 11.6664 27.6045 11.7218C27.3316 11.8832 26.9644 12.0292 26.4762 12.1319C25.6415 10.1014 24.1988 8.45623 22.462 7.27849C21.8806 6.88422 21.2599 6.53893 20.6109 6.24718C20.655 6.50813 20.6779 6.77603 20.6779 7.04915ZM7.55944 14.5083C8.04246 14.5083 8.43402 14.1267 8.43402 13.6559C8.43402 13.1851 8.04246 12.8034 7.55944 12.8034C7.07643 12.8034 6.68487 13.1851 6.68487 13.6559C6.68487 14.1267 7.07643 14.5083 7.55944 14.5083ZM28.3617 10.4384C28.374 10.5342 28.3743 10.6349 28.3591 10.7377C28.1384 10.7292 27.974 10.6601 27.8649 10.5869C27.6816 10.4638 27.563 10.2818 27.5198 10.1086C27.4811 9.95315 27.5107 9.85185 27.546 9.79848C27.6436 9.7201 27.7184 9.70069 27.7651 9.6968C27.8191 9.69231 27.8863 9.70451 27.9662 9.75296C28.1385 9.85743 28.3192 10.1068 28.3617 10.4384Z" fill="currentColor"/>
</svg>
