<svg width="32" height="32" viewBox="0 0 32 32" fill="none" xmlns="http://www.w3.org/2000/svg">
<path fill-rule="evenodd" clip-rule="evenodd" d="M15.9625 27.1022L8.6354 17.8704C7.31108 16.1339 6.78812 14.4746 6.78566 12.9784C6.78319 11.4752 7.30609 10.0687 8.18603 8.84701C9.96776 6.37337 13.1391 4.76074 15.9625 4.76074C18.7892 4.76074 22.0055 6.37625 23.8083 8.85086C24.6981 10.0723 25.2239 11.476 25.2142 12.9742C25.2045 14.4667 24.6629 16.1259 23.2936 17.8654L23.2927 17.8666L15.9625 27.1022ZM15.9625 3C12.5363 3 8.83245 4.90884 6.7302 7.82746C5.66815 9.30194 4.99685 11.0592 5.00001 12.9812C5.00318 14.9084 5.68442 16.9333 7.21386 18.936L7.21886 18.9426L14.7321 28.4089C15.3577 29.197 16.5674 29.197 17.193 28.4089L24.701 18.949L24.7032 18.9464C26.2792 16.9447 26.9872 14.9178 26.9998 12.9855C27.0123 11.0584 26.3328 9.29827 25.2585 7.82361C23.133 4.90597 19.3856 3 15.9625 3ZM18.7296 12.6841C18.7296 14.1427 17.5304 15.3252 16.0512 15.3252C14.5719 15.3252 13.3727 14.1427 13.3727 12.6841C13.3727 11.2254 14.5719 10.043 16.0512 10.043C17.5304 10.043 18.7296 11.2254 18.7296 12.6841ZM20.5153 12.6841C20.5153 15.1151 18.5166 17.0859 16.0512 17.0859C13.5857 17.0859 11.587 15.1151 11.587 12.6841C11.587 10.253 13.5857 8.28221 16.0512 8.28221C18.5166 8.28221 20.5153 10.253 20.5153 12.6841Z" fill="currentColor"/>
</svg>
