<svg width="24" height="24" viewBox="0 0 24 24" fill="none" xmlns="http://www.w3.org/2000/svg">
<path fill-rule="evenodd" clip-rule="evenodd" d="M12.5069 6.92708C12.5069 9.36238 10.5604 11.3366 8.15926 11.3366C5.75814 11.3366 3.81165 9.36238 3.81165 6.92708C3.81165 4.49178 5.75814 2.51758 8.15926 2.51758C10.5604 2.51758 12.5069 4.49178 12.5069 6.92708ZM10.6214 11.7468C12.3377 10.843 13.5102 9.02393 13.5102 6.92708C13.5102 3.92979 11.1145 1.5 8.15926 1.5C5.20404 1.5 2.80836 3.92979 2.80836 6.92708C2.80836 9.02393 3.98084 10.843 5.69714 11.7468H2.80836C2.49998 11.7468 2.25 11.9989 2.25 12.3099V21.9369C2.25 22.2479 2.49998 22.5 2.80836 22.5H13.5102C13.8185 22.5 14.0685 22.2479 14.0685 21.9369V12.3099C14.0685 11.9989 13.8185 11.7468 13.5102 11.7468H10.6214ZM8.52709 4.41709C8.52709 4.19229 8.34741 4.01006 8.12577 4.01006C7.90413 4.01006 7.72445 4.19229 7.72445 4.41709V4.64338C7.59539 4.66894 7.45495 4.71069 7.31794 4.77868C6.96156 4.95553 6.65302 5.29999 6.60286 5.87934C6.58274 6.11166 6.61379 6.32726 6.70565 6.51931C6.79743 6.71121 6.93611 6.85076 7.08607 6.95328C7.35652 7.1382 7.70878 7.22826 7.98007 7.29762L7.98009 7.29762L7.98009 7.29762L8.00625 7.30431C8.31923 7.38448 8.54792 7.44632 8.70745 7.5481C8.77843 7.59338 8.82051 7.63811 8.84658 7.68327C8.87072 7.72512 8.8932 7.78809 8.89499 7.89104C8.87229 8.17556 8.74445 8.29434 8.61133 8.36321C8.44797 8.44774 8.25363 8.46194 8.15594 8.46194C7.81309 8.46194 7.60445 8.33904 7.48167 8.23053C7.41761 8.17391 7.37365 8.118 7.34691 8.07861C7.33364 8.05907 7.32501 8.04418 7.3206 8.03615L7.31746 8.03024C7.22315 7.83004 6.98751 7.74302 6.78799 7.8359C6.58655 7.92968 6.49821 8.17132 6.59067 8.37562L6.59106 8.37648L6.59148 8.3774L6.59241 8.37942L6.59467 8.38423L6.60075 8.39673C6.60552 8.4063 6.61174 8.41834 6.61951 8.43249C6.63503 8.46072 6.65688 8.49764 6.68582 8.54027C6.74349 8.62522 6.83084 8.7351 6.95436 8.84427C7.1358 9.00462 7.38918 9.15754 7.72445 9.23085V9.4626C7.72445 9.6874 7.90413 9.86963 8.12577 9.86963C8.34741 9.86963 8.52709 9.6874 8.52709 9.4626V9.24068C8.66531 9.21411 8.82219 9.16798 8.97606 9.08837C9.33598 8.90215 9.65634 8.54139 9.69683 7.93175C9.69744 7.92265 9.69774 7.91352 9.69774 7.90439C9.69774 7.66865 9.64566 7.45642 9.5393 7.27209C9.43382 7.0893 9.28827 6.95693 9.13482 6.85903C8.85778 6.68229 8.50926 6.5933 8.23831 6.52412L8.20277 6.51503C7.88881 6.43462 7.6743 6.37371 7.53472 6.27827C7.47526 6.23762 7.44505 6.20008 7.4278 6.16402C7.41063 6.12811 7.39252 6.06489 7.40241 5.95056C7.42579 5.68054 7.54384 5.57286 7.67069 5.5099C7.82716 5.43226 8.02078 5.41769 8.15594 5.41769C8.39439 5.41769 8.77846 5.52071 8.97095 5.79136C9.10061 5.97367 9.35145 6.01486 9.5312 5.88334C9.71096 5.75183 9.75156 5.49743 9.6219 5.31511C9.32889 4.90314 8.88691 4.71587 8.52709 4.64308V4.41709ZM3.36671 15.9252H7.96241C8.27078 15.9252 8.52076 15.6731 8.52076 15.3621C8.52076 15.0511 8.27078 14.7989 7.96241 14.7989H3.36671V12.8731H12.9518V14.7989H10.5394C10.2311 14.7989 9.98107 15.0511 9.98107 15.3621C9.98107 15.6731 10.2311 15.9252 10.5394 15.9252H12.9518V18.2645H4.52637C4.218 18.2645 3.96802 18.5166 3.96802 18.8276C3.96802 19.1386 4.218 19.3908 4.52637 19.3908L12.9518 19.3908V21.3737H3.36671V15.9252ZM19.125 15.1281L20.4697 16.4575C20.7626 16.747 21.2374 16.747 21.5303 16.4575C21.8232 16.1679 21.8232 15.6984 21.5303 15.4088L19.1705 13.0758C18.7312 12.6414 18.0188 12.6414 17.5795 13.0758L15.2197 15.4088C14.9268 15.6984 14.9268 16.1679 15.2197 16.4575C15.5126 16.747 15.9874 16.747 16.2803 16.4575L17.625 15.1281V20.2585C17.625 20.668 17.9608 21 18.375 21C18.7892 21 19.125 20.668 19.125 20.2585V15.1281Z" fill="#433AD4"/>
</svg>
