<svg width="32" height="32" viewBox="0 0 32 32" fill="none" xmlns="http://www.w3.org/2000/svg">
<path fill-rule="evenodd" clip-rule="evenodd" d="M6 13.0769V6H13.0769V13.0769H6ZM4 5C4 4.44771 4.44772 4 5 4H14.0769C14.6292 4 15.0769 4.44772 15.0769 5V14.0769C15.0769 14.6292 14.6292 15.0769 14.0769 15.0769H5C4.44771 15.0769 4 14.6292 4 14.0769V5ZM6 26V18.9231H13.0769V26H6ZM4 17.9231C4 17.3708 4.44772 16.9231 5 16.9231H14.0769C14.6292 16.9231 15.0769 17.3708 15.0769 17.9231V27C15.0769 27.5523 14.6292 28 14.0769 28H5C4.44771 28 4 27.5523 4 27V17.9231ZM18.9231 6V13.0769H26V6H18.9231ZM17.9231 4C17.3708 4 16.9231 4.44771 16.9231 5V14.0769C16.9231 14.6292 17.3708 15.0769 17.9231 15.0769H27C27.5523 15.0769 28 14.6292 28 14.0769V5C28 4.44772 27.5523 4 27 4H17.9231ZM9.53843 8.61536C9.02863 8.61536 8.61536 9.02863 8.61536 9.53843C8.61536 10.0482 9.02863 10.4615 9.53843 10.4615C10.0482 10.4615 10.4615 10.0482 10.4615 9.53843C10.4615 9.02863 10.0482 8.61536 9.53843 8.61536ZM21.5385 9.53843C21.5385 9.02863 21.9517 8.61536 22.4615 8.61536C22.9713 8.61536 23.3846 9.02863 23.3846 9.53843C23.3846 10.0482 22.9713 10.4615 22.4615 10.4615C21.9517 10.4615 21.5385 10.0482 21.5385 9.53843ZM9.53843 21.5385C9.02863 21.5385 8.61536 21.9517 8.61536 22.4615C8.61536 22.9713 9.02863 23.3846 9.53843 23.3846C10.0482 23.3846 10.4615 22.9713 10.4615 22.4615C10.4615 21.9517 10.0482 21.5385 9.53843 21.5385ZM16.9231 21.5384C16.9231 21.0286 17.3364 20.6154 17.8462 20.6154C18.356 20.6154 18.7692 21.0286 18.7692 21.5384C18.7692 22.0482 18.356 22.4615 17.8462 22.4615C17.3364 22.4615 16.9231 22.0482 16.9231 21.5384ZM18 16.9999C17.4477 16.9999 17 17.4477 17 17.9999C17 18.5522 17.4477 18.9999 18 18.9999H21.5V19.6924V21.9999C21.5 22.5522 21.9477 22.9999 22.5 22.9999C23.0523 22.9999 23.5 22.5522 23.5 21.9999V20.6924H27C27.5523 20.6924 28 20.2447 28 19.6924V17.9999C28 17.4477 27.5523 16.9999 27 16.9999C26.4477 16.9999 26 17.4477 26 17.9999V18.6924H23.5V17.9999C23.5 17.4477 23.0523 16.9999 22.5 16.9999H18ZM26.9999 22.5C27.5522 22.5 27.9999 22.9477 27.9999 23.5V25.2308V27C27.9999 27.5523 27.5522 28 26.9999 28C26.4477 28 25.9999 27.5523 25.9999 27V26.2308H24.2175C23.6652 26.2308 23.2175 25.7831 23.2175 25.2308C23.2175 24.6785 23.6652 24.2308 24.2175 24.2308H25.9999V23.5C25.9999 22.9477 26.4477 22.5 26.9999 22.5ZM20.5 28.0001C21.0523 28.0001 21.5 27.5523 21.5 27.0001C21.5 26.4478 21.0523 26.0001 20.5 26.0001H19V25.0001C19 24.4478 18.5523 24.0001 18 24.0001C17.4477 24.0001 17 24.4478 17 25.0001V27.0001C17 27.5523 17.4477 28.0001 18 28.0001H20.5Z" fill="currentColor"/>
</svg>
