<svg width="32" height="32" viewBox="0 0 32 32" fill="none" xmlns="http://www.w3.org/2000/svg">
<path fill-rule="evenodd" clip-rule="evenodd" d="M20.6803 5C20.0204 5 19.4855 5.53531 19.4855 6.19565C19.4855 6.85599 20.0204 7.39131 20.6803 7.39131H24.0258C26.0055 7.39131 27.6103 8.99724 27.6103 10.9783V14.8044C27.6103 16.7854 26.0055 18.3913 24.0258 18.3913H5.88147L10.0549 14.2151C10.5215 13.7481 10.5215 12.9911 10.0549 12.5241C9.58824 12.0572 8.83172 12.0572 8.36511 12.5241L2.48994 18.4034C1.83669 19.0571 1.83669 20.1169 2.48994 20.7706L8.36511 26.6498C8.83172 27.1168 9.58824 27.1168 10.0549 26.6498C10.5215 26.1829 10.5215 25.4259 10.0549 24.9589L5.88141 20.7826H24.0258C27.3253 20.7826 30 18.1061 30 14.8044V10.9783C30 7.67656 27.3253 5 24.0258 5H20.6803Z" fill="currentColor"/>
</svg>
