<svg width="32" height="32" viewBox="0 0 32 32" fill="none" xmlns="http://www.w3.org/2000/svg">
<path fill-rule="evenodd" clip-rule="evenodd" d="M15.9999 4.71122C13.3273 4.71122 11.1606 6.82982 11.1606 9.44325V12.2371H20.8392V9.44325C20.8392 6.82982 18.6726 4.71122 15.9999 4.71122ZM9.41064 9.44325V12.2371H7.07143C6.47969 12.2371 6 12.7061 6 13.2848V27.9523C6 28.5309 6.47969 29 7.07143 29H24.9286C25.5203 29 26 28.5309 26 27.9523V13.2848C26 12.7061 25.5203 12.2371 24.9286 12.2371H22.5892V9.44325C22.5892 5.88474 19.6391 3 15.9999 3C12.3608 3 9.41064 5.88474 9.41064 9.44325ZM7.75 13.9483V27.2888H24.25V13.9483H7.75ZM17.0714 20.3382C17.7119 19.9758 18.1428 19.2987 18.1428 18.5232C18.1428 17.3659 17.1834 16.4278 15.9999 16.4278C14.8164 16.4278 13.8571 17.3659 13.8571 18.5232C13.8571 19.2988 14.288 19.976 14.9286 20.3383V23.4124C14.9286 23.991 15.4083 24.46 16 24.46C16.5918 24.46 17.0714 23.991 17.0714 23.4124V20.3382Z" fill="currentColor"/>
</svg>
