<svg width="32" height="32" viewBox="0 0 32 32" fill="none" xmlns="http://www.w3.org/2000/svg">
<path fill-rule="evenodd" clip-rule="evenodd" d="M26 8C26 9.10457 25.1046 10 24 10C22.8954 10 22 9.10457 22 8C22 6.89543 22.8954 6 24 6C25.1046 6 26 6.89543 26 8ZM28 8C28 10.2091 26.2091 12 24 12C22.7961 12 21.7164 11.4681 20.983 10.6265L11.9121 15.162C11.9697 15.4322 12 15.7126 12 16C12 16.3295 11.9601 16.6498 11.885 16.9561L20.7182 21.7125C21.4412 20.6772 22.6415 20 24 20C26.2091 20 28 21.7909 28 24C28 26.2091 26.2091 28 24 28C21.7909 28 20 26.2091 20 24C20 23.8684 20.0064 23.7383 20.0188 23.61L10.9053 18.7495C10.1762 19.5196 9.1442 20 8 20C5.79086 20 4 18.2091 4 16C4 13.7909 5.79086 12 8 12C9.16569 12 10.2149 12.4986 10.946 13.2942L20.0868 8.83296C20.0299 8.56428 20 8.28563 20 8C20 5.79086 21.7909 4 24 4C26.2091 4 28 5.79086 28 8ZM10 16C10 17.1046 9.10457 18 8 18C6.89543 18 6 17.1046 6 16C6 14.8954 6.89543 14 8 14C9.10457 14 10 14.8954 10 16ZM24 26C25.1046 26 26 25.1046 26 24C26 22.8954 25.1046 22 24 22C22.8954 22 22 22.8954 22 24C22 25.1046 22.8954 26 24 26Z" fill="currentColor"/>
</svg>
