<svg width="32" height="32" viewBox="0 0 32 32" fill="none" xmlns="http://www.w3.org/2000/svg">
<path fill-rule="evenodd" clip-rule="evenodd" d="M7 3C5.89543 3 5 3.89543 5 5V7.42201C4.62402 7.69601 4.3349 8.08882 4.19184 8.55665L3.21361 11.7555C2.83415 12.8386 2.96316 13.8666 3.57744 14.6461C3.95065 15.1196 4.45413 15.4389 5 15.6253V27C5 28.1046 5.89543 29 7 29H25C26.1046 29 27 28.1046 27 27V15.6612C27.6646 15.359 28.2342 14.8696 28.5954 14.2614C29.0387 13.5151 29.1734 12.562 28.7141 11.6544L27.4355 8.39629C27.3329 8.13484 27.1838 7.90117 27 7.70322V5C27 3.89543 26.1046 3 25 3H7ZM25 7H7V5L25 5V7ZM7 27V15.7648C8.00904 15.5895 9.01822 15.0536 9.74528 14.1223C10.478 15.1414 11.5323 15.7653 12.6999 15.8379C13.9238 15.9139 15.0776 15.3745 15.9207 14.3349C16.1984 14.7242 16.519 15.0478 16.8792 15.3019C17.6669 15.8577 18.5624 16.0225 19.4106 15.9007C20.4938 15.7452 21.5048 15.1273 22.2209 14.2518C22.6544 14.8342 23.1581 15.2716 23.7138 15.5656C24.1367 15.7893 24.5714 15.92 25 15.9726V27H19.9996V20.5C19.9996 19.6716 19.328 19 18.4996 19H13.4996C12.6711 19 11.9996 19.6716 11.9996 20.5V27H7ZM13.9996 27H17.9996V21H13.9996V27ZM6.29566 9C6.20774 9 6.13012 9.05743 6.10441 9.14151L5.1132 12.3829L5.10548 12.4045C4.90529 12.9656 5.02752 13.2549 5.14823 13.4081C5.30097 13.6019 5.6225 13.7884 6.10658 13.8236C7.05733 13.8927 8.24769 13.344 8.65933 11.8986C8.75845 11.5506 8.99856 11.3391 9.19764 11.2309C9.39098 11.1258 9.58888 11.0896 9.75422 11.0878C9.91913 11.0859 10.1204 11.1175 10.3191 11.2214C10.5254 11.3293 10.7712 11.5432 10.8716 11.8964C11.2536 13.2409 12.1181 13.7978 12.8239 13.8417C13.5012 13.8838 14.4066 13.4721 14.9336 12.0521C15.1304 11.5217 15.6273 11.3216 16.0056 11.3319C16.3828 11.3423 16.8626 11.567 17.034 12.099C17.3117 12.9613 17.6914 13.4273 18.0322 13.6677C18.3649 13.9024 18.7362 13.977 19.1263 13.921C19.96 13.8013 20.8455 13.0762 21.161 12.1008C21.3364 11.5587 21.8254 11.3468 22.1847 11.3344C22.5434 11.3221 23.042 11.4989 23.2563 12.0219C23.6781 13.0519 24.2026 13.5615 24.649 13.7977C25.0939 14.0331 25.5536 14.0473 25.9598 13.9215C26.3817 13.7907 26.7096 13.5199 26.8759 13.24C27.0297 12.981 27.0342 12.7524 26.9207 12.5403L26.893 12.4885L25.5737 9.12694C25.5437 9.05037 25.4698 9 25.3875 9H6.29566Z" fill="currentColor"/>
</svg>
