<svg width="32" height="32" viewBox="0 0 32 32" fill="none" xmlns="http://www.w3.org/2000/svg">
<path fill-rule="evenodd" clip-rule="evenodd" d="M3 4.91803C3 4.41102 3.40505 4 3.90471 4H7.65057C8.28533 4 8.84318 4.42698 9.01756 5.0463L9.75691 7.67213H27.5779C28.4697 7.67213 29.1414 8.4957 28.9745 9.38469L27.1035 19.3519C26.9758 20.0323 26.3895 20.5246 25.7069 20.5246H9.59146C9.52008 20.5246 9.46222 20.5833 9.46222 20.6557V21.7049C9.46222 21.7773 9.52008 21.8361 9.59146 21.8361H24.0668C24.5665 21.8361 24.9715 22.2471 24.9715 22.7541C24.9715 23.2611 24.5665 23.6721 24.0668 23.6721H22.9294C23.3163 24.1306 23.5499 24.7262 23.5499 25.3771C23.5499 26.8257 22.3926 28 20.965 28C19.5374 28 18.3801 26.8257 18.3801 25.3771C18.3801 24.7262 18.6138 24.1306 19.0006 23.6721H13.6238C14.0106 24.1306 14.2442 24.7262 14.2442 25.3771C14.2442 26.8257 13.0869 28 11.6593 28C10.2318 28 9.07446 26.8257 9.07446 25.3771C9.07446 24.7262 9.30811 24.1306 9.69494 23.6721H9.59146C8.52077 23.6721 7.6528 22.7914 7.6528 21.7049V20.6557C7.6528 19.5693 8.52077 18.6885 9.59146 18.6885H10.514L8.19905 8.8227L7.35811 5.83607H3.90471C3.40505 5.83607 3 5.42505 3 4.91803ZM10.2199 9.5082L12.374 18.6885H25.3861L27.1093 9.5082H10.2199ZM11.6593 26.2514C12.1352 26.2514 12.521 25.8599 12.521 25.3771C12.521 24.8942 12.1352 24.5027 11.6593 24.5027C11.1835 24.5027 10.7977 24.8942 10.7977 25.3771C10.7977 25.8599 11.1835 26.2514 11.6593 26.2514ZM21.8266 25.3771C21.8266 25.8599 21.4409 26.2514 20.965 26.2514C20.4891 26.2514 20.1034 25.8599 20.1034 25.3771C20.1034 24.8942 20.4891 24.5027 20.965 24.5027C21.4409 24.5027 21.8266 24.8942 21.8266 25.3771Z" fill="currentColor"/>
</svg>
