<svg width="32" height="32" viewBox="0 0 32 32" fill="none" xmlns="http://www.w3.org/2000/svg">
<path fill-rule="evenodd" clip-rule="evenodd" d="M14.469 4.83414C15.1635 3.72195 16.8365 3.72195 17.531 4.83414L21.021 10.4233L27.6149 11.8951C28.9271 12.188 29.4441 13.7215 28.5612 14.7017L24.1242 19.6279L24.7094 26.1266C24.8259 27.4198 23.4724 28.3676 22.2322 27.8612L16 25.3166L9.76779 27.8612C8.52763 28.3676 7.17412 27.4198 7.29057 26.1266L7.87578 19.6279L3.43885 14.7017C2.55594 13.7215 3.07294 12.188 4.38507 11.8951L10.979 10.4233L14.469 4.83414ZM16 6.19925L12.6729 11.5274C12.4234 11.927 12.0165 12.2119 11.5451 12.3172L5.25906 13.7203L9.48883 18.4164C9.80601 18.7685 9.96146 19.2296 9.91962 19.6942L9.36173 25.8895L15.303 23.4637C15.7485 23.2818 16.2515 23.2818 16.697 23.4637L22.6383 25.8895L22.0804 19.6942C22.0385 19.2296 22.194 18.7685 22.5112 18.4164L26.7409 13.7203L20.4549 12.3172C19.9835 12.2119 19.5766 11.927 19.3271 11.5274L16 6.19925Z" fill="currentColor"/>
</svg>
