<svg width="32" height="32" viewBox="0 0 32 32" fill="none" xmlns="http://www.w3.org/2000/svg">
<path fill-rule="evenodd" clip-rule="evenodd" d="M28 16C28 22.6274 22.6274 28 16 28C9.37258 28 4 22.6274 4 16C4 9.37258 9.37258 4 16 4C22.6274 4 28 9.37258 28 16ZM30 16C30 23.732 23.732 30 16 30C8.26801 30 2 23.732 2 16C2 8.26801 8.26801 2 16 2C23.732 2 30 8.26801 30 16ZM21.7849 11.6196C22.1271 11.1861 22.0531 10.5573 21.6196 10.2151C21.1862 9.87288 20.5573 9.94686 20.2151 10.3803L13.4119 18.9977L11.7071 17.2929C11.3166 16.9023 10.6834 16.9023 10.2929 17.2929C9.90237 17.6834 9.90237 18.3166 10.2929 18.7071L12.3953 20.8095C13.0302 21.4444 14.0769 21.383 14.6333 20.6783L21.7849 11.6196Z" fill="currentColor"/>
</svg>
