<svg width="32" height="32" viewBox="0 0 32 32" fill="none" xmlns="http://www.w3.org/2000/svg">
<path fill-rule="evenodd" clip-rule="evenodd" d="M15.8533 11.394C15.8533 11.394 17.7513 11.394 19.0934 12.7361C19.0934 12.7361 20.4356 14.0783 20.4356 15.9763C20.4356 15.9763 20.4356 17.8744 19.0934 19.2165C19.0934 19.2165 17.7513 20.5586 15.8533 20.5586C15.8533 20.5586 13.9552 20.5586 12.6131 19.2165C12.6131 19.2165 11.2709 17.8744 11.2709 15.9763C11.2709 15.9763 11.2709 14.0783 12.6131 12.7361C12.6131 12.7361 13.9552 11.394 15.8533 11.394ZM15.8533 12.9214C15.8533 12.9214 14.5879 12.9214 13.6931 13.8162C13.6931 13.8162 12.7984 14.7109 12.7984 15.9763C12.7984 15.9763 12.7984 17.2417 13.6931 18.1364C13.6931 18.1364 14.5879 19.0312 15.8533 19.0312C15.8533 19.0312 17.1186 19.0312 18.0134 18.1364C18.0134 18.1364 18.9081 17.2417 18.9081 15.9763C18.9081 15.9763 18.9081 14.7109 18.0134 13.8162C18.0134 13.8162 17.1186 12.9214 15.8533 12.9214Z" fill="currentColor"/>
<path d="M7.12502 16.1465C8.17306 15.6225 9.3448 15.6245 9.3448 15.6245L9.34587 15.6245C9.35768 15.6245 9.3697 15.6242 9.38149 15.6237C9.57115 15.6148 9.75073 15.5357 9.88521 15.4017C10.0287 15.2587 10.1095 15.0646 10.1098 14.862L10.1098 14.861C10.1098 14.8148 10.1056 14.7685 10.0973 14.723C10.0309 14.3609 9.71555 14.0977 9.34736 14.097L9.34608 14.097C7.81312 14.0948 6.44193 14.7803 6.44193 14.7803C5.07066 15.466 4.15267 16.6938 4.15267 16.6938C4.05391 16.826 4.00004 16.9871 4.00004 17.1519L4.00008 17.1599C4.00044 17.1938 4.00305 17.2276 4.0079 17.2612C4.03688 17.4617 4.14431 17.6424 4.30655 17.7637C4.43857 17.8623 4.59895 17.9156 4.76376 17.9156C4.77397 17.9156 4.78418 17.9154 4.79439 17.915C5.02428 17.9058 5.23776 17.7934 5.3755 17.6091C6.07698 16.6706 7.12502 16.1465 7.12502 16.1465Z" fill="currentColor"/>
<path d="M18.6904 21.3743C19.9917 22.187 20.6652 23.5655 20.6652 23.5655L20.6659 23.5668C20.7939 23.8291 21.0603 23.9954 21.3521 23.9954L21.3731 23.9951C21.4821 23.9922 21.5892 23.9658 21.6872 23.918C21.9495 23.7899 22.1159 23.5236 22.1159 23.2317L22.1156 23.2108C22.1126 23.1018 22.0863 22.9946 22.0384 22.8966C21.1728 21.1243 19.4995 20.0788 19.4995 20.0788C17.8262 19.0337 15.8534 19.0337 15.8534 19.0337C13.8805 19.0337 12.2072 20.0788 12.2072 20.0788C10.5342 21.1236 9.66859 22.896 9.66859 22.896C9.6176 23.0004 9.59085 23.1156 9.59085 23.2317L9.59092 23.2416C9.59198 23.3228 9.60596 23.4033 9.63235 23.48C9.69821 23.6716 9.83746 23.8291 10.0195 23.918C10.1238 23.9689 10.2384 23.9954 10.3546 23.9954L10.3721 23.9952C10.6576 23.9887 10.9156 23.8234 11.0408 23.5668C11.7144 22.1874 13.0164 21.3743 13.0164 21.3743C14.3183 20.5611 15.8534 20.5611 15.8534 20.5611C17.3884 20.5611 18.6904 21.3743 18.6904 21.3743Z" fill="currentColor"/>
<path d="M11.0129 10.2371C11.4688 10.7224 11.5936 11.3763 11.5936 11.3763C11.6316 11.5753 11.7471 11.751 11.9146 11.8649C12.0412 11.9509 12.1907 11.9969 12.3438 11.9969L12.3488 11.9969C12.3952 11.9966 12.4414 11.992 12.487 11.9833C12.8471 11.9146 13.1075 11.5997 13.1075 11.2331L13.1075 11.2288C13.1073 11.1822 13.1027 11.1357 13.094 11.09C12.8859 10 12.1261 9.19128 12.1261 9.19128C11.3663 8.38257 10.2915 8.10698 10.2915 8.10698C9.21661 7.8314 8.16144 8.17478 8.16144 8.17478C7.10627 8.51815 6.39944 9.37355 6.39944 9.37355C5.69262 10.2289 5.55429 11.3299 5.55429 11.3299C5.41597 12.4309 5.88922 13.4346 5.88922 13.4346C6.36248 14.4382 7.29991 15.0319 7.29991 15.0319C8.23702 15.6255 9.34587 15.6245 9.34587 15.6245L9.34698 15.6245C9.54953 15.6243 9.74371 15.5437 9.88679 15.4003C10.0297 15.2571 10.1098 15.0633 10.1098 14.861C10.1094 14.4395 9.76757 14.097 9.34608 14.097C8.6803 14.0977 8.11719 13.7415 8.11719 13.7415C7.55473 13.3853 7.27078 12.7831 7.27078 12.7831C6.98682 12.1809 7.06982 11.5203 7.06982 11.5203C7.15281 10.8597 7.57691 10.3465 7.57691 10.3465C8.001 9.83327 8.6341 9.62724 8.6341 9.62724C9.26721 9.42121 9.91213 9.58657 9.91213 9.58657C10.5571 9.75192 11.0129 10.2371 11.0129 10.2371Z" fill="currentColor"/>
<path d="M24.875 16.1364C23.8269 15.6124 22.6552 15.6143 22.6552 15.6143L22.6542 15.6245C22.6424 15.6245 22.6303 15.614 22.6185 15.6135C22.4288 15.6047 22.2493 15.5256 22.1148 15.3915C21.9713 15.2485 21.8905 15.0544 21.8902 14.8519L21.8903 14.861C21.8903 14.8148 21.8944 14.7583 21.9027 14.7129C21.9691 14.3507 22.2844 14.0875 22.6526 14.0869L22.654 14.097C24.187 14.0948 25.5581 14.7702 25.5581 14.7702C26.9293 15.4558 27.8473 16.6837 27.8473 16.6837C27.9461 16.8158 28 16.9769 28 17.1418L27.9999 17.1498C27.9996 17.1836 27.997 17.2175 27.9921 17.251C27.9631 17.4515 27.8557 17.6322 27.6934 17.7535C27.5614 17.8522 27.401 17.9055 27.2362 17.9055C27.226 17.9055 27.2158 17.9053 27.2056 17.9049C26.9757 17.8956 26.7622 17.7833 26.6245 17.599C25.923 16.6604 24.875 16.1364 24.875 16.1364Z" fill="currentColor"/>
<path d="M20.9872 10.2371C20.5313 10.7224 20.4065 11.3763 20.4065 11.3763C20.3685 11.5753 20.253 11.751 20.0855 11.8649C19.9589 11.9509 19.8093 11.9969 19.6563 11.9969L19.6513 11.9969C19.6049 11.9966 19.5587 11.992 19.5131 11.9833C19.153 11.9146 18.8926 11.5997 18.8926 11.2331L18.8926 11.2288C18.8928 11.1822 18.8974 11.1357 18.9061 11.09C19.1142 10 19.8739 9.19128 19.8739 9.19128C20.6337 8.38257 21.7086 8.10698 21.7086 8.10698C22.7835 7.8314 23.8386 8.17478 23.8386 8.17478C24.8938 8.51815 25.6006 9.37355 25.6006 9.37355C26.3075 10.2289 26.4458 11.3299 26.4458 11.3299C26.5841 12.4309 26.1109 13.4346 26.1109 13.4346C25.6376 14.4382 24.7002 15.0319 24.7002 15.0319C23.7631 15.6255 22.6542 15.6245 22.6542 15.6245L22.6531 15.6245C22.4506 15.6243 22.2564 15.5437 22.1133 15.4003C21.9704 15.2571 21.8903 15.0633 21.8903 14.861C21.8907 14.4395 22.2325 14.097 22.654 14.097C23.3198 14.0977 23.8829 13.7415 23.8829 13.7415C24.4454 13.3853 24.7293 12.7831 24.7293 12.7831C25.0133 12.1809 24.9303 11.5203 24.9303 11.5203C24.8473 10.8597 24.4232 10.3465 24.4232 10.3465C23.9991 9.83327 23.366 9.62724 23.366 9.62724C22.7329 9.42121 22.088 9.58657 22.088 9.58657C21.443 9.75192 20.9872 10.2371 20.9872 10.2371Z" fill="currentColor"/>
</svg>
