<svg width="24" height="24" viewBox="0 0 24 24" fill="none" xmlns="http://www.w3.org/2000/svg">
<path fill-rule="evenodd" clip-rule="evenodd" d="M4.5 2.63513C4.5 2.00822 5.00368 1.5 5.625 1.5H18C18.6213 1.5 19.125 2.00822 19.125 2.63514V12C19.125 12.3135 18.8732 12.5676 18.5625 12.5676C18.2518 12.5676 18 12.3135 18 12V2.63514L5.625 2.63513V17.3919H13.5348C13.8116 15.1521 15.7052 13.4189 18 13.4189C20.4853 13.4189 22.5 15.4518 22.5 17.9595C22.5 20.4671 20.4853 22.5 18 22.5C15.7052 22.5 13.8116 20.7668 13.5348 18.527H5.625C5.00368 18.527 4.5 18.0188 4.5 17.3919V2.63513ZM18 21.6487C20.0193 21.6487 21.6562 19.997 21.6562 17.9595C21.6562 15.922 20.0193 14.2703 18 14.2703C15.9807 14.2703 14.3438 15.922 14.3438 17.9595C14.3438 19.997 15.9807 21.6487 18 21.6487ZM18.3093 15.8595C18.3093 15.6714 18.1582 15.5189 17.9718 15.5189C17.7854 15.5189 17.6343 15.6714 17.6343 15.8595V16.0488C17.5258 16.0702 17.4076 16.1051 17.2924 16.162C16.9927 16.31 16.7332 16.5982 16.691 17.0829C16.6741 17.2772 16.7002 17.4576 16.7775 17.6183C16.8546 17.7788 16.9713 17.8956 17.0974 17.9814C17.3248 18.1361 17.6211 18.2114 17.8492 18.2695L17.8492 18.2695L17.8712 18.2751C18.1344 18.3421 18.3268 18.3939 18.4609 18.479C18.5206 18.5169 18.556 18.5543 18.5779 18.5921C18.5982 18.6271 18.6171 18.6798 18.6187 18.7659C18.5996 19.004 18.4921 19.1034 18.3801 19.161C18.2427 19.2317 18.0793 19.2436 17.9971 19.2436C17.7088 19.2436 17.5333 19.1408 17.4301 19.05C17.3762 19.0026 17.3392 18.9558 17.3167 18.9229C17.3056 18.9065 17.2983 18.8941 17.2946 18.8874L17.292 18.8824C17.2127 18.7149 17.0145 18.6421 16.8467 18.7198C16.6773 18.7983 16.603 19.0004 16.6808 19.1714L16.9875 19.0293C16.6808 19.1714 16.6808 19.1715 16.6809 19.1717L16.6811 19.1721L16.6814 19.1729L16.6822 19.1745L16.6841 19.1786L16.6892 19.189C16.6933 19.197 16.6985 19.2071 16.705 19.2189C16.7181 19.2426 16.7364 19.2735 16.7608 19.3091C16.8093 19.3802 16.8827 19.4721 16.9866 19.5635C17.1392 19.6976 17.3523 19.8256 17.6343 19.8869V20.0808C17.6343 20.2688 17.7854 20.4213 17.9718 20.4213C18.1582 20.4213 18.3093 20.2688 18.3093 20.0808V19.8951C18.4255 19.8729 18.5575 19.8343 18.6868 19.7677C18.9895 19.6119 19.2589 19.3101 19.293 18.8C19.2935 18.7924 19.2937 18.7848 19.2937 18.7771C19.2937 18.5799 19.25 18.4023 19.1605 18.2481C19.0718 18.0952 18.9494 17.9844 18.8203 17.9025C18.5874 17.7546 18.2943 17.6802 18.0664 17.6223L18.0365 17.6147C17.7725 17.5474 17.5921 17.4965 17.4747 17.4166C17.4247 17.3826 17.3993 17.3512 17.3848 17.321C17.3703 17.291 17.3551 17.2381 17.3634 17.1424C17.3831 16.9165 17.4824 16.8264 17.589 16.7738C17.7206 16.7088 17.8835 16.6966 17.9971 16.6966C18.1977 16.6966 18.5207 16.7828 18.6825 17.0093C18.7916 17.1618 19.0025 17.1962 19.1537 17.0862C19.3049 16.9762 19.339 16.7633 19.23 16.6108C18.9836 16.2662 18.6119 16.1095 18.3093 16.0486V15.8595ZM2.8125 6.04054C3.12316 6.04054 3.375 6.29465 3.375 6.60811V19.6622H11.25C11.5607 19.6622 11.8125 19.9163 11.8125 20.2297C11.8125 20.5432 11.5607 20.7973 11.25 20.7973H3.375C2.75368 20.7973 2.25 20.2891 2.25 19.6622V6.60811C2.25 6.29465 2.50184 6.04054 2.8125 6.04054ZM7.875 7.81421C7.60317 7.81421 7.38281 8.03655 7.38281 8.31083C7.38281 8.58511 7.60317 8.80745 7.875 8.80745H15.75C16.0218 8.80745 16.2422 8.58511 16.2422 8.31083C16.2422 8.03655 16.0218 7.81421 15.75 7.81421H7.875ZM7.38281 11.1486C7.38281 10.8744 7.60317 10.652 7.875 10.652H15.75C16.0218 10.652 16.2422 10.8744 16.2422 11.1486C16.2422 11.4229 16.0218 11.6453 15.75 11.6453H7.875C7.60317 11.6453 7.38281 11.4229 7.38281 11.1486ZM7.875 13.4899C7.60317 13.4899 7.38281 13.7122 7.38281 13.9865C7.38281 14.2608 7.60317 14.4831 7.875 14.4831H11.8125C12.0843 14.4831 12.3047 14.2608 12.3047 13.9865C12.3047 13.7122 12.0843 13.4899 11.8125 13.4899H7.875Z" fill="currentColor"/>
</svg>
