<svg width="32" height="32" viewBox="0 0 32 32" fill="none" xmlns="http://www.w3.org/2000/svg">
<path fill-rule="evenodd" clip-rule="evenodd" d="M21.394 4.31776C21.8422 3.8948 22.5698 3.89398 23.0192 4.31592L27.4937 8.51791C28.1677 9.15083 28.169 10.1782 27.4966 10.8127L23.0328 15.0247C22.5846 15.4477 21.857 15.4485 21.4076 15.0266C20.9583 14.6046 20.9575 13.9197 21.4057 13.4967L24.3159 10.7506L5.15053 10.7723C4.51587 10.773 4.00076 10.2892 4 9.69181C3.99924 9.09437 4.51312 8.60947 5.14778 8.60876L24.3132 8.58713L21.396 5.84759C20.9466 5.42564 20.9458 4.74071 21.394 4.31776ZM10.6061 27.6822C10.1578 28.1052 9.43023 28.106 8.98092 27.6841L4.50634 23.482C3.83236 22.8491 3.83106 21.8217 4.50342 21.1873L8.96728 16.9751C9.41552 16.5522 10.1431 16.5514 10.5925 16.9733C11.0418 17.3953 11.0426 18.0802 10.5944 18.5032L7.71707 21.2182L26.8496 21.1966C27.4842 21.1959 27.9993 21.6797 28.0001 22.2771C28.0009 22.8745 27.487 23.3594 26.8523 23.3602L7.65387 23.3818L10.6041 26.1524C11.0535 26.5743 11.0543 27.2593 10.6061 27.6822Z" fill="currentColor"/>
</svg>
