<svg width="32" height="32" viewBox="0 0 32 32" fill="none" xmlns="http://www.w3.org/2000/svg">
<path fill-rule="evenodd" clip-rule="evenodd" d="M12 2C11.4477 2 11 2.44772 11 3C11 3.55228 11.4477 4 12 4H20C20.5523 4 21 3.55228 21 3C21 2.44772 20.5523 2 20 2H12ZM4 6C4 5.44772 4.44772 5 5 5H7.5H24.5H27C27.5523 5 28 5.44772 28 6C28 6.55228 27.5523 7 27 7H26V28.5C26 29.3284 25.3284 30 24.5 30H7.5C6.67157 30 6 29.3284 6 28.5V7H5C4.44772 7 4 6.55228 4 6ZM8 7H24V28H8V7ZM14 13C14 12.4477 13.5523 12 13 12C12.4477 12 12 12.4477 12 13V23C12 23.5523 12.4477 24 13 24C13.5523 24 14 23.5523 14 23V13ZM19 12C19.5523 12 20 12.4477 20 13V23C20 23.5523 19.5523 24 19 24C18.4477 24 18 23.5523 18 23V13C18 12.4477 18.4477 12 19 12Z" fill="currentColor"/>
</svg>
