<svg width="32" height="32" viewBox="0 0 32 32" fill="none" xmlns="http://www.w3.org/2000/svg">
<path fill-rule="evenodd" clip-rule="evenodd" d="M7.60603 6C6.99184 6 6.48744 6.50017 6.46384 7.13261L6.41086 8.55208H0.571517C0.255877 8.55208 0 8.81576 0 9.14102C0 9.46629 0.255877 9.72997 0.571517 9.72997H6.3669L6.32293 10.9079H2.85745C2.54181 10.9079 2.28594 11.1715 2.28594 11.4968C2.28594 11.8221 2.54181 12.0858 2.85745 12.0858H6.27897L6.23501 13.2636H4.00049C3.68485 13.2636 3.42897 13.5273 3.42897 13.8525C3.42897 14.1778 3.68485 14.4415 4.00049 14.4415H6.19105L5.92163 21.6598C5.89671 22.3276 6.41531 22.883 7.06382 22.883H8.5511C8.46827 24.2983 9.23062 25.58 10.4511 25.917C11.8739 26.3099 13.3805 25.27 13.8162 23.5944C13.8781 23.356 13.9151 23.1177 13.9288 22.883H23.7915C23.7087 24.2983 24.4711 25.58 25.6915 25.917C27.1143 26.3098 28.6209 25.2699 29.0566 23.5943C29.1185 23.356 29.1555 23.1177 29.1692 22.883H30.5044C31.1077 22.883 31.6071 22.3998 31.6451 21.7793L31.9977 16.0211C32.0093 15.8327 31.9767 15.6441 31.9027 15.4714L29.1829 9.12011C29.0001 8.69321 28.59 8.41776 28.1372 8.41776H22.7081L22.7637 7.23482C22.7952 6.56272 22.2749 6 21.622 6H7.60603ZM27.2693 19.849C26.1095 19.5287 24.8941 20.1605 24.2484 21.3125H21.9561L22.6253 9.98827H27.8889L28.2826 10.9078H25.7182C25.0869 10.9078 24.5752 11.4352 24.5752 12.0857V15.6194C24.5752 16.2699 25.0869 16.7973 25.7182 16.7973H30.4231L30.1466 21.3125H28.893C28.5752 20.5995 28.0056 20.0523 27.2693 19.849ZM30.1321 15.2267L28.9552 12.4783H26.0992V15.2267H30.1321ZM13.6526 21.3125H20.4293L20.6381 17.7788H7.59166L7.45977 21.3125H9.00797C9.65373 20.1605 10.8691 19.5288 12.0289 19.849C12.7652 20.0523 13.3348 20.5995 13.6526 21.3125ZM7.65027 16.2083L7.97267 7.57051H21.2221L21.1474 9.16024L20.7309 16.2083H7.65027ZM12.3441 23.1879C12.0751 24.2223 11.2768 24.5191 10.8455 24.4C10.4142 24.2809 9.86691 23.6126 10.1359 22.5782C10.4049 21.5437 11.2031 21.2469 11.6344 21.366C12.0657 21.4851 12.613 22.1535 12.3441 23.1879ZM26.0859 24.4C26.5172 24.519 27.3155 24.2223 27.5845 23.1878C27.8534 22.1534 27.3061 21.4851 26.8748 21.366C26.4436 21.2469 25.6453 21.5437 25.3763 22.5781C25.1073 23.6125 25.6547 24.2809 26.0859 24.4Z" fill="currentColor"/>
</svg>
