<svg width="32" height="32" viewBox="0 0 32 32" fill="none" xmlns="http://www.w3.org/2000/svg">
<path fill-rule="evenodd" clip-rule="evenodd" d="M5.6 28C4.71634 28 4 27.2837 4 26.4L4 16C4 15.4477 4.44772 15 5 15C5.55228 15 6 15.4477 6 16L6 26L26 26V16C26 15.4477 26.4477 15 27 15C27.5523 15 28 15.4477 28 16V26.4C28 27.2837 27.2837 28 26.4 28L5.6 28ZM16 22C15.4477 22 15 21.5523 15 21L15 7.18993L9.15492 12.2557C8.73756 12.6174 8.106 12.5723 7.7443 12.1549C7.38259 11.7376 7.4277 11.106 7.84505 10.7443L14.9383 4.59684C15.016 4.52949 15.0985 4.47088 15.1846 4.42097C15.3658 4.16619 15.6635 4 16 4C16.3488 4 16.6559 4.17859 16.8349 4.44933C16.9191 4.50214 16.9996 4.56353 17.0749 4.63347L23.6804 10.7672C24.0851 11.143 24.1086 11.7757 23.7328 12.1804C23.357 12.5851 22.7242 12.6086 22.3195 12.2328L17 7.29321V21C17 21.5523 16.5523 22 16 22Z" fill="currentColor"/>
</svg>
