<svg width="32" height="32" viewBox="0 0 32 32" fill="none" xmlns="http://www.w3.org/2000/svg">
<path fill-rule="evenodd" clip-rule="evenodd" d="M20 10C20 12.2091 18.2091 14 16 14C13.7909 14 12 12.2091 12 10C12 7.79086 13.7909 6 16 6C18.2091 6 20 7.79086 20 10ZM22 10C22 13.3137 19.3137 16 16 16C12.6863 16 10 13.3137 10 10C10 6.68629 12.6863 4 16 4C19.3137 4 22 6.68629 22 10ZM6.27333 22.4615C7.23196 22.0756 8.86781 21.4553 10.6771 20.9328C12.5024 20.4057 14.4316 20 16 20C17.5684 20 19.4976 20.4057 21.3229 20.9328C23.1322 21.4553 24.768 22.0756 25.7267 22.4615C25.8843 22.5249 26 22.6842 26 22.8864V25.5C26 25.7761 25.7761 26 25.5 26H6.5C6.22386 26 6 25.7761 6 25.5V22.8864C6 22.6842 6.11567 22.5249 6.27333 22.4615ZM16 18C14.1478 18 12.0035 18.4681 10.1222 19.0114C8.22488 19.5593 6.52096 20.2059 5.52653 20.6061C4.58202 20.9863 4 21.9004 4 22.8864V25.5C4 26.8807 5.11929 28 6.5 28H25.5C26.8807 28 28 26.8807 28 25.5V22.8864C28 21.9004 27.418 20.9863 26.4735 20.6061C25.479 20.2059 23.7751 19.5593 21.8778 19.0114C19.9965 18.4681 17.8522 18 16 18Z" fill="currentColor"/>
</svg>
