<svg width="32" height="32" viewBox="0 0 32 32" fill="none" xmlns="http://www.w3.org/2000/svg">
<path fill-rule="evenodd" clip-rule="evenodd" d="M17.4472 5.10402L16.6106 6.72539L18.4821 7.57173C19.2182 7.90462 19.5471 8.74486 19.224 9.46712L18.7229 10.5874H22.6263L23.7094 8.13833L17.4472 5.10402ZM24.8022 10.5874L25.7334 8.48187C26.0463 7.77444 25.7359 6.9533 25.0255 6.6091L17.8944 3.15378C17.1534 2.79475 16.2524 3.0858 15.8819 3.80386L14.7976 5.90546L11.8581 4.57609C11.1286 4.24621 10.2605 4.53309 9.89108 5.22613L7.11152 10.44C7.08584 10.4882 7.06473 10.5375 7.04805 10.5874H6C4.89543 10.5874 4 11.4552 4 12.5256V27.0618C4 28.1322 4.89543 29 6 29H26C27.1046 29 28 28.1322 28 27.0618V12.5256C28 11.4552 27.1046 10.5874 26 10.5874H24.8022ZM9.28407 10.5874H16.5481C16.558 10.5578 16.5694 10.5285 16.5825 10.4994L17.1956 9.12873L11.4475 6.52924L9.28407 10.5874ZM6 12.5256H26V15.4328H20.5C19.6716 15.4328 19 16.0836 19 16.8864V22.7009C19 23.5038 19.6716 24.1546 20.5 24.1546H26V27.0618H6L6 12.5256ZM21 17.371H26V22.2164H21V17.371ZM23.5 20.7628C24.0523 20.7628 24.5 20.3289 24.5 19.7937C24.5 19.2585 24.0523 18.8246 23.5 18.8246C22.9477 18.8246 22.5 19.2585 22.5 19.7937C22.5 20.3289 22.9477 20.7628 23.5 20.7628Z" fill="currentColor"/>
</svg>
