<svg width="32" height="32" viewBox="0 0 32 32" fill="none" xmlns="http://www.w3.org/2000/svg">
<path fill-rule="evenodd" clip-rule="evenodd" d="M25.2126 6.77868C22.7666 4.34381 19.5166 3 16.055 3C8.92025 3 3.11003 8.77965 3.11003 15.882C3.10579 18.1526 3.70247 20.3684 4.83659 22.3231L3 29L9.86393 27.2054C11.7513 28.2333 13.8841 28.7725 16.0508 28.7767H16.055C23.1898 28.7767 28.9958 22.9971 29 15.8905C29 12.4488 27.6543 9.21354 25.2126 6.77868ZM16.055 26.5988H16.0508C14.1211 26.5988 12.2253 26.0807 10.5749 25.1076L10.1813 24.8759L6.10612 25.9375L7.19369 21.9861L6.93978 21.5817C5.86068 19.8756 5.29362 17.9041 5.29362 15.882C5.29362 9.98023 10.1221 5.1779 16.0592 5.1779C18.9326 5.1779 21.6325 6.29423 23.6637 8.31627C25.695 10.3425 26.8122 13.0301 26.8122 15.8905C26.8122 21.7965 21.9837 26.5988 16.055 26.5988ZM21.9541 18.5781C21.6325 18.418 20.0413 17.6387 19.7451 17.5334C19.4489 17.4238 19.2331 17.3733 19.0173 17.6935C18.8014 18.0178 18.1836 18.7424 17.9932 18.9572C17.807 19.1679 17.6165 19.1973 17.2949 19.0373C16.9691 18.8772 15.9281 18.536 14.6924 17.4365C13.7318 16.5855 13.0801 15.5282 12.8939 15.208C12.7035 14.8837 12.8727 14.711 13.0335 14.5509C13.1816 14.4076 13.3594 14.176 13.5202 13.9864C13.681 13.801 13.736 13.6662 13.846 13.4514C13.9518 13.2366 13.8968 13.047 13.8164 12.8869C13.736 12.7268 13.0885 11.1387 12.8177 10.4942C12.5553 9.86649 12.2887 9.95496 12.0898 9.94232C11.9036 9.9339 11.6878 9.9339 11.472 9.9339C11.2562 9.9339 10.9049 10.0139 10.6087 10.3383C10.3125 10.6585 9.47884 11.4378 9.47884 13.0217C9.47884 14.6056 10.6383 16.139 10.7992 16.3539C10.96 16.5645 13.0801 19.8166 16.3258 21.211C17.096 21.5437 17.6969 21.7417 18.1667 21.8892C18.9411 22.1335 19.6478 22.0998 20.2064 22.0198C20.8285 21.9271 22.1191 21.2404 22.39 20.4864C22.6566 19.7366 22.6566 19.092 22.5762 18.9572C22.4958 18.8224 22.2799 18.7424 21.9541 18.5781Z" fill="currentColor"/>
</svg>
