<svg width="32" height="32" viewBox="0 0 32 32" fill="none" xmlns="http://www.w3.org/2000/svg">
<path fill-rule="evenodd" clip-rule="evenodd" d="M16.4014 7.22973L16.6536 7.61424L16.954 8.06276L17.2969 8.56282L17.5463 8.91866L17.8103 9.28815L18.0873 9.6676L18.3755 10.0533L18.6733 10.4416C18.7237 10.5063 18.7743 10.571 18.8253 10.6355L19.1343 11.0207L19.4487 11.3992C20.5563 12.7078 21.731 13.8256 22.6465 14.0389C23.1867 14.1665 24.0881 13.9021 25.0129 13.5164L25.3833 13.3562C25.445 13.3287 25.5066 13.3008 25.5679 13.2725L25.933 13.1002L26.2886 12.9245L26.6299 12.7493L27.1044 12.4959C27.1541 12.4688 27.2028 12.4421 27.2502 12.4159C27.6177 12.2124 28.0438 12.5191 27.9964 12.9186L27.984 12.9859L25.2161 24.0721C25.0881 24.5832 24.651 24.9515 24.1355 24.9956L24.0314 25H7.9722C7.42408 25 6.94201 24.6482 6.76848 24.1349L6.73796 24.0301L4.01572 12.9813C3.91508 12.574 4.31623 12.2365 4.68791 12.3841L4.7495 12.4132L5.20608 12.6607L5.53852 12.8343L5.88778 13.0105L6.24903 13.1852L6.61746 13.3548C7.66696 13.824 8.7448 14.1837 9.35752 14.0389C10.171 13.846 11.2017 12.9126 12.2063 11.7674L12.5224 11.3993L12.835 11.0209C12.8867 10.9571 12.9383 10.8931 12.9895 10.8289L13.2938 10.4418L13.5904 10.0536L13.8776 9.66788L14.1536 9.28845L14.5432 8.73913L14.8982 8.2247L15.3974 7.47872L15.5598 7.23011C15.7585 6.92336 16.2027 6.92336 16.4014 7.22973ZM21.6361 19.8195H18.7612C18.5983 19.8195 18.465 19.9489 18.4575 20.1118C18.3603 22.1919 21.0448 23.1442 21.9277 20.2102C21.9801 20.0355 21.8661 19.8588 21.6951 19.8252L21.6361 19.8195ZM16.5402 16.7501C16.0811 16.7501 15.7085 17.1236 15.7085 17.5845C15.7085 18.0454 16.0811 18.4189 16.5402 18.4189C16.9994 18.4189 17.372 18.0454 17.372 17.5845C17.372 17.1236 16.9994 16.7501 16.5402 16.7501ZM22.5442 16.7501C22.0851 16.7501 21.7125 17.1236 21.7125 17.5845C21.7125 18.0454 22.0851 18.4189 22.5442 18.4189C23.0034 18.4189 23.3759 18.0454 23.3759 17.5845C23.3759 17.1236 23.0034 16.7501 22.5442 16.7501Z" fill="currentColor"/>
</svg>
