<svg width="32" height="32" viewBox="0 0 32 32" fill="none" xmlns="http://www.w3.org/2000/svg">
<path fill-rule="evenodd" clip-rule="evenodd" d="M23.6234 7C23.6805 7 23.738 7.02612 23.7661 7.02612H23.7946L23.881 7.05223C23.881 7.07875 23.9092 7.07875 23.9092 7.07875L23.9952 7.13058C23.9952 7.1571 24.0237 7.1571 24.0237 7.1571L24.1093 7.23545L27.9137 12.7299V12.7556C27.943 12.7821 27.9711 12.8078 27.9711 12.8343V12.8604C28 12.9131 28 12.9388 28 12.9914V13.1485C28 13.2003 28 13.2269 27.9711 13.253V13.2795C27.9524 13.314 27.9331 13.3372 27.9138 13.3565L16.4721 24.8429L16.3572 24.9477H16.329C16.3001 24.9477 16.3001 24.9738 16.272 24.9738C16.272 24.9913 16.2591 24.9971 16.2505 24.999L15.7857 25C15.7857 24.9825 15.773 24.9767 15.7645 24.9748C15.7282 24.9738 15.7282 24.9477 15.7001 24.9477H15.6426L15.5566 24.8694L4.11466 13.4101L4.02905 13.3056V13.2795C4.02905 13.2269 4.00012 13.2003 4.00012 13.1742V13.0175C4.00012 12.9657 4.00012 12.9388 4.02905 12.8862V12.8604L4.08612 12.7821V12.7556L7.89124 7.26156L7.97646 7.18282L7.98386 7.16472L8.005 7.1571L8.06218 7.11621C8.07175 7.10754 8.08135 7.09603 8.091 7.07875C8.091 7.06107 8.1035 7.05518 8.11184 7.05322L8.20553 7.02612H8.23407C8.27212 7.00871 8.29748 7.0029 8.32708 7.00097L23.6234 7ZM18.5228 13.5668H13.5063C13.2491 13.5668 13.0673 13.8228 13.1494 14.0697L15.6575 21.623C15.7724 21.9692 16.2563 21.9692 16.3713 21.623L18.8793 14.0697C18.9614 13.8228 18.78 13.5668 18.5228 13.5668ZM11.5103 13.5668H6.77676C6.44018 13.5668 6.27248 13.9799 6.51211 14.2193L13.6013 21.31C13.8831 21.5917 14.3491 21.2977 14.2224 20.917L11.8672 13.8264C11.8156 13.6716 11.6721 13.5668 11.5103 13.5668ZM25.2523 13.5668H20.5184C20.3566 13.5668 20.2131 13.6716 20.1615 13.8264L17.8059 20.917C17.6796 21.2977 18.1456 21.5917 18.4274 21.31L25.517 14.2193C25.7562 13.9799 25.5889 13.5668 25.2523 13.5668ZM8.06871 8.96152L6.018 11.9202C5.84287 12.1727 6.02113 12.5205 6.32604 12.5205H10.4271C10.732 12.5205 10.9106 12.1727 10.7355 11.9202L8.68479 8.96192C8.53507 8.74586 8.21843 8.74586 8.06871 8.96152ZM23.3443 8.98408L21.2963 11.919C21.1204 12.1719 21.2987 12.5205 21.604 12.5205H25.6995C26.0052 12.5205 26.1835 12.1719 26.0072 11.919L23.9596 8.98408C23.8095 8.76881 23.4944 8.76881 23.3443 8.98408ZM15.7071 8.96073L13.2569 12.494H18.0623C18.3672 12.494 18.5459 12.1458 18.3696 11.8933L16.3228 8.95955C16.1727 8.74428 15.8568 8.74468 15.7071 8.96073ZM14.2572 8.07237H10.162C9.85674 8.07237 9.67848 8.42099 9.85478 8.67345L11.9024 11.6088C12.0525 11.8237 12.3676 11.8237 12.5177 11.6088L14.5649 8.67345C14.7412 8.42099 14.5629 8.07237 14.2572 8.07237ZM21.8667 8.07237H17.7715C17.4658 8.07237 17.2875 8.42099 17.4635 8.67345L19.5114 11.6088C19.6615 11.8237 19.9766 11.8237 20.1267 11.6088L22.1743 8.67345C22.3502 8.42099 22.172 8.07237 21.8667 8.07237Z" fill="currentColor"/>
</svg>
