<svg width="32" height="32" viewBox="0 0 32 32" fill="none" xmlns="http://www.w3.org/2000/svg">
<path fill-rule="evenodd" clip-rule="evenodd" d="M5.45194 7.07662C6.47379 6.76642 7.03744 7.4598 7.36159 8.05142L7.45624 8.23358L7.63118 8.60243C7.69065 8.72766 7.75012 8.8463 7.80259 8.93198C8.07893 9.38017 8.46371 9.79869 9.00939 10.2571C9.105 10.336 9.22083 10.415 9.34131 10.4921L9.60055 10.6522C9.97234 10.8757 10.3313 11.1035 10.6091 11.4151L10.7409 11.5783L11.465 9.39665C11.7392 8.56563 12.5719 8.04621 13.3649 8.17984L13.5043 8.21027L20.4863 10.1348C21.2816 10.3537 21.7191 11.1694 21.516 12.0087L21.4762 12.1487L21.0984 13.2916C21.3477 13.1905 21.6048 13.1281 21.852 13.077L22.1304 13.0217C22.3612 12.9788 22.6026 12.9327 22.795 12.8638C23.3766 12.663 23.8401 12.4454 24.2316 12.188L24.4215 12.0558C24.4793 12.0146 24.5405 11.9636 24.6043 11.9068L24.934 11.6027L25.0851 11.47L25.2543 11.3328C25.7875 10.922 26.5431 10.5525 27.3144 11.1433C27.8286 11.542 28.0769 12.1187 27.979 12.6921C27.8985 13.1568 27.6082 13.6709 27.1814 14.0996C27.0205 14.2608 26.8456 14.4091 26.6637 14.5379C26.8212 14.765 26.9051 15.0355 26.9051 15.3384C26.9051 16.4237 25.5729 16.9384 24.7703 17.0033L24.565 17.0128C24.439 17.0158 24.3096 17.0158 24.1907 17.0095C24.1277 17.2531 23.9773 17.5335 23.666 17.8034C23.3721 18.0638 22.9804 18.2055 22.5396 18.2055C21.7631 18.2055 21.053 17.7935 20.7556 17.553C20.4583 17.3088 20.2387 17.0139 20.0847 16.7583L20.0001 16.6105L17.6389 23.7584C17.3639 24.5985 16.5269 25.1216 15.7257 24.9756L15.5926 24.9451L8.61062 23.0301C7.82192 22.8084 7.38169 21.9863 7.5844 21.1523L7.62419 21.0132L9.56907 15.1308C9.38368 15.2395 9.19828 15.3252 9.01289 15.3882C8.74005 15.4768 8.36926 15.5394 7.98448 15.5394C7.66616 15.5394 7.34085 15.4966 7.05402 15.3944C6.63775 15.2428 6.32643 14.9762 6.15153 14.6299C5.97314 14.2608 5.94865 13.9444 5.99063 13.694L5.73527 13.6053L5.52889 13.5229C4.79431 13.2326 3.63998 12.2608 4.10871 11.1897C4.23114 10.906 4.42353 10.6753 4.66839 10.5138C4.54596 10.3227 4.44102 10.1187 4.35357 9.91074C4.13319 9.36039 4.07373 8.78039 4.18217 8.31243C4.32209 7.73243 4.79781 7.27435 5.45194 7.07662ZM15.2309 11.2411C13.8465 10.8571 12.3965 11.5595 11.9101 12.82L11.8564 12.9739L10.2575 18.0875C9.84985 19.3917 10.5955 20.7581 11.9334 21.2164L12.0967 21.267L13.9293 21.7758C15.3137 22.1595 16.7638 21.4571 17.2505 20.1969L17.3042 20.043L18.9028 14.9291C19.3104 13.6248 18.5648 12.2587 17.2269 11.8002L17.0635 11.7496L15.2309 11.2411ZM15.1743 12.8091C15.2542 12.5377 15.5306 12.3922 15.8325 12.4668C16.0969 12.5371 16.2521 12.7469 16.2246 12.9801L16.2056 13.0684L16.1048 13.3987C17.0521 13.7175 17.5886 14.653 17.3205 15.545C17.2365 15.8128 16.9516 15.9541 16.6497 15.8874C16.3891 15.8211 16.2343 15.6088 16.2618 15.3744L16.2809 15.2857C16.4048 14.8794 16.1784 14.4695 15.7606 14.313L15.6523 14.2792L15.0443 14.1298C14.5245 14.0003 13.9966 14.2717 13.8541 14.7432C13.7396 15.0973 13.8886 15.4835 14.2063 15.6984L14.3066 15.7575L15.4675 16.351C16.2725 16.7719 16.6832 17.6328 16.4235 18.4702C16.1612 19.3342 15.2485 19.888 14.3047 19.8265L14.1473 19.8105L14.0469 20.1369C13.9628 20.4047 13.678 20.558 13.3928 20.4792C13.1244 20.413 12.9687 20.2005 12.9906 19.9662L13.0072 19.8776L13.108 19.5512C12.1688 19.2249 11.6322 18.2933 11.9007 17.3974C11.9847 17.1296 12.2779 16.9841 12.5714 17.0586C12.8324 17.1287 12.987 17.3419 12.9593 17.573L12.9403 17.6603C12.8164 18.0632 13.0427 18.4695 13.4605 18.6253L13.5689 18.6589L14.1727 18.8126C14.6922 18.9499 15.2203 18.6746 15.3629 18.2028C15.4694 17.849 15.327 17.4728 15.0105 17.2506L14.9104 17.1888L13.7533 16.595C12.9487 16.1705 12.538 15.3096 12.7977 14.48C13.0599 13.6123 13.9614 13.0692 14.9144 13.1246L15.0736 13.1394L15.1743 12.8091ZM26.7022 11.8024C26.4293 11.5914 26.1425 11.7134 25.4814 12.323C25.331 12.4647 25.1736 12.6167 25.0127 12.7317C24.5019 13.1041 23.9038 13.404 23.1307 13.6709C22.9582 13.7324 22.7763 13.7763 22.5944 13.8135L22.2947 13.8719C22.0009 13.9299 21.7227 13.9837 21.4799 14.0788L21.3048 14.1586L20.7136 15.9514L20.779 16.0982C20.8828 16.3136 21.0832 16.6617 21.3852 16.9104C21.6056 17.0883 22.1093 17.3424 22.5396 17.3424C22.7355 17.3424 22.8894 17.2893 23.0118 17.1839C23.1692 17.0466 23.2586 16.9049 23.282 16.7564L23.2881 16.6566L23.2423 16.51C23.1753 16.2961 23.3422 16.0889 23.5655 16.0782L23.6418 16.0822L23.8233 16.1096C23.9598 16.1318 24.108 16.1448 24.2739 16.1499L24.446 16.1524C24.474 16.1524 24.4984 16.1524 24.5264 16.1491L24.5824 16.1487L24.6384 16.1458C25.0896 16.1329 25.9571 15.836 25.9571 15.3384C25.9571 15.1572 25.9046 15.0217 25.7927 14.9235L25.7261 14.8715L25.7018 14.8569L25.5419 14.7838C25.3011 14.6734 25.2719 14.3733 25.4605 14.219L25.5314 14.1735L25.6878 14.096C25.9711 13.9543 26.2439 13.7566 26.4818 13.5193C26.7826 13.2161 26.9925 12.8569 27.045 12.557C27.0905 12.2802 26.968 12.0067 26.7022 11.8024ZM6.70068 8.81663C6.32639 8.00297 6.10602 7.78844 5.74923 7.89422C5.41342 7.99605 5.17555 8.22047 5.1056 8.4973C5.03564 8.80345 5.08461 9.22197 5.24202 9.61414C5.36095 9.90743 5.53585 10.1908 5.74573 10.4281C5.94164 10.6529 5.84422 10.9837 5.57389 11.0913L5.49597 11.1149L5.37688 11.1414L5.32947 11.1564C5.17555 11.219 5.06362 11.3311 4.98666 11.509C4.7899 11.9573 5.40171 12.4977 5.83059 12.6993L6.00589 12.773L6.08153 12.8009L6.09553 12.8042C6.23311 12.8569 6.36448 12.8994 6.49896 12.9345L6.75 12.9917C7.04307 13.0521 7.17596 13.362 7.03225 13.5932L6.97702 13.6643L6.97002 13.6841C6.88957 13.8554 6.90706 14.0532 7.0155 14.274C7.08546 14.419 7.21488 14.5244 7.40377 14.5939C7.81304 14.7386 8.4007 14.6727 8.68754 14.5771C8.89182 14.5086 9.10506 14.3936 9.32188 14.2357L9.48508 14.1092L9.51306 14.0861L10.1007 12.3029C10.0727 12.2344 10.0413 12.1784 10.0098 12.1253C9.84187 11.8657 9.56603 11.6686 9.24393 11.4723L9.07931 11.3739L8.99186 11.3179C8.78198 11.1897 8.56161 11.0543 8.36922 10.8928C7.75008 10.3721 7.30583 9.88436 6.98052 9.35709C6.90356 9.23515 6.8371 9.09674 6.76714 8.94845L6.70068 8.81663Z" fill="currentColor"/>
</svg>
