<svg width="32" height="32" viewBox="0 0 32 32" fill="none" xmlns="http://www.w3.org/2000/svg">
<path fill-rule="evenodd" clip-rule="evenodd" d="M26.679 19.6501C26.7996 19.6594 26.9067 19.713 26.9819 19.8C27.0387 19.8656 27.0733 19.946 27.0831 20.0322L27.0846 20.12L27.0778 20.2056C27.6012 20.3451 27.9799 20.8174 27.9992 21.3545L27.9972 21.4795C27.9781 21.7246 27.7804 21.9017 27.525 21.8883C27.4006 21.8787 27.2931 21.8255 27.2179 21.738C27.1614 21.6725 27.1269 21.592 27.1171 21.506L27.1156 21.4184C27.1281 21.2433 27.0164 21.0918 26.8523 21.0472L26.779 21.0349L26.4292 21.0103C26.3217 21.0017 26.2183 21.0371 26.1386 21.1063C26.058 21.1759 26.0097 21.2737 26.0022 21.3812C25.9884 21.5397 26.0715 21.6897 26.2059 21.765L26.2771 21.7961L26.9838 22.0252C27.5456 22.2105 27.9066 22.7478 27.8624 23.3319C27.8234 23.8895 27.4248 24.346 26.8964 24.4775L26.7722 24.502L26.7655 24.5924C26.7557 24.7152 26.7003 24.8238 26.6101 24.9001C26.5519 24.9489 26.483 24.9808 26.4096 24.9937L26.3348 25.0001L26.2966 24.9987C26.0766 24.9828 25.9113 24.8235 25.8862 24.6145L25.8835 24.534L25.8903 24.4439C25.3222 24.2892 24.9353 23.7609 24.9746 23.1659C24.9844 23.045 25.039 22.9383 25.1289 22.8627C25.218 22.7876 25.3304 22.7515 25.4529 22.7612C25.6716 22.7787 25.8361 22.9435 25.8566 23.1516L25.8573 23.2314C25.8502 23.3259 25.8802 23.4171 25.9416 23.4874C25.9888 23.5418 26.0507 23.5797 26.1206 23.5981L26.1929 23.6098L26.5427 23.6351C26.652 23.6437 26.7539 23.6109 26.834 23.5432C26.9145 23.474 26.9632 23.3762 26.9707 23.2683C26.9816 23.1101 26.8993 22.9618 26.7649 22.8846L26.6936 22.8523L25.9891 22.6246C25.4259 22.4338 25.0652 21.8965 25.1106 21.3172C25.1492 20.7655 25.5478 20.3091 26.0765 20.1743L26.2007 20.149L26.2075 20.0571C26.2161 19.9366 26.2685 19.8283 26.355 19.7535C26.4419 19.678 26.5569 19.6438 26.679 19.6501ZM15.9098 7.71343C20.6487 7.71938 24.4903 11.5351 24.4944 16.2423C24.4944 20.9535 20.6513 24.7715 15.9098 24.7715C11.1682 24.7715 7.32434 20.9535 7.32434 16.2423C7.32434 11.5318 11.1682 7.71343 15.9098 7.71343ZM9.66572 16.2423C9.45075 16.2423 9.27549 16.4156 9.27549 16.6299C9.27549 19.0527 10.7837 20.7063 12.4545 21.6L12.6407 21.6961C13.1915 23.5755 14.3939 24.3217 15.7407 24.3807L15.9098 24.3846C17.6489 24.3846 18.9578 23.3253 19.1219 21.7791C21.0599 21.009 22.544 19.4054 22.544 16.6299C22.544 16.5176 22.4965 16.4108 22.4111 16.3375C22.3261 16.2627 22.2119 16.2293 22.0995 16.2471C20.0457 16.5005 17.9789 16.6285 15.9098 16.6299C14.3584 16.6265 12.8081 16.5503 11.2635 16.4014L9.82323 16.2506L9.66572 16.2423ZM17.7133 17.7265C18.0653 17.7265 18.3567 17.9726 18.4067 18.2933L18.4143 18.3916V20.985C18.4143 22.3243 17.2695 23.4107 15.8573 23.4107C14.6338 23.4107 13.6325 22.5089 13.5512 21.3681L13.5458 21.2181V18.3365C13.5458 18.0303 13.7838 17.7767 14.0939 17.7331L14.1889 17.7265H17.7133ZM18.8743 9.61274C18.7286 9.61572 18.5961 9.6719 18.5009 9.77123C18.4254 9.85011 18.3782 9.9516 18.3639 10.063L18.3594 10.1481L18.3612 10.2292C17.7077 10.4033 17.2449 11.0001 17.2617 11.6784C17.2722 12.3017 17.683 12.8459 18.2794 13.0448L18.4099 13.0821L19.2237 13.2637C19.4151 13.3094 19.5522 13.4787 19.5574 13.674C19.5604 13.789 19.5188 13.8965 19.4402 13.9772C19.3826 14.0367 19.3094 14.0762 19.2279 14.0928L19.1439 14.1015L18.7481 14.1108C18.6504 14.1112 18.5466 14.0762 18.4736 14.0066C18.4205 13.9561 18.3845 13.8918 18.369 13.8209L18.3605 13.7481C18.3562 13.4908 18.1743 13.2855 17.9306 13.2431L17.8268 13.235C17.683 13.2369 17.5497 13.293 17.452 13.3935C17.355 13.4928 17.3029 13.6253 17.3052 13.7685C17.323 14.4012 17.7502 14.9305 18.3406 15.1005L18.4695 15.1313L18.4713 15.2102C18.4823 15.4682 18.6638 15.667 18.9075 15.708L19.0132 15.7158C19.1514 15.7147 19.2799 15.6608 19.3754 15.5637C19.4545 15.483 19.5043 15.3802 19.5198 15.2674L19.5248 15.1812L19.5233 15.1023C20.1768 14.9323 20.6401 14.3348 20.6228 13.651C20.6117 13.0221 20.2002 12.4778 19.6058 12.2846L19.4758 12.2487L18.6571 12.0649C18.4676 12.0229 18.3287 11.8517 18.3268 11.6553C18.3218 11.4453 18.4645 11.272 18.6619 11.2317L18.7384 11.223L19.135 11.2148C19.2417 11.2118 19.3353 11.2479 19.4076 11.3167C19.4621 11.3681 19.4989 11.4338 19.5148 11.5067L19.5237 11.5816C19.528 11.8386 19.7108 12.0444 19.9607 12.087L20.0574 12.095C20.3277 12.0818 20.532 11.8984 20.5714 11.6532L20.5783 11.5586C20.5615 10.9314 20.1245 10.3963 19.5378 10.2295L19.4098 10.1995L19.4083 10.1269C19.4065 9.98442 19.351 9.85346 19.2518 9.75747C19.1522 9.66185 19.0204 9.61609 18.8743 9.61274ZM12.4591 9.74147C12.3755 9.8132 12.3183 9.91017 12.2934 10.0206L12.2809 10.1057L12.2749 10.1861C11.6086 10.2988 11.0914 10.8498 11.0439 11.5266C10.9956 12.1478 11.3536 12.7278 11.928 12.9815L12.0543 13.0308L12.8482 13.2875C13.0351 13.3515 13.1557 13.5319 13.1415 13.7269C13.134 13.8414 13.0827 13.9441 12.9973 14.0174C12.9341 14.071 12.8576 14.1047 12.775 14.1136L12.6906 14.1142L12.2951 14.0855C12.191 14.0788 12.0973 14.033 12.0314 13.9579C11.9831 13.9024 11.9536 13.8347 11.9448 13.7631L11.9431 13.6904C11.9547 13.549 11.9116 13.4136 11.8217 13.3083C11.7318 13.2038 11.6034 13.1398 11.4611 13.129C11.1626 13.1029 10.9143 13.3165 10.8903 13.6123C10.8487 14.2439 11.2247 14.8101 11.796 15.0334L11.9213 15.0759L11.9157 15.1551C11.9004 15.4491 12.1131 15.6875 12.4086 15.7095L12.4527 15.711C12.5741 15.711 12.6898 15.6697 12.7823 15.5916C12.8686 15.5189 12.928 15.4213 12.9543 15.3103L12.9677 15.2247L12.9737 15.1455C13.6407 15.0376 14.1578 14.4855 14.2054 13.8028C14.2522 13.176 13.8939 12.5959 13.3207 12.3477L13.1946 12.2997L12.3973 12.0411C12.2123 11.9812 12.0902 11.7982 12.1075 11.6021C12.1218 11.3931 12.2805 11.2311 12.4808 11.211L12.5576 11.2103L12.9527 11.239C13.1388 11.252 13.2808 11.3892 13.3036 11.5634L13.3059 11.64C13.2943 11.7818 13.3377 11.9176 13.4279 12.0221C13.5182 12.1263 13.6459 12.1899 13.7946 12.2015C14.0636 12.2226 14.281 12.0518 14.3418 11.8088L14.3571 11.7144C14.3997 11.0891 14.0153 10.5158 13.4469 10.2949L13.3223 10.253L13.3272 10.1805C13.3388 10.0395 13.2957 9.90443 13.2062 9.79988C13.116 9.69496 12.9879 9.63097 12.8441 9.61944C12.6999 9.60642 12.5629 9.6518 12.4591 9.74147ZM5.69087 7.00037C5.81034 7.00907 5.91682 7.05913 5.9914 7.14049C6.04733 7.20203 6.08156 7.27706 6.09126 7.35767L6.09269 7.43984L6.08638 7.51946C6.60454 7.64989 6.98002 8.09119 6.99923 8.59312L6.99724 8.70991C6.97795 8.93903 6.78242 9.10661 6.52901 9.09201C6.4062 9.08297 6.29972 9.03325 6.22514 8.95155C6.16893 8.89027 6.13484 8.81511 6.12523 8.73471L6.12385 8.65289C6.13619 8.48922 6.02553 8.34791 5.8627 8.30606L5.78993 8.29444L5.44377 8.27149C5.33692 8.26245 5.23488 8.29652 5.15549 8.36119C5.07572 8.42621 5.02785 8.51765 5.02043 8.61813C5.00676 8.76624 5.08931 8.90643 5.22252 8.97674L5.29313 9.00579L5.99325 9.21996C6.54979 9.3931 6.90708 9.89515 6.8633 10.441C6.82494 10.959 6.43441 11.3837 5.91552 11.5094L5.78325 11.5345L5.77695 11.6189C5.76693 11.7337 5.71239 11.8352 5.6226 11.9065C5.5458 11.9673 5.45045 12 5.3499 12L5.31243 11.9986C5.09443 11.9838 4.93038 11.8349 4.90573 11.6396L4.90319 11.5644L4.90987 11.4806C4.34703 11.3359 3.96376 10.8419 4.00272 10.2859C4.01237 10.1729 4.06654 10.0732 4.15521 10.0026C4.24388 9.9327 4.35593 9.89654 4.47614 9.90767C4.69282 9.92405 4.85614 10.0783 4.87621 10.2726L4.87685 10.3471C4.8698 10.4354 4.89948 10.5206 4.96033 10.5863C5.00708 10.6372 5.06864 10.6726 5.13798 10.6897L5.20965 10.7007L5.55619 10.7244C5.66416 10.7338 5.76545 10.7018 5.84447 10.6385C5.92461 10.5738 5.97285 10.4824 5.98027 10.3816C5.99108 10.2337 5.90949 10.0951 5.77614 10.0231L5.70534 9.99285L5.00782 9.78007C4.44943 9.60171 4.09251 9.09966 4.1374 8.55832C4.17507 8.04579 4.56587 7.62125 5.0851 7.49251L5.21745 7.46661L5.22412 7.38108C5.23266 7.26809 5.2846 7.16691 5.36994 7.09703C5.45601 7.0268 5.57029 6.9962 5.69087 7.00037Z" fill="currentColor"/>
</svg>
