<svg width="24" height="24" viewBox="0 0 24 24" fill="none" xmlns="http://www.w3.org/2000/svg">
<path fill-rule="evenodd" clip-rule="evenodd" d="M18.6511 1.54839H1.5V8.61568H2.79645V2.89029H18.6511C19.9869 2.89029 21.2034 4.02256 21.2034 5.2659V16.3254H14.9273V16.3245C10.8206 16.3245 7.47947 12.8662 7.47947 8.61553H6.18302C6.18302 13.6062 10.1057 17.6664 14.9273 17.6664V17.6673H22.5V5.2659C22.5 3.28544 20.7015 1.54839 18.6511 1.54839ZM14.9271 11.4867C13.3976 11.4867 12.1531 10.1986 12.1531 8.61542H10.8566C10.8566 10.9386 12.6826 12.8286 14.9271 12.8286V11.4867ZM1.50006 8.61575H2.79651C2.79651 15.5391 8.23841 21.1717 14.9273 21.1717V22.5137C7.5235 22.5137 1.50006 16.2791 1.50006 8.61575Z" fill="#A8AFCB"/>
</svg>
