<svg width="32" height="32" viewBox="0 0 32 32" fill="none" xmlns="http://www.w3.org/2000/svg">
<path fill-rule="evenodd" clip-rule="evenodd" d="M21.8556 7C22.0398 7 22.195 7.13056 22.2309 7.30536L22.2387 7.38272V10.8619C23.4248 11.4086 24.4622 12.2271 25.2659 13.2483L25.4619 13.5078H26.8478C27.4417 13.5078 27.9307 13.9561 27.9932 14.5313L28 14.6563V17.5163C28.0021 17.992 27.7102 18.4145 27.2737 18.5868L27.1512 18.6274L25.8578 18.9758C25.1581 20.2379 24.1132 21.2752 22.8482 21.9665L22.5739 22.1093L22.2999 24.1834C22.1834 24.6624 21.7543 24.9945 21.2698 24.9999L21.1477 24.9944H20.2502C19.7564 25.0446 19.3003 24.7533 19.1335 24.3L19.098 24.1834L18.9823 23.2911C17.7276 23.4948 16.4513 23.5174 15.1934 23.359L14.7227 23.2911L14.6112 24.1711C14.4944 24.6519 14.0672 24.9877 13.5815 24.9985L13.459 24.9944H12.5592C12.0633 25.0389 11.6087 24.7415 11.4424 24.2859L11.407 24.1688L11.1415 22.1151C8.71486 20.8219 7.25926 18.7617 7.25926 16.5715C7.25926 16.2236 7.29443 15.8773 7.36438 15.5377L7.42336 15.2844L7.41097 15.2528L7.46948 15.1132C7.36131 15.0699 7.25701 15.0229 7.1527 14.975C6.89937 14.8569 6.65124 14.7222 6.41306 14.5712C6.08209 15.1715 5.657 15.7111 5.21922 16.2353L4.69301 16.8599C4.34225 17.2781 3.75807 16.6666 4.10754 16.2498L4.61001 15.6438C5.02051 15.1379 5.40481 14.624 5.72063 14.0562C5.39628 13.7745 5.10397 13.4555 4.8593 13.0968C4.17942 12.0992 4.59298 10.8929 5.51883 10.2472C5.97915 9.92587 6.58282 9.89162 7.00503 10.3008C7.43548 10.718 7.49611 11.3385 7.38871 11.9099C7.31007 12.327 7.17212 12.7441 7.02563 13.1476L6.91496 13.4474C6.87036 13.5677 6.82316 13.6871 6.77465 13.8052C7.00373 13.9543 7.24148 14.0814 7.47878 14.1896L7.69531 14.2846C7.72362 14.296 7.75078 14.3096 7.77641 14.3253C8.99223 11.7675 12.237 9.89744 16.174 9.70258C16.5239 8.12386 17.9288 6.99846 19.5508 7C19.735 7 19.8905 7.13056 19.9265 7.30536L19.9344 7.38272V7.58412C20.5029 7.2041 21.1709 7 21.8556 7ZM21.8176 12.4997C20.5346 12.4997 19.4962 13.5371 19.4962 14.8161C19.4962 15.1328 19.7532 15.3932 20.0752 15.3932C20.3654 15.3932 20.6026 15.1823 20.6471 14.9092L20.6546 14.8161C20.6546 14.1756 21.1771 13.659 21.8176 13.659C22.4133 13.659 22.9081 14.109 22.9715 14.6897L22.9783 14.8161C22.9783 15.1328 23.2372 15.3932 23.5573 15.3932C23.8797 15.3932 24.1367 15.1328 24.1367 14.8161C24.1367 13.5371 23.1002 12.4997 21.8176 12.4997ZM15.8555 11.2271L15.7503 11.2318L15.4279 11.2774L15.0854 11.3364L14.652 11.4239L14.321 11.5001L13.9622 11.592L13.5806 11.7007C13.5154 11.7203 13.4495 11.7406 13.3829 11.7618L12.9767 11.898C11.7404 12.3358 10.3675 13.0413 9.47111 14.1586C9.31514 14.3585 9.34688 14.6459 9.54697 14.8014C9.62708 14.8666 9.72616 14.9021 9.83337 14.9044C9.97231 14.9044 10.1031 14.8415 10.1918 14.7339C11.0668 13.6417 12.5307 12.9895 13.7533 12.6136L14.1304 12.5038L14.4856 12.4113L14.8132 12.3348L15.2401 12.2477L15.731 12.1666L15.8729 12.149C16.128 12.1177 16.311 11.8909 16.2835 11.6366C16.2574 11.411 16.0747 11.2414 15.8555 11.2271ZM6.35937 10.874C6.03372 10.7338 5.62882 11.2484 5.48592 11.4958C5.27849 11.8531 5.29105 12.2001 5.50324 12.5502C5.66087 12.8107 5.86483 13.0491 6.09261 13.2663L6.15497 13.113C6.29398 12.7282 6.42346 12.3353 6.52912 11.9388L6.57019 11.7677C6.63651 11.4516 6.67116 11.0091 6.35937 10.874ZM21.4701 8.90473C21.4701 8.28358 20.756 7.9244 20.2568 8.29593C20.1809 8.35328 20.1068 8.41527 20.0365 8.48074L19.9344 8.58142V9.94834C19.9344 10.0159 19.9785 10.0722 20.0439 10.0892C20.4441 10.1899 20.84 10.3098 21.2255 10.4503C21.3267 10.4863 21.4341 10.4297 21.4627 10.3335L21.4701 10.2824V8.90473Z" fill="currentColor"/>
</svg>
