<svg width="32" height="32" viewBox="0 0 32 32" fill="none" xmlns="http://www.w3.org/2000/svg">
<path fill-rule="evenodd" clip-rule="evenodd" d="M17.7455 7.74837L14.4424 14.5921L19.1684 18.9717C20.4027 20.1087 20.4027 21.9522 19.1684 23.0888C17.9336 24.2255 15.9321 24.2255 14.6973 23.0888L14.3552 22.7705C12.3573 23.84 9.78033 23.5625 8.10169 22.0167C6.79283 20.8118 6.29723 19.0778 6.75007 17.4578C6.82908 17.1747 7.14224 17.0041 7.44971 17.0772C7.75717 17.15 7.94246 17.4383 7.86346 17.7215C7.5112 18.983 7.89604 20.3303 8.91454 21.2682C10.3134 22.5563 12.5149 22.712 14.1036 21.6608C14.3353 21.5075 14.6537 21.5337 14.8521 21.7227L15.1993 22.0509L15.5102 22.3403C16.2961 23.0637 17.5696 23.0637 18.3555 22.3403C19.1411 21.6166 19.1411 20.444 18.3543 19.7191L6.62912 8.85312C5.96655 9.80674 6.08791 11.0892 6.99279 11.9225L7.85491 12.7167C8.08255 12.926 8.0793 13.2665 7.84717 13.472C6.03944 15.0747 5.14963 16.8365 5.14963 18.7808C5.14963 20.7188 6.0822 22.478 7.98074 24.0803C8.21491 24.2783 8.23079 24.6128 8.01617 24.8281C7.80156 25.0441 7.4379 25.0583 7.20414 24.8607C5.07918 23.0671 4 21.0323 4 18.7808C4 16.6932 4.88656 14.7909 6.63727 13.0925L6.17994 12.6714C4.68579 11.2955 4.68579 9.06424 6.17994 7.68799C6.40514 7.48137 6.77003 7.48174 6.99442 7.68949L11.4679 11.8355L16.8243 7.14949C17.2804 6.75049 18.0008 7.21887 17.7455 7.74837ZM10.7169 14.8284C10.8383 14.8174 10.955 14.846 11.0454 14.9106C11.1135 14.9582 11.1623 15.0224 11.1879 15.0962L11.2057 15.1728L11.222 15.2971C11.8293 15.3204 12.3524 15.7069 12.4827 16.2241L12.5045 16.3368C12.5309 16.5543 12.3623 16.7406 12.1125 16.7718C11.8897 16.7923 11.696 16.6781 11.6366 16.4979L11.6208 16.4274C11.594 16.2273 11.4122 16.0813 11.1908 16.0701L11.1061 16.0724L10.7132 16.1116C10.4316 16.141 10.2361 16.3581 10.2696 16.6056C10.2901 16.7847 10.434 16.9346 10.6246 16.9869L10.709 17.0032L11.5409 17.0978C12.1782 17.1737 12.6728 17.6168 12.7435 18.1749C12.8165 18.7219 12.4623 19.2357 11.8983 19.4422L11.7744 19.4816L11.7911 19.6096C11.8041 19.7189 11.7698 19.8234 11.6944 19.9045C11.6225 19.9822 11.5191 20.0307 11.404 20.0406L11.3488 20.0435C11.1518 20.0435 10.9853 19.9365 10.926 19.7746L10.9073 19.7021L10.8906 19.5744C10.2332 19.5458 9.69133 19.1098 9.61141 18.5296C9.59844 18.4236 9.63191 18.3216 9.70556 18.2421C9.77962 18.161 9.88758 18.11 10.0089 18.099C10.1294 18.0877 10.2458 18.1166 10.337 18.1808C10.4048 18.2287 10.4537 18.293 10.4793 18.3666L10.4968 18.443C10.5106 18.5494 10.5701 18.6444 10.6646 18.7104C10.7368 18.7607 10.8243 18.7902 10.9163 18.7961L11.0094 18.794L11.4024 18.7548C11.5388 18.7427 11.6589 18.6858 11.7421 18.5945C11.8267 18.5021 11.8639 18.3851 11.848 18.2652C11.8238 18.0861 11.6821 17.9388 11.4917 17.8848L11.4074 17.8676L10.5768 17.773C9.93654 17.6923 9.44277 17.2493 9.37415 16.6955C9.30151 16.1537 9.65607 15.6406 10.2198 15.4299L10.3437 15.3895L10.327 15.2612C10.3127 15.1537 10.3445 15.0503 10.4157 14.9714C10.4868 14.8915 10.5943 14.8409 10.7169 14.8284ZM25.5365 15.2995C25.74 15.2995 25.9131 15.417 25.9655 15.5943L26.3421 16.7966L27.6889 17.1486C27.8811 17.1988 28.0107 17.3562 27.9993 17.5409C27.9993 17.7285 27.8701 17.8833 27.678 17.9335L26.3531 18.2759C26.3531 18.2759 26.3421 18.2759 26.3421 18.2859L25.9874 19.4879C25.935 19.6652 25.762 19.7826 25.556 19.7826C25.3524 19.7826 25.1794 19.6652 25.1269 19.4879L24.7507 18.2859L23.4035 17.9335C23.2113 17.8833 23.0822 17.7285 23.0822 17.5409C23.0822 17.3562 23.2113 17.1988 23.4035 17.1486L24.7284 16.8062L25.105 15.5943C25.1599 15.417 25.3305 15.2995 25.5365 15.2995ZM20.2178 11.2886C20.4542 11.2886 20.6606 11.426 20.7236 11.6306L21.2213 13.2352C21.2213 13.2651 21.2513 13.2854 21.2843 13.295L23.0491 13.7453C23.2746 13.8051 23.4257 13.9898 23.4257 14.2048C23.4257 14.4197 23.2746 14.6074 23.0381 14.675L21.2623 15.1245C21.2294 15.1345 21.2103 15.1544 21.1993 15.1844L20.7045 16.7889C20.6383 16.9939 20.4351 17.1313 20.1958 17.1313C19.9598 17.1313 19.7562 16.9939 19.69 16.7889L19.1956 15.1844C19.1842 15.1544 19.1651 15.1345 19.1322 15.1245L17.3677 14.675C17.1394 14.617 16.9883 14.4301 16.9883 14.2147C16.9883 13.9998 17.1394 13.8129 17.3677 13.7549L19.1541 13.295C19.1842 13.295 19.2066 13.2651 19.2175 13.2352L19.7124 11.6306C19.7782 11.426 19.9817 11.2886 20.2178 11.2886ZM24.6954 9.08702C24.8904 9.08702 25.042 9.19451 25.094 9.36183L25.4072 10.3791L26.5151 10.6539C26.6992 10.6916 26.8174 10.8386 26.8174 11.0059C26.8174 11.181 26.6992 11.3184 26.5151 11.3686L25.4072 11.6509L25.094 12.6581C25.042 12.8255 24.8904 12.933 24.6954 12.933C24.5033 12.933 24.3517 12.8255 24.2969 12.6581L23.9865 11.6409L22.8757 11.3686C22.7055 11.3184 22.5873 11.181 22.5763 11.0059C22.5763 10.8386 22.6945 10.7012 22.8757 10.6539L23.9974 10.3691L24.2969 9.36183C24.3517 9.19451 24.5033 9.08702 24.6954 9.08702Z" fill="currentColor"/>
</svg>
