<svg width="32" height="32" viewBox="0 0 32 32" fill="none" xmlns="http://www.w3.org/2000/svg">
<path d="M10.7422 2.48582H26.759C26.9155 2.47594 27.0163 2.48582 27.0163 2.48582H26.759C26.2183 2.51996 25.0133 2.79017 25.0133 4.52047V22.7672C25.0133 22.9055 24.9012 23.0096 24.763 23.0096H9.23999C9.10172 23.0096 8.98962 22.8975 8.98962 22.7593V21.4925V17.0014V4.23822C8.98962 3.2704 9.77429 2.48582 10.7422 2.48582Z" fill="#E7E3FF"/>
<path fill-rule="evenodd" clip-rule="evenodd" d="M27.0632 2.00667C27.0632 2.00668 27.0633 2.00668 27.0163 2.48582L27.0632 2.00667L27.0163 2.96725H26.7752C26.5507 2.98321 26.2342 3.0478 25.9799 3.24647C25.7443 3.4305 25.4949 3.78134 25.4949 4.52047V22.7672C25.4949 23.1916 25.1465 23.491 24.763 23.491H9.24003C8.83584 23.491 8.50818 23.1634 8.50818 22.7593V4.23822C8.50818 3.00451 9.50841 2.00439 10.7423 2.00439H26.7446C26.8322 1.99937 26.9056 1.99938 26.9596 2.00087C26.9884 2.00166 27.0118 2.00288 27.0293 2.00401L27.051 2.00559L27.0583 2.00622L27.0611 2.00648L27.0632 2.00667ZM24.9432 2.96725H10.7423C10.0402 2.96725 9.47114 3.53628 9.47114 4.23822V22.5282H24.5319V4.52047C24.5319 3.85882 24.6892 3.34946 24.9432 2.96725Z" fill="#39405D"/>
<path d="M28.2681 10.9931H25.2637C25.1254 10.9931 25.0133 10.881 25.0133 10.7428V4.12205C25.0133 2.0399 28.5185 1.83169 28.5185 4.12205V10.7428C28.5185 10.881 28.4064 10.9931 28.2681 10.9931Z" fill="#D3CCFE"/>
<path fill-rule="evenodd" clip-rule="evenodd" d="M28.2765 2.49105C28.7231 2.858 29 3.41427 29 4.12204V10.7428C29 11.1469 28.6723 11.4745 28.2682 11.4745H25.2637C24.8595 11.4745 24.5319 11.1469 24.5319 10.7428V4.12204C24.5319 2.73543 25.7096 2.03208 26.7516 2.00113C27.2838 1.98533 27.8421 2.13406 28.2765 2.49105ZM26.7802 2.96357C26.0697 2.98467 25.4948 3.42651 25.4948 4.12204V10.5117H28.037V4.12204C28.037 3.68463 27.8758 3.40804 27.6651 3.23494C27.4424 3.05187 27.1243 2.95335 26.7802 2.96357Z" fill="#39405D"/>
<path fill-rule="evenodd" clip-rule="evenodd" d="M15.9386 6.4198C16.3327 6.22704 16.7503 6.21169 16.9494 6.21169C17.386 6.21169 18.2258 6.37602 18.7175 7.05758C18.8731 7.27321 18.8244 7.57412 18.6087 7.72967C18.393 7.88522 18.0921 7.83651 17.9365 7.62087C17.7031 7.29737 17.238 7.17454 16.9494 7.17454C16.786 7.17454 16.5515 7.19189 16.3619 7.28469C16.2077 7.36011 16.0643 7.48929 16.036 7.81208C16.024 7.9487 16.0459 8.0246 16.067 8.06798C16.0881 8.11155 16.125 8.15666 16.1972 8.20532C16.3664 8.31935 16.6261 8.392 17.0052 8.48771C17.0193 8.49127 17.0335 8.49486 17.048 8.4985C17.3754 8.58091 17.7959 8.68677 18.1301 8.89695C18.3151 9.01332 18.4905 9.1706 18.6176 9.38771C18.7457 9.60665 18.8085 9.8588 18.8085 10.139C18.8085 10.1498 18.8081 10.1606 18.8074 10.1714C18.7586 10.8961 18.3724 11.3247 17.9386 11.546C17.5384 11.7501 17.1213 11.7691 16.9494 11.7691C16.2768 11.7691 15.8045 11.5209 15.5002 11.2558C15.3512 11.126 15.2459 10.9954 15.1764 10.8944C15.1415 10.8437 15.1151 10.7998 15.0964 10.7663C15.0871 10.7495 15.0796 10.7352 15.0738 10.7238L15.0665 10.709L15.0638 10.7033L15.0627 10.7009L15.0622 10.6998L15.0619 10.6993C15.0618 10.699 15.0617 10.6988 15.4993 10.498L15.0617 10.6988C14.9508 10.4572 15.0568 10.1713 15.2984 10.0604C15.5378 9.95056 15.8206 10.0535 15.9337 10.2903L15.9376 10.2975C15.9429 10.3072 15.9534 10.325 15.9695 10.3483C16.0019 10.3954 16.0552 10.4622 16.1328 10.5299C16.2817 10.6595 16.5344 10.8062 16.9494 10.8062C17.0676 10.8062 17.303 10.7893 17.501 10.6883C17.6627 10.6058 17.8179 10.4634 17.8454 10.1232C17.8432 10 17.816 9.92445 17.7865 9.87405C17.7547 9.81972 17.7034 9.76611 17.6173 9.71197C17.4241 9.59044 17.1473 9.51669 16.7694 9.42127C16.7591 9.41865 16.7486 9.41601 16.738 9.41335C16.4102 9.33071 15.9852 9.22359 15.659 9.00371C15.4782 8.88187 15.3111 8.7161 15.2006 8.48822C15.0899 8.26014 15.0525 8.00402 15.0767 7.72785C15.1372 7.03919 15.5091 6.62995 15.9386 6.4198Z" fill="#39405D"/>
<path fill-rule="evenodd" clip-rule="evenodd" d="M16.9131 5.50482C17.179 5.50482 17.3946 5.72037 17.3946 5.98625V6.6931C17.3946 6.95899 17.179 7.17453 16.9131 7.17453C16.6472 7.17453 16.4316 6.95899 16.4316 6.6931V5.98625C16.4316 5.72037 16.6472 5.50482 16.9131 5.50482Z" fill="#39405D"/>
<path fill-rule="evenodd" clip-rule="evenodd" d="M16.9131 10.8062C17.179 10.8062 17.3946 11.0218 17.3946 11.2877V11.9945C17.3946 12.2604 17.179 12.4759 16.9131 12.4759C16.6472 12.4759 16.4316 12.2604 16.4316 11.9945V11.2877C16.4316 11.0218 16.6472 10.8062 16.9131 10.8062Z" fill="#39405D"/>
<path fill-rule="evenodd" clip-rule="evenodd" d="M13.0148 16C13.0148 15.7341 13.2303 15.5186 13.4963 15.5186L21.0074 15.5186C21.2733 15.5186 21.4888 15.7341 21.4888 16C21.4888 16.2659 21.2733 16.4814 21.0074 16.4814L13.4963 16.4814C13.2303 16.4814 13.0148 16.2659 13.0148 16Z" fill="#39405D"/>
<path fill-rule="evenodd" clip-rule="evenodd" d="M13.0148 18.5034C13.0148 18.2375 13.2303 18.022 13.4963 18.022L21.0074 18.022C21.2733 18.022 21.4888 18.2375 21.4888 18.5034C21.4888 18.7693 21.2733 18.9849 21.0074 18.9849L13.4963 18.9849C13.2303 18.9849 13.0148 18.7693 13.0148 18.5034Z" fill="#39405D"/>
<path d="M8.57493 29.5186H3.73194C3.59366 29.5186 3.48157 29.4065 3.48157 29.2682V18.823C3.48157 18.2535 3.72403 17.7109 4.14831 17.331L8.98972 12.9959V17.2517L9.33423 16.9416C10.861 15.462 12.7121 17.409 11.1853 18.8886L9.06304 21.0109C9.01609 21.0579 8.98972 21.1215 8.98972 21.1879V23.1068H10.6106C10.7489 23.1068 10.861 23.2189 10.861 23.3571V25.0796C10.861 25.7833 9.78195 27.1997 9.0671 27.4983C8.93951 27.5516 8.8253 27.6664 8.8253 27.8047V29.2682C8.8253 29.4065 8.71321 29.5186 8.57493 29.5186Z" fill="#FFECAB"/>
<path fill-rule="evenodd" clip-rule="evenodd" d="M9.47111 11.9185V16.2291C9.79764 16.0323 10.1405 15.9344 10.479 15.9321C10.9818 15.9288 11.4345 16.1379 11.7537 16.4737C12.4141 17.1683 12.4557 18.3253 11.5231 19.2315L9.47111 21.2836V22.6254H10.6106C11.0147 22.6254 11.3424 22.953 11.3424 23.3571V25.0797C11.3424 25.3613 11.2398 25.6586 11.116 25.919C10.9872 26.1901 10.8119 26.4699 10.6174 26.7295C10.4226 26.9896 10.2012 27.2392 9.97511 27.4475C9.77025 27.6361 9.54066 27.8103 9.3067 27.9187V29.2682C9.3067 29.6724 8.97904 30 8.57485 30H3.73185C3.32766 30 3 29.6724 3 29.2682V18.823C3 18.1166 3.30075 17.4436 3.82702 16.9724L9.47111 11.9185ZM8.50815 23.0685V21.1879C8.50815 20.9939 8.58524 20.8078 8.72247 20.6705L10.85 18.5429C11.4413 17.9699 11.3203 17.4153 11.0558 17.1371C10.9123 16.9861 10.7113 16.8935 10.4854 16.895C10.2632 16.8964 9.97594 16.9901 9.66924 17.2873L9.66288 17.2935L6.09374 20.5054C5.89609 20.6832 5.59165 20.6672 5.41376 20.4696C5.23588 20.2719 5.25191 19.9675 5.44957 19.7897L8.50815 17.0373V14.0733L4.46943 17.6897C4.14714 17.9783 3.96296 18.3904 3.96296 18.823V29.0371H8.34373V27.8047C8.34373 27.392 8.66259 27.1455 8.88142 27.0541C8.98628 27.0103 9.13992 26.9076 9.32267 26.7393C9.49993 26.576 9.68239 26.3716 9.84668 26.1523C10.0113 25.9325 10.1504 25.7076 10.2463 25.5058C10.3472 25.2934 10.3794 25.1498 10.3794 25.0797V23.5882H9.38071C9.37795 23.5992 9.37511 23.6103 9.37219 23.6216C9.30558 23.8786 9.19527 24.2273 9.02031 24.5811C8.67881 25.2716 8.01838 26.1101 6.85185 26.1101C6.58594 26.1101 6.37037 25.8945 6.37037 25.6286C6.37037 25.3627 6.58594 25.1472 6.85185 25.1472C7.46657 25.1472 7.87503 24.7247 8.15711 24.1543C8.29394 23.8776 8.38409 23.5959 8.44 23.3801C8.4677 23.2732 8.4864 23.1848 8.49797 23.1245C8.50238 23.1015 8.50574 23.0827 8.50815 23.0685Z" fill="#39405D"/>
</svg>
