<svg width="24" height="24" viewBox="0 0 24 24" fill="none" xmlns="http://www.w3.org/2000/svg">
<path fill-rule="evenodd" clip-rule="evenodd" d="M21.75 3.24211C21.75 2.67042 21.5248 2.20871 21.1525 1.90242C20.8635 1.66459 20.5118 1.54117 20.1631 1.50878C20.1633 1.50573 20.1633 1.50572 20.1632 1.50572L20.1613 1.50553L20.1581 1.50524L20.1502 1.50457L20.1277 1.503C20.1099 1.50192 20.0866 1.50085 20.0584 1.50033C20.0404 1.49999 20.0203 1.49989 19.9983 1.50015C19.9694 1.4998 19.9405 1.50006 19.9118 1.50091C19.8941 1.50144 19.8763 1.50221 19.8585 1.50324H8.12834C7.12188 1.50324 6.30598 2.32012 6.30598 3.32778V9.54708L2.918 12.5847C2.49292 12.9658 2.25 13.5101 2.25 14.0814V21.783C2.25 22.179 2.57064 22.5 2.96618 22.5H6.53238C6.92792 22.5 7.24857 22.179 7.24857 21.783V20.8962C7.40623 20.8077 7.55418 20.6904 7.68359 20.571C7.85909 20.4091 8.02923 20.2168 8.17833 20.0175C8.32706 19.8187 8.46283 19.6023 8.56375 19.3897C8.65907 19.1888 8.74759 18.9413 8.74759 18.6946V17.7008H18.4527C18.8254 17.7008 19.1689 17.4081 19.1689 16.9897V8.84076H21.0338C21.4294 8.84076 21.75 8.51973 21.75 8.12372V3.24211ZM20.1632 1.50572L20.1631 1.50878L20.1629 1.50877L20.1632 1.50572ZM6.30598 12.6858V10.9766L3.62757 13.378C3.4278 13.5571 3.31364 13.8129 3.31364 14.0814V21.4351H6.18493V20.7039C6.18493 20.2984 6.49507 20.0681 6.68981 19.9866C6.73982 19.9657 6.83535 19.9054 6.96295 19.7878C7.08448 19.6757 7.21168 19.5332 7.32703 19.3791C7.44274 19.2244 7.53852 19.0686 7.60303 18.9327C7.63512 18.8651 7.65675 18.8081 7.66978 18.763C7.6762 18.7409 7.67992 18.7237 7.68195 18.7113C7.68373 18.7005 7.68393 18.6951 7.68395 18.6945L7.68395 18.6945V17.7724H7.26154C7.20922 17.9545 7.13168 18.1782 7.01931 18.4057C6.75691 18.937 6.22421 19.6318 5.26364 19.6318C4.96992 19.6318 4.73182 19.3935 4.73182 19.0994C4.73182 18.8053 4.96992 18.5669 5.26364 18.5669C5.61471 18.5669 5.8691 18.3321 6.06587 17.9337C6.15961 17.7439 6.22228 17.5485 6.26148 17.397C6.28081 17.3223 6.29377 17.2609 6.30168 17.2196L6.306 17.1963V16.9893L6.30598 16.9838V16.0498L6.306 16.0451V15.8252C6.306 15.635 6.38144 15.4526 6.51573 15.3182L8.08437 13.7474C8.28246 13.5552 8.33723 13.384 8.34274 13.2668C8.34846 13.1452 8.30423 13.038 8.23077 12.9607C8.15743 12.8834 8.0558 12.8366 7.94042 12.8373C7.8292 12.8381 7.65986 12.8842 7.46163 13.0766L7.45461 13.0834L4.82398 15.4538C4.60566 15.6505 4.26939 15.6328 4.07291 15.4142C3.87643 15.1956 3.89414 14.859 4.11246 14.6623L6.30598 12.6858ZM7.36964 15.9692V16.6359H18.1053V3.53589L18.1053 3.52446V3.24211C18.1053 2.98945 18.1525 2.76494 18.235 2.56815H8.12834C7.70931 2.56815 7.36962 2.90825 7.36962 3.32778V8.59343L7.36964 8.59341V11.8835C7.55365 11.8111 7.74322 11.7737 7.93334 11.7724C8.35459 11.7696 8.73425 11.9453 9.00167 12.227C9.56066 12.8157 9.57691 13.7794 8.82787 14.509L7.36964 15.9692ZM19.1689 3.52646V7.77585H20.6864V3.24211C20.6864 2.96944 20.5889 2.81706 20.4772 2.72515C20.3739 2.64015 20.2264 2.58211 20.0549 2.56815H19.9409L19.928 2.56921C19.8296 2.57785 19.7091 2.60107 19.5964 2.65289C19.488 2.70267 19.3903 2.77673 19.3163 2.89324C19.2428 3.00905 19.1703 3.20215 19.1689 3.52646ZM13.0979 4.61662C13.0979 4.38136 12.9074 4.19065 12.6724 4.19065C12.4374 4.19065 12.247 4.38136 12.247 4.61662V4.75974C12.1428 4.78364 12.0322 4.81932 11.9236 4.87253C11.587 5.0374 11.2963 5.3598 11.2494 5.89454C11.2306 6.10845 11.2593 6.31059 11.3474 6.49237C11.4354 6.67399 11.568 6.80511 11.7091 6.90034C11.9599 7.0696 12.2836 7.15123 12.5223 7.21142L12.5491 7.21818C12.8307 7.28937 13.0223 7.3414 13.1531 7.42379C13.2092 7.45911 13.2378 7.49099 13.2542 7.51906C13.2688 7.54406 13.286 7.58672 13.2878 7.66469C13.2775 7.78533 13.2444 7.85764 13.213 7.90282C13.1793 7.95138 13.1329 7.98968 13.0729 8.02032C12.942 8.08719 12.7821 8.09951 12.699 8.09951C12.4124 8.09951 12.2424 7.99884 12.1443 7.91321C12.0924 7.86793 12.057 7.82339 12.0358 7.79263C12.0254 7.77743 12.0188 7.7662 12.0159 7.76086L12.0146 7.75847C11.9143 7.54967 11.6649 7.45904 11.4537 7.5561C11.2402 7.65423 11.1465 7.90711 11.2445 8.12092L11.2449 8.12181L11.2454 8.12275L11.2463 8.12481L11.2486 8.1296L11.2546 8.14175C11.2592 8.15096 11.2652 8.16235 11.2726 8.17563C11.2874 8.20212 11.3079 8.23639 11.335 8.27577C11.3889 8.35419 11.4703 8.45521 11.5853 8.55549C11.7447 8.69461 11.963 8.82683 12.247 8.89773V9.04663C12.247 9.28188 12.4374 9.47259 12.6724 9.47259C12.9074 9.47259 13.0979 9.28188 13.0979 9.04663V8.90765C13.2118 8.88215 13.3366 8.84205 13.4596 8.77921C13.7989 8.60591 14.1001 8.269 14.1379 7.70719C14.1386 7.69766 14.1389 7.68811 14.1389 7.67856C14.1389 7.46106 14.0901 7.26244 13.9886 7.08875C13.888 6.91666 13.7497 6.79306 13.6062 6.70267C13.3502 6.54147 13.0305 6.46097 12.7917 6.40083L12.7574 6.39218C12.4748 6.32073 12.297 6.26968 12.1848 6.19393C12.1396 6.16345 12.122 6.13908 12.113 6.12055C12.1041 6.10218 12.0891 6.05951 12.097 5.96906C12.1075 5.85016 12.1401 5.78213 12.1693 5.74141C12.1994 5.69938 12.241 5.66545 12.2975 5.63777C12.4222 5.57671 12.5813 5.56378 12.699 5.56378C12.7836 5.56378 12.9177 5.58176 13.052 5.63404C13.1848 5.68578 13.2953 5.762 13.3684 5.8634C13.5058 6.0542 13.7718 6.0973 13.9623 5.95967C14.1529 5.82204 14.1959 5.5558 14.0585 5.36501C13.8 5.00622 13.4196 4.83365 13.0979 4.75975V4.61662ZM10.1564 11.574C9.92144 11.574 9.73096 11.7647 9.73096 12C9.73096 12.2353 9.92144 12.426 10.1564 12.426H15.6873C15.9223 12.426 16.1128 12.2353 16.1128 12C16.1128 11.7647 15.9223 11.574 15.6873 11.574H10.1564ZM9.73096 13.8458C9.73096 13.6106 9.92144 13.4199 10.1564 13.4199H15.6873C15.9223 13.4199 16.1128 13.6106 16.1128 13.8458C16.1128 14.0811 15.9223 14.2718 15.6873 14.2718H10.1564C9.92144 14.2718 9.73096 14.0811 9.73096 13.8458Z" fill="#433AD4"/>
</svg>
