<svg width="22" height="18" viewBox="0 0 22 18" fill="none" xmlns="http://www.w3.org/2000/svg">
<path d="M0.875 1.875H2.09H21.125V15.375H0.875V1.875Z" fill="#D3CCFE"/>
<path d="M3.125 12.2666V0.375H9.55961C9.82395 0.375 10.0824 0.455767 10.3023 0.607124C10.752 0.916622 11.338 0.916622 11.7877 0.607124C12.0076 0.455767 12.2661 0.375 12.5304 0.375H18.965V12.2666H12.57C12.2798 12.2666 11.9962 12.3553 11.7547 12.5214C11.3158 12.8235 10.7539 12.8596 10.2821 12.6161L10.0214 12.4815C9.74756 12.3402 9.44561 12.2666 9.13946 12.2666H3.125Z" fill="#E7E3FF"/>
<path d="M14.375 16.9718V13.875H16.625V16.9718L15.5 15.8105L14.375 16.9718Z" fill="#FFECAB"/>
<path fill-rule="evenodd" clip-rule="evenodd" d="M3.125 0C2.91789 0 2.75 0.167893 2.75 0.375V1.5H1.25H0.875C0.667893 1.5 0.5 1.66789 0.5 1.875V15.375C0.5 15.5821 0.667893 15.75 0.875 15.75H14V16.875C14 17.0176 14.0808 17.1478 14.2086 17.211C14.3363 17.2743 14.4889 17.2597 14.6023 17.1733L15.5 16.4893L16.3977 17.1733C16.5111 17.2597 16.6637 17.2743 16.7914 17.211C16.9192 17.1478 17 17.0176 17 16.875V15.75H21.125C21.3321 15.75 21.5 15.5821 21.5 15.375V1.875C21.5 1.66789 21.3321 1.5 21.125 1.5H19.25L19.25 0.375C19.25 0.167893 19.0821 0 18.875 0H12.6695C12.5021 0 12.3369 0.037334 12.1858 0.109282L10.9148 0.714505L9.40769 0.0865385C9.27059 0.0294119 9.12353 0 8.975 0H3.125ZM17 15H20.75V2.25H19.25L19.25 12C19.25 12.2071 19.0821 12.375 18.875 12.375H12.6695C12.6137 12.375 12.5586 12.3874 12.5082 12.4114L11.3 12.9868V13.2H17.375C17.5821 13.2 17.75 13.3679 17.75 13.575C17.75 13.7821 17.5821 13.95 17.375 13.95H17V15ZM14 13.95H11.3V15H14V13.95ZM4.625 13.2H10.55V13L9.11923 12.4038C9.07353 12.3848 9.02451 12.375 8.975 12.375H3.125C2.91789 12.375 2.75 12.2071 2.75 12V2.25H1.25019L1.25 1.875V15H10.55V13.95H4.625C4.41789 13.95 4.25 13.7821 4.25 13.575C4.25 13.3679 4.41789 13.2 4.625 13.2ZM12.1858 11.7343L11.3 12.1561V1.36178L12.5082 0.786427C12.5586 0.762445 12.6137 0.75 12.6695 0.75H18.5V11.625H12.6695C12.5021 11.625 12.3369 11.6623 12.1858 11.7343ZM10.55 12.1875V1.375L9.11923 0.778846C9.07353 0.759804 9.02451 0.75 8.975 0.75H3.5V11.625H8.975C9.12353 11.625 9.27059 11.6544 9.40769 11.7115L10.55 12.1875ZM4.625 3.375C4.625 3.16789 4.79289 3 5 3H8.75C8.95711 3 9.125 3.16789 9.125 3.375C9.125 3.58211 8.95711 3.75 8.75 3.75H5C4.79289 3.75 4.625 3.58211 4.625 3.375ZM5 9C4.79289 9 4.625 9.16789 4.625 9.375C4.625 9.58211 4.79289 9.75 5 9.75H8.75C8.95711 9.75 9.125 9.58211 9.125 9.375C9.125 9.16789 8.95711 9 8.75 9H5ZM4.625 6.375C4.625 6.16789 4.79289 6 5 6H8.75C8.95711 6 9.125 6.16789 9.125 6.375C9.125 6.58211 8.95711 6.75 8.75 6.75H5C4.79289 6.75 4.625 6.58211 4.625 6.375ZM13.25 3C13.0429 3 12.875 3.16789 12.875 3.375C12.875 3.58211 13.0429 3.75 13.25 3.75H17C17.2071 3.75 17.375 3.58211 17.375 3.375C17.375 3.16789 17.2071 3 17 3H13.25ZM12.875 9.375C12.875 9.16789 13.0429 9 13.25 9H17C17.2071 9 17.375 9.16789 17.375 9.375C17.375 9.58211 17.2071 9.75 17 9.75H13.25C13.0429 9.75 12.875 9.58211 12.875 9.375ZM13.25 6C13.0429 6 12.875 6.16789 12.875 6.375C12.875 6.58211 13.0429 6.75 13.25 6.75H17C17.2071 6.75 17.375 6.58211 17.375 6.375C17.375 6.16789 17.2071 6 17 6H13.25ZM14.75 16.1178V14.25H16.25V16.1178L15.5 15.5464L14.75 16.1178Z" fill="#1E243D"/>
</svg>
