<svg width="32" height="32" viewBox="0 0 32 32" fill="none" xmlns="http://www.w3.org/2000/svg">
<rect x="6.30908" y="6.24242" width="19.8546" height="11.0303" fill="#E7E3FF"/>
<path d="M6.30908 26.3939V16.7636H26.1637V25.5667C26.1637 26.0235 25.7933 26.3939 25.3364 26.3939H6.30908Z" fill="#D3CCFE"/>
<path d="M6.30908 7.0909V2.84848H25.3364C25.7933 2.84848 26.1637 3.21886 26.1637 3.67576V7.0909H6.30908Z" fill="#FFECAB"/>
<path d="M21.2001 26H25.1001V29.1727C25.1001 29.6296 24.7297 30 24.2728 30H22.0273C21.5705 30 21.2001 29.6296 21.2001 29.1727V26Z" fill="#39405D"/>
<path d="M11.45 21C11.45 21.9205 10.7224 22.6666 9.82496 22.6666C8.92749 22.6666 8.19995 21.9205 8.19995 21C8.19995 20.0795 8.92749 19.3333 9.82496 19.3333C10.7224 19.3333 11.45 20.0795 11.45 21Z" fill="#FFECAB"/>
<path fill-rule="evenodd" clip-rule="evenodd" d="M9.82496 22.1576C10.4483 22.1576 10.9536 21.6393 10.9536 21C10.9536 20.3607 10.4483 19.8424 9.82496 19.8424C9.20163 19.8424 8.69632 20.3607 8.69632 21C8.69632 21.6393 9.20163 22.1576 9.82496 22.1576ZM9.82496 22.6666C10.7224 22.6666 11.45 21.9205 11.45 21C11.45 20.0795 10.7224 19.3333 9.82496 19.3333C8.92749 19.3333 8.19995 20.0795 8.19995 21C8.19995 21.9205 8.92749 22.6666 9.82496 22.6666Z" fill="#39405D"/>
<path d="M23.8001 21C23.8001 21.9205 23.0725 22.6666 22.1751 22.6666C21.2776 22.6666 20.55 21.9205 20.55 21C20.55 20.0795 21.2776 19.3333 22.1751 19.3333C23.0725 19.3333 23.8001 20.0795 23.8001 21Z" fill="#FFECAB"/>
<path fill-rule="evenodd" clip-rule="evenodd" d="M22.1751 22.1576C22.7984 22.1576 23.3037 21.6393 23.3037 21C23.3037 20.3607 22.7984 19.8424 22.1751 19.8424C21.5517 19.8424 21.0464 20.3607 21.0464 21C21.0464 21.6393 21.5517 22.1576 22.1751 22.1576ZM22.1751 22.6666C23.0725 22.6666 23.8001 21.9205 23.8001 21C23.8001 20.0795 23.0725 19.3333 22.1751 19.3333C21.2776 19.3333 20.55 20.0795 20.55 21C20.55 21.9205 21.2776 22.6666 22.1751 22.6666Z" fill="#39405D"/>
<path fill-rule="evenodd" clip-rule="evenodd" d="M12.4227 19.9999C12.4227 19.8125 12.5709 19.6605 12.7536 19.6605H19.3719C19.5546 19.6605 19.7028 19.8125 19.7028 19.9999C19.7028 20.1874 19.5546 20.3393 19.3719 20.3393H12.7536C12.5709 20.3393 12.4227 20.1874 12.4227 19.9999Z" fill="#39405D"/>
<path fill-rule="evenodd" clip-rule="evenodd" d="M12.4227 22.109C12.4227 21.9216 12.5709 21.7696 12.7536 21.7696H19.3719C19.5546 21.7696 19.7028 21.9216 19.7028 22.109C19.7028 22.2965 19.5546 22.4484 19.3719 22.4484H12.7536C12.5709 22.4484 12.4227 22.2965 12.4227 22.109Z" fill="#39405D"/>
<path fill-rule="evenodd" clip-rule="evenodd" d="M24.7455 2.84848H7.25452C6.79763 2.84848 6.42724 3.22836 6.42724 3.69697V6.66666H25.5727V3.69697C25.5727 3.22836 25.2024 2.84848 24.7455 2.84848ZM26.4 6.66666V3.69697C26.4 2.75976 25.6593 2 24.7455 2H7.25452C6.34074 2 5.59997 2.75976 5.59997 3.69697V6.66666V7.24243H4.62512C4.61485 7.24243 4.60467 7.24281 4.59459 7.24357H3.82727C3.37038 7.24357 3 7.62345 3 8.09205V11.7284C3 12.197 3.37038 12.5769 3.82727 12.5769H4.12273C4.57962 12.5769 4.95 12.197 4.95 11.7284V8.09091H5.59997V16.4848V17.3333V24.9697C5.59997 25.7821 6.15659 26.4611 6.90002 26.6276V29.1515C6.90002 29.6201 7.2704 30 7.72729 30H9.97275C10.4296 30 10.8 29.6201 10.8 29.1515V26.6666H24.7455C25.6593 26.6666 26.4 25.9069 26.4 24.9697V17.3333V16.4848V8.09091H27.05V11.7284C27.05 12.197 27.4204 12.5769 27.8773 12.5769H28.1727C28.6296 12.5769 29 12.197 29 11.7284V8.09205C29 7.62345 28.6296 7.24357 28.1727 7.24357H27.7305C27.7204 7.24281 27.7102 7.24243 27.7 7.24243H26.4V6.66666ZM25.5727 16.4848V7.51515H6.42724V16.4848H25.5727ZM6.42724 17.3333V24.9697C6.42724 25.4383 6.79763 25.8181 7.25452 25.8181H24.7455C25.2024 25.8181 25.5727 25.4383 25.5727 24.9697V17.3333H6.42724Z" fill="#39405D"/>
</svg>
