<svg width="32" height="32" viewBox="0 0 32 32" fill="none" xmlns="http://www.w3.org/2000/svg">
<path d="M24.4706 24.9706C24.7926 25.2883 24.7943 25.8056 24.451 26.1006C23.1809 27.1918 21.6889 28.008 20.0713 28.4922C18.1903 29.0552 16.1976 29.1518 14.2697 28.7734C12.3418 28.395 10.5382 27.5534 9.01874 26.323C7.49926 25.0926 6.31077 23.5115 5.55854 21.7197C4.80632 19.9278 4.51357 17.9806 4.70624 16.0505C4.89891 14.1204 5.57104 12.2669 6.66311 10.6543C7.75517 9.04175 9.23346 7.71977 10.967 6.80552C12.4578 6.01932 14.0977 5.5555 15.7779 5.44099C16.232 5.41003 16.6016 5.7771 16.6016 6.2263V16.8696C16.6016 17.0853 16.6884 17.2922 16.843 17.4447L24.4706 24.9706Z" fill="#E7E3FF"/>
<path d="M18.6624 3.78626C18.6624 3.33706 19.0319 2.96989 19.486 3.00195C20.7196 3.08904 21.9329 3.37136 23.0788 3.83969C24.479 4.41193 25.7512 5.25068 26.8229 6.30805C27.8945 7.36541 28.7446 8.62069 29.3246 10.0022C29.7992 11.1329 30.0854 12.3299 30.1736 13.5471C30.2061 13.9952 29.834 14.3598 29.3787 14.3598L19.4867 14.3598C19.0314 14.3598 18.6624 13.9956 18.6624 13.5464V3.78626Z" fill="#D3CCFE"/>
<path d="M30.2031 16.7998C30.6584 16.7998 31.0305 17.1644 30.998 17.6125C30.9098 18.8296 30.6236 20.0267 30.149 21.1574C29.6743 22.288 29.0187 23.3341 28.2089 24.2564C27.9107 24.5958 27.3863 24.594 27.0644 24.2764L20.894 18.1883C20.3747 17.6759 20.7425 16.7998 21.4769 16.7998H30.2031Z" fill="#FFECAB"/>
<path fill-rule="evenodd" clip-rule="evenodd" d="M19.6928 13.3431L19.6928 4.03956C20.7196 4.13936 21.7278 4.38799 22.6845 4.77898C23.9597 5.30013 25.1183 6.06399 26.0943 7.02695C27.0702 7.98991 27.8444 9.13311 28.3726 10.3913C28.7689 11.3352 29.0209 12.33 29.122 13.3431L19.6928 13.3431ZM18.6624 3.78626C18.6624 3.33706 19.0319 2.96989 19.486 3.00195C20.7196 3.08904 21.9329 3.37136 23.0788 3.83969C24.479 4.41193 25.7512 5.25068 26.8229 6.30805C27.8945 7.36541 28.7446 8.62069 29.3246 10.0022C29.7993 11.1329 30.0854 12.3299 30.1737 13.5471C30.2062 13.9952 29.834 14.3598 29.3787 14.3598L19.4867 14.3598C19.0314 14.3598 18.6624 13.9956 18.6624 13.5464V3.78626ZM16.1144 18.1636L23.5619 25.5118C22.4486 26.42 21.161 27.1036 19.7722 27.5193C18.0533 28.0337 16.2324 28.122 14.4707 27.7762C13.2457 27.5358 12.0755 27.0907 11.0094 26.4637C12.2315 25.3654 13 23.7724 13 22C13 18.6863 10.3137 16 7 16C6.56544 16 6.14167 16.0462 5.73333 16.134C5.91153 14.3761 6.52501 12.6883 7.51987 11.2192C8.51779 9.74561 9.86864 8.5376 11.4528 7.70216C12.7327 7.02712 14.1331 6.61216 15.5711 6.4777V16.8696C15.5711 17.3549 15.7666 17.8204 16.1144 18.1636ZM4.67212 16.4683C4.68098 16.329 4.69235 16.1897 4.70624 16.0505C4.89891 14.1204 5.57104 12.2669 6.66311 10.6544C7.75517 9.04175 9.23346 7.71978 10.967 6.80552C12.4578 6.01932 14.0977 5.5555 15.7779 5.44099C16.232 5.41004 16.6016 5.77711 16.6016 6.2263V16.8696C16.6016 17.0853 16.6884 17.2922 16.843 17.4447L24.4706 24.9706C24.7926 25.2883 24.7943 25.8056 24.451 26.1006C23.1809 27.1919 21.6889 28.008 20.0713 28.4922C18.1903 29.0552 16.1976 29.1518 14.2697 28.7734C12.7923 28.4834 11.3879 27.9214 10.1284 27.1209C9.2175 27.6786 8.14629 28 7 28C3.68629 28 1 25.3137 1 22C1 19.5118 2.51459 17.3774 4.67212 16.4683ZM29.9464 17.8165H21.9744L27.6115 23.3784C28.266 22.5914 28.8007 21.7122 29.197 20.7683C29.5933 19.8244 29.8453 18.8296 29.9464 17.8165ZM30.998 17.6125C31.0305 17.1644 30.6584 16.7998 30.2031 16.7998H21.4769C20.7425 16.7998 20.3747 17.6759 20.894 18.1883L27.0644 24.2764C27.3863 24.594 27.9107 24.5958 28.2089 24.2564C29.0187 23.3341 29.6743 22.288 30.149 21.1574C30.6236 20.0267 30.9098 18.8296 30.998 17.6125Z" fill="#39405D"/>
<path fill-rule="evenodd" clip-rule="evenodd" d="M5.79974 19.0801C6.22745 18.8736 6.68079 18.8571 6.89696 18.8571C7.37084 18.8571 8.2825 19.0332 8.81623 19.7632C8.9851 19.9942 8.93221 20.3165 8.69811 20.4831C8.46401 20.6498 8.13733 20.5976 7.96846 20.3666C7.71513 20.0201 7.21016 19.8885 6.89696 19.8885C6.71961 19.8885 6.46506 19.9071 6.25915 20.0065C6.0918 20.0873 5.93618 20.2257 5.90541 20.5714C5.89239 20.7178 5.9162 20.7991 5.93905 20.8455C5.96199 20.8922 6.00208 20.9405 6.08044 20.9926C6.26408 21.1148 6.54601 21.1926 6.95749 21.2951C6.97277 21.2989 6.98826 21.3028 7.00395 21.3067C7.35934 21.395 7.81581 21.5083 8.17857 21.7335C8.3794 21.8581 8.56979 22.0266 8.70774 22.2592C8.84684 22.4937 8.915 22.7638 8.915 23.0639C8.915 23.0755 8.91461 23.0871 8.91382 23.0986C8.86082 23.8749 8.44161 24.334 7.97068 24.571C7.53632 24.7897 7.08348 24.81 6.89696 24.81C6.16683 24.81 5.65415 24.5442 5.3238 24.2601C5.1621 24.1211 5.04776 23.9812 4.97228 23.873C4.9344 23.8188 4.90581 23.7718 4.88552 23.7358C4.87535 23.7178 4.86721 23.7025 4.86098 23.6903C4.85787 23.6843 4.85522 23.6789 4.85303 23.6745C4.85194 23.6722 4.85096 23.6702 4.85009 23.6684L4.84888 23.6658L4.84833 23.6646L4.84807 23.6641C4.84795 23.6638 4.84783 23.6636 5.30554 23.4562L4.84782 23.6635C4.72741 23.4047 4.84246 23.0986 5.1048 22.9797C5.36478 22.862 5.67185 22.9724 5.79454 23.2264C5.79519 23.2276 5.79653 23.2301 5.79857 23.2337C5.80441 23.244 5.81578 23.2631 5.83324 23.2881C5.86845 23.3386 5.92627 23.4101 6.01053 23.4826C6.17209 23.6215 6.44648 23.7786 6.89696 23.7786C7.02525 23.7786 7.28073 23.7605 7.49567 23.6523C7.67122 23.5639 7.83971 23.4114 7.86954 23.047C7.8672 22.9151 7.8376 22.8341 7.80558 22.7801C7.77105 22.7219 7.71541 22.6645 7.62199 22.6065C7.41223 22.4763 7.11177 22.3973 6.70156 22.2951C6.69031 22.2923 6.67894 22.2895 6.66746 22.2866C6.31159 22.1981 5.85024 22.0834 5.49614 21.8478C5.29992 21.7173 5.11856 21.5398 4.99855 21.2957C4.87844 21.0514 4.83778 20.777 4.86411 20.4812C4.92976 19.7435 5.33348 19.3052 5.79974 19.0801ZM5.79747 23.2325C5.79743 23.2324 5.79738 23.2323 5.79734 23.2322L5.79747 23.2325ZM5.7976 23.2328C5.7976 23.2328 5.7976 23.2328 5.7976 23.2328L5.79747 23.2325L5.79734 23.2322" fill="white"/>
<path fill-rule="evenodd" clip-rule="evenodd" d="M6.85774 18.1C7.14639 18.1 7.38039 18.3309 7.38039 18.6157V19.3728C7.38039 19.6576 7.14639 19.8885 6.85774 19.8885C6.56908 19.8885 6.33508 19.6576 6.33508 19.3728V18.6157C6.33508 18.3309 6.56908 18.1 6.85774 18.1Z" fill="white"/>
<path fill-rule="evenodd" clip-rule="evenodd" d="M6.85774 23.7786C7.14639 23.7786 7.38039 24.0095 7.38039 24.2943V25.0515C7.38039 25.3363 7.14639 25.5671 6.85774 25.5671C6.56908 25.5671 6.33508 25.3363 6.33508 25.0515V24.2943C6.33508 24.0095 6.56908 23.7786 6.85774 23.7786Z" fill="white"/>
</svg>
