<svg width="32" height="32" viewBox="0 0 32 32" fill="none" xmlns="http://www.w3.org/2000/svg">
<path d="M27.5556 26.7454V5.25455C27.5556 4.80714 27.1929 4.44444 26.7455 4.44444H18.2098C17.8463 4.44444 17.5273 4.68653 17.4295 5.03661L16.4945 8.38388C16.3968 8.73396 16.0778 8.97605 15.7143 8.97605H13.6568H7.81999H5.25457C4.80716 8.97605 4.44446 9.33874 4.44446 9.78616V26.7454C4.44446 27.1929 4.80716 27.5556 5.25457 27.5556H26.7455C27.1929 27.5556 27.5556 27.1929 27.5556 26.7454Z" fill="#E7E3FF"/>
<path fill-rule="evenodd" clip-rule="evenodd" d="M18.2098 4.88889C18.0457 4.88889 17.9017 4.99816 17.8576 5.15618L16.9226 8.50346C16.7711 9.04559 16.2772 9.42049 15.7143 9.42049H5.25455C5.0526 9.42049 4.88889 9.58421 4.88889 9.78616V26.7454C4.88889 26.9474 5.0526 27.1111 5.25456 27.1111H26.7454C26.9474 27.1111 27.1111 26.9474 27.1111 26.7454V5.25456C27.1111 5.0526 26.9474 4.88889 26.7454 4.88889H18.2098ZM17.0015 4.91704C17.1529 4.37491 17.6469 4 18.2098 4H26.7454C27.4383 4 28 4.56168 28 5.25456V26.7454C28 27.4383 27.4383 28 26.7454 28H5.25456C4.56169 28 4 27.4383 4 26.7454V9.78616C4 9.09329 4.56168 8.5316 5.25455 8.5316H15.7143C15.8783 8.5316 16.0223 8.42233 16.0665 8.26431L17.0015 4.91704Z" fill="#39405D"/>
<path d="M18.6666 6.76229C18.6666 6.46401 18.9084 6.22221 19.2067 6.22221H24.8775C25.1757 6.22221 25.4175 6.46401 25.4175 6.76229V9.46265C25.4175 9.76093 25.1757 10.0027 24.8775 10.0027H19.2067C18.9084 10.0027 18.6666 9.76093 18.6666 9.46265V6.76229Z" fill="#FFECAB"/>
<path fill-rule="evenodd" clip-rule="evenodd" d="M19.5555 7.1111V9.11384H24.5287V7.1111H19.5555ZM19.2067 6.22221C18.9084 6.22221 18.6666 6.46401 18.6666 6.76229V9.46265C18.6666 9.76093 18.9084 10.0027 19.2067 10.0027H24.8775C25.1757 10.0027 25.4175 9.76093 25.4175 9.46265V6.76229C25.4175 6.46401 25.1757 6.22221 24.8775 6.22221H19.2067Z" fill="#39405D"/>
<path d="M27.5556 21.7778H4.44446V26.6667C4.44446 27.1576 4.84243 27.5556 5.33335 27.5556H26.6667C27.1576 27.5556 27.5556 27.1576 27.5556 26.6667V21.7778Z" fill="#D3CCFE"/>
<path fill-rule="evenodd" clip-rule="evenodd" d="M4 21.3333H28V26.6667C28 27.4031 27.403 28 26.6667 28H5.33333C4.59695 28 4 27.4031 4 26.6667V21.3333ZM4.88889 22.2222V26.6667C4.88889 26.9121 5.08787 27.1111 5.33333 27.1111H26.6667C26.9121 27.1111 27.1111 26.9121 27.1111 26.6667V22.2222H4.88889Z" fill="#39405D"/>
<path fill-rule="evenodd" clip-rule="evenodd" d="M12.8889 24.8889C12.8889 24.6434 13.0879 24.4444 13.3334 24.4444H18.6667C18.9122 24.4444 19.1111 24.6434 19.1111 24.8889C19.1111 25.1343 18.9122 25.3333 18.6667 25.3333H13.3334C13.0879 25.3333 12.8889 25.1343 12.8889 24.8889Z" fill="#39405D"/>
<path d="M13.4918 5.85162V13.2994H7.94595V5.85162C7.94595 5.63322 8.19172 5.50517 8.37071 5.6303L9.27174 6.26024C9.36965 6.3287 9.50091 6.32468 9.59444 6.25036L10.5768 5.46994C10.6769 5.39036 10.8192 5.39198 10.9175 5.47381L11.8425 6.24372C11.9361 6.3216 12.0702 6.32724 12.17 6.25748L13.0671 5.6303C13.2461 5.50517 13.4918 5.63322 13.4918 5.85162Z" fill="#FFECAB"/>
<path fill-rule="evenodd" clip-rule="evenodd" d="M10.3003 5.12195C10.5653 4.91141 10.9417 4.9157 11.2018 5.13221L12.0245 5.81692L12.8124 5.26605C13.286 4.93496 13.9363 5.27378 13.9363 5.85162V12.855H14.267C14.5125 12.855 14.7115 13.054 14.7115 13.2994C14.7115 13.5449 14.5125 13.7439 14.267 13.7439H7.11107C6.86561 13.7439 6.66663 13.5449 6.66663 13.2994C6.66663 13.054 6.86561 12.855 7.11107 12.855H7.50149V5.85162C7.50149 5.27377 8.15178 4.93496 8.62536 5.26605L9.4198 5.82147L10.3003 5.12195L10.5768 5.46994L10.5824 5.477M10.5768 5.46994L10.3003 5.12195L10.5768 5.46994ZM8.39038 12.855H13.0474V6.18636L12.4246 6.62173C12.1606 6.80631 11.8058 6.79139 11.5582 6.58533L10.7422 5.90615L9.8709 6.59835C9.62341 6.79498 9.27612 6.80561 9.01707 6.6245L8.39038 6.18636V12.855Z" fill="#39405D"/>
<path d="M17.7778 11.6906C17.7778 11.616 17.8383 11.5556 17.9129 11.5556H18.9761C19.0507 11.5556 19.1112 11.616 19.1112 11.6906V12.7539C19.1112 12.8284 19.0507 12.8889 18.9761 12.8889H17.9129C17.8383 12.8889 17.7778 12.8284 17.7778 12.7539V11.6906Z" fill="#39405D"/>
<path fill-rule="evenodd" clip-rule="evenodd" d="M18.466 11.6906C18.4589 11.6869 18.4517 11.6832 18.4445 11.6797C18.4373 11.6832 18.4301 11.6869 18.423 11.6906C18.2051 11.8042 18.0265 11.9828 17.9129 12.2007C17.9091 12.2079 17.9055 12.215 17.9019 12.2222C17.9055 12.2294 17.9091 12.2366 17.9129 12.2437C18.0265 12.4616 18.2051 12.6403 18.423 12.7539C18.4301 12.7576 18.4373 12.7612 18.4445 12.7648C18.4517 12.7612 18.4589 12.7576 18.466 12.7539C18.6839 12.6403 18.8625 12.4616 18.9761 12.2437C18.9799 12.2366 18.9835 12.2294 18.9871 12.2222C18.9835 12.215 18.9799 12.2079 18.9761 12.2007C18.8625 11.9828 18.6839 11.8042 18.466 11.6906ZM19.1112 11.6906V12.7539C19.1112 12.8284 19.0507 12.8889 18.9761 12.8889H17.9129C17.8383 12.8889 17.7778 12.8284 17.7778 12.7539V11.6906C17.7778 11.616 17.8383 11.5556 17.9129 11.5556H18.9761C19.0507 11.5556 19.1112 11.616 19.1112 11.6906Z" fill="#39405D"/>
<path d="M17.7778 14.8017C17.7778 14.7271 17.8383 14.6667 17.9129 14.6667H18.9761C19.0507 14.6667 19.1112 14.7271 19.1112 14.8017V15.865C19.1112 15.9396 19.0507 16 18.9761 16H17.9129C17.8383 16 17.7778 15.9396 17.7778 15.865V14.8017Z" fill="#39405D"/>
<path fill-rule="evenodd" clip-rule="evenodd" d="M18.466 14.8017C18.4589 14.798 18.4517 14.7943 18.4445 14.7908C18.4373 14.7943 18.4301 14.798 18.423 14.8017C18.2051 14.9153 18.0265 15.0939 17.9129 15.3119C17.9091 15.319 17.9055 15.3261 17.9019 15.3333C17.9055 15.3405 17.9091 15.3477 17.9129 15.3548C18.0265 15.5728 18.2051 15.7514 18.423 15.865C18.4301 15.8687 18.4373 15.8723 18.4445 15.8759C18.4517 15.8723 18.4589 15.8687 18.466 15.865C18.6839 15.7514 18.8625 15.5728 18.9761 15.3548C18.9799 15.3477 18.9835 15.3405 18.9871 15.3333C18.9835 15.3261 18.9799 15.319 18.9761 15.3119C18.8625 15.0939 18.6839 14.9153 18.466 14.8017ZM19.1112 14.8017V15.865C19.1112 15.9396 19.0507 16 18.9761 16H17.9129C17.8383 16 17.7778 15.9396 17.7778 15.865V14.8017C17.7778 14.7271 17.8383 14.6667 17.9129 14.6667H18.9761C19.0507 14.6667 19.1112 14.7271 19.1112 14.8017Z" fill="#39405D"/>
<path d="M20.8888 11.6906C20.8888 11.616 20.9492 11.5556 21.0238 11.5556H22.0871C22.1617 11.5556 22.2221 11.616 22.2221 11.6906V12.7539C22.2221 12.8284 22.1617 12.8889 22.0871 12.8889H21.0238C20.9492 12.8889 20.8888 12.8284 20.8888 12.7539V11.6906Z" fill="#39405D"/>
<path fill-rule="evenodd" clip-rule="evenodd" d="M21.5769 11.6906C21.5698 11.6869 21.5627 11.6832 21.5555 11.6797C21.5483 11.6832 21.5411 11.6869 21.534 11.6906C21.316 11.8042 21.1374 11.9828 21.0238 12.2007C21.0201 12.2079 21.0165 12.215 21.0129 12.2222C21.0165 12.2294 21.0201 12.2366 21.0238 12.2437C21.1374 12.4616 21.316 12.6403 21.534 12.7539C21.5411 12.7576 21.5483 12.7612 21.5555 12.7648C21.5627 12.7612 21.5698 12.7576 21.5769 12.7539C21.7949 12.6403 21.9735 12.4616 22.0871 12.2437C22.0908 12.2366 22.0945 12.2294 22.098 12.2222C22.0945 12.215 22.0908 12.2079 22.0871 12.2007C21.9735 11.9828 21.7949 11.8042 21.5769 11.6906ZM22.2221 11.6906V12.7539C22.2221 12.8284 22.1617 12.8889 22.0871 12.8889H21.0238C20.9492 12.8889 20.8888 12.8284 20.8888 12.7539V11.6906C20.8888 11.616 20.9492 11.5556 21.0238 11.5556H22.0871C22.1617 11.5556 22.2221 11.616 22.2221 11.6906Z" fill="#39405D"/>
<path d="M20.8888 14.8017C20.8888 14.7271 20.9492 14.6667 21.0238 14.6667H22.0871C22.1617 14.6667 22.2221 14.7271 22.2221 14.8017V15.865C22.2221 15.9396 22.1617 16 22.0871 16H21.0238C20.9492 16 20.8888 15.9396 20.8888 15.865V14.8017Z" fill="#39405D"/>
<path fill-rule="evenodd" clip-rule="evenodd" d="M21.5769 14.8017C21.5698 14.798 21.5627 14.7943 21.5555 14.7908C21.5483 14.7943 21.5411 14.798 21.534 14.8017C21.316 14.9153 21.1374 15.0939 21.0238 15.3119C21.0201 15.319 21.0165 15.3261 21.0129 15.3333C21.0165 15.3405 21.0201 15.3477 21.0238 15.3548C21.1374 15.5728 21.316 15.7514 21.534 15.865C21.5411 15.8687 21.5483 15.8723 21.5555 15.8759C21.5627 15.8723 21.5698 15.8687 21.5769 15.865C21.7949 15.7514 21.9735 15.5728 22.0871 15.3548C22.0908 15.3477 22.0945 15.3405 22.098 15.3333C22.0945 15.3261 22.0908 15.319 22.0871 15.3119C21.9735 15.0939 21.7949 14.9153 21.5769 14.8017ZM22.2221 14.8017V15.865C22.2221 15.9396 22.1617 16 22.0871 16H21.0238C20.9492 16 20.8888 15.9396 20.8888 15.865V14.8017C20.8888 14.7271 20.9492 14.6667 21.0238 14.6667H22.0871C22.1617 14.6667 22.2221 14.7271 22.2221 14.8017Z" fill="#39405D"/>
<path d="M24 11.6906C24 11.616 24.0604 11.5556 24.135 11.5556H25.1983C25.2729 11.5556 25.3333 11.616 25.3333 11.6906V12.7539C25.3333 12.8284 25.2729 12.8889 25.1983 12.8889H24.135C24.0604 12.8889 24 12.8284 24 12.7539V11.6906Z" fill="#39405D"/>
<path fill-rule="evenodd" clip-rule="evenodd" d="M24.6881 11.6906C24.681 11.6869 24.6739 11.6832 24.6667 11.6797C24.6595 11.6832 24.6523 11.6869 24.6452 11.6906C24.4273 11.8042 24.2486 11.9828 24.135 12.2007C24.1313 12.2079 24.1277 12.215 24.1241 12.2222C24.1277 12.2294 24.1313 12.2366 24.135 12.2437C24.2486 12.4616 24.4273 12.6403 24.6452 12.7539C24.6523 12.7576 24.6595 12.7612 24.6667 12.7648C24.6739 12.7612 24.681 12.7576 24.6881 12.7539C24.9061 12.6403 25.0847 12.4616 25.1983 12.2437C25.202 12.2366 25.2057 12.2294 25.2092 12.2222C25.2057 12.215 25.202 12.2079 25.1983 12.2007C25.0847 11.9828 24.9061 11.8042 24.6881 11.6906ZM25.3333 11.6906V12.7539C25.3333 12.8284 25.2729 12.8889 25.1983 12.8889H24.135C24.0604 12.8889 24 12.8284 24 12.7539V11.6906C24 11.616 24.0604 11.5556 24.135 11.5556H25.1983C25.2729 11.5556 25.3333 11.616 25.3333 11.6906Z" fill="#39405D"/>
<path d="M20.8888 17.9128C20.8888 17.8382 20.9492 17.7778 21.0238 17.7778H22.0871C22.1617 17.7778 22.2221 17.8382 22.2221 17.9128V18.9761C22.2221 19.0507 22.1617 19.1111 22.0871 19.1111H21.0238C20.9492 19.1111 20.8888 19.0507 20.8888 18.9761V17.9128Z" fill="#39405D"/>
<path fill-rule="evenodd" clip-rule="evenodd" d="M21.5769 17.9128C21.5698 17.9091 21.5627 17.9055 21.5555 17.9019C21.5483 17.9055 21.5411 17.9091 21.534 17.9128C21.316 18.0264 21.1374 18.205 21.0238 18.423C21.0201 18.4301 21.0165 18.4373 21.0129 18.4445C21.0165 18.4517 21.0201 18.4588 21.0238 18.4659C21.1374 18.6839 21.316 18.8625 21.534 18.9761C21.5411 18.9798 21.5483 18.9835 21.5555 18.987C21.5627 18.9835 21.5698 18.9798 21.5769 18.9761C21.7949 18.8625 21.9735 18.6839 22.0871 18.4659C22.0908 18.4588 22.0945 18.4517 22.098 18.4445C22.0945 18.4373 22.0908 18.4301 22.0871 18.423C21.9735 18.205 21.7949 18.0264 21.5769 17.9128ZM22.2221 17.9128V18.9761C22.2221 19.0507 22.1617 19.1111 22.0871 19.1111H21.0238C20.9492 19.1111 20.8888 19.0507 20.8888 18.9761V17.9128C20.8888 17.8382 20.9492 17.7778 21.0238 17.7778H22.0871C22.1617 17.7778 22.2221 17.8382 22.2221 17.9128Z" fill="#39405D"/>
<path d="M17.7778 17.9128C17.7778 17.8382 17.8383 17.7778 17.9129 17.7778H18.9761C19.0507 17.7778 19.1112 17.8382 19.1112 17.9128V18.9761C19.1112 19.0507 19.0507 19.1111 18.9761 19.1111H17.9129C17.8383 19.1111 17.7778 19.0507 17.7778 18.9761V17.9128Z" fill="#39405D"/>
<path fill-rule="evenodd" clip-rule="evenodd" d="M18.466 17.9128C18.4589 17.9091 18.4517 17.9055 18.4445 17.9019C18.4373 17.9055 18.4301 17.9091 18.423 17.9128C18.2051 18.0264 18.0265 18.205 17.9129 18.423C17.9091 18.4301 17.9055 18.4373 17.9019 18.4445C17.9055 18.4517 17.9091 18.4588 17.9129 18.4659C18.0265 18.6839 18.2051 18.8625 18.423 18.9761C18.4301 18.9798 18.4373 18.9835 18.4445 18.987C18.4517 18.9835 18.4589 18.9798 18.466 18.9761C18.6839 18.8625 18.8625 18.6839 18.9761 18.4659C18.9799 18.4588 18.9835 18.4517 18.9871 18.4445C18.9835 18.4373 18.9799 18.4301 18.9761 18.423C18.8625 18.205 18.6839 18.0264 18.466 17.9128ZM19.1112 17.9128V18.9761C19.1112 19.0507 19.0507 19.1111 18.9761 19.1111H17.9129C17.8383 19.1111 17.7778 19.0507 17.7778 18.9761V17.9128C17.7778 17.8382 17.8383 17.7778 17.9129 17.7778H18.9761C19.0507 17.7778 19.1112 17.8382 19.1112 17.9128Z" fill="#39405D"/>
<path d="M24 14.8017C24 14.7271 24.0604 14.6667 24.135 14.6667H25.1983C25.2729 14.6667 25.3333 14.7271 25.3333 14.8017V15.865C25.3333 15.9396 25.2729 16 25.1983 16H24.135C24.0604 16 24 15.9396 24 15.865V14.8017Z" fill="#39405D"/>
<path fill-rule="evenodd" clip-rule="evenodd" d="M24.6881 14.8017C24.681 14.798 24.6739 14.7943 24.6667 14.7908C24.6595 14.7943 24.6523 14.798 24.6452 14.8017C24.4273 14.9153 24.2486 15.0939 24.135 15.3119C24.1313 15.319 24.1277 15.3261 24.1241 15.3333C24.1277 15.3405 24.1313 15.3477 24.135 15.3548C24.2486 15.5728 24.4273 15.7514 24.6452 15.865C24.6523 15.8687 24.6595 15.8723 24.6667 15.8759C24.6739 15.8723 24.681 15.8687 24.6881 15.865C24.9061 15.7514 25.0847 15.5728 25.1983 15.3548C25.202 15.3477 25.2057 15.3405 25.2092 15.3333C25.2057 15.3261 25.202 15.319 25.1983 15.3119C25.0847 15.0939 24.9061 14.9153 24.6881 14.8017ZM25.3333 14.8017V15.865C25.3333 15.9396 25.2729 16 25.1983 16H24.135C24.0604 16 24 15.9396 24 15.865V14.8017C24 14.7271 24.0604 14.6667 24.135 14.6667H25.1983C25.2729 14.6667 25.3333 14.7271 25.3333 14.8017Z" fill="#39405D"/>
<path d="M24 17.9128C24 17.8382 24.0604 17.7778 24.135 17.7778H25.1983C25.2729 17.7778 25.3333 17.8382 25.3333 17.9128V18.9761C25.3333 19.0507 25.2729 19.1111 25.1983 19.1111H24.135C24.0604 19.1111 24 19.0507 24 18.9761V17.9128Z" fill="#39405D"/>
<path fill-rule="evenodd" clip-rule="evenodd" d="M24.6881 17.9128C24.681 17.9091 24.6739 17.9055 24.6667 17.9019C24.6595 17.9055 24.6523 17.9091 24.6452 17.9128C24.4273 18.0264 24.2486 18.205 24.135 18.423C24.1313 18.4301 24.1277 18.4373 24.1241 18.4445C24.1277 18.4517 24.1313 18.4588 24.135 18.4659C24.2486 18.6839 24.4273 18.8625 24.6452 18.9761C24.6523 18.9798 24.6595 18.9835 24.6667 18.987C24.6739 18.9835 24.681 18.9798 24.6881 18.9761C24.9061 18.8625 25.0847 18.6839 25.1983 18.4659C25.202 18.4588 25.2057 18.4517 25.2092 18.4445C25.2057 18.4373 25.202 18.4301 25.1983 18.423C25.0847 18.205 24.9061 18.0264 24.6881 17.9128ZM25.3333 17.9128V18.9761C25.3333 19.0507 25.2729 19.1111 25.1983 19.1111H24.135C24.0604 19.1111 24 19.0507 24 18.9761V17.9128C24 17.8382 24.0604 17.7778 24.135 17.7778H25.1983C25.2729 17.7778 25.3333 17.8382 25.3333 17.9128Z" fill="#39405D"/>
</svg>
