<svg width="20" height="20" viewBox="0 0 20 20" fill="none" xmlns="http://www.w3.org/2000/svg">
<path d="M1.02155 14.3877L2.60871 13.3477L3.07347 14.0002L6.31209 11.7876L13.1501 13.708C13.5125 13.8097 13.8148 14.0563 13.9834 14.3877L17.8291 12.1642C18.2235 11.9361 18.7187 11.9634 19.0848 12.2332C19.3704 12.4437 19.5385 12.7742 19.5385 13.1251V13.2025C19.5385 13.6191 19.3305 14.0092 18.982 14.2463L12.6607 18.5477L6.84114 16.9877L5.77024 17.7869L6.31209 18.5477L4.72493 19.5877L1.02155 14.3877Z" fill="#E7E3FF"/>
<path d="M16.0665 7.07508C16.0665 9.16919 14.3394 10.8668 12.2088 10.8668C10.0783 10.8668 8.35114 9.16919 8.35114 7.07508C8.35114 4.98098 10.0783 3.28337 12.2088 3.28337C14.3394 3.28337 16.0665 4.98098 16.0665 7.07508Z" fill="#FFECAB"/>
<path d="M0.635773 14.2793L2.17885 13.1418L6.03654 18.4502L4.49346 19.5877L0.635773 14.2793Z" fill="#D3CCFE"/>
<path fill-rule="evenodd" clip-rule="evenodd" d="M12.1567 0.250001C15.2152 0.251853 18.3236 2.19095 18.7645 6.05757C18.7882 6.26568 18.6358 6.45329 18.4241 6.47661C18.2123 6.49993 18.0215 6.35013 17.9977 6.14202C17.6078 2.72151 14.8896 1.01 12.1563 1.00834C9.48199 1.00672 6.85747 2.64099 6.44417 5.92124L6.53529 5.83168C6.68594 5.68361 6.9302 5.68361 7.08085 5.83168C7.2315 5.97976 7.2315 6.21984 7.08085 6.36791L6.03653 7.39437L4.99222 6.36791C4.84156 6.21984 4.84156 5.97976 4.99222 5.83168C5.14287 5.68361 5.38712 5.68361 5.53777 5.83168L5.66353 5.95529C6.07775 2.14999 9.12561 0.248162 12.1567 0.250001ZM7.037 12.0093C6.68942 11.8954 6.30751 11.95 6.00736 12.1565L3.656 13.7743L5.94494 16.9241L6.56284 16.4239C6.66535 16.3409 6.80408 16.3156 6.93006 16.3569L11.9663 18.0069C12.3196 18.1227 12.708 18.0642 13.0099 17.8499L18.6005 13.8813C18.9027 13.6668 19.0416 13.2931 18.9512 12.9376L18.9419 12.9014C18.8721 12.6268 18.6643 12.4062 18.3911 12.3167C18.165 12.2426 17.9176 12.2661 17.7101 12.3814L13.9448 14.4732V14.6195C13.9448 15.1015 13.7219 15.5575 13.3389 15.8586C12.9248 16.1842 12.3744 16.2892 11.8664 16.1394L8.62607 15.1839C8.422 15.1237 8.3062 14.9124 8.36742 14.7118C8.42864 14.5112 8.6437 14.3974 8.84777 14.4576L12.0881 15.413C12.3533 15.4912 12.6407 15.4364 12.8569 15.2664C13.0569 15.1092 13.1733 14.8712 13.1733 14.6195V14.3195C13.0814 14.0998 12.8965 13.929 12.6655 13.8534L7.037 12.0093ZM13.7184 13.7279C13.523 13.4527 13.2409 13.2425 12.9095 13.1339L7.28099 11.2898C6.70169 11.1 6.06517 11.1911 5.56491 11.5353L3.20753 13.1572L2.87853 12.7045C2.76163 12.5436 2.5386 12.498 2.36614 12.5997L0.437295 13.7373C0.344978 13.7917 0.280007 13.8816 0.258085 13.9852C0.236162 14.0888 0.259283 14.1967 0.321858 14.2828L4.17955 19.5912C4.29645 19.752 4.51947 19.7976 4.69194 19.6959L6.62078 18.5584C6.7131 18.504 6.77807 18.4141 6.79999 18.3105C6.82191 18.2069 6.79879 18.099 6.73622 18.0129L6.39445 17.5426L6.88856 17.1426L11.7223 18.7263C12.3112 18.9193 12.9584 18.8219 13.4616 18.4647L19.0522 14.4961C19.6102 14.1 19.8666 13.41 19.6997 12.7537L19.6904 12.7175C19.5566 12.1913 19.1585 11.7688 18.635 11.5973C18.2019 11.4554 17.7279 11.5004 17.3305 11.7212L13.7184 13.7279ZM1.19256 14.1762L4.60037 18.8656L5.86551 18.1195L2.4577 13.4301L1.19256 14.1762ZM12.527 4.77576V4.96697C12.8383 5.02854 13.2207 5.18696 13.4742 5.53547C13.5863 5.6897 13.5512 5.90491 13.3957 6.01616C13.2402 6.12741 13.0232 6.09257 12.911 5.93834C12.7445 5.70939 12.4122 5.62224 12.2059 5.62224C12.089 5.62224 11.9215 5.63457 11.7861 5.70025C11.6764 5.75351 11.5743 5.8446 11.554 6.07302C11.5455 6.16974 11.5611 6.22323 11.576 6.2536C11.5909 6.2841 11.617 6.31586 11.6685 6.35025C11.7892 6.43099 11.9748 6.48252 12.2464 6.55054L12.2772 6.55822C12.5116 6.61675 12.8131 6.69203 13.0528 6.84155C13.1855 6.92437 13.3115 7.03634 13.4027 7.19097C13.4947 7.34691 13.5398 7.52645 13.5398 7.72587C13.5398 7.73359 13.5395 7.74131 13.539 7.74902C13.504 8.26474 13.2268 8.56993 12.9154 8.72746C12.7823 8.7948 12.6466 8.83382 12.527 8.8563V9.04402C12.527 9.23419 12.3716 9.38835 12.1799 9.38835C11.9881 9.38835 11.8327 9.23419 11.8327 9.04402V8.84799C11.5426 8.78598 11.3234 8.65662 11.1664 8.52096C11.0595 8.42861 10.984 8.33566 10.9341 8.2638C10.909 8.22773 10.8901 8.1965 10.8767 8.17261C10.87 8.16065 10.8646 8.15047 10.8605 8.14237L10.8552 8.13179L10.8533 8.12772L10.8525 8.12601L10.8521 8.12523L10.8519 8.12487C10.8518 8.12469 10.8518 8.12451 11.1673 7.98087L10.8518 8.12451C10.7718 7.95168 10.8482 7.74726 11.0225 7.66793C11.1951 7.58936 11.3989 7.66297 11.4805 7.83233L11.4832 7.83734C11.4871 7.84413 11.4945 7.85673 11.506 7.87325C11.5291 7.90658 11.5672 7.95388 11.6226 8.00177C11.7288 8.09357 11.9093 8.19753 12.2059 8.19753C12.2904 8.19753 12.4586 8.18552 12.5999 8.11401C12.7151 8.05575 12.8257 7.95527 12.8453 7.71457C12.8437 7.62749 12.8243 7.57422 12.8034 7.53882C12.7809 7.50061 12.7445 7.46277 12.6831 7.42447C12.545 7.33837 12.3472 7.28605 12.0764 7.21824L12.0538 7.21258C11.8191 7.1539 11.5143 7.07771 11.2803 6.92128C11.1506 6.83455 11.0306 6.7165 10.9512 6.55416C10.8718 6.39169 10.8449 6.20931 10.8623 6.01278C10.9057 5.52268 11.1726 5.23128 11.4809 5.08167C11.5995 5.02415 11.721 4.98883 11.8327 4.9672V4.77576C11.8327 4.58559 11.9881 4.43143 12.1799 4.43143C12.3716 4.43143 12.527 4.58559 12.527 4.77576ZM12.2088 10.6294C14.2861 10.6294 15.9701 8.95928 15.9701 6.89913C15.9701 4.83898 14.2861 3.1689 12.2088 3.1689C10.1316 3.1689 8.44759 4.83898 8.44759 6.89913C8.44759 8.95928 10.1316 10.6294 12.2088 10.6294ZM12.2088 11.4902C14.7655 11.4902 16.8381 9.4347 16.8381 6.89913C16.8381 4.36356 14.7655 2.30808 12.2088 2.30808C9.65218 2.30808 7.57961 4.36356 7.57961 6.89913C7.57961 9.4347 9.65218 11.4902 12.2088 11.4902Z" fill="#1E243D"/>
</svg>
