<svg width="24" height="24" viewBox="0 0 24 24" fill="none" xmlns="http://www.w3.org/2000/svg">
<path d="M15.375 1.88889H4.87502C4.46081 1.88889 4.12502 2.23711 4.12502 2.66666L4.125 21.3333C4.125 21.7629 4.46079 22.1111 4.875 22.1111H15.375C15.7892 22.1111 16.125 21.7629 16.125 21.3333V17.4444V6.55555V2.66666C16.125 2.23711 15.7892 1.88889 15.375 1.88889Z" fill="#E7E3FF"/>
<path fill-rule="evenodd" clip-rule="evenodd" d="M3.75002 2.66666C3.75002 2.02233 4.2537 1.5 4.87502 1.5H15.375C15.9963 1.5 16.5 2.02233 16.5 2.66667V21.3333C16.5 21.9777 15.9963 22.5 15.375 22.5H4.875C4.25368 22.5 3.75 21.9777 3.75 21.3333L3.75002 2.66666ZM4.87502 2.27778C4.66791 2.27778 4.50002 2.45189 4.50002 2.66667L4.5 21.3333C4.5 21.5481 4.66789 21.7222 4.875 21.7222H15.375C15.5821 21.7222 15.75 21.5481 15.75 21.3333V2.66667C15.75 2.45189 15.5821 2.27778 15.375 2.27778H4.87502Z" fill="#39405D"/>
<path d="M11.625 19C11.625 19.8591 10.9534 20.5556 10.125 20.5556C9.29657 20.5556 8.625 19.8591 8.625 19C8.625 18.1409 9.29657 17.4445 10.125 17.4445C10.9534 17.4445 11.625 18.1409 11.625 19Z" fill="#D3CCFE"/>
<path fill-rule="evenodd" clip-rule="evenodd" d="M10.125 19.7778C10.5392 19.7778 10.875 19.4296 10.875 19C10.875 18.5705 10.5392 18.2222 10.125 18.2222C9.71079 18.2222 9.375 18.5705 9.375 19C9.375 19.4296 9.71079 19.7778 10.125 19.7778ZM10.125 20.5556C10.9534 20.5556 11.625 19.8591 11.625 19C11.625 18.1409 10.9534 17.4445 10.125 17.4445C9.29657 17.4445 8.625 18.1409 8.625 19C8.625 19.8591 9.29657 20.5556 10.125 20.5556Z" fill="#39405D"/>
<path fill-rule="evenodd" clip-rule="evenodd" d="M7.875 3.83335C7.875 3.61857 8.04289 3.44446 8.25 3.44446H12C12.2071 3.44446 12.375 3.61857 12.375 3.83335C12.375 4.04812 12.2071 4.22224 12 4.22224H8.25C8.04289 4.22224 7.875 4.04812 7.875 3.83335Z" fill="#39405D"/>
<path d="M19.575 6.55554H12.675C12.5093 6.55554 12.375 6.69483 12.375 6.86665V16.1289C12.375 16.3681 12.6245 16.5179 12.8245 16.3986L14.182 15.5892C14.2746 15.5339 14.3885 15.5339 14.4811 15.5892L16.1385 16.5775C16.2311 16.6327 16.345 16.6327 16.4376 16.5775L18.0805 15.5978C18.1807 15.5381 18.3052 15.5434 18.4004 15.6115L19.4046 16.3301C19.6036 16.4725 19.875 16.3247 19.875 16.074V6.86665C19.875 6.69483 19.7407 6.55554 19.575 6.55554Z" fill="#FFEBBC"/>
<path fill-rule="evenodd" clip-rule="evenodd" d="M12 6.86669C12 6.48009 12.3022 6.16669 12.675 6.16669H19.575C19.9478 6.16669 20.25 6.48009 20.25 6.86669V16.074C20.25 16.6382 19.6394 16.9706 19.1917 16.6502L18.2264 15.9595L16.6245 16.9146C16.4162 17.0389 16.1599 17.0389 15.9516 16.9146L14.3315 15.9486L13.0115 16.7358C12.5615 17.0041 12 16.6672 12 16.1289V6.86669ZM18.1874 15.9316L18.1875 15.9317ZM12.75 6.94446V15.9945L13.9951 15.2521C14.2034 15.1278 14.4597 15.1278 14.668 15.2521L16.288 16.2181L17.8935 15.2607C18.1191 15.1262 18.3992 15.1382 18.6133 15.2914L19.5 15.9259V6.94446H12.75ZM19.6176 16.01L19.6174 16.0099Z" fill="#39405D"/>
<path fill-rule="evenodd" clip-rule="evenodd" d="M14.25 8.88889C14.25 8.67411 14.4179 8.5 14.625 8.5H17.775C17.9821 8.5 18.15 8.67411 18.15 8.88889C18.15 9.10367 17.9821 9.27778 17.775 9.27778H14.625C14.4179 9.27778 14.25 9.10367 14.25 8.88889Z" fill="#39405D"/>
<path fill-rule="evenodd" clip-rule="evenodd" d="M14.25 11.2222C14.25 11.0075 14.4179 10.8333 14.625 10.8333H17.775C17.9821 10.8333 18.15 11.0075 18.15 11.2222C18.15 11.437 17.9821 11.6111 17.775 11.6111H14.625C14.4179 11.6111 14.25 11.437 14.25 11.2222Z" fill="#39405D"/>
</svg>
