<svg width="32" height="32" viewBox="0 0 32 32" fill="none" xmlns="http://www.w3.org/2000/svg">
<path d="M21.8298 2.51852H7.53192C6.96789 2.51852 6.51065 2.98282 6.51065 3.55556L6.51062 28.4444C6.51062 29.0172 6.96786 29.4815 7.5319 29.4815H21.8298C22.3938 29.4815 22.851 29.0172 22.851 28.4445V23.2593V8.74075V3.55556C22.851 2.98282 22.3938 2.51852 21.8298 2.51852Z" fill="#E7E3FF"/>
<path fill-rule="evenodd" clip-rule="evenodd" d="M6.00003 3.55555C6.00003 2.69644 6.68589 2 7.53194 2H21.8298C22.6758 2 23.3617 2.69645 23.3617 3.55556V28.4444C23.3617 29.3036 22.6758 30 21.8298 30H7.53192C6.68586 30 6 29.3036 6 28.4444L6.00003 3.55555ZM7.53194 3.03704C7.24992 3.03704 7.02131 3.26918 7.0213 3.55555L7.02128 28.4444C7.02128 28.7308 7.2499 28.963 7.53192 28.963H21.8298C22.1118 28.963 22.3404 28.7308 22.3404 28.4444V3.55556C22.3404 3.26919 22.1118 3.03704 21.8298 3.03704H7.53194Z" fill="#39405D"/>
<path d="M30 16C30 20.0092 26.7993 23.2593 22.8511 23.2593C18.9028 23.2593 15.7021 20.0092 15.7021 16C15.7021 11.9908 18.9028 8.74074 22.8511 8.74074C26.7993 8.74074 30 11.9908 30 16Z" fill="#FFECAB"/>
<path fill-rule="evenodd" clip-rule="evenodd" d="M22.8511 22.2222C26.2353 22.2222 28.9787 19.4364 28.9787 16C28.9787 12.5636 26.2353 9.77777 22.8511 9.77777C19.4669 9.77777 16.7234 12.5636 16.7234 16C16.7234 19.4364 19.4669 22.2222 22.8511 22.2222ZM22.8511 23.2593C26.7993 23.2593 30 20.0092 30 16C30 11.9908 26.7993 8.74074 22.8511 8.74074C18.9028 8.74074 15.7021 11.9908 15.7021 16C15.7021 20.0092 18.9028 23.2593 22.8511 23.2593Z" fill="#39405D"/>
<path d="M16.7234 25.3333C16.7234 26.4788 15.8089 27.4074 14.6809 27.4074C13.5528 27.4074 12.6383 26.4788 12.6383 25.3333C12.6383 24.1879 13.5528 23.2593 14.6809 23.2593C15.8089 23.2593 16.7234 24.1879 16.7234 25.3333Z" fill="#D3CCFE"/>
<path fill-rule="evenodd" clip-rule="evenodd" d="M14.6809 26.3704C15.2449 26.3704 15.7021 25.9061 15.7021 25.3333C15.7021 24.7606 15.2449 24.2963 14.6809 24.2963C14.1168 24.2963 13.6596 24.7606 13.6596 25.3333C13.6596 25.9061 14.1168 26.3704 14.6809 26.3704ZM14.6809 27.4074C15.8089 27.4074 16.7234 26.4788 16.7234 25.3333C16.7234 24.1879 15.8089 23.2593 14.6809 23.2593C13.5528 23.2593 12.6383 24.1879 12.6383 25.3333C12.6383 26.4788 13.5528 27.4074 14.6809 27.4074Z" fill="#39405D"/>
<path fill-rule="evenodd" clip-rule="evenodd" d="M11.6171 5.11111C11.6171 4.82474 11.8457 4.59259 12.1277 4.59259H17.2341C17.5161 4.59259 17.7447 4.82474 17.7447 5.11111C17.7447 5.39748 17.5161 5.62963 17.2341 5.62963H12.1277C11.8457 5.62963 11.6171 5.39748 11.6171 5.11111Z" fill="#39405D"/>
<path fill-rule="evenodd" clip-rule="evenodd" d="M22.851 11.8519C23.1164 11.8519 23.3316 12.0703 23.3316 12.3399V12.6283C23.813 12.7207 24.4163 12.9746 24.808 13.5489C24.9591 13.7704 24.9048 14.0744 24.6866 14.2279C24.4684 14.3813 24.169 14.3261 24.0179 14.1046C23.7436 13.7024 23.211 13.5598 22.8911 13.5598C22.71 13.5598 22.4443 13.5798 22.2265 13.6926C22.0447 13.7866 21.8655 13.9567 21.8311 14.371C21.8167 14.5445 21.8425 14.6504 21.8734 14.7176C21.9039 14.7841 21.954 14.845 22.039 14.9056C22.2338 15.0445 22.5285 15.1308 22.9447 15.2419L22.9899 15.254C23.3534 15.3508 23.8124 15.4731 24.1755 15.7146C24.3753 15.8475 24.5607 16.0245 24.6938 16.2651C24.8275 16.5067 24.8935 16.7853 24.8935 17.0978C24.8935 17.1083 24.8932 17.1188 24.8925 17.1293C24.841 17.9381 24.4355 18.4192 23.9676 18.6716C23.7486 18.7897 23.5243 18.8539 23.3316 18.8885V19.1718C23.3316 19.4413 23.1164 19.6598 22.851 19.6598C22.5856 19.6598 22.3704 19.4413 22.3704 19.1718V18.8762C21.906 18.7803 21.5599 18.5641 21.3166 18.3399C21.1564 18.1923 21.0436 18.0441 20.9696 17.9305C20.9325 17.8734 20.9046 17.8243 20.885 17.7871C20.8752 17.7685 20.8674 17.7528 20.8615 17.7405L20.8541 17.7245L20.8519 17.7196L20.8499 17.7152L20.8494 17.714C20.7424 17.4674 20.8525 17.1794 21.0953 17.0707C21.3364 16.9627 21.6177 17.0721 21.7266 17.315C21.7266 17.315 21.7292 17.3205 21.7324 17.3266C21.7394 17.3398 21.7522 17.3628 21.7714 17.3922C21.8101 17.4516 21.8725 17.5341 21.9626 17.6171C22.1364 17.7773 22.425 17.9518 22.8911 17.9518C23.0229 17.9518 23.2895 17.9322 23.5167 17.8097C23.7073 17.7068 23.9001 17.5202 23.9323 17.0824C23.9302 16.9214 23.8964 16.8165 23.8559 16.7432C23.8135 16.6666 23.7485 16.5973 23.6488 16.531C23.4282 16.3842 23.1155 16.2967 22.7003 16.1858L22.6685 16.1774C22.3041 16.0802 21.8404 15.9565 21.4867 15.7044C21.2923 15.5658 21.1171 15.3803 21.0021 15.1297C20.8874 14.8797 20.8477 14.5977 20.8733 14.289C20.937 13.5216 21.3271 13.0625 21.7901 12.823C21.9862 12.7215 22.1881 12.6628 22.3704 12.629V12.3399C22.3704 12.0703 22.5856 11.8519 22.851 11.8519Z" fill="#39405D"/>
</svg>
