<svg width="32" height="38" viewBox="0 0 32 38" fill="none" xmlns="http://www.w3.org/2000/svg">
<g filter="url(#filter0_d_1383_7725)">
<path d="M20.5 2.51852H6.50003C5.94774 2.51852 5.50003 2.98282 5.50003 3.55556L5.5 28.4444C5.5 29.0172 5.94772 29.4815 6.5 29.4815H20.5C21.0523 29.4815 21.5 29.0172 21.5 28.4445V23.2593V8.74075V3.55556C21.5 2.98282 21.0523 2.51852 20.5 2.51852Z" fill="#E7E3FF"/>
<path fill-rule="evenodd" clip-rule="evenodd" d="M5.00003 3.55555C5.00003 2.69644 5.6716 2 6.50003 2H20.5C21.3284 2 22 2.69645 22 3.55556V28.4444C22 29.3036 21.3284 30 20.5 30H6.5C5.67157 30 5 29.3036 5 28.4444L5.00003 3.55555ZM6.50003 3.03704C6.22388 3.03704 6.00003 3.26918 6.00003 3.55555L6 28.4444C6 28.7308 6.22386 28.963 6.5 28.963H20.5C20.7761 28.963 21 28.7308 21 28.4444V3.55556C21 3.26919 20.7761 3.03704 20.5 3.03704H6.50003Z" fill="#39405D"/>
<path d="M15.5 25.3333C15.5 26.4788 14.6046 27.4074 13.5 27.4074C12.3954 27.4074 11.5 26.4788 11.5 25.3333C11.5 24.1879 12.3954 23.2593 13.5 23.2593C14.6046 23.2593 15.5 24.1879 15.5 25.3333Z" fill="#D3CCFE"/>
<path fill-rule="evenodd" clip-rule="evenodd" d="M13.5 26.3704C14.0523 26.3704 14.5 25.9061 14.5 25.3333C14.5 24.7606 14.0523 24.2963 13.5 24.2963C12.9477 24.2963 12.5 24.7606 12.5 25.3333C12.5 25.9061 12.9477 26.3704 13.5 26.3704ZM13.5 27.4074C14.6046 27.4074 15.5 26.4788 15.5 25.3333C15.5 24.1879 14.6046 23.2593 13.5 23.2593C12.3954 23.2593 11.5 24.1879 11.5 25.3333C11.5 26.4788 12.3954 27.4074 13.5 27.4074Z" fill="#39405D"/>
<path fill-rule="evenodd" clip-rule="evenodd" d="M10.5 5.11111C10.5 4.82474 10.7239 4.59259 11 4.59259H16C16.2761 4.59259 16.5 4.82474 16.5 5.11111C16.5 5.39748 16.2761 5.62963 16 5.62963H11C10.7239 5.62963 10.5 5.39748 10.5 5.11111Z" fill="#39405D"/>
<path d="M26.1 8.74074H16.9C16.6791 8.74074 16.5 8.92646 16.5 9.15555V21.5052C16.5 21.8242 16.8327 22.0238 17.0994 21.8648L18.9093 20.7856C19.0328 20.7119 19.1846 20.7119 19.3081 20.7856L21.518 22.1033C21.6415 22.1769 21.7933 22.1769 21.9168 22.1033L24.1073 20.7971C24.241 20.7174 24.4069 20.7245 24.5338 20.8153L25.8728 21.7734C26.1382 21.9633 26.5 21.7663 26.5 21.432V9.15555C26.5 8.92646 26.3209 8.74074 26.1 8.74074Z" fill="#FFEBBC"/>
<path fill-rule="evenodd" clip-rule="evenodd" d="M16 9.15556C16 8.6401 16.4029 8.22223 16.9 8.22223H26.1C26.5971 8.22223 27 8.6401 27 9.15556V21.432C27 22.1842 26.1859 22.6274 25.5889 22.2002L24.3018 21.2793L22.166 22.5528C21.8883 22.7185 21.5465 22.7185 21.2688 22.5528L19.1087 21.2648L17.3486 22.3143C16.7486 22.6721 16 22.223 16 21.5052V9.15556ZM24.2499 21.2421L24.2501 21.2422L24.2499 21.2421ZM17 9.25927V21.326L18.6601 20.3361C18.9378 20.1704 19.2796 20.1704 19.5573 20.3361L21.7174 21.6241L23.858 20.3476C24.1588 20.1683 24.5322 20.1842 24.8178 20.3885L26 21.2345V9.25927H17ZM26.1568 21.3467L26.1565 21.3465L26.1568 21.3467Z" fill="#39405D"/>
<path fill-rule="evenodd" clip-rule="evenodd" d="M19 11.8518C19 11.5655 19.2239 11.3333 19.5 11.3333H23.7C23.9761 11.3333 24.2 11.5655 24.2 11.8518C24.2 12.1382 23.9761 12.3704 23.7 12.3704H19.5C19.2239 12.3704 19 12.1382 19 11.8518Z" fill="#39405D"/>
<path fill-rule="evenodd" clip-rule="evenodd" d="M19 14.963C19 14.6766 19.2239 14.4444 19.5 14.4444H23.7C23.9761 14.4444 24.2 14.6766 24.2 14.963C24.2 15.2493 23.9761 15.4815 23.7 15.4815H19.5C19.2239 15.4815 19 15.2493 19 14.963Z" fill="#39405D"/>
</g>
<defs>
<filter id="filter0_d_1383_7725" x="-4" y="0" width="40" height="40" filterUnits="userSpaceOnUse" color-interpolation-filters="sRGB">
<feFlood flood-opacity="0" result="BackgroundImageFix"/>
<feColorMatrix in="SourceAlpha" type="matrix" values="0 0 0 0 0 0 0 0 0 0 0 0 0 0 0 0 0 0 127 0" result="hardAlpha"/>
<feOffset dy="4"/>
<feGaussianBlur stdDeviation="2"/>
<feComposite in2="hardAlpha" operator="out"/>
<feColorMatrix type="matrix" values="0 0 0 0 0 0 0 0 0 0 0 0 0 0 0 0 0 0 0.25 0"/>
<feBlend mode="normal" in2="BackgroundImageFix" result="effect1_dropShadow_1383_7725"/>
<feBlend mode="normal" in="SourceGraphic" in2="effect1_dropShadow_1383_7725" result="shape"/>
</filter>
</defs>
</svg>
