<svg width="32" height="32" viewBox="0 0 32 32" fill="none" xmlns="http://www.w3.org/2000/svg">
<path d="M21.8298 2.51852H7.53192C6.96789 2.51852 6.51065 2.98282 6.51065 3.55556L6.51062 28.4444C6.51062 29.0172 6.96786 29.4815 7.5319 29.4815H21.8298C22.3938 29.4815 22.851 29.0172 22.851 28.4445V23.2593V8.74075V3.55556C22.851 2.98282 22.3938 2.51852 21.8298 2.51852Z" fill="#E7E3FF"/>
<path fill-rule="evenodd" clip-rule="evenodd" d="M6.00003 3.55555C6.00003 2.69644 6.68589 2 7.53194 2H21.8298C22.6758 2 23.3617 2.69645 23.3617 3.55556V28.4444C23.3617 29.3036 22.6758 30 21.8298 30H7.53192C6.68586 30 6 29.3036 6 28.4444L6.00003 3.55555ZM7.53194 3.03704C7.24992 3.03704 7.02131 3.26918 7.0213 3.55555L7.02128 28.4444C7.02128 28.7308 7.2499 28.963 7.53192 28.963H21.8298C22.1118 28.963 22.3404 28.7308 22.3404 28.4444V3.55556C22.3404 3.26919 22.1118 3.03704 21.8298 3.03704H7.53194Z" fill="#39405D"/>
<path d="M30 16C30 20.0092 26.7993 23.2593 22.8511 23.2593C18.9028 23.2593 15.7021 20.0092 15.7021 16C15.7021 11.9908 18.9028 8.74074 22.8511 8.74074C26.7993 8.74074 30 11.9908 30 16Z" fill="#FFECAB"/>
<path fill-rule="evenodd" clip-rule="evenodd" d="M22.8511 22.2222C26.2353 22.2222 28.9787 19.4364 28.9787 16C28.9787 12.5636 26.2353 9.77777 22.8511 9.77777C19.4669 9.77777 16.7234 12.5636 16.7234 16C16.7234 19.4364 19.4669 22.2222 22.8511 22.2222ZM22.8511 23.2593C26.7993 23.2593 30 20.0092 30 16C30 11.9908 26.7993 8.74074 22.8511 8.74074C18.9028 8.74074 15.7021 11.9908 15.7021 16C15.7021 20.0092 18.9028 23.2593 22.8511 23.2593Z" fill="#39405D"/>
<path d="M16.7234 25.3333C16.7234 26.4788 15.8089 27.4074 14.6809 27.4074C13.5528 27.4074 12.6383 26.4788 12.6383 25.3333C12.6383 24.1879 13.5528 23.2593 14.6809 23.2593C15.8089 23.2593 16.7234 24.1879 16.7234 25.3333Z" fill="#D3CCFE"/>
<path fill-rule="evenodd" clip-rule="evenodd" d="M14.6809 26.3704C15.2449 26.3704 15.7021 25.9061 15.7021 25.3333C15.7021 24.7606 15.2449 24.2963 14.6809 24.2963C14.1168 24.2963 13.6596 24.7606 13.6596 25.3333C13.6596 25.9061 14.1168 26.3704 14.6809 26.3704ZM14.6809 27.4074C15.8089 27.4074 16.7234 26.4788 16.7234 25.3333C16.7234 24.1879 15.8089 23.2593 14.6809 23.2593C13.5528 23.2593 12.6383 24.1879 12.6383 25.3333C12.6383 26.4788 13.5528 27.4074 14.6809 27.4074Z" fill="#39405D"/>
<path fill-rule="evenodd" clip-rule="evenodd" d="M11.6171 5.11111C11.6171 4.82474 11.8457 4.59259 12.1277 4.59259H17.2341C17.5161 4.59259 17.7447 4.82474 17.7447 5.11111C17.7447 5.39748 17.5161 5.62963 17.2341 5.62963H12.1277C11.8457 5.62963 11.6171 5.39748 11.6171 5.11111Z" fill="#39405D"/>
<path fill-rule="evenodd" clip-rule="evenodd" d="M23.1925 16.5777C23.262 16.6472 23.3531 16.682 23.4442 16.682L23.4442 16.682C23.5353 16.682 23.6265 16.6472 23.6958 16.5776C23.9212 16.3521 24.0454 16.0522 24.0454 15.7333C24.0454 15.4143 23.9212 15.1145 23.6958 14.8891L22.156 13.3489C21.6906 12.8837 20.9334 12.8836 20.4679 13.3492L20.3495 13.4677C20.1241 13.6932 20 13.9931 20 14.312C20 14.631 20.1241 14.9308 20.3496 15.1563L21.1195 15.9263C21.2585 16.0653 21.4841 16.0654 21.6231 15.9263C21.7622 15.7872 21.7622 15.5617 21.6231 15.4225L20.8532 14.6525C20.7623 14.5615 20.7123 14.4407 20.7123 14.3121C20.7123 14.1835 20.7623 14.0625 20.8533 13.9715L20.9717 13.853C21.1595 13.6651 21.4649 13.6651 21.6527 13.8529L23.1926 15.393C23.2834 15.484 23.3335 15.6048 23.3335 15.7334C23.3335 15.862 23.2834 15.983 23.1925 16.074C23.0534 16.213 23.0534 16.4385 23.1925 16.5777ZM23.8439 18.651C24.0767 18.8837 24.3822 19 24.6878 19L24.6878 18.9999C24.9935 18.9999 25.2993 18.8836 25.532 18.6509L25.6504 18.5323C25.8758 18.3068 26 18.0069 26 17.688C26 17.369 25.8759 17.0693 25.6504 16.8437L24.8805 16.0737C24.7415 15.9347 24.5159 15.9346 24.3769 16.0737C24.2378 16.2128 24.2378 16.4383 24.3769 16.5774L25.1468 17.3475C25.2377 17.4384 25.2878 17.5593 25.2878 17.6879C25.2878 17.8166 25.2376 17.9375 25.1467 18.0285L25.0283 18.147C24.8405 18.3349 24.5351 18.3348 24.3474 18.1471L22.8076 16.6071C22.7167 16.5162 22.6667 16.3953 22.6667 16.2667C22.6667 16.1381 22.7167 16.0171 22.8077 15.9261C22.9468 15.787 22.9468 15.5615 22.8077 15.4224C22.6687 15.2834 22.4431 15.2833 22.3041 15.4224C22.0787 15.6479 21.9545 15.9477 21.9545 16.2668C21.9545 16.5858 22.0787 16.8856 22.3042 17.111L23.8439 18.651Z" fill="#39405D"/>
</svg>
