<svg width="32" height="32" viewBox="0 0 32 32" fill="none" xmlns="http://www.w3.org/2000/svg">
<path d="M2.40833 7.50587V24.5728C2.40833 24.5728 7.72523 22.3397 16.412 24.5728C25.0988 26.8058 29.5919 24.5728 29.5919 24.5728V7.18689C29.5919 7.18689 23.2266 9.39643 16.412 7.50587C7.72523 5.09593 2.40833 7.50587 2.40833 7.50587Z" fill="#E7E3FF"/>
<path fill-rule="evenodd" clip-rule="evenodd" d="M2.81639 7.80693V23.972C2.94648 23.931 3.09875 23.8856 3.27262 23.8378C3.9244 23.6585 4.87989 23.4451 6.10846 23.3031C8.56621 23.019 12.1147 23.0208 16.5076 24.1501C20.8042 25.2546 24.0504 25.2514 26.2113 24.9784C27.2922 24.8418 28.1029 24.6375 28.6389 24.4697C28.8729 24.3964 29.0546 24.33 29.1836 24.2792V7.76486C29.0188 7.81199 28.8182 7.86673 28.5849 7.92564C27.8694 8.10636 26.8456 8.32665 25.6065 8.48695C23.1313 8.80717 19.7814 8.88996 16.309 7.92661C12.0186 6.73634 8.56894 6.73848 6.19997 7.03397C5.01507 7.18177 4.09978 7.40306 3.48429 7.58579C3.19377 7.67204 2.97008 7.74968 2.81639 7.80693ZM29.4655 6.77345C29.5897 6.73037 29.7258 6.75326 29.8316 6.83503C29.9374 6.91682 30 7.04764 30 7.18688V24.5728C30 24.7417 29.9081 24.8953 29.7644 24.9668L29.7578 24.97C29.7644 24.9668 29.7642 24.9669 29.7639 24.967L29.7634 24.9673L29.762 24.968L29.7578 24.97C29.7546 24.9716 29.7502 24.9737 29.7447 24.9763C29.7376 24.9796 29.7287 24.9838 29.718 24.9887C29.7121 24.9914 29.7056 24.9944 29.6985 24.9976C29.6589 25.0155 29.6017 25.0404 29.527 25.0707C29.3776 25.1313 29.1581 25.2134 28.8692 25.3039C28.2912 25.4849 27.4357 25.6993 26.3075 25.8419C24.05 26.1271 20.7064 26.124 16.3161 24.9954C12.0223 23.8916 8.56892 23.8934 6.19653 24.1676C5.01003 24.3047 4.09336 24.5101 3.47677 24.6797C3.16847 24.7645 2.93522 24.8404 2.7808 24.8943C2.70359 24.9213 2.6461 24.9427 2.60879 24.9571C2.59014 24.9643 2.57654 24.9697 2.56804 24.9731C2.56379 24.9748 2.56082 24.976 2.55913 24.9767L2.55793 24.9772L2.55766 24.9773C2.43205 25.03 2.29012 25.0131 2.17852 24.9322C2.06684 24.8512 2 24.7166 2 24.5728V7.50587C2 7.33154 2.09776 7.17406 2.24836 7.1058C2.24836 7.1058 2.24856 7.10571 2.24877 7.10562L2.2493 7.10538L2.25073 7.10473L2.25505 7.10281C2.25858 7.10124 2.26341 7.09911 2.26953 7.09645C2.28177 7.09113 2.29917 7.08369 2.32167 7.07434C2.36668 7.05564 2.4321 7.02931 2.51745 6.99714C2.68816 6.9328 2.93865 6.84506 3.2651 6.74815C3.91798 6.55432 4.87484 6.32375 6.10502 6.17031C8.5662 5.86331 12.1184 5.86545 16.5148 7.08512C19.857 8.01234 23.0971 7.93564 25.5081 7.62372C26.7122 7.46795 27.7057 7.25402 28.3966 7.07953C28.7419 6.99232 29.0114 6.91503 29.1934 6.85992C29.2844 6.83237 29.3535 6.81036 29.3993 6.79545C29.4222 6.78799 29.4393 6.7823 29.4504 6.77858C29.4559 6.77672 29.4599 6.77535 29.4624 6.7745L29.465 6.7736L29.4653 6.7735L29.4655 6.77345Z" fill="#39405D"/>
<path d="M5.24414 20.0396V10.2733C5.24414 10.0885 5.36211 9.92675 5.53143 9.88638C9.23863 9.00249 13.3269 9.97153 15.1697 10.4623C20.6869 11.9314 24.5269 11.2792 26.4748 10.6439C26.7257 10.5621 26.9859 10.7578 26.9859 11.0373V21.7C26.9859 21.8969 26.8527 22.065 26.6702 22.0965C23.8728 22.5789 20.2302 22.9927 16.5877 21.5378C11.3001 19.1911 8.06646 19.9072 5.73785 20.4229L5.69593 20.4322C5.46231 20.4839 5.24414 20.2938 5.24414 20.0396Z" fill="#D3CCFE"/>
<path d="M21.6538 15.9758C21.6538 19.3376 19.0953 22.0628 15.9391 22.0628C12.7829 22.0628 10.2244 19.3376 10.2244 15.9758C10.2244 12.6141 12.7829 9.88887 15.9391 9.88887C19.0953 9.88887 21.6538 12.6141 21.6538 15.9758Z" fill="#FFECAB"/>
<path fill-rule="evenodd" clip-rule="evenodd" d="M5.01547 9.51243C7.58237 8.60112 10.9465 9.02609 14.2238 9.89875C14.4425 9.95698 14.5755 10.193 14.5208 10.426C14.4662 10.6589 14.2445 10.8006 14.0258 10.7424C10.9001 9.91004 7.85445 9.53928 5.55273 10.2452C5.55271 11.9182 5.55272 16.899 5.55274 20.1881C5.61956 20.1697 5.69252 20.1512 5.77193 20.1327C6.31513 20.0066 7.16113 19.8858 8.41009 19.8858C8.63553 19.8858 8.81828 20.0805 8.81828 20.3206C8.81828 20.5607 8.63553 20.7554 8.41009 20.7554C7.20987 20.7554 6.4231 20.8715 5.94582 20.9823C5.7073 21.0377 5.54632 21.0917 5.44977 21.1291C5.40149 21.1478 5.3693 21.1623 5.35155 21.1708C5.34268 21.175 5.33741 21.1778 5.33553 21.1788L5.33696 21.1779L5.33827 21.1772L5.33904 21.1767C5.33781 21.1775 5.33657 21.1782 5.33533 21.1789C5.33459 21.1793 5.33456 21.1793 5.33524 21.1789L5.33553 21.1788L5.33533 21.1789C5.20974 21.2496 5.05848 21.2457 4.93612 21.1683C4.81227 21.09 4.73635 20.9479 4.73635 20.7945C4.73633 17.3162 4.73631 11.2293 4.73635 9.92489C4.73635 9.73775 4.84878 9.57161 5.01547 9.51243ZM5.35155 21.1708L5.33989 21.1763C5.33961 21.1764 5.33932 21.1766 5.33904 21.1767L5.33945 21.1765C5.33967 21.1764 5.36975 21.1623 5.35155 21.1708Z" fill="#39405D"/>
<path fill-rule="evenodd" clip-rule="evenodd" d="M15.9887 10.4889C15.4137 10.4888 14.9114 10.4888 13.887 10.8724C13.6743 10.9521 13.4413 10.833 13.3665 10.6065C13.2918 10.3799 13.4036 10.1317 13.6162 10.0521C14.7653 9.62179 15.368 9.61929 15.9998 9.61929C19.2998 9.61929 21.9904 12.4092 21.9904 15.8708C21.9904 19.3323 19.2998 22.1222 15.9998 22.1222C12.6998 22.1222 10.0093 19.3323 10.0093 15.8708C10.0093 14.9169 10.2143 14.012 10.5809 13.2024C10.6789 12.9861 10.9229 12.8954 11.1259 12.9997C11.329 13.104 11.4142 13.364 11.3162 13.5802C11.0016 14.2749 10.8257 15.051 10.8257 15.8708C10.8257 18.8341 13.1337 21.2527 15.9998 21.2527C18.8659 21.2527 21.174 18.8341 21.174 15.8708C21.174 12.9074 18.8659 10.4889 15.9998 10.4889L15.9887 10.4889Z" fill="#39405D"/>
<path fill-rule="evenodd" clip-rule="evenodd" d="M26.9155 10.4749C27.0235 10.5564 27.0877 10.6886 27.0877 10.8296V21.8281C27.0877 22.0227 26.9663 22.1936 26.7905 22.2465C24.895 22.8173 20.5737 23.476 16.8291 21.9967C16.6177 21.9132 16.5099 21.663 16.5883 21.4378C16.6667 21.2127 16.9016 21.0979 17.113 21.1814C20.4503 22.4998 24.3357 22.0128 26.2713 21.4941V11.4184C25.0753 11.7576 24.0509 11.6995 23.2353 11.6533L23.2047 11.6516C22.9795 11.6388 22.8067 11.4341 22.8187 11.1943C22.8307 10.9545 23.0229 10.7705 23.248 10.7832L23.2539 10.7835C24.1893 10.8365 25.2662 10.8975 26.5442 10.4194C26.6691 10.3727 26.8075 10.3934 26.9155 10.4749Z" fill="#39405D"/>
<path fill-rule="evenodd" clip-rule="evenodd" d="M15.0312 12.9468C15.4198 12.7391 15.8349 12.7215 16.0374 12.7215C16.4771 12.7215 17.3087 12.9041 17.7902 13.6332C17.9199 13.8297 17.8756 14.1009 17.6912 14.239C17.5068 14.3771 17.2521 14.3299 17.1224 14.1335C16.8571 13.7316 16.3445 13.5911 16.0374 13.5911C15.8665 13.5911 15.61 13.6103 15.3974 13.724C15.2152 13.8213 15.0421 13.9963 15.0093 14.4052C14.9955 14.5762 15.02 14.6835 15.0513 14.754C15.0825 14.8243 15.1337 14.8878 15.2176 14.9496C15.4066 15.0888 15.6896 15.1737 16.0758 15.2802C16.089 15.2838 16.1024 15.2875 16.116 15.2913C16.4564 15.3849 16.8781 15.501 17.2107 15.7296C17.3927 15.8546 17.5611 16.0208 17.6821 16.2468C17.8038 16.4739 17.8645 16.737 17.8645 17.0341C17.8645 17.0436 17.8642 17.0531 17.8636 17.0626C17.8162 17.8316 17.444 18.2838 17.0201 18.52C16.6251 18.7402 16.2104 18.7615 16.0374 18.7615C15.3649 18.7615 14.8972 18.4909 14.5985 18.2065C14.4519 18.0669 14.3485 17.9268 14.2807 17.8192C14.2467 17.7652 14.2212 17.7188 14.2034 17.6838C14.1944 17.6663 14.1874 17.6515 14.182 17.64C14.1794 17.6343 14.1772 17.6293 14.1754 17.6252C14.1745 17.6232 14.1737 17.6214 14.173 17.6198L14.172 17.6175L14.1716 17.6165L14.1714 17.6161C14.1713 17.6158 14.172 17.6175 14.1712 17.6156C14.0791 17.3964 14.1713 17.1392 14.3771 17.0412C14.5814 16.9437 14.821 17.0399 14.9145 17.2559C14.9152 17.2575 14.9172 17.2618 14.9207 17.2686C14.9276 17.2822 14.9401 17.3052 14.9586 17.3345C14.9958 17.3936 15.0558 17.4756 15.1425 17.5582C15.3106 17.7181 15.5897 17.8919 16.0374 17.8919C16.1632 17.8919 16.4205 17.8728 16.6416 17.7496C16.8317 17.6436 17.0176 17.4526 17.0481 17.0201C17.0463 16.8604 17.0138 16.7538 16.973 16.6777C16.9305 16.5982 16.8654 16.5271 16.7681 16.4603C16.5555 16.3142 16.2563 16.2282 15.8711 16.122C15.8621 16.1195 15.8531 16.117 15.844 16.1145C15.5024 16.0204 15.0768 15.9031 14.7533 15.6649C14.5767 15.5348 14.4178 15.361 14.3133 15.1258C14.209 14.8909 14.1723 14.6245 14.1959 14.331C14.2545 13.6016 14.6121 13.1708 15.0312 12.9468Z" fill="#39405D"/>
<path fill-rule="evenodd" clip-rule="evenodd" d="M15.9999 11.9459C16.2253 11.9459 16.4081 12.1406 16.4081 12.3807V13.1563C16.4081 13.3964 16.2253 13.591 15.9999 13.591C15.7744 13.591 15.5917 13.3964 15.5917 13.1563V12.3807C15.5917 12.1406 15.7744 11.9459 15.9999 11.9459Z" fill="#39405D"/>
<path fill-rule="evenodd" clip-rule="evenodd" d="M15.9999 17.8919C16.2253 17.8919 16.4081 18.0865 16.4081 18.3266V19.1022C16.4081 19.3423 16.2253 19.537 15.9999 19.537C15.7744 19.537 15.5917 19.3423 15.5917 19.1022V18.3266C15.5917 18.0865 15.7744 17.8919 15.9999 17.8919Z" fill="#39405D"/>
</svg>
