<svg width="36" height="37" viewBox="0 0 36 37" fill="none" xmlns="http://www.w3.org/2000/svg">
<g filter="url(#filter0_d_1650_20944)">
<path d="M13.1229 26.3472L12.8286 18.4559L30.8175 3.90376C30.9145 3.82532 31.0502 3.94267 30.9753 4.0402L13.7161 26.517C13.5333 26.7551 13.1338 26.6407 13.1229 26.3472Z" fill="#FFEBBC"/>
<path d="M26.6785 26.4003L17.7451 21.3859L31.2328 3.55635C31.2996 3.46814 31.4471 3.52637 31.427 3.63298L27.1691 26.1894C27.129 26.4018 26.8754 26.5109 26.6785 26.4003Z" fill="#E7E3FF"/>
<path d="M6.93531 14.9009L12.8287 18.4559L31.4166 3.69212C31.5132 3.61544 31.4151 3.4719 31.3009 3.52278L6.97194 14.3625C6.73927 14.4662 6.7186 14.7702 6.93531 14.9009Z" fill="#E7E3FF"/>
<path fill-rule="evenodd" clip-rule="evenodd" d="M12.7816 17.8246L27.8859 5.60599L7.54792 14.6675L12.7816 17.8246ZM30.9302 3.12633C31.0375 3.04755 31.1611 3.00898 31.2848 3.00424C31.7892 2.94694 32.1676 3.48699 31.9245 3.89974L27.7003 26.2782C27.5942 26.8403 26.9233 27.1288 26.4022 26.8363L17.8309 22.0251L14.1534 26.8143C13.6697 27.4442 12.6128 27.1416 12.5838 26.365L12.2995 18.7397L6.6442 15.3283C6.0708 14.9824 6.1255 14.178 6.74109 13.9037L30.9302 3.12633ZM13.377 18.6847L13.6404 25.749L23.2215 13.2715L27.7812 7.24389L13.377 18.6847ZM18.5238 21.232L24.0981 13.8633L30.5289 5.48834L26.6917 25.8167L18.5238 21.232ZM10.1832 22.1374C10.3833 22.3451 10.3665 22.6661 10.1457 22.8544L4.90167 27.3265C4.68091 27.5148 4.33978 27.499 4.13972 27.2912C3.93967 27.0835 3.95644 26.7625 4.1772 26.5742L9.42125 22.1021C9.64201 21.9138 9.98314 21.9296 10.1832 22.1374ZM10.0008 26.5382C10.2115 26.3399 10.2115 26.0185 10.0008 25.8203C9.79018 25.6221 9.44863 25.6221 9.23797 25.8203L6.77982 28.1335C6.56916 28.3317 6.56916 28.6531 6.77982 28.8514C6.99048 29.0496 7.33203 29.0496 7.54269 28.8514L10.0008 26.5382Z" fill="#39405D"/>
</g>
<defs>
<filter id="filter0_d_1650_20944" x="-2" y="0" width="40" height="40" filterUnits="userSpaceOnUse" color-interpolation-filters="sRGB">
<feFlood flood-opacity="0" result="BackgroundImageFix"/>
<feColorMatrix in="SourceAlpha" type="matrix" values="0 0 0 0 0 0 0 0 0 0 0 0 0 0 0 0 0 0 127 0" result="hardAlpha"/>
<feOffset dy="4"/>
<feGaussianBlur stdDeviation="2"/>
<feComposite in2="hardAlpha" operator="out"/>
<feColorMatrix type="matrix" values="0 0 0 0 0 0 0 0 0 0 0 0 0 0 0 0 0 0 0.25 0"/>
<feBlend mode="normal" in2="BackgroundImageFix" result="effect1_dropShadow_1650_20944"/>
<feBlend mode="normal" in="SourceGraphic" in2="effect1_dropShadow_1650_20944" result="shape"/>
</filter>
</defs>
</svg>
