<svg width="32" height="32" viewBox="0 0 32 32" fill="none" xmlns="http://www.w3.org/2000/svg">
<path d="M5.54615 10.7994C4.33065 11.6681 3.6127 13.3661 3.28277 14.5538C3.16347 14.9833 2.77589 15.3056 2.3194 15.3056H2.13991C1.62355 15.3056 1.20496 15.7136 1.20496 16.2169V20.2805C1.20496 20.7838 1.62355 21.1918 2.13991 21.1918H2.87703C3.24987 21.1918 3.58397 21.4094 3.75192 21.7338C4.65077 23.4701 5.98126 24.8671 6.64945 25.4459C6.70051 25.4901 6.73011 25.5528 6.73011 25.6194V27.9142C6.73011 28.4175 7.14871 28.8255 7.66507 28.8255H9.88093C10.2978 28.8255 10.6358 28.4961 10.6358 28.0897C10.6358 27.6833 10.9738 27.3539 11.3907 27.3539H17.5018C17.9188 27.3539 18.2567 27.6833 18.2567 28.0897C18.2567 28.4961 18.5947 28.8255 19.0116 28.8255H21.037C21.5533 28.8255 21.9719 28.4175 21.9719 27.9142V25.6131C21.9719 25.5502 21.9987 25.4902 22.0452 25.4467C23.4578 24.1252 24.5504 22.2513 24.925 21.4677C29.8418 9.82709 16.4074 2.87887 8.98967 8.4625C8.89539 8.53347 8.76066 8.52771 8.67171 8.45047C7.616 7.5337 5.95608 7.0371 4.9993 7.01871C4.85679 7.01597 4.76091 7.1489 4.79579 7.2836L5.64165 10.5502C5.66596 10.6441 5.62627 10.7421 5.54615 10.7994Z" fill="#E7E3FF"/>
<ellipse cx="6.34731" cy="13.7895" rx="0.934953" ry="0.911269" fill="#39405D"/>
<path fill-rule="evenodd" clip-rule="evenodd" d="M26.0174 21.9638C26.0251 21.9476 26.0325 21.9313 26.0394 21.9148C26.8401 20.0191 27.1991 18.2098 27.1861 16.5248C27.4217 16.4698 27.6685 16.3932 27.9131 16.2996C28.4398 16.0981 28.9934 15.804 29.446 15.432C29.7526 15.18 30.0299 14.8778 30.2114 14.5297C30.7507 14.402 31.3184 14.1454 31.8528 13.7113C32.0264 13.5704 32.0498 13.319 31.9052 13.1498C31.7606 12.9807 31.5026 12.9578 31.3291 13.0988C31.0329 13.3394 30.7276 13.5105 30.4292 13.6267C30.416 13.1592 30.2099 12.6861 29.793 12.2289C29.4267 11.8272 29.004 11.6086 28.5798 11.5734C28.1566 11.5381 27.769 11.69 27.4997 11.9594C27.2308 12.2284 27.0856 12.6089 27.1303 13.0168C27.1749 13.4231 27.4027 13.8219 27.8121 14.1581C28.1025 14.4246 28.5906 14.5898 29.1371 14.6246C29.0707 14.6913 28.9978 14.7573 28.9186 14.8224C28.5488 15.1263 28.0777 15.38 27.6142 15.5573C27.4529 15.6191 27.2967 15.6699 27.1503 15.71C27.0855 14.9071 26.9347 14.1353 26.7059 13.3991C25.9352 10.9189 24.3053 8.92389 22.272 7.54247C18.4378 4.93756 12.994 4.42016 8.85874 7.10887C8.33223 6.76094 7.7599 6.49261 7.21769 6.29653C6.45981 6.02245 5.66977 5.85684 5.02317 5.84441C3.98474 5.82444 3.42356 6.78355 3.62747 7.57102L4.32616 10.2693C3.77292 10.7871 3.34524 11.408 3.01901 12.0046C2.61883 12.7365 2.33664 13.4957 2.15255 14.1311H2.14C0.958112 14.1311 0 15.0649 0 16.2169V20.2805C0 21.4325 0.958112 22.3663 2.14 22.3663H2.73034C3.58216 23.9729 4.74919 25.2909 5.52516 26.0288V27.9142C5.52516 29.0662 6.48327 30 7.66516 30H9.88102C10.8086 30 11.5856 29.372 11.789 28.5284H17.1037C17.3071 29.372 18.0842 30 19.0117 30H21.0371C22.219 30 23.1771 29.0662 23.1771 27.9142V26.0047C24.5866 24.58 25.6341 22.7657 26.0174 21.9638ZM21.972 25.6131C21.972 25.5502 21.9987 25.4902 22.0453 25.4467C23.4579 24.1252 24.5505 22.2513 24.9251 21.4677C29.8419 9.82709 16.4075 2.87886 8.98976 8.4625C8.89548 8.53347 8.76075 8.52771 8.67181 8.45047C7.93055 7.80677 6.89141 7.37021 6.00694 7.16089L5.9896 7.15681C5.86178 7.12692 5.73727 7.1018 5.61744 7.08151C5.39175 7.0433 5.18267 7.02223 4.9994 7.01871C4.85688 7.01597 4.761 7.1489 4.79588 7.2836L5.64174 10.5502C5.66605 10.6441 5.62636 10.7421 5.54625 10.7994C4.33075 11.6681 3.61279 13.3661 3.28286 14.5538C3.16356 14.9833 2.77599 15.3056 2.31949 15.3056H2.14C1.62364 15.3056 1.20505 15.7136 1.20505 16.2169V20.2805C1.20505 20.7838 1.62364 21.1918 2.14 21.1918H2.87713C3.24996 21.1918 3.58406 21.4094 3.75201 21.7338C4.65087 23.4701 5.98136 24.8671 6.64954 25.4459C6.7006 25.4901 6.73021 25.5528 6.73021 25.6194V27.9142C6.73021 28.4175 7.1488 28.8255 7.66516 28.8255H9.88102C10.2979 28.8255 10.6359 28.4961 10.6359 28.0897C10.6359 27.6833 10.9739 27.3539 11.3908 27.3539H17.5019C17.9188 27.3539 18.2568 27.6833 18.2568 28.0897C18.2568 28.4961 18.5948 28.8255 19.0117 28.8255H21.0371C21.5534 28.8255 21.972 28.4175 21.972 27.9142V25.6131ZM29.1816 12.7587C29.5644 13.1784 29.646 13.5318 29.5999 13.8231C29.5571 13.8269 29.5148 13.8297 29.4732 13.8315C28.8902 13.8571 28.4961 13.694 28.3696 13.5745L28.3586 13.5641L28.3467 13.5545C28.0617 13.323 27.9621 13.0988 27.9438 12.932C27.9253 12.7633 27.9845 12.617 28.0857 12.5158C28.1865 12.4149 28.3346 12.3532 28.5103 12.3678C28.685 12.3824 28.9246 12.477 29.1816 12.7587Z" fill="#39405D"/>
<path d="M15.4631 2.39868C13.5268 2.39868 11.957 3.92864 11.957 5.81594C11.957 6.95502 12.5705 7.71735 13.1257 8.32193C14.7619 7.86629 16.9153 8.01817 17.5667 8.32193C18.5017 7.63848 18.9692 6.69116 18.9692 5.81594C18.9692 3.92864 17.3995 2.39868 15.4631 2.39868Z" fill="#FFECAB"/>
<path fill-rule="evenodd" clip-rule="evenodd" d="M15.4362 3.40109C15.5602 3.40109 15.6608 3.50064 15.6608 3.62344V3.75489C15.8859 3.79698 16.1679 3.91265 16.351 4.1743C16.4217 4.27525 16.3963 4.41377 16.2943 4.48369C16.1923 4.55361 16.0523 4.52846 15.9816 4.42751C15.8534 4.24427 15.6045 4.17931 15.4549 4.17931C15.3702 4.17931 15.2461 4.18842 15.1442 4.23979C15.0592 4.28264 14.9755 4.36012 14.9594 4.54889C14.9526 4.62797 14.9647 4.67621 14.9791 4.70682C14.9934 4.73713 15.0168 4.76489 15.0566 4.79249C15.1476 4.85577 15.2854 4.89509 15.48 4.94574L15.5011 4.95122C15.671 4.99533 15.8856 5.05104 16.0553 5.16108C16.1488 5.22164 16.2354 5.3023 16.2976 5.41191C16.3601 5.52199 16.391 5.64892 16.391 5.79134C16.391 5.79613 16.3908 5.80091 16.3905 5.80569C16.3664 6.1742 16.1769 6.39339 15.9581 6.50839C15.8557 6.56223 15.7509 6.59147 15.6608 6.60722V6.73632C15.6608 6.85912 15.5602 6.95867 15.4362 6.95867C15.3121 6.95867 15.2115 6.85912 15.2115 6.73632V6.60162C14.9944 6.55793 14.8326 6.45941 14.7189 6.35726C14.644 6.29 14.5913 6.22251 14.5567 6.17073C14.5393 6.14474 14.5263 6.12235 14.5171 6.1054C14.5125 6.09692 14.5089 6.08976 14.5061 6.08414L14.5027 6.07689L14.5016 6.07462L14.5007 6.07261L14.5005 6.0721C14.4504 5.95973 14.5019 5.82848 14.6154 5.77896C14.7281 5.72979 14.8596 5.77963 14.9105 5.89028C14.9105 5.89028 14.9118 5.89278 14.9133 5.89556C14.9165 5.90161 14.9225 5.91206 14.9315 5.92548C14.9495 5.95252 14.9787 5.99012 15.0208 6.02795C15.1021 6.10092 15.237 6.18045 15.4549 6.18045C15.5165 6.18045 15.6412 6.17151 15.7473 6.11568C15.8364 6.06883 15.9266 5.98378 15.9416 5.78429C15.9407 5.71097 15.9249 5.66313 15.9059 5.62977C15.8861 5.59488 15.8557 5.56327 15.8091 5.53307C15.706 5.46619 15.5598 5.42633 15.3657 5.37581L15.3509 5.37195C15.1805 5.32767 14.9637 5.27133 14.7984 5.15645C14.7075 5.09328 14.6256 5.00879 14.5718 4.89459C14.5182 4.7807 14.4997 4.65218 14.5116 4.51152C14.5414 4.16186 14.7237 3.95272 14.9402 3.84356C15.0319 3.79734 15.1263 3.77059 15.2115 3.75518V3.62344C15.2115 3.50064 15.3121 3.40109 15.4362 3.40109Z" fill="#39405D"/>
<path fill-rule="evenodd" clip-rule="evenodd" d="M12.3661 5.81594C12.3661 4.14882 13.7526 2.79736 15.4631 2.79736C17.1735 2.79736 18.5601 4.14882 18.5601 5.81594C18.5601 6.50054 18.2185 7.26879 17.4942 7.86844C17.3173 7.81382 17.1114 7.77018 16.8928 7.73605C16.5529 7.68295 16.1529 7.64844 15.7252 7.63859C14.955 7.62085 14.0711 7.68259 13.2664 7.87346C12.7865 7.32568 12.3661 6.6986 12.3661 5.81594ZM15.4631 2C13.3008 2 11.548 3.70845 11.548 5.81594C11.548 6.85959 12.0061 7.61981 12.4803 8.1985C12.1659 8.3403 11.8881 8.51339 11.671 8.72034C11.5095 8.87429 11.5066 9.12671 11.6646 9.28413C11.8225 9.44155 12.0815 9.44436 12.243 9.29042C12.4692 9.07481 12.8519 8.87469 13.3666 8.72531C13.8747 8.57782 14.481 8.48871 15.1224 8.47362C16.4149 8.44321 17.7835 8.71408 18.7423 9.33708C18.9302 9.45922 19.1842 9.40971 19.3095 9.22651C19.4348 9.0433 19.384 8.79577 19.1961 8.67364C18.9217 8.4954 18.624 8.34344 18.3106 8.21585C19.0128 7.51676 19.3782 6.65034 19.3782 5.81594C19.3782 3.70845 17.6253 2 15.4631 2Z" fill="#39405D"/>
</svg>
