<svg width="25" height="24" viewBox="0 0 25 24" fill="none" xmlns="http://www.w3.org/2000/svg">
<rect x="3.11792" y="11.3905" width="11.0377" height="8.72798" fill="#E7E3FF"/>
<rect x="3.11792" y="14.0089" width="11.0377" height="3.49119" fill="#D3CCFE"/>
<path fill-rule="evenodd" clip-rule="evenodd" d="M3.11792 10.5665C2.91473 10.5665 2.75 10.7311 2.75 10.9341V20.6323C2.75 20.8354 2.91473 21 3.11792 21H13.6958C13.899 21 14.0637 20.8354 14.0637 20.6323V10.9341C14.0637 10.7311 13.899 10.5665 13.6958 10.5665H3.11792ZM3.48585 13.6412V11.3018H13.3278V13.6418C13.3208 13.6414 13.3137 13.6412 13.3066 13.6412H10.7595C10.5563 13.6412 10.3915 13.806 10.3915 14.0092C10.3915 14.2124 10.5563 14.3771 10.7595 14.3771H13.3066C13.3137 14.3771 13.3208 14.3769 13.3278 14.3765V20.2647H3.48585V14.3771H8.21229C8.41549 14.3771 8.58021 14.2124 8.58021 14.0092C8.58021 13.806 8.41549 13.6412 8.21229 13.6412H3.48585ZM4.44812 17.5003C4.44812 17.2971 4.61285 17.1324 4.81604 17.1324L13.3066 17.1324V17.8683L4.81604 17.8683C4.61285 17.8683 4.44812 17.7035 4.44812 17.5003Z" fill="#39405D"/>
<path fill-rule="evenodd" clip-rule="evenodd" d="M18.9387 11.7711C19.3451 11.7711 19.6746 12.0965 19.6746 12.498V18.4348C19.6746 18.8363 19.3451 19.1618 18.9387 19.1618C18.5323 19.1618 18.2029 18.8363 18.2029 18.4348V12.498C18.2029 12.0965 18.5323 11.7711 18.9387 11.7711Z" fill="#39405D"/>
<path fill-rule="evenodd" clip-rule="evenodd" d="M22.0345 14.7083C21.7471 14.9922 21.2812 14.9922 20.9938 14.7083L18.9387 12.678L16.8835 14.7083C16.5962 14.9922 16.1302 14.9922 15.8429 14.7083C15.5555 14.4244 15.5555 13.9641 15.8429 13.6802L18.1582 11.3929C18.5892 10.9671 19.2881 10.9671 19.7192 11.3929L22.0345 13.6802C22.3218 13.9641 22.3218 14.4244 22.0345 14.7083Z" fill="#39405D"/>
<path d="M12.684 7.02942C12.684 9.26292 10.872 11.0735 8.63683 11.0735C6.40164 11.0735 4.58966 9.26292 4.58966 7.02942C4.58966 4.79591 6.40164 2.9853 8.63683 2.9853C10.872 2.9853 12.684 4.79591 12.684 7.02942Z" fill="#FFECAB"/>
<path fill-rule="evenodd" clip-rule="evenodd" d="M7.68147 4.96919C7.95883 4.8347 8.25274 4.82401 8.39277 4.82401C8.69989 4.82401 9.29095 4.93857 9.63708 5.41409C9.74714 5.5653 9.71268 5.77629 9.5601 5.88536C9.40752 5.99443 9.19461 5.96028 9.08455 5.80907C8.92117 5.58461 8.59517 5.49917 8.39277 5.49917C8.27804 5.49917 8.11369 5.51125 7.98089 5.57565C7.87321 5.62786 7.77302 5.71716 7.75317 5.94111C7.74477 6.03593 7.76015 6.08837 7.77472 6.11814C7.78936 6.14805 7.815 6.17919 7.86547 6.2129C7.98395 6.29206 8.16603 6.34257 8.43252 6.40926C8.44244 6.41175 8.4525 6.41426 8.46268 6.4168C8.69267 6.47417 8.9885 6.54798 9.22365 6.69457C9.35389 6.77576 9.47744 6.88554 9.56697 7.03714C9.65725 7.19002 9.70146 7.36604 9.70146 7.56155C9.70146 7.56912 9.7012 7.57669 9.70069 7.58424C9.66632 8.08985 9.39439 8.38906 9.08889 8.5435C8.80722 8.6859 8.51364 8.69912 8.39277 8.69912C7.9195 8.69912 7.58709 8.52605 7.37286 8.34105C7.26801 8.25051 7.19387 8.15938 7.14492 8.08893C7.12036 8.05357 7.10181 8.02295 7.08864 7.99953C7.08204 7.9878 7.07676 7.97782 7.07271 7.96988L7.06755 7.95951L7.06564 7.95552L7.06484 7.95384L7.06449 7.95308L7.06432 7.95272C7.06424 7.95255 7.06416 7.95237 7.37374 7.81155L7.06416 7.95237C6.98568 7.78293 7.06066 7.58252 7.23164 7.50475C7.401 7.42771 7.60101 7.49989 7.68106 7.66592L7.68373 7.67083C7.68747 7.67749 7.6948 7.68984 7.70606 7.70604C7.72876 7.73871 7.76607 7.78508 7.82044 7.83204C7.92466 7.92203 8.10176 8.02396 8.39277 8.02396C8.47569 8.02396 8.64064 8.01218 8.7793 7.94208C8.8923 7.88496 9.00081 7.78645 9.02008 7.55047C9.01856 7.4651 8.99948 7.41287 8.97898 7.37816C8.95686 7.3407 8.92114 7.30361 8.8609 7.26606C8.72548 7.18164 8.53137 7.13035 8.26571 7.06387C8.25839 7.06203 8.25098 7.06019 8.24351 7.05832C8.01323 7.00079 7.71422 6.9261 7.48465 6.77273C7.35737 6.6877 7.23966 6.57196 7.16175 6.41281C7.08378 6.25353 7.05743 6.07472 7.0745 5.88205C7.11708 5.40155 7.37897 5.11587 7.68147 4.96919Z" fill="#39405D"/>
<path fill-rule="evenodd" clip-rule="evenodd" d="M8.36725 4.33171C8.55538 4.33171 8.70789 4.48285 8.70789 4.66929V5.16159C8.70789 5.34803 8.55538 5.49916 8.36725 5.49916C8.17912 5.49916 8.02661 5.34803 8.02661 5.16159V4.66929C8.02661 4.48285 8.17912 4.33171 8.36725 4.33171Z" fill="#39405D"/>
<path fill-rule="evenodd" clip-rule="evenodd" d="M8.36725 8.02399C8.55538 8.02399 8.70789 8.17513 8.70789 8.36156V8.85386C8.70789 9.0403 8.55538 9.19144 8.36725 9.19144C8.17912 9.19144 8.02661 9.0403 8.02661 8.85386V8.36156C8.02661 8.17513 8.17912 8.02399 8.36725 8.02399Z" fill="#39405D"/>
<path fill-rule="evenodd" clip-rule="evenodd" d="M8.39564 10.4081C10.4337 10.4081 12.0859 8.77078 12.0859 6.75103C12.0859 4.73128 10.4337 3.09394 8.39564 3.09394C6.35756 3.09394 4.70536 4.73128 4.70536 6.75103C4.70536 8.77078 6.35756 10.4081 8.39564 10.4081ZM8.39564 11.2521C10.9041 11.2521 12.9375 9.23688 12.9375 6.75103C12.9375 4.26518 10.9041 2.25 8.39564 2.25C5.88723 2.25 3.85376 4.26518 3.85376 6.75103C3.85376 9.23688 5.88723 11.2521 8.39564 11.2521Z" fill="#39405D"/>
</svg>
