<svg width="24" height="24" viewBox="0 0 24 24" fill="none" xmlns="http://www.w3.org/2000/svg">
<path d="M1.5 4.31007C1.5 3.86627 1.8613 3.5065 2.30698 3.5065H19.5964C20.0421 3.5065 20.4034 3.86627 20.4034 4.31007V21.6964C20.4034 22.1402 20.0421 22.5 19.5964 22.5H2.30698C1.8613 22.5 1.5 22.1402 1.5 21.6964V4.31007Z" fill="#E7E3FF"/>
<path fill-rule="evenodd" clip-rule="evenodd" d="M19.5964 4.31007H2.30698L2.30698 21.6964L19.5964 21.6964V4.31007ZM2.30698 3.5065C1.8613 3.5065 1.5 3.86627 1.5 4.31007V21.6964C1.5 22.1402 1.8613 22.5 2.30698 22.5H19.5964C20.0421 22.5 20.4034 22.1402 20.4034 21.6964V4.31007C20.4034 3.86627 20.0421 3.5065 19.5964 3.5065H2.30698Z" fill="#39405D"/>
<path fill-rule="evenodd" clip-rule="evenodd" d="M6.40758 11.6686V8.4375H9.6234V11.6686H6.40758ZM5.49876 7.98093C5.49876 7.72877 5.70221 7.52435 5.95317 7.52435H10.0778C10.3288 7.52435 10.5322 7.72877 10.5322 7.98093V12.1252C10.5322 12.3774 10.3288 12.5818 10.0778 12.5818H5.95317C5.70221 12.5818 5.49876 12.3774 5.49876 12.1252V7.98093ZM6.40758 17.569V14.3379H9.6234V17.569H6.40758ZM5.49876 13.8813C5.49876 13.6291 5.70221 13.4247 5.95317 13.4247H10.0778C10.3288 13.4247 10.5322 13.6291 10.5322 13.8813V18.0256C10.5322 18.2777 10.3288 18.4822 10.0778 18.4822H5.95317C5.70221 18.4822 5.49876 18.2777 5.49876 18.0256V13.8813ZM12.28 8.4375V11.6686H15.4958V8.4375H12.28ZM11.8255 7.52435C11.5746 7.52435 11.3711 7.72877 11.3711 7.98093V12.1252C11.3711 12.3774 11.5746 12.5818 11.8255 12.5818H15.9502C16.2011 12.5818 16.4046 12.3774 16.4046 12.1252V7.98093C16.4046 7.72877 16.2011 7.52435 15.9502 7.52435H11.8255ZM8.01548 9.63161C7.78382 9.63161 7.59602 9.8203 7.59602 10.0531C7.59602 10.2858 7.78382 10.4745 8.01548 10.4745C8.24714 10.4745 8.43493 10.2858 8.43493 10.0531C8.43493 9.8203 8.24714 9.63161 8.01548 9.63161ZM13.4684 10.0531C13.4684 9.8203 13.6562 9.63161 13.8878 9.63161C14.1195 9.63161 14.3073 9.8203 14.3073 10.0531C14.3073 10.2858 14.1195 10.4745 13.8878 10.4745C13.6562 10.4745 13.4684 10.2858 13.4684 10.0531ZM8.01548 15.532C7.78382 15.532 7.59602 15.7207 7.59602 15.9534C7.59602 16.1862 7.78382 16.3749 8.01548 16.3749C8.24714 16.3749 8.43493 16.1862 8.43493 15.9534C8.43493 15.7207 8.24714 15.532 8.01548 15.532ZM11.3711 15.532C11.3711 15.2992 11.5589 15.1105 11.7906 15.1105C12.0222 15.1105 12.21 15.2992 12.21 15.532C12.21 15.7647 12.0222 15.9534 11.7906 15.9534C11.5589 15.9534 11.3711 15.7647 11.3711 15.532ZM11.8605 13.4598C11.6095 13.4598 11.4061 13.6642 11.4061 13.9164C11.4061 14.1685 11.6095 14.3729 11.8605 14.3729H13.4509V14.6891V15.7427C13.4509 15.9948 13.6544 16.1992 13.9053 16.1992C14.1563 16.1992 14.3597 15.9948 14.3597 15.7427V15.1457H15.9502C16.2011 15.1457 16.4046 14.9413 16.4046 14.6891V13.9164C16.4046 13.6642 16.2011 13.4598 15.9502 13.4598C15.6992 13.4598 15.4958 13.6642 15.4958 13.9164V14.2325H14.3597V13.9164C14.3597 13.6642 14.1563 13.4598 13.9053 13.4598H11.8605ZM15.9501 15.971C16.2011 15.971 16.4046 16.1754 16.4046 16.4276V17.2178V18.0256C16.4046 18.2777 16.2011 18.4821 15.9501 18.4821C15.6992 18.4821 15.4957 18.2777 15.4957 18.0256V17.6744H14.6858C14.4348 17.6744 14.2314 17.47 14.2314 17.2178C14.2314 16.9656 14.4348 16.7612 14.6858 16.7612H15.4957V16.4276C15.4957 16.1754 15.6992 15.971 15.9501 15.971ZM12.9965 18.4822C13.2475 18.4822 13.4509 18.2778 13.4509 18.0256C13.4509 17.7734 13.2475 17.569 12.9965 17.569H12.3149V17.1124C12.3149 16.8603 12.1115 16.6559 11.8605 16.6559C11.6095 16.6559 11.4061 16.8603 11.4061 17.1124V18.0256C11.4061 18.2778 11.6095 18.4822 11.8605 18.4822H12.9965Z" fill="#39405D"/>
<path d="M24 5.30303C24 8.23181 21.6729 10.6061 18.8023 10.6061C15.9317 10.6061 13.6047 8.23181 13.6047 5.30303C13.6047 2.37425 15.9317 0 18.8023 0C21.6729 0 24 2.37425 24 5.30303Z" fill="#FFECAB"/>
<path fill-rule="evenodd" clip-rule="evenodd" d="M18.8023 9.84849C21.2628 9.84849 23.2575 7.81342 23.2575 5.30303C23.2575 2.79265 21.2628 0.757576 18.8023 0.757576C16.3418 0.757576 14.3472 2.79265 14.3472 5.30303C14.3472 7.81342 16.3418 9.84849 18.8023 9.84849ZM18.8023 10.6061C21.6729 10.6061 24 8.23181 24 5.30303C24 2.37425 21.6729 0 18.8023 0C15.9317 0 13.6047 2.37425 13.6047 5.30303C13.6047 8.23181 15.9317 10.6061 18.8023 10.6061Z" fill="#39405D"/>
<path fill-rule="evenodd" clip-rule="evenodd" d="M18.8022 2.27274C18.9952 2.27274 19.1516 2.43234 19.1516 2.62923V2.83997C19.5017 2.90747 19.9403 3.09292 20.2251 3.51243C20.335 3.67428 20.2954 3.89636 20.1368 4.00847C19.9782 4.12058 19.7605 4.08025 19.6506 3.9184C19.4512 3.6246 19.064 3.52046 18.8314 3.52046C18.6997 3.52046 18.5066 3.53507 18.3482 3.61742C18.216 3.68612 18.0857 3.81035 18.0607 4.113C18.0502 4.23979 18.069 4.31713 18.0914 4.36621C18.1136 4.4148 18.1501 4.45931 18.2119 4.50356C18.3535 4.60502 18.5678 4.66807 18.8704 4.74927L18.9032 4.75805C19.1675 4.82878 19.5013 4.91809 19.7652 5.09453C19.9105 5.19163 20.0453 5.32094 20.1421 5.49668C20.2393 5.67318 20.2873 5.87668 20.2873 6.10502C20.2873 6.1127 20.287 6.12037 20.2865 6.12803C20.2491 6.71887 19.9542 7.07029 19.6141 7.25468C19.4548 7.341 19.2917 7.38788 19.1516 7.41313V7.62011C19.1516 7.817 18.9952 7.97661 18.8022 7.97661C18.6093 7.97661 18.4528 7.817 18.4528 7.62011V7.40414C18.1152 7.3341 17.8635 7.17615 17.6867 7.01237C17.5702 6.90452 17.4882 6.79632 17.4344 6.7133C17.4074 6.67163 17.3871 6.63573 17.3729 6.60856C17.3657 6.59496 17.3601 6.58348 17.3558 6.57448L17.3504 6.56285L17.3487 6.55922L17.3473 6.55599L17.347 6.55516C17.2691 6.375 17.3492 6.16458 17.5258 6.08517C17.7011 6.00635 17.9056 6.08625 17.9847 6.26366C17.9847 6.26366 17.9866 6.26766 17.989 6.27212C17.9941 6.28182 18.0034 6.29857 18.0173 6.32009C18.0454 6.36345 18.0908 6.42374 18.1563 6.48439C18.2826 6.60138 18.4925 6.72888 18.8314 6.72888C18.9272 6.72888 19.1211 6.71455 19.2862 6.62503C19.4248 6.54992 19.565 6.41357 19.5884 6.09372C19.5869 5.97616 19.5623 5.89947 19.5329 5.84598C19.502 5.79003 19.4547 5.73936 19.3823 5.69094C19.2219 5.58372 18.9945 5.5198 18.6926 5.4388L18.6696 5.43262C18.4046 5.36162 18.0675 5.2713 17.8103 5.0871C17.6689 4.98583 17.5416 4.85036 17.458 4.66726C17.3746 4.48466 17.3457 4.27861 17.3643 4.05309C17.4107 3.49248 17.6942 3.15717 18.0309 2.98215C18.1735 2.90804 18.3203 2.86515 18.4528 2.84045V2.62923C18.4528 2.43234 18.6093 2.27274 18.8022 2.27274Z" fill="#39405D"/>
</svg>
