<svg width="16" height="16" viewBox="0 0 16 16" fill="none" xmlns="http://www.w3.org/2000/svg">
<path fill-rule="evenodd" clip-rule="evenodd" d="M3.40758 6.66865V3.4375H6.6234V6.66865H3.40758ZM2.49876 2.98093C2.49876 2.72877 2.70221 2.52435 2.95317 2.52435H7.07781C7.32877 2.52435 7.53222 2.72877 7.53222 2.98093V7.12522C7.53222 7.37738 7.32877 7.5818 7.07781 7.5818H2.95317C2.70221 7.5818 2.49876 7.37738 2.49876 7.12522V2.98093ZM3.40758 12.569V9.33786H6.6234V12.569H3.40758ZM2.49876 8.88128C2.49876 8.62913 2.70221 8.42471 2.95317 8.42471H7.07781C7.32877 8.42471 7.53222 8.62913 7.53222 8.88129V13.0256C7.53222 13.2777 7.32877 13.4822 7.07781 13.4822H2.95317C2.70221 13.4822 2.49876 13.2777 2.49876 13.0256V8.88128ZM9.27995 3.4375V6.66865H12.4958V3.4375H9.27995ZM8.82554 2.52435C8.57458 2.52435 8.37113 2.72877 8.37113 2.98093V7.12522C8.37113 7.37738 8.57458 7.5818 8.82554 7.5818H12.9502C13.2011 7.5818 13.4046 7.37738 13.4046 7.12522V2.98093C13.4046 2.72877 13.2011 2.52435 12.9502 2.52435H8.82554ZM5.01548 4.63161C4.78382 4.63161 4.59602 4.8203 4.59602 5.05306C4.59602 5.28582 4.78382 5.47451 5.01548 5.47451C5.24714 5.47451 5.43493 5.28582 5.43493 5.05306C5.43493 4.8203 5.24714 4.63161 5.01548 4.63161ZM10.4684 5.05306C10.4684 4.8203 10.6562 4.63161 10.8878 4.63161C11.1195 4.63161 11.3073 4.8203 11.3073 5.05306C11.3073 5.28582 11.1195 5.47451 10.8878 5.47451C10.6562 5.47451 10.4684 5.28582 10.4684 5.05306ZM5.01548 10.532C4.78382 10.532 4.59602 10.7207 4.59602 10.9534C4.59602 11.1862 4.78382 11.3749 5.01548 11.3749C5.24714 11.3749 5.43493 11.1862 5.43493 10.9534C5.43493 10.7207 5.24714 10.532 5.01548 10.532ZM8.37113 10.532C8.37113 10.2992 8.55893 10.1105 8.79059 10.1105C9.02225 10.1105 9.21004 10.2992 9.21004 10.532C9.21004 10.7647 9.02225 10.9534 8.79059 10.9534C8.55893 10.9534 8.37113 10.7647 8.37113 10.532ZM8.86049 8.4598C8.60953 8.4598 8.40608 8.66421 8.40608 8.91637C8.40608 9.16853 8.60953 9.37294 8.86049 9.37294H10.4509V9.68909V10.7427C10.4509 10.9948 10.6544 11.1992 10.9053 11.1992C11.1563 11.1992 11.3597 10.9948 11.3597 10.7427V10.1457H12.9502C13.2011 10.1457 13.4046 9.94125 13.4046 9.68909V8.91637C13.4046 8.66421 13.2011 8.4598 12.9502 8.4598C12.6992 8.4598 12.4958 8.66421 12.4958 8.91637V9.23252H11.3597V8.91637C11.3597 8.66421 11.1563 8.4598 10.9053 8.4598H8.86049ZM12.9501 10.971C13.2011 10.971 13.4046 11.1754 13.4046 11.4276V12.2178V13.0256C13.4046 13.2777 13.2011 13.4821 12.9501 13.4821C12.6992 13.4821 12.4957 13.2777 12.4957 13.0256V12.6744H11.6858C11.4348 12.6744 11.2314 12.47 11.2314 12.2178C11.2314 11.9656 11.4348 11.7612 11.6858 11.7612H12.4957V11.4276C12.4957 11.1754 12.6992 10.971 12.9501 10.971ZM9.99651 13.4822C10.2475 13.4822 10.4509 13.2778 10.4509 13.0256C10.4509 12.7734 10.2475 12.569 9.99651 12.569H9.3149V12.1124C9.3149 11.8603 9.11145 11.6559 8.86049 11.6559C8.60953 11.6559 8.40608 11.8603 8.40608 12.1124V13.0256C8.40608 13.2778 8.60953 13.4822 8.86049 13.4822H9.99651Z" fill="#39405D"/>
</svg>
