<svg width="32" height="32" viewBox="0 0 32 32" fill="none" xmlns="http://www.w3.org/2000/svg">
<g id="Color/Rocket">
<path id="Vector 649" d="M10.8817 24.9118L7.05077 21.0469C6.79538 20.7892 6.73164 20.3899 6.89125 20.063C14.3007 4.88805 24.1909 2.0054 28.8974 2.47648C29.3129 2.51807 29.6034 2.89117 29.5721 3.31122C28.7783 13.9563 17.8232 22.0429 11.8456 25.0746C11.5236 25.2379 11.1365 25.1689 10.8817 24.9118Z" fill="#E7E3FF"/>
<path id="Vector 653" d="M29.5712 3.31123C29.2848 7.15348 28.759 7.15347 27.9076 9.30069L22.7997 3.71791C23.651 2.85904 26.315 2.21809 28.8965 2.47648C29.312 2.51807 29.6026 2.89117 29.5712 3.31123Z" fill="#D3CCFE"/>
<path id="Vector 650" d="M6.81961 11.1842L11.3214 11.5336C11.6689 11.5605 11.845 11.9786 11.6309 12.256C10.758 13.3871 9.50138 15.1634 8.47616 16.5506C8.38411 16.6752 8.23254 16.7391 8.07989 16.7186L2.79592 16.0078C2.44642 15.9608 2.30187 15.53 2.55119 15.2784L6.48597 11.3087C6.57384 11.2201 6.69571 11.1746 6.81961 11.1842Z" fill="#D3CCFE"/>
<path id="Vector 651" d="M20.6575 25.1451L20.3049 20.1641C20.2802 19.8151 19.8743 19.6408 19.6078 19.8648L17.6918 21.4757L15.3567 23.0463C15.2225 23.1365 15.1504 23.2955 15.1704 23.4569L15.8812 29.1933C15.9251 29.5479 16.3541 29.6964 16.6045 29.4437L20.534 25.4794C20.6212 25.3913 20.6663 25.2694 20.6575 25.1451Z" fill="#D3CCFE"/>
<path id="Ellipse 261" d="M23.3956 12.0279C23.3956 14.1625 21.6804 15.8929 19.5646 15.8929C17.4488 15.8929 15.7336 14.1625 15.7336 12.0279C15.7336 9.89336 17.4488 8.16293 19.5646 8.16293C21.6804 8.16293 23.3956 9.89336 23.3956 12.0279Z" fill="#FFECAB"/>
<path id="Ellipse 261 (Stroke)" fill-rule="evenodd" clip-rule="evenodd" d="M19.5646 15.0341C21.2102 15.0341 22.5442 13.6882 22.5442 12.0279C22.5442 10.3677 21.2102 9.02182 19.5646 9.02182C17.919 9.02182 16.585 10.3677 16.585 12.0279C16.585 13.6882 17.919 15.0341 19.5646 15.0341ZM19.5646 15.8929C21.6804 15.8929 23.3956 14.1625 23.3956 12.0279C23.3956 9.89336 21.6804 8.16293 19.5646 8.16293C17.4488 8.16293 15.7336 9.89336 15.7336 12.0279C15.7336 14.1625 17.4488 15.8929 19.5646 15.8929Z" fill="#39405D"/>
<path id="Vector 652" d="M3.09178 28.1702C5.08703 21.6746 7.53713 21.9671 8.7528 23.1936C11.0431 25.8892 6.94372 28.0094 3.82175 28.9346C3.35934 29.0717 2.94912 28.6346 3.09178 28.1702Z" fill="#FFECAB"/>
<path id="Union" fill-rule="evenodd" clip-rule="evenodd" d="M7.94541 17.1337C7.45786 17.9999 6.97855 18.9123 6.50937 19.8732C6.26996 20.3635 6.36427 20.9616 6.74975 21.3505L7.47079 22.078C7.00437 22.0277 6.50582 22.1232 6.00324 22.4134C4.84083 23.0847 3.68902 24.7753 2.68526 28.0431C2.44719 28.8181 3.13703 29.5852 3.94179 29.3467C5.52157 28.8785 7.39693 28.0961 8.59502 27.0532C9.19515 26.5307 9.6696 25.9046 9.80588 25.1775C9.85094 24.9372 9.85739 24.6951 9.82442 24.4525L10.5807 25.2155C10.961 25.5993 11.5455 25.7074 12.0368 25.4583L11.8456 25.0746L12.0368 25.4583C12.8741 25.0336 13.8073 24.5113 14.7961 23.8979L15.4588 29.2466C15.5467 29.9558 16.4046 30.2528 16.9055 29.7474L20.835 25.7831C21.0095 25.6069 21.0997 25.363 21.0821 25.1145L20.7295 20.1335C20.716 19.9436 20.6462 19.7796 20.5408 19.6504C21.3642 18.9295 22.1764 18.1606 22.9584 17.3468C26.5794 13.5783 29.5892 8.80576 29.9965 3.34345C30.044 2.70686 29.6004 2.1153 28.9394 2.04914C25.1245 1.6673 18.2358 3.39552 11.8523 11.3143C11.722 11.1986 11.5531 11.1208 11.3542 11.1054L6.85239 10.756C6.60459 10.7368 6.36085 10.8278 6.18511 11.005L2.25033 14.9748C1.75168 15.4779 2.04078 16.3394 2.7398 16.4335L7.94541 17.1337ZM19.3353 19.5349C19.3805 19.4969 19.4277 19.4646 19.4763 19.4378C20.4549 18.609 21.423 17.7109 22.3471 16.749C25.8965 13.055 28.7611 8.46174 29.1476 3.27902C29.1628 3.07549 29.0253 2.92085 28.8553 2.90383C24.3645 2.45434 14.623 5.1997 7.27307 20.2528C7.19327 20.4162 7.22643 20.6168 7.35173 20.7432L11.1826 24.6082C11.312 24.7386 11.5017 24.7683 11.6544 24.6909C13.5686 23.72 16.0028 22.2224 18.4443 20.2841L19.3353 19.5349ZM17.9468 21.8203L18.9802 20.9515C19.2809 20.7126 19.5817 20.4672 19.8818 20.2153L20.233 25.1757L16.3035 29.1401L15.5928 23.4036L17.9468 21.8203ZM6.78709 11.6124L11.2889 11.9617L11.2905 11.9619C11.2915 11.963 11.2937 11.9656 11.2957 11.9703C11.2984 11.9767 11.2988 11.9822 11.2985 11.9851L11.2981 11.987L11.2979 11.9877L11.297 11.9894L11.2951 11.9922C10.7475 12.7018 10.0457 13.6694 9.34839 14.6308L9.34828 14.631L9.34825 14.631L9.34813 14.6312C8.9311 15.2062 8.51568 15.7789 8.13586 16.2929L2.85231 15.5821L6.78709 11.6124ZM3.49844 28.2973C4.48993 25.0695 5.5608 23.6586 6.42617 23.1588C6.84315 22.918 7.21709 22.8851 7.54228 22.9592C7.87227 23.0344 8.18068 23.2271 8.44043 23.4858C8.941 24.0802 9.05033 24.5861 8.96938 25.0179C8.88361 25.4755 8.56753 25.9427 8.03886 26.4029C6.97935 27.3252 5.24405 28.0656 3.70186 28.5226C3.5818 28.5582 3.45118 28.4511 3.49844 28.2973Z" fill="#39405D"/>
</g>
</svg>
